<svg xmlns="http://www.w3.org/2000/svg" version="1.1" xmlns:xlink="http://www.w3.org/1999/xlink" xmlns:svgjs="http://svgjs.com/svgjs" width="512" height="512" x="0" y="0" viewBox="0 0 512 512" style="enable-background:new 0 0 512 512" xml:space="preserve"><g>
<g xmlns="http://www.w3.org/2000/svg">
	<path style="" d="M362.05,38.875l-0.457-0.379c-1.952-1.582-3.748-2.982-5.489-4.275   c-0.051-0.039-0.104-0.079-0.155-0.118c-1.639-1.212-3.313-2.384-4.925-3.482c-1.272-0.876-2.556-1.728-3.854-2.573   C319.393,9.961,286.794,0,255.38,0c-6.426,0-12.876,0.412-19.168,1.221c-11.417,1.47-22.79,4.044-33.771,7.642   c-94.509,28.297-115.489,129.436-96.576,215.751c1.523,6.521,3.173,12.465,5.04,18.175c2.183,6.669,4.696,13.206,7.469,19.428   c4.856,10.904,10.82,21.397,17.698,31.149c0.755,1.079,1.51,2.152,2.316,3.251c0.777,1.05,1.563,2.096,2.316,3.066   c2.036,2.642,3.795,4.818,5.531,6.834c0.033,0.04,0.067,0.08,0.102,0.118c2.542,2.948,4.922,5.613,7.291,8.162   c1.235,1.326,2.476,2.629,3.732,3.921c8.428,8.63,16.577,15.449,24.912,20.844c6.781,4.391,13.767,7.91,21.1,10.615   c0.051,0.019,0.076,0.075,0.054,0.125l-12.795,30.292c-3.115,7.372-0.269,15.911,6.645,19.943   c1.934,1.126,19.512,11.011,41.123,11.011c2.485,0,4.929-0.133,7.334-0.395c-0.475,0.255-0.955,0.484-1.441,0.688   c-2.356,1.021-5.214,1.559-8.264,1.559l-0.793-0.011c-3.706-0.069-8.036-0.742-13.642-2.125c-2.622-0.644-5.273-1.381-7.971-2.131   c-3.233-0.897-6.574-1.827-10.134-2.687c-6.202-1.488-14.605-3.204-23.938-2.926c-10.378,0.318-20.165,3.304-28.323,8.648   c-4.936,3.242-9.034,7.167-12.203,11.695c-3.51,5.04-5.833,10.895-6.714,16.914c-1.57,10.682,1.308,21.85,8.122,31.469   c5.671,7.978,13.44,14.126,22.421,17.761c7.28,2.971,15.231,4.427,24.435,4.454c14.194-0.073,26.846-3.726,37.011-6.661   l0.364-0.107c4.823-1.415,9.553-2.767,14.052-3.807c0.096-0.022,0.146,0.099,0.072,0.165c-5.947,5.297-6.508,12.813-4.215,18.134   c2.473,5.926,8.38,9.816,14.801,9.816c2.547,0,4.938-0.54,9.143-2.06c0.115-0.042,0.233-0.087,0.349-0.131l0.428-0.164   c2.847-1.099,8.144-3.144,13.935-7.705c4.259-3.419,7.665-7.758,9.861-12.571c3.304-7.278,3.832-14.858,1.503-21.999   c-1.488-4.487-4.141-8.57-7.767-11.894c-3.033-2.738-6.674-4.873-10.922-6.381c-3.712-1.29-7.671-2.034-12.034-2.256   c1.67-0.553,3.29-1.183,4.849-1.885c6.976-3.046,13.342-7.72,18.962-13.935c9.225-10.282,14.736-23.38,15.516-36.871   c0.628-10.727-1.674-21.417-6.91-31.904c-1.568-3.068-3.346-5.997-5.32-8.768c1.052-0.315,2.105-0.648,3.159-0.999   c3.39-1.126,6.805-2.44,10.152-3.903c1.618-0.708,3.235-1.454,4.838-2.234c27.949-13.681,55.649-37.124,73.355-63.763   c10.824-15.913,19.703-33.891,26.386-53.418c0.016-0.044,0.031-0.091,0.047-0.138c4.694-13.738,8.222-27.957,10.484-42.26   C419.683,121.703,404.216,73.345,362.05,38.875z M187.638,458.137h-0.186c-4.274-0.06-7.873-0.688-10.755-1.894   c-2.473-1.021-4.794-2.889-6.35-5.107c-1.414-2.016-1.898-3.97-1.745-4.982c0.067-0.44,0.258-0.906,0.504-1.259   c0.266-0.38,0.917-1.15,2.278-2.045c2.44-1.603,5.748-2.549,9.341-2.664c0.342-0.011,0.684-0.018,1.026-0.018   c3.599,0,7.698,0.586,13.198,1.876c2.824,0.679,5.64,1.439,8.455,2.194c8.15,2.191,16.529,4.443,25.457,5.204   c0.108,0.009,0.12,0.149,0.014,0.173c-4.736,1.058-9.415,2.307-13.956,3.556C205.931,455.612,196.639,458.137,187.638,458.137z" fill="#ffffff" data-original="#ffffff"/>
	<g>
		<path style="" d="M228.04,332.936l-22.745,53.849c0,0,26.014,15.168,50.188,5.781l-10.654-65.612L228.04,332.936z" fill="#d00050" data-original="#d00050"/>
		<g>
			<path style="" d="M250.402,344.85c-0.701-1.205-6.795,1.282-14.369,0.114c-7.606-0.937-12.794-4.989-13.796-4.02     c-0.452,0.437,0.302,2.198,2.541,4.199c2.208,1.995,6.016,4.013,10.584,4.652c4.57,0.628,8.784-0.278,11.451-1.596     C249.514,346.883,250.718,345.393,250.402,344.85z" fill="#820050" data-original="#820050"/>
		</g>
		<g>
			<path style="" d="M249.261,496.052c0.062,0.149,1.389-0.189,3.842-1.079c2.415-0.939,6.124-2.262,10.165-5.443     c1.982-1.592,4.002-3.827,5.332-6.742c1.304-2.87,2.137-6.589,0.89-10.407c-0.624-1.882-1.766-3.665-3.32-5.091     c-1.565-1.412-3.472-2.448-5.491-3.164c-4.049-1.409-8.57-1.633-13.048-1.321c-9.024,0.542-18.579,2.982-28.54,5.722     c-9.953,2.704-20.585,5.593-31.862,5.523c-5.59-0.078-11.313-0.883-16.612-3.099c-5.196-2.147-9.93-5.877-13.306-10.684     c-3.347-4.775-5.327-10.727-4.451-16.468c0.427-2.85,1.526-5.618,3.219-8.05c1.703-2.427,3.981-4.505,6.559-6.199     c5.188-3.409,11.425-5.078,17.552-5.273c6.22-0.208,12.425,0.871,18.479,2.292c12.07,2.904,23.988,7.15,36.211,7.224     c6.062,0.094,12.117-1.014,17.47-3.426c5.374-2.348,9.862-5.971,13.487-9.981c7.265-8.095,10.943-18.026,11.472-27.173     c0.543-9.222-2.008-17.351-5.194-23.732c-3.274-6.408-7.301-11.173-10.946-14.593c-3.654-3.431-6.902-5.59-9.172-6.891     c-2.296-1.267-3.574-1.774-3.647-1.64c-0.271,0.414,4.753,2.857,11.475,9.873c3.321,3.506,6.96,8.255,9.835,14.442     c2.795,6.155,4.926,13.855,4.208,22.297c-0.687,8.373-4.286,17.454-11.02,24.693c-3.355,3.586-7.444,6.779-12.231,8.783     c-4.743,2.056-10.106,2.999-15.679,2.856c-5.574-0.104-11.315-1.146-17.134-2.579c-5.821-1.427-11.77-3.288-18.025-4.798     c-6.243-1.496-12.857-2.703-19.741-2.495c-6.904,0.21-13.995,2.059-20.068,6.039c-3.025,1.987-5.776,4.479-7.884,7.491     c-2.099,3.014-3.499,6.518-4.027,10.133c-1.074,7.309,1.45,14.43,5.346,19.931c3.942,5.545,9.389,9.789,15.462,12.247     c5.999,2.446,12.328,3.257,18.342,3.275c12.105-0.064,23.066-3.263,32.972-6.123c9.925-2.915,19.125-5.448,27.704-6.178     c4.271-0.409,8.298-0.275,11.805,0.823c1.731,0.557,3.29,1.356,4.542,2.407c1.234,1.062,2.148,2.389,2.68,3.804     c1.081,2.868,0.584,6.028-0.447,8.583c-1.053,2.606-2.686,4.637-4.438,6.229c-3.544,3.159-7.06,4.775-9.321,5.982     C250.405,495.243,249.192,495.891,249.261,496.052z" fill="#0b5570" data-original="#0b5570"/>
		</g>
		<g>
			<path style="" d="M336.03,54.259c-2.585-1.914,2.521-12.873,2.521-12.873     c-29.407-19.163-65.244-28.894-100.307-24.379c-15.42,1.985-30.576,6.087-44.851,12.256     c-15.347,6.633-27.952,15.074-38.211,25.088c0,0,10.001,6.023,7.347,9.283c-1.948,2.394-21.44,7.487-21.44,7.487     c-5.722,8.346-10.333,17.447-13.981,27.215c0,0,4.072,13.498,2.719,18.651c-1.55,5.906-11.266,14.644-11.266,14.644     c-1.068,6.691-1.843,13.592-2.358,20.683c-3.076,42.379,4.288,87.416,27.301,123.429c0,0,10.439-3.69,15.973,2.724     c1.895,2.197,4.607,24.191,4.607,24.191c16.509,18.017,33.797,31.446,58.338,36.407c4.213,0.852,8.43,1.472,12.631,1.863     c4.18,0.574,8.427,0.929,12.723,1.057c11.332,0.339,21.61-1.351,31.338-4.582c0,0,2.964-7.711,6.054-9.085     c2.676-1.19,11.303,1.534,11.303,1.534c7.872-4.203,15.568-9.307,23.399-15.011c21.01-15.304,37.555-35.561,49.82-58.31     c0,0-1.072-13.438,1.458-19.385c2.095-4.925,12.669-13.181,12.669-13.181c4.457-13.007,7.733-26.279,9.854-39.69     c8.092-51.155-0.395-95.362-37.779-128.794C355.892,55.48,339.667,56.952,336.03,54.259z" fill="#ff2e5f" data-original="#ff2e5f"/>
		</g>
		<path style="" d="M155.206,54.355c-5.313,5.185-10.006,10.786-14.116,16.782    C212.948,86.493,287.359,81,355.892,55.48c-3.183-2.844-6.108-5.833-9.414-8.584c-2.486-2.069-5.279-3.742-7.994-5.51    C279.779,61.038,216.133,65.664,155.206,54.355z" fill="#f2b13d" data-original="#f2b13d"/>
		<path style="" d="M121.364,220.994c34.151,29.135,75.323,49.704,118.94,61.292    c33.661,8.943,68.307,12.372,102.946,11.566c5.833-6.341,11.209-13.093,16.064-20.228c-35.965,2.21-72.096-0.09-107.649-8.316    c-50.883-11.773-98.978-37.852-135.229-75.524C117.333,200.287,118.97,210.738,121.364,220.994z" fill="#19a8b3" data-original="#19a8b3"/>
		<g>
			<g>
				<g>
					<path style="" d="M232.107,158.026c1.338,0.154,3.261-6.999,4.295-15.978c1.034-8.978,0.788-16.381-0.55-16.535       c-1.338-0.154-3.261,6.999-4.295,15.977C230.523,150.468,230.769,157.871,232.107,158.026z" fill="#820050" data-original="#820050"/>
				</g>
				<g>
					<path style="" d="M277.849,163.294c1.338,0.154,3.261-6.999,4.295-15.978c1.034-8.978,0.788-16.381-0.551-16.535       c-1.338-0.154-3.261,6.999-4.295,15.977C276.264,155.737,276.51,163.14,277.849,163.294z" fill="#820050" data-original="#820050"/>
				</g>
			</g>
			<g>
				<path style="" d="M313.224,144.497c-0.397-0.055-0.881,2.244-2.193,6.194c-1.299,3.943-3.587,9.536-7.678,15.639      c-4.133,6.029-10.207,12.552-18.505,17.394c-8.217,4.895-18.773,7.667-29.833,7.274c-11.056-0.473-21.363-4.064-29.171-9.588      c-7.893-5.476-13.437-12.456-17.085-18.789c-3.601-6.405-5.443-12.16-6.429-16.192c-0.998-4.042-1.301-6.371-1.701-6.347      c-0.168,0.009-0.282,0.6-0.342,1.732c-0.097,1.136-0.029,2.8,0.174,4.947c0.438,4.275,1.835,10.473,5.254,17.48      c3.467,6.928,9.097,14.666,17.522,20.83c8.358,6.227,19.583,10.298,31.587,10.801c12.007,0.439,23.517-2.74,32.337-8.294      c8.883-5.485,15.101-12.758,19.1-19.394c3.958-6.718,5.835-12.787,6.607-17.015c0.371-2.125,0.569-3.778,0.561-4.918      C313.457,145.118,313.391,144.519,313.224,144.497z" fill="#820050" data-original="#820050"/>
			</g>
		</g>
		<g>
			
				<ellipse transform="matrix(0.9991 -0.0429 0.0429 0.9991 -3.3987 14.8995)" style="" cx="345.732" cy="86.702" rx="9.701" ry="9.701" fill="#a55a18" data-original="#a55a18"/>
			<path style="" d="M314.518,243.321c-0.613,5.323-5.425,9.14-10.747,8.527c-5.323-0.613-9.141-5.425-8.527-10.747     c0.613-5.323,5.425-9.141,10.747-8.527C311.313,233.186,315.131,237.998,314.518,243.321z" fill="#f2b13d" data-original="#f2b13d"/>
			<path style="" d="M265.507,37.974c-0.786,6.821-6.952,11.714-13.774,10.929     c-6.821-0.786-11.714-6.953-10.928-13.774c0.786-6.821,6.952-11.714,13.774-10.928C261.4,24.986,266.293,31.152,265.507,37.974z" fill="#19a8b3" data-original="#19a8b3"/>
			<path style="" d="M380.018,223.088c-9.774-1.126-18.609,5.885-19.735,15.658     c-0.865,7.512,3.086,14.455,9.394,17.784c5.613-10.41,10.302-21.349,14.14-32.566     C382.608,223.545,381.341,223.24,380.018,223.088z" fill="#f2b13d" data-original="#f2b13d"/>
			<g>
				<path style="" d="M125.026,133.696c9.773,1.126,18.609-5.885,19.735-15.658      c1.126-9.774-5.885-18.609-15.658-19.735c-0.647-0.074-1.29-0.108-1.927-0.113c-3.907,10.426-6.724,21.609-8.614,33.454      C120.511,132.704,122.686,133.426,125.026,133.696z" fill="#0b5570" data-original="#0b5570"/>
			</g>
			<path style="" d="M175.843,287.924c1.126-9.774-5.885-18.609-15.658-19.735c-6.754-0.778-13.057,2.332-16.68,7.553     c4.411,7.174,9.325,14.056,14.883,20.497c1.9,2.202,3.802,4.333,5.713,6.418C170.298,300.451,175.039,294.901,175.843,287.924z" fill="#f2b13d" data-original="#f2b13d"/>
			<g>
				<path style="" d="M288.129,322.176c-5.323-0.613-10.134,3.205-10.747,8.527c-0.283,2.46,0.411,4.79,1.732,6.668      c5.951-1.977,11.702-4.526,17.357-7.545C295.634,325.854,292.384,322.666,288.129,322.176z" fill="#a55a18" data-original="#a55a18"/>
			</g>
			<path style="" d="M185.582,203.366c-0.718,6.237-6.357,10.71-12.594,9.992c-6.237-0.718-10.71-6.357-9.992-12.594     c0.718-6.237,6.357-10.711,12.594-9.992C181.827,191.491,186.301,197.129,185.582,203.366z" fill="#a55a18" data-original="#a55a18"/>
			<path style="" d="M245.947,299.374c-0.718,6.237-6.357,10.71-12.593,9.992c-6.237-0.718-10.711-6.357-9.992-12.594     c0.718-6.237,6.357-10.711,12.593-9.992C242.192,287.499,246.665,293.137,245.947,299.374z" fill="#0b5570" data-original="#0b5570"/>
			<path style="" d="M357.974,172.107c-0.933,8.101-8.257,13.912-16.358,12.979     c-8.101-0.933-13.912-8.257-12.979-16.358c0.933-8.101,8.257-13.912,16.358-12.979     C353.096,156.683,358.907,164.007,357.974,172.107z" fill="#0b5570" data-original="#0b5570"/>
			<path style="" d="M229.325,106.6c-1.002,8.694-8.861,14.93-17.555,13.929c-8.694-1.002-14.93-8.861-13.929-17.555     c1.001-8.694,8.861-14.93,17.555-13.929C224.09,90.047,230.326,97.906,229.325,106.6z" fill="#f2b13d" data-original="#f2b13d"/>
		</g>
	</g>
</g>















</g></svg>