<svg xmlns="http://www.w3.org/2000/svg" version="1.1" xmlns:xlink="http://www.w3.org/1999/xlink" xmlns:svgjs="http://svgjs.com/svgjs" width="512" height="512" x="0" y="0" viewBox="0 0 512 512" style="enable-background:new 0 0 512 512" xml:space="preserve"><g>
<g xmlns="http://www.w3.org/2000/svg">
	<g>
		<g>
			<g>
				<g>
					<path style="fill-rule:evenodd;clip-rule:evenodd;" d="M255.131,31.544c9.639-3.422,10.331,7.72,10.374,15.427       c0.045,7.894,0.737,13.971,1.3,20.454c1.986,22.883,1.99,39.709,2.46,60.918c0.147,6.56,0.181,13.674,0.923,20.19       c1.531,13.424,4.053,31.405-1.871,38.04c-2.326,2.607-8.737,5.432-13.946,4.665c-6.098-0.899-10.782-9.045-12.183-16.142       c-1.245-6.308-0.965-13.205-0.85-19.584c0.355-19.415,1.198-34.604,2.314-55.311c0.715-13.202,1.026-24.059,2.417-36.257       c0.509-4.457,1.66-11.257,2.522-17.199C249.364,41.391,250.184,33.302,255.131,31.544z" fill="#3b3574" data-original="#3b3574"/>
					<path style="fill-rule:evenodd;clip-rule:evenodd;" d="M260.288,22.348c2.292,3.982,3.087,15.292-3.715,15.799       c-3.736-1.391-1.76-14.786,0.959-15.793C258.578,21.966,259.435,22.149,260.288,22.348z" fill="#5f5390" data-original="#5f5390"/>
					<path style="fill-rule:evenodd;clip-rule:evenodd;" d="M259.411,44.897c6.605-2.725,7.57,15.84,2.276,16.96       C254.7,63.338,255.037,46.699,259.411,44.897z" fill="#3b3574" data-original="#3b3574"/>
					<path style="fill-rule:evenodd;clip-rule:evenodd;" d="M252.3,64.158c4.855-2.271,6.806,8.046,6.387,13.726       c-0.133,1.864-1.175,3.714-2.306,3.953C251.847,82.798,247.259,66.516,252.3,64.158z" fill="#3b3574" data-original="#3b3574"/>
					<path style="fill-rule:evenodd;clip-rule:evenodd;" d="M254.461,110.348c-4.063-3.187-3.402-12.755-1.566-16.734       C260.037,88.58,260.683,110.546,254.461,110.348z" fill="#5f5390" data-original="#5f5390"/>
					<path style="fill-rule:evenodd;clip-rule:evenodd;" d="M243.469,142.772c2.662,1.923,4.585,8.583,4.656,13.614       c0.02,1.292-0.083,4.863-2.511,5.207c-4.617,0.66-7.186-15.833-3.845-18.627C242.337,142.901,242.903,142.836,243.469,142.772z       " fill="#3b3574" data-original="#3b3574"/>
					<path style="fill-rule:evenodd;clip-rule:evenodd;" d="M273.584,145.072c0.789,3.1,0.272,6.093-0.628,9.606       c-0.588,2.297-1.867,6.907-4.344,7.261c-3.997,0.566-3.759-4.938-3.01-8.269c0.794-3.518,3.15-8.379,5.193-8.895       C272.096,144.448,272.722,144.788,273.584,145.072z" fill="#5f5390" data-original="#5f5390"/>
					<path style="fill-rule:evenodd;clip-rule:evenodd;" d="M248.394,87.361c3.508-1.275,4.637,4.425,4.847,9.287       c0.188,4.254-0.318,9.713-3.348,9.917c-4.392,0.291-5.178-16.037-2.489-18.785C247.67,87.514,247.945,87.522,248.394,87.361z" fill="#3b3574" data-original="#3b3574"/>
					<path style="fill-rule:evenodd;clip-rule:evenodd;" d="M262.806,95.865c2.862,2.809,4.484,18.58-1.327,18.606       C256.55,114.492,255.422,94.272,262.806,95.865z" fill="#3b3574" data-original="#3b3574"/>
					<path style="fill-rule:evenodd;clip-rule:evenodd;" d="M258.859,151.978c2.324,2.598,2.408,7.662,2.097,12.369       c-0.203,3.143-0.879,9.547-4.402,9.729c-2.922,0.15-3.513-4.151-3.661-7.887C252.668,160.291,253.765,150.967,258.859,151.978z       " fill="#3b3574" data-original="#3b3574"/>
					<path style="fill-rule:evenodd;clip-rule:evenodd;" d="M251.352,49.813c-0.89-4.341,0.523-15.58,7.195-12.506       C261.66,42.979,258.536,54.792,251.352,49.813z" fill="#b9b7e6" data-original="#b9b7e6"/>
					<path style="fill-rule:evenodd;clip-rule:evenodd;" d="M265.479,67.884c4.783-1.974,4.678,5.857,4.542,9.631       c-0.124,3.512-0.943,8.389-5.328,7.681C260.028,84.439,262.057,69.297,265.479,67.884z" fill="#3b3574" data-original="#3b3574"/>
					<path style="fill-rule:evenodd;clip-rule:evenodd;" d="M249.868,76.12c6.926-5.212,9.828,17.34,4.156,18.288       C247.994,95.412,246.98,79.636,249.868,76.12z" fill="#5f5390" data-original="#5f5390"/>
					<path style="fill-rule:evenodd;clip-rule:evenodd;" d="M246.638,96.172c4.049,2.836,3.557,20.119-2.654,19.06       c-1.727-0.294-2.629-4.338-2.8-6.446C240.726,103.137,241.428,95.472,246.638,96.172z" fill="#8780be" data-original="#8780be"/>
					<path style="fill-rule:evenodd;clip-rule:evenodd;" d="M265.708,100.148c6.307-3.122,7.275,16.989,1.29,17.383       C261.521,117.89,263.19,101.395,265.708,100.148z" fill="#5f5390" data-original="#5f5390"/>
					<path style="fill-rule:evenodd;clip-rule:evenodd;" d="M256.6,107.954c6.591-2.049,5.313,16.921,0.577,17.156       c-5.706,0.28-3.569-15.219-1.561-16.737C255.917,108.143,256.122,108.1,256.6,107.954z" fill="#8780be" data-original="#8780be"/>
					<path style="fill-rule:evenodd;clip-rule:evenodd;" d="M248.846,130.671c1.536,1.591,1.572,4.857,1.922,7.774       c0.533,0.267,1.009-1.879,2.924-1.56c2.032,1.276,3.286,4.243,3.996,7.846c0.513,2.581,1.422,7.655-1.139,8.127       c-3.093,0.569-4.675-6.903-5.532-9.21c-0.834,1.906-0.482,4.43-2.919,4.637c-5.102,0.435-5.09-15.451-2.006-17.608       C247.246,130.41,248.011,130.578,248.846,130.671z" fill="#5f5390" data-original="#5f5390"/>
					<path style="fill-rule:evenodd;clip-rule:evenodd;" d="M261.951,130.715c3.971-2.964,5.089,2.512,5.291,7.083       c0.18,4.169,0.148,11.1-2.837,11.395c-2.938,0.289-3.44-5.626-3.73-8.495C260.257,136.511,260.914,133.188,261.951,130.715z" fill="#5f5390" data-original="#5f5390"/>
					<path style="fill-rule:evenodd;clip-rule:evenodd;" d="M245.963,171.9c-3.9-0.431-7.555-7.811-7.987-12.621       c-0.146-1.634,0.254-3.388,0.844-4.71c4.166-2.926,7.494,5.491,8.459,10.722C247.785,168.033,247.904,171.007,245.963,171.9z" fill="#8780be" data-original="#8780be"/>
					<path style="fill-rule:evenodd;clip-rule:evenodd;" d="M276.665,153.946c1.726,2.114,0.283,7.074-1.209,10.594       c-1.144,2.717-3.201,6.772-6.149,6.544c-6.399-0.499,1.775-15.454,3.274-16.672       C273.394,153.753,275.355,153.365,276.665,153.946z" fill="#3b3574" data-original="#3b3574"/>
					<path style="fill-rule:evenodd;clip-rule:evenodd;" d="M253.152,195.683c-2.159-4.739-1.3-11.816-0.575-17.155       c0.451-3.318,1.049-6.809,3.325-7.145c3.457-0.511,4.66,5.075,4.849,9.289c0.135,3.012-0.522,17.009-4.566,17.434       C254.461,198.285,253.574,196.6,253.152,195.683z" fill="#5f5390" data-original="#5f5390"/>
					<path style="fill-rule:evenodd;clip-rule:evenodd;" d="M251.666,200.772c-5.308-1.244-7.628-5.132-10.772-9.844       c-1.021-1.527-2.693-3.83-3.86-6.632c-0.811-1.946-2.185-6.716,0.159-7.706c3.877-1.642,8.216,6.172,9.544,8.138       c2.565,3.796,5.848,7.839,6.45,11.26C253.594,198.28,253.139,199.755,251.666,200.772z" fill="#5f5390" data-original="#5f5390"/>
					<path style="fill-rule:evenodd;clip-rule:evenodd;" d="M276.681,181.316c0.544,2.99-1.879,5.656-3.558,8.094       c-1.718,2.49-3.22,5.111-5.059,7.035c-1.729,1.81-4.669,4.726-8.23,3.396c-1.18-3.285,1.98-8.211,4.846-11.931       C267.292,184.517,272.535,177.964,276.681,181.316z" fill="#5f5390" data-original="#5f5390"/>
					<path style="fill-rule:evenodd;clip-rule:evenodd;" d="M257.536,25.429c1.393,5.022,0.298,10.603-3.349,12.99       c-0.073,2.817,0.27,10.72-3.926,10.903c-3.562,0.154-3.549-6.173-2.466-9.561c0.664-2.088,2.038-3.595,3.223-4.978       C251.475,30.716,252.029,24.105,257.536,25.429z" fill="#3b3574" data-original="#3b3574"/>
					<path style="fill-rule:evenodd;clip-rule:evenodd;" d="M256.187,49.878c3.439,2.516,4.479,12.898,1.459,15.824       c-1.75,0.246-3.011-0.049-4.189-0.444C251.478,60.909,248.963,50.356,256.187,49.878z" fill="#8780be" data-original="#8780be"/>
					<path style="fill-rule:evenodd;clip-rule:evenodd;" d="M246.778,61.097c5.251-1.346,5.386,17.156,1.363,17.99       c-3.85,0.797-4.597-5.663-4.747-8.379C243.172,66.706,243.514,61.936,246.778,61.097z" fill="#8780be" data-original="#8780be"/>
					<path style="fill-rule:evenodd;clip-rule:evenodd;" d="M264.011,24.77c5.251-1.347,5.389,17.154,1.361,17.988       c-3.847,0.795-4.596-5.663-4.748-8.379C260.401,30.378,260.748,25.606,264.011,24.77z" fill="#8780be" data-original="#8780be"/>
					<path style="fill-rule:evenodd;clip-rule:evenodd;" d="M261.14,78.22c3.071,2.744,2.949,9.144,2.237,13.583       c-0.498,3.117-1.697,6.855-5.093,6.732c-3.807-3.062-2.617-15.149-0.103-19.055C258.712,78.655,259.361,78.179,261.14,78.22z" fill="#8780be" data-original="#8780be"/>
					<path style="fill-rule:evenodd;clip-rule:evenodd;" d="M253.288,121.244c1.797,1.363,2.842,4.027,2.976,7.966       c0.141,4.025-0.114,8.753-2.738,9.23c-5.792,1.054-5.394-12.142-3.431-14.985c-3.584-2.88-4.854-17.737,0.34-18.182       C255.823,104.809,254.579,118.392,253.288,121.244z" fill="#b9b7e6" data-original="#b9b7e6"/>
					<path style="fill-rule:evenodd;clip-rule:evenodd;" d="M263.723,112.981c1.74,3.535,3.855,19.046-2.007,18.682       C257.701,131.416,256.241,109.927,263.723,112.981z" fill="#b9b7e6" data-original="#b9b7e6"/>
					<path style="fill-rule:evenodd;clip-rule:evenodd;" d="M244.181,129.049c1.757,3.109,2.961,17.035-1.537,16.781       C239.288,145.641,237.102,127.269,244.181,129.049z" fill="#8780be" data-original="#8780be"/>
					<path style="fill-rule:evenodd;clip-rule:evenodd;" d="M270.805,132.78c2.047,2.481,1.303,7.19,0.224,11.045       c-0.726,2.603-1.641,6.191-4.855,5.782C262.985,146.918,264.358,130.244,270.805,132.78z" fill="#3b3574" data-original="#3b3574"/>
					<path style="fill-rule:evenodd;clip-rule:evenodd;" d="M261.524,139.065c1.476,1.392,1.714,3.942,1.75,6.261       c0.064,3.987-0.407,9.68-4.341,10.335C255.783,152.607,254.934,137.988,261.524,139.065z" fill="#b9b7e6" data-original="#b9b7e6"/>
					<path style="fill-rule:evenodd;clip-rule:evenodd;" d="M250.363,159.098c3.377,2.474,5.105,12.849,2.583,16.618       C247.347,178.153,242.085,158.767,250.363,159.098z" fill="#b9b7e6" data-original="#b9b7e6"/>
					<path style="fill-rule:evenodd;clip-rule:evenodd;" d="M268.166,161.066c1.449,3.174-0.261,6.859-1.305,9.681       c-0.976,2.632-1.646,6.836-6.117,6.848c-4.238-4.117,0.508-14.06,4.293-16.788       C265.713,160.322,267.241,160.882,268.166,161.066z" fill="#b9b7e6" data-original="#b9b7e6"/>
					<path style="fill-rule:evenodd;clip-rule:evenodd;" d="M238.702,165.656c4.763-0.377,7.371,7.312,8.188,11.367       c0.339,1.672,0.835,5.653-1.008,6.265c-2.751,0.913-5.852-5.389-6.684-7.234C237.685,172.706,236.333,167.818,238.702,165.656z       " fill="#b9b7e6" data-original="#b9b7e6"/>
					<path style="fill-rule:evenodd;clip-rule:evenodd;" d="M266.748,184.907c-2.215-1.598-0.487-5.515,1.075-8.732       c1.921-3.96,4.057-10.327,9.073-8.109C278.401,171.906,272.481,185.951,266.748,184.907z" fill="#b9b7e6" data-original="#b9b7e6"/>
					<path style="fill-rule:evenodd;clip-rule:evenodd;" d="M248.835,48.871c7.034-2.789,5.41,16.424,2.686,17.529       c-3.543,1.439-5.11-3.039-5.526-6.135C245.344,55.415,246.451,49.812,248.835,48.871z" fill="#5f5390" data-original="#5f5390"/>
					<path style="fill-rule:evenodd;clip-rule:evenodd;" d="M259.813,60.535c6.093-1.539,5.451,18.269,0.75,18.674       c-2.83,0.243-4.288-4.429-4.408-8.416c-0.092-3.152,0.557-7.409,1.108-8.43C257.392,62.124,258.817,60.786,259.813,60.535z" fill="#5f5390" data-original="#5f5390"/>
					<path style="fill-rule:evenodd;clip-rule:evenodd;" d="M244.494,77.349c3.005-1.185,4.273,1.607,4.741,5.303       c0.572,4.489-0.307,14.825-3.782,15.191c-3.189,0.338-3.97-6.696-4.073-11.529C241.3,82.579,242.213,78.247,244.494,77.349z" fill="#b9b7e6" data-original="#b9b7e6"/>
					<path style="fill-rule:evenodd;clip-rule:evenodd;" d="M265.914,83.826c6.084-2.246,5.79,16.793,0.918,17.116       C261.636,101.288,262.213,85.192,265.914,83.826z" fill="#b9b7e6" data-original="#b9b7e6"/>
					<path style="fill-rule:evenodd;clip-rule:evenodd;" d="M246.874,113.366c3.301,2.788,4.35,18.521-1.699,18.338       C240.226,131.555,239.91,111.027,246.874,113.366z" fill="#3b3574" data-original="#3b3574"/>
					<path style="fill-rule:evenodd;clip-rule:evenodd;" d="M270.158,115.017c2.277,2.126,2.347,7.862,1.42,12.448       c-0.476,2.356-1.855,6.889-4.378,6.957c-2.909,0.079-3.12-4.24-3.214-7.015c-0.143-4.364,0.8-8.851,2.123-11.621       C266.861,114.989,268.898,114.661,270.158,115.017z" fill="#8780be" data-original="#8780be"/>
					<path style="fill-rule:evenodd;clip-rule:evenodd;" d="M259.456,123.926c2.523,3.225,3.025,12.313,0.88,16.811       c-1.382,2.909-4.169,3.954-5.512,0.016c-1.53-4.478-0.646-12.853,0.922-16.097C256.482,123.904,258.236,123.56,259.456,123.926       z" fill="#3b3574" data-original="#3b3574"/>
					<path style="fill-rule:evenodd;clip-rule:evenodd;" d="M252.892,144.97c2.538,2.019,5.545,17.614-0.001,18.144       C248.436,163.543,244.516,142.804,252.892,144.97z" fill="#8780be" data-original="#8780be"/>
					<path style="fill-rule:evenodd;clip-rule:evenodd;" d="M260.827,166.208c-2.582-1.573-1.65-5.867-1.038-9.105       c0.624-3.319,1.522-6.471,3.216-8.056c0.44-0.409,1.247-0.754,1.634-0.799c4.707-0.565,2.763,7.004,2.126,9.595       C265.8,161.791,265.15,165.407,260.827,166.208z" fill="#8780be" data-original="#8780be"/>
					<path style="fill-rule:evenodd;clip-rule:evenodd;" d="M245.99,171.649c6.624-3.162,11.666,16.781,5.886,18.394       C245.589,191.802,240.804,174.124,245.99,171.649z" fill="#3b3574" data-original="#3b3574"/>
					<path style="fill-rule:evenodd;clip-rule:evenodd;" d="M270.84,169.371c1.485,4.148-1.027,8.833-3.146,11.738       c-1.463,2.009-4.137,4.779-7.819,3.967C257.165,180.107,263.086,166.227,270.84,169.371z" fill="#8780be" data-original="#8780be"/>
				</g>
				<path style="fill-rule:evenodd;clip-rule:evenodd;" d="M261.862,229.749c2.506-1.508,3.878-4.678,6.081-7.151      c2.048-2.297,4.627-5.108,8.67-5.602c2.152,1.973-0.258,5.08-1.892,7.598c-1.49,2.289-3.143,4.956-4.753,6.693      c-2.114,2.272-9.716,8.604-10.037,2.678c-0.502,0.667-4.226,2.13-5.476,0.317c1.058,1.157,2.581,3.655,1.301,5.387      c-5.224,1.109-9.541-3.391-12.843-6.836c-4.268-4.454-8.3-9.971-8.203-17.519c4.392-3.65,8.994,3.528,11.518,7.299      c2.93,4.377,5.391,8.161,7.44,10.838c-2.526-4.5-8.921-12.669-7.9-20.935c0.15-1.238,0.904-2.649,1.73-2.963      c3.681-1.41,5.53,3.388,6.512,5.714c1.528,3.616,2.098,6.317,3.151,9.483c1.98-2.767,2.908-14.197,9.161-13.347      c4.364,3.464-2.436,14.746-4.117,18.305C262.088,229.722,261.977,229.735,261.862,229.749z" fill="#3b3574" data-original="#3b3574"/>
			</g>
			<path style="fill-rule:evenodd;clip-rule:evenodd;" d="M277.878,222.078c0.784,3.514-2.247,7.081-4.744,9.768     c-3.407,3.665-7.216,7.044-13.498,8.611c2.725,19.407,2.345,39.145,3.615,58.939c0.91,14.14,3.623,29.046,5.936,42.996     c2.787,16.822,2.329,34.237,3.364,50.666c0.424,6.782,1.454,12.797,2.585,19.694c1.982,12.063,3.644,24.631,5.311,37.53     c-3.372,2.269-6.601,4.641-11.015,6.176c-3.021-26.993-9.195-55.757-8.285-81.782c0.222-6.379,0.933-12.718,0.578-19.132     c-1.053-18.782-4.829-35.495-5.411-53.507c-0.076-2.34-0.532-6.341-0.734-9.45c-1.149-17.893-1.463-34.262-1.387-51.508     c-5.735-1.817-11.046-3.713-15.057-8.126c-1.972-2.163-4.306-5.263-3.011-8.267c3.853,0.928,6.207,4.195,8.692,6.699     c2.589,2.616,4.83,5.551,8.692,6.699c-2.256-2.629-4.41-5.856-6.245-9.437c-1.736-3.384-3.935-7.428-3.055-11.647     c3.351,0.145,4.597,3.593,5.868,6.098c1.361,2.685,2.564,5.887,3.725,8.495c0.462-8.329-0.692-17.797,0.528-25.585     c-5.81-1.36-10.603-4.173-14.106-8.849c-1.384-1.852-3.701-4.553-2.53-7.092c2.034-0.367,2.785,1.756,3.746,2.648     c2.917,2.692,6.825,5.431,10.839,7.376c-0.763-3.087-4.055-8.421-4.653-13.617c-0.172-1.491-0.637-3.773,1.216-4.444     c3.027,4.257,4.405,10.36,6.597,15.545c1.229-1.193,1.374-2.987,1.899-4.521c0.53-1.545,1.215-2.998,1.898-4.52     c1.199-2.678,1.874-6.5,5.703-7.416c1.403,2.882-0.109,6.321-1.005,9.341c-0.918,3.106-1.939,6.314-3.114,8.964     c2.271-1.192,5.026-3.136,7.718-4.876c2.608-1.686,5.201-4.107,8.503-4.045c-0.021,1.901-1.723,3.523-2.884,4.94     c-3.337,4.066-7.787,8.152-15.096,9.719c-0.915,7.912-0.57,16.718-0.19,25.544c1.188-1.657,2.665-4.201,4.07-6.611     c1.272-2.173,2.115-5.502,5.538-5.86c1.872,2.552-0.499,6.032-1.786,8.508c-1.465,2.809-3.35,5.486-4.615,7.903     c-0.038,0.254-0.309,0.343-0.272,0.646c4.37-3.06,7.776-6.613,11.589-10.237C274.616,223.887,275.693,222.122,277.878,222.078z" fill="#446d00" data-original="#446d00"/>
			<g>
				<path style="fill-rule:evenodd;clip-rule:evenodd;" d="M264.297,369.088c-4.69,1.754-12.578-5.004-11.417-9.463      c0.275-1.064,1.757-0.71,3.029-0.652c-1.837-2.646-3.227-6.147-4.922-9.896c-1.882-4.172-6.794-10.477-3.222-13.164      c2.534-1.904,5.067,3.791,6.614,6.627c3.185,5.845,6.429,10.439,8.811,16.832C264.395,362.595,265.603,366.146,264.297,369.088z      " fill="#6a8700" data-original="#6a8700"/>
				<path style="fill-rule:evenodd;clip-rule:evenodd;" d="M266.095,384.874c1.794,3.074,1.796,9.36-0.044,11.691      C262.492,397.96,261.742,384.427,266.095,384.874z" fill="#adbc00" data-original="#adbc00"/>
				<path style="fill-rule:evenodd;clip-rule:evenodd;" d="M267.494,403.167c-0.222,2.17,1.974,6.044-1.01,6.264      C264.951,408.192,263.547,401.054,267.494,403.167z" fill="#adbc00" data-original="#adbc00"/>
			</g>
		</g>
		<g>
			<g>
				<path style="fill-rule:evenodd;clip-rule:evenodd;" d="M140.934,8.15c-10.244-0.591-7.641,10.276-5.426,17.674      c2.272,7.578,3.389,13.593,4.749,19.964c4.802,22.481,9.731,38.606,15.491,59.065c1.785,6.328,3.835,13.152,5.034,19.606      c2.467,13.29,5.316,31.225,12.939,35.93c2.994,1.851,9.965,2.773,14.729,0.583c5.582-2.562,7.682-11.671,6.944-18.863      c-0.653-6.392-2.94-12.922-4.917-19.004c-6.031-18.508-11.289-32.829-18.428-52.361c-4.551-12.45-8.035-22.769-12.939-34.07      c-1.795-4.131-4.889-10.324-7.457-15.781C149.341,15.977,146.187,8.456,140.934,8.15z" fill="#3b3574" data-original="#3b3574"/>
				<path style="fill-rule:evenodd;clip-rule:evenodd;" d="M133.295,0.774c-1.028,4.454,1.524,15.515,8.189,14.106      c3.174-2.376-2.647-14.664-5.544-14.871C134.824-0.069,134.055,0.347,133.295,0.774z" fill="#5f5390" data-original="#5f5390"/>
				<path style="fill-rule:evenodd;clip-rule:evenodd;" d="M140.744,22.136c-7.129-0.768-2.617,17.292,2.787,16.89      C150.66,38.498,145.461,22.646,140.744,22.136z" fill="#3b3574" data-original="#3b3574"/>
				<path style="fill-rule:evenodd;clip-rule:evenodd;" d="M153.202,38.614c-5.32-0.822-4.162,9.607-2.098,14.933      c0.674,1.75,2.211,3.231,3.367,3.147C159.093,56.353,158.72,39.469,153.202,38.614z" fill="#3b3574" data-original="#3b3574"/>
				<path style="fill-rule:evenodd;clip-rule:evenodd;" d="M164.663,83.482c2.962-4.187-0.473-13.173-3.404-16.475      C152.942,64.173,158.761,85.404,164.663,83.482z" fill="#5f5390" data-original="#5f5390"/>
				<path style="fill-rule:evenodd;clip-rule:evenodd;" d="M184.696,111.49c-1.986,2.585-1.874,9.501-0.469,14.343      c0.359,1.244,1.504,4.635,3.93,4.292c4.619-0.656,2.248-17.177-1.772-18.925C185.821,111.296,185.261,111.393,184.696,111.49z" fill="#3b3574" data-original="#3b3574"/>
				<path style="fill-rule:evenodd;clip-rule:evenodd;" d="M156.512,122.086c0.152,3.19,1.526,5.914,3.419,9.03      c1.235,2.036,3.811,6.099,6.29,5.748c3.992-0.572,2.155-5.779,0.46-8.761c-1.788-3.154-5.474-7.154-7.581-7.079      C157.759,121.072,157.254,121.575,156.512,122.086z" fill="#5f5390" data-original="#5f5390"/>
				<path style="fill-rule:evenodd;clip-rule:evenodd;" d="M163.742,59.762c-3.735-0.243-3.146,5.533-1.924,10.251      c1.066,4.129,3.153,9.219,6.113,8.57c4.297-0.945,0.265-16.813-3.122-18.695C164.483,59.705,164.22,59.793,163.742,59.762z" fill="#3b3574" data-original="#3b3574"/>
				<path style="fill-rule:evenodd;clip-rule:evenodd;" d="M152.426,71.928c-1.926,3.489,1.146,19.053,6.72,17.459      C163.872,88.034,159.033,68.343,152.426,71.928z" fill="#3b3574" data-original="#3b3574"/>
				<path style="fill-rule:evenodd;clip-rule:evenodd;" d="M172.648,124.601c-1.466,3.138-0.066,8.015,1.611,12.439      c1.119,2.955,3.644,8.901,7.073,8.096c2.845-0.673,2.153-4.957,1.192-8.579C181.015,130.843,177.234,122.211,172.648,124.601z" fill="#3b3574" data-original="#3b3574"/>
				<path style="fill-rule:evenodd;clip-rule:evenodd;" d="M149.905,24.603c-0.421-4.406-5.064-14.786-10.556-9.979      C138.026,20.925,144.483,31.379,149.905,24.603z" fill="#b9b7e6" data-original="#b9b7e6"/>
				<path style="fill-rule:evenodd;clip-rule:evenodd;" d="M137.259,18.293c0.661-4.408-1.325-15.5-7.823-11.848      C126.623,12.376,130.349,23.89,137.259,18.293z" fill="#b9b7e6" data-original="#b9b7e6"/>
				<path style="fill-rule:evenodd;clip-rule:evenodd;" d="M141.663,45.86c-5.16-0.561-2.766,6.916-1.53,10.495      c1.147,3.33,3.362,7.776,7.355,5.876C151.74,60.202,145.357,46.259,141.663,45.86z" fill="#3b3574" data-original="#3b3574"/>
				<path style="fill-rule:evenodd;clip-rule:evenodd;" d="M159.036,49.402c-8.165-3.066-4.336,19.356,1.378,18.68      C166.485,67.364,162.832,51.964,159.036,49.402z" fill="#5f5390" data-original="#5f5390"/>
				<path style="fill-rule:evenodd;clip-rule:evenodd;" d="M137.902,13.182c-8.163-3.067-4.336,19.356,1.381,18.68      C145.354,31.143,141.7,15.745,137.902,13.182z" fill="#5f5390" data-original="#5f5390"/>
				<path style="fill-rule:evenodd;clip-rule:evenodd;" d="M168.007,67.715c-3.045,3.846,2.486,20.27,8.125,17.527      c1.571-0.764,1.253-4.89,0.798-6.957C175.714,72.743,172.795,65.591,168.007,67.715z" fill="#8780be" data-original="#8780be"/>
				<path style="fill-rule:evenodd;clip-rule:evenodd;" d="M150.902,76.84c-6.965-1.232-1.998,18.31,3.852,17.018      C160.107,92.675,153.677,77.336,150.902,76.84z" fill="#5f5390" data-original="#5f5390"/>
				<path style="fill-rule:evenodd;clip-rule:evenodd;" d="M161.912,81.781c-6.917-0.125-0.133,17.696,4.476,16.602      c5.55-1.322-1.04-15.579-3.407-16.475C162.623,81.772,162.413,81.79,161.912,81.781z" fill="#8780be" data-original="#8780be"/>
				<path style="fill-rule:evenodd;clip-rule:evenodd;" d="M175.998,101.39c-1.002,1.953-0.083,5.095,0.439,7.988      c-0.434,0.404-1.518-1.52-3.261-0.682c-1.571,1.79-1.904,4.98-1.532,8.636c0.268,2.615,0.882,7.728,3.475,7.466      c3.133-0.316,2.458-7.916,2.604-10.366c1.356,1.592,1.761,4.11,4.156,3.63c5.017-1.006,0.349-16.224-3.235-17.432      C177.456,100.696,176.772,101.069,175.998,101.39z" fill="#5f5390" data-original="#5f5390"/>
				<path style="fill-rule:evenodd;clip-rule:evenodd;" d="M163.454,105.085c-4.675-1.733-4.138,3.825-2.995,8.265      c1.048,4.042,3.111,10.677,6.062,10.127c2.896-0.541,1.643-6.35,1.082-9.177C166.779,110.167,165.174,107.168,163.454,105.085z" fill="#5f5390" data-original="#5f5390"/>
				<path style="fill-rule:evenodd;clip-rule:evenodd;" d="M190.841,140.097c3.614-1.497,4.954-9.593,3.962-14.319      c-0.342-1.608-1.242-3.175-2.189-4.28c-4.853-1.64-5.576,7.35-4.966,12.635C187.968,136.899,188.723,139.784,190.841,140.097z" fill="#8780be" data-original="#8780be"/>
				<path style="fill-rule:evenodd;clip-rule:evenodd;" d="M156.164,131.45c-1.037,2.507,1.801,6.859,4.259,9.814      c1.896,2.284,5.052,5.599,7.808,4.559c5.99-2.263-6.226-14.317-8.021-15.068C159.236,130.354,157.247,130.527,156.164,131.45z" fill="#3b3574" data-original="#3b3574"/>
				<path style="fill-rule:evenodd;clip-rule:evenodd;" d="M190.919,164.892c0.684-5.144-2.215-11.687-4.471-16.601      c-1.407-3.055-3.003-6.23-5.281-5.919c-3.464,0.472-2.982,6.162-1.926,10.252c0.755,2.923,5.483,16.156,9.482,15.436      C190.432,167.751,190.788,165.887,190.919,164.892z" fill="#5f5390" data-original="#5f5390"/>
				<path style="fill-rule:evenodd;clip-rule:evenodd;" d="M193.836,169.355c4.724-2.673,5.808-7.044,7.441-12.435      c0.53-1.75,1.458-4.422,1.754-7.433c0.208-2.089,0.128-7.044-2.407-7.342c-4.197-0.489-6.067,8.209-6.764,10.46      c-1.344,4.352-3.305,9.142-2.884,12.587C191.259,167.505,192.128,168.791,193.836,169.355z" fill="#5f5390" data-original="#5f5390"/>
				<path style="fill-rule:evenodd;clip-rule:evenodd;" d="M164.162,157.68c0.358,3.018,3.459,4.898,5.784,6.765      c2.375,1.908,4.584,4.001,6.909,5.331c2.187,1.253,5.858,3.228,8.883,0.964c0.166-3.48-4.305-7.317-8.139-10.085      C174.102,158.131,167.155,153.313,164.162,157.68z" fill="#5f5390" data-original="#5f5390"/>
				<path style="fill-rule:evenodd;clip-rule:evenodd;" d="M136.836,2.96c0.134,5.201,2.82,10.245,7.012,11.516      c0.895,2.679,2.886,10.348,6.959,9.353c3.457-0.846,1.59-6.904-0.437-9.849c-1.251-1.815-3.007-2.878-4.549-3.873      C144.196,6.336,141.724,0.156,136.836,2.96z" fill="#3b3574" data-original="#3b3574"/>
				<path style="fill-rule:evenodd;clip-rule:evenodd;" d="M145.293,26.013c-2.56,3.37-0.517,13.609,3.237,15.573      c1.752-0.254,2.871-0.889,3.883-1.595C153.037,35.272,152.359,24.457,145.293,26.013z" fill="#8780be" data-original="#8780be"/>
				<path style="fill-rule:evenodd;clip-rule:evenodd;" d="M157.593,34.142c-5.424,0.173-0.134,17.941,3.968,17.618      c3.922-0.307,2.746-6.706,2.095-9.351C162.696,38.51,160.972,34.036,157.593,34.142z" fill="#8780be" data-original="#8780be"/>
				<path style="fill-rule:evenodd;clip-rule:evenodd;" d="M136.165,30.839c-5.425,0.171-0.134,17.939,3.966,17.617      c3.921-0.308,2.746-6.708,2.095-9.351C141.268,35.207,139.539,30.73,136.165,30.839z" fill="#8780be" data-original="#8780be"/>
				<path style="fill-rule:evenodd;clip-rule:evenodd;" d="M148.849,54.555c-2.134,3.486-0.144,9.582,1.837,13.639      c1.39,2.847,3.635,6.095,6.853,5.031c2.753-3.994-1.931-15.248-5.487-18.289C151.303,54.293,150.543,54.018,148.849,54.555z" fill="#8780be" data-original="#8780be"/>
				<path style="fill-rule:evenodd;clip-rule:evenodd;" d="M168.98,93.597c-1.316,1.806-1.54,4.649-0.519,8.462      c1.048,3.894,2.676,8.356,5.33,8.083c5.86-0.605,1.613-13.14-1.1-15.318c2.591-3.762-0.547-18.35-5.653-17.33      C161.738,78.55,166.91,91.223,168.98,93.597z" fill="#b9b7e6" data-original="#b9b7e6"/>
				<path style="fill-rule:evenodd;clip-rule:evenodd;" d="M156.561,88.585c-0.633,3.871,1.886,19.326,7.396,17.344      C167.735,104.571,162.834,83.572,156.561,88.585z" fill="#b9b7e6" data-original="#b9b7e6"/>
				<path style="fill-rule:evenodd;clip-rule:evenodd;" d="M179.992,98.538c-0.772,3.467,2.158,17.147,6.39,15.653      C189.546,113.073,186.257,94.861,179.992,98.538z" fill="#8780be" data-original="#8780be"/>
				<path style="fill-rule:evenodd;clip-rule:evenodd;" d="M155.575,109.533c-1.234,2.946,0.859,7.254,3.022,10.647      c1.46,2.294,3.386,5.474,6.345,4.189C167.215,120.901,161.012,105.305,155.575,109.533z" fill="#3b3574" data-original="#3b3574"/>
				<path style="fill-rule:evenodd;clip-rule:evenodd;" d="M166.312,112.969c-1.01,1.747-0.483,4.254,0.157,6.485      c1.107,3.84,3.228,9.167,7.186,8.698C175.777,124.346,172.311,110.098,166.312,112.969z" fill="#b9b7e6" data-original="#b9b7e6"/>
				<path style="fill-rule:evenodd;clip-rule:evenodd;" d="M182.876,129.057c-2.513,3.31-1.128,13.732,2.391,16.645      C191.348,146.474,190.709,126.429,182.876,129.057z" fill="#b9b7e6" data-original="#b9b7e6"/>
				<path style="fill-rule:evenodd;clip-rule:evenodd;" d="M166.389,135.902c-0.451,3.445,2.262,6.5,4.094,8.915      c1.7,2.25,3.58,6.093,7.863,4.858c2.856-5.128-4.604-13.333-9.03-14.893C168.525,134.505,167.224,135.469,166.389,135.902z" fill="#b9b7e6" data-original="#b9b7e6"/>
				<path style="fill-rule:evenodd;clip-rule:evenodd;" d="M195.973,132.09c-4.675,0.964-4.922,9.06-4.518,13.173      c0.163,1.701,0.856,5.653,2.804,5.724c2.904,0.108,4.027-6.796,4.281-8.795C199.009,138.563,198.872,133.499,195.973,132.09z" fill="#b9b7e6" data-original="#b9b7e6"/>
				<path style="fill-rule:evenodd;clip-rule:evenodd;" d="M174.734,158.357c1.657-2.148-1.147-5.422-3.587-8.071      c-3.003-3.262-6.914-8.765-11.07-5.242C159.76,149.142,169.548,160.952,174.734,158.357z" fill="#b9b7e6" data-original="#b9b7e6"/>
				<path style="fill-rule:evenodd;clip-rule:evenodd;" d="M152.046,22.997c-7.563-0.712-0.377,17.248,2.56,17.549      c3.813,0.39,4.007-4.337,3.496-7.42C157.305,28.298,154.603,23.238,152.046,22.997z" fill="#5f5390" data-original="#5f5390"/>
				<path style="fill-rule:evenodd;clip-rule:evenodd;" d="M144.94,37.236c-6.29,0.224,0.128,19.026,4.754,18.103      c2.779-0.554,2.81-5.44,1.758-9.292c-0.839-3.047-2.708-6.946-3.535-7.768C147.726,38.084,145.969,37.199,144.94,37.236z" fill="#5f5390" data-original="#5f5390"/>
				<path style="fill-rule:evenodd;clip-rule:evenodd;" d="M164.546,49.081c-3.228-0.298-3.625,2.729-2.987,6.401      c0.767,4.461,4.633,14.121,8.075,13.505c3.153-0.565,1.839-7.525,0.526-12.186C169.141,53.201,166.997,49.307,164.546,49.081z" fill="#b9b7e6" data-original="#b9b7e6"/>
				<path style="fill-rule:evenodd;clip-rule:evenodd;" d="M145.916,61.257c-6.485-0.457-0.623,17.705,4.137,16.659      C155.138,76.797,149.867,61.534,145.916,61.257z" fill="#b9b7e6" data-original="#b9b7e6"/>
				<path style="fill-rule:evenodd;clip-rule:evenodd;" d="M172.819,84.258c-2.345,3.591,1.259,18.957,7.003,17.099      C184.516,99.837,178.803,80.076,172.819,84.258z" fill="#3b3574" data-original="#3b3574"/>
				<path style="fill-rule:evenodd;clip-rule:evenodd;" d="M150.989,92.329c-1.561,2.672,0.056,8.188,2.288,12.324      c1.145,2.126,3.797,6.085,6.232,5.447c2.813-0.734,1.747-4.933,1.024-7.618c-1.141-4.222-3.36-8.259-5.44-10.543      C154.139,91.382,152.097,91.639,150.989,92.329z" fill="#8780be" data-original="#8780be"/>
				<path style="fill-rule:evenodd;clip-rule:evenodd;" d="M163.857,97.884c-1.473,3.793,0.711,12.644,4.083,16.357      c2.176,2.402,5.156,2.623,5.288-1.524c0.148-4.718-3.144-12.496-5.603-15.169C166.697,97.035,164.918,97.194,163.857,97.884z" fill="#3b3574" data-original="#3b3574"/>
				<path style="fill-rule:evenodd;clip-rule:evenodd;" d="M176.314,116.221c-1.843,2.642-0.154,18.424,5.317,17.389      C186.025,132.776,183.708,111.812,176.314,116.221z" fill="#8780be" data-original="#8780be"/>
				<path style="fill-rule:evenodd;clip-rule:evenodd;" d="M174.93,138.786c2.014-2.228-0.137-6.082-1.673-9.016      c-1.569-3.008-3.352-5.779-5.443-6.822c-0.54-0.271-1.417-0.376-1.8-0.314c-4.673,0.773-0.593,7.486,0.773,9.79      C168.872,135.939,170.554,139.222,174.93,138.786z" fill="#8780be" data-original="#8780be"/>
				<path style="fill-rule:evenodd;clip-rule:evenodd;" d="M190.746,139.861c-7.277-1.183-6.265,19.333-0.255,19.272      C197.034,159.065,196.441,140.791,190.746,139.861z" fill="#3b3574" data-original="#3b3574"/>
				<path style="fill-rule:evenodd;clip-rule:evenodd;" d="M166.266,144.606c-0.209,4.388,3.567,8.179,6.45,10.374      c1.99,1.518,5.368,3.425,8.657,1.621C182.511,151.086,172.773,139.431,166.266,144.606z" fill="#8780be" data-original="#8780be"/>
			</g>
			<g>
				<path style="fill-rule:evenodd;clip-rule:evenodd;" d="M203.149,192.461c1.511-2.308,2.576-6.135,4.679-10.373      c1.55-3.129,3.981-9.336,8.321-8.636c2.293,2.463,0.73,5.858-0.085,8.313c-2.552,7.677-6.816,15.718-11.262,22.196      c-1.433,0.58-1.31-0.585-2.143-0.679c-1.296,0.416-1.782,1.833-3.301,1.299c-1.734-3.419-3.276-7.853-3.6-13.428      c-0.318-5.538-0.191-12.63,3.383-12.688C203.377,178.399,202.865,188.33,203.149,192.461z" fill="#3b3574" data-original="#3b3574"/>
				<path style="fill-rule:evenodd;clip-rule:evenodd;" d="M188.938,200.848c-1.704-2.345-3.938-5.681-5.533-9.212      c-1.44-3.189-3.85-7.705-1.21-10.625c3.828,0.653,6.249,5.314,8.627,9.166c2.23,3.612,5.39,8.028,6.149,11.6      c0.253,1.193,0.907,4.313-1.147,5.051c1.021,0.456,0.902,2.184,1.094,3.564c-4.765,5.467-14.146-3.518-17.266-6.334      c-4.764-4.3-9.791-8.605-8.841-14.06c4.112-1.081,6.935,1.968,9.4,3.848c2.625,2.004,5.346,4.138,7.602,6.205      c0.092,0.24,0.378,0.264,0.408,0.57C188.505,200.649,188.596,200.888,188.938,200.848z" fill="#3b3574" data-original="#3b3574"/>
			</g>
			<g>
				<path style="fill-rule:evenodd;clip-rule:evenodd;" d="M205.602,156.51c1.666,2.86-1.068,5.559-2.575,7.674      c-2.498,3.517-5.097,6.663-8.932,9.321c1.753,9.791,3.454,19.637,6.008,28.531c0.848-2.593,0.811-5.814,1.416-8.772      c0.522-2.571,1.015-6.101,4.035-6.919c1.597,4.227-0.305,10.49-0.687,15.149c1.633-2.194,3.834-5.066,5.636-8.024      c1.721-2.825,2.432-6.744,5.977-8.062c1.237,4.411-1.46,8.715-3.418,12.383c-2.622,4.915-5.702,9.62-10.97,12.629      c11.732,46.837,31.54,87.285,39.843,137.843c1.803,10.982,3.036,22.421,4.893,33.887c3.251,20.037,9.282,39.231,12.636,59.449      c2.449,14.752,2.946,28.971,5.084,44.631c-2.338,1.137-5.269,1.859-7.957,2.752c-4.475-29.781-10.393-58.012-15.072-86.853      c-1.553-9.582-2.372-18.834-3.931-28.459c-2.386-14.721-5.478-28.772-8.283-42.418c-2.8-13.641-6.716-26.54-11.033-39.336      c-8.636-25.592-15.547-51.253-21.723-78.711c-4.61,0.103-10.373-1.117-14.506-3.267c-3.649-1.901-9.051-4.853-7.983-9.546      c4.111-0.277,6.486,2.614,9.097,4.191c2.851,1.72,5.813,2.878,9.094,4.191c-2.339-4.349-8.942-8.687-9.321-15.236      c3.182-0.088,4.788,2.834,6.372,4.502c1.804,1.891,3.359,3.855,5.118,5.567c-2.252-9.462-3.03-20.57-5.468-29.822      c-4.352,2.2-9.929,1.031-13.924-1.181c-2.279-1.266-5.524-3.054-4.776-5.607c4.065-1.748,8.888,2.035,13.385,2.471      c-0.541-3.245-6.321-6.955-4.448-11.793c4.974,0.476,6.312,5.028,8.863,8.217c0.744-3.642-0.569-12.16,3.827-11.815      c3.535,0.278,2.382,7.314,2.606,10.773c0.092,0.249-0.099,0.302-0.306,0.344C197.903,163.356,198.935,157.2,205.602,156.51z" fill="#446d00" data-original="#446d00"/>
				<g>
					<g>
						<path style="fill-rule:evenodd;clip-rule:evenodd;" d="M210.97,256.245c1.261,0.859,1.93,3.141,2.567,5.04        c0.601,1.8,1.806,4.181,0.346,5.546c-1.653,0.404-2.363-1.528-2.87-2.717c-0.825-1.933-1.279-4.202-1.642-6.925        c0.239-0.213,0.373-0.503,0.473-0.815C210.22,256.33,210.595,256.288,210.97,256.245z" fill="#adbc00" data-original="#adbc00"/>
						<path style="fill-rule:evenodd;clip-rule:evenodd;" d="M213.608,269.404c0.468-0.054,0.935-0.107,1.406-0.16        c0.894,0.673,1.733,3.204,0.766,4.23C213.979,273.378,213.28,270.99,213.608,269.404z" fill="#adbc00" data-original="#adbc00"/>
					</g>
					<g>
						<path style="fill-rule:evenodd;clip-rule:evenodd;" d="M236.923,307.318c1.284-0.118,1.497-5.547,4.077-3.537        c2.559,1.995-0.416,6.519-1.344,9.377c-0.864,2.662-1.906,6.392-5.024,7.338c-2.866-1.778-2.722-5.788-2.844-9.823        c-0.193-6.25-0.054-13.855,0.847-19.777c0.292-1.903,0.531-4.368,2.542-4.903c3.26,1.373,2.11,6.053,2.13,9.597        c0.026,3.993,0.036,8.288-0.42,11.426C236.9,307.116,236.912,307.218,236.923,307.318z" fill="#6a8700" data-original="#6a8700"/>
						<path style="fill-rule:evenodd;clip-rule:evenodd;" d="M231.431,355.921c-1.878-5.04-5.366-11.504-7.558-17.899        c-0.643-1.878-2.935-5.58-0.008-6.15c3.086-0.603,4.263,3.868,5.561,6.439c2.61,5.201,4.866,10.578,7.109,17.028        c0.917,2.637,3.104,7.476-0.086,8.313c-2.549,0.666-7.114-4.586-8.621-6.092c-2.731-2.713-8.311-6.771-5.122-8.641        C226.405,346.747,228.779,353.295,231.431,355.921z" fill="#6a8700" data-original="#6a8700"/>
					</g>
					<path style="fill-rule:evenodd;clip-rule:evenodd;" d="M257.241,461.397c3.314,1.53,4.029,10.707,1.862,13.317       c-3.934-0.786-4.741-10.23-2.884-13.202C256.559,461.475,256.897,461.434,257.241,461.397z" fill="#adbc00" data-original="#adbc00"/>
				</g>
			</g>
		</g>
		<path style="fill-rule:evenodd;clip-rule:evenodd;" d="M267.491,52.278c3.148,2.543,3.023,16.179-1.568,16.479    c-4.971,0.323-3.787-15.721-0.509-16.548C266.317,51.981,266.858,52.309,267.491,52.278z" fill="#b9b7e6" data-original="#b9b7e6"/>
		<g>
			<g>
				<path style="fill-rule:evenodd;clip-rule:evenodd;" d="M282.91,152.577c2.184,0.859,1.916,3.521,2.227,5.228      c2.614,14.219,5.466,29.723,7.48,44.301c1.082,7.827,1.953,16.627,3.647,24.793c0.797,3.853,1.879,8.532,2.378,12.622      c0.391,3.213,1.428,8.193-2.603,9.667c-3.891-3.158-2.571-9.273-3.448-14.934c-3.144-20.325-12.116-41.238-11.702-61.898      c0.135-6.75,0.305-14.127,1.68-19.727C282.681,152.613,282.795,152.595,282.91,152.577z" fill="#adbc00" data-original="#adbc00"/>
				<path style="fill-rule:evenodd;clip-rule:evenodd;" d="M280.89,172.356c-0.414,20.661,8.557,41.573,11.702,61.898      c0.878,5.661-0.443,11.776,3.448,14.934c0.132-0.048,0.244-0.11,0.365-0.166c-0.017-1.158-0.257-2.365-0.273-3.558      c-0.217-16.526-6.045-34.337-9.371-51.741c-2.693-14.103-2.355-27.913-3.674-41.062c-0.059-0.028-0.113-0.059-0.177-0.084      c-0.115,0.017-0.229,0.036-0.34,0.051C281.194,158.229,281.025,165.606,280.89,172.356z" fill="#6a8700" data-original="#6a8700"/>
			</g>
			<g>
				<path style="fill-rule:evenodd;clip-rule:evenodd;" d="M299.843,209.119c2.031-1.696,1.366-6.926,6.08-7.15      c5.174-0.245,3.887,6.096,2.468,9.562c-2.344,5.728-5.05,10.593-8.31,14.787c-0.152,5.609-0.471,11.05-0.856,16.702      c-0.36,5.356-1.814,10.887-1.263,16.136c0.497,4.72,2.762,9.09,2.953,13.81c0.233,5.786-1.532,11.422-1.84,17.124      c-0.247,4.608,0.712,9.387,0.91,14.043c0.372,8.605-1.216,17.376-1.214,25.662c0.008,4.689,1.093,9.165,1.255,14.003      c0.156,4.724-0.749,9.894-1.402,14.924c-1.833,14.117-2.814,29.484-3.56,44.38c-0.518,10.36-0.346,20.581-0.966,30.864      c-0.618,10.27-1.069,20.58-0.624,30.823c-3.972-0.225-7.318-1.161-10.891-1.832c-0.087-14.535,1.809-30.035,4.031-46.282      c1.056-7.724,0.76-15.813,1.079-23.802c0.612-15.49,3.799-30.402,5.192-45.185c0.744-7.937-0.191-15.958,0.36-24.028      c0.544-7.932,0.918-16.102,0.705-24.067c-0.108-4.153,0.125-7.865,0.73-11.768c0.904-5.877,1.584-11.629,0.269-18.791      c-0.592-3.231-1.917-5.969-2.164-9.901c-0.321-5.091,0.935-10.598,1.606-16.175c0.278-2.321,0.471-5.25,0.8-8.088      c0.308-2.635,1.554-5.938,1.178-7.821c-0.292-1.46-2.149-2.434-2.937-4.586c-1.393-3.825-2.675-12.602-2.72-17.833      c-0.02-2.581,0.317-6.595,2.981-7.106C298.843,196.535,298.474,204.933,299.843,209.119z" fill="#adbc00" data-original="#adbc00"/>
				<g>
					<path style="fill-rule:evenodd;clip-rule:evenodd;" d="M291.965,421.291c1.065,1.701,0.052,4.265-0.328,6.186       c-0.367,1.849-0.145,4.549-2.544,4.904c-1.453-3.932,0.552-7.78,1.512-10.935C291.059,421.396,291.511,421.345,291.965,421.291       z" fill="#ffffff" data-original="#ffffff"/>
					<path style="fill-rule:evenodd;clip-rule:evenodd;" d="M291.347,437.044c0.103,2.119,0.188,4.228-1.113,5.356       C286.667,442.657,288.429,434.812,291.347,437.044z" fill="#ffffff" data-original="#ffffff"/>
				</g>
				<g>
					<g>
						<path style="fill-rule:evenodd;clip-rule:evenodd;" d="M292.069,385.911c-2.182-0.64-0.707-4.032-0.282-5.504        c1.544-5.345,4.465-10.114,7.257-14.971c3.569-6.209,7.06-13.144,12.013-18.59c4.888-5.375,10.86-10.349,16.514-15.415        c5.761-5.157,10.225-11.121,15.389-16.205c5.808-5.72,12.927-10.508,19.543-16.07c6.557-5.51,12.128-12.161,18.462-16.555        c2.438-1.691,4.233-0.411,3.167,3.636c-0.234,0.911-1.733,3.37-1.964,3.913c-5.613,13.283-14.125,25.629-25.642,35.213        c-4.658,3.877-10.272,6.911-15.366,10.363c-5.123,3.471-9.489,7.567-14.205,11.459c-4.676,3.857-9.495,7.527-13.864,11.42        c-6.591,5.87-12.847,12.599-16.641,20.348C295.33,381.236,295.083,385.22,292.069,385.911z" fill="#adbc00" data-original="#adbc00"/>
						<path style="fill-rule:evenodd;clip-rule:evenodd;" d="M384.132,286.238c0.608-2.306,0.284-3.71-0.556-4.182        c-3.013,4.121-5.626,8.388-8.856,12.326c-5.728,6.98-11.527,14.178-18.042,20.204c-6.91,6.388-13.935,11.807-21.411,17.814        c-16.65,13.373-33.367,28.565-41.846,47.209c-0.78,1.714-1.792,3.882-2.083,5.853c0.178,0.198,0.411,0.356,0.731,0.45        c3.015-0.691,3.261-4.675,4.381-6.958c3.793-7.749,10.05-14.478,16.641-20.348c4.368-3.893,9.188-7.563,13.864-11.42        c4.716-3.892,9.082-7.988,14.205-11.459c5.095-3.452,10.708-6.486,15.366-10.363c11.517-9.584,20.029-21.93,25.642-35.213        C382.399,289.608,383.898,287.149,384.132,286.238z" fill="#6a8700" data-original="#6a8700"/>
						<path style="fill-rule:evenodd;clip-rule:evenodd;" d="M369.186,303.318c0.188,3.172-2.742,5.901-4.925,8.247        c-1.875,2.02-4.935,5.963-8.501,4.045c0.105-5.25,7.307-9.645,10.972-12.627C367.138,302.65,368.51,303.058,369.186,303.318z" fill="#ffffff" data-original="#ffffff"/>
						<path style="fill-rule:evenodd;clip-rule:evenodd;" d="M352.805,319.944c-0.753,2.375-3.509,5.604-6.355,4.722        C346.517,321.823,350.268,317.57,352.805,319.944z" fill="#ffffff" data-original="#ffffff"/>
					</g>
					<g>
						<g>
							<path style="fill-rule:evenodd;clip-rule:evenodd;" d="M391.428,198.991c-0.043,2.425-2.393,4.204-4.172,5.703         c-8.889,7.465-17.779,15.218-25.493,24.432c-3.105,3.71-6.406,7.307-10.262,9.782c-4.546,2.916-9.572,4.617-14.011,7.131         c-4.285,2.429-7.504,5.498-11.385,8.986c-7.376,6.63-16.508,11.065-22.022,18.501c-1.162,1.567-1.88,3.571-2.85,5.246         c-0.865,1.492-1.782,3.853-4.349,4.185c-2.238-2.452,0.192-5.223,1.585-7.254c3.996-5.818,9.389-12.463,14.913-17.384         c3.848-3.43,8.221-6.432,11.927-10.276c3.532-3.668,6.88-7.794,10.802-11.073c4.176-3.495,8.922-6.124,13.429-9.219         c4.22-2.894,8.071-6.303,11.929-10.279c7.152-7.359,16.652-14.877,26.146-18.663         C388.739,198.36,390.191,197.844,391.428,198.991z" fill="#adbc00" data-original="#adbc00"/>
							<path style="fill-rule:evenodd;clip-rule:evenodd;" d="M359.879,224.728c-3.287,3.731-6.62,8.149-10.496,10.73         c-3.618,2.407-8.041,3.315-11.463,5.304c-2.882,1.676-5.732,4.268-8.188,6.778c-2.659,2.714-4.878,4.929-7.816,7.039         c-2.882,2.072-6.232,4.093-8.907,6.551c-3.176,2.922-5.989,6.763-8.828,10.23c-2.477,3.023-5.202,6.907-5.491,10.883         c1.264-0.895,1.921-2.402,2.542-3.473c0.97-1.675,1.688-3.679,2.85-5.246c5.514-7.436,14.646-11.871,22.022-18.501         c3.881-3.488,7.1-6.557,11.385-8.986c4.439-2.514,9.465-4.214,14.011-7.13c3.857-2.474,7.157-6.072,10.262-9.782         c7.714-9.213,16.604-16.967,25.493-24.432c1.779-1.5,4.13-3.278,4.172-5.703c-0.81-0.75-1.71-0.785-2.552-0.595         C377.581,205.673,368.109,215.394,359.879,224.728z" fill="#6a8700" data-original="#6a8700"/>
						</g>
						<g>
							<path style="fill-rule:evenodd;clip-rule:evenodd;" d="M365.22,220.124c-0.033,2.401-1.762,4.759-4.69,4.223         C360.439,221.95,362.951,219.076,365.22,220.124z" fill="#ffffff" data-original="#ffffff"/>
							<path style="fill-rule:evenodd;clip-rule:evenodd;" d="M358.186,227.994c-0.388,3.729-2.932,5.937-6.389,7.495         c-2.552-1.279,2.391-6.973,3.971-7.526C356.641,227.658,357.534,227.789,358.186,227.994z" fill="#ffffff" data-original="#ffffff"/>
						</g>
					</g>
					<g>
						<path style="fill-rule:evenodd;clip-rule:evenodd;" d="M332.116,210.979c0.225-0.025,0.452-0.051,0.677-0.078        c1.081,4.993-0.69,9.995-1.775,14.656c-1.077,4.627-2.318,9.225-3.617,13.637c-2.684,9.119-4.554,18.182-7.235,27.272        c-1.352,4.583-2.2,9.055-3.991,13.373c-5.52,13.308-14.52,25.24-18.202,39.897c-0.212,0.85,0.227,2.825-1.733,2.963        c-2.011-0.254-1.147-2.484-1.095-3.563c0.174-3.526,1.653-7.664,2.909-10.786c5.213-12.967,12.625-26.128,15.715-40.541        c2.241-10.449,2.43-20.83,5.495-30.456c2.991-9.401,6.634-17.867,11.49-26.219        C331.576,211.462,331.94,210.205,332.116,210.979z" fill="#adbc00" data-original="#adbc00"/>
						<path style="fill-rule:evenodd;clip-rule:evenodd;" d="M320.167,266.466c2.68-9.09,4.551-18.153,7.235-27.272        c1.299-4.412,2.539-9.01,3.617-13.637c1.086-4.66,2.856-9.662,1.775-14.656c-0.176,0.021-0.352,0.041-0.529,0.061        c-2.052,3.647-3.319,8.388-4.891,12.858c-1.629,4.622-3.297,9.373-4.64,13.754c-4.558,14.887-5.385,30.377-10.505,43.942        c-3.385,8.973-7.45,17.755-11.487,26.22c-2.133,4.468-4.885,9.176-3.548,14.242c0.141-0.011,0.27-0.034,0.401-0.056        c0.367-0.687,0.246-1.656,0.378-2.186c3.682-14.656,12.682-26.589,18.202-39.897        C317.967,275.521,318.815,271.049,320.167,266.466z" fill="#6a8700" data-original="#6a8700"/>
					</g>
					<g>
						<path style="fill-rule:evenodd;clip-rule:evenodd;" d="M297.189,282.614c-4.717-1.879-6.205-7.032-9.142-10.643        c-2.859-3.517-6.622-6.332-10.025-9.314c-6.865-6.017-14.154-11.161-24.055-14.48c-9.338-3.131-19.961-4.653-27.725-10.372        c-3.533-2.604-6.796-5.983-10.059-9.615c-2.938-3.27-6.709-7.064-8.835-10.987c-0.153-0.481,0.262-0.559,0.236-0.949        c3.661,0.01,9.156,4.638,13.22,7.103c12.137,7.374,25.329,14.58,37.85,20.597c9.207,4.42,16.361,9.897,23.515,15.771        c3.624,2.972,6.981,5.994,9.752,9.961c1.334,1.898,2.539,4.093,3.825,6.328C296.782,277.806,299.292,280.195,297.189,282.614z        " fill="#adbc00" data-original="#adbc00"/>
						<path style="fill-rule:evenodd;clip-rule:evenodd;" d="M254.027,245.709c-8.897-3.461-19.949-6.425-27.145-11.36        c-7.527-5.157-11.806-12.31-19.345-17.853c-0.098,0.21-0.304,0.344-0.189,0.706c2.127,3.923,5.897,7.717,8.835,10.987        c3.263,3.632,6.526,7.011,10.059,9.615c7.764,5.72,18.387,7.242,27.725,10.372c9.901,3.32,17.19,8.463,24.055,14.48        c3.402,2.982,7.165,5.797,10.025,9.314c2.608,3.206,4.078,7.621,7.675,9.888c0.001,0,0.002,0,0.003,0        c0.439-2.492-1.881-4.34-3.112-6.103C282.909,261.812,270.286,252.032,254.027,245.709z" fill="#6a8700" data-original="#6a8700"/>
					</g>
					<g>
						<g>
							<path style="fill-rule:evenodd;clip-rule:evenodd;" d="M296.852,312.177c-3.062,0.022-3.538-2.738-4.263-4.128         c-3.893-7.458-8.097-13.906-14.942-19.209c-9.798-7.589-19.941-12.148-28.395-22.289c-3.985-4.784-8.141-11.154-8.882-17.438         c0.141-0.46,0.446-0.803,0.916-1.03c3.026-0.281,6.395,3.855,9.002,6.357c12.907,12.399,28.286,21.255,37.983,36.878         c2.93,4.723,5.421,9.825,7.617,15.43C296.497,308.301,297.975,310.329,296.852,312.177z" fill="#adbc00" data-original="#adbc00"/>
							<path style="fill-rule:evenodd;clip-rule:evenodd;" d="M296.852,312.177c0.134-0.22,0.229-0.443,0.295-0.668         c-0.332-0.928-1.016-1.81-1.354-2.594c-5.297-12.261-13.638-20.479-22.858-28.149c-10.528-8.76-22.271-16.646-29.425-28.323         c-0.812-1.321-1.262-3-2.218-4.36c-0.002,0-0.003,0-0.005,0c-0.47,0.227-0.775,0.57-0.916,1.03         c0.74,6.284,4.897,12.654,8.882,17.438c8.455,10.14,18.597,14.7,28.395,22.289c6.845,5.303,11.048,11.751,14.942,19.209         C293.313,309.439,293.79,312.199,296.852,312.177z" fill="#6a8700" data-original="#6a8700"/>
						</g>
						<path style="fill-rule:evenodd;clip-rule:evenodd;" d="M255.038,265.892c-2.632,0.38-6.588-3.946-7.262-6.246        c-0.195-0.67-0.255-1.422,0.097-2.165c2.357-0.779,4.134,1.703,5.554,3.366C254.782,262.43,256.408,264.583,255.038,265.892z" fill="#ffffff" data-original="#ffffff"/>
						<path style="fill-rule:evenodd;clip-rule:evenodd;" d="M266.902,276.225c-3.217,0.064-4.612-1.909-5.355-4.617        C263.921,269.779,268.514,273.622,266.902,276.225z" fill="#ffffff" data-original="#ffffff"/>
					</g>
					<g>
						<g>
							<path style="fill-rule:evenodd;clip-rule:evenodd;" d="M243.943,268.604c0.222-0.044,0.448-0.09,0.672-0.133         c3.495,3.579,5.081,8.534,6.732,13.002c5.31,14.371,11.363,27.555,18.382,40.304c4.621,8.389,8.358,17.328,12.797,26.141         c3.236,6.426,6.333,12.52,8.789,20.702c0.68,2.27,2.412,4.881,0.913,7.301c-3.644,0.133-3.846-3.902-4.408-5.669         c-5.944-18.749-16.212-31.155-27.83-43.412c-6.292-6.633-12.904-14.898-15.751-25.238         c-1.348-4.899-1.705-10.916-1.957-16.761c-0.216-4.997-0.257-10.967,0.854-15.14         C243.227,269.232,243.496,268.867,243.943,268.604z" fill="#adbc00" data-original="#adbc00"/>
							<path style="fill-rule:evenodd;clip-rule:evenodd;" d="M290.431,372.535c1.588-1.62-0.206-3.744-0.789-5.142         c-5.642-13.47-10.757-25.824-18.394-37.187c-4.108-6.112-8.557-11.965-12.756-18.04c-4.249-6.147-9.165-12.559-11.405-19.866         c-2.151-7.019-2.708-13.388-2.421-18.851c0.071-1.355,0.446-2.836,0.567-4.272c-0.205-0.236-0.397-0.481-0.617-0.706         c-0.224,0.043-0.45,0.089-0.672,0.133c-0.447,0.263-0.716,0.629-0.807,1.095c-1.111,4.173-1.07,10.142-0.854,15.14         c0.252,5.844,0.609,11.862,1.957,16.761c2.847,10.34,9.459,18.605,15.751,25.238c11.618,12.257,21.887,24.664,27.831,43.412         c0.125,0.393,0.233,0.899,0.364,1.445C288.74,372.266,289.456,372.643,290.431,372.535z" fill="#6a8700" data-original="#6a8700"/>
						</g>
						<path style="fill-rule:evenodd;clip-rule:evenodd;" d="M257.179,308.986c-2.714,0.958-3.971-1.438-5.086-2.934        c-1.125-1.512-2.743-3.557-2.229-5.764c0.6-0.279,0.811-0.968,1.461-0.573C254.346,301.023,257.694,305.167,257.179,308.986z" fill="#ffffff" data-original="#ffffff"/>
						<path style="fill-rule:evenodd;clip-rule:evenodd;" d="M257.351,312.618c1.083-0.415,1.402,0.202,2.488-0.214        c0.918,0.73,2.634,3.625,1.016,4.593C258.461,317.382,257.113,314.651,257.351,312.618z" fill="#ffffff" data-original="#ffffff"/>
					</g>
					<g>
						<path style="fill-rule:evenodd;clip-rule:evenodd;" d="M326.761,152.993c3.282-0.825,1.165,5.31,0.926,6.665        c-1.326,7.569-2.426,15.768-3.903,22.151c-2.31,10.008-5.419,19.021-8.613,27.196c-3.308,8.461-8.565,16.705-11.192,25.283        c-2.13,6.956-2.862,14.28-5.005,21.336c-0.592,1.948-0.606,4.944-3.638,5.552c-2.294-1.942-1.121-4.75-0.614-7        c1.558-6.899,2.459-14.528,3.931-21.847c1.808-9.02,4.95-18.128,7.959-26.828c4.328-12.501,9.037-26.356,13.742-39.331        C322.117,161.308,323.872,156.509,326.761,152.993z" fill="#adbc00" data-original="#adbc00"/>
						<path style="fill-rule:evenodd;clip-rule:evenodd;" d="M298.974,255.624c2.143-7.056,2.876-14.38,5.005-21.336        c2.627-8.578,7.884-16.823,11.192-25.283c3.194-8.176,6.303-17.188,8.613-27.196c1.478-6.383,2.578-14.582,3.903-22.151        c0.201-1.144,1.728-5.677,0.23-6.572c-0.697,2.216-1.262,4.536-1.935,6.732c-4.057,13.258-8.256,27.5-13.006,39.876        c-3.329,8.682-5.243,17.624-9.43,25.736c-2.909,5.631-4.069,11.63-4.958,17.955c-0.676,4.816-2.194,9.855-2.523,14.351        c-0.062,0.839-0.473,2.198-0.208,3.303C298.371,260.204,298.419,257.453,298.974,255.624z" fill="#6a8700" data-original="#6a8700"/>
						<path style="fill-rule:evenodd;clip-rule:evenodd;" d="M320.818,179.323c0.799,1.798,0.088,4.161-0.515,5.879        c-0.576,1.649-1.289,3.733-3.062,4.275c-0.037-0.297-0.439-0.198-0.71-0.242c-0.826-3.481,0.891-7.481,2.557-10.057        C320.029,178.836,320.007,179.525,320.818,179.323z" fill="#ffffff" data-original="#ffffff"/>
						<path style="fill-rule:evenodd;clip-rule:evenodd;" d="M316.302,194.474c-0.401,2.072-0.874,4.094-3.008,4.883        c-0.036-0.294-0.44-0.197-0.709-0.241C311.249,196.921,313.896,192.158,316.302,194.474z" fill="#ffffff" data-original="#ffffff"/>
					</g>
					<path style="fill-rule:evenodd;clip-rule:evenodd;" d="M310.845,335.397c1.283,2.858-4.231,8.367-5.912,11.105       c-1.544,2.519-2.9,6.336-7.014,6.939c-2-1.501-1.126-4.141-0.691-6.06c0.465-2.038,1.22-4.063,1.836-5.816       c1.274-3.626,2.551-14.031,6.693-14.023c3.266,0.007-0.145,9.093-0.462,11.177       C304.934,340.075,309.887,333.269,310.845,335.397z" fill="#446d00" data-original="#446d00"/>
				</g>
			</g>
		</g>
		<path style="fill-rule:evenodd;clip-rule:evenodd;" d="M266.782,36.984c3.44,1.72,4.134,15.066-0.277,15.715    c-4.635,0.684-4.352-8.987-2.814-12.596c0.324-0.764,1.508-1.292,1.46-2.32c0.046-0.338,0.652-0.282,0.611-0.683    C266.103,37.061,266.441,37.023,266.782,36.984z" fill="#5f5390" data-original="#5f5390"/>
		<g>
			<g>
				<g>
					<g>
						<path style="fill-rule:evenodd;clip-rule:evenodd;" d="M146.625,181.738c3.347-0.571,4.696,8.381,6.084,12.374        c7.844,22.584,17.729,42.903,25.815,64.7c2.455,6.62,4.927,13.019,7.976,19.271c0.824,1.694,3.532,4.452,1.479,6.008        c-2.281,1.733-3.889-2.531-4.755-3.897c-3.406-5.349-6.799-11.452-9.908-17.574c-3.99-7.852-8.467-15.851-12.78-23.776        c-6.222-11.432-13.342-23.53-15.378-40.117c-0.66-5.35-0.777-12.246,0.511-15.988        C145.827,182.282,146.105,181.827,146.625,181.738z" fill="#6a8700" data-original="#6a8700"/>
						<path style="fill-rule:evenodd;clip-rule:evenodd;" d="M181.647,272.965c-10.04-21.54-20.67-41.04-29.226-64.417        c-2.34-6.387-4.407-14.571-5.498-22.848c-0.162-1.229-0.283-2.647-0.471-3.897c-0.404,0.152-0.646,0.536-0.784,0.936        c-1.288,3.742-1.171,10.638-0.511,15.988c2.036,16.587,9.156,28.685,15.378,40.117c4.314,7.926,8.791,15.925,12.78,23.776        c3.109,6.122,6.502,12.225,9.908,17.574c0.831,1.311,2.347,5.274,4.483,4.063c-0.008-1.478-2.4-3.38-3.165-4.785        C183.412,277.39,182.632,275.078,181.647,272.965z" fill="#446d00" data-original="#446d00"/>
					</g>
				</g>
				<g>
					<path style="fill-rule:evenodd;clip-rule:evenodd;" d="M195.007,299.488c-2.194,1.619-2.78-1.928-3.479-3.294       c-5.091-9.965-10.389-22.754-12.42-36.41c-1.161-7.791-1.983-16.147-1.715-24.099c0.255-7.557,0.009-15.945,3.47-20.999       c2.704-3.954,5.468,2.855,6.649,6.929c5.446,18.781,0.97,37.036,4.053,56.738c0.619,3.964,1.098,7.884,1.996,11.459       C194.359,293,198.009,297.277,195.007,299.488z" fill="#446d00" data-original="#446d00"/>
					<path style="fill-rule:evenodd;clip-rule:evenodd;" d="M188.757,271.862c-1.209-17.143-1.293-33.697-2.981-50.363       c-0.131-1.286,0.016-2.943,0.017-4.522c-1.361-2.853-3.158-4.882-4.929-2.292c-2.026,2.959-2.778,7.062-3.107,11.47       c1.131,7.928,4.407,17.526,4.88,25.276c0.653,10.705,1.802,21.489,3.517,30.866c0.141,0.765,0.187,1.759,0.239,2.797       c0.822,1.984,1.669,3.906,2.53,5.756c2.689-0.249,0.875-5.96,0.684-8.521C189.349,278.885,188.992,275.225,188.757,271.862z" fill="#6a8700" data-original="#6a8700"/>
				</g>
				<g>
					<path style="fill-rule:evenodd;clip-rule:evenodd;" d="M209.672,168.039c2.752,0.464,2.131,5.543,2.365,8.65       c1.097,14.593-0.211,29.859-3.051,42.784c-1.119,5.087-2.856,9.988-4.16,14.93c-2.705,10.241-4.727,20.678-6.783,31.218       c-1.586,8.132-2.758,15.617-2.643,25.212c0.014,1.386-0.124,2.784-0.196,4.328c-0.052,1.043,1.182,3.929-0.945,3.797       c-1.308-0.081-0.452-2.789-1.166-4.173c-0.482-0.927-2.264-1.486-2.695-2.461c-0.827-1.872-0.674-5.921-1.072-9.411       c-1.035-9.057-0.69-18.336-0.185-25.812c1.793-26.455,7.602-50.692,13.816-75.381c1.076-4.287,3.096-13.371,6.373-13.643       C209.448,168.069,209.562,168.021,209.672,168.039z" fill="#adbc00" data-original="#adbc00"/>
					<path style="fill-rule:evenodd;clip-rule:evenodd;" d="M209.672,168.039c-0.11-0.018-0.223,0.03-0.339,0.039       c-0.506,0.042-0.978,0.313-1.425,0.724c-0.303,3.846,0.77,8.299,0.801,11.956c0.044,5.017-0.438,9.79-1.097,14.578       c-2.499,18.128-8.375,35.229-11.165,53.244c-0.718,4.63-0.896,9.537-1.473,14.318c-0.593,4.91-1.344,9.784-1.096,14.576       c0.148,2.861,0.823,6.162,1.074,9.411c0.143,1.865-0.358,4.693,0.364,6.369c0.051-0.826,0.093-1.627,0.085-2.42       c-0.115-9.595,1.056-17.081,2.643-25.212c2.056-10.539,4.078-20.977,6.783-31.218c1.304-4.942,3.041-9.843,4.16-14.93       c2.84-12.926,4.148-28.191,3.051-42.784C211.802,173.582,212.423,168.503,209.672,168.039z" fill="#6a8700" data-original="#6a8700"/>
				</g>
				<g>
					<g>
						<path style="fill-rule:evenodd;clip-rule:evenodd;" d="M195.379,297.496c-2.367,1.819-5.358-2.379-6.94-4.177        c-5.688-6.449-11.12-13.03-16.466-19.708c-6.979-8.715-15.52-16.469-23.221-24.844c-7.323-7.968-15.238-16.012-21.491-26.968        c-2.748-4.816-5.559-10.407-8.031-16.998c-2.258-6.026-5.789-13.741-5.337-19.585c0.032-0.415,0.233-0.646,0.529-1.011        c0.332-0.409,0.67-0.02,1.063,0.146c22.574,9.504,27.525,36.903,41.776,55.05c7.084,9.02,14.383,18.104,20.626,28.03        c5.486,8.721,10.5,17.853,16.215,26.553C194.755,294.985,196.828,296.384,195.379,297.496z" fill="#adbc00" data-original="#adbc00"/>
						<path style="fill-rule:evenodd;clip-rule:evenodd;" d="M194.515,297.898c-0.373-0.594-0.849-1.188-1.078-1.644        c-5.099-10.132-11.259-18.648-17.33-26.998c-14.238-19.588-32.57-34.558-45.888-54.72c-5.083-7.695-4.742-19.451-9.768-27.634        c-1.56-0.947-3.203-1.809-4.965-2.551c-0.393-0.166-0.731-0.555-1.063-0.146c-0.297,0.365-0.497,0.596-0.529,1.011        c-0.452,5.844,3.08,13.56,5.337,19.585c2.472,6.591,5.283,12.181,8.031,16.998c6.252,10.956,14.168,19,21.491,26.968        c7.702,8.375,16.243,16.129,23.221,24.844c5.346,6.679,10.778,13.259,16.466,19.708        C189.834,294.904,192.323,298.349,194.515,297.898z" fill="#6a8700" data-original="#6a8700"/>
					</g>
					<path style="fill-rule:evenodd;clip-rule:evenodd;" d="M138.705,225.897c-4.644,0.486-8.874-5.121-7.895-9.908       c0.826-4.051,5.034,0.412,6.843,3.576C139.011,221.943,141.208,225.635,138.705,225.897z" fill="#ffffff" data-original="#ffffff"/>
					<path style="fill-rule:evenodd;clip-rule:evenodd;" d="M140.221,228.754c1.218,0.488,2.167,2.597,0.55,3.316       C138.488,233.085,136.861,227.407,140.221,228.754z" fill="#ffffff" data-original="#ffffff"/>
				</g>
			</g>
			<path style="fill-rule:evenodd;clip-rule:evenodd;" d="M185.168,281.85c0.217-0.243,0.71-0.235,1.024-0.116     c10.244,3.908,10.071,17.846,13.836,27.638c3.788,9.871,7.849,19.91,11.354,30.075c3.6,10.434,6.458,20.858,11.054,30.414     c4.319,8.994,9.851,17.367,15.021,25.966c5.028,8.362,9.977,17.595,14.448,26.956c12.099,25.327,23.822,50.403,36.97,76.358     c1.23,2.424,3.525,5.455,3.516,6.672c-0.011,2.436-6.29,6.365-8.099,6.181c0,0-16.649-36.255-24.699-55.031     c-4.209-9.814-7.82-19.475-12.921-28.666c-9.733-17.544-19.983-34.18-29.468-52.919c-4.669-9.219-9.119-19.035-12.275-29.044     c-1.759-5.58-2.596-11.427-4.016-17.075c-4.006-15.954-11.911-30.591-15.639-46.5     C185.205,282.463,184.954,282.092,185.168,281.85z" fill="#adbc00" data-original="#adbc00"/>
			<g>
				<g>
					<g>
						<path style="fill-rule:evenodd;clip-rule:evenodd;" d="M210.758,349.972c-2.806,2.851-6.777-1.734-9.332-3.24        c-8.343-4.913-16.756-9.307-26.982-12.918c-6.887-2.432-14.196-3.46-21.859-4.277c-7.362-0.778-14.274-2.277-20.909-4.995        c-11.5-4.711-23.4-12.548-31.794-21.902c-5.522-6.148-11.77-15.934-17.199-23.872c-1.479-2.157-4.954-7.153-4.067-8.454        c0.214-0.314,0.552-0.561,0.952-0.723c0.274-0.112,0.264,0.106,0.376,0.265c14.232,20.4,36.463,34.331,59.82,46.998        c5.888,3.194,12.198,5.832,19.11,7.357c6.977,1.538,14.196,2.345,21.211,4.656c6.592,2.171,12.137,5.23,17.546,8.762        c2.483,1.621,5.154,3.805,7.872,5.563C207.876,344.723,213.386,347.301,210.758,349.972z" fill="#adbc00" data-original="#adbc00"/>
						<path style="fill-rule:evenodd;clip-rule:evenodd;" d="M205.551,344.332c-0.832-1.129-1.787-2.144-2.834-3.073        c-1.358-0.984-2.687-1.968-3.977-2.866c-7.754-4.579-18.49-6.297-27.878-8.783c-13.986-3.706-27.975-6.678-40.084-12.961        c-12.22-6.34-21.505-15.475-30.301-25.064c-7.829-6.432-14.83-13.555-20.533-21.729c-0.112-0.159-0.102-0.377-0.376-0.265        c-0.4,0.162-0.737,0.409-0.952,0.723c-0.887,1.301,2.588,6.297,4.067,8.454c5.429,7.938,11.677,17.724,17.199,23.873        c8.394,9.355,20.293,17.191,31.794,21.902c6.634,2.717,13.547,4.217,20.909,4.995c7.663,0.817,14.972,1.845,21.859,4.277        c10.226,3.611,18.64,8.005,26.982,12.918c1.995,1.176,4.852,4.214,7.345,4.138        C209.015,348.632,206.951,346.229,205.551,344.332z" fill="#6a8700" data-original="#6a8700"/>
					</g>
					<g>
						<path style="fill-rule:evenodd;clip-rule:evenodd;" d="M111.588,302.537c-1.355,2.752-4.826-1.515-6.198-2.984        c-1.516-1.622-4.786-3.766-3.791-6.026c0.209-0.479,0.71-0.9,1.255-1.064C107.46,291.068,113.922,297.801,111.588,302.537z" fill="#ffffff" data-original="#ffffff"/>
						<path style="fill-rule:evenodd;clip-rule:evenodd;" d="M114.157,309.931c-2.276,1.202-4.541-1.007-4.464-2.872        C109.809,304.167,116.295,308.801,114.157,309.931z" fill="#ffffff" data-original="#ffffff"/>
						<path style="fill-rule:evenodd;clip-rule:evenodd;" d="M125.565,313.244c-1.114,1.93-4.176-0.251-5.653-1.2        c-1.637-1.053-4.983-2.746-3.952-4.469C118.023,304.109,127.329,310.184,125.565,313.244z" fill="#ffffff" data-original="#ffffff"/>
					</g>
				</g>
				<path style="fill-rule:evenodd;clip-rule:evenodd;" d="M204.699,341.651c-0.854,1.674-3.04-0.773-4.327-1.662      c-1.287-0.89-2.926-1.709-4.089-2.609c-2.238-1.734-7.813-5.272-4.981-7.427c2-1.521,4.701,1.925,4.701,1.925      s-8.415-10.114-5.267-12.931c0.347-0.312,0.64-0.231,0.985-0.42c0.286-0.155,0.62,0.047,1.057,0.187      c4.062,1.302,4.966,6.69,7.066,10.573C201.89,333.069,206.755,337.612,204.699,341.651z" fill="#6a8700" data-original="#6a8700"/>
				<g>
					<g>
						<path style="fill-rule:evenodd;clip-rule:evenodd;" d="M226.91,213.434c-2.819,0.413-2.766,5.675-3.184,8.361        c-1.18,7.587-1.854,16.768-2.781,23.995c-2.659,20.744-5.247,43.009-9.855,61.708c-2.524,10.224-7.61,20.62-3.943,31.393        c1.935,5.684-0.166,16.459,6.542,17.316c3.097,0.395-0.862-6.298-1.236-9.504c-1.509-12.97,1.373-23.471,4.771-33.756        c3.271-9.896,6.877-19.679,9.648-30.315c4.019-15.445,7.328-32.482,5.112-51.935        C231.511,226.56,231.026,212.833,226.91,213.434z" fill="#adbc00" data-original="#adbc00"/>
						<path style="fill-rule:evenodd;clip-rule:evenodd;" d="M226.871,282.632c4.019-15.445,7.328-32.482,5.112-51.935        c-0.447-3.91-0.906-16.383-4.432-17.229c0.191,1.489,0.524,3.111,0.594,4.748c0.134,3.112-0.032,6.38-0.014,8.92        c0.114,18.45,0.114,35.549-3.857,50.873c-2.538,9.802-6.533,19.53-8.694,29.59c-1.587,7.402-3.578,15.729-3.061,24.511        c0.835-6.784,2.674-13.015,4.705-19.164C220.495,303.051,224.1,293.268,226.871,282.632z" fill="#6a8700" data-original="#6a8700"/>
					</g>
					<path style="fill-rule:evenodd;clip-rule:evenodd;" d="M228.834,247.352c2.56,1.191,1.587,9.108-1.413,8.309       C224.818,254.965,225.738,245.912,228.834,247.352z" fill="#ffffff" data-original="#ffffff"/>
					<path style="fill-rule:evenodd;clip-rule:evenodd;" d="M227.514,259.067c1.544,1.013,1.003,4.954-0.89,5.095       C224.407,264.327,225.207,257.551,227.514,259.067z" fill="#ffffff" data-original="#ffffff"/>
				</g>
			</g>
			<g>
				<g>
					<g>
						<path style="fill-rule:evenodd;clip-rule:evenodd;" d="M158.729,283.633c0.185,0.118,0.478-0.16,0.681-0.078        c24.298,10.052,18.401,48.935,31.681,69.275c6.533,10.005,14.887,18.316,23.942,25.563c4.46,3.573,9.387,6.977,13.328,11.09        c1.966,2.05,3.698,4.504,5.593,6.742c1.805,2.13,6.555,4.914,4.303,7.507c-2.377,2.73-5.872-1.858-7.632-3.436        c-10.159-9.133-21.92-17.298-32.621-26.115c-12.487-10.287-24.745-23.673-31.762-39.741        c-4.783-10.947-7.624-25.043-9.33-39.53c-0.455-3.86-3.038-9.692,0.455-11.121        C158.201,283.449,158.016,283.178,158.729,283.633z" fill="#adbc00" data-original="#adbc00"/>
						<path style="fill-rule:evenodd;clip-rule:evenodd;" d="M238.678,403.046c-0.281-2.02-4.47-3.52-6.215-4.806        c-2.489-1.832-4.872-3.855-7.195-5.637c-18.93-14.537-37.289-31.672-50.132-52.717c-9.101-14.915-13.255-35.885-16.747-56.215        c-0.013-0.076-0.023-0.158-0.031-0.242c-0.308-0.119-0.349,0.098-0.99,0.36c-3.493,1.429-0.91,7.261-0.455,11.121        c1.707,14.487,4.547,28.583,9.33,39.53c7.017,16.068,19.275,29.455,31.762,39.741c10.701,8.817,22.463,16.982,32.621,26.115        c1.76,1.578,5.255,6.166,7.632,3.436C238.455,403.505,238.582,403.276,238.678,403.046z" fill="#6a8700" data-original="#6a8700"/>
					</g>
					<g>
						<path style="fill-rule:evenodd;clip-rule:evenodd;" d="M162.067,303.857c3.651-2.021,7.404,12.957,3.565,13.125        C163.481,317.077,159.308,305.384,162.067,303.857z" fill="#ffffff" data-original="#ffffff"/>
						<path style="fill-rule:evenodd;clip-rule:evenodd;" d="M171.157,323.118c-0.335,0.203-0.432,0.218-0.645,0.381        c-1.657,1.25-3.522-1.759-2.868-3.979C168.546,316.478,173.802,321.525,171.157,323.118z" fill="#ffffff" data-original="#ffffff"/>
						<path style="fill-rule:evenodd;clip-rule:evenodd;" d="M179.876,345.189c3.089,1.287,7.271,4.499,5.395,7.996        c-0.23,0.429-0.49,0.736-0.916,1.027c-3.99,2.7-7.675-5.017-8.183-8.293C175.913,344.28,178.707,344.703,179.876,345.189z" fill="#ffffff" data-original="#ffffff"/>
						<path style="fill-rule:evenodd;clip-rule:evenodd;" d="M187.081,356.976c1.48-1.697,6.013,3.01,3.923,4.166        C188.689,362.424,185.524,358.76,187.081,356.976z" fill="#ffffff" data-original="#ffffff"/>
					</g>
				</g>
				<g>
					<g>
						<path style="fill-rule:evenodd;clip-rule:evenodd;" d="M240.04,410.295c-1.91,3.251-6.773,0.041-9.092-1.121        c-2.667-1.331-5.367-2.987-8.04-4.002c-6.132-2.322-12.873-2.965-19.781-4.203c-13.163-2.362-25.212-6.539-34.338-13.922        c-11.331-9.174-18.154-22.296-24.878-36.834c-2.063-4.459-7.623-9.761-4.758-14.527c1.687-2.81,5.236,1.849,7.768,4.647        c5.088,5.623,11.306,11.822,15.756,17.272c6.621,8.102,12.469,17.236,20.601,23.486c8.685,6.667,20.054,10.053,30.115,13.174        c5.565,1.725,10.807,3.282,15.5,5.92c2.361,1.327,4.227,2.828,6.368,4.504C236.969,406.021,241.871,407.177,240.04,410.295z" fill="#adbc00" data-original="#adbc00"/>
						<path style="fill-rule:evenodd;clip-rule:evenodd;" d="M239.863,410.537c-1.302-1.177-3.897-1.957-5.276-2.699        c-7.65-4.112-15.87-7.51-24.285-10.455c-16.219-5.674-34.376-12.155-45.825-23.993c-8.354-8.637-11.552-18.658-18.503-29.259        c-1.741-2.654-3.934-6.26-6.299-9.024c-0.187,0.14-0.365,0.317-0.522,0.579c-2.865,4.766,2.695,10.068,4.758,14.527        c6.724,14.538,13.547,27.66,24.878,36.834c9.126,7.383,21.175,11.56,34.338,13.922c6.909,1.238,13.65,1.881,19.781,4.203        c2.673,1.015,5.373,2.671,8.04,4.002C233.201,410.302,237.848,413.348,239.863,410.537z" fill="#6a8700" data-original="#6a8700"/>
					</g>
					<path style="fill-rule:evenodd;clip-rule:evenodd;" d="M161.201,368.844c-1.907,2.321-4.081-2.678-5.352-4.619       c-1.403-2.141-5.673-4.976-3.587-7.279c0.516-0.573,0.569-1.388,1.596-1.105C158.472,357.116,164.854,364.395,161.201,368.844z       " fill="#ffffff" data-original="#ffffff"/>
					<path style="fill-rule:evenodd;clip-rule:evenodd;" d="M164.974,365.647c1.853-0.188,4.157,2.929,2.527,4.015       c-0.456,0.307-0.552,0.408-0.985,0.422C164.838,370.137,162.163,365.931,164.974,365.647z" fill="#ffffff" data-original="#ffffff"/>
					<path style="fill-rule:evenodd;clip-rule:evenodd;" d="M174.093,382.137c-2.332,0.615-4.074-1.824-5.519-3.063       c-1.391-1.186-5.057-2.996-3.686-5.112c0.27-0.416,0.501-0.728,0.917-1.029c2.209-1.612,4.617,2.313,6.714,4.462       C174.115,379.032,176.426,381.521,174.093,382.137z" fill="#ffffff" data-original="#ffffff"/>
				</g>
			</g>
		</g>
		<path style="fill-rule:evenodd;clip-rule:evenodd;" d="M185.741,387.574c-2.172,1.756-5.548-0.166-6.13-2.376    C181.951,383.409,185.57,384.799,185.741,387.574z" fill="#ffffff" data-original="#ffffff"/>
	</g>
	<g>
		<g>
			<path style="fill-rule:evenodd;clip-rule:evenodd;" d="M338.334,104.631c1.329,3.498,5.483,2.903,7.964,2.794     c8.46-0.368,17.169-1.706,26.164-3.963c6.183-1.555,12.166-3.263,18.077-5.499c6.267-2.37,12.57-5.072,18.831-9.756     c3.908-2.926,9.62-9.036,7.475-12.683c-3.035-5.143-13.681-1.436-18.262,0.191c-7.142,2.535-13.547,5.688-20.023,8.657     C364.443,90.838,350.998,97.58,338.334,104.631z" fill="#8780be" data-original="#8780be"/>
			<path style="fill-rule:evenodd;clip-rule:evenodd;" d="M330.117,103.891c2.362,2.904,6.111,1.031,8.439,0.151     c7.915-3.008,15.762-7.016,23.593-11.982c5.383-3.418,10.526-6.92,15.439-10.9c5.2-4.219,10.34-8.768,14.8-15.181     c2.793-4.006,6.301-11.598,3.114-14.388c-4.497-3.929-13.435,2.934-17.277,5.921c-5.98,4.651-11.071,9.657-16.287,14.509     C350.575,82.595,339.923,93.217,330.117,103.891z" fill="#8780be" data-original="#8780be"/>
			<path style="fill-rule:evenodd;clip-rule:evenodd;" d="M328.183,102.119c1.008,0.621,2.063,1.03,3.161,1.226     c4.558-4.277,6.674-9.819,8.802-14.972c5.183-12.515,8.516-25.91,6.971-40.406c-0.318-2.963-0.594-6.166-1.904-8.653     c-0.983-1.868-2.487-3.196-3.641-3.035c-2.939,0.416-3.95,5.299-4.541,7.457c-2.31,8.501-3.43,16.74-4.61,24.954     C330.782,80.096,329.269,91.493,328.183,102.119z" fill="#8780be" data-original="#8780be"/>
		</g>
		<g>
			<path style="fill-rule:evenodd;clip-rule:evenodd;" d="M316.766,123.684c-0.297-0.787-0.406-1.461-0.739-2.463     c-0.242-0.721-0.715-2.015-1.684-1.921c-1.424,0.131-1.828,3.031-1.864,4.174c-0.029,1.071,0.183,2.976,1.424,3.567     c0.784,0.371,2.932-0.861,4.259-1.603c3.105-1.749,5.704-3.665,8.688-5.913c1.619-1.219,3.882-2.732,4.577-4.144     c0.117-0.312,0.132-0.454-0.252-0.773c-0.915-0.766-2.479,0.545-3.554,1.274C324.283,118.137,319.46,122.26,316.766,123.684z" fill="#e53300" data-original="#e53300"/>
			<path style="fill-rule:evenodd;clip-rule:evenodd;" d="M327.324,135.597c1.894-3.976,4.714-9.144,6.601-14.373     c0.396-1.089,1.615-4.403,0.236-4.437c-1.238-0.033-2.388,2.298-3.113,3.637c-1.828,3.387-3.243,6.701-4.797,10.269     c-0.855,1.969-1.751,3.734-2.207,5.544c-0.291,1.182-0.203,2.596,0.513,3.008c1.182,0.685,2.553,0.29,4.275,0.057     c1.483-0.2,3.204-0.414,3.372-1.847C332.407,135.648,328.625,135.625,327.324,135.597z" fill="#e53300" data-original="#e53300"/>
			<path style="fill-rule:evenodd;clip-rule:evenodd;" d="M338.005,136.356c-0.617-0.573-1.018-1.126-1.759-1.879     c-0.535-0.538-1.533-1.489-2.362-0.976c-1.215,0.752-0.293,3.531,0.185,4.569c0.45,0.971,1.484,2.587,2.859,2.561     c0.866-0.013,2.246-2.069,3.106-3.322c2.002-2.95,3.485-5.82,5.159-9.158c0.91-1.812,2.265-4.175,2.257-5.748     c-0.03-0.33-0.082-0.466-0.563-0.581c-1.163-0.279-1.979,1.591-2.621,2.718C342.276,128.047,339.784,133.882,338.005,136.356z" fill="#e53300" data-original="#e53300"/>
			<path style="fill-rule:evenodd;clip-rule:evenodd;" d="M352.753,142.342c-0.072-4.404,0.163-10.286-0.468-15.812     c-0.128-1.149-0.511-4.664-1.763-4.078c-1.12,0.519-1.117,3.116-1.172,4.637c-0.132,3.852,0.072,7.447,0.266,11.335     c0.102,2.141,0.083,4.122,0.484,5.946c0.259,1.186,0.97,2.417,1.791,2.467c1.364,0.088,2.418-0.874,3.858-1.849     c1.242-0.836,2.686-1.794,2.198-3.151C357.332,140.127,353.933,141.789,352.753,142.342z" fill="#e53300" data-original="#e53300"/>
		</g>
		<g>
			<path id="XMLID_3_" style="fill-rule:evenodd;clip-rule:evenodd;" d="M356.262,120.508     c-0.223,1.626-1.739,2.984-1.495,4.71c17.432,14.367,36.732,23.383,56.889,26.732c0.286,0.047,2.066,0.007,2.353,0.052     c1.019,0.161,0.567,0.418,1.628,0.581c2.316,0.356,4.723,0.675,7.166,0.776c3.431,0.149,7.664,0.757,10.652-2.113     c0.049-0.922,0.333-1.113-0.713-2.4c-1.668-2.035-6.265-3.831-9.334-5.05c-1.165-0.463-2.332-0.921-3.501-1.375     c-0.22-0.085-0.44,0.829-0.66,0.744c-0.311-0.12-0.621-1.24-0.932-1.359c-11.625-4.469-23.453-8.557-35.084-12.668     c-0.362-0.128-0.724,0.744-1.086,0.616c-0.367-0.13-0.733-1.26-1.1-1.39c-1.364-0.484-2.724-0.968-4.081-1.454     c-0.448-0.16-0.895,0.679-1.341,0.519c-0.329-0.118-0.66-1.233-0.991-1.346c-2.261-0.771-4.554-1.429-6.787-2.105     c-0.178-0.054-0.356,0.892-0.533,0.838c-0.188-0.057-0.375-1.115-0.562-1.173c-0.292-0.09-0.582-0.182-0.872-0.274     C362.615,122.331,359.559,120.9,356.262,120.508z" fill="#e1ab00" data-original="#e1ab00"/>
			<g>
				<path style="fill-rule:evenodd;clip-rule:evenodd;" d="M418.825,143.464c0.67,3.242-1.647,6.77-4.879,7.942      c-0.816,0.297-1.519,0.473-2.234,0.549c0.284,0.047,0.517,0.087,0.802,0.132c1.018,0.161,2.066,0.328,3.127,0.491      c1.768-0.995,3.119-2.487,3.894-3.88c0.922-1.677,1.229-3.988,0.386-6.272c-0.54-0.21-1.082-0.418-1.622-0.626      C418.515,142.318,418.702,142.874,418.825,143.464z" fill="#ffffff" data-original="#ffffff"/>
				<path style="fill-rule:evenodd;clip-rule:evenodd;" d="M390.303,143.921c1.869-1.072,3.689-2.916,3.931-5.064      c0.315-2.788-2.153-4.738-4.42-4.395c-0.943,0.141-1.975,0.649-2.533,1.281c-1.339,1.529-1.341,3.798-0.429,6.686      c-4.542-0.182-7.772-2.697-10.307-6.469c2.297-0.506,4.219-1.745,5.401-3.363c0.703-0.958,1.238-2.123,1.297-3.456      c-0.733-0.259-1.466-0.518-2.197-0.777c0.01,0.059,0.027,0.114,0.035,0.175c0.323,2.533-2.604,5.122-5.572,5.247      c-0.841-2.783-0.41-5.286,1.211-6.692c0.071-0.062,0.157-0.124,0.24-0.187c-0.445-0.159-0.893-0.317-1.337-0.477      c-0.331-0.119-0.666-0.224-0.999-0.338c-1.338,1.58-1.986,3.772-1.843,5.786c0.045,0.551,0.177,0.944,0.258,1.409      c-2.482-0.425-4.431-3.782-4.926-7.426c-0.092-0.665-0.222-1.3-0.271-1.886c-0.364-0.11-0.724-0.222-1.084-0.334      c-0.163,0.525-0.207,1.123-0.21,1.676c-0.003,1.234,0.149,2.764,0.483,3.954c1.138,4.036,3.869,6.193,6.902,6.658      c0.744,1.564,1.759,2.985,2.902,4.151c3.237,1.72,6.495,3.252,9.814,4.645c0.42-0.009,0.861-0.076,1.303-0.14      c0.219,0.317,0.507,0.695,0.735,0.994c1.672,0.666,3.359,1.275,5.049,1.858C392.497,146.49,391.311,145.279,390.303,143.921z       M389.267,137.016c0.934-0.64,2.281-0.19,2.59,0.677c0.644,1.815-1.162,3.426-2.685,4.219      C388.434,140.272,388.135,137.792,389.267,137.016z" fill="#ffffff" data-original="#ffffff"/>
				<path style="fill-rule:evenodd;clip-rule:evenodd;" d="M409.824,147.071c0.689-3.536-1.548-7.62-4.242-8.751      c-1.235-0.515-2.931-0.61-4.449-0.011c-3.047,1.212-3.878,4.982-2.657,8.306c0.419,1.137,1.068,2.018,1.791,2.82      c2.344,0.65,4.689,1.209,7.06,1.702C408.519,150.066,409.489,148.802,409.824,147.071z M400.587,146.089      c-1.003-2.302-0.559-5.378,2.07-5.882c3.291-0.623,5.862,3.942,4.769,7.121c-0.475,1.378-1.698,2.14-3.09,2.78      C403.082,149.373,401.402,147.966,400.587,146.089z" fill="#ffffff" data-original="#ffffff"/>
			</g>
		</g>
		<g>
			<path style="fill-rule:evenodd;clip-rule:evenodd;" d="M356.965,116.942c-0.385-0.509-2.707-3.349-4.551-4.985     c-6.067-5.375-14.413-10.094-23.112-13.849c-6.508-2.806-18.97-7.252-24.148-3.842c-3.749,2.469,0.995,8.913,7.046,14.372     c8.31,7.489,22.717,14.352,33.517,16.371C354.271,126.608,362.952,124.915,356.965,116.942z" fill="#ffd400" data-original="#ffd400"/>
			<path style="fill-rule:evenodd;clip-rule:evenodd;" d="M356.979,116.938c-0.06-0.079-0.193-0.273-0.338-0.453     c-0.732,2.081-2.469,3.946-4.613,4.725c-2.749,0.998-4.813,0.55-6.922-0.016c1.329-1.13,2.435-2.444,2.796-4.32     c0.689-3.537-1.546-7.619-4.241-8.75c-1.236-0.516-2.932-0.611-4.449-0.01c-3.045,1.212-3.876,4.982-2.656,8.306     c0.587,1.594,1.597,2.65,2.684,3.754c-4.518-0.537-8.105-2.743-10.858-6.449c1.869-1.072,3.686-2.915,3.929-5.064     c0.315-2.787-2.151-4.738-4.421-4.395c-0.938,0.14-1.974,0.648-2.532,1.281c-1.336,1.529-1.341,3.797-0.432,6.685     c-4.537-0.18-7.77-2.696-10.304-6.468c2.297-0.505,4.217-1.746,5.402-3.363c1.111-1.517,1.811-3.549,0.853-5.957     c-0.308-0.777-0.802-1.412-1.407-1.879c-1.038-0.294-2.08-0.561-3.115-0.786c-0.015,0.002-0.029,0.001-0.044,0.004     c-3.736,0.653-5.694,4.53-5.452,7.897c0.041,0.552,0.173,0.945,0.257,1.411c-2.484-0.425-4.432-3.781-4.926-7.428     c-0.087-0.631-0.21-1.237-0.265-1.799c-0.266,0.124-0.533,0.246-0.77,0.402c-0.202,0.133-0.368,0.283-0.522,0.438     c-0.007,0.14-0.011,0.279-0.012,0.415c0,1.235,0.153,2.765,0.487,3.956c1.136,4.035,3.869,6.192,6.897,6.657     c1.246,2.612,3.204,4.655,5.346,6.177c2.352,1.667,5.157,2.99,8.676,2.478c2.915,4.199,6.576,6.857,11.188,7.845     c1.195,0.254,2.345,0.394,3.749,0.28c0.418-0.036,0.89-0.191,1.362-0.174c0.349,0.01,0.712,0.241,1.096,0.393     c2.362,0.934,5.21,1.617,8.906,0.298c2.464-0.879,4.322-2.787,5.283-4.528c0.062-0.113,0.13-0.272,0.187-0.391     C357.562,117.725,357.294,117.357,356.979,116.938z M314.797,96.897c0.435-0.382,1.117-0.788,1.782-0.929     c1.354-0.292,2.383,0.812,2.578,2.374c0.322,2.534-2.602,5.123-5.573,5.247C312.745,100.806,313.174,98.303,314.797,96.897z      M327.25,111.716c-0.736-1.642-1.038-4.122,0.093-4.897c0.936-0.64,2.282-0.19,2.594,0.678     C330.58,109.312,328.775,110.923,327.25,111.716z M342.414,119.91c-1.252-0.734-2.932-2.141-3.749-4.018     c-1.002-2.303-0.559-5.379,2.072-5.882c3.292-0.622,5.863,3.942,4.77,7.12C345.031,118.509,343.808,119.271,342.414,119.91z" fill="#ffffff" data-original="#ffffff"/>
		</g>
		<g>
			<path style="fill-rule:evenodd;clip-rule:evenodd;" d="M307.62,94.966c0.344-2.676,1.898-5.058,3.238-7.476     c1.277-2.311,2.547-4.783,3.706-7.272c2.34-5.011,4.766-10.701,5.656-16.642c0.695-4.616,0.188-8.476-2.11-11.014     c-0.797,0.745-1.471,1.896-2.763,2.021c-1.718,0.169-3.392-0.853-3.521-2.247c-0.237-2.554,2.344-3.591,4.641-3.149     c5.697,1.094,7.129,7.904,6.145,14.758c-0.865,6.037-3.559,11.981-6.193,17.243c-2.357,4.702-4.658,8.641-7.568,12.591     C308.574,94.166,308.382,95.187,307.62,94.966z" fill="#e53300" data-original="#e53300"/>
			<path style="fill-rule:evenodd;clip-rule:evenodd;" d="M304.893,93.926c0.925-13.954,6.603-33.07-0.758-41.284     c-0.753,1.023-1.728,2.343-3.129,2.472c-2.317,0.216-4.394-1.354-3.861-3.892c0.606-2.886,4.999-2.756,7.373-1.131     c8.536,5.833,5.5,26.281,2.41,39.004C306.508,90.831,306.424,92.989,304.893,93.926z" fill="#e53300" data-original="#e53300"/>
		</g>
		<path style="fill-rule:evenodd;clip-rule:evenodd;" d="M311.932,93.19c-1.805-0.995-3.676-0.886-5.107-0.23    c-1.14,0.525-2.454,1.578-3.083,3.048c-1.42,3.322,0.435,6.816,3.581,7.88c2.519,0.851,5.561-0.29,6.876-2.697    c0.609-1.122,0.82-2.418,0.766-3.296C314.872,96.203,313.912,94.279,311.932,93.19z" fill="#ff6825" data-original="#ff6825"/>
		<path style="fill-rule:evenodd;clip-rule:evenodd;" d="M302.648,87.727c-1.804-0.993-3.675-0.885-5.106-0.23    c-1.145,0.525-2.455,1.578-3.085,3.049c-1.418,3.323,0.435,6.817,3.582,7.881c2.518,0.849,5.557-0.294,6.874-2.696    c0.611-1.123,0.821-2.421,0.769-3.299C305.586,90.739,304.63,88.819,302.648,87.727z" fill="#ff6825" data-original="#ff6825"/>
		<g>
			<path style="" d="M288.474,100.341c0.196,0.157,0.449,0.248,0.722,0.241l13.984-1.129     c0.608-0.021,1.082-0.529,1.061-1.136c-0.021-0.606-0.53-1.08-1.137-1.061l-13.985,1.13c-0.602,0.021-1.08,0.529-1.058,1.135     C288.073,99.854,288.233,100.146,288.474,100.341z" fill="#e53300" data-original="#e53300"/>
			<path style="" d="M287.977,102.032c0.191,0.153,0.433,0.241,0.697,0.238c0.608-0.006,1.093-0.501,1.086-1.107     l-0.037-3.414c-0.006-0.605-0.5-1.091-1.109-1.087c-0.605,0.007-1.091,0.503-1.087,1.108l0.038,3.415     C287.568,101.527,287.727,101.833,287.977,102.032z" fill="#e53300" data-original="#e53300"/>
		</g>
	</g>
</g>















</g></svg>