<svg xmlns="http://www.w3.org/2000/svg" version="1.1" xmlns:xlink="http://www.w3.org/1999/xlink" xmlns:svgjs="http://svgjs.com/svgjs" width="512" height="512" x="0" y="0" viewBox="0 0 512 512" style="enable-background:new 0 0 512 512" xml:space="preserve"><g>
<g xmlns="http://www.w3.org/2000/svg">
	<g>
		<g>
			<path style="fill-rule:evenodd;clip-rule:evenodd;" d="M189.663,296.383c-3.709,13.292-0.758,30.445-8.396,38.73     c-8.757,9.503-30.332,8.622-39.377,18.075c-11.758,12.287-11.555,41.123-13.561,62.936c-1.147,12.622-2.49,24.277-2.9,35.183     c-0.472,12.573,2.995,22.174,7.421,30.662c9.264,17.738,24.829,24.425,48.74,27.757c34.558,4.814,73.026,0.75,109.097-0.967     c24.961-1.192,50.05-0.297,66.162-10.008c8.183-4.929,13.564-11.282,17.106-20.978c3.315-9.073,4.424-20.626,5.161-33.244     c0.715-12.157,1.621-24.711,1.621-36.472c0-19.423,0.085-37.496-7.105-50.031c-6.829-11.898-17.32-17.334-34.537-19.685     c-9.288-1.274-22.516-1.371-27.752-7.426c-5.302-6.128-3.639-21.24-4.521-31.953c-0.099-1.192,0.873-3.717-0.967-4.198     C266.96,293.865,227.409,295.071,189.663,296.383z" fill="#a3a3de" data-original="#a3a3de"/>
			<path style="fill-rule:evenodd;clip-rule:evenodd;" d="M128.33,416.124c0.868-9.425,1.324-20.157,2.506-30.299     c7.707,10.562,16.23,20.577,25.56,29.9c47.699,47.704,113.177,74.838,180.674,74.838c10.458,0,20.867-0.654,31.177-1.933     c-3.013,4.066-6.756,7.322-11.397,10.121c-16.112,9.71-41.201,8.816-66.162,10.008c-36.07,1.718-74.538,5.781-109.097,0.967     c-23.911-3.332-39.476-10.019-48.74-27.757c-4.427-8.488-7.893-18.089-7.421-30.662     C125.84,440.401,127.183,428.746,128.33,416.124z" fill="#8888d0" data-original="#8888d0"/>
			<path style="fill-rule:evenodd;clip-rule:evenodd;" d="M298.748,334.789c-4.75-0.552-5.427,3.549-2.905,6.777     c1.008,1.291,4.158,3.698,6.459,4.842c2.631,1.312,7.084,2.27,7.747-0.967c0.387-1.876-2.027-5.217-3.228-6.456     C305.096,337.203,301.709,335.136,298.748,334.789z" fill="#ffffff" data-original="#ffffff"/>
			<path style="fill-rule:evenodd;clip-rule:evenodd;" d="M328.766,344.15c-3.294-0.352-10.543-1.243-10.973,3.552     c-0.418,4.701,5.852,5.982,10.005,7.421c9.165,3.176,17.573,5.161,24.855,10.008c1.458,0.972,3.018,2.52,4.845,3.87     c5.236,3.882,10.767,1.402,7.745-6.451C360.525,350.312,344.97,345.885,328.766,344.15z" fill="#ffffff" data-original="#ffffff"/>
			<path style="fill-rule:evenodd;clip-rule:evenodd;" d="M140.598,461.636c-7.32-1.503-2.322,14.239,2.91,11.294     C147.066,470.926,143.484,462.226,140.598,461.636z" fill="#ffffff" data-original="#ffffff"/>
			<g>
				<g>
					<path style="fill-rule:evenodd;clip-rule:evenodd;" d="M310.113,113.883       c-11.388,10.029-23.85,16.728-35.131,20.015c-2.114,7.815-3.549,15.609-5.371,23.413c9.906-5.045,20.506-11.428,30.917-15.121       c3.103-1.102,7.268-2.976,10.267-0.016c-0.106,4.906-5.047,8.021-8.651,10.477c-10.786,7.36-23.625,12.466-34.36,14.064       c-8.955,43.171-13.762,85.759-13.481,129.182c-0.982-0.085-1.963-0.149-2.947-0.165c-1.081-0.024-2.15,0.007-3.205,0.064       c-0.42-43.409,4.984-86.944,14.12-130.317c-9.637-11.1-15.687-24.138-17.325-37.026c-0.337-2.648-1.211-12.001,3.802-12.877       c3.495-0.604,6.18,5.604,7.287,8.731c3.778,10.699,4.849,23.064,7.634,32.691c0.144,0.224,0.005,0.458,0.238,0.682       c2.199-8.958,4.132-17.908,6.435-26.87c-7.735-12.686-11.803-26.02-12.134-39.657c-0.071-2.935-0.425-11.69,3.801-12.875       c4.208-1.177,5.647,6.855,6.161,9.439c2.26,11.388,2.546,22.451,4.682,33.449c5.743-20.61,11.397-41.215,21.117-61.916       c1.798,0.805,0.505,2.806,0.323,3.875c-1.635,9.602-5.593,20.024-8.419,29.879c-3.278,11.442-6.978,22.958-9.234,34.006       c9.977-6.015,19.749-14.732,30.53-21.731c2.426-1.574,7.754-5.847,10.196-3.212       C320.103,105.012,313.683,110.742,310.113,113.883z" fill="#8ca704" data-original="#8ca704"/>
					<g>
						<path style="fill-rule:evenodd;clip-rule:evenodd;" d="M286.692,36.021c-0.892-4.774-3.285-10.043-4.486-15.44        c-0.569-2.539-1.128-5.349-1.385-8.098c-0.253-2.73-1.058-7.155,1.765-8.637c6.72-3.426,9.038,7.534,10.777,11.584        c2.143,4.981,3.792,10.284,5.055,14.649c3.544-8.03,3.577-19.413,10.616-27.281c3.514-3.931,8.016-3.955,9.271,1.425        c1.019,4.358-0.139,10.595-1.432,15.985c-1.373,5.722-3.653,11.572-5.932,16.761c4.406-2.825,7.997-5.965,13.056-8.948        c3.195-1.883,10.369-6.036,13.797-3.282c2.617,2.107,0.462,5.819-1.583,8.37c-5.284,6.579-13.172,10.635-18.927,13.887        c8.002,0.75,15.489-0.307,24.735,2.487c2.49,0.748,7.011,2.48,6.029,5.451c-1.126,3.405-7.131,4.047-9.434,4.391        c-6.756,1.017-14.864-0.113-21.653-0.694c5.55,3.257,10.633,7.226,14.873,12.504c2.593,3.24,5.531,7.093,2.933,10.383        c-2.968,3.757-10.163,0.262-14.531-2.379c-6.553-3.957-10.373-9.028-13.597-13.186c0.045,5.182,1.619,11.126,1.755,17.065        c0.13,5.597,2.479,13.422-4.354,17.875c-7.437,4.864-10.829-13.238-11.744-18.599c-1.265-7.398-1.428-13.842-0.349-19.619        c-5.13,6.529-9.543,12.887-15.718,17.738c-2.928,2.301-7.419,5.574-10.305,3.384c-3.905-2.964,0.583-10.442,4.545-15.367        c3.471-4.304,6.633-6.676,9.757-9.309c-4.12-0.196-13.592,2.494-19.276,0.984c-2.695-0.72-5.692-2.945-4.868-5.42        c1.546-4.63,10.472-6.864,13.29-7.598c5.321-1.383,9.496-1.458,14.288-1.749c-7.959-4.993-22.691-11.841-20.678-19.387        c1.437-5.399,14.751,2.388,19.871,6.558C284.038,33.47,285.281,35.002,286.692,36.021z" fill="#a3a3de" data-original="#a3a3de"/>
						<path style="fill-rule:evenodd;clip-rule:evenodd;" d="M291.229,31.824c3.772-1.478,5.658,4.652,6.035,7.579        c2.237-3.96,6.076-13.705,10.182-10.76c3.518,2.52-1.56,8.769-2.346,12.639c2.317-0.002,7.013-2.459,9.465,0.101        c3.587,3.752-5.507,7.039-8.356,7.655c2.367,2.98,7.244,5.729,5.399,8.96c-2.761,4.823-9.094-2.94-11.964-5.904        c-0.736,3.912-4.578,13.021-8.832,9.889c-3.915-2.881,1.774-8.684,2.938-12.959c-2.107-0.302-7.853,3.594-10.258,1.541        c-4.21-3.584,7.301-7.374,9.776-8.115C290.255,40.122,286.987,33.553,291.229,31.824z" fill="#ffffff" data-original="#ffffff"/>
					</g>
				</g>
				<g>
					<path style="fill-rule:evenodd;clip-rule:evenodd;" d="M58.227,125.905c-5.295-0.321-11.185-0.602-15.411,1.036       c-2.15,0.836-5.208,3.051-5.517,5.182c-0.939,6.562,12.804,10.352,21.407,11.074c-0.864,1.48-8.351,3.636-7.544,8.507       c0.623,3.773,7.358,2.846,11.813,1.772c4.715-1.137,8.507-3.164,10.918-4.188c3.254-1.385,7.388-2.898,10.678-4.868       c5.25-3.152,9.123-5.684,9.496-13.797c0.448-9.739-5.29-22.698-9.599-27.838c-1.798-2.15-12.29-11.48-14.784-4.089       c-1.69,5.014,4.491,15.529,6.742,19.359c-4.925-3.327-10.552-8.903-17.887-10.647c-4.316-1.026-10.015-1.331-11.284,1.871       c-1.034,2.612,0.354,5.635,1.383,7.322C50.79,120.157,55.457,123.114,58.227,125.905z" fill="#e93700" data-original="#e93700"/>
					<path style="fill-rule:evenodd;clip-rule:evenodd;" d="M89.078,139.443c-2.518,2.176-10.454,0.871-10.109,5.588       c0.328,4.523,12.32,0.67,14.328-0.194c1.463-0.63,2.985-1.907,3.955-3.091c16.752,12.398,32.732,25.4,46.817,39.879       c6.949,6.836,9.543,9.637,15.371,15.218c38.289,38.598,66.591,84.286,87.916,136.946c5.165,12.747,10.486,26.117,14.954,39.877       c4.344,13.417,9.677,27.361,13.545,40.679c6.074,20.931,10.987,41.351,15.083,65.26c0.552,3.207,0.859,6.576,1.874,11.284       c0.739,3.436,1.463,9.219,5.106,8.754c3.783-0.484,2.251-6.418,1.574-10.213c-4.592-25.737-10.182-52.355-17.275-76.582       c-8.332-28.456-18.184-54.708-28.815-80.598c-10.505-25.572-22.974-50.842-37.449-73.852       c-6.876-10.928-14.715-22.516-23.581-33.131c-6.777-8.12-15.484-17.891-23.724-26.646c-1.173-1.244-3.448-3.974-3.448-3.674       c0.005-0.724-7.997-9.606-19.704-19.649c-15.256-13.181-29.395-27.236-48.771-37.196c0.949-4.21-2.832-17.294-7.726-16.556       c-4.106,0.618-1.64,9.432-0.491,11.971c-2.346-0.559-8.087-4.358-9.049-0.455C78.53,136.812,85.258,138.084,89.078,139.443z" fill="#5e7d00" data-original="#5e7d00"/>
				</g>
				<g>
					<path style="fill-rule:evenodd;clip-rule:evenodd;" d="M210.03,21.401c1.461-5.097,3.148-10.746,6.105-14.189       c1.503-1.751,4.606-3.893,6.72-3.476c6.499,1.3,5.498,15.52,3.322,23.873c1.685-0.321,6.209-6.661,10.529-4.285       c3.358,1.848,0.238,7.889-2.261,11.733c-2.641,4.063-5.817,6.97-7.586,8.901c-2.39,2.612-5.189,6.003-8.148,8.45       c-4.717,3.903-8.393,6.702-16.159,4.363c-9.34-2.82-19.647-12.542-23.064-18.314c-1.425-2.416-6.73-15.411,1.067-15.303       c5.29,0.073,13.148,9.399,16.018,12.792c-1.501-5.75-4.892-12.908-4.087-20.404c0.462-4.415,2.077-9.89,5.515-10.022       c2.813-0.104,5.199,2.211,6.451,3.738C207.088,12.481,208.319,17.863,210.03,21.401z" fill="#e93700" data-original="#e93700"/>
					<path style="fill-rule:evenodd;clip-rule:evenodd;" d="M211.533,52.966c-2.36-1.225-3.835-7.294-8.941-6.152       c-1.713,4.988,2.169,10.3,5.855,13.047c1.317,0.979,2.671,1.885,4.384,1.935c3.827,13.795,6.89,28.25,9.861,42.779       c-4.236-7.301-8.327-17.129-15.409-24.083c-1.907-1.881-6.558-5.142-9.469-3.278c-4.297,2.747,0.724,13.901,1.732,16.306       c4.38,10.458,10.123,17.981,16.905,25.813c3.327,3.844,6.862,7.801,11.562,10.22c1.746,11.865,3.969,23.323,5.536,35.346       c-7.171-10.888-14.135-24.716-26.051-33.593c-3.28-2.44-13.5-7.646-15.13-1.09c-1.407,5.647,4.984,12.431,7.301,15.414       c10.118,13.021,23.177,24.869,36.052,33.989c1.579,15.437,3.499,30.577,4.405,46.595c-9.304-10.51-19.55-22.464-33.69-30.91       c-1.331-0.8-13.139-8.327-15.333-2.725c-1.831,4.668,6.477,12.308,8.361,14.196c11.579,11.626,24.706,20.949,41.368,27.578       c5.39,70.463-0.42,160.071-15.369,230.91c-0.724,3.424-1.527,7.046-2.699,10.484c-0.5,1.47-4.307,10.836,0.101,11.978       c4.531,1.173,5.224-8.129,6.041-11.857c3.252-14.944,6.862-30.339,9.118-45.618c4.769-32.401,8.316-66.199,9.496-100.278       c1.147-32.861,0.656-65.336-1.836-95.59c13.696-6.666,26.717-14.047,35.641-27.526c1.177-1.775,7.896-12.658,3.714-15.586       c-3.606-2.52-10.324,3.068-12.648,4.908c-10.628,8.408-18.306,19.465-27.042,29.44c-1.678-15.249-2.822-30.959-5.12-45.672       c7.716-10.55,16.775-20.69,20.471-37.031c0.96-4.245,2.751-14.25-1.163-15.296c-3.587-0.956-6.045,4.226-7.61,6.895       c-5.614,9.547-9.88,19.574-13.547,30.735c-2.515-12.41-4.054-25.667-6.987-37.718c5.732-12.358,10.305-29.159,10.267-48.124       c-0.005-5.123,0.406-13.632-3.497-14.163c-5.253-0.715-7.284,13.231-8.115,18.179c-1.378,8.224-2.294,15.69-2.709,24.078       c-4.245-15.237-7.148-31.648-12.546-45.889c1.652-3.778,3.915-10.869,2.084-15.378       C213.149,43.613,212.416,50.021,211.533,52.966z" fill="#5e7d00" data-original="#5e7d00"/>
				</g>
				<path style="fill-rule:evenodd;clip-rule:evenodd;" d="M437.369,204.005c-5.562,1.043-11.268,1.907-16.515,3.322      c4.059-7.155,13.877-17.23,14.326-28.489c0.106-2.813-0.71-5.43-2.678-6.081c-3.087-1.029-5.734,3.495-6.997,5.505      c-5.423,8.641-9.361,18.113-11.263,30.395c-31.375,9.385-59.052,21.591-83.949,38.206      c-24.602,16.421-46.557,36.564-67.049,58.585c-19.784,21.266-39.851,45.87-56.555,71.228      c-14.34,21.764-28.713,46.512-39.938,73.755c-1.685,4.094-3.615,10.352,0.271,11.043c3.471,0.621,5.722-6.796,6.68-9.101      c10.911-26.297,24.439-51.305,38.883-72.877c16.731-25.001,35.622-49.2,55.184-70.383      c40.396-43.763,85.632-79.149,147.081-96.51c2.987,7.261,7.655,13.875,13.044,20.018c3.365,3.827,8.363,9.064,14.215,7.483      c1.753-3.219-0.444-6.496-2.086-8.946c-4.887-7.299-11.506-14.722-18.536-20.204c4.68-1.746,10.244-2.428,15.26-3.766      c4.526,9.51,10.711,18.951,18.609,26.372c2.393,2.242,5.526,5.897,9.96,4.493c1.635-3.811-0.805-7.004-2.346-9.618      c-4.708-7.988-11.324-15.076-18.106-21.462c10.246,3.271,24.954,3.636,35.183,1.657c2.775-0.538,8.007-1.456,8.193-4.425      c0.38-5.977-17.249-5.67-22.514-5.34c-8.993,0.571-15.022,2.343-21.806,4.455c3.719-4.24,8.04-9.04,11.711-14.47      c3.556-5.253,7.516-11.648,7.648-19.385c-3.37-3.431-7.518,2.463-9.889,5.236C447.16,181.984,440.154,194.91,437.369,204.005z" fill="#8ca704" data-original="#8ca704"/>
				<g>
					<path style="fill-rule:evenodd;clip-rule:evenodd;" d="M377.86,232.847c2.914-3.075,14.158-20.494,4.427-23.255       c-5.536-1.567-11.77,2.964-15.671,4.703c2.079-4.991,4.807-16.995-1.831-18.646c-5.638-1.406-8.613,4.184-12.285,6.633       c1.21-5.208-0.616-12.325-3.766-15.265c-2.603-2.428-6.773-2.263-9.696-0.255c-4.807,3.306-8.674,10.788-11.345,17.422       c-3.042,7.542-4.93,15.808-4.852,24.185c0.165,17.169,10.819,30.851,30.461,31.365c11.154,0.29,20.558-5.276,28.807-9.958       c2.655-1.508,5.937-3.542,7.638-5.449c1.078-1.196,3.391-4.658,2.943-7.181C391.839,232.392,382.73,232.309,377.86,232.847z" fill="#e93700" data-original="#e93700"/>
					<g>
						<path style="fill-rule:evenodd;clip-rule:evenodd;" d="M381.036,195.217        c-7.037,11.808-17.162,19.576-27.243,27.93c-3.237,2.693-7.306,4.967-8.96,9.215c2.733-0.243,5.05-2.088,7.138-3.549        c10.029-7.004,20.343-14.571,28.317-25.56c1.262-1.739,3.233-4.472,4.221-7.065c0.875-2.287,1.978-7.263,0.514-9.026        c-1.798-2.168-5.073-0.651-5.699,2.062C378.705,191.937,380.012,193.296,381.036,195.217z" fill="#5f5391" data-original="#5f5391"/>
						<path style="fill-rule:evenodd;clip-rule:evenodd;" d="M368.652,192.442        c-4.049,14.066-15.223,20.881-24.144,29.518c-1.1,1.064-2.785,2.294-2.961,3.938c3.167-0.807,6.194-3.611,9.658-6.232        c2.841-2.15,6.069-4.443,8.783-7.287c5.666-5.937,11.454-14.024,12.322-20.895c0.295-2.346-2.069-7.69-4.493-3.983        C366.684,189.235,368.152,190.762,368.652,192.442z" fill="#5f5391" data-original="#5f5391"/>
						<path style="fill-rule:evenodd;clip-rule:evenodd;" d="M351.686,238.836c3.78-0.526,6.362-3.629,8.988-5.968        c7.801-6.978,15.836-14.437,25.199-20.02c0.977,0.342,5.206,1.982,7.103,0.34c1.605-2.844,0.92-5.626-3.056-5.477        c-4,0.153-7.926,3.245-11.555,5.736c-8.363,5.732-16.447,12.795-23.599,20.164        C353.307,235.117,351.037,236.592,351.686,238.836z" fill="#5f5391" data-original="#5f5391"/>
					</g>
					<path style="fill-rule:evenodd;clip-rule:evenodd;" d="M351.426,219.293c1.642-4.8,6.654-20.659-0.156-22.708       c-6.73-2.029-10.378,8.957-12.27,13.446c-0.677-6.622-4.745-16.832-12.45-12.509c-5.725,3.214-8.898,14.854-9.113,24.761       c-0.429,19.944,15.098,39.162,34.94,42.48c7.745,1.293,14.758,0.186,21.95-2.492c3.424-1.279,11.445-4.422,11.534-8.976       c0.078-4.38-5.684-5.123-11.15-5.578c2.246-1.609,15.895-14.085,5.151-17.023c-6.787-1.855-15.312,2.409-20.461,3.929       c-0.269,0.038-0.354,0.29-0.675,0.262c2.515-4.644,11.813-11.482,11.461-18.705c-0.286-6.081-7.808-4.151-11.475-2.041       C355.634,215.909,353.76,217.559,351.426,219.293z" fill="#ff4f00" data-original="#ff4f00"/>
				</g>
				<g>
					<path style="fill-rule:evenodd;clip-rule:evenodd;" d="M138.233,231.276       c-17.863-11.77-35.66-23.602-56.581-32.831c-0.833,1.793,1.461,2.449,2.298,3.134c7.535,6.173,17.367,11.431,25.966,17.009       c9.986,6.473,20.343,12.728,29.298,19.586c-11.473,2.01-24.576,1.852-37.3,3.655c-2.86,0.404-9.684,0.68-9.8,4.274       c-0.125,4.021,8.483,4.123,13.229,4.151c15.175,0.085,28.98-3.047,39.645-7.976c6.725,4.502,12.929,9.439,19.425,14.13       c-10.788,2.7-22.967,4.847-33.244,8.894c-3.058,1.208-7.438,2.53-7.759,6.732c3.303,3.634,9.075,2.735,13.41,2.223       c12.962-1.531,25.999-6.114,35.15-11.959c37.706,28.664,71.377,59.956,101.267,95.986       c25.636,30.905,47.206,65.534,62.794,105.366c0.84,2.147,2.334,5.987,3.429,8.427c0.538,1.198,2.298,7.225,5.274,6.001       c2.294-0.942,1.107-6.82,0.229-9.38c-3.032-8.821-7.296-18.21-10.609-25.298c-35.603-76.12-92.529-135.433-159.042-185.653       c-0.019-14.694-4.018-28.501-11.253-39.299c-1.482-2.221-6.97-9.845-11.317-7.211c-3.037,1.831-0.986,8.278,0.236,11.364       c4.172,10.55,11.487,20.579,15.711,29.671c0.038,0.262,0.293,0.347,0.26,0.67c-7.537-5.312-14.871-10.789-22.491-16.037       c-2.494-14.649-8.179-27.382-16.891-37.881c-1.878-2.256-7.358-9.092-11.32-7.214c-3.95,1.871,0.241,8.88,1.553,11.166       C125.569,213.045,132.624,221.577,138.233,231.276z" fill="#8ca704" data-original="#8ca704"/>
					<g>
						<path style="fill-rule:evenodd;clip-rule:evenodd;" d="M69.837,175.629c-3.039-3.785-5.489-9.035-8.795-13.462        c-1.56-2.081-3.329-4.34-5.246-6.324c-1.906-1.97-2.878-5.177-7.707-4.281c-5.56,1.176-0.165,11.761,1.775,15.723        c2.383,4.866,5.34,9.574,7.829,13.37c-8.405-2.537-17.061-9.925-27.616-9.705c-5.274,0.113-8.226,3.511-4.958,7.969        c2.645,3.61,8.134,6.796,13.07,9.323c5.236,2.676,11.154,4.757,16.577,6.404c-5.007,1.503-9.734,2.19-15.286,4.087        c-3.509,1.199-11.334,3.941-11.478,8.33c-0.099,3.363,4.115,4.148,7.386,4.257c8.434,0.274,16.645-3.082,22.863-5.328        c-4.642,6.562-10.314,11.555-14.217,20.395c-1.052,2.374-2.678,6.931,0.212,8.124c3.318,1.362,7.719-2.784,9.479-4.304        c5.165-4.465,9.585-11.357,13.566-16.886c-1.14,6.333-1.439,12.773-0.189,19.43c0.772,4.078,1.782,8.814,5.97,8.986        c4.786,0.189,6.815-7.542,7.653-12.58c1.26-7.549-0.094-13.75-1.154-18.908c3.9,3.412,7.391,8.478,11.808,12.448        c4.167,3.742,10.288,13.333,16.405,8.337c6.239-5.464-3.002-16.841-6.468-21.025c-4.793-5.777-9.576-10.102-14.673-13.035        c8.297,0.354,15.999,1.14,23.701-0.387c3.658-0.722,9.059-2.001,9.276-5.621c0.295-4.892-8.304-6.355-14.63-6.548        c-5.519-0.175-9.373,0.682-13.415,1.345c2.537-3.261,10.753-8.695,13.304-13.998c1.211-2.516,1.468-6.237-0.953-7.219        c-4.512-1.841-12.023,3.473-14.415,5.137c-4.512,3.136-7.287,6.26-10.626,9.706c1.392-9.295,5.788-24.935-1.253-28.314        c-5.035-2.424-7.792,12.752-7.969,19.354C69.634,171.948,69.983,173.89,69.837,175.629z" fill="#ff4f00" data-original="#ff4f00"/>
						<path style="fill-rule:evenodd;clip-rule:evenodd;" d="M67.971,178.855c-3.905,2.442,0.66,9.053,1.545,11.745        c-4.816-0.946-15.654-6.856-16.126-1.433c-0.396,4.644,8.268,4.882,11.997,6.954c-1.635,1.895-6.938,4.009-6.562,7.813        c0.545,5.574,9.627,0.434,12.126-1.458c0.779,4.023-0.392,9.946,3.544,10.701c5.885,1.128,3.976-9.507,3.563-13.932        c3.714,2.14,13.871,5.397,14.291-0.29c0.396-5.224-8.349-4.646-12.662-6.692c1.232-1.937,8.443-3.901,8.457-7.315        c0.019-5.954-11.069,2.082-13.412,3.585C73.348,185.191,73.228,176.128,67.971,178.855z" fill="#5f5391" data-original="#5f5391"/>
					</g>
				</g>
				<g>
					<path style="fill-rule:evenodd;clip-rule:evenodd;" d="M207.305,458.523c4.401-25.773,9.793-52.428,16.711-76.707       c8.117-28.519,17.769-54.849,28.213-80.813c10.314-25.648,22.589-51.012,36.896-74.126       c6.791-10.98,14.545-22.623,23.333-33.305c6.718-8.172,15.35-18.009,23.519-26.82c1.163-1.258,3.419-4,3.429-3.705       c-0.014-0.724,7.924-9.663,19.553-19.796c3.136-2.744,6.218-5.529,9.307-8.306c1.513,0.883,3.086,1.678,4.698,2.386       c-4.306,3.974-8.502,8.042-12.532,12.24c-6.9,6.883-9.462,9.705-15.256,15.329c-38.001,38.879-65.961,84.78-86.894,137.597       c-5.071,12.782-10.296,26.198-14.652,39.985c-4.252,13.45-9.479,27.434-13.243,40.783c-5.923,20.973-10.68,41.43-14.602,65.371       c-0.529,3.209-0.809,6.581-1.782,11.296c-0.715,3.438-1.397,9.234-5.05,8.792C205.176,468.271,206.658,462.325,207.305,458.523       z" fill="#5e7d00" data-original="#5e7d00"/>
					<g>
						<g>
							<path style="fill-rule:evenodd;clip-rule:evenodd;" d="M354.657,83.02c-3.915-2.499-12.327-14.172-20.14-9.984         c-5.803,3.11-2.945,12.981-0.656,17.443c1.697,3.308,3.915,5.972,5.998,8.663c-5.189-2.183-19.38-6.749-20.482,0.684         c-0.854,5.743,6.017,12.266,11.098,16.596c7.839,6.692,18.241,12.919,29.9,9.595c-1.456,12.068,1.911,21.323,6.536,30.754         c1.69,3.464,3.405,7.124,6.138,10.621c3.306,4.233,6.624,9.603,13.186,8.039c6.133-1.531,4.96-12.66,3.61-17.816         c2.631,1.671,5.845,4.243,9.743,6.737c2.369,1.515,8.66,6.159,12.001,3.388c3.771-3.122-0.873-11.171-2.57-14.175         c-2.648-4.722-5.165-7.799-7.655-11.74c5.937,1.156,18.526,4.729,19.9-1.385c1.064-4.72-6.546-8.604-10.638-11.039         c-2.577-1.531-4.908-2.921-7.412-3.931c-2.737-1.107-5.848-2.877-8.684-4.088c-7.938-3.391-11.548-8.758-22.995-7.293         c2.006-9.092,1.628-20.692-0.462-29.867c-1.225-5.385-3.393-12.101-6.862-13.28C358.9,69.138,354.322,76.363,354.657,83.02z" fill="#e93700" data-original="#e93700"/>
							<path style="fill-rule:evenodd;clip-rule:evenodd;" d="M401.924,101.038c0.208-1.477,1.855-2.317,2.902-3.296         c3.058-2.867,11.273-5.139,7.912-11.905c-4.589-7.001-13.052,2.95-17.951,4.809c3.101-5.718,7.108-15.987-0.429-16.247         c-3.598-0.123-6.914,3.952-10.012,6.525c-6.166,5.113-10.977,10.838-14.999,18.373c-4.944,9.245-6.6,22.217,5.142,24.791         c2.029,0.446,5.63,0.661,7.39,0.689c7.086,0.125,14.541-2.053,21.842-4.771c2.973-1.107,6.232-2.445,9.189-4.658         c2.379-1.775,5.999-5.231,5.947-8.195C418.758,101.52,408.385,101.126,401.924,101.038z" fill="#ff4f00" data-original="#ff4f00"/>
							<path style="fill-rule:evenodd;clip-rule:evenodd;" d="M336.874,141.651         c-1.645,4.894-8.679,10.654-8.837,18.304c-0.042,1.911,1.083,5.229,3.025,5.791c7.591,2.197,13.729-5.274,18.602-8.316         c-1.003,6.699-1.645,15.881,4.259,16.933c5.368,0.951,9.106-5.755,10.895-9.038c8.88-16.294,10.954-47.624-10.206-50.545         c-11.558-1.595-24.258,4.337-31.96,9.017c-3.828,2.329-9.703,5.715-9.845,11.723         C312.581,145.302,329.255,145.078,336.874,141.651z" fill="#ff4f00" data-original="#ff4f00"/>
							<path style="fill-rule:evenodd;clip-rule:evenodd;" d="M365.344,96.985c-3.542,0.878-3.325,7.513-3.03,11.706         c-2.657-0.668-11.777-8.809-13.644-3.216c-1.458,4.377,3.95,6.706,5.239,9.889c-3.927-0.059-8.07-0.861-8.943,2.084         c-1.01,3.398,2.867,5.118,6.562,6.121c-2.728,1.664-8.039,1.256-7.931,5.097c0.115,4.061,7.697,3.098,12.322,3.417         c-0.963,1.371-8.474,8.946-3.299,11.036c4.488,1.819,8.339-4.288,10.911-5.791c0.075,3.993,1.159,8.469,4.391,8.516         c3.386,0.05,4.984-5.309,5.456-9.864c2.766,0.512,4.981,6.947,9.521,5.75c5.375-1.425-2.216-11.062-3.629-13.306         c4.155,1.019,11.411,2.716,12.719-0.762c1.989-5.302-7.405-7.122-11.119-9.462c2.903-1.51,8.488-1.404,8.901-5.005         c0.453-4.002-5.836-3.601-10.076-3.207c0.993-1.713,6.366-8.434,1.918-10.196c-3.792-1.498-7.598,5.907-10.635,6.929         C369.714,103.621,370.077,95.794,365.344,96.985z" fill="#5f5391" data-original="#5f5391"/>
						</g>
						<path style="fill-rule:evenodd;clip-rule:evenodd;" d="M361.03,121.896c-1.043,0.562-2.688,0.996-4.342,1.774        c-1.34,0.635-3.662,1.848-3.726,3.629c0.753,1.803,3.511,1.14,5.316,0.5c1.522-0.538,2.829-1.477,3.82-1.841        c-1.083,0.963-4.219,6.355-2.117,7.362c1.34,0.644,3.134-1.538,4.082-2.817c1.265-1.716,2.036-3.346,2.91-5.298        c0.663,0.845,1.177,2.511,2.192,3.967c1.008,1.439,4.321,4.946,5.6,2.492c0.682-1.31-0.564-2.945-1.121-3.941        c-0.755-1.357-1.35-2.343-2.138-3.41c2.27,1.17,8.313,3.762,9.21,1.513c0.496-1.243-1.303-2.416-2.438-2.99        c-2.265-1.135-4.701-1.734-6.461-2.029c1.487-0.932,6.694-2.77,7.162-6.166c0.21-1.515-1.678-2.256-3.07-1.758        c-1.685,0.599-3.443,2.287-4.866,3.445c0.186-1.876,0.911-4.552,0.102-6.012c-1.05-1.892-2.761-0.802-3.504,1.031        c-0.892,2.221-0.807,4.767-1.166,6.664c-1.619-1.77-3.237-5.474-6.097-6.997c-0.543-0.29-1.593-0.814-2.161-0.318        c-0.401,1.423,0.491,2.629,1.102,3.662c0.64,1.097,1.442,2.161,2.07,3.245c-1.756-0.854-7.53-3.353-7.844-0.562        c-0.153,1.345,3.695,3.259,5.39,4.026C359.605,121.37,360.351,121.606,361.03,121.896z" fill="#ffffff" data-original="#ffffff"/>
					</g>
				</g>
				<g>
					<path style="fill-rule:evenodd;clip-rule:evenodd;" d="M168.563,153.452c0.906,1.404,1.397,2.301,1.364,2.497       c0.047-0.297,1.921,2.723,2.902,4.12c6.916,9.831,14.168,20.73,19.739,29.723c7.277,11.761,13.405,24.333,18.675,36.122       c11.095,24.817,19.876,51.593,26.672,78.39c6.886,27.125,12.94,54.505,17.186,83.855c3.617,24.98,5.401,52.122,6.326,78.25       c0.13,3.849,0.807,9.942-3.004,9.885c-3.672-0.047-3.575-5.883-3.825-9.384c-0.333-4.8-0.165-8.184-0.26-11.433       c-0.689-24.251-2.68-45.16-5.743-66.735c-1.954-13.729-5.269-28.288-7.688-42.182c-2.483-14.248-5.869-28.236-9.179-41.585       c-13.705-55.137-35.297-104.356-67.771-147.959c-0.172-0.224-0.335-0.434-0.505-0.649       C165.214,155.501,166.925,154.526,168.563,153.452z" fill="#8ca704" data-original="#8ca704"/>
					<g>
						<g>
							<path style="fill-rule:evenodd;clip-rule:evenodd;" d="M190.909,114.93c-2.138-4.918-1.04-13.927-8.436-13.752         c-3.554,0.083-7.572,3.707-9.949,5.878c-5.055,4.608-10.376,10.89-14.883,17.094c-3.322,4.568-7.497,10.354-7.877,18.389         c-0.67,14.366,9.746,17.877,23.685,20.683c12.065,2.431,26.514,5.644,32.842-1.149c1.045-1.121,2.603-3.558,2.848-6.218         c0.422-4.38-3.431-7.896-3.389-12.313c0.054-4.965,3.851-9.46,3.889-13.901C209.735,119.529,199.555,119.366,190.909,114.93z         " fill="#e93700" data-original="#e93700"/>
							<path style="fill-rule:evenodd;clip-rule:evenodd;" d="M111.967,175.971c-1.439,5.496-4.811,13.219,0.43,16.249         c4.382,2.529,10-0.326,12.808-1.727c6.419-3.209,13.62-8.719,18.788-13.809c2.928-2.884,6.992-7.008,7.797-10.614         c5.031-22.448-17.577-27.569-33.39-31.318c-6.744-1.595-15.574-1.546-17.249,4.229c-1.716,5.935,3.683,7.704,2.6,13.858         c-1.005,5.718-7.096,4.896-7.244,11.643C96.374,170.652,105.507,174.19,111.967,175.971z" fill="#e93700" data-original="#e93700"/>
							<path style="fill-rule:evenodd;clip-rule:evenodd;" d="M145.978,99.724c-4.193-1.56-6.848-4.717-11.301-3.972         c-6.791,1.13-6.501,10.763-6.848,17.839c-4.29,0.514-9.132-1.954-11.428,0.875c-2.99,3.703,1.284,10.262,2.433,12.223         c4.41,7.565,8.493,12.042,15.914,17.042c7.523,5.069,19.118,7.612,24.954,0.057c6.959-9.024,6.548-32.748,2.895-41.545         c-1.107-2.68-3.469-5.772-5.885-6.388C151.19,94.462,149.897,97.846,145.978,99.724z" fill="#ff4f00" data-original="#ff4f00"/>
							<path style="fill-rule:evenodd;clip-rule:evenodd;" d="M179.727,189.74c6.652,0.429,11.409,0.342,12.721-4.325         c0.774-2.737-0.229-6.777-0.824-8.505c-1.826-5.347-7.091-11.282-11.537-15.34c-4.84-4.401-10.958-9.118-17.514-10.383         c-15.671-3.023-20.14,14.427-19.706,30.58c0.12,4.349,1.163,8.877,2.166,11.548c1.243,3.282,2.855,7.315,6.732,7.759         c2.558,0.293,3.483-0.904,5.059-2.121c1.218-0.93,2.914-2.881,4.479-2.827c2.827,0.106,5.489,5.562,9.486,6.072         C177.369,203.042,180.413,197.298,179.727,189.74z" fill="#ff4f00" data-original="#ff4f00"/>
							<path style="fill-rule:evenodd;clip-rule:evenodd;" d="M142.672,128.343c-4.958-1.56-8.887,0.467-9.423,3.955         c-0.8,5.158,5.073,8.62,8.679,10.47c-3.405,1.489-12.122,1.638-12.07,6.423c0.024,1.965,1.621,3.044,4.212,3.41         c-0.13,1.291-2.881,2.421-3.735,4.481c-2.178,7.192,5.748,7.07,9.486,5.111c0.448,3.002-0.673,5.734,1.421,7.381         c2.556,2.008,6.414,0.538,8.306-1.642c-2.593,8.323,7.089,12.589,8.429,3.5c2.244,1.954,6.732,9.748,11.711,7.131         c3.662-1.921,1.364-8.868,0.519-12.025c1.711,0.302,5.722,1.916,7.268-0.231c1.711-5.232-2.313-7.995-4.415-10.977         c3.851,0.16,7.591-1.093,7.634-4.12c0.038-2.584-3.329-3.596-5.894-4.776c3.754-1.069,14.34-6.072,10.095-11.133         c-3.089-3.686-9.193,0.951-13.042,0.592c0.972-2.058,4.153-8.691,0.354-10.227c-4.783-1.947-7.575,3.83-10.52,5.961         c-0.019-4.54-0.241-11.511-4.651-11.605c-2.23-0.047-3.386,2.032-4.344,4.424c-2.766-2.244-3.089-8.08-7.707-7.964         C140.341,116.601,141.051,124.78,142.672,128.343z" fill="#5f5391" data-original="#5f5391"/>
						</g>
						<path style="fill-rule:evenodd;clip-rule:evenodd;" d="M153.574,141.859c2.345-0.841,3.539,3.791,4.296,5.376        c1.751-2.48,4.121-9.209,6.648-6.976c2.166,1.914-1.626,5.725-2.412,8.245c1.543,0.153,4.826-1.163,6.284,0.706        c2.14,2.732-4.134,4.309-6.067,4.526c1.373,2.14,4.427,4.295,2.982,6.315c-2.157,3.02-5.842-2.563-7.551-4.727        c-0.753,2.546-3.915,8.349-6.541,5.975c-2.405-2.176,1.765-5.649,2.827-8.412c-1.383-0.345-5.456,1.859-6.918,0.33        c-2.556-2.662,5.68-3.978,7.379-4.309C153.69,146.82,150.72,143.054,153.574,141.859z" fill="#ffffff" data-original="#ffffff"/>
					</g>
				</g>
				<g>
					<path style="fill-rule:evenodd;clip-rule:evenodd;" d="M289.859,223.229c-3.485-3.87-7.749-9.677-14.196-14.614       c-2.284-1.746-5.326-3.865-9.196-5.72c-2.827-1.354-9.613-4.08-10.959-0.696c-1.175,2.95,2.138,6.187,3.488,7.782       c2.131,2.508,3.813,3.799,5.63,5.71c-4.701-0.441-17.061-0.93-17.57,4.196c-0.573,5.715,15.331,9.165,21.745,10.132       c3.176,0.479,7.643,0.571,10.605,0.989c-4.639,3.92-12.056,8.245-17.153,13.637c-2.246,2.371-6.314,5.847-5.838,10.475       c0.665,6.463,10.515,4.262,15.046,2.048c2.265-1.105,3.82-3.054,5.526-3.7c-1.033,4.016-4.061,13.278,0.26,14.616       c4.304,1.321,7.405-5.423,9.347-9.831c3.07-6.985,4.391-12.011,5.073-19.621c2.346,1.609,4.868,3.707,7.549,5.887       c4.984,4.056,9.543,8.183,16.107,11.551c2.858,1.465,8.405,5.112,10.279,0.958c2.841-6.574-6.324-10.961-10.541-15.567       c6.468,0.658,19.185,3.853,19.992-2.353c0.939-7.183-17.521-10.663-25.48-11.775c-3.145-0.439-6.246-0.356-9.031-0.517       c2.78-2.99,12.809-10.085,15.178-16.74c2.91-8.179-6.89-7.287-11.272-4.292c0.253-5.77,0.243-13.719-5.609-12.839       C293.03,193.82,290.98,213.807,289.859,223.229z" fill="#a3a3de" data-original="#a3a3de"/>
					<path style="fill-rule:evenodd;clip-rule:evenodd;" d="M286.394,222.776c2.668-1.399,3.494,3.733,4.157,5.114       c1.531-2.159,4.321-7.577,6.527-5.63c1.885,1.666-1.416,4.986-2.098,7.178c1.34,0.135,4.203-1.01,5.474,0.616       c1.852,2.379-3.608,3.75-5.288,3.943c1.194,1.86,3.854,3.735,2.6,5.496c-1.885,2.634-5.095-2.235-6.581-4.113       c-0.654,2.218-3.41,7.268-5.689,5.201c-2.098-1.892,1.534-4.922,2.459-7.327c-1.201-0.3-4.752,1.619-6.027,0.29       c-2.223-2.322,4.658-3.839,6.138-4.125C287.36,227.599,283.14,224.468,286.394,222.776z" fill="#ffffff" data-original="#ffffff"/>
				</g>
				<g>
					<path style="fill-rule:evenodd;clip-rule:evenodd;" d="M195.421,245.941c-2.685,1.444-6.93,2.563-11.19,4.583       c-3.462,1.633-9.47,4.759-9.633,9.368c1.933,4.656,9.071,2.938,13.724,1.293c3.927-1.392,7.301-3.816,9.878-4.757       c-2.801,2.483-10.897,16.4-5.474,19.01c3.462,1.664,8.101-3.971,10.534-7.275c3.271-4.427,5.274-8.632,7.525-13.679       c1.72,2.183,3.037,6.484,5.656,10.236c2.598,3.726,11.157,12.775,14.458,6.444c1.763-3.381-1.456-7.61-2.895-10.185       c-1.958-3.495-3.476-6.041-5.536-8.797c5.876,3.023,21.488,9.71,23.8,3.905c1.284-3.214-3.363-6.239-6.305-7.719       c-5.835-2.933-12.131-4.479-16.674-5.236c3.842-2.407,17.275-7.159,18.486-15.926c0.545-3.915-4.328-5.821-7.919-4.54       c-4.349,1.552-8.889,5.909-12.57,8.898c0.486-4.845,2.355-11.756,0.267-15.527c-2.704-4.878-7.126-2.074-9.042,2.657       c-2.312,5.734-2.088,12.306-3.023,17.212c-4.162-4.576-8.442-13.73-15.097-18.819c-0.557-0.426-3.834-2.261-6.219-0.078       c-2.858,3.322,1.272,6.791,2.837,9.463c1.668,2.829,3.738,5.585,5.357,8.382c-4.54-2.211-19.444-8.655-20.263-1.456       c-0.392,3.476,9.55,8.424,13.925,10.399C191.747,244.577,193.679,245.184,195.421,245.941z" fill="#a3a3de" data-original="#a3a3de"/>
					<path style="fill-rule:evenodd;clip-rule:evenodd;" d="M204.412,235.823c2.438-1.054,4.087,3.325,4.456,5.195       c1.751-2.482,4.744-9.134,7.271-6.901c2.166,1.914-1.621,5.725-2.412,8.247c1.548,0.151,4.826-1.166,6.289,0.703       c2.136,2.735-4.139,4.309-6.067,4.526c1.369,2.14,4.427,4.295,2.978,6.317c-2.161,3.02-5.847-2.565-7.551-4.729       c-0.753,2.551-3.915,8.351-6.536,5.977c-2.409-2.178,1.761-5.649,2.827-8.415c-1.388-0.345-5.46,1.86-6.924,0.333       c-2.556-2.666,5.891-4.229,7.585-4.557C204.736,240.857,201.449,236.982,204.412,235.823z" fill="#ffffff" data-original="#ffffff"/>
				</g>
			</g>
			<g>
				<path style="fill-rule:evenodd;clip-rule:evenodd;" d="M309.077,297.997c2.168-7.421-3.089-5.939-9.68-5.81      c-17.176,0.34-36.833,0.642-53.9,0.642c-16.181,0-30.287-0.321-46.8-0.321c-4.913,0-11.508-1.229-12.915,1.94      c-4.172,9.46,15.128,6.477,20.983,6.454c23.472-0.101,53.115,0,78.751,0c4.335,0,8.788-0.071,12.917-0.323      C302.163,300.352,306.436,300.833,309.077,297.997z" fill="#5f5391" data-original="#5f5391"/>
				<path style="fill-rule:evenodd;clip-rule:evenodd;" d="M310.049,305.423c-3.304-2.084-8.221-0.878-13.236-0.649      c-14.564,0.663-29.862,0-45.189,0c-10.149,0-20.544,0.455-30.334,0c-10.296-0.479-20.187-0.175-29.051-0.97      c-2.629-0.234-5.711-0.033-6.131,2.26c-0.944,5.206,7.051,4.79,11.943,4.845c33.454,0.347,64.29,1.612,98.119,1.612      C303.975,312.521,313.569,313.457,310.049,305.423z" fill="#5f5391" data-original="#5f5391"/>
				<path style="fill-rule:evenodd;clip-rule:evenodd;" d="M309.405,314.779c-15.64,0.528-31.429,0.897-46.802,2.26      c-1.77,0.158-4.054-0.179-4.838,1.935c1.069,3.601,7.197,2.766,11.617,2.907c9.262,0.288,18.852,0.045,28.078-0.323      c4.745-0.189,9.524,0.835,12.91-1.291C311.028,318.285,311.429,315.461,309.405,314.779z" fill="#5f5391" data-original="#5f5391"/>
				<path style="fill-rule:evenodd;clip-rule:evenodd;" d="M251.625,318.974c-1.222-2.364-5.234-2.296-8.384-2.579      c-14.699-1.34-31.464-0.326-48.417-0.326c-5.085,0-9.458-0.446-10.329,1.94c-2.081,5.711,8.172,5.347,13.557,5.163      c15.916-0.552,30.69-0.672,46.479-1.937C246.978,321.037,250.431,321.431,251.625,318.974z" fill="#5f5391" data-original="#5f5391"/>
			</g>
		</g>
		<g>
			<path style="fill-rule:evenodd;clip-rule:evenodd;" d="M151.252,480.676c-9.203-1.685-2.504,9.403,0.967,12.587     c3.754,3.443,7.917,5.423,11.294,6.135c3.219,0.675,7.485,0.455,8.068-2.905c0.758-4.288-5.831-7.367-8.707-9.035     C158.676,485.018,155.358,481.429,151.252,480.676z" fill="#ffffff" data-original="#ffffff"/>
			<g>
				<path style="fill-rule:evenodd;clip-rule:evenodd;" d="M362.878,469.954c-5.208-1.383-5.451,11.641-2.256,12.266      C364.827,483.043,367.354,471.14,362.878,469.954z" fill="#ffffff" data-original="#ffffff"/>
			</g>
			<g>
				<path style="fill-rule:evenodd;clip-rule:evenodd;" d="M112.996,145.019c-5.21-1.383-5.456,11.643-2.26,12.266      C114.938,158.108,117.47,146.208,112.996,145.019z" fill="#ffffff" data-original="#ffffff"/>
				<path style="fill-rule:evenodd;clip-rule:evenodd;" d="M104.928,160.189c-1.772,0.777-3.741,2.69-2.584,4.845      c1.853,3.472,5.498-0.564,5.489-3.551C107.833,160.319,106.673,159.306,104.928,160.189z" fill="#ffffff" data-original="#ffffff"/>
			</g>
			<g>
				<path style="fill-rule:evenodd;clip-rule:evenodd;" d="M329.224,203.301c-5.397-0.052-2.407,12.629,0.845,12.44      C334.347,215.499,333.851,203.346,329.224,203.301z" fill="#ffffff" data-original="#ffffff"/>
				<path style="fill-rule:evenodd;clip-rule:evenodd;" d="M325.153,219.996c-1.336,0.968-2.791,3.904-1.303,5.33      c2.526,2.262,4.96-1.828,4.439-4.8C328.058,219.409,326.939,218.708,325.153,219.996z" fill="#ffffff" data-original="#ffffff"/>
			</g>
			<g>
				<path style="fill-rule:evenodd;clip-rule:evenodd;" d="M152.309,359.925c-3.662-4.427-11.695,5.208-8.181,7.761      C147.075,369.824,154.159,363.123,152.309,359.925z" fill="#ffffff" data-original="#ffffff"/>
			</g>
			<g>
				<path style="fill-rule:evenodd;clip-rule:evenodd;" d="M201.405,133.784c-4.513-3.951-10.149,7.792-6.138,9.455      C198.626,144.632,203.814,136.499,201.405,133.784z" fill="#ffffff" data-original="#ffffff"/>
			</g>
			<g>
				<path style="fill-rule:evenodd;clip-rule:evenodd;" d="M399.749,133.463c-4.597-3.448-10.156,7.794-6.142,9.455      C396.969,144.311,401.878,136.213,399.749,133.463z" fill="#ffffff" data-original="#ffffff"/>
			</g>
		</g>
	</g>
	<path style="fill-rule:evenodd;clip-rule:evenodd;" d="M386.17,143.86c-0.786,1.451-0.83,4.727,1.129,5.37   c3.256,0.948,3.683-3.792,1.928-6.247C388.535,142.074,387.223,141.926,386.17,143.86z" fill="#ffffff" data-original="#ffffff"/>
	<path style="fill-rule:evenodd;clip-rule:evenodd;" d="M198.382,147.005c0.09,1.647,1.769,4.461,3.775,3.983   c3.27-0.898,1.15-5.159-1.63-6.331C199.462,144.245,198.266,144.806,198.382,147.005z" fill="#ffffff" data-original="#ffffff"/>
	<path style="fill-rule:evenodd;clip-rule:evenodd;" d="M161.266,355.325c-1.124-4.475-8.543,2.522-5.504,4.643   C157.83,361.411,161.711,357.088,161.266,355.325z" fill="#ffffff" data-original="#ffffff"/>
	<path style="fill-rule:evenodd;clip-rule:evenodd;" d="M146.844,372.014c-5.778-1.186-1.831,11.24,2.298,8.915   C151.95,379.346,149.122,372.479,146.844,372.014z" fill="#ffffff" data-original="#ffffff"/>
	<path style="fill-rule:evenodd;clip-rule:evenodd;" d="M359.824,486.89c-2.207-8.783-16.769,4.949-10.803,9.114   C353.079,498.837,360.697,490.352,359.824,486.89z" fill="#ffffff" data-original="#ffffff"/>
</g>















</g></svg>