<svg xmlns="http://www.w3.org/2000/svg" version="1.1" xmlns:xlink="http://www.w3.org/1999/xlink" xmlns:svgjs="http://svgjs.com/svgjs" width="512" height="512" x="0" y="0" viewBox="0 0 512 512" style="enable-background:new 0 0 512 512" xml:space="preserve"><g>
<g xmlns="http://www.w3.org/2000/svg">
	<g>
		<g>
			<path style="fill-rule:evenodd;clip-rule:evenodd;" d="M81.465,119.193c4.573-1.689,7.804-1.492,10.78-3.748     c3.744-2.851,4.322-8.139,7.08-10.804c3.893-3.781,11.013-4.901,10.918-11.636c-7.177-4.368-11.102,4.892-15.136,7.724     c-1.713,1.2-3.715,1.32-4.894,2.277c-3.838,3.143-3.362,9.534-8.09,11.126c-0.907-3.698,0.374-8.721,0.907-12.613     c3.592-2.373,7.718-2.973,10.584-5.553c2.85-2.564,3.441-7.629,5.611-10.721c2.494-3.556,7.206-5.672,5.146-9.826     c-3.365-2.633-7.42,1.426-9.313,3.66c-2.643,3.106-4.141,8.159-5.948,10.827c-2.411,1.299-3.783,3.143-5.614,4.743     c0.46-3.914-0.005-6.471,1.077-9.674c1.286-3.819,4.9-6.084,5.82-10.04c0.442-1.867,0.089-3.892,0.34-6.084     c0.209-1.765,0.769-3.599,1.234-5.612c0.267-1.169,1.951-10.938-2.62-10.762c-3.347,0.131-4.086,9.918-4.612,11.529     c-0.91,2.792-3.373,5.709-4.335,8.825c-2.364,7.683,2.005,15.914-0.538,23.33c-1.263-3.288-4.293-4.421-5.831-7.888     c-0.97-2.186-0.837-5.373-2.107-7.931c-1.728-3.471-5.53-6.301-8.257-4.887c-4.722,2.45,2.202,8.496,3.511,11.228     c1.232,2.549,1.232,6.913,3.088,9.863c2.228,3.536,6.406,4.836,7.3,7.802c1.2,3.953-1.992,8.263-0.996,11.147     c-2.194-4.088-6.288-5.174-8.171-9.398c-0.769-1.73-0.554-3.999-1.574-6.232c-1.652-3.592-4.351-4.032-6.746-7.228     c-2.625-3.502-4.165-9.18-8.314-7.482c-6.207,2.535,3.535,11.581,4.894,15.65c1.088,3.252,0.162,6.684,1.618,9.952     c2.173,4.884,7.982,5.616,11.998,9.695c1.838,1.858,4.304,5.305,5.153,8.098c1.237,4.066-0.667,9.656,0.196,13.756     c-1.705-3.739-6.51-5.089-8.973-8.394c-1.741-2.318-2.447-5.578-4.366-7.972c-2.084-2.59-5.906-4.113-7.765-6.908     c-1.613-2.408-1.694-5.64-3.007-8.401c-1.919-4.05-6.16-8.559-11.374-6.522c-3.378,4.451,3.289,10.226,5.679,15.774     c1.221,2.824,1.715,6.194,3.347,8.294c2.568,3.311,6.856,3.236,8.571,5.91c1.848,4.383,1.218,6.865,2.975,9.525     c3.645,5.51,12.613,3.475,14.966,8.392c0.978,2.068,0.282,4.904,0.424,7.338c0.138,2.572,0.512,4.836,0.878,7.571     c-3.07-4.019-8.544-4.93-11.792-9.01c-2.175-2.745-2.662-6.016-5.255-8.441c-2.602-2.436-7.739-3.215-10.043-5.82     c-0.986-1.127-1.221-3.038-2.724-5.127c-1.765-2.481-5.179-4.175-7.888-6.119c-2.85-2.039-5.956-5.455-8.827-4.339     c-1.328,0.518-3.255,3.539-2.936,6.151c1.226,9.944,12.388,9.588,16.508,15.752c1.953,2.906,2.92,7.607,4.348,9.096     c2.536,2.66,10.673,2.114,13.627,6.572c2.481,3.731,3.292,8.564,6.003,10.819c2.75,2.285,8.978,2.581,10.618,5.267     c1.775,2.928,1.001,8.982,2.364,12.334c-1.854-0.916-2.962-2.281-4.782-3.358c-3.912-2.298-9.47-3.425-13.295-6.672     c-2.557-2.166-3.979-6.124-7.067-8.246c-1.412-0.978-3.765-1.493-5.82-1.914c-1.987-0.399-4.675-0.204-6.301-1.016     c-2.526-1.259-3.467-4.633-5.404-6.527c-2.784-2.727-7.852-5.67-11.766-4.161c-1.922,0.742-3.786,3.482-3.376,5.91     c1.062,6.151,8.605,7.257,12.639,11.736c2.777,3.082,5.569,9.458,9.143,11.33c3.877,2.028,8.986,0.51,13.036,2.27     c4.257,1.848,6.733,6.815,10.9,8.544c5.569,2.318,11.151-0.319,15.138,4.228c2.528,8.478,4.735,15.136,7.454,23.811     c-3.574-2.311-8.981-3.199-12.404-6.2c-3.953-3.476-5.342-7.904-9.507-10.1c-1.404-0.736-3.47-1.477-5.049-1.78     c-2.96-0.584-6.353,0.499-9.904-0.637c-3.744-1.198-5.606-5.555-9.104-7.61c-3.498-2.054-8.121-1.294-12.121-2.931     c-4.602-1.876-8.599-9.032-14.652-6.245c-4.908,2.256-1.94,8.479,2.385,11.203c3.655,2.308,9.256,2.995,12.974,5.653     c4.688,3.365,8.382,10.292,14.443,11.545c3.548,0.731,8.095-0.523,11.486,0.886c3.428,1.424,5.624,5.946,8.636,8.503     c2.011,1.706,4.714,3.289,7.593,3.977c7.454,1.778,14.045-0.613,19.311,4.413c2.379,6.516,4.934,12.673,7.663,18.52     c-4.573-2.743-10.262-2.369-15.481-4.123c-4.508-1.51-7.807-6.125-12.017-8.566c-4.246-2.45-9.266-1.846-14.699-3.991     c-4.089-1.608-7.53-5.995-12.276-6.989c-3.143-0.663-8.029,0.169-11.716-0.443c-6.432-1.06-9.47-7.556-15.212-6.819     c-9.125,1.17-5.25,9.777-0.57,12.504c4.785,2.786,12.482,2.416,18.036,6.308c4.552,3.187,8.435,9.384,13.664,11.414     c4.866,1.89,13.426-0.378,18.794,1.588c4.821,1.76,7.917,6.6,12.937,7.906c4.502,1.162,10.652-0.775,15.222-0.288     c3.122,0.34,6.034,2.207,8.618,3.655c3.883,8.348,7.846,16.539,11.836,24.684c-2.424,0.148-4.908,0.055-7.208-0.356     c-2.086-0.371-4.876-1.082-6.725-2.38c-3.375-2.364-5.219-6.427-8.973-8.394c-4.67-2.445-10.62-1.658-15.614-3.332     c-5.653-1.896-9.763-7.206-15.293-8.288c-4.955-0.973-10.576,0.682-15.552-0.736c-3.088-0.885-6.157-4.844-9.012-6.146     c-1.786-0.812-6.834-1.005-9.439-1.526c-2.416-0.482-5.025-1.68-7.514-2.507c-1.553-0.514-5.553-2.001-8.675-0.271     c-1.538,0.85-2.693,3.649-2.573,4.91c0.905,9.305,16.006,8.535,20.995,10.986c6.048,2.972,10.168,9.87,17.382,11.37     c5.527,1.156,11.998-1.263,18.239,1.014c5.347,1.949,8.662,7.716,13.917,9.84c3.527,1.429,10.464,0.165,14.519,1.059     c5.841,1.282,9.841,6.943,15.75,8.522c3.106,0.829,8.278,0.722,11.541-2.493c4.4,6.624,8.136,14.532,12.581,21.087     c-4.092-0.277-7.24-0.217-10.809-1.1c-7.554-1.866-13.28-8.952-20.88-10.648c-3.815-0.842-8.053-0.106-11.938-1.119     c-4.984-1.303-8.503-6.093-13.507-7.352c-3.645-0.915-7.872,0.005-11.483-0.888c-4.058-1.009-7.69-4.791-11.844-5.628     c-1.875-0.383-6.364,0.574-9.595,0.383c-6.079-0.365-11.018-6.361-16.843-3.694c-2.651,1.217-3.101,3.698-2.703,5.701     c1.566,7.679,15.042,6.625,20.791,10.304c5.961,3.825,8.822,9.747,16.932,11.134c6.333,1.089,12.55-1.085,18.689,1.251     c4.186,1.588,9.75,7.237,13.612,7.692c4.22,0.501,8.461-1.527,11.975-1.131c7.041,0.791,12.372,7.206,19.803,8.369     c4.419,0.693,8.314-0.937,14.352-1.876c6.419,9.3,12.275,19.676,18.514,29.319c-4.487-1.109-6.176-4.542-10.824-5.951     c-4.91-1.492-10.443-0.23-14.615-2.526c-3.247-1.786-4.798-5.051-7.42-7.014c-1.558-1.169-3.812-2.544-5.807-3.041     c-4.243-1.051-8.448,1.05-13.201,0.769c-4.445-0.256-7.737-4.051-11.64-4.948c-4.976-1.142-10.15,0.289-14.636-1.395     c-2.039-0.767-3.812-2.084-5.574-3.486c-1.663-1.327-3.258-3.229-5.334-3.932c-2.824-0.957-6.91,0.212-9.8-0.294     c-5.028-0.876-12.309-10.082-18.231-2.139c-0.005,9.696,12.296,7.598,17.939,11.943c3.864,2.984,6.646,9.631,11.06,11.478     c4.476,1.873,10.636,0.008,15.081,1.629c6.479,2.375,9.902,8.565,16.158,9.887c4.962,1.047,10.464-2.845,15.698-1.178     c4.411,1.4,8.121,8.138,13.256,8.925c4.965,0.764,10.205-2.199,15.693-1.176c6.348,1.187,9.951,6.177,17.991,2.587     c4.678,7.548,9.185,15.425,13.19,24.261c-4.194,0.128-8.476,0.576-12.843-0.462c-5.015-1.199-9.852-5.62-15.424-7.5     c-6.283-2.131-13.496-1.396-18.99-3.395c-3.849-1.405-7.229-5.36-11.274-6.186c-3.017-0.617-8.053,0.748-11.502,0.238     c-6.424-0.949-14.064-8.467-20.802-9.178c-3.731-0.392-8.558,1-8.631,3.45c-0.152,4.667,9.619,5.977,13.35,9.269     c5.938,5.229,6.908,11.477,14.302,13.456c5.083,1.358,10.228-0.369,15.656,1.074c6.926,1.841,13.073,8.498,18.433,8.797     c4.957,0.278,10.945-3.247,16.059-2.411c8.89,1.458,15.504,10.964,26.433,3.31c9.888,21.829,14.03,46.85,21.591,70.189     c2.614-0.461,5.177-0.821,8.037-1.767c-5.58-23.567-11.138-49.618-21.102-72.212c0.614-2.239,2.8-3.672,3.828-5.68     c2.34-4.572,1.908-11.657,5.582-15.567c4.887-5.196,10.96-7.033,13.439-13.171c2.217-5.498,0.798-14.001,3.655-20.566     c2.858-6.588,10.341-10.898,13.967-17.446c1.956-3.555,2.588-7.776,3.028-11.781c0.591-5.361-0.036-11.596,1.888-16.647     c1.213-3.203,3.964-6.732,6.058-10.49c1.639-2.957,4.63-7.83,2.032-12.591c-0.628-1.148-2.709-2.905-4.91-2.57     c-7.634,1.156-9.975,14.872-11.418,19.632c-1.237,4.085-2.91,7.858-4.581,10.405c-2.136,3.23-5.138,5.637-6.931,8.887     c-3.331,6.027-1.783,15.294-4.57,21.227c-2.212,4.717-7.974,8.049-10.714,12.318c-3.321,5.184-2.641,12.317-5.172,18.056     c-1.872,4.233-6.176,7.352-7.441,12.039c-1.412,5.215,0.79,9.882-1.637,15.078c-5.475-10.007-10.67-20.549-16.702-29.512     c0.761-3.53,1.119-7.078,2.782-10.207c2.364-4.456,7.384-8.433,9.264-13.355c1.984-5.176,1.942-11.077,4.568-15.252     c2.965-4.714,8.782-7.346,11.499-12.188c3.378-6.011,1.731-15.291,5.799-20.864c3.112-4.267,8.393-6.802,11.93-10.834     c1.645-1.879,3.514-4.692,4.521-7.018c2.102-4.844,1.595-11.062,2.779-16.186c1.158-5.004,4.79-10.108,7.496-15.416     c2.578-5.038,5.564-11.325,0.999-17.123c-7.112-0.374-9.491,5.931-11.583,10.721c-2.126,4.855-3.666,10.729-6.246,14.655     c-3.088,4.685-9.164,8.467-11.522,13.321c-1.448,2.971-1.205,6.727-2.546,9.759c-2.314,5.195-8.215,8.472-11.076,13.551     c-2.497,4.424-2.902,10.176-4.905,15.357c-2.384,6.147-8.769,10.732-9.904,17.293c-0.531,3.04,0.345,6.146,0.172,8.909     c-0.601,9.469-7.906,15.436-9.603,25.418c-3.47-5.885-7.187-11.268-10.615-17.22c-1.286-1.105,1.493-2.149,1.524-3.468     c3.203-5.529,1.098-11.877,3.932-17.29c1.318-2.519,4.141-4.045,5.423-6.55c2.429-4.776,0.931-11.802,2.798-17.314     c1.767-5.233,7.18-8.929,9.731-14.255c1.974-4.108,1.671-8.925,3.289-13.354c2.447-6.699,8.623-10.104,11.802-16.02     c1.72-3.21,2.601-7.194,3.017-10.657c0.429-3.625-0.225-7.516,0.884-11.484c1.237-4.45,4.876-6.96,5.972-11.95     c0.612-2.804,0.089-9.236-3.43-9.763c-4.489-0.664-8.675,6.134-10.098,9.513c-2.021,4.795-2.196,9.288-4.293,12.549     c-1.71,2.677-4.698,4.634-6.332,7.208c-2.677,4.242-2.968,9.826-5.778,13.763c-1.726,2.421-4.366,3.94-5.867,6.321     c-3.347,5.323-1.802,11.827-4.262,17.396c-2.186,4.925-6.743,8.979-8.165,14.506c-1.174,4.573-0.343,9.541-1.271,13.847     c-0.871,4.06-3.726,7.4-4.612,11.526c-1.232,5.764,0.745,10.665,0.476,17.038c-6.46-9.764-12.558-20.221-18.598-30.789     c10.427-3.588,8.453-16.267,11.389-24.48c2.379-6.632,9.36-9.873,12.116-14.999c3.007-5.594,1.608-15.361,5.454-20.756     c3.221-4.521,9.585-8.618,11.883-14.552c1.917-4.938,1.033-9.895,3.017-16.631c2.178-7.412,6.764-11.142,6.048-16.463     c-0.505-3.802-3.349-8.007-5.721-7.55c-3.786,0.737-4.717,10.083-7.344,13.51c-1.584,2.045-4.581,3.766-5.744,5.526     c-3.059,4.619-2.795,11.007-6.275,15.788c-1.467,2.024-3.88,3.49-5.632,5.868c-3.493,4.761-3.174,11.508-6.05,16.467     c-2.638,4.542-6.683,6.866-8.207,10.782c-1.407,3.64,0.05,9.24-0.926,13.74c-0.912,4.157-5.206,7.25-6.314,12.061     c-1.174,5.101,0.123,9.184-1.501,14.288c-4.926-7.802-9.002-17.226-13.387-26.065c0.714-2.775,2.622-3.73,3.608-6.36     c2.081-5.532,0.737-13.044,3.378-17.865c1.475-2.685,4.743-4.228,6.44-6.871c2.173-3.387,1.362-8.351,3.271-12.232     c2.131-4.351,7.669-6.966,9.562-11.205c2.188-4.887,1.462-12.009,3.051-18.889c1.611-6.944,5.988-11.593,6.735-16.674     c0.39-2.656-0.91-16.477-6.024-15.672c-3.211,0.51-3.791,6.883-5.14,9.828c-1.142,2.517-3.694,5.7-4.445,8.486     c-1.114,4.174-0.51,8.348-2.246,11.912c-1.103,2.271-4.293,4.659-5.781,7.785c-1.903,4.015-2.254,8.997-4.162,11.762     c-2.74,3.964-7.684,6.312-8.333,11.572c-0.46,3.786,0.944,7.428,0.709,10.613c-0.544,7.538-8.063,12.617-6.029,21.309     c-4.471-7.774-7.917-17.493-11.682-26.598c5.755-5.611,9.188-11.043,9.935-19.547c0.319-3.59-0.12-7.42,1.318-10.124     c1.349-2.549,6.468-5.3,8.605-8.295c2.988-4.186,1.885-11.589,4.055-18.081c2.745-8.165,11.452-13.69,9.988-21.799     c-0.612-3.391-2.866-5.475-3.958-5.487c-4.419-0.052-5.412,6.146-8.966,9.532c-2.131,2.028-5.336,3.173-6.403,4.619     c-1.438,1.953-1.652,6.284-2.651,9.42c-1.409,4.391-4.68,7.951-5.844,11.166c-1.271,3.526-0.978,8.537-1.676,11.359     c-1.49,6.003-7.072,10.198-8.197,16.756c-0.51,2.944-0.092,5.858,0.039,9.699c-4.1-10.487-7.697-23.184-10.2-33.786     c2.758-2.684,4.542-3.548,6.1-6.762c1.924-3.974,0.68-10.256,3.184-13.695c1.574-2.161,5.517-3.096,7.656-5.386     c3.72-4,2.651-11.622,5.59-15.568c1.794-2.429,5.739-4.474,7.692-7.639c2.032-3.296,3.561-7.6-0.235-11.505     c-4.042-0.745-6.291,3.992-9.36,5.917c-1.864,1.171-3.906,1.526-5.464,2.832c-3.093,2.586-2.337,7.061-4.931,10.504     c-2.018,2.688-5.781,4.262-6.777,6.98c-1.109,3.017,0.026,6.678-0.633,9.911c-0.902,4.399-3.624,6.852-5.271,10.616     c-1.655-10.073-2.379-19.643-2.74-29.03c5.82-0.514,6.649-5.663,10.657-8.936c2.876-2.348,6.871-3.288,9.12-5.468     c3.527-3.419,3.062-7.922,6.863-11.482c3.051-2.866,11.831-6.304,9.012-11.788c-1.637-3.183-6.197-1.132-8.699,0.854     c-2.45,1.95-4.468,5.17-6.212,6.425c-1.417,1.028-4.251,1.63-5.561,2.49c-2.541,1.663-2.928,6.252-6.144,9.018     c-1.574,1.353-3.875,1.6-5.464,2.83c-2.113,1.637-2.787,4.62-4.06,6.126C81.481,130.395,81.172,124.633,81.465,119.193z" fill="#a4b700" data-original="#a4b700"/>
			<g>
				<g>
					<g>
						<path style="fill-rule:evenodd;clip-rule:evenodd;" d="M314.051,91.428c0.805-5.132,2.212-21.714-5.998-21.139        c-5.336,0.377-6.861,5.3-9.426,8.385c-0.021-6.296-1.114-13.314-5.909-12.791c-5.938,0.648-9.216,11.537-10.44,15.524        c-0.884,2.885-1.851,5.638-2.735,9.154c-0.648,2.606-2.285,8.26-1.83,9.656c0.601,1.837,5.444,4.557,7.838,6.151        c16.807,11.149,33.582,19.034,51.204,28.869c2.735,1.523,7.033,4.24,8.748,3.991c2.97-0.425,7.729-5.799,10.479-8.684        c2.784-2.914,6.759-7.343,8.22-9.945c1.935-3.434,5.58-12.305,1.741-15.34c-4.62-3.649-13.653,4.651-17.272,7.564        c-0.324-2.263,1.501-5.04,2.228-8.246c0.701-3.071,1.681-7.471,1.182-10.611c-2.259-14.142-16.025,1.09-18.422,4.844        c0.716-4.406,3.237-22.655-6.604-20.587C320.82,79.533,317.478,87.501,314.051,91.428z" fill="#d33400" data-original="#d33400"/>
						<path style="fill-rule:evenodd;clip-rule:evenodd;" d="M269.969,99.748c0.8,1.562,2.588,2.503,4.016,3.429        c22.836,14.797,47.758,29.163,72.314,41.537c3.2-8.657,4.126-17.65,0.957-28.823c-6.445-22.717-28.026-35.908-51.45-31.086        C284.103,87.216,276.539,93.568,269.969,99.748z" fill="#ffbe49" data-original="#ffbe49"/>
						<g>
							<path style="fill-rule:evenodd;clip-rule:evenodd;" d="M314.71,115.226c0.319-4.724,4.12-16.664-2.876-20.884         c-5.517,0.093-7.932,3.637-10.351,6.544c-0.184,0.221-0.269,1.437-0.269,1.437s-0.668-0.356-0.863-0.151         c0.091-1.836-0.987-5.241-0.987-5.241l-0.695-7.281c-0.6-0.905-1.378-1.592-2.42-1.925c-4.27-1.367-7.763,2.826-10.22,5.565         c0.748-6.358-2.086-14.252-7.368-13.9c-5.245,0.35-8.999,7.028-10.686,10.649c-5.852,12.554-8.056,37.339-3.828,56.283         c3.504,15.704,11.726,26.66,21.876,31.482c7.222,3.434,17.371,3.417,28.07-0.35c12.356-4.351,23.165-12.857,32.489-21.017         c5.323-4.657,8.612-7.318,12.848-12.401c3.017-3.617,8.445-10.435,6.521-15.937c-1.909-5.458-9.07-4.378-13.883-0.63         c-0.262-3.196,1.71-5.546-0.285-9.057c-4.013-7.067-15.486,3.773-18.422,7.516c-0.225,0.254-0.254,0.454-0.607,0.55         c0.103-0.502,0.245-1.117,0.389-1.72l-0.842-1.57l2.227-5.227c0.618-4.569,0.254-9.161-3.899-11.055         C324.729,104.215,318.077,111.607,314.71,115.226z" fill="#ff4f00" data-original="#ff4f00"/>
							<path style="" d="M290.791,157.039c-3.059,6.052-5.742,12.315-9.36,18.051c-1.075-0.761-2.118-1.596-3.13-2.506         c6.544-10.894,12.048-21.82,15.541-34.306c4.152-14.829,6.22-30.684,4.824-48.633c2.128,3.203,1.843,9.212,1.684,12.526         c0.382-0.404,0.758-0.838,1.132-1.286c0.4,19.332-5.321,35.545-8.976,51.474c18.835-8.633,33.801-19.941,42.022-34.418         c-0.324,2.446-0.92,4.858-1.386,6.82c-2.348,3.254-5.124,6.189-8.158,9.246C316.001,143.081,304.424,150.997,290.791,157.039         z" fill="#d33400" data-original="#d33400"/>
						</g>
					</g>
					<g>
						<path style="fill-rule:evenodd;clip-rule:evenodd;" d="M295.367,205.525l-1.579,5.411l-3.216,0.368        c-5.201,6.036-10.982,11.611-16.67,17.48l-1.679,3.818l-1.887-0.159c-1.798,1.826-3.654,3.754-5.088,5.782        c-3.93,5.573-5.823,11.856-6.735,18.754c-0.91,6.887-1.13,14.474-4.298,21.429c-3.344,7.362-8.658,12.54-13.053,18.443        l-0.354,6.134l-3.086-0.844c-1.858,3.346-3.281,7.08-3.845,11.623c-1.339,10.809,2.016,18.175-0.904,27.454        c-1.611,5.109-4.685,9.71-6.916,14.71c-3.482,7.822-5.885,15.99-5.715,28.333c0.118,8.403,1.791,17.03,4.003,24.382        c0.635,2.115,1.443,4.644,3.004,6.373c-0.217-1.859-0.647-8.452-0.647-8.452l2.36-0.625c1.291-7.177,2.408-13.981,3.689-20.37        c4.63-23.134,16.516-40.705,30.05-55.066c5.001-5.311,9.705-10.722,11.885-19.216l-1.419-3.077l2.597-7.45        c-0.099-4.303-0.714-8.379-0.432-13.301c0.719-12.574,7.292-20.224,13.031-27.993c1.651-2.242,3.795-4.452,5.22-7.264        l-1.478-2.811l4.51-8.847C297.68,229.615,294.763,217.721,295.367,205.525z" fill="#7a8900" data-original="#7a8900"/>
						<path style="" d="M232.243,356.946c4.379-11.105,11.25-21.312,12.856-32.03c0.235-1.595,0.429-5.213,0.303-6.587        c-0.424-4.502-5.015-7.47-6.774-12.047c-0.442-1.132-0.709-2.599-0.913-4.139c1.038-1.864,2.196-3.616,3.454-5.297        c0.437,2.522,0.74,5.028,1.584,7.431c1.244,3.531,4.808,6.452,6.126,10.181c0.677,1.926,0.261,3.59,1.203,5.558        c4.769-8.146,7.574-18.025,9.412-28.898c0.876-5.211,2.17-10.549,3.655-15.596c1.472-4.985,3.734-10.001,4.353-14.83        c0.745-5.751-1.786-11.545-0.662-17.261c0.737-3.776,2.813-7.006,3.415-10.473c0.032-0.172,0.052-0.345,0.078-0.516        c0.769-0.783,1.532-1.556,2.256-2.309c0.437-0.455,0.871-0.9,1.31-1.35c-0.784,9.3-4.947,18.222-2.113,26.608        c7.514-13.041,15.044-26.856,18.783-44.088c1.524-1.762,2.996-3.558,4.408-5.429c0.026-0.221,0.073-0.431,0.387-0.349        c-0.021,0.297-0.016,0.588-0.026,0.882c-0.204,3.884-0.9,7.639-1.634,11.141c-3.799,17.991-12.95,31.019-20.033,44.53        c9.917-4.721,16.971-12.59,23.04-21.534c-0.335,3.836-1.14,7.551-2.753,11.112c-0.097,0.201-0.204,0.39-0.298,0.586        c-2.866,3.42-6.139,6.194-10.04,8.832c-2.834,1.914-5.993,3.39-8.686,5.464c-6.958,5.346-8.602,14.779-10.286,24.086        c-1.765,9.793-3.587,18.696-7.838,26.768c3.315-1.964,6.798-2.348,9.731-4.317c4.285-2.877,6.848-7.52,9.318-12.316        c0.039,1.626,0.01,3.284-0.183,5.042c-0.214,1.978-0.562,3.796-0.999,5.501c-2.866,4.192-6.259,6.868-11.768,8.939        c-3.974,1.492-8.505,3.02-10.921,6.093c-2.547,3.249-4.142,8.597-6.474,13.262c-6.353,12.69-14.119,27.745-15.627,44.371        c-0.682,7.536-0.795,14.91-0.829,21.97c-0.528,2.952-1.09,5.97-1.712,9.077c-0.016-0.02-0.026-0.044-0.039-0.063        c-1.762-6.753-2.233-13.482-2.335-19.845C224.773,382.32,227.586,368.752,232.243,356.946z" fill="#a4b700" data-original="#a4b700"/>
					</g>
					<g>
						<path style="fill-rule:evenodd;clip-rule:evenodd;" d="M395.981,233.658c0.084-0.307-0.126-0.354-0.35-0.383        c-11.755,5.274-25.811,5.908-39.224,7.713c-13.158,1.771-24.299,5.937-33.255,12.515l-2.541,4.616l-2.561-0.37        c-6.886,6.455-12.175,14.683-15.627,24.73c-4.013,11.683-5.564,25.317-12.691,36.442        c-6.173,9.635-15.371,16.408-24.214,24.172c-3.47,3.043-6.765,6.242-9.811,9.676l-1.747,5.355l-2.53-0.121        c-2.732,3.643-5.199,7.574-7.326,11.962c-8.947,18.454-12.121,49.137-7.786,72.964c0.562,3.063,0.967,6.31,2.907,8.569        c3.354-0.469,3.849-4.339,5.057-6.364c4.149-6.965,9.729-12.877,13.078-21.026c5.156-12.554,5.004-31.42,13.69-42.26        c7.201-8.986,20.336-14.24,30.648-20.577c8.774-5.389,15.912-11.032,22.172-19.501c1.476-1.999,2.848-4.131,4.063-6.24        l-0.851-2.7l4.633-4.948c2.049-4.897,3.628-10.165,4.904-15.952c2.709-12.275,3.891-22.913,10.291-32.157        c3.019-4.361,6.694-8.332,10.636-12.028l0.942-2.741c0,0,3.157-0.951,3.921-1.6c2.745-2.334,5.55-4.563,8.304-6.722        C379.86,249.516,389.67,244.021,395.981,233.658z" fill="#7a8900" data-original="#7a8900"/>
						<path style="" d="M248.252,399.12c1.103-9.296-1.412-18.141-0.209-27.141c0.507-3.783,2.233-8.287,3.153-12.686        c0.094-0.416,0.162-0.85,0.235-1.292c1.36-1.818,2.792-3.557,4.277-5.233c-0.622,8.426-3.762,16.088-4.228,24.137        c-0.327,5.731,1.114,11.494,0.662,17.263c-0.209,2.83-1.375,5.72-1.119,8.381c9.925-16.078,11.008-31.686,19.353-45.665        c8.061-13.499,21.288-21.079,31.208-32.65c5.804-6.765,13.915-17.873,13.85-29.788c-0.034-6.465-3.564-11.613-3.158-18.845        c0.322-5.769,3.286-10.206,5.122-15.528c0.248-0.72,0.455-1.516,0.654-2.328c1.611-1.511,3.31-2.932,5.109-4.249        c-1.297,9.173-7.256,16.312-6.641,25.602c0.392,6.135,3.415,11.865,2.766,19.194c6.897-19.458,13.436-36.036,29.945-44.808        c13.452-7.143,30.944-8.594,42.074-18.509c1.472-0.507,2.921-1.072,4.327-1.702c0.167,0.021,0.324,0.054,0.361,0.195        c-5.056,7.336-12.921,11.776-21.591,14.951c-10.084,3.687-21.359,6.186-28.468,12.978c5.49-0.814,11.044,1.246,16.43,2.066        c-1.632,1.39-3.247,2.812-4.816,4.281c-3.734-0.654-7.619-1.701-11.107-1.557c-8.767,0.367-10.686,5.143-14.114,11.811        c-6.116,11.916-10.098,25.475-16.31,35.539c-9.496,15.384-23.121,23.048-32.782,34.775c6.521-5.186,15.382-6.781,24.242-8.775        c8.584-1.93,16.958-5.072,22.841-10.304c0.439-0.392,0.92-0.88,1.422-1.418c-1.119,2.675-2.374,5.236-3.807,7.713        c-1.977,1.301-4.157,2.454-6.505,3.556c-6.123,2.879-13.057,4.538-19.709,6.054c-10.202,2.32-19.086,6.635-25.555,13.478        c-1.972,2.08-5.538,6.114-6.249,8.146c-4.481,12.818-8.388,24.84-14.153,36.37c-3.033,6.064-5.613,11.44-7.781,17.606        c-2.536,7.224-2.926,16.858-4.16,25.308c-0.933,2.098-1.7,5.045-4.596,5.449c-0.408-0.469-0.727-0.987-1.014-1.531        c0.703-13.45,3.545-25.47,6.45-36.717C245.923,408.394,247.698,403.808,248.252,399.12z" fill="#a4b700" data-original="#a4b700"/>
					</g>
					<g>
						<path style="fill-rule:evenodd;clip-rule:evenodd;" d="M245.214,464.605c-0.021,1.524,0.158-0.596,0.652-0.648        c1.239-1.878,1.118-5.251,2.645-6.747c1.106-1.083,5.138-0.621,5.138-0.621c3.716-2.748,8.134-4.941,13.151-6.746        c4.848-1.747,10.362-3.138,14.919-5.54c8.063-4.254,13.753-13.553,21.68-16.96c13.559-5.82,26.956,3.036,40.176,3.328        c2.854,0.063,5.259-0.428,7.384-1.266l0.228-2.907l5.586-0.514c5.771-4.412,10.377-10.288,20.118-9.9        c18.982,0.758,24.368,22.318,44.009,23.308c1.809-0.46-1.075-1.46-1.112-1.496l-5.029-2.716l1.127-2.962        c-0.423-0.607-0.841-1.265-1.163-1.911c-5.14-10.274-5.407-23.933-13.156-32.507c-0.419-0.464-0.876-0.926-1.358-1.393        l-4.766-0.831l0.675-2.557c-3.847-2.715-8.575-4.887-13.518-5.266c-10.312-0.788-17.915,6.393-26.434,8.673        c-5.265,1.412-11.169-0.226-16.464-1.902l-2.768,0.76l-0.577-1.824c-0.195-0.061-0.388-0.12-0.579-0.179        c-12.817-3.917-27.526-4.063-36.853,4.156c-5.217,4.596-8.762,11.547-13.902,16.552l-3.071,4.793l-2.582-0.444        c-3.083,1.946-6.449,3.689-9.543,5.615C257.035,431.915,246.354,443.494,245.214,464.605z" fill="#7a8900" data-original="#7a8900"/>
						<path style="" d="M245.533,460.822c0.005-0.043,0.01-0.084,0.01-0.129c0.065-0.567,0.167-1.101,0.246-1.654        c0.146-0.814,0.308-1.631,0.533-2.447c2.277-8.403,10.594-14.324,16.26-18.677c6.748-5.18,12.6-10.023,16.244-18.31        c0.183-0.416,0.361-0.839,0.539-1.263c1.286-0.813,2.526-1.656,3.679-2.574c0.688-0.552,1.341-1.156,1.979-1.778        c-1.639,5.415-3.592,10.483-6.599,14.397c0.366,0.017,0.45-0.28,0.753-0.335c3.739-2.048,7.284-4.725,11.01-8.286        c3.004-2.871,6.51-6.487,9.938-8.707c8.91-5.762,23.264-4.996,30.978-11.762c2.003-1.76,3.634-3.83,5.255-5.838        c1.077,0.337,2.196,0.701,3.344,1.065c-2.544,2.951-4.586,6.407-7.69,8.848c-3.582,2.819-7.543,4.003-12.728,5.642        c7.619,0.303,13.564,2.118,20.054,2.398c10.712,0.461,20.566-5.216,28.975-8.19c3.42-1.207,7.044-1.314,10.014-2.468        c1.888-0.728,4.277-2.282,6.395-3.369c3.603-1.859,7.138-3.52,11.394-4.365c1.524,1.075,2.902,2.23,4.1,3.396        c-5.82,1.014-11.562,2.116-15.682,4.991c5.376,1.088,9.25,3.718,12.15,6.798c5.661,6.018,9.209,13.998,14.833,20.119        c1.401,1.528,2.845,2.777,4.356,3.876c1.36,1.958,3.111,3.726,4.377,5.33c0.036,0.035,2.458,1.402,0.648,1.862        c-0.089-0.004-0.183-0.018-0.272-0.024c-3.049-0.976-5.695-2.76-7.954-4.391c-3.493-2.523-6.931-6.058-9.82-9.622        c-6.683-8.252-12.495-22.632-28.436-19.283c-11.29,2.37-20.341,9.846-34.531,9.396c4.709,4.347,9.841,8.301,16.898,10.505        c-1.768,1.349-3.634,2.562-5.796,3.42c-4.63-1.788-8.756-5.01-11.774-7.354c-5.177-4.023-11.813-8.046-19.751-8.986        c-5.315-0.627-12.302-0.437-16.579,1.799c-4.657,2.434-8.144,7.422-11.873,10.814c-2.954,2.697-6.032,5.327-9.517,7.624        c-6.662,4.39-14.558,8.014-20.42,13.353c-3.305,3.02-5.449,6.335-7.425,9.945c-2.994,2.224-5.585,4.836-7.702,8.05        c-0.353,0.038-0.58,0.761-0.677,0.634c-0.01-0.606,0.021-1.239,0.05-1.872C245.376,462.533,245.436,461.658,245.533,460.822z" fill="#a4b700" data-original="#a4b700"/>
					</g>
					<path style="fill-rule:evenodd;clip-rule:evenodd;" d="M258.467,147.35c-2.021,5.896,1.428,11.747,4.008,16.319       c3.969,7.049,9.449,12.618,16.064,17.246c-5.898,18.282-17.962,29.502-29.788,41.512       c-12.184,12.371-21.641,24.585-22.446,49.188c-0.361,10.78-0.659,19.845-3.174,28.817c-2.228,7.935-5.716,15.464-8.44,23.807       c-5.457,16.763-8.984,34.961-7.334,55.387c1.508,18.584,7.512,33.203,13.933,47.574c6.361,14.278,12.989,28.575,13.936,47.208       c4.047-0.064,6.913,0.941,10.96,0.876c0.246-28.575-15.254-47.75-22.721-71.446c-4.021-12.774-6.369-25.7-5.433-40.949       c0.907-14.648,4.076-27.418,8.505-41.033c3.851-11.842,8.458-24.381,9.198-40.271c0.4-8.521,0.201-15.876,1.438-23.031       c3.454-19.994,18.802-30.085,29.49-42.996c7.473-9.016,13.418-18.539,17.225-31.463c6.442,3.164,16.718,5.981,27.252,5.296       c2.847-0.186,6.058,0.021,7.457-2.588c-0.476-3.576-4.698-4.663-8.16-5.878c-5.321-1.86-11.81-3.45-18.94-2.713       c2.081-2.756,5.794-5.823,8.871-9.486c2.633-3.131,6.868-7.6,4.254-12.635c-5.088-1.296-8.087,2.815-10.882,5.361       c-3.017,2.748-6.068,5.766-8.474,8.772c0-8.525,1.498-18.417-4.887-21.123c-4.134,3.143-3.187,12.616-3.441,18.905       c-3.417-5.241-8.293-16.135-14.832-20.121C261.388,147.451,260.18,146.538,258.467,147.35z" fill="#7a8900" data-original="#7a8900"/>
				</g>
				<g>
					<g>
						<path style="fill-rule:evenodd;clip-rule:evenodd;" d="M273.208,90.627c-3.24,1.795-2.947,9.232,0.039,9.8        C276.453,101.03,278.665,87.816,273.208,90.627z" fill="#ffffff" data-original="#ffffff"/>
					</g>
					<g>
						<path style="fill-rule:evenodd;clip-rule:evenodd;" d="M306.301,397.884c-2.798-1.29-7.514,2.671-6.39,4.906        C301.098,405.175,310.85,400.058,306.301,397.884z" fill="#ffffff" data-original="#ffffff"/>
					</g>
					<g>
						<path style="fill-rule:evenodd;clip-rule:evenodd;" d="M324.357,307.754c-0.972-3.468,3.161-7.207,5.287-5.95        C331.924,303.152,325.688,312.666,324.357,307.754z" fill="#ffffff" data-original="#ffffff"/>
					</g>
					<g>
						<path style="fill-rule:evenodd;clip-rule:evenodd;" d="M319.661,157.848c-0.168-3.564,6.891-6.138,9.024-3.856        C330.968,156.429,320.021,163.547,319.661,157.848z" fill="#ffffff" data-original="#ffffff"/>
					</g>
				</g>
			</g>
			<g>
				<path style="fill-rule:evenodd;clip-rule:evenodd;" d="M77.839,341.573c4.102,0.722,7.242-2.807,9.645-5.17      c2.568-2.535,4.991-5.34,6.654-7.81c-0.507,5.602-0.884,12.526,0.57,19.407c0.444,2.064,0.601,4.951,2.871,6.068      c3.849-1.256,4.021-7.001,4.157-10.973c0.157-4.437-0.248-9.502-0.946-13.866c2.724,3.071,5.867,6.251,8.973,8.937      c2.944,2.515,6.223,6.187,10.9,4.867c0.157-4.284-2.973-7.339-5.279-9.939c-2.345-2.642-5.056-4.965-7.514-6.76      c3.32,0.444,7.256,1.364,11.219,2.038c3.757,0.631,8.118,1.877,12.074-0.301c-0.071-3.354-3.878-4.204-6.57-5.07      c-5.611-1.802-10.929-2.748-17.387-3.195c-4.173-0.281-7.789-0.939-12.456,1.113c-4.455,1.957-8.597,5.419-11.964,9.05      C79.81,333.205,75.927,337.407,77.839,341.573z" fill="#7a8900" data-original="#7a8900"/>
				<path style="fill-rule:evenodd;clip-rule:evenodd;" d="M129.367,365.262c-2.032-2.208-1.977-8.835-5.334-8.23      c-1.893,3.985-0.641,9.13,0.047,14.202c1.014,7.39,2.489,15.124,6.306,23.096c2.745-1.51,4.249-4.51,5.977-6.893      c3.425-4.735,6.863-9.321,11.227-13.873c1.747-1.817,5.24-4.111,4.858-7.168c-3.755,0.335-7.242,2.877-9.854,4.582      c3.796-7.112,11.4-14.656,18.289-21.5c2.188-2.167,4.962-4.358,5.161-7.266c-1.475-1.292-3.692,0.447-5.01,1.124      c-4.581,2.356-9.224,5.898-13.172,8.475c0.923-2.547,2.944-4.596,4.552-7.05c3.098-4.742,5.99-9.958,8.678-15.319      c1.31-2.614,3.391-5.251,2.714-8.418c-5.784,1.828-9.752,6.336-13.648,9.997c-3.979,3.756-7.603,7.776-10.976,11.747      c-0.225-5.866,1.401-13.361-2.609-19.362c-0.186,0.072-0.387,0.143-0.591,0.214c-3.368,5.828-4.5,12.971-5.334,19.863      C129.77,350.536,129.077,357.849,129.367,365.262z" fill="#7a8900" data-original="#7a8900"/>
				<path style="fill-rule:evenodd;clip-rule:evenodd;" d="M105.077,408.541c3.765,4.693,9.219,5.782,13.52,9.331      c-11.4-1.508-26.143-3.26-41.004,2.629c1.945,2.911,6.479,2.634,9.637,3.286c3.483,0.711,6.803,1.832,10.223,2.058      c-9.543,4.093-17.466,9.521-23.581,15.285c-1.969,1.852-4.79,3.612-4.777,6.458c3.828-0.314,7.844-1.962,11.59-3.512      c8.576-3.528,17.672-7.21,26.724-10.317c-4.058,4.026-7.831,8.466-11.551,12.969c-1.082,1.302-3.19,2.575-2.709,4.694      c6.586-1.153,12.114-5.26,17.915-8.501c5.862-3.263,12.194-5.919,18.807-8.819c-3.454,4.097-8.662,7.37-10.479,12.239      c1.352,1.724,3.904,0.231,5.932-0.447c11.985-4.002,21.91-6.974,32.149-6.534c4.021,0.167,7.475,0.591,11.013,1.438      c3.524,0.837,6.876,2.515,10.62,2.245c-1.166-3.425-4.361-5.74-6.934-7.978c-17.743-15.44-40.411-24.825-64.591-27.087      C106.96,407.919,105.972,407.231,105.077,408.541z" fill="#7a8900" data-original="#7a8900"/>
				<path style="fill-rule:evenodd;clip-rule:evenodd;" d="M228.026,512c2.118-0.973,3.66-0.732,5.799-1.758      c-17-42.824-45.376-63.708-70.52-87.534c-13.141-12.452-25.322-24.475-37.028-39.755c-8.905-11.645-15.489-25.1-21.787-42.545      c-1.919-5.313-3.679-10.887-6.55-16.243c-0.235-0.184-0.476-0.375-0.614-0.791c-0.298,0.105-0.601,0.214-0.902,0.318      c4.113,22.342,12.79,45.292,23.85,60.421c11.42,15.609,24.376,28.99,36.753,40.858C182.71,449.632,211.169,470.285,228.026,512z      " fill="#7a8900" data-original="#7a8900"/>
				<g>
					<path style="fill-rule:evenodd;clip-rule:evenodd;" d="M44.957,253.307c-19.045,3.151-21.884,20.24-14.114,35.89       c3.773,7.598,8.814,13.159,13.319,17.186c9.467,8.467,22.655,14.443,36.063,13.71c15.609-0.858,29.147-12.389,35.783-22.738       c3.446-5.368,5.553-11.615,6.996-18.092c1.464-6.554,2.494-13.576,0.596-20.849c-4.968-19.029-19.505-27.944-38.455-20.289       c-1.475,0.595-3.378,2.27-5.172,2.543c-2.617,0.405-8.445-4.275-12.798-4.509C55.622,235.527,47.336,244.62,44.957,253.307z" fill="#d33400" data-original="#d33400"/>
					<g>
						<path style="fill-rule:evenodd;clip-rule:evenodd;" d="M78.241,287.169c1.974-1.696,0-5.457-0.941-7.959        c-5.736-15.298-13.015-30.778-18.14-47.991c-0.899-3.03-2.358-6.161-2.411-8.592c-0.029-2.647,4.076-7.969,0.319-10.89        c-6.798-2.243-3.198,13.394-1.689,18.749c2.212,7.858,4.774,14.632,6.866,20.276        C67.469,264.856,72.442,277.848,78.241,287.169z" fill="#7a8900" data-original="#7a8900"/>
						<path style="fill-rule:evenodd;clip-rule:evenodd;" d="M94.624,303.506c1.673-1.481,0.199-5.519-0.701-8.34        c-5.762-17.897-15.28-38.032-16.676-58.172c2.337-2.118,5.7-3.824,4.774-7.376c-0.314-1.15-1.746-3.342-4.304-2.885        c-5.224,0.913-5.062,10.861-4.074,17.025c2.463,15.346,7.765,29.28,12.717,41.778        C89.06,292.347,91.165,298.767,94.624,303.506z" fill="#7a8900" data-original="#7a8900"/>
						<path style="fill-rule:evenodd;clip-rule:evenodd;" d="M43.3,247.156c12.307,8.869,18.715,27.786,25.49,45.894        c0.471,1.248,1.064,2.693,1.592,3.874c0.442,0.978,0.599,2.608,1.992,2.794c1.239-1.196,0.706-2.022,0.554-3.083        c-0.633-4.656-3.551-11.62-5.946-17.881c-4.238-10.982-8.754-21.774-15.29-29.368c-2.866-3.339-8.945-9.448-12.827-8.369        c-1.6,0.45-2.343,1.718-2.254,2.846C36.894,247.438,40.672,246.499,43.3,247.156z" fill="#7a8900" data-original="#7a8900"/>
					</g>
					<g>
						<g>
							<path style="fill-rule:evenodd;clip-rule:evenodd;" d="M67.99,280.188c-8.228-6.305-17.46-12.227-29.464-9.332         c-12.644,3.053-19.126,14.854-15.515,26.286c2.473,7.867,8.497,13.333,13.591,17.569c5.362,4.457,10.401,7.669,16.901,10.66         c12.283,5.645,27.301,9.752,41.53,4.618c11.316-4.082,17.983-13.605,15.677-23.854         c-2.771-12.353-16.208-23.121-25.068-26.253C80.024,277.887,75.857,277.904,67.99,280.188z" fill="#ff4f00" data-original="#ff4f00"/>
						</g>
						<g>
							<g>
								<path style="fill-rule:evenodd;clip-rule:evenodd;" d="M84.694,268.724c-4.526-0.299-7.474,1.403-9.368,3.951          l-1.115,7.03c-0.758,2.311-2.025,4.034-2.025,4.034c-0.46,14.986,8.798,34.766,21.314,39.329          c3.728,1.36,9.091,1.455,14.757-1.269c6.27-3.026,11.962-10.513,15.892-16.907c6.338-10.333,9.193-20.038,7.75-32.906          c-1.888-16.656-11.196-28.962-26.35-27.032C92.431,246.622,85.248,259.243,84.694,268.724z" fill="#ff4f00" data-original="#ff4f00"/>
								<path style="" d="M72.186,283.739c0.11-3.714,0.876-8.019,3.137-11.074c-0.055,0.609-0.099,1.212-0.104,1.807          c-0.471,14.991,8.788,34.775,21.304,39.334c3.718,1.358,9.099,1.45,14.762-1.272c6.275-3.018,11.964-10.511,15.894-16.904          c1.584-2.586,2.947-5.132,4.092-7.701c-1.25,5.875-3.666,11.333-7.122,16.963c-3.93,6.394-9.622,13.881-15.892,16.907          c-5.666,2.724-11.028,2.629-14.757,1.269C80.984,318.505,71.726,298.724,72.186,283.739z" fill="#d33400" data-original="#d33400"/>
							</g>
							<g>
								<path style="fill-rule:evenodd;clip-rule:evenodd;" d="M117.803,273.871c-1.553,3.899,3.386,8.274,5.833,6.892          C126.248,279.316,119.991,268.66,117.803,273.871z" fill="#ffffff" data-original="#ffffff"/>
								<path style="fill-rule:evenodd;clip-rule:evenodd;" d="M114.291,255.074c-0.554,2.052,0.79,5.512,2.552,8.58          c1.208,2.075,3.247,5.327,5.263,4.434c3.666-1.628-3.7-11.879-5.629-13.676          C115.726,253.794,114.833,253.551,114.291,255.074z" fill="#ffffff" data-original="#ffffff"/>
							</g>
						</g>
					</g>
				</g>
			</g>
		</g>
		<g>
			<g>
				<g>
					<path style="fill-rule:evenodd;clip-rule:evenodd;" d="M428.172,286.917c-2.322-0.986-4.149,1.237-5.569,2.51       c-10.615,9.534-19.447,20.901-28.546,32.882c-7.501,9.873-14.579,20.62-20.051,33.376c-1.822,4.25-3.757,8.644-4.416,13.413       c-0.842,6.128-0.11,12.487,4.628,13.187c2.231,0.321,4.597-0.944,6.704-2.624l4.681-7.079l2.379-0.409       c2.138-2.802,3.935-5.668,5.377-7.851c10.22-15.494,17.489-32.329,25.186-50.11c0.218-0.504,0.426-1.027,0.64-1.531       l-0.686-1.641l2.154-1.874c2.046-5.047,3.934-10.169,5.836-15.644C427.205,291.453,428.766,289.229,428.172,286.917z" fill="#ff4f00" data-original="#ff4f00"/>
					<g>
						<path style="" d="M385.476,375.213c0.873-0.969,1.702-1.985,2.486-3.017c0.314-1.064,0.573-2.145,0.73-3.246        c0.243-1.662-0.209-3.2,0.272-4.625c0.512-1.511,2.432-2.236,3.582-3.657c3.051-3.777,5.37-9.521,5.062-15.707        c4.136-3.667,8.362-7.219,8.895-14.949c4.858-2.948,9.258-7.852,8.696-15.998c1.265-0.493,2.662-0.675,3.953-1.311        c0,0,0.021-0.012,0.031-0.016c0.502-1.173,1.002-2.34,1.472-3.521c-1.712,1.02-3.658,1.774-5.572,2.52        c-1.276-1.192-2.16-3.992-4.659-4.148c-5.02-0.316-4.335,7.792,2.17,6.837c0.413,6-2.824,10.142-6.421,12.519        c-0.816-1.509-1.313-3.31-3.114-4.046c-2.738-1.143-6.51,0.082-6.9,3.188c-0.434,3.479,3.336,6.068,7.457,4.837        c-0.233,2.098-0.915,4.317-2.466,6.561c-0.594,0.88-3.417,4.442-4.131,4.402c-0.201-0.013-1.413-1.767-1.564-1.917        c-0.536-0.579-1.004-1.251-1.832-1.639c-3.216-1.504-6.327,0.243-7.083,1.894c-1.919,4.183,2.314,7.802,7.909,5.895        c0.387,6.377-3.007,10.877-6.019,14.354c-1.124-1.794-1.42-3.446-2.832-4.565c-7.993-6.359-13.468,7.797-5.493,9.998        c1.815,0.498,3.509,0.192,5.433-0.193c-0.125,5.551-2.301,9.925-4.617,13.998        C382.704,378.237,384.307,376.513,385.476,375.213z M409.682,311.502c-0.361-0.241-0.373-1.004,0.055-1.161        c1.082-0.323,1.509,0.771,1.984,1.397C410.824,311.808,410.25,311.9,409.682,311.502z M399.903,328.074        c-2.745-4.17,4.314-2.958,3.621-0.042C402.724,328.499,400.907,329.037,399.903,328.074z M388.953,342.907        c0.052-3.749,4.947-1.892,5.146,0.309C392.559,343.811,389.342,344.833,388.953,342.907z M379.58,361.695        c-0.95-1.162-0.878-2.811,0.489-3.841c2.845-1.634,4.947,1.73,5.151,4.438C383.847,363.316,380.516,363.054,379.58,361.695z" fill="#acacf1" data-original="#acacf1"/>
						<g>
							<path style="fill-rule:evenodd;clip-rule:evenodd;" d="M374.05,372.202c1.312,2.545,5.951,2.182,5.044-2.281         C377.711,367.731,373.491,368.415,374.05,372.202z" fill="#ffffff" data-original="#ffffff"/>
							<path style="fill-rule:evenodd;clip-rule:evenodd;" d="M384.979,349.115c-1.95,3.663,4.584,5.182,4.8,1.582         C389.926,348.285,386.216,346.795,384.979,349.115z" fill="#ffffff" data-original="#ffffff"/>
							<path style="fill-rule:evenodd;clip-rule:evenodd;" d="M393.032,335.149c1.877,1.311,4.335,0.494,4.463-1.289         C397.733,330.671,391.526,330.83,393.032,335.149z" fill="#ffffff" data-original="#ffffff"/>
							<path style="fill-rule:evenodd;clip-rule:evenodd;" d="M403.82,318.76c1.31,1.202,4.148,0.812,4.69-0.75         C409.412,313.294,401.205,314.863,403.82,318.76z" fill="#ffffff" data-original="#ffffff"/>
							<path style="fill-rule:evenodd;clip-rule:evenodd;" d="M418.914,302.297c0.024-0.224-0.044-0.36-0.222-0.527         c-3.504-2.907-7.078,2.468-3.574,3.656C416.825,306.003,418.909,304.799,418.914,302.297z" fill="#ffffff" data-original="#ffffff"/>
						</g>
					</g>
				</g>
				<g>
					<path style="fill-rule:evenodd;clip-rule:evenodd;" d="M428.627,293.967c-2.651,21.268-0.505,42.722,3.93,59.59       c1.953,7.458,3.59,12.775,7.391,18.761c1.794,2.826,4.644,5.78,7.425,5.344c3.019-0.466,4.22-4.362,4.562-9.027l-1.222-4.685       l1.246-1.701c-0.167-3.503-0.555-6.819-0.813-8.873c-2.222-17.63-5.682-31.631-10.333-47.333       c-0.337-1.128-0.676-2.241-1.012-3.365l-1.202-0.401l0.338-2.466c-0.462-1.474-0.976-3.05-1.591-4.813       c-0.664-1.858-3.179-8.886-5.943-8.608C428.917,286.646,429.04,290.71,428.627,293.967z" fill="#ff4f00" data-original="#ff4f00"/>
					<g>
						<path style="" d="M451.936,368.636c0.146-2.054,0.133-4.263,0.024-6.386c-1.067-1.306-2.322-2.441-3.718-3.366        c2.251-7.045-0.476-13.434-3.624-17.25c2.034-6.258,0.471-13.518-2.052-17.414c-0.627-0.969-1.503-1.862-1.644-2.679        c-0.157-0.86,0.374-2.026,0.418-2.815c0.324-4.912-1.192-8.692-3.922-12.1c0.606-0.949,1.569-2.379,2.384-3.947        c-0.272-0.939-0.562-1.889-0.865-2.87c-0.86,2.029-2.126,3.866-3.224,5.162c-1.59-0.903-2.356-1.768-3.768-1.771        c-5.893-0.004-1.362,8.356,3.326,4.844c2.779,2.565,3.888,6.617,3.412,12.074c-3.817-1.471-8.267-0.62-9.172,2.29        c-1.14,3.671,1.634,6.632,4.779,6.479c2.408-0.122,3.938-2.107,5.14-4.08c3.253,2.944,4.016,8.899,2.988,14.882        c-10.194-5.897-12.955,11.202-3.082,8.338c0.162-0.044,1.626-0.967,2.146-1.418c0.17-0.146,1.558-1.968,1.666-1.965        c1.239,0.029,3.062,5.63,3.174,7.412c0.115,1.841-0.392,3.726-0.309,5.146c-3.31-0.776-8.466-0.46-8.968,3.076        c-0.392,2.881,2.568,5.215,5.663,4.728c1.956-0.312,2.944-2.43,4.33-3.362C449.546,363.155,450.783,365.843,451.936,368.636z         M431.719,305.771c0.168-0.726,1.148,0.031,1.324,0.598C432.381,306.523,431.652,306.368,431.719,305.771z M432.897,326.222        c-3.218-2.647,1.456-5.817,4.602-3.591C436.779,324.751,435.65,326.404,432.897,326.222z M441.219,342.457        c-0.821,1.825-1.94,3.314-4.581,3.093c-0.037-0.207-0.188-0.315-0.492-0.296C434.044,342.032,439.185,340.276,441.219,342.457        z M441.067,362.324c-3.153-0.72,0.167-4.253,3.493-2.372C443.786,361.361,442.615,362.675,441.067,362.324z" fill="#acacf1" data-original="#acacf1"/>
						<g>
							<path style="fill-rule:evenodd;clip-rule:evenodd;" d="M431.602,295.953c-1.799,3.718,3.943,3.534,3.83,0.746         C435.399,295.808,432.92,293.24,431.602,295.953z" fill="#ffffff" data-original="#ffffff"/>
							<path style="fill-rule:evenodd;clip-rule:evenodd;" d="M431.621,312.991c-0.766,2.666,3.407,3.846,4.298,1.543         C436.698,312.505,432.706,309.193,431.621,312.991z" fill="#ffffff" data-original="#ffffff"/>
							<path style="fill-rule:evenodd;clip-rule:evenodd;" d="M434.327,332.506c-1.414,3.353,3.425,4.016,4.275,1.795         C439.462,332.09,435.645,329.379,434.327,332.506z" fill="#ffffff" data-original="#ffffff"/>
							<path style="fill-rule:evenodd;clip-rule:evenodd;" d="M442.359,353.623c0.235-1.995-0.426-3.219-1.6-3.451         C436.374,349.343,438.866,357.286,442.359,353.623z" fill="#ffffff" data-original="#ffffff"/>
							<path style="fill-rule:evenodd;clip-rule:evenodd;" d="M444.576,372.594c4.366,1.018,4.505-4.085,1.822-4.534         C444.181,367.695,442.592,370.674,444.576,372.594z" fill="#ffffff" data-original="#ffffff"/>
						</g>
					</g>
				</g>
			</g>
			<g>
				<g>
					<path style="fill-rule:evenodd;clip-rule:evenodd;" d="M428.272,285.217c-2.426,0.703-3.974-1.715-5.232-3.147       c-9.4-10.732-16.812-23.067-24.431-36.039c-6.272-10.699-12.019-22.225-15.936-35.538c-1.307-4.447-2.698-9.027-2.782-13.839       c-0.115-6.194,1.375-12.414,6.162-12.536c2.251-0.061,4.449,1.477,6.342,3.396l3.522,7.992l2.579,0.255       c1.78,3.028,3.251,6.127,4.419,8.461c8.309,16.599,13.517,34.186,19.05,52.743c0.16,0.538,0.296,1.084,0.452,1.622       l-0.716,1.561l1.765,2.086c1.429,5.251,2.687,10.567,3.917,16.222C427.858,280.596,429.134,282.991,428.272,285.217z" fill="#ff4f00" data-original="#ff4f00"/>
					<g>
						<path style="" d="M392.394,187.516c1.809,4.317,3.446,8.931,2.913,14.442c-1.856-0.601-3.504-1.112-5.365-0.834        c-8.184,1.235-4.429,15.936,4.267,10.579c1.53-0.939,2.026-2.547,3.352-4.192c2.573,3.803,5.407,8.679,4.267,14.968        c-5.334-2.554-9.956,0.536-8.55,4.905c0.554,1.732,3.378,3.689,6.798,2.735c0.403-0.115,1.286-0.916,1.893-1.439        c0.167-0.136,1.707-1.705,1.904-1.694c0.711,0.05,3.101,3.918,3.592,4.86c1.26,2.418,1.668,4.702,1.647,6.812        c-3.932-1.714-7.985,0.41-7.972,3.913c0.021,3.128,3.616,4.794,6.471,4.004c1.882-0.533,2.591-2.252,3.572-3.668        c3.302,2.79,6.016,7.291,4.892,13.194c-6.338-1.716-7.988,6.242-2.968,6.536c2.497,0.136,3.708-2.531,5.119-3.566        c1.812,0.965,3.66,1.954,5.24,3.165c-0.34-1.233-0.695-2.45-1.054-3.664c-0.01-0.017-0.018-0.023-0.029-0.03        c-1.208-0.775-2.573-1.124-3.768-1.773c1.535-8.014-2.256-13.413-6.732-16.918c0.397-7.737-3.383-11.767-7.044-15.906        c1.041-6.106-0.586-12.074-3.164-16.186c-0.978-1.55-2.787-2.498-3.117-4.055c-0.308-1.481,0.319-2.947,0.272-4.63        c-0.021-1.11-0.152-2.215-0.335-3.311c-0.659-1.105-1.349-2.217-2.102-3.288C395.385,191.035,393.992,189.144,392.394,187.516        z M414.895,258.61c-0.554,0.567-0.859,1.469-2.134,1.166c-0.613-0.208-0.347-1.032,0.042-1.181        C413.422,258.335,414.014,258.449,414.895,258.61z M408.694,241.469c0.345,2.97-7.379,2.667-3.753-0.456        C406.019,240.013,408.046,240.609,408.694,241.469z M401.14,225.278c-0.46,2.148-5.543,3.411-5.138-0.311        C396.47,222.467,400.05,223.595,401.14,225.278z M394.59,205.274c-0.523,2.672-2.805,5.664-5.642,3.785        c-1.321-1.159-1.124-2.818-0.021-3.863C390.015,203.955,393.354,204.089,394.59,205.274z" fill="#acacf1" data-original="#acacf1"/>
						<g>
							<path style="fill-rule:evenodd;clip-rule:evenodd;" d="M384.686,194.098c1.605-2.362,6.165-1.447,4.73,2.862         C387.787,198.978,383.677,197.799,384.686,194.098z" fill="#ffffff" data-original="#ffffff"/>
							<path style="fill-rule:evenodd;clip-rule:evenodd;" d="M392.786,218.323c-1.498-3.859,5.177-4.598,4.962-0.996         C397.602,219.732,393.738,220.784,392.786,218.323z" fill="#ffffff" data-original="#ffffff"/>
							<path style="fill-rule:evenodd;clip-rule:evenodd;" d="M399.119,233.161c2.016-1.092,4.372,0.007,4.278,1.802         C403.245,238.159,397.116,237.257,399.119,233.161z" fill="#ffffff" data-original="#ffffff"/>
							<path style="fill-rule:evenodd;clip-rule:evenodd;" d="M407.883,250.71c1.66-0.493,4.04,0.031,4.56,1.309         C412.788,256.796,404.824,254.267,407.883,250.71z" fill="#ffffff" data-original="#ffffff"/>
							<path style="fill-rule:evenodd;clip-rule:evenodd;" d="M420.914,268.844c-0.254-0.004-0.225,0.308-0.288,0.507         c-3.822,2.47-6.73-3.302-3.114-4.06C419.277,264.919,421.196,266.37,420.914,268.844z" fill="#ffffff" data-original="#ffffff"/>
						</g>
					</g>
				</g>
				<g>
					<path style="fill-rule:evenodd;clip-rule:evenodd;" d="M429.668,277.706       c-0.105-21.438,4.581-42.475,10.992-58.696c2.824-7.173,5.083-12.258,9.575-17.75c2.11-2.595,5.287-5.187,8.001-4.424       c2.946,0.824,3.673,4.831,3.454,9.512l-1.731,4.262l1.001,2.073c-0.583,3.459-1.367,6.704-1.867,8.713       c-4.304,17.243-9.402,30.73-15.892,45.764c-0.47,1.088-0.928,2.156-1.398,3.238l-0.968,0.133l-0.241,2.602       c-0.632,1.401-1.338,2.92-2.157,4.585c-0.866,1.765-4.202,8.452-6.916,7.845C429.083,285.006,429.689,280.977,429.668,277.706z       " fill="#ff4f00" data-original="#ff4f00"/>
					<g>
						<path style="" d="M455.928,212.71c-1.26-1.094-1.997-3.309-3.896-3.843c-3.012-0.851-6.233,1.111-6.176,4.008        c0.068,3.583,5.148,4.505,8.529,4.13c-0.251,1.403,0.026,3.322-0.309,5.139c-0.324,1.757-2.798,7.113-4.034,6.982        c-0.107-0.005-1.266-1.979-1.417-2.152c-0.468-0.499-1.801-1.584-1.958-1.658c-9.465-4.017-8.769,13.287,2.06,8.643        c0.314,6.076-1.156,11.891-4.73,14.425c-0.962-2.104-2.246-4.257-4.625-4.663c-3.101-0.53-6.207,2.081-5.514,5.858        c0.546,3,4.871,4.375,8.835,3.368c-0.178,5.483-1.762,9.369-4.821,11.586c-4.236-4.04-9.729,3.721-3.88,4.419        c1.401,0.161,2.254-0.605,3.953-1.322c0.926,1.433,1.966,3.405,2.581,5.515c0.426-0.941,0.818-1.851,1.211-2.739        c-0.628-1.662-1.407-3.195-1.909-4.208c3.116-3.058,5.078-6.638,5.334-11.553c0.052-0.778-0.335-2-0.084-2.839        c0.235-0.799,1.224-1.58,1.958-2.47c2.962-3.57,5.381-10.581,4.11-17.044c3.585-3.42,7.052-9.436,5.645-16.693        c1.498-0.757,2.881-1.734,4.1-2.905c0.356-2.097,0.633-4.285,0.729-6.335C460.148,208.989,458.603,211.51,455.928,212.71z         M435.462,265.935c-0.065,0.669-1.325,1.485-1.571,0.536C433.626,265.385,434.821,265.626,435.462,265.935z M441.815,250.313        c-3.381,1.829-7.653-1.873-4.142-4.117C440.109,245.245,441.355,248.127,441.815,250.313z M443.164,227.69        c0.221-0.266,0.694-0.359,0.694-0.359c2.351-0.37,3.416,1.834,4.012,3.73C445.588,232.995,440.691,230.637,443.164,227.69z         M453.262,214.102c-3.519,1.459-6.393-2.438-3.179-2.778C451.662,211.157,452.671,212.612,453.262,214.102z" fill="#acacf1" data-original="#acacf1"/>
						<g>
							<path style="fill-rule:evenodd;clip-rule:evenodd;" d="M432.79,276.094c-1.344-3.902,4.335-3.036,3.89-0.281         C436.541,276.694,433.778,278.952,432.79,276.094z" fill="#ffffff" data-original="#ffffff"/>
							<path style="fill-rule:evenodd;clip-rule:evenodd;" d="M434.834,259.19c-0.439-2.748,3.833-3.421,4.45-1.021         C439.818,260.273,435.456,263.086,434.834,259.19z" fill="#ffffff" data-original="#ffffff"/>
							<path style="fill-rule:evenodd;clip-rule:evenodd;" d="M439.844,240.13c-1.009-3.506,3.88-3.569,4.458-1.279         C444.89,241.158,440.78,243.389,439.844,240.13z" fill="#ffffff" data-original="#ffffff"/>
							<path style="fill-rule:evenodd;clip-rule:evenodd;" d="M450.328,220.118c0.005,2.011-0.805,3.155-2.003,3.232         C443.875,223.662,447.29,216.069,450.328,220.118z" fill="#ffffff" data-original="#ffffff"/>
							<path style="fill-rule:evenodd;clip-rule:evenodd;" d="M454.786,201.544c4.455-0.488,3.99,4.596,1.271,4.727         C453.806,206.368,452.595,203.212,454.786,201.544z" fill="#ffffff" data-original="#ffffff"/>
						</g>
					</g>
				</g>
			</g>
			<g>
				<path style="fill-rule:evenodd;clip-rule:evenodd;" d="M381.742,285.392c-1.354-1.614-3.535-0.941-4.921-0.699      c-9.857,1.651-16.807,10.704-18.239,21.444c-0.544,4.102-0.398,8.492-0.335,12.598c0.063,4.897-0.136,10.268-2.259,13.511      c-1.448,2.215-4.476,4.124-5.543,6.282c-0.41,0.842-0.209,2.209,1.088,2.55c2.573,0.677,4.92-2.924,5.867-4.816      c1.333-2.648,2.201-5.616,2.573-8.326c0.973-7.263-0.387-13.759,0.395-20.446c1.116-9.701,6.058-17.02,12.981-20.114      C375.76,286.3,378.558,286.23,381.742,285.392z" fill="#ffbe49" data-original="#ffbe49"/>
				<path style="fill-rule:evenodd;clip-rule:evenodd;" d="M381.962,281.682c-1.543,1.448-3.619,0.515-4.968,0.122      c-9.596-2.815-15.41-12.628-15.557-23.474c-0.058-4.13,0.622-8.466,1.166-12.541c0.638-4.853,1.085-10.209-0.638-13.685      c-1.166-2.361-3.953-4.626-4.758-6.9c-0.303-0.884,0.058-2.22,1.383-2.401c2.638-0.366,4.542,3.498,5.26,5.485      c1.007,2.782,1.524,5.833,1.556,8.571c0.099,7.335-2.016,13.614-2.037,20.35c-0.044,9.759,3.987,17.615,10.498,21.509      C376.126,280.074,378.903,280.482,381.962,281.682z" fill="#ffbe49" data-original="#ffbe49"/>
				<g>
					<path style="fill-rule:evenodd;clip-rule:evenodd;" d="M390.661,287.586c1.378,0.626,2.872,1.071,4.446,1.407       l1.027-0.552l0.912,0.91c2.067,0.303,4.249,0.433,6.479,0.447l0.62-0.494l0.489,0.505c2.252-0.021,4.541-0.142,6.812-0.295       l1.115-0.778l0.801,0.646c2.827-0.207,5.595-0.427,8.175-0.537l1.013-0.823l1.021,0.757c0.244-0.004,0.488-0.01,0.728-0.01       c2.284-0.007,4.521,0.114,6.722,0.315l0.864-0.803l0.85,0.981c2.521,0.28,5.007,0.651,7.479,1.074l0.846-0.639l0.85,0.931       c2.767,0.494,5.528,1.035,8.316,1.522l0.945-0.68l0.935,0.995c2.64,0.437,5.313,0.814,8.049,1.075l1.378-0.931l1.084,1.135       c2.383,0.161,4.702,0.274,7.045,0.337l0.899-0.491l0.909,0.538c2.186,0.037,4.403,0.031,6.705,0.001l0.93-0.713l1.012,0.683       c0.581-0.011,1.167-0.022,1.761-0.037c1.431-0.035,3.613,0.042,5.922,0.013l0.898-0.734l0.917,0.682       c4.164-0.168,8.21-0.821,8.572-3.125c0.426-2.658-3.566-3.846-5.927-4.483c-0.532-0.142-1.073-0.274-1.617-0.409l-0.775,0.434       l-0.672-0.787c-2.476-0.582-5.051-1.104-7.679-1.56l-1.031,0.565l-0.751-0.859c-1.985-0.32-3.985-0.609-5.985-0.855       l-1.342,0.961l-0.68-1.196c-2.553-0.282-5.077-0.506-7.541-0.661c-0.129-0.008-0.259-0.016-0.388-0.023l-1.256,1.06       l-1.165-1.138c-2.603-0.05-5.211,0.031-7.856,0.189l-1.113,0.729l-0.998-0.591c-2.773,0.196-5.584,0.441-8.453,0.648       l-0.997,0.751l-0.974-0.62c-2.462,0.158-4.97,0.275-7.538,0.298l-1.011,0.885l-0.936-0.887       c-0.432-0.005-0.865-0.012-1.301-0.023c-1.845-0.046-3.701-0.164-5.559-0.331l-1.267,0.876l-0.819-1.082       c-2.694-0.29-5.385-0.667-8.047-1.054l-1.055,0.587l-0.841-0.861c-0.027-0.004-0.053-0.008-0.08-0.012       c-2.202-0.327-4.447-0.714-6.667-1.022l-0.891,0.539l-0.627-0.726c-2.449-0.3-4.841-0.481-7.095-0.375l-0.904,1.196       l-0.977-1.026c-1.544,0.199-2.993,0.559-4.331,1.157c-3.66-3.086-11.724-4.03-13.878,0.414       C374.369,287.399,385.931,291.152,390.661,287.586z" fill="#ffbe49" data-original="#ffbe49"/>
					<g>
						<path style="" d="M397.048,289.354c-0.654-0.093-1.305-0.222-1.943-0.358c0.133-3.058,0.102-6.135,0.264-8.958        c0.612-0.081,1.239-0.14,1.882-0.169c-0.036,0.771-0.081,1.565-0.065,2.311C397.226,284.301,397.179,286.85,397.048,289.354z" fill="#d33400" data-original="#d33400"/>
						<path style="" d="M404.633,289.81c-0.374,0.003-0.745-0.004-1.109-0.01c0.018-0.137,0.039-0.259,0.05-0.408        c0.303-2.794,0.442-6.148,0.711-8.235c0.031-0.293,0.05-0.603,0.063-0.915c0.512,0.06,1.014,0.127,1.516,0.188        c-0.058,0.298-0.112,0.575-0.141,0.818C405.378,283.923,405.012,286.908,404.633,289.81z" fill="#d33400" data-original="#d33400"/>
						<path style="" d="M411.447,289.516c0.194-1,0.4-2.046,0.588-3.138c0.262-1.634,0.404-3.363,0.577-4.914        c0.633,0.092,1.264,0.183,1.897,0.275c-0.337,2.505-0.711,5.186-1.142,7.645C412.733,289.431,412.095,289.469,411.447,289.516        z" fill="#d33400" data-original="#d33400"/>
						<path style="" d="M423.712,288.112c-0.047,0.224-0.094,0.447-0.141,0.671c-0.662,0.009-1.339,0.028-2.034,0.064        c0.243-1.399,0.492-2.8,0.724-4.13c0.107-0.605,0.196-1.263,0.296-1.931c0.69,0.076,1.391,0.146,2.084,0.205        c0,0.009,0,0.009,0,0.009C424.36,284.708,424.067,286.483,423.712,288.112z" fill="#d33400" data-original="#d33400"/>
						<path style="" d="M431.017,289.087c0.094-1.066,0.199-2.164,0.274-3.208c0.055-0.821,0.128-1.68,0.217-2.526        c0.654-0.003,1.297,0.003,1.94,0c-0.214,1.913-0.445,3.951-0.714,5.91C432.172,289.198,431.602,289.142,431.017,289.087z" fill="#d33400" data-original="#d33400"/>
						<path style="" d="M441.909,290.631c-0.57-0.093-1.13-0.192-1.697-0.292c0.201-1.927,0.45-3.815,0.635-5.335        c0.078-0.613,0.115-1.277,0.139-1.952c0.656-0.033,1.32-0.089,1.974-0.127c-0.071,0.384-0.146,0.777-0.194,1.154        C442.479,286.494,442.218,288.56,441.909,290.631z" fill="#d33400" data-original="#d33400"/>
						<path style="" d="M450.224,292.151c0.183-2.405,0.512-4.994,0.776-7.377c0.097-0.838,0.243-1.679,0.41-2.501        c0.711-0.043,1.412-0.09,2.11-0.133c-0.4,3.339-0.886,6.916-1.417,10.326C451.481,292.355,450.848,292.254,450.224,292.151z" fill="#d33400" data-original="#d33400"/>
						<path style="" d="M463.642,284.29c-0.24,2.964-0.588,6.261-1.025,9.454c-0.12-0.009-0.241-0.01-0.364-0.02        c-0.708-0.052-1.412-0.119-2.105-0.183c0.099-2.132,0.288-4.278,0.612-6.11c0.309-1.639,0.413-3.716,0.617-5.483        c0.795,0.012,1.611,0.04,2.421,0.081C463.772,282.829,463.702,283.616,463.642,284.29z" fill="#d33400" data-original="#d33400"/>
						<path style="" d="M471.467,294.128c-0.599-0.014-1.205-0.033-1.807-0.046c0.507-3.412,1.224-6.83,1.846-9.938        c0.089-0.444,0.152-0.94,0.22-1.435c0.677,0.072,1.344,0.159,2.024,0.238c-0.141,0.663-0.324,1.316-0.418,1.923        C472.756,288.032,472.123,291.121,471.467,294.128z" fill="#d33400" data-original="#d33400"/>
						<path style="" d="M481.285,286.585c-0.277,2.64-0.722,5.117-1.166,7.514c-0.659,0.018-1.302,0.024-1.945,0.03        c0.377-3.693,0.928-7.373,1.561-10.329c0.594,0.09,1.195,0.19,1.781,0.294C481.489,284.927,481.374,285.791,481.285,286.585z" fill="#d33400" data-original="#d33400"/>
						<path style="" d="M489.196,285.654c0.486,0.112,0.962,0.238,1.448,0.353c-0.183,2.761-0.58,5.437-1.03,8.018        c-0.601,0.02-1.208,0.044-1.817,0.051C488.219,291.094,488.684,288.108,489.196,285.654z" fill="#d33400" data-original="#d33400"/>
					</g>
				</g>
			</g>
		</g>
		<g>
			<g>
				<path style="fill-rule:evenodd;clip-rule:evenodd;" d="M168.104,57.173c0.191-0.469,0.648-0.878,0.544-1.404      c-0.549-2.783-2.625-7.569-4.9-10.375c-0.805-0.984-2.656-2.804-3.629-2.018c-1.333,1.082,1.318,3.727,2.243,5.019      c0.873,1.212,1.783,2.52,2.489,3.798c0.897,1.642,1.03,3.507,2.29,4.772c0.345,0.539-0.727,0.786-0.162,1.36      c2.452,2.975,5.25,4.327,7.802,6.812c-0.962,2.33-1.88,5.884-2.994,8.854c-0.604,1.631-1.19,2.954,0.688,4.565      c2.243-0.256,2.978-2.928,3.736-5.162c0.933-2.743,1.76-5.386,1.331-8.184C174.934,61.822,171.572,58.354,168.104,57.173z" fill="#ffbe49" data-original="#ffbe49"/>
				<path style="fill-rule:evenodd;clip-rule:evenodd;" d="M149.818,78.251c-0.434,0.248-0.784,0.762-1.313,0.735      c-2.839-0.154-7.87-1.535-10.96-3.394c-1.093-0.656-3.158-2.234-2.515-3.301c0.889-1.473,3.88,0.773,5.282,1.505      c1.326,0.701,2.758,1.416,4.12,1.93c1.747,0.664,3.614,0.528,5.046,1.598c0.578,0.267,0.664-0.818,1.323-0.348      c3.284,2.005,5.02,4.581,7.839,6.76c2.17-1.281,5.564-2.689,8.346-4.204c1.527-0.834,2.753-1.595,4.617,0.043      c0.058,2.251-2.489,3.351-4.583,4.419c-2.591,1.306-5.083,2.493-7.917,2.473C155.377,84.347,151.468,81.516,149.818,78.251z" fill="#ffbe49" data-original="#ffbe49"/>
				<path style="fill-rule:evenodd;clip-rule:evenodd;" d="M239.054,107.607c-0.152-1.114-1.443-2.043-2.306-2.688      c-3.056-2.292-7.041-3.592-9.935-3.762c-2.881-2.944-6.071-4.345-8.476-5.966c-1.618-0.299-3.577,1.252-5.268,2.603      c-0.771,0.612-1.802,1.409-2.575,2.167c-0.795,0.777-1.757,1.672-1.668,2.722c0.711,1.04,1.757,0.146,2.463-0.174      c2.128-0.964,4.816-2.562,6.976-4.834c2.236,1.83,5.506,4.679,8.09,5.631c0.492-0.179,0.91-0.073,1.067-0.7      c3.535,1.454,7.096,3.412,10.662,5.321c0.212,0.105,0.413-0.051,0.627,0.078C238.824,107.873,238.931,107.739,239.054,107.607z" fill="#ffbe49" data-original="#ffbe49"/>
				<path style="fill-rule:evenodd;clip-rule:evenodd;" d="M210.521,140.482c-1.124,0.007-2.228-1.135-2.983-1.898      c-2.698-2.706-4.55-6.472-5.122-9.305c-3.321-2.442-5.159-5.402-7.104-7.556c-0.525-1.557,0.74-3.715,1.841-5.586      c0.494-0.847,1.132-1.979,1.781-2.856c0.656-0.893,1.407-1.969,2.455-2.029c1.135,0.55,0.395,1.72,0.172,2.468      c-0.659,2.233-1.854,5.126-3.802,7.578c2.131,1.964,5.417,4.792,6.712,7.218c-0.107,0.506,0.06,0.907-0.531,1.15      c1.93,3.29,4.364,6.55,6.756,9.811c0.139,0.198,0.016,0.416,0.173,0.604C210.754,140.22,210.639,140.35,210.521,140.482z" fill="#ffbe49" data-original="#ffbe49"/>
				<path style="fill-rule:evenodd;clip-rule:evenodd;" d="M99.806,17.405c-0.319,1.526,1.012,2.781,1.893,3.954      c2.818,3.739,6.479,7.607,10.105,11.558c4.625,5.029,9.394,10.698,14.731,15.328c5.185,4.497,10.304,7.373,15.606,10.295      c1.736,0.958,3.514,1.625,5.028,2.743c3.527,2.618,6.32,6.258,9.729,9.603c3.237,3.171,6.774,6.572,10.479,7.936      c1.02,0.377,3.945,1.041,4.591,0.047c1.718-2.598-4.1-7.522-6.882-9.675c-5.763-4.472-12.024-7.561-17.126-12.55      c-4.892-4.781-8.126-9.981-13.978-15.375c-9.677-8.905-19.973-15.742-29.96-22.059C102.782,18.42,101.386,17.171,99.806,17.405z      " fill="#ffbe49" data-original="#ffbe49"/>
				<path style="fill-rule:evenodd;clip-rule:evenodd;" d="M189.952,91.239c-1.448-3.403-3.66-7.079-8.299-10.448      c-1.629-1.186-3.812-2.126-5.522-2.71c-1.537-0.524-4.11-1.272-5.219-0.124c-2.249,2.328,1.595,7.548,3.922,9.888      c3.812,3.825,7.731,5.549,11.381,6.629c1.919,5.374,2.952,12.223,9.044,17.339c3.765,3.164,8.398,3.651,11.91,0.15      c3.851-3.849,4.547-9.5,1.561-13.004C203.961,93.372,195.171,92.839,189.952,91.239z" fill="#ffbe49" data-original="#ffbe49"/>
				<g>
					<path style="fill-rule:evenodd;clip-rule:evenodd;" d="M213.107,111.697c-0.319,0.859,0.722,1.278,1.109,1.652       c2.991,2.884,6.207,4.251,9.737,6.131c7.724,4.128,16.169,7.123,22.77,4.714c1.32-0.478,1.822-2.356,1.535-2.836       c-0.81-1.352-3.43-0.84-4.382-0.562c-1.637,0.495-2.839,1.652-4.068,2.024c-1.579,0.482-4.351-0.511-6.652-1.135       C226.755,119.939,219.523,116.19,213.107,111.697z" fill="#ffbe49" data-original="#ffbe49"/>
					<path style="fill-rule:evenodd;clip-rule:evenodd;" d="M211.653,113.376c0.805-0.444,1.37,0.531,1.794,0.865       c3.276,2.554,5.083,5.542,7.441,8.767c5.169,7.069,9.329,15.005,7.872,21.886c-0.288,1.37-2.073,2.133-2.591,1.918       c-1.459-0.616-1.318-3.279-1.171-4.254c0.256-1.698,1.242-3.052,1.428-4.318c0.262-1.632-1.119-4.233-2.06-6.423       C221.735,125.725,217.013,119.087,211.653,113.376z" fill="#ffbe49" data-original="#ffbe49"/>
				</g>
				<path style="fill-rule:evenodd;clip-rule:evenodd;" d="M209.883,105.484c5.436,0.834,10.302,7.508,6.403,11.52      c-3.415,3.52-10.356-0.007-12.095-4.884C206.168,110.007,208.035,107.756,209.883,105.484z" fill="#ffbe49" data-original="#ffbe49"/>
			</g>
			<g>
				<g>
					<path style="fill-rule:evenodd;clip-rule:evenodd;" d="M269.849,49.874c4.445-4.646,10.542-15.217,5.166-19.832       c-3.049-2.612-8.317-0.361-11.844,0.839c-4.071,1.39-8.045,2.796-11.504,3.914c-2.515,0.815-4.952,1.626-7.417,2.5       l-1.333,1.525l-1.196-0.602c-0.547,0.204-1.111,0.408-1.663,0.621c-3.668,1.418-7.87,3.446-11.321,6.384       c-3.794,3.216-7.331,7.504-10.814,11.919c-3.143,3.987-6.142,8.276-8.921,12.417c-2.4,3.564-5.078,8.17-8.424,12.372       c-3.096,3.888-8.955,8.333-8.204,11.864c0.91,4.293,6.332,5.055,9.381,4.67c6.842-0.879,13.504-5.828,19.5-11.797       c3.213-3.207,6.322-6.522,9.501-9.352c6.312-5.629,12.934-9.154,19.542-12.911c1.759-1,3.587-2.061,5.478-3.256l0.242-0.73       l1.352-0.3c0.875-0.583,1.774-1.202,2.662-1.857C263.388,55.774,266.8,53.055,269.849,49.874z" fill="#acacf1" data-original="#acacf1"/>
					<g>
						<path style="" d="M275.225,29.802c5.376,4.614-0.845,15.327-5.356,20.049c-0.027,0.033-0.064,0.069-0.096,0.097        c-2.093,0.094-4.149-0.558-5.026-2.193c-0.68-1.246,0.194-2.61,0.601-4.176c-2.352,1.922-9.489,0.268-5.249-4.088        c-1.974,0.046-6.003-0.507-6.333-3.377c-0.088-0.815,0.144-1.56,0.594-2.24c2.8-0.966,5.841-2.053,8.934-3.133        C266.854,29.503,272.176,27.19,275.225,29.802z" fill="#ff4f00" data-original="#ff4f00"/>
						<path style="" d="M244.252,37.296c-0.837,0.297-1.681,0.605-2.531,0.923c-0.748,2.851,0.026,5.944,3.088,8.223        c0.05,2.386,1.054,5.582,3.882,7.536c0.628,0.435,1.375,0.709,2.17,0.962c0.481,2.523,2.39,5.105,4.915,6.208        c0.534-0.331,1.067-0.677,1.595-1.033c-2.039-0.562-3.87-2.126-4.596-4.442c0.35-0.476,1.213-0.464,1.935-0.633        c1.367-0.329,3.347-0.984,4.727-3.31c1.187-1.987,0.398-5.874-2.884-5.751c-2.999,0.116-5.488,4.492-5.564,7.215        c-2.424-0.927-4.424-3.632-4.479-5.509c2.332,0.892,7.658-0.318,8.158-3.804c0.078-0.549-0.131-1.621-0.646-2.183        c-2.356-2.562-6.952-0.544-8.597,2.968C243.002,42.453,243.018,39.821,244.252,37.296z M246.859,45.676        c1.064-2.634,3.964-4.629,6.131-2.788C253.173,45.895,248.929,46.964,246.859,45.676z M252.618,53.453        c-0.235-2.042,3.326-7.427,5.459-5.221C260.002,50.221,254.94,54.744,252.618,53.453z" fill="#ffbe49" data-original="#ffbe49"/>
						<path style="fill-rule:evenodd;clip-rule:evenodd;" d="M196.42,94.996c0.586,1.187,2.107,0.752,3.145,0.643        c7.517-0.778,14.924-5.978,21.939-14.074c6.207-7.15,12.176-12.643,18.529-16.809c2.243-1.468,4.95-2.594,6.628-4.434        c0.834-0.922,1.488-2.158,0.9-2.917c-1.297-1.699-5.166,0.497-6.712,1.345c-2.444,1.328-4.688,2.847-6.521,4.302        c-4.228,3.373-8.814,8.819-12.584,13.167c-6.662,7.684-12.242,12.801-19.086,15.855c-1.048,0.468-2.136,0.94-3.25,1.345        C198.457,93.768,196.949,93.766,196.42,94.996z" fill="#ffffff" data-original="#ffffff"/>
						<path style="fill-rule:evenodd;clip-rule:evenodd;" d="M196.852,92.359c0.771,0.659,2.076,0.311,2.983,0.04        c6.254-1.893,13.076-7.331,19.081-14.244c3.511-4.051,6.604-8.512,10.158-12.252c3.731-3.911,7.964-7.015,11.177-10.211        c1.109-1.102,3.935-3.976,2.468-5.506c-1.846-1.93-6.563,1.956-8.184,3.556c-11.039,10.899-17.11,25.771-28.763,33.156        c-1.587,0.999-3.03,1.85-4.651,2.682C199.699,90.316,197.858,90.905,196.852,92.359z" fill="#ffffff" data-original="#ffffff"/>
						<path style="fill-rule:evenodd;clip-rule:evenodd;" d="M197.383,89.344c1.93,0.646,4.199-1.384,6.113-3.032        c4.989-4.308,9.242-9.13,13.81-15.115c2.222-2.914,4.502-5.997,7.279-9.192c2.688-3.097,4.97-5.187,8.058-8.754        c2.411-2.774,6.662-7.444,5.313-9.057c-1.556-1.856-5.987,1.516-7.358,2.879c-3.558,3.517-6.126,7.548-8.49,11.388        c-2.209,3.574-4.264,7.291-6.654,11.132c-3.807,6.112-8.382,11.079-13.795,15.362        C200.102,86.181,197.827,87.174,197.383,89.344z" fill="#ffffff" data-original="#ffffff"/>
					</g>
				</g>
				<g>
					<path style="fill-rule:evenodd;clip-rule:evenodd;" d="M195.861,82.288c9.674-9.539,14.213-20.892,22.339-31.094       c5.783-7.253,12.393-13.394,17.248-20.932c1.079-1.675,2.083-3.407,2.983-5.151l-0.496-1.413l1.422-0.484       c2.099-4.465,3.505-8.984,3.841-13.094c0.238-2.975,0.254-7.501-3.036-9.571c-3.145-1.99-7.802,1.841-11.431,4.896       c-1.727,1.454-3.58,3.259-5.418,5.055l-0.018,0.876l-1.024,0.141c-1.597,1.558-3.165,3.06-4.59,4.259       c-7.627,6.407-15.402,10.339-22.328,15.588c-7.786,5.898-15.442,14.508-19.222,22.685c-3.514,7.581-4.534,16.425-1.93,23.567       c0.795,2.173,2.16,4.788,4.188,6.645C183.959,89.351,190.449,87.616,195.861,82.288z" fill="#8787cf" data-original="#8787cf"/>
					<g>
						<path style="fill-rule:evenodd;clip-rule:evenodd;" d="M226.682,34.23c-2.031-1.158-4.063,0.603-5.59,1.635        c-5.297,3.57-10.84,9.735-15.238,15.956c-2.719,3.852-4.942,7.829-6.981,11.777c-3.232,6.258-6.369,12.917-12.662,17.262        c-1.033,0.707-2.536,1.433-2.659,2.79c1.564,0.876,3.302-0.439,4.756-1.204c5.705-3.025,9.551-9.243,12.804-15.29        c2.071-3.85,4.272-7.671,6.996-11.526c2.913-4.126,6.199-7.452,9.779-10.737c1.681-1.546,3.592-3.212,5.224-4.955        C224.58,38.369,226.64,36.624,226.682,34.23z" fill="#ffffff" data-original="#ffffff"/>
						<path style="" d="M223.314,10.5c-0.35,0.341-0.701,0.677-1.043,1.017c0.936,0.784,1.731,1.852,2.251,2.782        c-3.3,1.384-5.496,9.037-1.448,9.397c3.399,0.301,4.309-6.404,3.509-8.301c3.454-2.251,7.06,2.723,6.604,5.723        c-3.279,0.451-6.531,5.595-3.686,7.454c2.282,1.49,5.37-3.238,5.323-5.33c1.537-0.025,2.69,0.756,3.608,1.868        c0.327-0.63,0.635-1.264,0.926-1.897c-1.098-1.248-2.468-2.101-4.066-2.115c-0.201-2.806-1.93-8.334-6.774-8.202        c-0.8,0.03-1.7,0.324-2.552,0.801C225.526,12.52,224.504,11.342,223.314,10.5z M232.983,23.493        c-0.377,1.114-1.088,2.863-2.468,3.645c-0.165,0.133-0.214-0.047-0.267-0.23C229.717,25.764,231.744,23.339,232.983,23.493z         M224.791,16.386c0.821,1.762,0.515,4.253-1.569,5.812C221.612,20.413,222.969,18.417,224.791,16.386z" fill="#ffbe49" data-original="#ffbe49"/>
						<path style="" d="M240.163,0.549c3.289,2.069,3.274,6.595,3.036,9.571c-0.217,2.656-0.881,5.483-1.888,8.352        c-0.761,0.481-1.584,0.611-2.471,0.145c-2.881-1.527-1.72-4.505-1.705-6.58c-1.292,0.753-2.688,1.154-3.707,0.265        c-1.169-1.021-0.314-2.378-0.507-3.686c-2.343,0.881-4.787,1.667-6.479-0.526c-0.094-0.126-0.173-0.244-0.246-0.374        c0.863-0.81,1.72-1.586,2.536-2.272C232.36,2.39,237.017-1.441,240.163,0.549z" fill="#ff4f00" data-original="#ff4f00"/>
						<path style="fill-rule:evenodd;clip-rule:evenodd;" d="M226.711,25.92c-1.069-1.093-2.547-0.255-3.585,0.129        c-8.414,3.102-17.217,14.72-22.872,23.689c-4.57,7.232-6.824,16.039-13.936,23.797c-1.13,1.224-2.385,2.437-3.595,3.604        c-1.075,1.039-2.554,2.02-2.706,3.664c1.148,0.923,2.392-0.094,3.409-0.739c3.611-2.273,6.845-6.556,9.65-10.852        c5.164-7.899,8.578-17.043,15.227-24.758c4.51-5.224,9.875-8.679,14.806-13.319C224.527,29.8,226.572,28.227,226.711,25.92z" fill="#ffffff" data-original="#ffffff"/>
						<path style="fill-rule:evenodd;clip-rule:evenodd;" d="M212.176,25.582c-1.203-0.922-2.515,0.056-3.548,0.625        c-3.302,1.82-6.55,4.712-9.912,7.146c-4.492,3.271-9.193,6.112-13.251,10.734c-7.289,8.314-9.41,17.777-9.167,26.316        c0.063,2.266-0.136,7.099,1.822,8.301c0.196,0.05,0.568-0.038,0.735-0.298c1.244-2.071,0.936-5.308,1.046-7.884        c0.115-2.746,0.447-5.582,0.805-7.871c0.81-5.114,1.95-10.566,6.432-15.953c7.117-8.542,15.824-9.958,23.058-17.501        C211.073,28.288,212.312,27.15,212.176,25.582z" fill="#ffffff" data-original="#ffffff"/>
						<path style="fill-rule:evenodd;clip-rule:evenodd;" d="M186.198,61.397c-0.544-1.597-0.235-3.842-1.961-4.949        c-1.124,1.039-0.429,2.404-0.131,3.361c0.335,1.103,0.784,2.271,1.339,3.252c-0.199,0.881-0.675,1.781-0.92,2.666        c-0.476-0.669-1.046-2.826-2.246-1.946c-0.296,1.135,1.164,2.145,1.59,3.237c-0.081,2.277-2.481,4.719-1.373,6.912        c1.736-1.411,1.935-3.768,2.957-5.535c1.266-0.6,3.655-0.995,4.003-3.016c-1.025-0.553-1.987-0.058-2.926,0.702        c0.512-2.185,1.984-4.436,2.753-6.637c1.924-0.546,5.454-1.472,6.034-4.024c-1.49-0.718-2.889,0.099-4.267,0.92        c0.319-1.677,1.637-3.42,2.609-5.146c1.349-0.316,3.375,0.022,4.204-1.905c-0.986-1.109-1.825-0.085-2.748-0.305        c0.975-2.256,3.475-4.626,3.606-6.825c-1.103-0.574-2.301,0.574-3.002,1.333c-1.87,1.992-3.43,5.556-4.68,7.514        c-0.824-0.549-0.196-3.356-2.11-3.444c-0.962,2.172,0.146,4.203,0.583,6.283C188.19,56.38,187.188,58.887,186.198,61.397z" fill="#ff4f00" data-original="#ff4f00"/>
					</g>
				</g>
				<g>
					<path style="fill-rule:evenodd;clip-rule:evenodd;" d="M156.736,180.222c-3.974,5.054-13.58,12.583-18.911,7.909       c-3.012-2.647-1.53-8.181-0.829-11.844c0.8-4.225,1.629-8.356,2.246-11.942c0.453-2.596,0.91-5.136,1.428-7.697l1.483-1.645       l-0.917-0.982c0.126-0.576,0.246-1.165,0.38-1.747c0.886-3.819,2.293-8.266,4.724-12.106       c2.646-4.202,6.388-8.306,10.275-12.388c3.498-3.658,7.326-7.237,11.026-10.571c3.2-2.877,7.376-6.178,11.073-10.08       c3.41-3.613,6.986-10.048,10.579-9.802c4.39,0.304,5.904,5.557,5.946,8.629c0.099,6.904-3.854,14.195-8.921,20.965       c-2.724,3.637-5.574,7.187-7.922,10.729c-4.685,7.042-7.245,14.093-10.035,21.162c-0.742,1.882-1.537,3.858-2.45,5.893       l-0.979,0.144l0.185,1.58c-0.455,0.954-0.937,1.911-1.462,2.888C161.662,172.989,159.45,176.762,156.736,180.222z" fill="#acacf1" data-original="#acacf1"/>
					<g>
						<path style="" d="M137.825,188.131c5.331,4.674,14.937-2.855,18.911-7.909c0.021-0.038,0.052-0.073,0.078-0.105        c-0.22-2.072-1.15-4.006-2.897-4.658c-1.32-0.497-2.536,0.541-4.016,1.153c1.548-2.569-1.137-9.365-4.782-4.621        c-0.254-1.941-1.394-5.827-4.249-5.776c-0.824,0.02-1.522,0.358-2.118,0.882c-0.538,2.881-1.156,6.008-1.757,9.189        C136.296,179.95,134.813,185.484,137.825,188.131z" fill="#ff4f00" data-original="#ff4f00"/>
						<path style="" d="M148.137,156.78c-3.25,2.127-4.591,6.951-1.731,8.921c0.638,0.434,1.726,0.492,2.251,0.341        c3.378-0.992,3.833-6.432,2.625-8.62c1.862-0.203,4.827,1.392,6.082,3.662c-2.688,0.462-6.667,3.54-6.351,6.529        c0.327,3.26,4.291,3.492,6.09,2.047c2.118-1.705,2.476-3.752,2.612-5.144c0.071-0.748-0.065-1.604,0.353-2.012        c2.395,0.391,4.199,1.983,5.049,3.928c0.28-0.582,0.541-1.154,0.795-1.724c-1.443-2.344-4.267-3.88-6.834-3.996        c-0.358-0.752-0.745-1.446-1.26-2.013c-2.33-2.534-5.64-3.072-8.008-2.78c-2.688-2.714-5.862-3.04-8.571-1.897        c-0.199,0.878-0.382,1.758-0.567,2.63C143.004,155.075,145.601,154.689,148.137,156.78z M147.439,164.51        c-2.123-1.877-0.557-5.036,1.903-6.454C150.906,159.917,150.446,164.273,147.439,164.51z M153.442,168.802        c-2.479-1.799,2.353-6.087,4.403-6.136C159.456,164.771,155.69,170.425,153.442,168.802z" fill="#ffbe49" data-original="#ffbe49"/>
						<path style="fill-rule:evenodd;clip-rule:evenodd;" d="M191.066,101.173c1.25,0.408,1.038,1.977,1.082,3.02        c0.285,7.551-3.828,15.61-10.848,23.708c-6.21,7.148-10.806,13.835-14.038,20.701c-1.135,2.432-1.872,5.276-3.451,7.195        c-0.795,0.953-1.924,1.777-2.766,1.303c-1.862-1.042-0.23-5.194,0.392-6.842c0.97-2.604,2.154-5.041,3.342-7.058        c2.737-4.662,7.491-9.967,11.258-14.307c6.672-7.686,10.955-13.932,13.01-21.131c0.319-1.108,0.633-2.25,0.873-3.415        C190.135,103.356,189.915,101.869,191.066,101.173z" fill="#ffffff" data-original="#ffffff"/>
						<path style="fill-rule:evenodd;clip-rule:evenodd;" d="M188.509,101.971c0.764,0.664,0.612,2.007,0.466,2.944        c-1.002,6.456-5.423,13.982-11.421,20.894c-3.514,4.049-7.493,7.737-10.696,11.789c-3.344,4.242-5.823,8.866-8.537,12.508        c-0.931,1.25-3.378,4.45-5.101,3.213c-2.168-1.56,1.012-6.777,2.369-8.599c9.235-12.464,23.105-20.578,28.769-33.156        c0.771-1.709,1.404-3.255,2.008-4.977C186.888,105.067,187.212,103.173,188.509,101.971z" fill="#ffffff" data-original="#ffffff"/>
						<path style="fill-rule:evenodd;clip-rule:evenodd;" d="M185.604,102.919c0.907,1.826-0.782,4.346-2.147,6.475        c-3.558,5.547-7.734,10.444-13.015,15.801c-2.573,2.613-5.302,5.31-8.074,8.504c-2.683,3.096-4.44,5.655-7.53,9.215        c-2.408,2.779-6.432,7.644-8.22,6.529c-2.055-1.276,0.664-6.135,1.815-7.694c2.981-4.015,6.615-7.122,10.082-10.008        c3.221-2.683,6.612-5.236,10.079-8.15c5.509-4.624,9.792-9.857,13.264-15.818        C182.856,106.065,183.512,103.667,185.604,102.919z" fill="#ffffff" data-original="#ffffff"/>
					</g>
				</g>
				<g>
					<path style="fill-rule:evenodd;clip-rule:evenodd;" d="M178.416,102.514       c-8.079,10.929-18.676,17.02-27.636,26.505c-6.369,6.742-11.512,14.145-18.297,20.015c-1.509,1.307-3.078,2.543-4.681,3.682       l-1.389,0.255l-0.36,0.932c-4.12,2.702-8.399,4.727-12.411,5.637c-2.928,0.667-7.397,1.311-9.914-1.652       c-2.413-2.834,0.732-7.984,3.247-12.005c1.192-1.915,2.717-4.007,4.236-6.078l0.905-0.109l-0.042-1.065       c1.316-1.8,2.58-3.561,3.562-5.141c5.276-8.456,8.076-16.699,12.294-24.301c4.748-8.544,12.189-17.328,19.748-22.228       c7.015-4.538,15.622-6.802,23.063-5.225c2.264,0.476,5.041,1.459,7.174,3.211C183.729,89.735,182.924,96.41,178.416,102.514z" fill="#8787cf" data-original="#8787cf"/>
					<g>
						<path style="fill-rule:evenodd;clip-rule:evenodd;" d="M135.176,139.793c-1.428-1.843,0.026-4.102,0.837-5.761        c2.787-5.735,8.105-12.1,13.648-17.332c3.436-3.238,7.052-5.995,10.678-8.567c5.744-4.081,11.891-8.126,15.301-14.965        c0.565-1.126,1.069-2.718,2.39-3.021c1.088,1.416,0.036,3.317-0.52,4.871c-2.188,6.074-7.804,10.762-13.329,14.826        c-3.519,2.59-6.997,5.313-10.435,8.548c-3.671,3.468-6.5,7.189-9.24,11.192c-1.305,1.89-2.683,4.017-4.173,5.876        C138.978,137.134,137.545,139.42,135.176,139.793z" fill="#ffffff" data-original="#ffffff"/>
						<path style="" d="M114.751,141.981c-0.35,0.918-0.523,1.847-0.431,2.637c0.546,4.824,6.262,5.752,9.067,5.556        c0.248,1.584,1.276,2.817,2.667,3.728c0.594-0.383,1.169-0.778,1.752-1.184c-1.237-0.749-2.168-1.791-2.358-3.31        c2.073-0.246,6.322-3.978,4.531-6.028c-2.248-2.552-6.876,1.4-6.861,4.708c-2.91,0.873-8.335-1.994-6.604-5.735        c1.998,0.528,8.508-1.32,7.734-4.64c-0.931-3.962-8.189-0.707-9.104,2.754c-0.999-0.382-2.165-1.02-3.07-1.838        c-0.29,0.39-0.575,0.782-0.863,1.177C112.215,140.869,113.52,141.715,114.751,141.981z M128.436,144.362        c0.186,0.021,0.371,0.046,0.262,0.228c-0.578,1.476-2.212,2.432-3.26,2.96C125.108,146.332,127.228,143.993,128.436,144.362z         M122.783,138.068c-1.25,2.287-3.674,2.935-5.538,2.377C119.003,138.349,120.786,136.726,122.783,138.068z" fill="#ffbe49" data-original="#ffbe49"/>
						<path style="" d="M103.728,157.887c2.518,2.964,6.986,2.319,9.914,1.652c2.591-0.582,5.3-1.642,7.998-3.037        c0.364-0.818,0.384-1.658-0.212-2.471c-1.908-2.638-4.69-1.068-6.751-0.765c0.57-1.386,0.766-2.82-0.256-3.697        c-1.177-1.01-2.395,0.029-3.723,0.014c0.549-2.443,0.978-4.972-1.43-6.346c-0.134-0.074-0.264-0.133-0.405-0.183        c-0.68,0.966-1.323,1.917-1.888,2.826C104.46,149.903,101.315,155.053,103.728,157.887z" fill="#ff4f00" data-original="#ff4f00"/>
						<path style="fill-rule:evenodd;clip-rule:evenodd;" d="M126.956,140.993c-1.224-0.895-0.612-2.476-0.376-3.572        c1.88-8.763,12.152-19.107,20.226-25.973c6.521-5.54,14.929-9.011,21.607-17.149c1.04-1.282,2.066-2.701,3.056-4.064        c0.881-1.214,1.65-2.816,3.245-3.203c1.082,1.017,0.246,2.382-0.248,3.488c-1.733,3.898-5.527,7.692-9.384,11.078        c-7.088,6.223-15.664,10.9-22.365,18.567c-4.544,5.202-7.2,11.004-11.104,16.533        C130.491,138.291,129.234,140.541,126.956,140.993z" fill="#ffffff" data-original="#ffffff"/>
						<path style="fill-rule:evenodd;clip-rule:evenodd;" d="M124.577,126.657c-1.082-1.064-0.293-2.494,0.115-3.602        c1.339-3.522,3.739-7.152,5.682-10.82c2.607-4.898,4.753-9.958,8.761-14.627c7.206-8.393,16.273-11.824,24.76-12.786        c2.254-0.252,7.007-1.131,8.471,0.64c0.078,0.176,0.05,0.564-0.193,0.757c-1.872,1.528-5.119,1.686-7.656,2.154        c-2.704,0.499-5.454,1.229-7.676,1.909c-4.942,1.514-10.181,3.412-14.89,8.616c-7.457,8.248-7.629,17.072-14.08,25.295        C127.103,125.183,126.146,126.572,124.577,126.657z" fill="#ffffff" data-original="#ffffff"/>
						<path style="fill-rule:evenodd;clip-rule:evenodd;" d="M156.373,95.897c-1.655-0.314-3.83,0.307-5.174-1.252        c0.873-1.259,2.319-0.758,3.307-0.6c1.137,0.175,2.364,0.46,3.407,0.872c0.844-0.33,1.671-0.926,2.51-1.293        c-0.727-0.37-2.941-0.637-2.248-1.949c1.085-0.45,2.301,0.854,3.436,1.123c2.241-0.399,4.322-3.128,6.657-2.334        c-1.161,1.914-3.462,2.448-5.078,3.708c-0.408,1.329-0.463,3.75-2.411,4.386c-0.701-0.942-0.34-1.957,0.277-2.999        c-2.086,0.817-4.11,2.596-6.186,3.666c-0.267,1.978-0.682,5.608-3.132,6.544c-0.92-1.383-0.303-2.872,0.314-4.364        c-1.61,0.554-3.153,2.104-4.724,3.314c-0.126,1.38,0.492,3.339-1.294,4.426c-1.242-0.82-0.34-1.792-0.696-2.679        c-2.097,1.289-4.084,4.094-6.241,4.535c-0.73-1.007,0.243-2.354,0.892-3.158c1.705-2.134,5.02-4.181,6.782-5.692        c-0.659-0.737-3.347,0.276-3.705-1.596c2.021-1.272,4.186-0.454,6.304-0.324C151.68,98.571,154.025,97.226,156.373,95.897z" fill="#ff4f00" data-original="#ff4f00"/>
					</g>
				</g>
			</g>
		</g>
	</g>
	<path style="fill-rule:evenodd;clip-rule:evenodd;" d="M28.041,293.245c-0.638,3.687,3.995,10.232,7.034,8.587   C38.319,300.081,29.761,286.513,28.041,293.245z" fill="#ffffff" data-original="#ffffff"/>
	<path style="fill-rule:evenodd;clip-rule:evenodd;" d="M29.788,283.863c-0.243,2.598,2.863,7.441,4.662,6.393   C36.37,289.142,30.572,279.142,29.788,283.863z" fill="#ffffff" data-original="#ffffff"/>
	<path style="fill-rule:evenodd;clip-rule:evenodd;" d="M279.375,110.068c3.095-2.103,4.582-9.982,1.287-11.025   C277.149,97.926,273.339,113.509,279.375,110.068z" fill="#ffffff" data-original="#ffffff"/>
	<path style="fill-rule:evenodd;clip-rule:evenodd;" d="M323.476,163.844c-3.99-1.311-11.731,3.073-10.265,6.866   C314.768,174.757,330.697,166.884,323.476,163.844z" fill="#ffffff" data-original="#ffffff"/>
	<path style="fill-rule:evenodd;clip-rule:evenodd;" d="M311.217,400.222c3.272,1.815,10.976-0.408,10.422-3.819   C321.054,392.764,305.426,396.384,311.217,400.222z" fill="#ffffff" data-original="#ffffff"/>
	<path style="fill-rule:evenodd;clip-rule:evenodd;" d="M328.447,311.375c-4.236,1.617-7.19,10.604-3.12,12.807   C329.665,326.538,336.619,309.014,328.447,311.375z" fill="#ffffff" data-original="#ffffff"/>
</g>















</g></svg>