<svg xmlns="http://www.w3.org/2000/svg" version="1.1" xmlns:xlink="http://www.w3.org/1999/xlink" xmlns:svgjs="http://svgjs.com/svgjs" width="512" height="512" x="0" y="0" viewBox="0 0 512 512" style="enable-background:new 0 0 512 512" xml:space="preserve"><g>
<g xmlns="http://www.w3.org/2000/svg">
	<g>
		<g>
			<path style="fill-rule:evenodd;clip-rule:evenodd;" d="M94.805,389.388c40.887-18.231,77.986,0.628,114.152,26.007     c-10.234-16.198-23.413-32.728-35.888-49.179c-18.349,4.667-36.529,7.498-54.118,4.255c-15.143-2.792-30.826-8.605-44.913-18.382     c-2.067-1.437-4.31-2.893-5.915-4.924c16.339-5.765,31.33-13.752,46.665-13.602c15.445,0.15,28.93,6.862,43.531,15.823     c-7.456-12.066-18.952-23.489-28.36-33.903c-7.098-1.003-13.647,2.348-20.385,3.618c-6.809,1.287-14.147,0.41-20.538-1.578     c-6.72-2.086-13.258-5.979-19.382-11.804c14.111-2.546,28.593-5.349,41.855-2.121c4.478,1.089,8.518,3.271,12.984,4.606     c-0.053-0.066-0.111-0.135-0.163-0.202c-12.441-9.826-23.824-24.145-28.718-37.275c-2.322-6.224-3.596-12.586-4.519-19.005     c-0.478-3.334-0.899-6.296-1.894-9.464c-1.024-3.252-2.639-6.344-3.514-9.829c6.009,6.991,13.114,10.329,19.176,15.296     c6.99,5.73,12.561,12.74,16.489,21.097c3.225,6.854,4.889,14.645,6.254,21.606c1.048,5.335,2.839,10.898,4.278,16.207     c0.514,1.893,0.663,4.139,1.408,5.523c1.341,2.471,3.956,4.739,5.879,6.95c2.06,2.361,4.235,4.58,6.119,6.423     c-7.187-16.204-13.152-30.676-12.953-45.854c0.094-7.351,1.574-14.708,3.197-21.834c1.457-6.374,2.396-12.929,2.714-19.116     c0.043-0.736-0.065-2.789,0.615-2.151c3.764,5.055,8.86,8.812,12.885,13.662c4.42,5.324,8.583,10.619,11.501,16.094     c5.43,10.187,8.343,20.665,9.855,30.708c2.584,17.123,0.894,34.718-1.019,51.675c-0.288,2.55-1.387,6.094-0.658,7.51     c0.762,1.499,2.817,3.125,4.252,4.918c4.247,5.335,8.847,11.435,12.84,15.693c32.232,40.924,50.977,65.813,74.09,99.176     c-2.255,1.357-4.394,1.751-6.624,2.952c-12.518-15.099-22.709-30.921-33.376-45.198c-15.378,9.381-30.275,12.787-44.562,14.581     c-14.58,1.834-29.066,1.903-42.947,0.336c-28.261-3.187-55.955-14.921-82.192-33.87     C67.587,403.387,81.574,395.287,94.805,389.388z" fill="#7a8900" data-original="#7a8900"/>
			<g>
				<g>
					<g>
						<g>
							<g>
								<path style="fill-rule:evenodd;clip-rule:evenodd;" d="M265.189,268.763          c13.099,27.669,32.073,49.427,68.055,54.052c-0.817-3.158-2.788-6.115-4.552-9.03c-5.173-8.517-11.025-16.969-16.984-25.277          c-4.048-5.65-8.023-10.321-13.922-14.43C290.061,268.702,276.173,262.259,265.189,268.763z" fill="#a4b700" data-original="#a4b700"/>
								<path style="fill-rule:evenodd;clip-rule:evenodd;" d="M250.818,299.276          c-8.074,3.222-13.155,11.393-14.102,20.858c-0.842,8.445,2.45,16.623,4.552,24.701l1.7-2.395l0.545,3.354          c0.286-1.078,1.435,0.908,1.435,0.908c1.695-3.855,4.374-7.949,6.297-11.235c2.834-4.835,5.526-10.034,5.98-15.703          c0.582-7.327-2.262-14.813-6.105-20.49C251.022,299.274,250.922,299.275,250.818,299.276z" fill="#a4b700" data-original="#a4b700"/>
								<path style="fill-rule:evenodd;clip-rule:evenodd;" d="M284.976,319.67c-0.844,0.383,0.488,1.494,0.911,2.111          c4.807,6.962,6.557,17.027,8.842,25.907c2.062,8.056,5.281,14.167,11.227,19.263c4.221,3.627,8.329,5.859,13.597,8.439          c0,0-0.592-3.668,0.901-2.947c-0.213-1.155,2.774,1.543,2.774,1.543c-1.745-12.108-1.328-24.461-5.302-34.221          c-3.776-9.261-14.116-20.531-26.319-21.322C288.934,318.269,286.833,318.488,284.976,319.67z" fill="#a4b700" data-original="#a4b700"/>
								<path style="fill-rule:evenodd;clip-rule:evenodd;" d="M218.363,245.402c-0.062-0.343-0.303-0.165-0.303,0.001          c-8.972,3.985-17.556,6.482-24.694,11.245c-6.917,4.615-12.71,10.933-16.822,18.759          c-6.964,13.237-10.771,28.998-16.155,44.141l1.983-0.44l0.164,2.11c0.369-0.257,1.042,2.583,1.415,2.323          c4.687-3.271,9.665-6.784,14.532-10.137c6.845-4.719,13.688-9.778,19.248-16.354c5.884-6.966,9.057-14.695,11.371-24.169          C211.532,262.96,212.508,252.618,218.363,245.402z" fill="#a4b700" data-original="#a4b700"/>
								<path style="fill-rule:evenodd;clip-rule:evenodd;" d="M238.077,276.099          c-10.761,3.974-19.315,9.418-26.189,16.98c-11.11,12.228-15.745,29.489-21.723,46.373l0.092,2.25l-0.33,2.852l-1.398,3.165          c1.176-0.749,2.628-1.331,3.946-2.092c4.132-2.395,9.023-5.648,13.241-8.491c5.797-3.913,11.59-8,16.537-12.424          c8.215-7.331,12.227-16.283,13.474-30.209C236.219,288.956,235.755,280.979,238.077,276.099z" fill="#a4b700" data-original="#a4b700"/>
							</g>
							<path style="" d="M330.208,316.273c-7.838-6.997-14.871-14.127-22.702-22.322         c-5.35-5.602-10.749-11.194-17.856-16.527c-5.05-3.79-13.775-9.577-21.916-9.911c-0.428-0.018-0.846-0.018-1.267-0.006         c-0.058,0-0.115,0.006-0.175,0.006c-0.368,0.018-0.735,0.044-1.098,0.085c-0.07,0.007-0.139,0.016-0.209,0.024         c-0.397,0.05-0.786,0.114-1.18,0.196c-0.015,0.004-0.039,0.006-0.062,0.01c-0.423,0.094-0.841,0.203-1.257,0.334         c-0.026,0.009-0.05,0.02-0.079,0.028c-0.363,0.116-0.721,0.252-1.074,0.401c-0.108,0.046-0.219,0.097-0.32,0.146         c-0.276,0.124-0.546,0.258-0.817,0.405c-0.125,0.067-0.245,0.133-0.37,0.206c-0.262,0.153-0.522,0.321-0.784,0.496         c-0.106,0.073-0.211,0.143-0.324,0.22c-0.358,0.26-0.709,0.532-1.055,0.836c-6.187-12.075-13.172-26.085-20.046-39.139         c-1-1.896-2.932-4.269-3.033-5.419c-0.197-2.218,1.832-4.898,3.298-5.139c3.012-0.488,5.999,3.258,7.86,5.1         c4.903,4.87,8.095,8.471,13.922,12.017c2.555,1.559,5.634,3.807,9.355,2.982c-1.211-3.032-4.437-4.631-7.259-6.308         c-2.726-1.612-5.177-3.173-7.862-5.702c-3.862-3.641-16.438-18.312-20.832-6.26c-4.682-8.03-9.547-18.298-13.969-27.701         c-1.558-3.31-3.913-6.842-4.259-9.633c-0.514-4.138,1.947-9.732,4.788-9.971c2.639-0.222,5.687,3.701,7.264,5.704         c4.139,5.267,6.927,9.727,12.107,13.531c2.327,1.71,5.254,3.912,8.461,3.589c-0.87-3.199-4.156-4.493-6.66-6.611         c-2.163-1.828-4.303-4.148-6.658-6.612c-3.644-3.812-8.369-12.239-14.22-12.015c-4.252,0.163-5.941,3.794-6.908,7.867         c-1.858-3.622-3.581-9.059-5.177-14.761c-1.497-5.321-3.384-11.332-3.375-16.575c0.005-4.273,1.923-11.559,5.682-12.084         c2.803-0.394,5.403,2.336,7.261,3.894c2.142,1.806,3.579,3.83,6.348,4.502c0.437-1.875-2.231-4.318-4.552-6.621         c-2.735-2.718-5.85-6.159-10.571-4.485c-2.428,0.859-3.608,3.656-4.805,6.349c-0.86-2.452-0.469-5.715-0.632-9.346         c-0.274-5.915-1.928-14.028,3.266-14.489c2.31-0.207,5.497,2.211,7.554,3.29c2.577,1.357,4.49,2.858,7.85,2.989         c-0.341-2.381-3.584-3.643-6.047-5.107c-3.786-2.246-7.826-5.693-12.681-2.068c-0.144-11.354,0.188-23.19-0.423-34.078         c5.353-2.154,7.018,3.238,9.076,6.301c2.257,3.366,4.259,7.127,7.571,8.721c-0.601-3.208-2.846-6.696-5.165-10.238         c-2.545-3.89-6.146-9.417-11.789-6.594c0.221-2.531-0.365-4.488-0.618-6.633c-0.418-3.537-1.839-8.533,2.074-9.057         c5.485-0.733,11.501,10.4,16.323,11.103c-0.541-2.729-3.444-5.759-6.055-8.124c-3.793-3.429-8.545-7.22-13.888-3.569         c-0.956-7.05-5.273-12.789-0.663-18.396c1.082-1.328,2.769-2.025,4.206-3.03c1.13-0.797,2.932-1.792,3.004-3.329         c-5.485,1.164-9.23,4.056-10.823,9.085c-3.829-8.254-8.415-15.746-15.455-20.757c-0.488-0.084-0.522,0.287-0.904,0.303         c3.036,5.519,7.441,9.658,10.006,15.65c-2.091-0.263-4.757-0.982-7.538-0.276c-2.533,0.643-5.937,1.714-6.018,3.946         c4.225-0.131,6.86-2.728,10.547-2.452c5.276,0.401,5.649,5.941,7.273,10.833c-5.682-2.722-11.225,3.169-12.938,8.188         c4.497,0.096,5.723-7.08,9.927-7.272c5.896-0.27,4.766,10.07,6.088,15.963c-9.263-8.225-15.219,11.052-13.806,20.257         c4.99-0.855,3.793-18.822,9.288-19.337c3.033-0.281,3.331,2.913,5.141,4.509c0.661,10.696,0.988,22.786,0.418,33.778         c-1.829-0.989-3.146-4.128-6.05-4.504c-6.317-0.828-8.509,6.464-9.912,12.401c-1.572,6.671-2.63,14.551-0.832,19.606         c2.673-3.852,2.49-10.005,3.562-16.298c0.76-4.448,1.908-13.063,6.288-13.292c3.081-0.161,6.576,4.755,6.963,7.815         c0.512,4.053-0.498,9.233-0.253,14.479c0.365,7.586,0.784,15.311,1.885,21.104c-16.073-6.537-13.696,22.168-8.939,30.797         c1.704-1.827,0.858-4.902,0.577-7.541c-0.712-6.698-2.913-18.289,2.639-21.726c2.819-0.32,4.569,0.442,6.035,1.487         c7.079,30.609,17.82,57.522,29.85,83.14c-0.901,0.076-1.781,0.203-2.636,0.353c-0.257,0.041-0.51,0.097-0.76,0.151         c-0.611,0.122-1.216,0.258-1.803,0.416c-0.259,0.067-0.509,0.136-0.757,0.21c-0.637,0.191-1.267,0.398-1.877,0.627         c-0.154,0.058-0.312,0.106-0.469,0.167c-0.776,0.305-1.536,0.636-2.276,0.998c-0.065,0.031-0.125,0.067-0.188,0.098         c-0.673,0.334-1.324,0.69-1.961,1.065c-0.149,0.09-0.293,0.182-0.442,0.27c-0.582,0.353-1.144,0.719-1.695,1.103         c-0.113,0.077-0.223,0.151-0.339,0.23c-1.351,0.965-2.639,2.009-3.865,3.125c-2.856,2.6-5.384,5.531-7.72,8.473         c-13.09,16.521-22.05,36.428-34.796,53.204c-2.493,3.282-5.146,6.335-7.824,9.392c-0.937,2.637-1.918,5.256-2.973,7.841         c2.194-0.156,3.766-1.883,5.418-3.038c0.339-0.234,0.69-0.484,1.033-0.721c8.446-9.725,15.414-20.876,22.375-32.839         c4.769-8.197,9.583-16.776,15.296-25.086c4.254-6.192,8.6-12.507,14.609-17.008l0.01-0.005         c0.491-0.37,0.99-0.726,1.514-1.067c0.031-0.027,0.067-0.049,0.106-0.073c1.387-0.916,2.865-1.731,4.444-2.432         c0.248-0.109,0.493-0.226,0.747-0.333c0.356-0.145,0.724-0.279,1.091-0.412c0.38-0.142,0.764-0.275,1.149-0.4         c0.332-0.106,0.661-0.207,1-0.302c0.481-0.139,0.981-0.262,1.476-0.38c0.284-0.066,0.558-0.136,0.846-0.196         c0.808-0.166,1.63-0.31,2.48-0.417c5.591,9.808,10.489,20.31,16.094,30.103c-0.8,0.055-1.572,0.149-2.336,0.26         c-0.214,0.03-0.423,0.068-0.639,0.105c-0.577,0.095-1.144,0.204-1.697,0.328c-0.192,0.042-0.382,0.082-0.567,0.126         c-1.461,0.358-2.853,0.815-4.18,1.359c-0.135,0.052-0.267,0.112-0.392,0.166c-0.582,0.248-1.149,0.508-1.702,0.791         c-0.084,0.042-0.173,0.082-0.259,0.127c-1.31,0.677-2.553,1.444-3.735,2.286c-0.055,0.035-0.111,0.075-0.159,0.111         c-0.572,0.416-1.139,0.845-1.682,1.295c-9.28,7.601-14.801,20-20.221,30.275c-4.136,7.836-8.203,15.198-13.193,21.762         c-1.978,2.602-4.091,5.187-6.182,7.713c-1.168,3.298-2.382,6.585-3.711,9.816c0,0,0.875-0.62,1.199-0.911         c0.274-0.24,0.577-0.445,0.887-0.646c1.048-1.204,2.012-2.48,3.019-3.589c2.769-3.038,5.36-6.092,7.812-9.379         c4.906-6.583,8.739-13.938,12.893-21.761c3.814-7.189,7.403-15.046,12.289-22.362c1.925-2.89,4.757-6.503,8.112-9.078         c1.841-1.413,3.673-2.635,5.663-3.604c0.094-0.043,0.183-0.082,0.274-0.126c0.567-0.267,1.147-0.507,1.75-0.726         c0.243-0.094,0.5-0.188,0.755-0.269c0.279-0.091,0.558-0.174,0.837-0.252c0.43-0.119,0.868-0.225,1.312-0.317         c0.216-0.046,0.435-0.089,0.654-0.129c0.538-0.095,1.096-0.168,1.67-0.227c0.195-0.02,0.392-0.039,0.591-0.05         c0.697-0.054,1.406-0.088,2.154-0.083c3.901,5.962,6.939,12.788,10.025,19.568c-0.543-0.016-1.067,0.004-1.582,0.054         c-0.113,0.011-0.216,0.037-0.322,0.053c-0.399,0.048-0.788,0.103-1.163,0.192c-0.106,0.027-0.202,0.065-0.303,0.09         c-0.377,0.1-0.74,0.206-1.098,0.341c-0.079,0.031-0.154,0.071-0.228,0.102c-0.368,0.151-0.736,0.311-1.079,0.498         c-0.05,0.03-0.098,0.065-0.151,0.095c-0.365,0.207-0.721,0.424-1.063,0.668c-0.033,0.023-0.063,0.048-0.089,0.069         c-0.353,0.259-0.704,0.538-1.033,0.839c-0.015,0.012-0.022,0.028-0.041,0.042c-0.341,0.312-0.671,0.643-0.988,0.997         c-0.005,0.005-0.012,0.012-0.017,0.019c-0.322,0.36-0.625,0.74-0.923,1.136c-2.284,3.097-3.704,7.23-4.341,11.446         c-0.685,4.541-0.466,9.851-0.848,15.383c-0.349,5.053-0.911,10.09-1.461,14.785c-0.098,0.905-0.223,1.803-0.348,2.698         c0.815,3.131,0.986,6.123,1.601,9.362c0,0,0.476-2.675,0.889-4.227c0.284-1.06,0.697-2.16,1.192-3.272         c0-0.014,0.005-0.033,0.005-0.049c0.663-3.481,1.19-7.354,1.466-11.466c0.882-12.974-0.659-26.257,5.009-33.798         c0.257-0.344,0.565-0.679,0.894-1.003c0.125-0.121,0.248-0.244,0.377-0.362c0.113-0.094,0.228-0.183,0.349-0.278         c0.14-0.111,0.284-0.222,0.433-0.326c0.127-0.084,0.252-0.158,0.385-0.237c0.161-0.1,0.324-0.192,0.5-0.279         c0.13-0.07,0.267-0.128,0.409-0.191c0.183-0.079,0.37-0.149,0.565-0.214c0.144-0.048,0.288-0.093,0.428-0.13         c0.209-0.056,0.435-0.095,0.647-0.131c0.149-0.024,0.288-0.05,0.438-0.062c0.252-0.025,0.514-0.025,0.779-0.02         c0.125,0.001,0.255-0.007,0.389,0.002c0.401,0.03,0.81,0.086,1.24,0.188c1.846,1.936,2.661,4.765,3.649,7.227         c7.066,17.639,12.121,39.37,11.076,64.204c-0.74,17.747-3.971,34.478-8.271,49.518c2.738,1.103,5.235,2.705,7.372,4.706         c3.437-11.197,6.513-23.024,8.21-36.155c2.731-21.274,1.344-44.882-4.149-63.324c0.243-0.313,0.517-0.594,0.829-0.841         c0.12-0.098,0.264-0.169,0.396-0.258c0.202-0.133,0.389-0.276,0.61-0.387c0.188-0.097,0.399-0.167,0.601-0.25         c0.178-0.07,0.346-0.153,0.529-0.209c0.264-0.085,0.539-0.141,0.812-0.198c0.139-0.028,0.269-0.068,0.409-0.089         c0.332-0.058,0.678-0.088,1.017-0.111c0.089-0.007,0.166-0.018,0.252-0.023c0.394-0.019,0.784-0.013,1.18,0.008         c0.036,0.001,0.065,0.001,0.108,0.001c0.418,0.026,0.836,0.076,1.25,0.142c0.01,0.001,0.015,0.001,0.019,0.004         c0.423,0.068,0.829,0.157,1.226,0.267c0.005,0,0.014,0.002,0.014,0.002l0.005,0.001c0.13,0.035,0.264,0.059,0.384,0.099         c10.21,3.188,16.866,18.261,21.214,27.976c3.865,8.646,7.09,16.764,11.544,24.733c1.339,0.656,2.728,1.327,4.235,2.054         c-0.214-1.15-0.396-2.303-0.56-3.46c-0.125-0.251-0.245-0.506-0.36-0.761c-3.706-8.168-7.595-16.29-11.552-24.692         c-4.649-9.867-11.174-22.84-20.901-27.674c-1.533-0.76-3.346-1.208-5.182-1.333c-0.226-0.014-0.447-0.014-0.678-0.019         c-0.329-0.008-0.654-0.006-0.986,0.008c-0.219,0.007-0.442,0.016-0.664,0.034c-0.481,0.042-0.966,0.112-1.435,0.202         c-0.171,0.034-0.334,0.077-0.497,0.114c-0.418,0.101-0.825,0.216-1.221,0.358c-0.106,0.036-0.212,0.066-0.315,0.107         c-0.478,0.188-0.93,0.411-1.368,0.662c-0.098,0.06-0.207,0.128-0.308,0.19c-0.437,0.279-0.851,0.582-1.226,0.93         c-4.432-17.725-10.4-33.909-17.959-48.494c0.291-0.246,0.587-0.471,0.884-0.684c0.144-0.1,0.298-0.186,0.438-0.279         c0.163-0.102,0.322-0.209,0.481-0.303c0.202-0.112,0.399-0.213,0.601-0.315c0.111-0.053,0.214-0.117,0.327-0.168         c0.236-0.112,0.481-0.21,0.726-0.304c0.067-0.028,0.144-0.063,0.211-0.088c0.274-0.101,0.546-0.186,0.824-0.266         c0.041-0.013,0.084-0.03,0.132-0.041c0.298-0.082,0.601-0.152,0.901-0.21c0.019-0.007,0.041-0.011,0.06-0.016         c0.317-0.059,0.639-0.11,0.954-0.149l0.026-0.002c0.322-0.038,0.654-0.064,0.981-0.078c0.005-0.001,0.007-0.002,0.007-0.002         c8.429-0.371,17.799,6.617,22.637,10.641c12.616,10.5,21.389,22.915,32.989,33.967c2.682,2.553,5.824,4.848,8.859,7.116         c0.87,0.137,1.74,0.27,2.63,0.383C332.662,320.549,331.474,318.39,330.208,316.273z" fill="#7a8900" data-original="#7a8900"/>
						</g>
						<g>
							<g>
								<path style="fill-rule:evenodd;clip-rule:evenodd;" d="M168.119,22.988c1.63,1.871,4.221,4.014,6.658,5.708          c2.298,1.602,5.475,3.986,8.446,2.081c-0.69-7.071-6.259-9.233-9.999-13.236C171.253,19.086,169.878,21.232,168.119,22.988z          " fill="#8787cf" data-original="#8787cf"/>
								<path style="fill-rule:evenodd;clip-rule:evenodd;" d="M167.491,16.958c-2.651-0.406-6.851-2.386-8.141,0.029          c-1.894,4.33,3.572,5.402,7.261,6.008c-0.428,1.798-2.488,5.204,0.024,6.332c2.161-0.155,2.733-1.894,2.997-3.93          c1.307,0.162,5.086,2.826,5.73-0.622c0.293-1.571-1.291-2.038-1.822-3.614c2.216-1.626,7.958-2.085,6.918-5.454          c-0.74-2.387-4.975-1.207-7.24-0.276c0.928-2.553,0.957-7.855-2.134-6.93C168.273,9.718,168.474,13.923,167.491,16.958z" fill="#acacf1" data-original="#acacf1"/>
							</g>
							<g>
								<path style="fill-rule:evenodd;clip-rule:evenodd;" d="M223.069,38.479c-1.156-2.471-2.711-4.539-3.952-6.921          c-0.252-0.055-0.279,0.119-0.298,0.301c-3.716,1.857-6.939,2.877-11.446,4.868c-1.952,0.862-5.11,1.82-4.812,3.937          c0.149,1.064,1.591,1.848,3.026,2.099C211.296,43.768,218.954,40.241,223.069,38.479z" fill="#8787cf" data-original="#8787cf"/>
								<path style="fill-rule:evenodd;clip-rule:evenodd;" d="M216.075,22.821c-1.37,1.466-1.543,5.135-0.579,7.24          c-2.146-0.296-4.355,0.694-4.514,2.431c-0.288,3.075,4.199,3.754,6.651,4.804c-1.351,2.423-3.125,7.541,0.332,8.14          c2.512,0.434,3.932-2.413,4.807-4.842c1.572,1.986,6.874,3.961,7.542,0.578c0.601-3.039-2.921-4.47-5.683-5.263          c2.103-2.111,5.222-2.41,5.041-6.802c-0.021-0.503-0.436-0.923-1.209-0.901c-3.125,0.311-4.446,2.405-6.629,3.644          C221.309,27.603,221.276,21.371,216.075,22.821z" fill="#acacf1" data-original="#acacf1"/>
							</g>
							<g>
								<path style="fill-rule:evenodd;clip-rule:evenodd;" d="M161.879,49.856c5.869,1.895,19.067,3.465,19.286-4.594          c-1.88-2.506-6.427-1.124-9.96-1.475c-2.567-0.253-4.85-1.286-6.638-1.785C163.052,44.007,162.422,46.884,161.879,49.856z" fill="#8787cf" data-original="#8787cf"/>
								<path style="fill-rule:evenodd;clip-rule:evenodd;" d="M162.442,39.295c-1.954-1.863-2.774-4.876-6.946-4.5          c-2.855,2.793,1.019,6.001,2.437,8.135c-3.201,0.653-6.946,0.158-7.225,3.041c-0.332,3.439,4.649,3.914,8.756,3.287          c1.642,2.89,1.336,7.737,6.055,7.52c2.163-2.283-0.07-6.353-1.531-7.837c2.699,0.394,6.631,1.478,7.237-0.93          c0.634-2.524-2.863-3.074-5.144-3.902c1.062-2.149,5.72-5.595,4.795-9.063C169.484,29.821,162.961,37.004,162.442,39.295z" fill="#acacf1" data-original="#acacf1"/>
							</g>
							<g>
								<path style="fill-rule:evenodd;clip-rule:evenodd;" d="M164.975,72.161c2.009,3.022,4.24,5.821,6.961,8.119          c1.86-2.946,3.798-5.353,6.307-8.465c1.923-2.395,6.05-5.962,5.697-9.069c-0.736-6.49-9.528,2.056-11.148,3.355          C169.698,68.593,167.292,70.474,164.975,72.161z" fill="#8787cf" data-original="#8787cf"/>
								<path style="fill-rule:evenodd;clip-rule:evenodd;" d="M171.887,75.928c0.726-1.38,2.062-2.162,1.798-4.529          c-0.113-0.585-0.589-1.012-1.211-1.201c-2.219-0.4-2.711,0.914-3.918,1.52c-0.526-3.907-0.693-9.49-4.552-8.73          c-2.417,0.598-1.75,5.122-1.178,7.847c-1.781-0.53-3.125-1.494-5.737-1.189c-0.478,0.051-0.829,0.381-0.901,0.91          c-0.226,4.06,3.108,4.538,5.451,6.009c-1.865,2.561-6.607,3.715-5.401,7.862c1.097,2.724,6.036-1.405,8.48-2.376          c0.452,3.154,0.665,6.726,3.3,6.556c2.822-0.179,2.786-4.198,2.682-8.149c3.807,0.578,9.114,0.826,9.04-2.445          C179.674,75.25,174.987,74.829,171.887,75.928z" fill="#acacf1" data-original="#acacf1"/>
							</g>
							<g>
								<path style="fill-rule:evenodd;clip-rule:evenodd;" d="M218.05,71.676c-3.202,3.105,2.077,10.218,3.971,12.955          c2.67,3.86,5.437,6.806,7.273,9.323c2.053-1.566,4.1-3.138,6.312-4.546c-5.269-3.786-8.201-12.889-13.931-16.839          C221.026,72.113,219.661,71.639,218.05,71.676z" fill="#8787cf" data-original="#8787cf"/>
								<path style="fill-rule:evenodd;clip-rule:evenodd;" d="M233.198,89.418c-1.803-0.572-8.184-3.807-8.749,0.03          c-0.25,1.722,2.735,3.022,4.215,3.732c-0.546,1.759-3.797,1.592-3.283,4.409c0.08,0.373,0.337,0.851,0.911,0.899          c2.646-0.076,3.598-1.832,5.422-2.733c1.466,1.838,1.531,5.841,4.24,5.717c4.036-0.186,1.019-6.663-0.632-8.744          c2.187-0.029,4.653,0.215,6.026-0.624c0.926-0.643,1.031-1.698,0.301-2.412c-1.05-0.866-2.548-1.271-4.233-1.495          c0.964-2.257-0.286-5.693-3.031-4.213C232.621,85.153,233.087,87.103,233.198,89.418z" fill="#acacf1" data-original="#acacf1"/>
							</g>
							<g>
								<path style="fill-rule:evenodd;clip-rule:evenodd;" d="M169.008,104.421c2.202,2.319,5.343,3.697,8.461,5.097          c1.149-3.786,3.442-6.687,5.995-10.88c1.735-2.848,8.792-13.503,2.062-14.183c-4.1-0.411-7.232,6.657-9.013,9.382          C173.705,98.14,171.758,101.041,169.008,104.421z" fill="#8787cf" data-original="#8787cf"/>
								<path style="fill-rule:evenodd;clip-rule:evenodd;" d="M163.244,93.708c-3.194,2.667-0.091,7.625,1.538,9.95          c-3.425,0.446-7.045,0.264-7.22,3.042c-0.221,3.32,4.658,4.012,9.054,3.888c-0.786,1.304-5.971,8.19-1.772,9.358          c3.178,0.886,6.105-6.044,7.504-7.568c1.769,2.017,1.947,5.705,5.148,5.412c3.709-0.343,2.975-6.487,1.173-9.355          c2.62-1.392,6.946-3.674,4.802-7.86c-2.764-1.367-5.61,0.573-7.538,1.838c2.846-5.421-3.913-7.663-4.221-1.495          C169.33,98.074,168.431,93.732,163.244,93.708z" fill="#acacf1" data-original="#acacf1"/>
							</g>
							<g>
								<path style="fill-rule:evenodd;clip-rule:evenodd;" d="M215.719,94.303c-0.625,4.555,2.086,8.36,3.966,11.447          c1.995,3.288,4.42,6.238,6.966,8.722c2.471-1.651,4.855-3.396,6.619-5.753c-3.307-2.175-5.735-4.832-8.48-8.415          C222.252,96.986,220.637,92.554,215.719,94.303z" fill="#8787cf" data-original="#8787cf"/>
								<path style="fill-rule:evenodd;clip-rule:evenodd;" d="M230.241,109.067c-1.605-0.806-3.39-3.792-5.725-2.428          c-2.235,1.732-0.298,4.177,1.822,4.82c-1.899,0.921-4.958,2.11-4.509,3.936c1.579,2.989,5.908,0.465,8.141-0.331          c0.925,2.298,4.026,6.776,6.651,3.596c1.214-1.871-1.108-4.337-2.137-6.022c2.016-1.393,6.521-1.029,6.021-3.944          c-0.293-1.696-2.899-2.068-5.439-1.489C235.284,100.877,229.854,104.016,230.241,109.067z" fill="#acacf1" data-original="#acacf1"/>
							</g>
							<g>
								<path style="fill-rule:evenodd;clip-rule:evenodd;" d="M239.399,136.447c1.62-4.079,2.418-9.181,3.562-14.189          c-8.235,0.288-14.926-4.299-21.733-5.351c-1.492-0.231-3.774,0.8-4.216,1.824c-1,2.287,2.077,5.93,3.043,6.927          C224.79,130.549,232.563,133.917,239.399,136.447z" fill="#8787cf" data-original="#8787cf"/>
								<path style="fill-rule:evenodd;clip-rule:evenodd;" d="M249.146,129.516c3.288-2.232,12.96-6.392,7.797-11.487          c-2.585-1.908-7.199,1.668-10.234,3.053c-0.25-3.883,0.01-9.819-4.264-9.337c-4.182,0.474-4.24,9.732-3.264,14.489          c-5.836-0.166-13.902-0.049-13.859,4.572c0.029,3.151,4.1,3.904,8.759,3.588c-1.308,1.145-6.487,8.59-1.779,9.963          c3.567,1.032,5.269-3.127,6.927-5.152c1.327,2.178,1.73,5.008,3.341,7.527c1.182,1.852,3.531,4.885,5.747,4.807          c4.887-0.174,2.598-8.437,0.865-11.767c2.089,1.976,8.814,4.493,9.953,0.57c0.433-1.495-0.365-3.581-1.226-4.822          C256.167,132.992,251.956,130.735,249.146,129.516z" fill="#acacf1" data-original="#acacf1"/>
							</g>
							<g>
								<path style="fill-rule:evenodd;clip-rule:evenodd;" d="M165.581,160.23c4.355,1.769,7.725,4.529,12.686,5.687          c0.62-9.281,8.799-22.463,7.124-33.805c-0.308-2.059-1.36-5.203-4.543-4.81c-4.846,0.592-6.018,12.08-7.48,16.611          C171.284,150.376,167.45,154.337,165.581,160.23z" fill="#8787cf" data-original="#8787cf"/>
								<path style="fill-rule:evenodd;clip-rule:evenodd;" d="M164.696,165.361          c-1.918,3.859-6.889,10.113-3.269,14.791c5.461,0.296,7.917-6.02,9.922-9.687c2.178,2.508,2.476,8.42,6.362,8.423          c5.723,0.005,1.921-10.582-0.349-12.969c4.552-0.779,9.931-4.567,7.511-9.376c-3.499-1.459-6.482,1.152-8.742,2.745          c0.745-2.438,2.101-6.665-0.329-8.143c-3.891,0.349-3.646,4.795-5.704,6.959c-2.803-4.296-3.865-11.768-10.292-11.428          c-2.303,4.792,2.48,9.352,4.264,12.956c-5.153,1.294-12.184,0.722-12.342,6.98          C155.248,169.399,161.302,166.466,164.696,165.361z" fill="#acacf1" data-original="#acacf1"/>
							</g>
							<g>
								<path style="fill-rule:evenodd;clip-rule:evenodd;" d="M241.951,178.06c2.846-4.491,5.66-9.008,8.403-13.6          c-6.446-4.419-12.801-11.174-18.464-17.732c-1.841-2.137-3.947-5.17-6.052-6.009c-4.168-1.662-6.372,0.949-6.014,6.052          c0.481,6.833,4.877,12.669,8.809,18.065C232.558,170.216,237.13,174.995,241.951,178.06z" fill="#8787cf" data-original="#8787cf"/>
								<path style="fill-rule:evenodd;clip-rule:evenodd;" d="M262.48,182.814c2.97-4.554-7.139-8.97-10.299-13.537          c2.461-0.894,5.581-1.479,8.429-2.442c2.42-0.814,7.652-2.762,5.411-5.146c-3.456-2.731-10.717,1.216-14.438,2.002          c-0.687-2.9,1.413-7.297-0.964-7.98c-4.447-1.279-5.879,6.149-4.788,10.875c-2.98-1.663-12.974-5.998-13.873-0.856          c-0.685,3.935,6.105,5.865,8.47,7.211c-2.947,2.483-7.783,3.092-7.816,8.468c3.154,2.879,7.74-0.931,10.249-2.448          c1.327,3.368,1.113,9.467,5.163,9.033c3.382-0.369,3.079-6.698,2.069-10.565C252.96,179.254,258.603,186.768,262.48,182.814          z" fill="#acacf1" data-original="#acacf1"/>
							</g>
							<g>
								<path style="fill-rule:evenodd;clip-rule:evenodd;" d="M289.148,220.122c0.995-5.03,1.805-10.233,2.365-15.695          c-6.571-1.623-13.33-2.994-19.926-5.056c-6.74-2.104-13.337-5.851-19.93-6.264c-3.156-0.201-6.535,0.691-7.23,3.039          c-1.231,4.197,4.61,8.197,6.973,9.929C261.629,213.575,273.873,218.27,289.148,220.122z" fill="#8787cf" data-original="#8787cf"/>
								<path style="fill-rule:evenodd;clip-rule:evenodd;" d="M287.903,207.156          c-3.391-0.333-17.214-4.151-17.19,1.868c0.015,4.29,9.989,4.592,13.292,5.987c-2.392,2.78-7.352,4.855-9.624,7.876          c-1.154,1.532-2.576,4.811,0.322,5.729c2.466,0.78,5.877-1.322,8.436-2.744c2.822-1.571,5.076-3.149,6.62-4.549          c1.334,3.29,5.624,13.938,11.196,11.12c2.5-4.674-1.365-9.608-3.062-12.956c3.425,0.733,13.775,4.335,14.171-1.559          c0.12-1.74-1.709-3.996-3.031-5.116c-2.903-2.458-7.742-4.08-12.085-4.783c-0.168-1.416,1.863-2.244,3.007-3.329          c1.601-1.52,5.312-4.647,5.105-7.559c-0.519-6.986-12.054,1.817-12.96,3.967c-1.668-2.856-3.971-9.339-7.876-9.624          c-5.944-0.436-1.894,6.907-0.269,9.653C285.374,203.527,286.554,205.772,287.903,207.156z" fill="#acacf1" data-original="#acacf1"/>
							</g>
							<g>
								<path style="fill-rule:evenodd;clip-rule:evenodd;" d="M182.091,223.512          c6.064,0.352,11.347,1.487,17.202,2.049c-2.463-14.061,0.976-37.494-8.001-44.308c-3.473-2.64-4.891,6.113-5.093,9.067          C185.391,201.979,185.179,214.248,182.091,223.512z" fill="#8787cf" data-original="#8787cf"/>
								<path style="fill-rule:evenodd;clip-rule:evenodd;" d="M186.605,220.177          c-4.175-3.206-7.655-12.819-16.325-10.5c-1.046,4.07,1.68,6.945,3.355,9.339c1.858,2.668,3.843,5.116,5.752,7.518          c-5.552-0.206-16.796,0.691-16.868,5.188c-0.103,5.659,13.196,3.653,16.287,1.45c-0.562,2.258-7.254,15.432-0.846,16.592          c3.014,0.546,5.201-2.651,6.617-4.547c1.885-2.517,3.098-4.466,3.901-7.253c1.404,3.73,0.361,16.469,6.389,15.663          c6.417-0.863,5-14.115,4.449-21.431c3.531,0.241,8.516,5.581,12.979,2.972c-0.125-3.116-2.891-4.436-4.848-5.715          c-2.077-1.352-4.384-2.626-6.949-3.292c1.632-3.446,5.519-7.257,5.987-12.087c0.221-2.247-0.101-5.07-2.125-5.421          c-2.177-0.376-4.31,2.482-5.417,3.941c-1.601,2.109-2.134,4.208-3.293,6.043c-1.543-3.438-1.779-11.941-5.778-12.043          C185.465,206.48,186.367,215.029,186.605,220.177z" fill="#acacf1" data-original="#acacf1"/>
							</g>
							<g>
								<path style="fill-rule:evenodd;clip-rule:evenodd;" d="M260.555,235.905c-0.216,5.359,3.764,9.239,6.98,12.039          c3.389,2.953,7.595,5.384,11.181,7.501c7.778,4.592,16.969,8.843,27.482,9.858c0.86-6.764,2.735-12.511,3.25-19.618          c-8.225-0.875-15.166-2.445-22.339-5.049c-6.804-2.476-13.171-6.924-19.632-7.473          C264.249,232.891,261.908,233.57,260.555,235.905z" fill="#8787cf" data-original="#8787cf"/>
								<path style="fill-rule:evenodd;clip-rule:evenodd;" d="M306.985,231.22c-1.863,1.309-1.74,5.677-1.175,8.447          c-1.764-0.608-5.735-4.719-9.071-6.001c-2.211-0.85-4.254-0.829-5.427,0.924c0.077,4.275,3.216,6.495,5.458,8.729          c2.319,2.305,4.682,4.572,6.963,6.913c-5.307-0.189-14.565-2.332-14.772,2.765c-0.183,4.599,9.121,5.761,12.696,7.196          c-2.531,1.846-9.047,4.409-11.737,7.277c-1.271,1.353-2.661,4.329-1.185,6.039c5.394,2.515,13.667-3.623,18.685-5.194          c1.158,3.099,1.216,7.021,2.452,10.848c0.884,2.769,4.408,9.23,7.859,6.005c3.822-3.571-3.245-14.314-3.985-16.875          c5.177,1.752,10.268,10.681,16.318,8.087c3.411-1.908-0.094-6.989-2.146-9.345c-2.815-3.236-7.646-5.901-9.679-7.808          c5.12-0.064,18.099,1.548,18.995-2.779c0.75-3.621-4.134-4.811-7.562-5.702c-3.793-0.994-7.461-1.746-11.46-1.773          c2-1.309,4.019-2.091,6.62-3.643c1.769-1.056,5.312-2.729,5.105-5.146c-0.486-5.776-15.018,1.181-16.878,2.775          C313.068,236.995,312.962,231.152,306.985,231.22z" fill="#acacf1" data-original="#acacf1"/>
							</g>
						</g>
					</g>
					<g>
						<g>
							<path style="fill-rule:evenodd;clip-rule:evenodd;" d="M281.053,286.986c-1.552,3.065,2.87,8.911,5.535,7.676         C289.446,293.339,283.764,281.715,281.053,286.986z" fill="#ffffff" data-original="#ffffff"/>
							<path style="fill-rule:evenodd;clip-rule:evenodd;" d="M289.96,296.637c-1.247,3.237,2.86,8.916,5.533,7.673         C298.344,302.998,292.667,291.365,289.96,296.637z" fill="#ffffff" data-original="#ffffff"/>
						</g>
						<g>
							<path style="fill-rule:evenodd;clip-rule:evenodd;" d="M226.367,312.592c3.096-0.295,4.798-6.02,2.74-7.279         C226.915,303.962,221.526,313.132,226.367,312.592z" fill="#ffffff" data-original="#ffffff"/>
							<path style="fill-rule:evenodd;clip-rule:evenodd;" d="M224.184,302.917c3.176-0.421,4.802-6.016,2.74-7.278         C224.727,294.287,219.343,303.46,224.184,302.917z" fill="#ffffff" data-original="#ffffff"/>
						</g>
						<g>
							<path style="fill-rule:evenodd;clip-rule:evenodd;" d="M175.295,288.24c-3.948,0.474-5.939,7.227-3.461,8.805         C174.495,298.727,181.201,287.664,175.295,288.24z" fill="#ffffff" data-original="#ffffff"/>
							<path style="fill-rule:evenodd;clip-rule:evenodd;" d="M197.625,283.791c-3.652,0.288-5.951,7.226-3.461,8.806         C196.808,294.282,203.523,283.213,197.625,283.791z" fill="#ffffff" data-original="#ffffff"/>
						</g>
					</g>
				</g>
				<g>
					<path style="fill-rule:evenodd;clip-rule:evenodd;" d="M228.761,339.946c0.418-0.07,0.644,0.064,0.735,0.345       c0.284,19.091,8.636,32.396,18.18,43.21c18.909,21.425,43.601,37.494,55.854,65.195c6.735,15.236,9.379,35.822,8.42,60.191       c-1.582-1.394-1.651-2.93-2.666-4.663c-5.338-9.112-18.993-15.459-12.749-29.518c-13.448,0.415-17.409-13.967-11.907-25.176       c-8.014-1.525-16.118-2.959-15.618-13.435c-9.802,4.426-20.921-0.505-21.719-10.008c-0.389-4.503,1.827-7.7,3.711-11.374       c-8.533-0.392-16.654-2.918-17.363-10.481c-0.562-6.02,4.163-8.927,6.571-13.629c-2.605-4.29-6.523-7.784-9.407-12.503       c-3.875-6.34-6.812-13.776-6.071-24.59C225.073,348.446,226.963,344.563,228.761,339.946z" fill="#a4b700" data-original="#a4b700"/>
					<g>
						<path style="fill-rule:evenodd;clip-rule:evenodd;" d="M357.284,322.462c9.518,1.505,16.404-5.585,14.191-15.496        c1.771,0.162,3.913,1.203,6.021,1.142c6.713-0.189,11.419-7.743,9.4-15.325c6.73,2.42,15.503,1.315,17.349-4.556        c1.262-4.007-0.981-8.106-3.48-10.947c10.136-6.185,20.327-18.406,17.349-35.156c-1.298,1.184-1.923,3.283-2.699,5.016        c-2.353,5.218-5.074,10.167-8.739,14.389c-6.242,7.181-14.698,10.554-23.115,15.537c-7.703,4.556-15.921,9.973-22.185,16.517        c-6.869,7.185-11.179,14.878-14.479,24.729c-3.113,9.318-6.432,18.872-11.388,28.014c0.053,0.27-0.135,0.296-0.327,0.306        c2.101-1.34,4.083-2.277,6.797-3.294c2.432-0.91,5.519-1.427,7.725-2.628C355.431,337.6,358.135,331.337,357.284,322.462z" fill="#a4b700" data-original="#a4b700"/>
						<g>
							<path style="fill-rule:evenodd;clip-rule:evenodd;" d="M368.057,396.856         c12.508,2.183,21.738-7.027,19.027-20.138c2.327,0.251,5.127,1.668,7.91,1.633c8.852-0.113,15.222-9.98,12.708-20.016         c8.831,3.328,20.423,2.051,22.973-5.653c1.745-5.257-1.123-10.708-4.365-14.503c13.486-7.95,27.177-23.852,23.598-45.998         c-1.74,1.531-2.605,4.286-3.673,6.557c-3.207,6.836-6.891,13.301-11.811,18.793c-8.374,9.342-19.596,13.613-30.794,20.01         c-10.246,5.854-21.202,12.823-29.593,21.326c-9.21,9.331-15.046,19.386-19.594,32.307         c-4.298,12.221-8.869,24.752-15.594,36.701c0.062,0.358-0.178,0.388-0.437,0.398c2.793-1.725,5.432-2.922,9.025-4.204         c3.228-1.149,7.314-1.765,10.246-3.305C365.297,416.78,368.989,408.58,368.057,396.856z" fill="#a4b700" data-original="#a4b700"/>
							<g>
								<path style="fill-rule:evenodd;clip-rule:evenodd;" d="M374.422,365.715c-4.292,0.188-6.896,7.587-4.273,9.448          C372.966,377.15,380.917,365.41,374.422,365.715z" fill="#ffffff" data-original="#ffffff"/>
								<path style="fill-rule:evenodd;clip-rule:evenodd;" d="M375.344,377.355c-4.758-0.006-6.91,7.577-4.273,9.445          C373.873,388.787,381.834,377.044,375.344,377.355z" fill="#ffffff" data-original="#ffffff"/>
							</g>
						</g>
						<g>
							<g>
								<path style="fill-rule:evenodd;clip-rule:evenodd;" d="M477.904,174.939          c-8.408-4.608-17.277-6.553-27.014-3.555c0.166-1.431,1.055-2.531,1.591-3.818c1.457-3.513,2.526-7.749,2.848-11.671          c0.413-5.239,0.13-10.981-2.495-16.704c-11.523,5.5-26.281,9.936-37.587,20.507c-3.375,3.152-5.684,6.33-7.739,10.15          c-1.007,1.871-2.106,3.567-2.788,5.33c-0.69,1.78-0.988,3.682-1.505,5.555c-2.043,7.418-4.148,13.929-10.852,21.108          c-2.276,2.443-8.828,7.015-7.223,10.239c1.048,2.084,3.802,2.241,5.937,2.365c2.315,0.132,4.504,0.458,6.206,0.823          c4.187,0.895,8.177,2.934,11.717,4.836c7.891,4.248,15.207,8.827,22.932,12.492c15.861,7.532,32.201,7.248,51.143-5.034          c-3.444-5.873-7.177-11.197-11.388-14.965c-4.25-3.793-9.013-5.222-13.441-6.326          C473.549,199.589,477.635,186.125,477.904,174.939z" fill="#d33400" data-original="#d33400"/>
								<path style="fill-rule:evenodd;clip-rule:evenodd;" d="M424.055,197.62c1.062,0.804,2.557,0.008,3.519-0.44          c3.793-1.763,7.716-4.306,11.537-6.966c7.86-5.464,15.801-12.578,21.971-19.685c2.853-3.275,5.439-6.984,7.271-10.494          c1.904-3.635,3.685-7.759,3.932-11.08c0.101-1.357-0.536-5.7-3.19-5.189c-3.559,0.685-3.913,6.505-4.141,8.529          c-0.168,1.439-0.493,3.074-0.557,4.667c-0.063,1.572,0.567,3.616,0.211,4.8c-0.365,1.264-2.182,3.296-3.507,4.936          c-8.266,10.22-21.139,20.243-34.542,28.72C425.627,196.007,424.48,196.552,424.055,197.62z" fill="#ffbe49" data-original="#ffbe49"/>
								<path style="fill-rule:evenodd;clip-rule:evenodd;" d="M434.438,195.74c0.461,0.839,1.714,0.298,2.355,0.149          c2.605-0.603,5.451-1.846,8.268-2.648c10.552-2.997,21.954-5.421,31.977-5.094c1.437,1.981,5.817,4.318,7.838,2.831          c1.173-0.873,1.168-1.893,0.132-3.02c-2.36-2.554-8.912-2.731-11.972-2.632c-4.564,0.151-8.761,1.176-12.784,1.986          c-7.045,1.425-12.732,2.761-19.551,5.162C438.409,193.287,435.924,194.124,434.438,195.74z" fill="#ffbe49" data-original="#ffbe49"/>
								<path style="fill-rule:evenodd;clip-rule:evenodd;" d="M425.175,201.787c0.764,0.87,2.014,0.318,2.87,0.239          c14.441-1.366,29.155-1.837,43.103,0.827c1.411,2.081,3.161,3.228,5.985,4.355c1.502,0.602,5.896,1.088,4.915-1.65          c-0.954-2.656-5.394-3.281-7.398-3.811c-11.277-2.974-23.589-3.521-35.232-2.75c-3.461,0.229-7.259,0.375-10.907,1.125          C427.338,200.366,425.718,200.688,425.175,201.787z" fill="#ffbe49" data-original="#ffbe49"/>
								<path style="fill-rule:evenodd;clip-rule:evenodd;" d="M382.377,212.834          c5.716,2.092,12.047,3.063,18.435,3.501c6.35,0.438,12.681-0.043,19.31-2.292c11.297-3.831,20.896-12.346,27.727-20.788          c2.425-3.001,4.93-5.895,6.59-8.896c-0.115-0.101-0.259-0.044-0.363-0.197c-11.251-3.576-24.692-4.231-37.719,0.123          C402.245,188.997,388.535,201.62,382.377,212.834z" fill="#ff4f00" data-original="#ff4f00"/>
							</g>
							<g>
								<path style="fill-rule:evenodd;clip-rule:evenodd;" d="M336.467,114.888          c-7.165,6.368-11.974,14.075-12.414,24.254c-1.291-0.64-2.036-1.848-3.067-2.784c-2.817-2.55-6.451-4.984-10.04-6.597          c-4.79-2.152-10.299-3.807-16.568-3.259c1.312,12.702,0.534,28.094,6.701,42.294c1.834,4.236,4.052,7.478,6.961,10.692          c1.425,1.578,2.658,3.181,4.086,4.415c1.449,1.249,3.139,2.169,4.73,3.283c6.302,4.412,11.727,8.583,16.243,17.307          c1.533,2.966,3.649,10.671,7.215,10.238c2.317-0.282,3.389-2.828,4.221-4.797c0.904-2.133,1.947-4.088,2.865-5.565          c2.245-3.647,5.504-6.722,8.487-9.417c6.646-6.006,13.417-11.363,19.462-17.405c12.422-12.42,17.637-27.908,12.422-49.871          c-6.687,1.274-12.951,3.001-17.916,5.71c-5,2.726-7.951,6.737-10.468,10.532          C358.224,127.264,346.91,118.895,336.467,114.888z" fill="#d33400" data-original="#d33400"/>
								<path style="fill-rule:evenodd;clip-rule:evenodd;" d="M339.757,173.22c1.115-0.728,0.865-2.401,0.764-3.457          c-0.382-4.165-1.466-8.714-2.687-13.209c-2.509-9.237-6.547-19.105-11.167-27.307c-2.129-3.783-4.759-7.462-7.446-10.365          c-2.788-3.01-6.071-6.075-9.124-7.422c-1.24-0.549-5.547-1.41-5.951,1.262c-0.548,3.582,4.812,5.867,6.641,6.768          c1.301,0.635,2.728,1.495,4.214,2.087c1.461,0.583,3.591,0.682,4.586,1.407c1.067,0.776,2.375,3.163,3.473,4.966          c6.85,11.215,11.974,26.702,15.465,42.174C338.767,171.205,338.892,172.467,339.757,173.22z" fill="#ffbe49" data-original="#ffbe49"/>
								<path style="fill-rule:evenodd;clip-rule:evenodd;" d="M341.473,162.812c0.942-0.154,0.853-1.51,0.928-2.165          c0.308-2.662,0.091-5.755,0.284-8.679c0.716-10.945,2.267-22.501,5.927-31.833c2.351-0.692,6.023-4.032,5.297-6.433          c-0.423-1.397-1.387-1.738-2.798-1.134c-3.197,1.362-5.562,7.476-6.494,10.392c-1.394,4.353-1.841,8.652-2.423,12.707          c-1.019,7.115-1.668,12.922-1.697,20.153C340.493,158.25,340.444,160.871,341.473,162.812z" fill="#ffbe49" data-original="#ffbe49"/>
								<path style="fill-rule:evenodd;clip-rule:evenodd;" d="M344.057,173.567c1.074-0.424,0.978-1.787,1.187-2.621          c3.56-14.064,8.054-28.083,15.246-40.327c2.432-0.629,4.105-1.89,6.11-4.174c1.077-1.218,3.007-5.194,0.096-5.186          c-2.817,0.011-4.899,3.978-6.076,5.69c-6.581,9.623-11.229,21.04-14.407,32.263c-0.947,3.335-2.086,6.968-2.603,10.654          C343.444,171.056,343.204,172.686,344.057,173.567z" fill="#ffbe49" data-original="#ffbe49"/>
								<path style="fill-rule:evenodd;clip-rule:evenodd;" d="M340.098,217.591c3.889-4.68,6.927-10.321,9.484-16.189          c2.543-5.839,4.221-11.961,4.326-18.964c0.183-11.926-4.62-23.827-10.28-33.095c-2.012-3.29-3.901-6.623-6.165-9.193          c-0.135,0.073-0.13,0.227-0.308,0.279c-7.148,9.399-12.273,21.836-12.547,35.567          C324.312,190.876,331.604,208.029,340.098,217.591z" fill="#ff4f00" data-original="#ff4f00"/>
							</g>
							<path style="fill-rule:evenodd;clip-rule:evenodd;" d="M341.132,251.365         c1.154-11.749,4.029-24.527,2.764-34.837c2.668-2.21,8.413-6.841,6.047-11.901c-3.629-1.065-4.942,1.77-6.333,4.463         c-0.781-2.556,0.488-7.069-2.526-7.142c-2.971-0.068-2.668,4.275-2.774,7.532c-1.899-1.003-5.06-7.992-9.456-5.43         c-0.442,6.027,4.196,9.027,9.129,11.846c-0.606,20.237-3.48,38.82-5.788,57.04c-2.281,17.997-2.351,36.329-0.69,53.997         c1.632,17.304,5.264,32.966,6.978,49.438c1.735,16.771,1.348,35.367-2.728,55.212c-6.449,31.353-19.582,52.079-31.124,76.621         c2.968,1.112,5.456,2.512,8.138,3.796c13.123-23.843,25.694-44.216,32.338-76.308c8.941-43.135-1.637-78.482-6.85-114.85         c-2.382-16.555-2.815-33.092,3.639-53.683c7.802-24.913,23.291-37.253,37.866-51.94c1.966,2.638,4.658,7.731,9.657,6.349         c2.25-3.346,0.469-6.845-2.726-8.06c2.091-1.523,5.052-1.584,6.033-4.969c-1.077-2.458-4.177-1.741-6.218-1.142         c1.043-3.048,0.875-7.2-1.709-6.934c-2.218,0.279-3.269,1.977-3.884,3.348c-1.01,2.279-0.154,5.247-0.938,7.13         c-1.096,2.628-8.198,6.53-10.828,8.523C358.096,227.848,348.586,237.9,341.132,251.365z" fill="#7a8900" data-original="#7a8900"/>
							<g>
								<path style="fill-rule:evenodd;clip-rule:evenodd;" d="M412.669,174.212c-4.895,1.948-4.627,8.256-1.88,9.381          C413.707,184.796,418.43,172.603,412.669,174.212z" fill="#ffffff" data-original="#ffffff"/>
								<path style="fill-rule:evenodd;clip-rule:evenodd;" d="M416.419,188.821c-4.219,1.323-4.632,8.252-1.884,9.373          C417.471,199.398,422.18,187.203,416.419,188.821z" fill="#ffffff" data-original="#ffffff"/>
							</g>
							<g>
								<path style="fill-rule:evenodd;clip-rule:evenodd;" d="M315.438,165.512c2.944,1.48,3.079,8.937,0.176,9.555          C312.506,175.736,310.047,162.889,315.438,165.512z" fill="#ffffff" data-original="#ffffff"/>
							</g>
						</g>
					</g>
				</g>
			</g>
		</g>
		<g>
			<g>
				<g>
					<path style="fill-rule:evenodd;clip-rule:evenodd;" d="M297.385,62.481c-0.601,0.998-2.267,0.455-3.36,0.318       c-3.43-0.43-6.175-1.532-8.708-3.155c-3.331-2.144-7.187-5.681-7.398-11.24c-0.072-1.738,0.14-3.641,0.361-5.484       c0.221-1.778,0.731-3.688,0.385-5.346c-0.276-1.285-2.985-4.191-1.38-5.178c1.709-1.058,2.863,3.277,2.981,5.027       c0.264,3.882-1.291,7.851-0.962,11.59c0.361,4.151,3.375,7.647,6.052,9.447c2.928,1.966,6.473,3.02,10.513,3.572       C296.291,62.089,297.087,61.889,297.385,62.481z" fill="#ffbe49" data-original="#ffbe49"/>
					<path style="fill-rule:evenodd;clip-rule:evenodd;" d="M298.06,69.595c-0.779-0.865-2.312-0.023-3.36,0.321       c-3.288,1.064-5.773,2.662-7.961,4.732c-2.87,2.727-5.992,6.928-5.153,12.428c0.259,1.727,0.812,3.549,1.38,5.324       c0.551,1.703,1.416,3.479,1.389,5.175c-0.034,1.314-2.144,4.675-0.385,5.344c1.88,0.716,2.192-3.759,1.986-5.494       c-0.466-3.866-2.747-7.475-3.125-11.205c-0.428-4.144,1.875-8.146,4.17-10.415c2.505-2.48,5.785-4.188,9.653-5.49       C297.06,70.184,297.877,70.229,298.06,69.595z" fill="#ffbe49" data-original="#ffbe49"/>
				</g>
				<g>
					<path style="fill-rule:evenodd;clip-rule:evenodd;" d="M340.41,40.8c1.644-0.195,2.307-0.291,4.954-0.471       c15.451-1.135,28.415,0.455,41.679,2.08c0,0,0.267,0.63,0.542,0.663c0.199,0.024,0.882-0.489,0.882-0.489       c3.632,0.444,7.294,0.883,11.043,1.263c0,0,0.5,1.362,0.859,1.398c0.314,0.031,1.179-1.198,1.179-1.198       c2.495,0.237,5.069,0.478,7.595,1.241c2.305,0.692,5.656,2.16,5.99,4.432c0.541,3.658-5.696,7.283-8.326,8.647       c-0.729,0.381-1.472,0.741-2.214,1.094c0,0-0.935-0.305-1.151-0.205c-0.223,0.103-0.166,0.821-0.166,0.821       c-2.993,1.357-6.013,2.521-8.826,3.61c-0.851,0.328-1.711,0.646-2.573,0.965c0,0-0.896-0.283-1.119-0.201       c-0.186,0.068-0.103,0.656-0.103,0.656c-7.5,2.725-15.364,5.136-22.949,7.4c-9.071,2.709-19.087,5.243-29.84,6.258       c-10.893,1.036-19.594-1.346-26.391-5.499c-8.862,2.746-16.56,0.704-17.772-6.601c-1.062-6.383,3.625-10.215,9.191-11.591       c0.798-0.198,1.995-0.018,2.812-0.41c0.509-0.239,0.928-1.19,1.404-1.845c2.918-4.07,8.898-7.207,14.868-8.983       C327.503,42.189,333.829,41.382,340.41,40.8z" fill="#d33400" data-original="#d33400"/>
					<g>
						<path style="" d="M326.763,74.672c1.216-3.994-2.531-6.146-4.321-7.875c1.356-0.981,2.538-2.619,2.557-4.674        c0.019-2.483-1.471-4.371-2.69-5.748c1.843-1.959,3.156-4.6,2.377-8.082c-0.389-1.756-1.409-3.242-2.625-4.485        c-0.027,0.008-0.053,0.017-0.082,0.026c-0.514,0.15-1.019,0.315-1.534,0.489c1.692,1.649,3.019,3.72,2.911,6.523        c-0.075,1.948-1.089,3.353-2.276,4.647c-1.803-1.542-7.576-3.191-9.465-0.388c-0.531,0.775-0.505,1.759-0.356,2.319        c0.875,3.313,8.3,1.965,10.153,0.037c3.094,2.09,2.716,7.512-0.308,8.743c-1.485-1.186-8.494-1.351-7.999,1.618        c0.18,1.07,1.808,1.545,3.009,1.574c2.211,0.052,4.1-0.994,5.413-1.657c1.764,1.356,4.567,3.133,4.16,6.179        c-0.223,1.666-2.382,2.902-4.697,3.485c0.728,0.209,1.469,0.407,2.228,0.571C324.922,77.251,326.326,76.103,326.763,74.672z         M312.597,56.441c0.038-1.429,3.007-1.85,4.725-1.447c1.231,0.284,1.776,0.989,2.692,1.314        c-0.798,0.73-2.074,1.483-3.841,1.655C314.673,58.103,312.563,57.827,312.597,56.441z M314.525,67.688        c0.647-1.376,4.295-1.484,5.24-0.496C318.462,67.74,315.851,68.342,314.525,67.688z" fill="#ffffff" data-original="#ffffff"/>
						<path style="" d="M344.942,40.356c0.959,1.547,1.872,3.992,1.983,5.83c0.231,3.789-2.74,6.17-5.687,7.827        c-1.649-1.198-4.134-2.753-7.098-2.473c-1.596,0.153-3.608,0.851-3.634,2.342c-0.075,3.395,7.593,3.143,10.479,2.009        c1.344,1.678,2.932,4.241,2.819,7.167c-0.082,2.25-1.476,3.972-2.795,5.123c-1.718-0.851-8.747-1.484-9.184,1.156        c-0.324,1.97,2.115,2.489,3.528,2.521c2.509,0.058,4.99-1.187,6.382-2.033c2.242,1.187,6.463,3.562,5.552,7.332        c-0.029,0.113-0.065,0.231-0.113,0.342c0.457-0.078,0.918-0.161,1.37-0.246c0.134-0.407,0.206-0.823,0.204-1.234        c-0.01-4.39-3.658-5.675-6.129-7.42c1.32-1.204,2.574-3.27,2.601-5.68c0.041-3.131-1.382-5.874-2.733-7.741        c2.752-1.797,6.55-4.554,6.129-9.155c-0.111-1.269-0.697-2.941-1.384-4.157c-0.274-0.481-0.62-1.111-1.048-1.589        C345.91,40.299,344.886,40.27,344.942,40.356z M339.668,69.163c-1.307,1.206-4.718,1.582-6.357,0.743        c-0.015-0.137-0.029-0.279-0.041-0.421C335.037,68.491,337.882,68.787,339.668,69.163z M331.943,54.031        c1.546-1.924,6.213-0.702,7.631,0.565C337.152,55.429,333.251,55.583,331.943,54.031z" fill="#ffffff" data-original="#ffffff"/>
						<path style="" d="M361.889,53.34c-2.353-1.793-11.498-3.335-12.489,0.898c-0.682,2.938,2.803,3.705,5.206,3.645        c2.981-0.064,5.471-1.443,7.192-2.535c1,0.721,2.336,1.466,2.704,2.887c0.541,2.104-0.8,4.025-2.094,5.057        c-2.639-1.366-11.532-1.449-10.59,2.863c0.327,1.528,2.36,1.996,4.182,1.89c3.278-0.198,5.588-2.024,7.403-3.27        c2.745,1.356,5.314,2.931,5.552,7.33c0,0.01-0.01,0.02-0.014,0.034c0.377-0.117,0.755-0.226,1.13-0.34        c0.094-0.583,0.086-1.203-0.024-1.8c-0.608-3.241-3.408-4.784-5.73-6.174c0.933-1.464,2.274-3.064,2.079-5.195        c-0.2-2.188-1.824-3.242-3.007-4.573c2.605-2.276,5.925-5.68,5.418-10.662c-0.115-1.154-0.423-2.127-0.808-2.988        c-0.608-0.04-1.216-0.086-1.827-0.119c0.259,0.63,0.512,1.284,0.67,2.006C368.001,47.354,364.884,50.851,361.889,53.34z         M353.095,66.035c-0.401-3.288,6.564-2.318,8.391-1.943C359.899,65.762,355.625,67.501,353.095,66.035z M350.787,55.25        c-0.015-0.144-0.029-0.285-0.041-0.428c1.687-2.925,7.319-1.613,9.525-0.472C358.491,56.048,352.686,57.414,350.787,55.25z" fill="#ffffff" data-original="#ffffff"/>
						<path style="" d="M382.685,48.078c-2.082-1.167-10.196-2.215-11.049,1.05c-0.293,1.133,0.536,2.293,1.545,2.711        c2.764,1.144,7.927-0.276,9.989-1.661c1.375,1.078,2.658,2.161,2.807,4.022c0.183,2.211-2.661,5.383-4.033,5.671        c-1.019,0.207-2.718-0.49-4.334-0.451c-1.997,0.048-4.942,0.622-4.627,2.441c0.389,2.209,5.576,1.219,7.345,0.588        c0.899-0.315,1.644-1.002,2.332-1.079c1.367-0.139,4.016,1.199,5.324,1.929c0.829,0.457,1.57,0.927,2.286,1.496        c0.106,0.08,0.24,0.186,0.384,0.309c0.414-0.15,0.815-0.302,1.226-0.453c-0.74-0.795-1.764-1.494-2.678-2.041        c-1.755-1.054-3.798-1.732-5.206-2.222c2.154-1.582,4.43-4.406,3.401-7.753c-0.483-1.608-1.829-2.424-2.779-3.739        c1.868-1.33,2.634-3.049,3.483-5.474c0.077-0.221,0.221-0.512,0.366-0.841c-0.471-0.054-0.947-0.113-1.423-0.177        C385.997,44.633,384.824,46.754,382.685,48.078z M379.887,60.778c-1.197,0.924-3.737,1.215-5.487,0.949        C375.205,60.348,378.257,60.82,379.887,60.778z M380.954,49.385c-1.976,0.905-5.809,1.801-7.667,0.585        c-0.015-0.143-0.024-0.283-0.041-0.424c0.945-0.64,2.565-0.93,4.06-0.958C378.7,48.563,380.255,48.764,380.954,49.385z" fill="#ffffff" data-original="#ffffff"/>
						<path style="" d="M397.121,46.573c-0.731,0.112-1.822-0.333-2.745-0.317c-1.115,0.025-2.274,0.25-2.639,0.825        c-1.586,2.462,3.391,2.676,5.867,1.585c3.569,1.441,2.848,6.836-0.269,7.739c-1.601-0.294-4.692-0.174-4.266,1.695        c0.486,2.178,4.077,0.153,5.29,0.071c1.098-0.076,2.445,0.621,3.242,0.976c0.675,0.308,1.221,0.608,1.678,0.93        c0.447-0.201,0.885-0.407,1.322-0.615c-0.038-0.055-0.091-0.109-0.132-0.156c-1.024-1.136-3.355-1.774-4.514-2.428        c3.098-1.894,2.391-7.611-0.452-9.251c0.719-0.537,1.867-1.47,2.016-2.902c0.022-0.219,0.026-0.445,0.031-0.678        c-0.324-0.03-0.647-0.061-0.964-0.093c-0.363-0.037-0.716-0.074-1.074-0.112C399.308,45.243,398.647,46.334,397.121,46.573z" fill="#ffffff" data-original="#ffffff"/>
					</g>
				</g>
			</g>
			<g>
				<path style="fill-rule:evenodd;clip-rule:evenodd;" d="M305.703,57.813c-0.668-2.41,0.303-4.953,1.509-6.72      c1.154-1.686,3.048-3.156,4.841-4.745c12.174-10.799,25.367-18.354,41.019-27.034c8.864-4.92,16.791-8.321,27.271-12.307      c1.308-0.497,2.643-1.001,3.992-1.499c0,0,2.253,1.496,2.857,1.278c0.486-0.175,0.395-2.452,0.395-2.452      c1.056-0.37,2.131-0.736,3.225-1.092c1.455-0.474,3.676-0.006,5.208-0.441c5.05-1.434,9.42-2.408,11.367,1.749      c1.077,2.293,1.376,2.357,0.414,4.602c-1.043,2.436-2.496,4.433-3.543,6.213c-2.122,3.599-2.135,7.757-4.748,10.652      c-0.486,0.538-0.983,1.073-1.492,1.607c-3.471,3.646-7.334,7.116-11.468,10.28c0,0-0.899-0.801-1.29-0.51      c-0.44,0.327-1.214,2.358-1.214,2.358c-2.748,1.968-5.592,3.799-8.515,5.439c-9.23,5.181-19.132,7.427-31.777,10.012      c-6.413,1.316-12.537,2.464-17.205,3.918c-4.622,1.441-12.542,4.049-17.044,2.618C307.458,61.089,306.146,59.404,305.703,57.813      z" fill="#8787cf" data-original="#8787cf"/>
				<g>
					<g>
						<path style="fill-rule:evenodd;clip-rule:evenodd;" d="M338.051,40.168c-0.709-2.937,0.474-5.723,1.985-7.618        c2.163-2.71,6.768-5.356,11.458-5.8c4.25-0.405,9.494,0.866,10.746,4.84c0.971,3.104-0.596,7-2.966,9.431        c-2.245,2.293-5.687,3.822-8.307,4.355c-5.309,1.078-10.335-0.173-12.325-3.405C338.31,41.433,338.185,40.748,338.051,40.168z        " fill="#ffbe49" data-original="#ffbe49"/>
						<path style="fill-rule:evenodd;clip-rule:evenodd;" d="M343.764,38.308c-0.368-1.556,0.257-3.032,1.055-4.034        c1.151-1.435,3.586-2.837,6.071-3.074c2.24-0.211,5.018,0.461,5.687,2.563c0.51,1.649-0.317,3.708-1.574,4.995        c-1.183,1.209-3.007,2.021-4.391,2.306c-2.817,0.572-5.48-0.093-6.528-1.804C343.908,38.974,343.838,38.615,343.764,38.308z" fill="#ffffff" data-original="#ffffff"/>
					</g>
					<path style="" d="M337.185,50.682c-3.216-0.753-6.396-0.636-10.167-0.179c1.596-1.359,3.216-2.483,4.889-4.177       c1.245-1.262,3.774-3.556,3.033-5.717c-0.447-1.306-2.288-1.419-4.24-1.029c-1.904,0.383-3.601,1.431-5.11,1.912       c1.336-2.377,3.579-5.134,3.384-7.968c-5.925,3.888-11.527,8.038-16.921,12.824c-1.793,1.589-3.687,3.059-4.841,4.745       c-1.207,1.768-2.178,4.311-1.509,6.72c0.154,0.548,0.421,1.106,0.774,1.635c0.327,0.411,0.685,0.811,1.053,1.19       c0.553,0.472,1.214,0.858,1.976,1.101c4.502,1.431,12.422-1.176,17.044-2.618c4.055-1.262,9.206-2.293,14.688-3.402       c0.178-0.41,0.293-0.84,0.298-1.302C341.596,51.837,339.267,51.172,337.185,50.682z" fill="#acacf1" data-original="#acacf1"/>
					<path style="" d="M386.021,32.19c2.644-3.155,4.562-8.986,2.336-14.511c2.392-3.438,1.735-9.288-0.68-13.223       c-0.027-0.04-0.055-0.085-0.084-0.123c-1.101,0.389-2.187,0.782-3.257,1.175c1.61,2.407,2.603,5.34,1.82,8.521       c-2.168-2.169-5.413-4.14-9.46-3.246c-3.081,0.681-5.632,3.357-5.225,6.639c0.534,4.33,4.721,6.482,9.105,5.568       c2.161-0.451,3.742-1.726,5.475-2.517c0.644,3.396-0.043,6.604-1.774,8.451c-2.425-2.929-5.293-5.783-10.475-5.003       c-4.199,0.626-6.689,3.957-6.297,7.455c0.534,4.766,5.701,6.699,9.994,5.909c1.887-0.343,3.134-1.103,4.394-1.84       c0.947-0.554,1.764-1.149,2.444-1.378c0.522,2.121,0.279,4.043-0.298,5.693c0.853-0.601,1.69-1.229,2.516-1.859       C386.766,36.101,386.583,34.133,386.021,32.19z M376.046,18.99c-2.735-2.096-0.31-5.296,3.23-5.163       c2.211,0.083,4.081,1.752,5.023,3.234C382.92,18.523,378.354,20.752,376.046,18.99z M370.379,31.528       c-0.817-3.119,1.918-5.053,4.639-5.294c3.817-0.333,6.331,2.371,8.006,4.528C380.921,34.147,371.696,36.579,370.379,31.528z" fill="#ff4f00" data-original="#ff4f00"/>
					<path style="" d="M406.538,16.529c1.048-1.78,2.375-3.75,3.418-6.186c0.962-2.245,1.894-5.644,0.817-7.937       c-1.947-4.157-10.432-1.966-15.482-0.532c-1.536,0.436-3.026,0.899-4.478,1.374c0.01,0.016,0.024,0.032,0.038,0.049       c1.336,1.511,4.951,2.515,8.307,3.215c-1.928,1.258-5.36,2.758-4.629,5.437c0.548,2.014,3.596,1.622,6.021,1.717       c-0.944,1.249-2.146,2.738-3.137,4.585c-1.423,2.652-3.012,8.639,2.182,7.658C402.173,23.047,404.442,20.087,406.538,16.529z" fill="#acacf1" data-original="#acacf1"/>
				</g>
			</g>
			<g>
				<path style="fill-rule:evenodd;clip-rule:evenodd;" d="M306.833,69.654c-0.211,2.494,1.216,4.806,2.74,6.311      c1.447,1.442,3.586,2.531,5.643,3.751c13.989,8.326,28.367,13.264,45.37,18.851c9.629,3.167,18.048,5.015,29.098,6.959      c1.385,0.244,2.774,0.484,4.202,0.72c0,0,1.452-1.403,2.003-1.316c0.582,0.092,1.422,1.862,1.422,1.862      c1.109,0.165,2.222,0.319,3.365,0.464c1.518,0.192,3.385-1.009,4.971-0.868c5.238,0.46,11.351,1.623,12.476-2.822      c0.625-2.456-1.337-2.967-2.7-4.99c-1.485-2.196-2.932-3.607-4.295-5.162c-2.731-3.099-3.015-7.747-6.078-10.077      c-0.614-0.467-1.239-0.927-1.877-1.386c-4.094-2.924-8.543-5.608-13.192-7.936c0,0-0.785,0.736-1.214,0.529      c-0.51-0.246-1.6-1.884-1.6-1.884c-3.067-1.415-6.207-2.67-9.383-3.733c-10.044-3.357-20.187-3.699-33.094-3.865      c-6.547-0.084-12.778-0.063-17.633-0.61c-4.807-0.549-13.08-1.618-17.229,0.631C307.934,66.107,306.963,68.004,306.833,69.654z" fill="#8787cf" data-original="#8787cf"/>
				<g>
					<g>
						<path style="fill-rule:evenodd;clip-rule:evenodd;" d="M341.911,80.907c-0.139,3.018,1.548,5.534,3.38,7.106        c2.644,2.255,7.655,3.994,12.342,3.548c4.252-0.405,9.175-2.639,9.65-6.777c0.375-3.232-1.899-6.761-4.684-8.697        c-2.634-1.83-6.3-2.696-8.977-2.723c-5.418-0.065-10.124,2.115-11.465,5.655C341.93,79.62,341.93,80.312,341.911,80.907z" fill="#ffbe49" data-original="#ffbe49"/>
						<path style="fill-rule:evenodd;clip-rule:evenodd;" d="M347.876,81.655c-0.072,1.6,0.822,2.932,1.793,3.765        c1.396,1.193,4.048,2.115,6.533,1.878c2.25-0.212,4.85-1.4,5.105-3.586c0.202-1.713-1.005-3.581-2.48-4.606        c-1.389-0.97-3.336-1.424-4.749-1.442c-2.867-0.031-5.358,1.12-6.064,2.997C347.886,80.97,347.891,81.342,347.876,81.655z" fill="#ffffff" data-original="#ffffff"/>
					</g>
					<path style="" d="M339.084,70.739c-3.014,1.346-6.153,1.828-9.951,2.09c1.832,1.032,3.629,1.831,5.588,3.185       c1.462,1.001,4.379,2.781,4.06,5.044c-0.197,1.369-1.99,1.822-3.976,1.809c-1.942-0.019-3.807-0.731-5.379-0.922       c1.759,2.091,4.475,4.378,4.822,7.195c-6.552-2.711-12.83-5.732-19.032-9.423c-2.057-1.22-4.196-2.309-5.643-3.751       c-1.524-1.505-2.952-3.817-2.74-6.311c0.038-0.571,0.192-1.167,0.445-1.75c0.247-0.472,0.522-0.931,0.81-1.368       c0.457-0.57,1.033-1.072,1.74-1.454c4.148-2.249,12.422-1.18,17.229-0.631c4.211,0.478,9.47,0.525,15.061,0.583       c0.255,0.365,0.447,0.768,0.539,1.224C343.197,68.781,341.041,69.866,339.084,70.739z" fill="#acacf1" data-original="#acacf1"/>
					<path style="" d="M389.982,74.016c-0.937-0.464-1.875-0.919-2.817-1.356c0.875,1.515,1.471,3.357,1.36,5.54       c-0.712-0.1-1.634-0.526-2.658-0.892c-1.382-0.488-2.754-1.003-4.668-0.989c-4.365,0.036-9.081,2.904-8.701,7.687       c0.274,3.509,3.336,6.312,7.581,6.139c5.24-0.209,7.513-3.549,9.35-6.89c2.045,1.499,3.326,4.515,3.331,7.975       c-1.853-0.453-3.649-1.405-5.855-1.443c-4.478-0.077-8.182,2.826-7.893,7.176c0.219,3.307,3.23,5.454,6.379,5.538       c4.148,0.118,6.958-2.425,8.682-4.964c1.363,2.977,0.937,6.046-0.188,8.712c1.13,0.186,2.271,0.368,3.425,0.544       c0.019-0.048,0.036-0.091,0.05-0.135c1.644-4.319,1.188-10.195-1.812-13.121c1.149-5.841-1.836-11.214-5.028-13.811       C390.717,77.708,390.52,75.745,389.982,74.016z M391.684,94.906c-0.651,1.637-2.173,3.624-4.326,4.126       c-3.454,0.794-6.437-1.894-4.149-4.466C385.141,92.403,390.054,93.734,391.684,94.906z M387.855,81.692       c-1.242,2.438-3.204,5.563-7.014,5.955c-2.728,0.275-5.761-1.121-5.552-4.334C375.633,78.102,385.146,78.763,387.855,81.692z" fill="#ff4f00" data-original="#ff4f00"/>
					<path style="" d="M413.628,91.249c1.363,1.555,3.029,3.239,4.514,5.434c1.363,2.024,2.918,5.188,2.293,7.644       c-1.125,4.446-9.869,3.893-15.106,3.432c-1.586-0.143-3.137-0.316-4.653-0.507c0.01-0.023,0.014-0.04,0.027-0.058       c1.024-1.737,4.394-3.4,7.549-4.715c-2.127-0.88-5.78-1.704-5.559-4.474c0.156-2.074,3.223-2.266,5.588-2.817       c-1.163-1.044-2.625-2.286-3.947-3.913c-1.889-2.342-4.574-7.921,0.712-7.937C408.112,85.662,410.896,88.153,413.628,91.249z" fill="#acacf1" data-original="#acacf1"/>
				</g>
			</g>
		</g>
		<g>
			<g>
				<path style="fill-rule:evenodd;clip-rule:evenodd;" d="M85.23,217.195c-1.072,3.108-4.749,8.349-8.081,5.612      c-2.166-1.779-2.904-5.642-3.105-8.064c-0.219-2.718,0.111-5.267,0.517-7.717c0.079-0.475,0.185-1.016,0.279-1.492l0.838-0.17      l-0.372-1.958c0.93-3.822,2.284-7.635,3.784-11.365c2.853-7.086,6.398-14.762,11.388-22.087      c1.675-2.465,3.315-5.163,5.365-7.134c4.737-4.552,10.965-6.094,15.587-4.093c4.749,2.056,10.35,8.226,13.756,13.662      c3.488,5.552,5.728,11.25,7.453,16.367c1.779,5.313,3.069,11.179,3.367,15.972c0.016,0.268,0.027,0.558,0.036,0.859      c0,0-0.948,1.156-0.951,1.627c-0.002,0.435,0.936,1.043,0.936,1.043c-0.109,2.658-0.511,5.742-1.493,8.095      c-0.522,1.265-1.168,2.899-2.178,3.672c-3.05,2.351-6.019-1.473-8.852-4.164c0.418,2.096,0.73,4.112,0.75,6.468      c0.019,1.962,0.111,4.542-1.848,6.101c-3.901,3.112-8.852-3.718-10.862-8.131c-0.12,2.008-0.12,4.459-0.577,7.143      c-0.341,2.005-0.824,6.569-4.012,7.264c-4.752,1.036-8.266-9.583-8.597-12.706c-0.058-0.12,0.024-0.226-0.082-0.35      c-0.476,1.328-0.692,3.108-1.382,4.895c-0.916,2.359-3.06,6.22-6.059,4.781c-0.954-0.458-1.67-1.447-2.192-2.15      C85.934,225.499,85.672,220.75,85.23,217.195z" fill="#d33400" data-original="#d33400"/>
				<g>
					<path style="" d="M81.927,211.164c0.836,0.117,1.834-0.341,2.615,0.138c0.522,0.318,0.846,1.109,1.226,1.489       c3.819,3.799,9.09,4.379,13.47,2.44c5.168,4.423,10.705,5.035,16.82-0.318c4.336,1.723,11.407,0.523,14.339-5.356       c1.697-0.008,3.704-0.246,5.629-1.298c0.043-0.965,0.038-1.874,0.014-2.683c-1.548,1.276-3.177,2.122-4.971,1.763       c0.481-2.411,0.24-7.79-3.327-9.345c-1.649-0.72-4.081,0.44-4.891,2.154c-1.471,3.117,1.973,7.76,5.43,8.863       c-2.404,4.224-7.607,5.4-10.893,3.973c1.666-2.479,2.918-6.786-0.214-9.612c-0.772-0.695-2.372-1.244-3.579-0.803       c-4.846,1.766-3.048,8.366,0.517,11.242c-4.343,3.858-9.285,3.911-13.265,0.089c1.877-1.734,3.274-3.818,3.437-5.949       c0.106-1.4-0.416-3.644-1.832-4.744c-2.348-1.829-5.379,1.085-5.903,3.196c-0.591,2.389,0.644,5.18,1.255,7.092       c-4.091,1.805-7.91,0.709-11.465-3.051c4.24-2.822,5.461-6.83,1.949-10.775c-0.61-0.648-1.5-0.906-2.485-0.24       c-3.971,3.008-3.343,6.455-2.449,9.928c-2.675,0.209-5.326-0.946-7.163-3.884c-0.365-0.591-0.649-1.311-0.885-2.071       c-0.171,0.713-0.329,1.422-0.469,2.133C76.187,208.412,78.711,210.717,81.927,211.164z M126.311,199.798       c3.033,1.007,3.127,4.993,2.74,7.119C126.417,206.5,122.297,201.465,126.311,199.798z M113.726,204.753       c0.904-0.593,2.038-0.202,2.858,1.189c1.07,1.818-0.026,4.528-0.82,6.087C113.024,210.813,111.553,206.179,113.726,204.753z        M99.396,205.311c1.844-1.585,2.928,0.954,2.851,2.442c-0.082,1.549-1.365,3.407-2.598,4.433       C98.615,210.206,97.464,206.972,99.396,205.311z M86.66,201.226c2.839,1.884,1.858,5.845-1.3,7.529       C84.46,206.116,83.951,203.513,86.66,201.226z" fill="#ff4f00" data-original="#ff4f00"/>
					<g>
						<path style="fill-rule:evenodd;clip-rule:evenodd;" d="M130.806,217.135c-2.058,0.242-2.298-2.764-1.029-3.526        C131.452,212.608,133.253,215.885,130.806,217.135z" fill="#ffffff" data-original="#ffffff"/>
						<path style="fill-rule:evenodd;clip-rule:evenodd;" d="M118.932,224.213c-2.024-1.003-2.716-3.763-1.125-4.907        C120.403,217.446,122.533,224.137,118.932,224.213z" fill="#ffffff" data-original="#ffffff"/>
						<path style="fill-rule:evenodd;clip-rule:evenodd;" d="M105.549,227.95c-2.108-1.329-2.774-4.338-0.562-5.993        C107.89,222.134,108.731,227.295,105.549,227.95z" fill="#ffffff" data-original="#ffffff"/>
						<path style="fill-rule:evenodd;clip-rule:evenodd;" d="M79.419,219.865c-2.99-0.046-0.925-6.173,1.293-3.989        C81.741,216.885,82.031,220.004,79.419,219.865z" fill="#ffffff" data-original="#ffffff"/>
					</g>
					<g>
						<path style="fill-rule:evenodd;clip-rule:evenodd;" d="M110.347,163.993        c7.725,7.343,14.707,19.539,15.085,27.153c0.086,1.677-0.327,5.972-2.851,5.895c-2.93-0.095-4.103-6.043-4.509-7.748        c-1.93-8.145-3.192-14.893-7.11-23.298C110.693,165.418,110.058,164.718,110.347,163.993z" fill="#ffbe49" data-original="#ffbe49"/>
						<path style="fill-rule:evenodd;clip-rule:evenodd;" d="M107.554,166.922c0.091-0.11,0.154-0.05,0.226,0.021        c3.567,6.795,6.292,14.357,7.091,21.242c0.267,2.332,0.406,4.925,0.024,6.859c-0.269,1.353-1.531,5.116-3.673,4.896        c-1.627-0.163-2.129-2.413-2.387-3.657c-0.875-4.25-0.118-8.492-0.18-12.353C108.556,177.69,108.299,172.368,107.554,166.922z        " fill="#ffbe49" data-original="#ffbe49"/>
						<path style="fill-rule:evenodd;clip-rule:evenodd;" d="M100.987,162.747c0.113,0.088,0.048,0.157-0.022,0.225        c-3.382,5.712-5.021,11.419-6.497,17.649c-0.637,2.694-1.274,5.745-2.461,8.899c-0.279,0.768-3.255,8.826-6.153,6.944        c-2.129-1.38-0.284-6.854,0.255-8.542c0.908-2.831,2.187-5.885,3.451-8.459C92.618,173.198,95.493,167.957,100.987,162.747z" fill="#ffbe49" data-original="#ffbe49"/>
						<path style="fill-rule:evenodd;clip-rule:evenodd;" d="M104.992,165.076c-0.298,3.983-1.067,8.303-1.226,12.675        c-0.192,5.43,0.582,11.674-1.432,17.22c-0.457,1.269-0.995,3.14-2.942,3.258c-2.125-1.361-1.945-4.01-2.043-6.023        C96.916,183.183,101.03,173.826,104.992,165.076z" fill="#ffbe49" data-original="#ffbe49"/>
					</g>
				</g>
			</g>
			<g>
				<path style="fill-rule:evenodd;clip-rule:evenodd;" d="M184.511,179.855c1.207,2.347,2.471,5.009,0.596,6.858      c-0.899,0.886-2.625,1.217-3.927,1.182c-3.18-0.082-7.528-2.493-10.035-4.565c0.01,2.363,1.675,4.999-1.005,7.009      c-2.829,2.122-7.968-0.269-10.756-1.299c0.889,2.233,2.267,4.325,0.625,6.176c-2.596,2.925-8.398,0.163-11.02-0.403      c0.526,1.91,1.512,3.766,0.319,5.365c-1.019,1.357-2.985,1.841-4.187,1.853c-4.165,0.042-8.857-2.768-13.273-5.743      c-8.96-6.038-17.935-16.24-23.05-25.55c-2.553-4.649-4.596-9.634-3.913-13.61c0.245-1.423,1.171-3.482,2.846-4.985      c2.956-2.645,7.018-3.285,10.653-3.829c10.643-1.603,20.906-0.643,31.15,0.77c6.862,0.949,13.797,2.155,20.627,4.268      c6.48,2.003,14.703,4.9,20.353,10.169c4.644,4.329,7.283,10.296,6.156,14.401C195.188,183.333,188.155,182.855,184.511,179.855z      " fill="#ff4f00" data-original="#ff4f00"/>
				<g>
					<g>
						<path style="fill-rule:evenodd;clip-rule:evenodd;" d="M187.629,169.427c2.653,1.933,2.723,4.465,0.397,6.168        c-3.485,2.548-10.513-2.68-5.632-6.183C184.194,168.127,186.102,168.316,187.629,169.427z" fill="#ffbe49" data-original="#ffbe49"/>
						<path style="fill-rule:evenodd;clip-rule:evenodd;" d="M178.521,176.856c2.24,1.628,2.615,5.13-0.601,5.549        c-3.072,0.403-7.24-5.82-2.202-6.474C176.413,175.837,177.55,176.153,178.521,176.856z" fill="#ffbe49" data-original="#ffbe49"/>
						<path style="fill-rule:evenodd;clip-rule:evenodd;" d="M166.835,183.367c1.591,1.269,1.411,2.537,0.522,3.44        c-2.057,2.077-6.227-0.985-4.632-3.175C163.975,181.912,165.657,182.426,166.835,183.367z" fill="#ffbe49" data-original="#ffbe49"/>
						<path style="fill-rule:evenodd;clip-rule:evenodd;" d="M154.63,188.83c3.242,2.527-2.295,5.496-4.096,2.424        C149.263,189.09,152.971,187.538,154.63,188.83z" fill="#ffbe49" data-original="#ffbe49"/>
						<path style="fill-rule:evenodd;clip-rule:evenodd;" d="M143.009,193.975c2.168,1.955-0.973,5.307-3.101,3.042        C138.233,195.239,140.644,191.845,143.009,193.975z" fill="#ffbe49" data-original="#ffbe49"/>
					</g>
					<g>
						<path style="fill-rule:evenodd;clip-rule:evenodd;" d="M108.506,155.132c5.61-2.626,11.614-3.304,17.474-3.731        c11.249-0.833,22.832,0.352,34.332,3.312c5.459,1.406,12.169,3.934,16.806,8.18c1.932,1.778,3.336,4.49,1.875,6.121        c-1.942,2.16-6.73,1.269-9.033,0.831c-3.255-0.621-6.47-1.938-8.85-3.032c-6.161-2.833-11.847-5.54-17.529-7.308        c-2.858-0.89-5.939-1.522-8.891-2.125c-8.1-1.649-16.231-2.528-24.487-2.054c-0.349,0.023-0.781-0.053-1.135-0.053        C109.063,155.272,108.268,155.736,108.506,155.132z" fill="#ffffff" data-original="#ffffff"/>
						<path style="fill-rule:evenodd;clip-rule:evenodd;" d="M110.481,162.623c6.653,2.204,13.417,6.695,20.44,11.717        c3.437,2.453,9.96,10.013,7.057,12.771c-1.529,1.455-4.682-0.774-6.47-2.214C123.311,178.283,118.644,169.404,110.481,162.623        z" fill="#ffffff" data-original="#ffffff"/>
						<path style="fill-rule:evenodd;clip-rule:evenodd;" d="M110.678,157.286c7.949-0.662,16.811,0.298,25.615,2.335        c4.165,0.963,8.564,2.194,12.799,3.784c4.158,1.561,8.879,3.875,12.518,7.302c2.851,2.686,5.711,6.663,3.689,8.821        c-1.695,1.793-4.961,0.388-7.03-0.557c-2.495-1.138-5.028-2.864-6.754-4.07c-9.34-6.517-17.796-12.196-27.083-14.698        C119.85,158.967,115.303,158.321,110.678,157.286z" fill="#ffffff" data-original="#ffffff"/>
						<path style="fill-rule:evenodd;clip-rule:evenodd;" d="M110.032,158.964c6.382,0.704,13.275,2.726,20.103,5.832        c3.24,1.477,6.622,3.179,9.886,5.129c3.327,1.985,6.879,4.546,9.754,8.081c1.836,2.249,4.336,6.161,2.471,7.967        c-2.577,2.497-8.345-3.726-10.862-6.196c-3.49-3.418-7.288-6.904-10.607-9.26c-6.989-4.958-15.051-8.459-21.074-11.686        C109.818,158.73,109.919,158.894,110.032,158.964z" fill="#ffffff" data-original="#ffffff"/>
					</g>
				</g>
			</g>
			<path style="fill-rule:evenodd;clip-rule:evenodd;" d="M172.01,134.278c-3.161,2.989-7.516,2.46-11.049,2.019     c-7.302-0.913-14.392-1.946-22.017-1.44c-3.952,0.26-7.686,0.933-11.424,3.579c-1.416,1.007-3.012,3.036-4.653,3.209     c-0.392-0.685,0.228-1.303,0.632-1.771c1.675-1.916,5.355-3.586,7.167-4.446c1.522-2.28,4.295-3.555,6.124-1.921     c2.415-2.547,4.562-2.258,6.576-0.621c1.666-2.536,4.562-2.949,5.696,0.091c2.168-2.661,5.134-2.256,5.413,0.752     c1.908-1.003,5.021-4.616,6.73-3.461c1.469,0.985,0.803,2.747,0.284,4.138c2.264-0.377,6.747-2.244,9.068-1.639     C171.263,132.95,171.931,133.36,172.01,134.278z" fill="#8787cf" data-original="#8787cf"/>
			<g>
				<path style="fill-rule:evenodd;clip-rule:evenodd;" d="M39.518,161.718c-3.254,0.461-9.105,3.064-7.057,6.859      c1.332,2.465,4.98,3.927,7.321,4.587c2.63,0.737,5.187,0.899,7.672,0.971c0.496,0.014,1.019,0.012,1.519,0.01      c0,0,0.118-0.726,0.477-0.736c0.372-0.009,1.693,0.684,1.693,0.684c3.93-0.182,7.937-0.78,11.883-1.543      c7.501-1.443,15.712-3.456,23.855-6.949c2.74-1.174,5.701-2.271,8.028-3.909c5.374-3.775,8.081-9.594,6.999-14.516      c-1.108-5.052-6.095-11.728-10.778-16.112c-4.783-4.479-9.951-7.772-14.642-10.44c-4.87-2.765-10.386-5.153-15.032-6.36      c-0.259-0.067-0.536-0.135-0.828-0.201c0,0-1.785,0.68-2.217,0.596c-0.449-0.086-0.416-1.093-0.416-1.093      c-2.634-0.405-5.727-0.599-8.232-0.086c-1.341,0.275-3.064,0.6-4.021,1.439c-2.889,2.544,0.303,6.194,2.396,9.486      c-1.978-0.812-3.896-1.504-6.204-1.97c-1.923-0.394-4.439-0.983-6.343,0.643c-3.802,3.24,1.954,9.403,5.901,12.219      c-1.99-0.265-4.399-0.736-7.119-0.798c-2.033-0.052-6.605-0.452-7.898,2.548c-1.923,4.467,7.826,9.946,10.83,10.87      c0.106,0.079,0.226,0.019,0.329,0.144c-1.397,0.214-3.19,0.088-5.069,0.425c-2.49,0.448-6.692,1.809-5.85,5.031      c0.267,1.02,1.101,1.917,1.692,2.563C31.498,159.431,36.11,160.606,39.518,161.718z" fill="#d33400" data-original="#d33400"/>
				<g>
					<path style="" d="M48.974,174.144c0.721-0.002,1.447-0.019,2.182-0.052c-0.702-0.374-1.355-0.792-1.863-1.267       c-2.536-2.362-3.165-5.182-2.445-7.772c3.24,1.547,6.504,2.819,10.213-0.504c0.755-0.645,0.692-1.798,0.238-2.489       c-3.197-4.198-7.369-3.763-10.951-0.142c-3.007-4.211-3.355-8.168-0.798-11.844c1.759,0.968,4.259,2.72,6.72,2.591       c2.168-0.112,5.61-2.531,4.264-5.183c-0.805-1.6-2.913-2.537-4.305-2.703c-2.122-0.248-4.435,0.726-6.497,2.23       c-2.992-4.633-1.99-9.474,2.625-12.995c2.139,4.048,8.273,7.075,10.931,2.652c0.666-1.097,0.433-2.776-0.101-3.667       c-2.168-3.614-6.643-3.206-9.393-2.045c-0.776-3.5,1.38-8.38,5.98-9.932c0.423,3.599,4.319,7.869,7.663,7.019       c1.836-0.465,3.442-2.634,3.052-4.386c-0.848-3.799-6.079-5.064-8.542-5.05c-0.012-1.833,1.132-3.268,2.682-4.548       c-0.788-0.178-1.68-0.351-2.634-0.496c-1.401,1.692-2.014,3.616-2.35,5.277c-6.329,1.753-8.86,8.465-7.999,13.051       c-6.427,4.974-6.879,10.528-3.528,16.449c-2.74,3.929-3.178,9.217-0.178,13.689c0.298,0.441,1.014,0.915,1.221,1.489       c0.332,0.858-0.313,1.746-0.358,2.59C44.626,169.351,46.405,172.273,48.974,174.144z M57.978,120.666       c2.159,0.03,6.059,0.882,6.47,4.052C62.045,128.34,57.887,123.327,57.978,120.666z M50.421,132.731       c1.682-0.477,4.552-1.037,6.134,0.362c1.204,1.068,1.372,2.259,0.62,3.032C55.358,137.988,51.089,135.657,50.421,132.731z        M47.186,148.524c1.242-1.016,3.312-1.919,4.85-1.704c1.476,0.209,3.759,1.759,1.856,3.262       C51.892,151.664,48.931,149.913,47.186,148.524z M47.825,163.205c2.255-2.776,6.326-2.988,7.634,0.165       C52.7,165.587,50.238,164.594,47.825,163.205z" fill="#ff4f00" data-original="#ff4f00"/>
					<g>
						<path style="fill-rule:evenodd;clip-rule:evenodd;" d="M48.284,116.99c-0.632,1.972,2.276,2.791,3.267,1.689        C52.854,117.225,49.984,114.828,48.284,116.99z" fill="#ffffff" data-original="#ffffff"/>
						<path style="fill-rule:evenodd;clip-rule:evenodd;" d="M39.072,127.297c0.594,2.172,3.168,3.385,4.596,2.042        C45.989,127.144,39.833,123.775,39.072,127.297z" fill="#ffffff" data-original="#ffffff"/>
						<path style="fill-rule:evenodd;clip-rule:evenodd;" d="M32.841,139.714c0.904,2.328,3.735,3.555,5.778,1.7        C38.994,138.53,34.096,136.721,32.841,139.714z" fill="#ffffff" data-original="#ffffff"/>
						<path style="fill-rule:evenodd;clip-rule:evenodd;" d="M37.915,167.616c-0.526,2.948,5.887,2.085,4.165-0.511        C41.29,165.91,38.869,166.251,37.915,167.616z" fill="#ffffff" data-original="#ffffff"/>
					</g>
					<g>
						<path style="fill-rule:evenodd;clip-rule:evenodd;" d="M96.541,147.232c-5.735-8.986-16.368-18.17-23.771-19.999        c-1.63-0.401-5.927-0.821-6.331,1.674c-0.466,2.893,5.144,5.183,6.74,5.905c7.629,3.454,14.013,5.982,21.517,11.44        C95.204,146.624,95.772,147.376,96.541,147.232z" fill="#ffbe49" data-original="#ffbe49"/>
						<path style="fill-rule:evenodd;clip-rule:evenodd;" d="M93.128,149.414c0.125-0.065,0.077-0.148,0.024-0.223        c-5.99-4.804-12.89-8.919-19.498-11.023c-2.235-0.709-4.759-1.34-6.725-1.332c-1.38,0.002-5.317,0.523-5.511,2.664        c-0.144,1.636,1.969,2.557,3.137,3.046c4.007,1.674,8.311,1.74,12.085,2.536C82.749,146.374,87.926,147.64,93.128,149.414z" fill="#ffbe49" data-original="#ffbe49"/>
						<path style="fill-rule:evenodd;clip-rule:evenodd;" d="M95.973,156.658c-0.067-0.127-0.144-0.077-0.231-0.024        c-6.254,2.228-12.162,2.75-18.558,3.008c-2.774,0.107-5.886,0.153-9.206,0.713c-0.815,0.128-9.29,1.503-7.997,4.709        c0.952,2.358,6.677,1.59,8.434,1.384c2.949-0.349,6.194-1.023,8.963-1.764C84.114,162.878,89.806,161.056,95.973,156.658z" fill="#ffbe49" data-original="#ffbe49"/>
						<path style="fill-rule:evenodd;clip-rule:evenodd;" d="M94.45,152.285c-3.966-0.472-8.352-0.544-12.676-1.223        c-5.365-0.848-11.345-2.799-17.171-1.888c-1.336,0.207-3.278,0.381-3.762,2.265c0.925,2.347,3.56,2.679,5.521,3.157        C75.132,156.748,85.104,154.501,94.45,152.285z" fill="#ffbe49" data-original="#ffbe49"/>
					</g>
				</g>
			</g>
			<g>
				<path style="fill-rule:evenodd;clip-rule:evenodd;" d="M95.144,71.403c-2.072-1.628-4.444-3.377-6.617-1.893      c-1.038,0.709-1.697,2.344-1.913,3.631c-0.522,3.132,1.009,7.86,2.567,10.719c-2.322-0.455-4.586-2.601-7.071-0.353      c-2.625,2.371-1.259,7.874-0.784,10.803c-2.019-1.293-3.817-3.052-5.937-1.789c-3.375,1.991-1.769,8.209-1.716,10.894      c-1.774-0.881-3.408-2.205-5.206-1.337c-1.529,0.738-2.377,2.574-2.62,3.751c-0.832,4.084,1.024,9.227,3.1,14.128      c4.211,9.946,12.513,20.713,20.671,27.509c4.072,3.395,8.583,6.353,12.614,6.444c1.447,0.033,3.644-0.482,5.439-1.84      c3.161-2.393,4.56-6.266,5.795-9.728c3.605-10.146,4.624-20.396,5.197-30.72c0.38-6.919,0.524-13.953-0.245-21.064      c-0.726-6.743-1.998-15.371-6.091-21.919c-3.36-5.388-8.717-9.116-12.957-8.796C93.772,60.264,92.897,67.256,95.144,71.403z" fill="#ff4f00" data-original="#ff4f00"/>
				<g>
					<g>
						<path style="fill-rule:evenodd;clip-rule:evenodd;" d="M105.972,70.336c-1.384-2.969-3.855-3.526-5.975-1.565        c-3.163,2.94,0.625,10.832,4.995,6.71C106.597,73.958,106.775,72.046,105.972,70.336z" fill="#ffbe49" data-original="#ffbe49"/>
						<path style="fill-rule:evenodd;clip-rule:evenodd;" d="M96.944,77.859c-1.173-2.513-4.538-3.551-5.562-0.471        c-0.981,2.938,4.329,8.22,5.934,3.399C97.54,80.122,97.447,78.947,96.944,77.859z" fill="#ffbe49" data-original="#ffbe49"/>
						<path style="fill-rule:evenodd;clip-rule:evenodd;" d="M88.32,88.085c-0.94-1.809-2.223-1.872-3.276-1.171        c-2.435,1.622-0.228,6.296,2.228,5.153C89.2,91.174,89.02,89.421,88.32,88.085z" fill="#ffbe49" data-original="#ffbe49"/>
						<path style="fill-rule:evenodd;clip-rule:evenodd;" d="M80.624,99.021c-1.856-3.667-5.836,1.201-3.165,3.557        C79.346,104.242,81.574,100.889,80.624,99.021z" fill="#ffbe49" data-original="#ffbe49"/>
						<path style="fill-rule:evenodd;clip-rule:evenodd;" d="M73.351,109.447c-1.505-2.505-5.394-0.064-3.576,2.461        C71.2,113.888,74.988,112.169,73.351,109.447z" fill="#ffbe49" data-original="#ffbe49"/>
					</g>
					<g>
						<path style="fill-rule:evenodd;clip-rule:evenodd;" d="M104.886,150.734c3.649-5.005,5.456-10.772,6.999-16.438        c2.966-10.878,4.019-22.481,3.312-34.328c-0.337-5.632-1.529-12.7-4.817-18.061c-1.372-2.241-3.769-4.138-5.648-3.009        c-2.49,1.489-2.533,6.361-2.543,8.704c-0.015,3.315,0.666,6.724,1.284,9.265c1.605,6.59,3.175,12.687,3.826,18.604        c0.322,2.974,0.356,6.119,0.382,9.133c0.065,8.265-0.623,16.414-2.666,24.429c-0.091,0.336-0.098,0.775-0.163,1.125        C104.847,150.161,104.242,150.85,104.886,150.734z" fill="#ffffff" data-original="#ffffff"/>
						<path style="fill-rule:evenodd;clip-rule:evenodd;" d="M97.908,147.364c-0.889-6.95-4.011-14.453-7.595-22.303        c-1.75-3.836-7.924-11.692-11.184-9.367c-1.726,1.217-0.135,4.747,0.933,6.773C84.989,131.782,92.813,138.054,97.908,147.364z        " fill="#ffffff" data-original="#ffffff"/>
						<path style="fill-rule:evenodd;clip-rule:evenodd;" d="M103.184,148.191c2.17-7.676,2.918-16.558,2.603-25.591        c-0.149-4.27-0.517-8.821-1.267-13.281c-0.74-4.382-2.108-9.462-4.769-13.687c-2.096-3.313-5.456-6.883-7.961-5.303        c-2.077,1.314-1.324,4.793-0.793,7.008c0.637,2.667,1.846,5.478,2.697,7.402c4.615,10.411,8.573,19.802,9.259,29.399        C103.283,138.863,103.049,143.452,103.184,148.191z" fill="#ffffff" data-original="#ffffff"/>
						<path style="fill-rule:evenodd;clip-rule:evenodd;" d="M101.413,148.506c0.531-6.395-0.14-13.55-1.882-20.846        c-0.832-3.465-1.851-7.11-3.139-10.687c-1.317-3.643-3.151-7.618-6.069-11.118c-1.858-2.23-5.223-5.438-7.348-3.95        c-2.942,2.057,2.062,8.904,4.004,11.851c2.692,4.076,5.382,8.471,7.062,12.18c3.528,7.804,5.427,16.391,7.436,22.92        C101.598,148.762,101.458,148.626,101.413,148.506z" fill="#ffffff" data-original="#ffffff"/>
					</g>
				</g>
			</g>
			<path style="fill-rule:evenodd;clip-rule:evenodd;" d="M137.493,92.388c-3.536,2.532-3.848,6.907-4.096,10.457     c-0.5,7.351-0.841,14.503-2.791,21.887c-1.012,3.829-2.387,7.37-5.701,10.532c-1.257,1.197-3.55,2.376-4.04,3.949     c0.596,0.522,1.322,0.03,1.86-0.277c2.202-1.278,4.543-4.574,5.735-6.186c2.533-1.059,4.31-3.535,3.057-5.649     c2.961-1.881,3.086-4.04,1.865-6.328c2.808-1.158,3.771-3.917,1-5.615c3.029-1.612,3.194-4.603,0.296-5.451     c1.349-1.683,5.492-4.044,4.685-5.944c-0.687-1.632-2.543-1.315-4.004-1.072c0.798-2.152,3.49-6.193,3.341-8.584     C138.651,93.376,138.377,92.64,137.493,92.388z" fill="#8787cf" data-original="#8787cf"/>
			<path style="fill-rule:evenodd;clip-rule:evenodd;" d="M96.94,163.014c-0.505,0.948-0.231,1.935-0.735,2.899     c-2.125,4.064-8.679,8.616-13.407,12.3c-2.346,1.816-4.913,3.852-7.53,5.784c-2.098,1.543-5.946,4.75-7.203,3.64     c-1.591-1.4,1.387-4.591,2.774-6.24c4.85-5.772,11.258-12.904,17.926-17.689c2.139-1.534,4.014-2.281,6.023-2.046     c1.24-5.722,10.956-14.291,18.695-19.781c3.36-2.381,8.482-5.803,10.256-0.953c0.757,2.064-1.507,4.772-3.346,6.303     c-2.819,2.346-6.843,4.442-10.395,7.105C105.362,157.807,101.129,161.538,96.94,163.014z" fill="#acacf1" data-original="#acacf1"/>
		</g>
	</g>
	<path style="fill-rule:evenodd;clip-rule:evenodd;" d="M219.873,312.65c-3.66,0.78-8.009,7.516-5.351,9.725   C217.354,324.735,226.761,311.74,219.873,312.65z" fill="#ffffff" data-original="#ffffff"/>
	<path style="fill-rule:evenodd;clip-rule:evenodd;" d="M423.514,162.956c-4.526,2.074-7.848,12.115-3.578,14.228   C424.487,179.444,432.23,159.781,423.514,162.956z" fill="#ffffff" data-original="#ffffff"/>
	<path style="fill-rule:evenodd;clip-rule:evenodd;" d="M300.771,153.772c-0.62,4.942,5.409,13.979,9.092,11.901   C313.794,163.463,302.588,144.775,300.771,153.772z" fill="#ffffff" data-original="#ffffff"/>
	<path style="fill-rule:evenodd;clip-rule:evenodd;" d="M92.096,226.488c-3.097,0.056-2.915-4.358-0.17-6.432   C96.403,216.682,97.535,226.39,92.096,226.488z" fill="#ffffff" data-original="#ffffff"/>
	<path style="fill-rule:evenodd;clip-rule:evenodd;" d="M30.955,153.767c0.093-2.853,5.596-3.712,6.633-1.188   C39.667,157.643,30.955,157.153,30.955,153.767z" fill="#ffffff" data-original="#ffffff"/>
</g>















</g></svg>