<svg xmlns="http://www.w3.org/2000/svg" version="1.1" xmlns:xlink="http://www.w3.org/1999/xlink" xmlns:svgjs="http://svgjs.com/svgjs" width="512" height="512" x="0" y="0" viewBox="0 0 200 200" style="enable-background:new 0 0 512 512" xml:space="preserve"><g>
<style xmlns="http://www.w3.org/2000/svg" type="text/css">
	.st0{fill:url(#SVGID_1_);}
	.st1{fill:url(#SVGID_2_);}
	.st2{fill:url(#SVGID_3_);}
	.st3{fill:url(#SVGID_4_);}
	.st4{fill:url(#SVGID_5_);}
	.st5{fill:url(#SVGID_6_);}
	.st6{fill:url(#SVGID_7_);}
	.st7{fill:url(#SVGID_8_);}
	.st8{fill:url(#SVGID_9_);}
	.st9{fill:url(#SVGID_10_);}
	.st10{opacity:0.3;fill:#FFFFFF;}
	.st11{opacity:0.2;}
	.st12{fill:#FFFFFF;}
	.st13{opacity:0.6;}
	.st14{opacity:0.8;}
	.st15{opacity:0.3;}
	.st16{fill:#BA0000;}
	.st17{fill:url(#SVGID_12_);}
	.st18{fill:url(#SVGID_13_);}
	.st19{fill:url(#SVGID_14_);}
	.st20{fill:url(#SVGID_15_);}
	.st21{fill:url(#SVGID_16_);}
	.st22{fill:url(#SVGID_17_);}
	.st23{fill:url(#SVGID_18_);}
	.st24{fill:url(#SVGID_19_);}
	.st25{fill:url(#SVGID_20_);}
	.st26{fill:url(#SVGID_21_);}
	.st27{fill:url(#SVGID_22_);}
	.st28{fill:url(#SVGID_23_);}
	.st29{fill:url(#SVGID_24_);}
	.st30{fill:url(#SVGID_25_);}
	.st31{fill:url(#SVGID_26_);}
	.st32{fill:url(#SVGID_27_);}
	.st33{fill:url(#SVGID_28_);}
	.st34{fill:url(#SVGID_29_);}
	.st35{fill:url(#SVGID_30_);}
	.st36{fill:url(#SVGID_31_);}
	.st37{fill:url(#SVGID_32_);}
	.st38{fill:url(#SVGID_33_);}
	.st39{fill:url(#SVGID_34_);}
	.st40{fill:url(#SVGID_35_);}
	.st41{fill:url(#SVGID_36_);}
	.st42{fill:url(#SVGID_37_);}
	.st43{fill:url(#SVGID_38_);}
	.st44{fill:url(#SVGID_39_);}
	.st45{fill:url(#SVGID_40_);}
	.st46{fill:url(#SVGID_41_);}
	.st47{fill:url(#SVGID_42_);}
	.st48{fill:url(#SVGID_43_);}
	.st49{fill:url(#SVGID_44_);}
	.st50{fill:url(#SVGID_45_);}
	.st51{fill:url(#SVGID_46_);}
	.st52{opacity:0.3;fill:#FCF8D5;}
	.st53{opacity:0.3;fill:#FFE1E1;}
	.st54{fill:url(#SVGID_47_);}
	.st55{fill:url(#SVGID_48_);}
	.st56{fill:url(#SVGID_49_);}
	.st57{fill:url(#SVGID_50_);}
	.st58{fill:url(#SVGID_51_);}
	.st59{fill:url(#SVGID_52_);}
	.st60{fill:url(#SVGID_53_);}
	.st61{fill:url(#SVGID_54_);}
	.st62{fill:url(#SVGID_55_);}
	.st63{fill:url(#SVGID_56_);}
	.st64{fill:url(#SVGID_57_);}
	.st65{fill:url(#SVGID_58_);}
	.st66{fill:url(#SVGID_59_);}
	.st67{fill:url(#SVGID_60_);}
	.st68{fill:url(#SVGID_61_);}
	.st69{fill:url(#SVGID_62_);}
	.st70{fill:url(#SVGID_63_);}
	.st71{fill:url(#SVGID_64_);}
	.st72{fill:url(#SVGID_65_);}
	.st73{fill:url(#SVGID_66_);}
	.st74{fill:url(#SVGID_67_);}
	.st75{fill:url(#SVGID_68_);}
	.st76{fill:url(#SVGID_69_);}
	.st77{fill:url(#SVGID_70_);}
	.st78{fill:url(#SVGID_71_);}
	.st79{fill:url(#SVGID_72_);}
	.st80{opacity:0.3;fill:#E3FFE6;}
	.st81{fill:url(#SVGID_73_);}
	.st82{fill:url(#SVGID_74_);}
	.st83{fill:url(#SVGID_75_);}
	.st84{opacity:0.3;fill:#FFDEEB;}
	.st85{fill:url(#SVGID_76_);}
	.st86{fill:url(#SVGID_77_);}
	.st87{fill:url(#SVGID_78_);}
	.st88{fill:url(#SVGID_79_);}
	.st89{fill:url(#SVGID_80_);}
	.st90{fill:url(#SVGID_81_);}
	.st91{fill:url(#SVGID_82_);}
	.st92{fill:url(#SVGID_83_);}
	.st93{fill:url(#SVGID_84_);}
	.st94{fill:url(#SVGID_85_);}
	.st95{fill:url(#SVGID_86_);}
	.st96{fill:url(#SVGID_87_);}
	.st97{fill:url(#SVGID_88_);}
	.st98{fill:url(#SVGID_89_);}
	.st99{fill:url(#SVGID_90_);}
	.st100{fill:url(#SVGID_91_);}
	.st101{fill:url(#SVGID_92_);}
	.st102{fill:url(#SVGID_93_);}
	.st103{fill:url(#SVGID_94_);}
	.st104{fill:url(#SVGID_95_);}
	.st105{fill:url(#SVGID_96_);}
	.st106{fill:url(#SVGID_97_);}
	.st107{fill:url(#SVGID_98_);}
	.st108{fill:url(#SVGID_99_);}
	.st109{fill:url(#SVGID_100_);}
	.st110{fill:url(#SVGID_101_);}
	.st111{fill:url(#SVGID_102_);}
	.st112{fill:url(#SVGID_103_);}
	.st113{fill:url(#SVGID_104_);}
	.st114{fill:url(#SVGID_105_);}
	.st115{fill:url(#SVGID_106_);}
	.st116{fill:url(#SVGID_107_);}
	.st117{fill:url(#SVGID_108_);}
	.st118{fill:url(#SVGID_109_);}
	.st119{fill:url(#SVGID_110_);}
	.st120{fill:url(#SVGID_111_);}
	.st121{fill:url(#SVGID_112_);}
	.st122{fill:url(#SVGID_113_);}
	.st123{fill:url(#SVGID_114_);}
	.st124{fill:url(#SVGID_115_);}
	.st125{fill:url(#SVGID_116_);}
	.st126{fill:url(#SVGID_117_);}
	.st127{fill:url(#SVGID_118_);}
	.st128{fill:url(#SVGID_119_);}
	.st129{fill:url(#SVGID_120_);}
	.st130{fill:url(#SVGID_121_);}
	.st131{fill:url(#SVGID_122_);}
	.st132{fill:url(#SVGID_123_);}
	.st133{fill:url(#SVGID_124_);}
	.st134{fill:url(#SVGID_125_);}
	.st135{fill:url(#SVGID_126_);}
	.st136{fill:url(#SVGID_127_);}
	.st137{opacity:0.5;}
	.st138{fill:url(#SVGID_128_);}
	.st139{fill:url(#SVGID_129_);}
	.st140{fill:url(#SVGID_130_);}
	.st141{fill:url(#SVGID_131_);}
	.st142{fill:url(#SVGID_132_);}
	.st143{fill:url(#SVGID_133_);}
	.st144{fill:url(#SVGID_134_);}
	.st145{fill:url(#SVGID_135_);}
	.st146{fill:url(#SVGID_136_);}
	.st147{fill:url(#SVGID_137_);}
	.st148{fill:url(#SVGID_138_);}
	.st149{fill:url(#SVGID_139_);}
	.st150{fill:url(#SVGID_140_);}
	.st151{fill:url(#SVGID_141_);}
	.st152{fill:url(#SVGID_142_);}
	.st153{fill:url(#SVGID_143_);}
	.st154{fill:url(#SVGID_144_);}
	.st155{fill:url(#SVGID_145_);}
	.st156{fill:url(#SVGID_146_);}
	.st157{fill:url(#SVGID_147_);}
	.st158{fill:url(#SVGID_148_);}
	.st159{fill:url(#SVGID_149_);}
	.st160{fill:url(#SVGID_150_);}
	.st161{fill:url(#SVGID_151_);}
	.st162{fill:url(#SVGID_152_);}
	.st163{fill:url(#SVGID_153_);}
	.st164{fill:url(#SVGID_154_);}
	.st165{fill:url(#SVGID_155_);}
	.st166{fill:url(#SVGID_156_);}
	.st167{fill:url(#SVGID_157_);}
	.st168{fill:url(#SVGID_158_);}
	.st169{fill:url(#SVGID_159_);}
	.st170{fill:url(#SVGID_160_);}
	.st171{fill:url(#SVGID_161_);}
	.st172{fill:url(#SVGID_162_);}
	.st173{fill:url(#SVGID_163_);}
	.st174{fill:url(#SVGID_164_);}
	.st175{fill:url(#SVGID_165_);}
	.st176{fill:url(#SVGID_166_);}
	.st177{fill:url(#SVGID_167_);}
	.st178{fill:url(#SVGID_168_);}
	.st179{fill:url(#SVGID_169_);}
	.st180{fill:url(#SVGID_170_);}
	.st181{opacity:0.5;fill:url(#SVGID_171_);}
	.st182{fill:url(#SVGID_172_);}
	.st183{fill:url(#SVGID_173_);}
	.st184{fill:url(#SVGID_174_);}
	.st185{fill:url(#SVGID_175_);}
	.st186{fill:url(#SVGID_176_);}
	.st187{fill:url(#SVGID_177_);}
	.st188{fill:url(#SVGID_178_);}
	.st189{fill:url(#SVGID_179_);}
	.st190{fill:url(#SVGID_180_);}
	.st191{fill:url(#SVGID_181_);}
	.st192{fill:url(#SVGID_182_);}
	.st193{fill:url(#SVGID_183_);}
	.st194{fill:url(#SVGID_184_);}
	.st195{fill:url(#SVGID_185_);}
	.st196{fill:url(#SVGID_186_);}
	.st197{fill:url(#SVGID_187_);}
	.st198{fill:url(#SVGID_188_);}
	.st199{fill:url(#SVGID_189_);}
	.st200{fill:url(#SVGID_190_);}
	.st201{fill:url(#SVGID_191_);}
	.st202{fill:url(#SVGID_192_);}
	.st203{fill:url(#SVGID_193_);}
	.st204{fill:url(#SVGID_194_);}
	.st205{fill:url(#SVGID_195_);}
	.st206{fill:url(#SVGID_196_);}
	.st207{fill:url(#SVGID_197_);}
	.st208{fill:url(#SVGID_198_);}
	.st209{fill:url(#SVGID_199_);}
	.st210{fill:url(#SVGID_200_);}
	.st211{fill:url(#SVGID_201_);}
	.st212{fill:url(#SVGID_202_);}
	.st213{fill:url(#SVGID_203_);}
	.st214{fill:url(#SVGID_204_);}
	.st215{fill:url(#SVGID_205_);}
	.st216{fill:url(#SVGID_206_);}
	.st217{fill:url(#SVGID_207_);}
	.st218{fill:url(#SVGID_208_);}
	.st219{fill:url(#SVGID_209_);}
	.st220{fill:url(#SVGID_210_);}
	.st221{fill:url(#SVGID_211_);}
	.st222{fill:url(#SVGID_212_);}
	.st223{fill:url(#SVGID_213_);}
	.st224{fill:url(#SVGID_214_);}
	.st225{fill:url(#SVGID_215_);}
	.st226{fill:url(#SVGID_216_);}
	.st227{fill:url(#SVGID_217_);}
	.st228{fill:url(#SVGID_218_);}
	.st229{fill:url(#SVGID_219_);}
	.st230{fill:url(#SVGID_220_);}
	.st231{fill:url(#SVGID_221_);}
	.st232{fill:url(#SVGID_222_);}
	.st233{fill:url(#SVGID_223_);}
	.st234{fill:url(#SVGID_224_);}
	.st235{fill:url(#SVGID_225_);}
	.st236{fill:url(#SVGID_226_);}
	.st237{fill:url(#SVGID_227_);}
	.st238{fill:url(#SVGID_228_);}
	.st239{fill:url(#SVGID_229_);}
	.st240{fill:url(#SVGID_230_);}
	.st241{fill:url(#SVGID_231_);}
	.st242{fill:url(#SVGID_232_);}
	.st243{fill:url(#SVGID_233_);}
	.st244{fill:url(#SVGID_234_);}
	.st245{fill:url(#SVGID_235_);}
	.st246{fill:url(#SVGID_236_);}
	.st247{fill:url(#SVGID_237_);}
	.st248{fill:url(#SVGID_238_);}
	.st249{opacity:0.5;fill:#FFFFFF;}
	.st250{fill:url(#SVGID_239_);}
	.st251{fill:url(#SVGID_240_);}
	.st252{fill:url(#SVGID_241_);}
	.st253{fill:url(#SVGID_242_);}
	.st254{fill:url(#SVGID_243_);}
	.st255{fill:url(#SVGID_244_);}
	.st256{fill:url(#SVGID_245_);}
	.st257{fill:url(#SVGID_246_);}
	.st258{fill:url(#SVGID_247_);}
	.st259{fill:url(#SVGID_248_);}
	.st260{fill:url(#SVGID_249_);}
	.st261{fill:url(#SVGID_250_);}
	.st262{fill:url(#SVGID_251_);}
	.st263{fill:url(#SVGID_252_);}
	.st264{fill:url(#SVGID_253_);}
	.st265{fill:url(#SVGID_254_);}
	.st266{fill:url(#SVGID_255_);}
	.st267{fill:url(#SVGID_256_);}
	.st268{fill:url(#SVGID_257_);}
	.st269{fill:url(#SVGID_258_);}
	.st270{fill:url(#SVGID_259_);}
	.st271{fill:url(#SVGID_260_);}
	.st272{fill:url(#SVGID_261_);}
	.st273{fill:url(#SVGID_262_);}
	.st274{fill:url(#SVGID_263_);}
	.st275{fill:url(#SVGID_264_);}
	.st276{fill:url(#SVGID_265_);}
	.st277{fill:url(#SVGID_266_);}
	.st278{fill:url(#SVGID_267_);}
	.st279{fill:url(#SVGID_268_);}
	.st280{fill:url(#SVGID_269_);}
	.st281{fill:url(#SVGID_270_);}
	.st282{fill:url(#SVGID_271_);}
	.st283{fill:url(#SVGID_272_);}
	.st284{fill:url(#SVGID_273_);}
	.st285{fill:url(#SVGID_274_);}
	.st286{fill:url(#SVGID_275_);}
	.st287{fill:url(#SVGID_276_);}
	.st288{fill:url(#SVGID_277_);}
	.st289{fill:url(#SVGID_278_);}
	.st290{fill:url(#SVGID_279_);}
	.st291{fill:url(#SVGID_280_);}
	.st292{fill:url(#SVGID_281_);}
	.st293{fill:url(#SVGID_282_);}
	.st294{fill:url(#SVGID_283_);}
	.st295{fill:url(#SVGID_284_);}
	.st296{fill:url(#SVGID_285_);}
	.st297{fill:url(#SVGID_286_);}
	.st298{fill:url(#SVGID_287_);}
	.st299{fill:url(#SVGID_288_);}
	.st300{fill:url(#SVGID_289_);}
	.st301{fill:url(#SVGID_290_);}
	.st302{opacity:0.2;fill:#FFFFFF;}
	.st303{fill:url(#SVGID_291_);}
	.st304{fill:url(#SVGID_292_);}
	.st305{fill:url(#SVGID_293_);}
	.st306{fill:url(#SVGID_294_);}
	.st307{fill:url(#SVGID_295_);}
	.st308{fill:url(#SVGID_296_);}
	.st309{fill:url(#SVGID_297_);}
	.st310{fill:url(#SVGID_298_);}
	.st311{fill:url(#SVGID_299_);}
	.st312{fill:url(#SVGID_300_);}
	.st313{fill:url(#SVGID_301_);}
	.st314{fill:url(#SVGID_302_);}
	.st315{fill:url(#SVGID_303_);}
	.st316{fill:url(#SVGID_304_);}
	.st317{fill:url(#SVGID_305_);}
	.st318{fill:url(#SVGID_306_);}
	.st319{fill:url(#SVGID_307_);}
	.st320{fill:url(#SVGID_308_);}
	.st321{fill:url(#SVGID_309_);}
	.st322{fill:url(#SVGID_310_);}
	.st323{fill:url(#SVGID_311_);}
	.st324{fill:url(#SVGID_312_);}
	.st325{fill:url(#SVGID_313_);}
	.st326{fill:url(#SVGID_314_);}
	.st327{fill:url(#SVGID_315_);}
	.st328{fill:url(#SVGID_316_);}
	.st329{fill:url(#SVGID_317_);}
	.st330{fill:url(#SVGID_318_);}
	.st331{fill:url(#SVGID_319_);}
	.st332{fill:url(#SVGID_320_);}
	.st333{fill:url(#SVGID_321_);}
	.st334{fill:url(#SVGID_322_);}
	.st335{fill:url(#SVGID_323_);}
	.st336{fill:url(#SVGID_324_);}
</style>
<g xmlns="http://www.w3.org/2000/svg">
	<g>
		<radialGradient id="SVGID_1_" cx="63.8392" cy="118.9852" r="31.0303" gradientUnits="userSpaceOnUse">
			<stop offset="0" style="stop-color:#F7A4BB"/>
			<stop offset="0.1259" style="stop-color:#F79DB3"/>
			<stop offset="0.3243" style="stop-color:#F7899C"/>
			<stop offset="0.5703" style="stop-color:#F76977"/>
			<stop offset="0.8517" style="stop-color:#F73E45"/>
			<stop offset="1" style="stop-color:#F72427"/>
		</radialGradient>
		<path class="st0" d="M89.0767,88.6344c1.0473,1.2127,2.277,2.2739,3.6472,3.1066c0.6922,0.4207,1.4095,0.7446,2.1533,1.0577    c0.4563,0.1921,0.5646,0.1193,0.6388,0.4955c0.1122,0.5688-0.3223,1.4703-0.444,2.0216    c-0.2115,0.9577-0.4173,1.9167-0.6259,2.8751c-0.3871,1.7789-0.7842,3.5555-1.2319,5.3203    c-1.7172,6.7688-4.023,13.3942-7.028,19.7015c-2.9224,6.1341-6.4834,11.9659-10.6193,17.3572    c-2.0859,2.7191-4.4374,5.1854-6.6139,7.8213c-0.1886,0.2284-0.5696,0.9356-0.8964,0.9447    c-0.2865,0.0079-0.5389-0.4175-0.7024-0.6224c-0.5857-0.7338-1.1192-1.5202-1.682-2.272    c-2.0109-2.6862-3.7962-5.5736-5.2555-8.5968c-0.6507-1.348-1.2006-2.7762-2.3989-3.7453    c-1.2087-0.9775-2.7499-1.3652-4.2825-1.2046c-1.7254,0.1808-3.3773,0.7701-5.0679,1.1288    c-1.7651,0.3745-3.5532,0.661-5.3414,0.8997c-1.7667,0.2359-3.5407,0.4243-5.3182,0.5563    c-0.8273,0.0615-1.6556,0.1105-2.4844,0.1454c-0.7976,0.0336-1.979,0.2684-2.7455,0.0422    c-1.0802-0.3187-0.4713-2.3271-0.3864-3.1243c0.188-1.7657,0.4389-3.525,0.7498-5.2732    c0.6314-3.5499,1.6669-6.9844,2.4335-10.4988c0.0605-0.2774,0.0372-0.7238,0.3046-0.8693    c0.2872-0.1563,0.9799,0.0891,1.2919,0.115c1.7638,0.1463,3.5964,0.0003,5.3514-0.1871    c3.5964-0.3841,7.1174-1.2571,10.5983-2.2134c12.1186-3.3292,22.929-10.5756,31.4386-19.7358    c1.1596-1.2483,2.2814-2.5332,3.3321-3.8748c-3.105,5.8896-6.0412,11.8871-10.0437,17.2387    c-3.8449,5.1407-8.3707,9.7359-13.226,13.923c-1.2584,1.0852-2.5392,2.145-3.8119,3.213    c-0.2163,0.1816-1.1638,0.8937-0.9923,1.2359c0.187,0.3732,1.0802,0.0552,1.3612-0.047c1.1778-0.4282,2.3302-1.1703,3.4157-1.7897    c1.3024-0.7432,2.5627-1.5593,3.7797-2.4351c4.9628-3.5717,9.252-8.1195,12.7411-13.1298c2.053-2.9481,3.8198-6.097,5.2552-9.3906    c0.7876-1.8072,1.4672-3.6624,2.0052-5.5594c0.2441-0.8607,0.4395-1.7276,0.6181-2.604    C89.1187,90.0498,89.3945,89.2247,89.0767,88.6344z" fill="#000000" data-original="#000000"/>
		<radialGradient id="SVGID_2_" cx="136.136" cy="118.902" r="31.0683" gradientUnits="userSpaceOnUse">
			<stop offset="0" style="stop-color:#F7A4BB"/>
			<stop offset="0.1259" style="stop-color:#F79DB3"/>
			<stop offset="0.3243" style="stop-color:#F7899C"/>
			<stop offset="0.5703" style="stop-color:#F76977"/>
			<stop offset="0.8517" style="stop-color:#F73E45"/>
			<stop offset="1" style="stop-color:#F72427"/>
		</radialGradient>
		<path class="st1" d="M167.1441,128.9861c0.2876,1.8619,0.5607,3.7435,0.6561,5.6269c0.034,0.6722-0.02,1.072-0.7654,1.1131    c-0.7636,0.0422-1.5821-0.0748-2.3473-0.1061c-3.7072-0.1516-7.4066-0.5301-11.063-1.1626    c-1.7846-0.3087-3.5573-0.6817-5.3193-1.1003c-1.6268-0.3865-3.2503-0.7643-4.8671-0.111    c-2.5975,1.0496-3.5249,4.0378-4.7446,6.3081c-1.8754,3.4909-4.099,6.8044-6.6958,9.8008    c-14.1934-13.9204-22.4299-32.624-26.5871-51.8101c-0.2844-1.3123-0.6105-2.6211-0.8867-3.9332    c-0.0576-0.2736-0.0967-0.4456-0.0049-0.6111c0.1968-0.355,0.9439-0.5202,1.2832-0.6638c1.0995-0.4655,2.095-1.1456,3.0085-1.9126    c0.4916-0.4127,0.9912-0.8559,1.411-1.3424c0.1782-0.2065,0.5045-0.91,0.8213-0.514c-0.4014-0.1338-0.0768,2.0225-0.0501,2.1903    c0.1959,1.2335,0.5207,2.4364,0.8954,3.6274c1.17,3.7183,2.8581,7.282,4.8598,10.622    c3.6452,6.0825,8.4233,11.5391,14.1099,15.7905c1.7635,1.3185,3.6179,2.5163,5.5452,3.5814    c0.8573,0.4738,1.7504,0.9808,2.6907,1.2721c0.4726,0.1464,1.2418,0.3338,0.9597-0.3902    c-0.2989-0.7672-1.5207-1.4324-2.1427-1.9154c-1.28-0.994-2.4899-2.0924-3.7012-3.1685c-2.8813-2.5597-5.658-5.2432-8.215-8.1292    c-2.8921-3.2643-5.4684-6.7975-7.7607-10.506c-2.3629-3.8226-4.1998-7.8949-6.3523-11.8295    c5.7736,7.497,13.2608,13.654,21.499,18.2685c4.3616,2.4431,8.9458,4.3539,13.7506,5.7312    c5.014,1.4372,10.2263,2.4992,15.4672,2.3172c0.3823-0.0133,1.0394-0.2146,1.4023-0.1163    c0.3675,0.0996,0.326,0.3554,0.4109,0.7219c0.2995,1.2934,0.655,2.5753,0.9801,3.8635    C166.0993,123.301,166.7028,126.1293,167.1441,128.9861z" fill="#000000" data-original="#000000"/>
		<radialGradient id="SVGID_3_" cx="99.854" cy="77.1515" r="11.8122" gradientUnits="userSpaceOnUse">
			<stop offset="0" style="stop-color:#F7A4BB"/>
			<stop offset="0.1259" style="stop-color:#F79DB3"/>
			<stop offset="0.3243" style="stop-color:#F7899C"/>
			<stop offset="0.5703" style="stop-color:#F76977"/>
			<stop offset="0.8517" style="stop-color:#F73E45"/>
			<stop offset="1" style="stop-color:#F72427"/>
		</radialGradient>
		<path class="st2" d="M88.8903,77.132c0-4.6469,2.3667-9.4867,6.6396-11.6057c4.6147-2.2885,10.0575-0.3691,12.9045,3.7486    c2.9597,4.2809,3.1706,10.2745,0.5893,14.783c-2.4336,4.2505-7.4476,6.8284-12.2563,5.2088    C91.7735,87.5845,88.8903,82.2007,88.8903,77.132z M97.4506,68.0791c-2.7825,1.1772-4.8362,3.8473-5.568,6.7444    c-0.3565,1.4112-0.4766,3.0454,0.0427,4.4349c0.6577,1.76,1.2974-0.0432,1.5694-0.8816c1.0343-3.1874,2.2203-5.9935,4.786-8.2619    c0.3829-0.3385,2.3881-1.9404,1.369-2.4332C99.091,67.4116,97.9701,67.8634,97.4506,68.0791z" fill="#000000" data-original="#000000"/>
		<radialGradient id="SVGID_4_" cx="52.8408" cy="72.4794" r="37.4121" gradientUnits="userSpaceOnUse">
			<stop offset="0" style="stop-color:#F7A4BB"/>
			<stop offset="0.1259" style="stop-color:#F79DB3"/>
			<stop offset="0.3243" style="stop-color:#F7899C"/>
			<stop offset="0.5703" style="stop-color:#F76977"/>
			<stop offset="0.8517" style="stop-color:#F73E45"/>
			<stop offset="1" style="stop-color:#F72427"/>
		</radialGradient>
		<path class="st3" d="M89.5027,64.2716c0.604,0.6589-0.1614,1.0462-0.6276,1.6099c-0.7156,0.8653-1.3426,1.8039-1.8725,2.7938    c-0.4917,0.9187-0.9444,1.8912-1.1898,2.9063c-0.2178,0.9007-0.3494,1.1335-1.3,1.016    c-4.3762-0.5406-8.8271-1.7687-12.8252-3.6235c-2.1814-1.012-4.2825-2.2487-6.3035-3.55    c-0.4756-0.3062-2.621-1.7585-2.1805-0.1965c0.2956,1.0482,1.3658,2.0294,2.1035,2.7902    c1.5082,1.5558,3.2823,2.8357,5.1836,3.8682c4.3801,2.3787,9.6955,3.5974,14.632,2.5301    c-0.2894,1.939-0.2697,3.8425,0.0399,5.7778c-2.9172-0.4488-5.9489,0.1897-8.5931,1.4459    c-1.3177,0.626-2.5684,1.4163-3.6733,2.3707c-0.79,0.6823-1.9527,1.6935-2.2917,2.7302c-0.3829,1.171,0.789,0.9261,1.4762,0.6159    c1.1869-0.5357,2.3342-1.1715,3.507-1.7384c2.9411-1.4217,5.9835-2.2008,9.0749-3.187c0.3753-0.1197,0.7553-0.3765,1.0414-0.0943    c0.2589,0.2554,0.2943,0.9789,0.4087,1.3175c0.2373,0.7023,0.5736,1.3794,0.9272,2.0302c0.2102,0.3868,0.4467,0.749,0.6831,1.1186    c0.1008,0.1577,0.281,0.6712,0.4153,0.7642c-0.0848-0.0587-2.9793,2.5386-3.2157,2.7389    c-1.433,1.2148-2.8827,2.4096-4.3606,3.5696c-2.8426,2.2312-5.7838,4.341-8.852,6.252    c-6.4991,4.0479-13.4843,7.0847-20.9533,8.7928c-7.015,1.6042-14.7196,2.6717-21.3276-0.9036    c-6.126-3.3146-9.5469-9.7353-11.2922-16.2473c-1.902-7.0969-1.9845-14.5112-2.1144-21.8081    c-0.1148-6.4519-0.2834-13.0331,1.4386-19.3153c1.7241-6.2902,5.6785-12.0156,11.8158-14.6523    c6.5737-2.8242,14.3196-0.9602,20.8986,0.903c6.9104,1.957,13.535,4.8932,19.5162,8.8816    c5.9692,3.9804,11.3013,8.8556,16.0638,14.2085C87.0167,61.4047,88.2452,62.8508,89.5027,64.2716z M45.8494,41.2534    c0.2352-1.4898-6.3148-1.4324-6.8637-1.3941c-3.3878,0.2367-6.7032,1.3722-9.4462,3.3894    c-4.7858,3.5194-7.5353,9.3457-7.6106,15.2426c-0.0381,2.9866,0.5909,5.973,1.9487,8.6408    c0.1922,0.3776,0.9402,1.9971,1.5591,1.5415c0.5163-0.3801,0.0209-2.0862-0.0649-2.5894    c-1.0092-5.9165-0.0212-12.657,3.8361-17.4064c2.2532-2.7743,5.3591-4.7031,8.7645-5.7319    c1.6402-0.4955,3.3735-0.8742,5.0849-0.9988C43.5989,41.9077,45.7016,41.9924,45.8494,41.2534z" fill="#000000" data-original="#000000"/>
		<radialGradient id="SVGID_5_" cx="147.0683" cy="72.5191" r="37.458" gradientUnits="userSpaceOnUse">
			<stop offset="0" style="stop-color:#F7A4BB"/>
			<stop offset="0.1259" style="stop-color:#F79DB3"/>
			<stop offset="0.3243" style="stop-color:#F7899C"/>
			<stop offset="0.5703" style="stop-color:#F76977"/>
			<stop offset="0.8517" style="stop-color:#F73E45"/>
			<stop offset="1" style="stop-color:#F72427"/>
		</radialGradient>
		<path class="st4" d="M181.1627,46.7916c2.5103,5.9072,2.8957,12.4843,2.8764,18.8247c-0.0105,3.4597-0.1662,6.9186-0.2783,10.3761    c-0.0982,3.0299-0.2282,6.0623-0.6272,9.07c-1.1288,8.5085-4.2858,18.0907-12.1014,22.706    c-4.8752,2.879-10.7234,3.0765-16.1989,2.2956c-6.2932-0.8975-12.509-2.7934-18.275-5.4559    c-5.8968-2.7229-11.3605-6.253-16.485-10.229c-2.628-2.039-5.0705-4.3036-7.687-6.3519    c-0.4327-0.3388-0.7704-0.4012-0.5938-0.9504c0.2097-0.6521,0.8625-1.3524,1.1731-1.9794    c0.3076-0.621,0.5824-1.2617,0.8098-1.9166c0.1731-0.4986,0.1464-0.9503,0.7641-0.906c0.5626,0.0403,1.2361,0.3608,1.7812,0.5099    c0.8405,0.2299,1.6774,0.4737,2.5075,0.7386c1.5413,0.4919,3.0604,1.0565,4.5334,1.7267    c1.4055,0.6396,2.7678,1.3716,4.1537,2.0514c0.5,0.2452,1.7212,0.7666,1.6646-0.2184c-0.0692-1.2042-1.9293-2.6836-2.7725-3.4014    c-2.0139-1.7143-4.6406-2.8119-7.2198-3.3103c-1.5199-0.2937-3.1074-0.4138-4.6434-0.1775    c0.3332-1.9224,0.3163-3.8355,0.0533-5.7645c4.7904,0.9315,9.8627-0.084,14.164-2.3032c2.0746-1.0704,4.0284-2.4303,5.6489-4.118    c0.5894-0.6138,2.2231-2.1761,2.1028-3.1158c-0.1001-0.7813-1.0942-0.1228-1.4661,0.0974    c-1.1094,0.6568-2.1945,1.3535-3.3065,2.0058c-2.2204,1.3026-4.5206,2.4507-6.9453,3.3233    c-2.5566,0.9201-5.1992,1.5316-7.8796,1.9586c-0.5688,0.0906-2.2676,0.6725-2.7298,0.1829    c-0.2307-0.2444-0.2966-1.0378-0.4118-1.3637c-0.2342-0.6623-0.5064-1.3115-0.8193-1.9406    c-0.4989-1.0032-1.0941-1.9583-1.7814-2.8434c-0.2586-0.333-0.8139-0.7663-0.9916-1.1374    c-0.2549-0.5325,0.1094-0.7297,0.466-1.0937c1.7806-1.8176,3.3476-3.862,5.0809-5.7284    c3.5469-3.8194,7.3932-7.3661,11.5829-10.472c8.342-6.184,17.8251-10.0828,27.9353-12.3094    c5.3403-1.1761,11.132-1.7149,16.2028,0.7561C175.8372,38.4656,179.2621,42.3253,181.1627,46.7916z M178.0741,85.386    c0.8518-4.6337,0.7416-9.4115-0.3556-13.9936c-0.2795-1.1674-0.5342-2.4922-1.1501-3.5364    c-0.77-1.3055-0.9569,0.2496-0.9657,0.9811c-0.0141,1.1676,0.1405,2.3237,0.1969,3.4874    c0.0983,2.0308,0.0119,4.0936-0.1527,6.1183c-0.3393,4.1757-1.1978,8.3592-2.9483,12.1838    c-1.7601,3.8453-4.492,7.4737-8.2184,9.5904c-4.3724,2.4836-9.3318,1.9167-13.9701,0.5606    c-1.0232-0.2991-2.4957-1.073-3.5919-1.0301c-0.3884,0.0152-0.4921,0.001-0.3987,0.3848c0.1909,0.7852,1.816,1.6422,2.4442,2.0222    c3.9317,2.3785,8.8343,3.5238,13.3729,2.5694C171.2713,102.8447,176.5371,93.7469,178.0741,85.386z" fill="#000000" data-original="#000000"/>
	</g>
	<g>
		<path class="st302" d="M183.859,49.3298c-2.9806,3.2265-7.4472,2.2972-10.8193,0.2537    c-3.9627-2.4014-7.5662-5.7083-10.1754-9.5437c-1.1546-1.6973-2.0484-3.5424-2.5294-5.5444    c-0.1412-0.5878-0.3368-1.1368,0.2977-1.3491c0.7163-0.2397,1.9387-0.0993,2.6836-0.1206    c4.6572-0.1333,9.1845,1.1782,12.8694,4.0761C180.0746,40.1601,182.5469,44.6178,183.859,49.3298z" fill="#000000" data-original="#000000"/>
		<path class="st302" d="M84.2984,94.0525c-4.1006,3.3052-8.3912,6.3868-12.9463,9.0374c-2.3615,1.3741-4.7891,2.6343-7.2832,3.7504    c-1.1013,0.4928-2.2217,0.9387-3.331,1.4122c-1.0441,0.4456-1.5122,0.6696-2.3521-0.2134    c-3.3273-3.4983-0.5739-7.9757,2.1641-10.8408c3.1286-3.2738,7.2728-5.5737,11.7142-6.4696    C76.4499,89.8845,81.5753,90.3424,84.2984,94.0525z" fill="#000000" data-original="#000000"/>
		<path class="st302" d="M91.4204,63.7515c-2.0524,1.78-5.1672,1.2667-7.4566,0.278c-2.8746-1.2415-5.4995-3.4014-7.7631-5.5286    c-3.5215-3.3094-8.5489-8.6715-6.7517-13.9835c4.1123,2.4975,7.9663,5.4097,11.5525,8.6145    C84.7061,56.4427,88.0116,60.1458,91.4204,63.7515z" fill="#000000" data-original="#000000"/>
		<path class="st302" d="M42.1882,112.5051c-4.5322,0.3122-9.1923-0.381-13.1628-2.686c-3.8099-2.2118-6.6663-5.742-8.6254-9.6402    c-0.4777-0.9506-0.8642-1.9321-1.2843-2.9075c-0.2587-0.6006-0.8051-1.2978-0.4589-1.9303    c0.3756-0.6862,1.4802-1.2609,2.1649-1.4958c1.2295-0.4218,2.5963-0.4136,3.8716-0.2522    c4.409,0.5578,8.6493,2.6992,11.9014,5.6934C40.1166,102.5292,43.3698,107.5024,42.1882,112.5051z" fill="#000000" data-original="#000000"/>
		<path class="st302" d="M165.9793,77.3902c-2.8102-3.4394-7.5823-4.2698-11.7729-3.6305    c-4.627,0.7058-9.4466,3.3695-11.9309,7.4485c-2.4912,4.0902,0.1011,8.1129,4.2511,9.5099    c4.7384,1.5951,10.31,0.2358,14.789-1.5624c2.2656-0.9096,4.5938-2.1608,5.715-4.447    C168.2128,82.2984,167.6562,79.4206,165.9793,77.3902z" fill="#000000" data-original="#000000"/>
		<path class="st302" d="M185.4553,72.0458c-0.1567,5.1877-0.2092,10.4003-1.0427,15.5357    c-0.387,2.3847-0.9429,4.7205-1.6724,7.0229c-0.2753,0.8688-0.393,1.8715-1.2819,2.3182    c-0.9987,0.5019-2.2491,0.6632-3.3486,0.5608c-3.8093-0.3549-5.4941-3.9652-6.1168-7.3133    c-0.7771-4.1781-0.0807-8.5296,2.0534-12.2184C176.2257,74.1843,180.8541,70.4551,185.4553,72.0458z" fill="#000000" data-original="#000000"/>
		<path class="st302" d="M64.7283,50.9907c-0.5752,1.9202-1.9647,3.5065-3.8559,4.2113c-2.3906,0.8908-4.9659,0.2306-7.1295-0.9488    c-4.2048-2.292-8.0009-5.7068-10.8027-9.5805c-1.3715-1.8962-2.5301-4.0094-2.9195-6.3423    c-0.1502-0.8996-0.2221-1.8796,0.0579-2.7615c0.318-1.0017,0.4599-1.1311,1.438-0.9473    c5.2943,0.9946,10.5607,2.1674,15.6392,4.0015c1.3392,0.4836,2.678,0.9933,3.9888,1.5494    c1.2214,0.5182,1.7637,1.2485,2.3634,2.4061C64.8409,45.1517,65.6049,48.1392,64.7283,50.9907z" fill="#000000" data-original="#000000"/>
		<path class="st302" d="M132.5263,101.3561c-0.1442,0.4795-0.2677,1.5705-0.8681,1.6661    c-0.3275,0.0522-0.8391-0.4001-1.1065-0.5583c-0.5437-0.3216-1.1-0.6225-1.6448-0.9426    c-2.1375-1.2559-4.2209-2.6029-6.2537-4.0217c-4.0844-2.8507-7.9214-6.0246-11.7642-9.1878    c1.1556-1.3395,2.1003-2.8667,2.7797-4.5002c0.1756-0.4222,0.292-1.5321,0.6396-1.8304c0.3217-0.276,0.9295-0.1151,1.2941-0.0507    c3.1171,0.5504,6.1265,1.7418,8.7508,3.5114C129.2473,88.7424,134.4636,95.0434,132.5263,101.3561z" fill="#000000" data-original="#000000"/>
		<path class="st302" d="M177.7999,103.945c-2.1944,2.688-5.0811,4.8432-8.3373,6.0637c-1.7765,0.6659-3.6506,1.0446-5.5366,1.2217    c-0.7269,0.0682-1.8949,0.3644-2.5692,0.005c-0.6368-0.3394-1.086-1.3999-1.4343-1.9978    c-1.5888-2.7275-2.6375-6.3037-0.6632-9.1251c1.9349-2.765,5.3972-2.5059,8.3188-1.7997    C171.4142,99.2401,174.9523,101.2188,177.7999,103.945z" fill="#000000" data-original="#000000"/>
		<path class="st302" d="M157.2529,44.0036c0.002,2.9961-3.2617,4.8051-5.7582,5.5571c-3.2985,0.9937-7.0949,0.4534-9.9521-1.4859    c-1.5263-1.036-2.7558-2.4765-3.4578-4.1894c-0.3795-0.9258-0.747-2.09-0.6268-3.1049c0.0976-0.8236,0.7889-0.9594,1.4778-1.2775    c2.076-0.9585,4.2055-1.8061,6.3688-2.5461c0.8905-0.3046,1.7809-0.6587,2.682-0.9287c0.9599-0.2876,1.671-0.1795,2.606,0.1511    C154.0432,37.3995,157.5678,39.9014,157.2529,44.0036z" fill="#000000" data-original="#000000"/>
		<path class="st302" d="M37.1184,93.7273c2.2023,6.6395,11.5561,8.6619,16.9388,4.6819c3.1881-2.3573,3.1307-6.3379,0.4766-9.1122    c-2.7295-2.8532-7.2223-3.6656-11.0055-3.5971c-2.1098,0.0382-4.3504,0.3992-5.7072,2.1905    C36.5706,89.5415,36.4748,91.8165,37.1184,93.7273z" fill="#000000" data-original="#000000"/>
		<path class="st302" d="M49.5413,55.9118c-3.8015-2.6251-8.8723-2.3816-12.8581-0.3032    c-3.7961,1.9795-7.2507,5.9745-7.4277,10.4145c-0.1632,4.0923,3.4639,6.777,7.2686,7.1092    c4.734,0.4133,9.5196-2.1237,13.0899-5.0079c1.905-1.5389,3.5734-3.5319,3.5316-6.113    C53.1053,59.5256,51.5423,57.2798,49.5413,55.9118z" fill="#000000" data-original="#000000"/>
		<path class="st302" d="M157.1532,55.2704c-3.8015-2.6251-8.8723-2.3816-12.8581-0.3032    c-3.7961,1.9795-7.2507,5.9745-7.4277,10.4145c-0.1632,4.0923,3.4639,6.777,7.2686,7.1092    c4.7339,0.4133,9.5196-2.1237,13.0899-5.0079c1.905-1.5389,3.5734-3.5319,3.5316-6.113    C160.7173,58.8842,159.1542,56.6384,157.1532,55.2704z" fill="#000000" data-original="#000000"/>
		<path class="st302" d="M56.0972,65.612c2.2023,6.6395,11.5561,8.6619,16.9388,4.6819c3.1881-2.3573,3.1307-6.3379,0.4766-9.1122    c-2.7295-2.8533-7.2223-3.6657-11.0055-3.5971c-2.1098,0.0382-4.3504,0.3992-5.7072,2.1905    C55.5494,61.4261,55.4535,63.7012,56.0972,65.612z" fill="#000000" data-original="#000000"/>
		<path class="st302" d="M117.5697,73.8262c2.2023,6.6395,11.5561,8.6619,16.9388,4.6819c3.1881-2.3573,3.1307-6.3379,0.4766-9.1122    c-2.7296-2.8533-7.2223-3.6657-11.0055-3.5971c-2.1098,0.0382-4.3504,0.3992-5.7072,2.1905    C117.0219,69.6404,116.926,71.9154,117.5697,73.8262z" fill="#000000" data-original="#000000"/>
		<path class="st302" d="M21.938,63.5308c0.0022,3.1707-3.8424,5.0612-6.4439,5.7444c-0.1293-4.4404-0.1218-8.9113,0.4533-13.3236    C19.2383,57.1651,22.2307,59.7218,21.938,63.5308z" fill="#000000" data-original="#000000"/>
		<path class="st302" d="M33.5793,80.2209c-0.434,5.1701-5.011,8.7554-9.8072,9.7922c-1.5231,0.3292-3.0704,0.4373-4.6166,0.2203    c-0.4924-0.0691-1.5977-0.0904-1.9876-0.4329c-0.3753-0.3296-0.3126-0.9385-0.3708-1.3964    c-0.4473-3.5208-0.7999-7.0063-0.9611-10.5552c2.2248,0.6381,4.6504,0.694,6.4342-0.9882    c1.3953-1.3159,2.3444-3.2806,4.437-3.5683C30.1812,72.8148,33.8637,76.8461,33.5793,80.2209z" fill="#000000" data-original="#000000"/>
		<path class="st302" d="M35.6094,47.6026c-1.9609,2.7177-5.1887,4.0669-8.4785,4.139c-1.6515,0.0362-3.3101-0.2271-4.8769-0.7473    c-0.7365-0.2446-1.4544-0.547-2.1418-0.9072c-0.607-0.3181-1.9885-0.9241-2.2753-1.5684    c-0.2792-0.6272,0.4168-1.6983,0.6797-2.2771c0.4763-1.0487,1.0254-2.0642,1.6539-3.0297c0.5696-0.8749,1.2055-1.708,1.903-2.4848    c0.5373-0.5984,1.4257-1.832,2.2335-2.0733c0.5028-0.1502,1.3642,0.3419,1.9219,0.3736c1.1406,0.0649,2.2135-0.3476,3.2751-0.7015    c1.7622-0.5875,3.4877-0.7531,4.9485,0.5647C36.6541,40.8768,37.3905,45.1319,35.6094,47.6026z" fill="#000000" data-original="#000000"/>
		<path class="st302" d="M62.494,76.4848c-2.3136-0.111-3.8986-1.8614-5.3654-3.4464c-1.7516-1.8927-3.7595-2.6083-5.8144-0.6405    c-1.6581,1.5879-2.6574,4.0387-2.2262,6.3347c0.4556,2.4257,2.1995,4.6306,3.9419,6.2987    c3.1977,3.0615,7.7787,4.7739,12.2011,3.9943c3.6635-0.6459,7.5365-3.0405,7.5935-7.1496    c0.0311-2.2415-0.9289-5.0335-3.0226-6.151C67.4138,74.4504,64.9381,76.602,62.494,76.4848z" fill="#000000" data-original="#000000"/>
		<path class="st302" d="M185.5667,64.9903c0.2112,0.2057-2.5969,2.1456-2.9049,2.305c-2.2708,1.1745-4.9168,1.4329-7.4213,1.0545    c-4.5012-0.68-8.4708-3.5376-10.7507-7.4495c-1.2889-2.2116-1.703-4.6003-0.5811-6.9751    c0.7796-1.6503,2.4655-3.7846,4.5319-3.5553c1.9987,0.2218,3.1912,2.5389,4.5815,3.7377c1.8376,1.5845,3.8358,1.985,6.139,1.2518    c1.2257-0.3902,2.4297-0.9007,3.7409-0.7017c0.86,0.1305,1.957,0.5239,2.2603,1.4285c0.1768,0.5273,0.0907,1.1602,0.1201,1.7081    c0.0407,0.7581,0.1165,1.5146,0.1564,2.2731C185.5251,61.7067,185.5617,63.3487,185.5667,64.9903z" fill="#000000" data-original="#000000"/>
		<path class="st302" d="M90.0351,88.6578c-3.2697-0.4124-6.2736-1.9501-8.6032-4.2679c-2.1956-2.1844-4.4138-5.3071-3.6682-8.575    c0.4874-2.1365,2.2251-5.1751,4.7248-5.2116c0.6924-0.0101,1.3137,0.2523,1.8667,0.6559c0.4801,0.3505,1.3896,1.0348,1.5259,1.646    c0.1487,0.6667-0.2272,1.6594-0.2866,2.342c-0.0859,0.989-0.0921,1.9853-0.0181,2.9753    C85.8634,82.059,87.3899,85.8394,90.0351,88.6578z" fill="#000000" data-original="#000000"/>
		<path class="st302" d="M125.7619,60.3029c-2.7277,1.6547-6.0772,2.9563-9.3239,2.5968c-0.7512-0.0832-1.467-0.3072-2.133-0.6649    c-0.5694-0.3058-1.7173-0.9529-1.9782-1.582c-0.3185-0.7678,1.9913-2.6861,2.5467-3.2766    c4.6765-4.9726,9.8688-9.4763,15.5915-13.2087C134.2931,49.5303,130.4889,57.0069,125.7619,60.3029z" fill="#000000" data-original="#000000"/>
		<path class="st302" d="M150.633,110.0373c-5.1363-0.999-10.1265-2.701-14.8671-4.9062c2.239-0.8217,4.8735-1.6355,5.8572-4.0491    c0.8156-2.0009,0.1982-4.6168,1.6662-6.3485c1.7173-2.0257,5.3602-1.705,7.4978-0.641c2.5229,1.2557,3.584,4.0309,3.6654,6.7187    C154.5568,104.2509,152.9538,107.5684,150.633,110.0373z" fill="#000000" data-original="#000000"/>
		<g class="st11">
			<path class="st12" d="M178.6484,59.1298c2.9221,0,2.9258-4.6362,0-4.6317C175.7255,54.5026,175.7235,59.1298,178.6484,59.1298z" fill="#000000" data-original="#000000"/>
		</g>
		<g class="st11">
			<path class="st12" d="M150.183,48.1686c2.9221,0,2.9258-4.6362,0-4.6317C147.26,43.5414,147.258,48.1686,150.183,48.1686z" fill="#000000" data-original="#000000"/>
		</g>
		<g class="st11">
			<path class="st12" d="M60.9027,55.6397c2.9221,0,2.9258-4.6362,0-4.6317C57.9798,51.0125,57.9778,55.6397,60.9027,55.6397z" fill="#000000" data-original="#000000"/>
		</g>
		<g class="st11">
			<path class="st12" d="M27.605,78.2515c2.9221,0,2.9258-4.6362,0-4.6317C24.6821,73.6244,24.6801,78.2515,27.605,78.2515z" fill="#000000" data-original="#000000"/>
		</g>
		<g class="st11">
			<path class="st12" d="M60.9027,82.4424c2.9221,0,2.9258-4.6362,0-4.6317C57.9798,77.8152,57.9778,82.4424,60.9027,82.4424z" fill="#000000" data-original="#000000"/>
		</g>
		<g class="st11">
			<path class="st12" d="M51.4712,107.9101c2.9221,0,2.9258-4.6362,0-4.6317C48.5482,103.2829,48.5463,107.9101,51.4712,107.9101z" fill="#000000" data-original="#000000"/>
		</g>
		<g class="st11">
			<path class="st12" d="M86.7276,108.6428c2.9221,0,2.9258-4.6362,0-4.6317C83.8047,104.0156,83.8027,108.6428,86.7276,108.6428z" fill="#000000" data-original="#000000"/>
		</g>
		<g class="st11">
			<path class="st12" d="M71.5112,138.3321c2.9221,0,2.9258-4.6362,0-4.6317C68.5883,133.7049,68.5863,138.3321,71.5112,138.3321z" fill="#000000" data-original="#000000"/>
		</g>
		<g class="st11">
			<path class="st12" d="M118.0888,104.0111c2.9221,0,2.9258-4.6362,0-4.6317C115.1659,99.3839,115.1639,104.0111,118.0888,104.0111     z" fill="#000000" data-original="#000000"/>
		</g>
		<g class="st11">
			<path class="st12" d="M132.6628,137.6266c2.9221,0,2.9258-4.6362,0-4.6317     C129.7399,132.9994,129.7379,137.6266,132.6628,137.6266z" fill="#000000" data-original="#000000"/>
		</g>
		<g class="st13">
			<path class="st12" d="M63.1398,52.8003c2.9221,0,2.9258-4.6362,0-4.6317C60.2168,48.1731,60.2148,52.8003,63.1398,52.8003z" fill="#000000" data-original="#000000"/>
		</g>
		<g class="st13">
			<path class="st12" d="M31.0519,76.7264c2.9221,0,2.9258-4.6362,0-4.6317C28.1289,72.0992,28.1269,76.7264,31.0519,76.7264z" fill="#000000" data-original="#000000"/>
		</g>
		<g class="st13">
			<path class="st12" d="M55.6598,85.1717c2.9221,0,2.9258-4.6362,0-4.6317C52.7368,80.5445,52.7348,85.1717,55.6598,85.1717z" fill="#000000" data-original="#000000"/>
		</g>
		<g class="st13">
			<path class="st12" d="M53.4248,105.5942c2.9221,0,2.9258-4.6362,0-4.6317C50.5018,100.967,50.4998,105.5942,53.4248,105.5942z" fill="#000000" data-original="#000000"/>
		</g>
		<g class="st13">
			<path class="st12" d="M88.4141,109.7963c2.9221,0,2.9258-4.6362,0-4.6317C85.4911,105.1691,85.4891,109.7963,88.4141,109.7963z" fill="#000000" data-original="#000000"/>
		</g>
		<g class="st13">
			<path class="st12" d="M69.1315,140.6479c2.9221,0,2.9258-4.6362,0-4.6317C66.2085,136.0208,66.2065,140.6479,69.1315,140.6479z" fill="#000000" data-original="#000000"/>
		</g>
		<g class="st13">
			<path class="st12" d="M115.46,106.8125c2.9221,0,2.9258-4.6362,0-4.6317C112.537,102.1853,112.535,106.8125,115.46,106.8125z" fill="#000000" data-original="#000000"/>
		</g>
		<g class="st13">
			<path class="st12" d="M130.9774,140.6479c2.9221,0,2.9258-4.6362,0-4.6317     C128.0544,136.0208,128.0524,140.6479,130.9774,140.6479z" fill="#000000" data-original="#000000"/>
		</g>
		<g class="st13">
			<path class="st12" d="M151.0478,87.3467c2.9221,0,2.9258-4.6362,0-4.6317C148.1248,82.7195,148.1228,87.3467,151.0478,87.3467z" fill="#000000" data-original="#000000"/>
		</g>
		<g class="st13">
			<path class="st12" d="M175.0929,62.2c2.9221,0,2.9258-4.6362,0-4.6317C172.1699,57.5728,172.1679,62.2,175.0929,62.2z" fill="#000000" data-original="#000000"/>
		</g>
		<g class="st13">
			<path class="st12" d="M147.2698,50.4845c2.9221,0,2.9258-4.6362,0-4.6317C144.3469,45.8573,144.3448,50.4845,147.2698,50.4845z" fill="#000000" data-original="#000000"/>
		</g>
		<g class="st14">
			<path class="st12" d="M165.5665,64.167c2.1189,0,2.105-3.3443,0-3.3439C163.465,60.8236,163.4441,64.167,165.5665,64.167z" fill="#000000" data-original="#000000"/>
		</g>
		<g class="st14">
			<path class="st12" d="M134.8999,47.5247c2.1189,0,2.105-3.3443,0-3.3439C132.7984,44.1812,132.7775,47.5247,134.8999,47.5247z" fill="#000000" data-original="#000000"/>
		</g>
		<g class="st14">
			<path class="st12" d="M159.5748,97.2467c2.1189,0,2.105-3.3443,0-3.3439C157.4733,93.9033,157.4524,97.2467,159.5748,97.2467z" fill="#000000" data-original="#000000"/>
		</g>
		<g class="st14">
			<path class="st12" d="M131.6022,77.9845c2.1189,0,2.105-3.3443,0-3.3439C129.5007,74.641,129.4798,77.9845,131.6022,77.9845z" fill="#000000" data-original="#000000"/>
		</g>
		<g class="st14">
			<path class="st12" d="M142.5074,120.3142c2.1189,0,2.105-3.3443,0-3.3439C140.4059,116.9707,140.385,120.3142,142.5074,120.3142z     " fill="#000000" data-original="#000000"/>
		</g>
		<g class="st14">
			<path class="st12" d="M72.687,126.7377c2.1189,0,2.105-3.3443,0-3.3439C70.5855,123.3942,70.5646,126.7377,72.687,126.7377z" fill="#000000" data-original="#000000"/>
		</g>
		<g class="st14">
			<path class="st12" d="M46.5972,68.9176c2.1189,0,2.105-3.3443,0-3.3439C44.4957,65.5742,44.4748,68.9176,46.5972,68.9176z" fill="#000000" data-original="#000000"/>
		</g>
		<g class="st14">
			<path class="st12" d="M19.6406,85.0982c2.1189,0,2.105-3.3443,0-3.3439C17.5391,81.7547,17.5182,85.0982,19.6406,85.0982z" fill="#000000" data-original="#000000"/>
		</g>
		<g class="st14">
			<path class="st12" d="M76.9817,77.6076c2.1189,0,2.105-3.3443,0-3.3439C74.8803,74.2642,74.8593,77.6076,76.9817,77.6076z" fill="#000000" data-original="#000000"/>
		</g>
		<g class="st14">
			<path class="st12" d="M37.0423,55.0807c4.2461,0,4.8502-6.7581,0.5814-7.3871c-1.9081-0.2812-3.7061,1.2217-4.0638,3.0587     C33.1297,52.9612,34.7677,55.0807,37.0423,55.0807z" fill="#000000" data-original="#000000"/>
		</g>
		<g class="st14">
			<path class="st12" d="M79.6166,67.2457c4.2461,0,4.8502-6.7581,0.5814-7.3871c-1.9081-0.2812-3.7061,1.2217-4.0638,3.0587     C75.7041,65.1262,77.3421,67.2457,79.6166,67.2457z" fill="#000000" data-original="#000000"/>
		</g>
		<g class="st14">
			<path class="st12" d="M69.1315,100.9294c4.2461,0,4.8502-6.7581,0.5814-7.3871c-1.9081-0.2812-3.7061,1.2217-4.0638,3.0587     C65.219,98.8099,66.8569,100.9294,69.1315,100.9294z" fill="#000000" data-original="#000000"/>
		</g>
		<g class="st14">
			<path class="st12" d="M31.8508,93.7931c4.2461,0,4.8502-6.7581,0.5814-7.3871c-1.9081-0.2812-3.7061,1.2217-4.0638,3.0587     C27.9383,91.6736,29.5762,93.7931,31.8508,93.7931z" fill="#000000" data-original="#000000"/>
		</g>
		<g class="st14">
			<path class="st12" d="M167.1393,47.0542c4.2461,0,4.8502-6.7581,0.5814-7.3871c-1.9081-0.2812-3.7061,1.2217-4.0638,3.0587     C163.2268,44.9347,164.8648,47.0542,167.1393,47.0542z" fill="#000000" data-original="#000000"/>
		</g>
		<g class="st14">
			<path class="st12" d="M129.2368,63.5649c4.2461,0,4.8502-6.7581,0.5814-7.3871c-1.9081-0.2812-3.7061,1.2217-4.0638,3.0587     C125.3243,61.4454,126.9622,63.5649,129.2368,63.5649z" fill="#000000" data-original="#000000"/>
		</g>
		<g class="st14">
			<path class="st12" d="M136.2773,100.9294c4.2461,0,4.8502-6.7581,0.5814-7.3871c-1.9081-0.2812-3.7061,1.2217-4.0638,3.0587     C132.3647,98.8099,134.0027,100.9294,136.2773,100.9294z" fill="#000000" data-original="#000000"/>
		</g>
		<g class="st14">
			<path class="st12" d="M170.1492,92.7408c4.2461,0,4.8502-6.7581,0.5814-7.3871c-1.9081-0.2812-3.7061,1.2217-4.0638,3.0587     C166.2367,90.6213,167.8746,92.7408,170.1492,92.7408z" fill="#000000" data-original="#000000"/>
		</g>
		<g class="st14">
			<path class="st12" d="M79.6166,121.385c4.2461,0,4.8502-6.7581,0.5814-7.3871c-1.9081-0.2812-3.7061,1.2217-4.0638,3.0587     C75.7041,119.2655,77.3421,121.385,79.6166,121.385z" fill="#000000" data-original="#000000"/>
		</g>
		<g class="st14">
			<path class="st12" d="M119.8889,122.872c4.2461,0,4.8502-6.7581,0.5814-7.3871c-1.9081-0.2812-3.7061,1.2217-4.0638,3.0587     C115.9764,120.7525,117.6143,122.872,119.8889,122.872z" fill="#000000" data-original="#000000"/>
		</g>
		<g class="st14">
			<path class="st12" d="M51.4712,128.2767c4.2461,0,4.8502-6.7581,0.5814-7.3871c-1.9081-0.2812-3.7061,1.2217-4.0638,3.0587     C47.5587,126.1572,49.1966,128.2767,51.4712,128.2767z" fill="#000000" data-original="#000000"/>
		</g>
		<g class="st14">
			<path class="st12" d="M154.6033,128.8668c4.2461,0,4.8502-6.7581,0.5814-7.3871c-1.9081-0.2812-3.7061,1.2217-4.0638,3.0587     C150.6908,126.7473,152.3288,128.8668,154.6033,128.8668z" fill="#000000" data-original="#000000"/>
		</g>
		<g class="st15">
			<path class="st12" d="M163.1303,51.4c4.2461,0,4.8502-6.7581,0.5814-7.3871c-1.9081-0.2812-3.7061,1.2217-4.0638,3.0587     C159.2178,49.2805,160.8557,51.4,163.1303,51.4z" fill="#000000" data-original="#000000"/>
		</g>
		<g class="st15">
			<path class="st12" d="M42.0277,51.8385c4.2461,0,4.8502-6.7581,0.5814-7.3871c-1.9081-0.2812-3.7061,1.2217-4.0638,3.0587     C38.1151,49.719,39.7531,51.8385,42.0277,51.8385z" fill="#000000" data-original="#000000"/>
		</g>
		<g class="st15">
			<path class="st12" d="M38.1629,92.7408c4.2461,0,4.8502-6.7581,0.5814-7.3871c-1.9081-0.2812-3.7061,1.2217-4.0638,3.0587     C34.2504,90.6213,35.8883,92.7408,38.1629,92.7408z" fill="#000000" data-original="#000000"/>
		</g>
		<g class="st15">
			<path class="st12" d="M78.1647,63.5649c4.2461,0,4.8502-6.7581,0.5814-7.3871c-1.9081-0.2812-3.7061,1.2217-4.0638,3.0587     C74.2522,61.4454,75.8901,63.5649,78.1647,63.5649z" fill="#000000" data-original="#000000"/>
		</g>
		<g class="st15">
			<path class="st12" d="M72.687,97.4739c4.2461,0,4.8502-6.7581,0.5814-7.3871c-1.9081-0.2812-3.7061,1.2217-4.0638,3.0587     C68.7745,95.3544,70.4124,97.4739,72.687,97.4739z" fill="#000000" data-original="#000000"/>
		</g>
		<g class="st15">
			<path class="st12" d="M83.1722,118.6423c4.2461,0,4.8502-6.7581,0.5814-7.3871c-1.9081-0.2812-3.7061,1.2217-4.0638,3.0587     C79.2596,116.5228,80.8976,118.6423,83.1722,118.6423z" fill="#000000" data-original="#000000"/>
		</g>
		<g class="st15">
			<path class="st12" d="M47.9157,128.7465c4.2461,0,4.8502-6.7581,0.5814-7.3871c-1.9081-0.2812-3.7061,1.2217-4.0638,3.0587     C44.0031,126.627,45.6411,128.7465,47.9157,128.7465z" fill="#000000" data-original="#000000"/>
		</g>
		<g class="st15">
			<path class="st12" d="M120.6746,117.7042c4.2461,0,4.8502-6.7581,0.5814-7.3871c-1.9081-0.2812-3.7061,1.2217-4.0638,3.0587     C116.762,115.5847,118.4,117.7042,120.6746,117.7042z" fill="#000000" data-original="#000000"/>
		</g>
		<g class="st15">
			<path class="st12" d="M160.3959,130.2335c4.2461,0,4.8502-6.7581,0.5814-7.3871c-1.9081-0.2812-3.7061,1.2217-4.0638,3.0587     C156.4834,128.114,158.1213,130.2335,160.3959,130.2335z" fill="#000000" data-original="#000000"/>
		</g>
		<g class="st15">
			<path class="st12" d="M132.6629,100.7338c4.2461,0,4.8502-6.7581,0.5814-7.3871c-1.9081-0.2812-3.7061,1.2217-4.0638,3.0587     C128.7504,98.6143,130.3883,100.7338,132.6629,100.7338z" fill="#000000" data-original="#000000"/>
		</g>
		<g class="st15">
			<path class="st12" d="M170.1492,87.488c4.2461,0,4.8502-6.7581,0.5814-7.3871c-1.9081-0.2812-3.7061,1.2217-4.0638,3.0587     C166.2367,85.3685,167.8746,87.488,170.1492,87.488z" fill="#000000" data-original="#000000"/>
		</g>
		<g class="st15">
			<path class="st12" d="M129.2368,57.4039c4.2461,0,4.8502-6.7581,0.5814-7.3871c-1.9081-0.2812-3.7061,1.2217-4.0638,3.0587     C125.3243,55.2844,126.9622,57.4039,129.2368,57.4039z" fill="#000000" data-original="#000000"/>
		</g>
		<path class="st12" d="M43.4988,101.9938c1.2854-0.9027,2.5709-1.8054,3.8563-2.7081c-0.9339-0.0898-1.8703-0.2094-2.8072-0.2562    c-0.7275-0.0363-1.5928,0.0548-2.2501-0.3247c-0.6011-0.3471-0.9273-1.0536-1.2794-1.6195    c-0.5323-0.8557-1.1381-1.6697-1.714-2.4966c-0.0897,0.933-0.21,1.8688-0.2556,2.8049c-0.0355,0.728,0.0592,1.5972-0.3296,2.2514    c-0.3536,0.595-1.0666,0.9225-1.6306,1.2761c-0.851,0.5334-1.6595,1.1409-2.4813,1.7182    c0.9306,0.0918,1.8637,0.2141,2.7975,0.2619c0.7297,0.0374,1.6027-0.0563,2.2596,0.3301c0.596,0.3506,0.923,1.0614,1.276,1.6247    c0.5331,0.8507,1.1404,1.659,1.7175,2.4805c0.1049-1.0912,0.2393-2.1828,0.2797-3.2784    C42.9603,103.4445,42.9023,102.3856,43.4988,101.9938z" fill="#000000" data-original="#000000"/>
		<path class="st12" d="M57.5443,46.8841c1.2854-0.9027,2.5709-1.8054,3.8563-2.7081c-0.9339-0.0897-1.8703-0.2094-2.8073-0.2562    c-0.7275-0.0363-1.5928,0.0548-2.2501-0.3247c-0.6011-0.3471-0.9274-1.0536-1.2794-1.6195    c-0.5323-0.8557-1.1381-1.6697-1.714-2.4966c-0.0897,0.933-0.21,1.8688-0.2556,2.8049c-0.0355,0.728,0.0592,1.5972-0.3296,2.2514    c-0.3536,0.595-1.0666,0.9225-1.6306,1.2761c-0.851,0.5334-1.6595,1.1409-2.4813,1.7182    c0.9306,0.0918,1.8637,0.2141,2.7975,0.2619c0.7297,0.0374,1.6027-0.0563,2.2596,0.3301c0.596,0.3506,0.923,1.0614,1.276,1.6247    c0.5331,0.8507,1.1404,1.659,1.7175,2.4805c0.1049-1.0913,0.2393-2.1828,0.2797-3.2784    C57.0057,48.3348,56.9477,47.2759,57.5443,46.8841z" fill="#000000" data-original="#000000"/>
		<path class="st12" d="M157.1208,53.258c1.2854-0.9027,2.5709-1.8054,3.8563-2.7081c-0.9339-0.0897-1.8703-0.2094-2.8072-0.2562    c-0.7275-0.0363-1.5928,0.0548-2.2501-0.3247c-0.6011-0.3471-0.9274-1.0536-1.2794-1.6195    c-0.5323-0.8557-1.1381-1.6697-1.7141-2.4966c-0.0897,0.933-0.21,1.8688-0.2556,2.8049c-0.0354,0.728,0.0592,1.5972-0.3296,2.2514    c-0.3536,0.595-1.0665,0.9225-1.6306,1.2761c-0.851,0.5334-1.6595,1.1409-2.4813,1.7182    c0.9305,0.0918,1.8637,0.2141,2.7975,0.2619c0.7297,0.0374,1.6028-0.0563,2.2596,0.3301c0.596,0.3506,0.923,1.0614,1.276,1.6247    c0.5331,0.8507,1.1404,1.659,1.7175,2.4805c0.1049-1.0913,0.2393-2.1828,0.2797-3.2784    C156.5823,54.7087,156.5243,53.6498,157.1208,53.258z" fill="#000000" data-original="#000000"/>
		<path class="st12" d="M140.5493,87.0922c1.2854-0.9027,2.5709-1.8054,3.8563-2.7082c-0.9339-0.0897-1.8703-0.2094-2.8073-0.2562    c-0.7275-0.0363-1.5928,0.0548-2.2501-0.3247c-0.6011-0.3471-0.9274-1.0536-1.2794-1.6195    c-0.5323-0.8557-1.1381-1.6697-1.714-2.4966c-0.0897,0.933-0.21,1.8688-0.2556,2.8049c-0.0355,0.728,0.0592,1.5972-0.3296,2.2514    c-0.3536,0.595-1.0666,0.9225-1.6306,1.2761c-0.851,0.5334-1.6595,1.1409-2.4813,1.7182    c0.9306,0.0918,1.8637,0.2141,2.7975,0.2619c0.7297,0.0374,1.6028-0.0563,2.2597,0.3301c0.596,0.3506,0.923,1.0614,1.276,1.6247    c0.5331,0.8507,1.1404,1.659,1.7175,2.4805c0.1049-1.0912,0.2393-2.1828,0.2797-3.2784    C140.0107,88.5429,139.9527,87.484,140.5493,87.0922z" fill="#000000" data-original="#000000"/>
		<path class="st12" d="M158.3287,74.9882c-0.903-0.6341-1.8059-1.2682-2.7089-1.9023c0.6595-0.0634,1.321-0.1472,1.9828-0.1821    c0.5122-0.027,1.1098,0.0473,1.5728-0.2207c0.46-0.2663,0.6962-0.8289,0.9686-1.2579c0.3551-0.5594,0.7525-1.0951,1.1311-1.6387    c0.0633,0.6591,0.1474,1.3204,0.1819,1.9818c0.0267,0.5124-0.0492,1.1117,0.2231,1.5732    c0.2696,0.4569,0.8389,0.6939,1.2669,0.9673c0.5561,0.3551,1.0877,0.7537,1.6275,1.1329    c-0.6572,0.0648-1.3164,0.1504-1.976,0.1863c-0.5141,0.0279-1.117-0.0483-1.5804,0.2238    c-0.4566,0.2682-0.6932,0.8351-0.9661,1.2622c-0.3552,0.556-0.7536,1.0876-1.1327,1.6273    c-0.0736-0.7653-0.1511-1.5289-0.1958-2.2961C158.6981,76.0091,158.7552,75.2683,158.3287,74.9882z" fill="#000000" data-original="#000000"/>
		<path class="st12" d="M47.4657,77.037c-0.903-0.6341-1.8059-1.2682-2.7089-1.9023c0.6595-0.0634,1.321-0.1472,1.9828-0.1821    c0.5122-0.027,1.1098,0.0473,1.5728-0.2207c0.46-0.2663,0.6962-0.8289,0.9686-1.2579c0.3551-0.5594,0.7525-1.0951,1.1311-1.6387    c0.0633,0.6591,0.1474,1.3204,0.1819,1.9818c0.0267,0.5124-0.0492,1.1117,0.2231,1.5732    c0.2696,0.4569,0.8389,0.6939,1.2669,0.9673c0.5561,0.3551,1.0877,0.7537,1.6275,1.1329    c-0.6572,0.0648-1.3164,0.1504-1.9759,0.1862c-0.5141,0.0279-1.117-0.0483-1.5804,0.2238    c-0.4567,0.2682-0.6932,0.8351-0.9661,1.2622c-0.3552,0.556-0.7536,1.0876-1.1327,1.6273    c-0.0736-0.7653-0.1511-1.5289-0.1958-2.2961C47.8351,78.0579,47.8923,77.3171,47.4657,77.037z" fill="#000000" data-original="#000000"/>
	</g>
	<g>
		<path class="st16" d="M176.4499,67.8129c1.8581,3.3446,2.1895,7.3976,2.1844,11.1516c-0.0058,4.2293-0.6866,8.4527-2.2625,12.3902    c-2.5688,6.4181-7.8257,12.4658-14.9773,13.5453c-3.9974,0.6034-8.193-0.3761-11.6903-2.3448    c-0.414-0.233-3.8923-2.1085-3.2107-2.8315c0.275-0.2918,1.621,0.2844,1.8758,0.3587c1.1536,0.3363,2.292,0.7227,3.4487,1.0488    c3.901,1.0997,8.1507,1.2454,11.887-0.5177c3.6848-1.7388,6.4102-5.0685,8.2769-8.6104    c2.1591-4.0966,3.2585-8.6919,3.6558-13.2852c0.2233-2.5824,0.2175-5.1752,0.1151-7.7632    c-0.0366-0.9265-0.1395-1.8849-0.0452-2.8112C175.7707,67.5229,175.9835,67.0259,176.4499,67.8129z" fill="#000000" data-original="#000000"/>
		<path class="st16" d="M123.3177,108.8435c3.2702,4.2138,7.0463,8.0117,11.0581,11.518c1.7012,1.4869,3.5381,2.8488,5.1833,4.3962    c1.608,1.5123-0.7157,0.8339-1.5128,0.4629c-8.3411-3.883-15.4102-11.0075-20.3385-18.6687    c-1.6346-2.541-3.0699-5.2137-4.2599-7.9914c-1.1929-2.7845-2.3175-5.7046-2.6178-8.7412    c0.8367-0.0847,1.0532-0.1256,1.4811,0.6354c0.4634,0.8241,0.8237,1.724,1.247,2.5704c0.9353,1.8703,1.8947,3.7279,2.9225,5.5493    C118.5034,102.1587,120.7585,105.6178,123.3177,108.8435z" fill="#000000" data-original="#000000"/>
		<path class="st16" d="M117.1937,92.0825c11.1506,9.0905,23.8541,16.1648,38.3266,17.9657    c6.434,0.8006,13.1553,0.1145,18.2679-4.2345c4.7732-4.0603,7.2687-10.1176,8.5618-16.1129    c1.6243-7.5309,1.6178-15.4865,1.6849-23.161c0.0603-6.8917-0.2031-14.1486-3.2006-20.4897    c-2.5419-5.3776-7.3004-9.6521-13.1678-10.9939c-3.5556-0.8131-7.2897-0.4798-10.8388,0.1939    c-3.769,0.7154-7.5232,1.7148-11.159,2.9369c-12.7068,4.2712-23.3249,12.754-32.1663,22.6478    c-1.2005,1.3433-2.3532,2.7289-3.5643,4.0627c-0.4547-0.4337-0.9502-0.5626-0.7689-1.2363    c0.1431-0.5317,0.6245-1.0493,0.909-1.5165c1.1877-1.9504,2.356-3.8783,3.7151-5.7186c2.5621-3.4691,5.4373-6.7038,8.5917-9.6451    c6.0989-5.6869,13.2183-10.2698,20.9967-13.2943c4.1552-1.6157,8.4789-2.9725,12.844-3.8889    c4.0793-0.8563,8.2944-1.2202,12.4116-0.4127c7.4185,1.4549,13.7297,6.337,17.3023,12.9578    c3.7574,6.9631,4.5297,15.1144,4.5692,22.8956c0.0239,4.699-0.16,9.4144-0.413,14.1061    c-0.2409,4.4677-0.7422,8.9459-1.849,13.2888c-1.8136,7.1165-5.3676,14.0685-11.316,18.5847    c-6.6276,5.0318-15.0762,5.7658-23.0387,4.278c-15.1117-2.8237-29.0619-10.8709-39.2849-22.3212    c-0.6286-0.7041-1.1846-1.4377-1.7604-2.1832c-0.6429-0.8324-0.9805-1.0774-2.0167-0.9724    c-0.0203-0.1709-0.2138-1.3937,0.213-1.2514c-0.3075-0.3844,0.2893-0.8316,0.5592-1.1849    C113.499,88.9086,115.3223,90.5262,117.1937,92.0825z" fill="#000000" data-original="#000000"/>
		<path class="st16" d="M168.1559,119.6137c1.5199,3.3754,2.6529,6.8956,3.513,10.4929c0.5943,2.4858,1.6808,5.4857,0.6098,7.9869    c-1.3913,3.2491-5.6849,2.8261-8.5798,2.8611c-3.8606,0.0468-7.7213-0.1976-11.5453-0.7303    c-1.8909-0.2634-3.7614-0.766-5.6489-1.0046c-0.6759-0.0854-0.8053,0.2687-1.0899,0.883c-0.379,0.8178-0.707,1.6466-1.1198,2.451    c-1.6587,3.2326-3.651,6.277-5.8711,9.1504c-1.6245,2.1025-3.5171,4.6019-6.4523,4.5664    c-3.1221-0.0377-5.215-2.9846-7.0902-5.1057c-8.8633-10.0249-15.6298-21.9534-19.2924-34.8448    c-1.0366-3.6484-1.8204-7.368-2.3109-11.1295c-0.2445-1.8747-0.42-3.7595-0.5079-5.6482    c-0.082-1.7617-0.2991-3.6412,0.0005-5.3895c0.1163-0.6789,0.2272-0.7585,0.8637-0.9188    c0.6165-0.1554,0.7252-0.2205,0.9207,0.4143c0.569,1.8475,0.832,3.8256,1.254,5.7117c0.8286,3.7032,1.7663,7.384,2.9234,10.9992    c4.1186,12.868,10.8519,24.86,19.6867,35.0816c1.1526,1.3336,2.3195,2.6795,3.5786,3.9141    c2.7534-3.177,5.0588-6.7211,7.0232-10.4324c0.8788-1.6603,1.481-3.6654,3.0048-4.8653c1.4619-1.151,3.3344-1.3536,5.1107-0.9854    c4.4276,0.9178,8.7986,1.8545,13.3117,2.2733c1.0275,0.0953,2.057,0.1811,3.0865,0.2517    c1.1243,0.0772,2.5196,0.3109,3.6308,0.0814c0.7732-0.1597,0.6525-0.8037,0.6089-1.4594    c-0.0722-1.086-0.2121-2.1696-0.3519-3.2486c-0.66-5.0954-1.9507-10.0747-3.2207-15.0443    c0.8927-0.1116,1.7579-0.6697,2.3093,0.2752C167.1373,117.2742,167.6425,118.4842,168.1559,119.6137z" fill="#000000" data-original="#000000"/>
		<path class="st16" d="M95.4669,73.4709c-0.8366,1.3943-1.4546,2.9461-1.8571,4.5196c-0.1392,0.5441-0.3939,2.3236-1.2782,1.9438    c-0.9529-0.4092-0.7743-2.4636-0.7246-3.2564c0.1074-1.7113,0.6345-3.3515,1.5423-4.8075    c0.8329-1.3358,1.9674-2.4642,3.3122-3.2829c0.7002-0.4263,2.3566-1.4921,3.2004-0.9438c0.9081,0.59-0.7013,1.7535-1.1289,2.1371    C97.3479,70.8439,96.2788,72.0986,95.4669,73.4709z" fill="#000000" data-original="#000000"/>
		<path class="st16" d="M89.0767,88.6344c-0.0266-0.0266-0.0532-0.0666-0.0799-0.0932    C89.0368,88.5545,89.0634,88.5811,89.0767,88.6344z" fill="#000000" data-original="#000000"/>
		<path class="st16" d="M90.8473,63.8855c-0.6847,0.1966-1.145,0.554-1.7448-0.0157c-0.7023-0.6671-1.2875-1.5371-1.9248-2.2695    c-1.3778-1.5835-2.7852-3.139-4.2435-4.6491c-2.8139-2.9138-5.8041-5.6545-9.0102-8.1327    c-6.3149-4.8812-13.3697-8.6864-20.9943-11.071c-7.3188-2.289-16.0823-4.8854-23.5228-1.7616    c-6.1804,2.5948-10.1356,8.3049-11.8844,14.6041c-2.1525,7.7535-1.5985,15.9592-1.3309,23.906    c0.2674,7.9406,0.6868,16.2334,4.2078,23.513c2.7151,5.6133,7.4846,10.2098,13.6212,11.7828    c3.8267,0.9809,7.8877,0.7383,11.752,0.1188c4.0749-0.6533,8.1247-1.6739,12.0236-3.0262    c7.6234-2.644,14.6558-6.8317,21.0693-11.6867c1.6286-1.2329,3.2208-2.5141,4.7887-3.8232    c0.7928-0.662,1.5846-1.3263,2.3661-2.0015c0.6669-0.5762,1.0813-0.9748,1.9903-0.9687c0.595,0.004,1.0165,0.0336,1.1631,0.6764    c0.2271,0.9957-0.3953,0.7192-1.0558,0.8664c-0.6636,0.1479-1.0512,0.9739-1.4185,1.479c-0.5355,0.7364-1.174,1.4049-1.7871,2.077    c-9.6967,10.6282-22.5693,18.2943-36.656,21.348c-7.6822,1.6653-15.8944,1.9058-22.8578-2.2601    c-5.682-3.3993-9.7005-9.0292-12.0537-15.1357c-2.994-7.7692-3.4028-16.1717-3.6773-24.4018    c-0.2705-8.109-0.521-16.4058,1.7363-24.2868c1.9092-6.6658,5.8518-12.7145,11.7937-16.4413    c6.759-4.2393,14.6935-4.1138,22.2224-2.3389c7.5256,1.7742,14.8999,4.6291,21.5111,8.655    c6.6656,4.059,12.5829,9.3745,17.4732,15.4474C86.8524,57.1291,89.1374,60.367,90.8473,63.8855z" fill="#000000" data-original="#000000"/>
		<path class="st16" d="M63.2362,64.5645c0.7892-0.7427,3.8604,1.9196,4.6199,2.3658c3.0988,1.8205,6.3856,3.3316,9.8578,4.2836    c1.8254,0.5004,3.6805,0.8376,5.5475,1.138c0.5167,0.0831,1.0196,0.2395,1.5361,0.317c0.6298,0.0946,0.7178,0.0315,0.8758-0.5775    c0.3863-1.4894,0.9773-2.8845,1.7791-4.2055c0.4257-0.7013,0.9004-1.3727,1.4234-2.005c0.4689-0.5669,1.2394-0.9412,0.6271-1.6092    c1.3692-0.3931,2.365-1.2516,3.5824-1.9445c1.3247-0.7539,2.7691-1.3019,4.2679-1.5847c2.995-0.5651,6.1328-0.0791,8.8271,1.3397    c2.6124,1.3756,4.7746,3.5489,6.2494,6.0971c0.7368,1.2731,1.1261,2.572,1.6081,3.935c0.2021,0.5714,0.3942,0.5345,0.9462,0.4569    c0.8244-0.1159,1.6471-0.2531,2.4677-0.3935c3.2412-0.5548,6.3917-1.3782,9.4144-2.6882c2.8702-1.2439,5.5212-2.8663,8.172-4.5136    c0.4121-0.2561,1.4016-0.8785,1.4433-0.0448c0.0282,0.5654-0.6917,1.3305-1.0085,1.7439    c-1.0282,1.3415-2.1871,2.4859-3.5447,3.4973c-4.8605,3.6209-11.3263,5.4247-17.3303,4.2572    c0.263,1.929,0.28,3.8421-0.0533,5.7645c4.0331-0.6205,8.3309,0.7649,11.5362,3.215c1.0085,0.7709,2.0145,1.7044,2.7087,2.7765    c0.1927,0.2976,0.5695,0.844,0.3813,1.2225c-0.3232,0.6499-1.4118-0.0192-1.8468-0.2169c-2.17-0.9868-4.2451-2.132-6.4771-2.988    c-2.0041-0.7686-4.0827-1.2956-6.1381-1.8973c-0.6632-0.1941-0.7336-0.0514-0.9476,0.5924    c-0.2581,0.7768-0.4387,1.4819-0.8089,2.2247c-0.8923,1.79-2.0986,3.4268-3.5657,4.7881c-1.706,1.583-3.7746,2.7943-6.0278,3.4006    c-2.659,0.7155-5.1655,0.2123-7.8518,0.1022c0.1324-0.5957-0.9333-0.722-1.3885-0.9274c-0.8906-0.402-1.7362-0.9218-2.5199-1.5037    c-0.7185-0.5335-1.3253-1.1369-1.9407-1.7797c-0.7498-0.7832-1.4431-0.7308-2.4715-0.8215    c0.3332-0.2856,0.9377-0.4911,0.8901-1.0022c-0.0276-0.2963-0.455-0.701-0.6154-0.9645    c-0.2438-0.4005-0.4711-0.8104-0.6813-1.2295c-0.3781-0.7539-0.6941-1.5334-0.9604-2.3332    c-0.2285-0.6862-0.3638-0.6368-1.0968-0.4454c-3.2656,0.8525-6.6159,1.8609-9.6167,3.434    c-0.7058,0.37-1.3775,0.7999-2.0933,1.1528c-0.4944,0.2438-1.7115,0.962-2.2808,0.5948    c-1.4316-0.9236,3.2048-4.4148,3.7386-4.7644c3.0871-2.0223,6.9973-3.1983,10.6924-2.6299    c-0.3097-1.9353-0.3293-3.8388-0.0399-5.7778c-5.1612,1.1159-10.7605-0.2705-15.2629-2.8829    c-1.7604-1.0215-3.3745-2.2777-4.7806-3.7489C64.6641,67.3499,62.4736,65.2607,63.2362,64.5645z M99.8602,64.4979    c-4.9224,0-8.9222,3.8767-10.3303,8.3886c-1.4742,4.7235-0.3794,10.3028,3.1821,13.8292c3.6681,3.632,9.5011,4.009,13.5109,0.7098    c3.7421-3.0789,5.2458-8.3597,4.3325-13.0368C109.5543,69.2612,105.3672,64.4979,99.8602,64.4979z" fill="#000000" data-original="#000000"/>
		<path class="st16" d="M89.1033,89.8725c-0.3616,3.3265-1.622,6.4989-2.9873,9.5264c-1.3528,3-2.9765,5.8762-4.8429,8.5866    c-3.4902,5.0683-7.7894,9.6489-12.7812,13.2624c-1.2714,0.9203-2.5895,1.7773-3.9518,2.5569    c-1.1858,0.6786-2.4751,1.58-3.8288,1.8616c-1.8099,0.3766-0.112-1.0994,0.4554-1.5714c1.3365-1.1116,2.6659-2.2366,3.9752-3.3801    c4.8781-4.2605,9.4142-8.9399,13.2319-14.1829c2.1956-3.0153,4.1485-6.202,5.9237-9.4809    c0.8741-1.6145,1.6968-3.2551,2.5133-4.8992c0.2776-0.5589,0.4782-1.3678,0.8503-1.865    C88.0416,89.7784,88.5254,89.936,89.1033,89.8725z" fill="#000000" data-original="#000000"/>
		<path class="st16" d="M97.2908,96.8884c0.0729,10.1014-2.4842,20.1261-6.3949,29.3889    c-3.652,8.6502-8.7195,16.6738-14.8306,23.7951c-2.5611,2.9845-5.8808,7.8269-10.4435,5.6918    c-1.9052-0.8916-3.2144-2.9538-4.4533-4.574c-1.5853-2.0732-3.0236-4.257-4.314-6.5253c-0.5961-1.0478-1.1614-2.113-1.6918-3.1955    c-0.2086-0.4258-0.727-2.2497-1.2521-2.3479c-0.3256-0.0609-1.0441,0.2293-1.3502,0.2939    c-0.5993,0.1265-1.1974,0.2484-1.8007,0.355c-1.3215,0.2336-2.6486,0.4345-3.9802,0.601    c-2.6074,0.326-5.2317,0.5158-7.8587,0.5754c-2.3741,0.0538-4.8911,0.1684-7.2508-0.1435    c-2.5258-0.3338-4.3726-2.1586-4.3422-4.7722c0.032-2.7545,0.8641-5.6482,1.5968-8.2847    c0.7698-2.7696,1.7192-5.4899,2.9079-8.1087c0.5073-1.1177,1.0337-2.2579,1.6434-3.3238c0.5787-1.0116,1.3503-0.5094,2.3219-0.388    c-1.1965,4.6819-2.4361,9.3616-3.1028,14.1554c-0.1611,1.1582-0.2717,2.3224-0.4374,3.4797    c-0.1023,0.7142-0.3789,1.911,0.5532,2.1146c0.8577,0.1874,1.9984-0.0489,2.8734-0.082c1.2623-0.0477,2.5227-0.1283,3.7808-0.2411    c2.4361-0.2185,4.861-0.5528,7.2688-0.9818c2.2859-0.4072,4.5694-1.1263,6.8736-1.3871c2.024-0.2291,3.9199,0.3406,5.2461,1.9439    c1.2206,1.4757,1.7867,3.3599,2.6658,5.0336c1.0762,2.049,2.3561,4.0146,3.7146,5.8862c0.6497,0.8951,1.3396,1.7561,2.0311,2.6188    c0.1132,0.1413,0.4696,0.748,0.6643,0.7868c0.3079,0.0613,0.9863-0.8053,1.1625-0.9822    c3.2287-3.2426,6.0545-6.9793,8.6915-10.7109c5.2002-7.3587,9.3571-15.4437,12.3734-23.9325    c1.809-5.0908,3.19-10.3155,4.3309-15.5932c0.2309-1.0683,0.5018-2.138,0.6668-3.2183c0.0942-0.6164,0.0141-1.2994,0.6765-1.4457    c0.6116-0.1351,1.2625-0.0655,1.3942,0.5442C97.4202,94.815,97.2908,95.9743,97.2908,96.8884z" fill="#000000" data-original="#000000"/>
		<path class="st16" d="M44.132,41.7859c-5.7124,0.7231-11.4859,2.4641-15.1626,7.1889    c-3.7716,4.8467-4.4731,11.3892-3.5923,17.3083c0.0793,0.5328,0.4868,1.7228,0.1281,2.2007    c-0.6082,0.8104-1.6531-1.2887-1.8339-1.6894c-1.2776-2.8316-1.8708-5.9371-1.7199-9.0391    c0.2772-5.6981,3.0675-11.2575,7.7305-14.6114c2.909-2.0923,6.464-3.2308,10.0396-3.3229    c1.6456-0.0424,3.4459,0.0375,4.9947,0.6434c0.3434,0.1343,1.2799,0.4306,0.9257,0.9103    C45.4017,41.7,44.4876,41.7364,44.132,41.7859z" fill="#000000" data-original="#000000"/>
	</g>
</g>
</g></svg>