<svg xmlns="http://www.w3.org/2000/svg" version="1.1" xmlns:xlink="http://www.w3.org/1999/xlink" xmlns:svgjs="http://svgjs.com/svgjs" width="512" height="512" x="0" y="0" viewBox="0 0 1000 1000" style="enable-background:new 0 0 512 512" xml:space="preserve"><g><g xmlns="http://www.w3.org/2000/svg"><path d="m187.061 415.944c-.223-.078-.445-.152-.673-.223-6.335-1.979-16.044-4.338-26.329-4.338-18.165 0-28.262 7.373-33.535 13.561-5.181 6.08-10.771 16.994-7.969 34.461 7.49 46.697 35.362 92.641 58.807 127.449 52.224 77.529 128.25 132.602 214.075 155.07 1.322.346 2.62.658 3.891.939-11.129 59.547-29.075 114.893-53.546 164.986-10.278 21.834-8.055 49.932 16.085 61.383 5.184 2.459 10.549 3.705 15.945 3.705 9.912 0 28.592-4.529 42.417-35.029 13.146-29.766 24.672-62.066 34.368-96.279 21.169 6.482 43.253 9.762 65.792 9.762 45.541 0 91.742-13.35 133.605-38.611 8.941-5.395 87.163-53.973 80.892-98.201-1.727-12.186-9.933-28.355-39.208-36.18-.348-.092-.699-.176-1.052-.25-21.949-4.584-43.896-6.908-65.228-6.908-46.965 0-90.605 11.004-129.703 32.705-4.271 2.371-11.016 6.768-18.841 12.514.879-6.025 1.718-12.102 2.517-18.219 63.272-39.766 117.33-89.111 161.213-147.092 4.143 8.51 10.737 16.063 21.495 18.879 3.341.871 6.757 1.314 10.155 1.314 24.467 0 42.402-21.428 55.016-46.525 5.671 5.559 11.783 10.842 18.383 15.896 9.557 7.316 22.374 15.713 36.795 15.713 6.13 0 11.828-1.518 16.937-4.51 20.479-11.994 18.03-37.096 16.852-49.158l-.202-2.127c-.821-9.119-2.604-18.371-5.336-27.699 39.221-.344 61.881-9.236 69.245-27.152 3.95-9.617 4.671-24.998-14.095-43.896-.836-.938-1.754-1.826-2.755-2.666-8.87-7.408-18.038-13.799-27.641-19.252 5.881-5.918 11.448-12.322 16.767-19.266 5.983-7.813 24.188-31.58 11.207-53.734-4.713-8.047-14.837-17.637-36.307-17.637-4.816 0-9.271.434-12.852.785l-2.129.201c-8.572.771-17.264 2.398-26.024 4.857-.045-7.826-.601-15.727-1.671-23.787-1.607-12.115-5.371-40.48-28.684-46.576-3.342-.871-6.757-1.314-10.154-1.314-24.471 0-42.406 21.428-55.017 46.523-5.671-5.557-11.778-10.836-18.376-15.889-9.555-7.318-22.372-15.719-36.804-15.719-6.128 0-11.825 1.518-16.937 4.512-8.975 5.258-13.544 13.029-15.748 21.119-15.588-16.143-32.733-28.85-50.923-37.814 32.826-25.787 46.055-59.838 55.877-90.033 3.982-12.227-1.743-25.059-13.354-30.334-2.843-1.396-5.903-2.244-9.105-2.523-11.641-1.02-21.268-1.494-30.301-1.494-27.705 0-51.275 4.877-73.668 15.299-.511-24.082-7.074-49.115-19.672-74.851-.059-.126-.188-.397-.188-.397l-.506-1.064c-4.229-8.492-12.633-13.768-21.932-13.768-3.123 0-6.19.577-9.132 1.715-2.961 1.032-5.695 2.596-8.153 4.67-23.182 19.615-40.258 41.512-51.078 65.428-21.155-24.465-50.134-43.01-85.663-54.557-.124-.043-1.215-.432-1.711-.59-2.539-.805-5.143-1.214-7.74-1.214-10.283 0-19.438 6.487-23.125 16.255-.956 2.318-1.565 4.729-1.817 7.186-2.86 27.977-4.117 64.295 10.837 99.834-24.648 1.176-51.182 8.557-77.213 21.527-.15.072-1.475.719-1.475.719-11.496 5.82-16.506 18.91-11.999 30.846 1.046 3.068 2.655 5.883 4.785 8.375 17.641 20.67 37.881 36.561 60.469 47.52-29.41 24.42-41.922 57.066-52.205 88.443-3.951 12.061 1.345 24.514 12.617 30.037 3.18 1.678 6.629 2.65 10.281 2.889 4.679.301 9.471.453 14.243.453h.002c28.219 0 57.327-5.234 84.774-15.199.459 25.396 7.105 51.318 19.9 77.453.077.162.682 1.428.682 1.428 4.228 8.5 12.633 13.781 21.938 13.781 3.125 0 6.194-.578 9.141-1.721 2.957-1.029 5.687-2.592 8.143-4.666 10.456-8.848 19.779-18.342 27.926-28.43 9.386 48.65 14.452 98.676 15.063 148.484-2.696-4.611-5.048-8.42-6.854-11.168-46.852-71.336-123.033-128.375-214.507-160.616zm337.757-81.076c8.315-.254 16.624-1.148 24.96-2.691-6.184 4.139-11.276 10.006-13.476 18.414-.747 2.861-1.194 5.689-1.343 8.492-2.84-8.299-6.226-16.387-10.141-24.215zm17.608 117.459c1.452-2.9 2.332-6.035 2.617-9.354 1.716-20.305.515-40.336-3.445-59.557 7.39 11.842 20.82 22.758 39.909 32.35-5.559 5.672-10.836 11.779-15.889 18.377-5.981 7.811-24.18 31.582-11.205 53.73 3.729 6.367 10.843 13.699 24.285 16.484-27.353 35.752-58.422 66.979-92.874 93.332.589-51.99-3.402-101.477-11.93-147.955 11.907 6.213 24.752 11.498 38.478 15.818 2.522.795 5.111 1.197 7.69 1.197 9.588.002 18.251-5.621 22.364-14.422zm61.988-139.238c.126-.066.254-.131.38-.197.558 2.443 1.181 4.891 1.871 7.344-6.809.037-13.751.467-20.793 1.293 6.128-2.467 12.302-5.278 18.542-8.44z" fill="#ffffff" data-original="#ffffff"/><g><path d="m192.506 205.022c-.328.166-.67.314-.998.48-3.002 1.521-3.432 4.387-2.403 6.76.222.781.616 1.553 1.239 2.281 24.465 28.668 55.056 47.6 90.756 55.033-11.26 5.113-21.945 11.545-31.745 19.5-25.524 20.719-37.04 49.74-47.035 80.236-1.027 3.137.587 5.467 2.901 6.486.744.436 1.619.734 2.65.803 33.539 2.162 68.625-4.246 99.706-16.936 7.542-3.08 14.644-7.303 21.286-12.34-8.336 34.994-2.152 69.465 14.326 103.061.038.086.078.17.121.254.15.307.281.611.434.918 1.512 3.037 4.403 3.451 6.787 2.391.77-.223 1.531-.617 2.253-1.227 21.857-18.492 38.552-40.293 49.053-65.182 22.79 89.076 31.362 186.268 23.227 281.479-10.972-32.979-32.41-70.367-39.862-81.713-47.798-72.773-123.42-124.268-204.648-152.895-19.732-6.162-47.271-6.826-42.664 21.891 6.739 42.012 32.336 84.902 55.713 119.611 47.858 71.049 119.608 125.289 202.796 147.066 9.446 2.475 16.629 2.674 22.01 1.146-10.53 67.273-29.826 132.535-58.908 192.063-5.384 11.436-6.895 28.873 6.759 35.35 15.681 7.439 26.643-9.596 32.058-21.543 16.406-37.148 29.224-75.898 39.274-115.406 2.541 2.068 5.779 3.912 10.01 5.422 64.615 23.063 134.501 10.865 192.28-23.998 26.593-16.045 114.376-80.623 46.743-98.697-62.018-12.951-125.529-7.273-181.427 23.75-10.22 5.672-38.524 25.982-57.106 47.16 5.511-27.592 9.833-55.391 13.199-83.141 1.923-.35 3.953-1.127 6.083-2.436 74.981-46.813 136.716-107.197 183.987-181.244.115 6.365.558 12.773 1.419 19.264 1.073 8.096 3.58 27.619 14.257 30.412 25.488 6.666 45.521-37.318 54.354-63.365 10.016 14.354 21.929 26.559 36.147 37.449 7.521 5.758 21.754 15.816 31.931 9.854 10.454-6.123 7.906-23.043 7.043-32.635-1.595-17.727-7.274-34.715-15.201-50.537 34.837 4.109 109.456 2.229 70.139-36.65-.257-.328-.563-.646-.927-.951-15.624-13.047-32.529-22.734-51.366-29.271 14.376-10.021 26.597-21.947 37.499-36.184 5.761-7.521 15.819-21.752 9.855-31.93-6.123-10.455-23.042-7.906-32.635-7.043-17.499 1.576-34.276 7.127-49.923 14.891 2.995-16.703 3.369-33.348 1.089-50.545-1.075-8.094-3.58-27.619-14.257-30.41-25.488-6.666-45.522 37.316-54.353 63.365-10.016-14.35-21.927-26.557-36.146-37.443-7.52-5.762-21.756-15.82-31.934-9.859-10.454 6.125-7.906 23.043-7.043 32.635 1.578 17.498 7.131 34.277 14.895 49.924-16.705-2.996-33.35-3.369-50.547-1.09-8.096 1.072-27.618 3.582-30.409 14.258-6.663 25.488 37.319 45.523 63.365 54.354-14.351 10.018-26.557 21.93-37.447 36.15-5.759 7.521-15.817 21.754-9.855 31.93 6.123 10.455 23.04 7.91 32.633 7.047 4.713-.426 9.363-1.186 13.968-2.148-40.048 61.027-91.522 113.85-152.949 153.391 4.234-77.887-1.007-156.164-21.236-231.541 19.75 18.629 44.96 32.838 74.519 42.148 3.204 1.008 5.562-.705 6.553-3.086.392-.701.654-1.521.735-2.465 4.084-48.301-10.155-94.486-39.07-129.93 37.624 8.93 73.196 2.422 109.111-15.777 2.995-1.516 3.43-4.371 2.413-6.742-.223-.787-.618-1.564-1.248-2.297-24.088-28.123-55.753-49.404-91.772-54.939 9.979-4.594 19.721-10.084 29.244-16.748 30.588-21.4 43.588-50.195 54.831-84.758 1.05-3.225-.694-5.59-3.112-6.561-.697-.385-1.509-.645-2.439-.727-35.68-3.131-66.106-2.195-98.532 14.256-10.389 5.271-20.015 11.768-28.882 19.18 11.088-34.693 4.949-70.607-12.181-105.541-.04-.088-.079-.176-.124-.262-.15-.305-.278-.611-.432-.916-1.514-3.039-4.402-3.453-6.786-2.391-.771.223-1.534.615-2.256 1.225-31.268 26.455-51.892 58.93-56.88 97.256-17.694-39.316-51.705-67.564-98.892-82.818-.092-.037-.183-.068-.274-.098-.33-.107-.639-.236-.969-.342-3.414-1.082-5.865.936-6.727 3.561-.273.596-.485 1.246-.562 1.99-3.317 32.447-2.737 64.029 11.081 94.059 4.502 9.783 10.383 18.854 17.238 27.197-34.779-9.766-73.108-.537-105.77 15.807-.013.003-.026.011-.038.014z" fill="#68182b" data-original="#68182b" class=""/><path d="m300.325 350.276c-26.241 10.715-56.089 15.814-84.561 15.094 8.279-24.385 18.09-47.389 37.827-64.982 15.021-13.391 33.181-22.363 52.427-27.951.062-.021.133-.033.194-.059 15.526-4.488 31.746-6.762 47.624-7.314.72 2.053 1.612 4.09 2.676 6.111.171.484.394.975.742 1.471.292.514.636.92.998 1.285 2.499 3.318 5.289 6.232 8.343 8.666-.176.234-.355.459-.508.738-7.407 13.424-16.57 27.205-27.545 39.121-.922.523-1.713 1.316-2.289 2.389-10.407 10.804-22.355 19.89-35.928 25.431z" fill="#ff7cc3" data-original="#ff7cc3"/><path d="m423.788 237.841c12.154 34.605-35.228 59.367-56.59 28.994-21.445-37.504 42.576-68.891 56.59-28.994z" fill="#f9c035" data-original="#f9c035"/><path d="m350.639 439.306c-15.918-35.156-18.982-70.859-4.897-107.406 12.168-13.045 22.313-28.301 30.285-42.754.126-.23.198-.455.292-.682 6.133 2.717 12.75 3.996 19.442 3.68.337 16.094 2.631 31.16 6.703 45.152-3.299 41.039-22.136 74.836-51.825 102.01z" fill="#ff7cc3" data-original="#ff7cc3"/><path d="m419.021 689.946c2.158 8.434 2.338 14.482.314 18.291-11.621-13.789-23.739-27.219-36.188-40.387.146-.24.321-.443.418-.742 4.808-14.75 7.598-31.48 7.44-47.785 3.704 6.797 7.214 13.705 10.495 20.717 7.477 15.969 13.152 32.848 17.521 49.906z" fill="#82e0c3" data-original="#82e0c3"/><path d="m347.479 557.235c13.53 14.988 25.395 31.336 35.79 48.588 2.426 18.553-.157 38.822-5.46 56.379-20.109-21.02-40.923-41.463-61.681-61.783 2.66-25.973 1.994-52.83-4.601-78.195 12.648 10.841 24.664 22.504 35.952 35.011z" fill="#82e0c3" data-original="#82e0c3"/><path d="m233.295 518.565c.016-.1.072-.168.081-.271 1.682-17.006.218-35.361-5.935-51.623 26.503 13.207 51.492 29.086 74.523 47.615 8.398 25.637 9.964 53.072 7.789 79.891-7.67-7.512-15.322-15.02-22.902-22.541-17.823-17.688-35.652-35.416-53.556-53.071z" fill="#82e0c3" data-original="#82e0c3"/><path d="m177.49 445.517c13.793 4.861 27.27 10.41 40.415 16.563 7.634 15.236 9.928 33.154 8.992 50.176-24.121-23.715-48.477-47.193-73.358-70.053 6.936-2.751 19.719 1.991 23.951 3.314z" fill="#82e0c3" data-original="#82e0c3"/><path d="m155.075 475.415c-3.002-8.148-5.636-16.174-6.112-24.91-.061-1.111.027-2.072.193-2.951 40.348 37.102 79.283 75.848 118.194 114.467-23.676 4.598-49.583 5.85-71.833-4.174-7.005-11.131-13.517-22.572-19.572-34.223-8.089-15.555-14.812-31.773-20.87-48.209z" fill="#82e0c3" data-original="#82e0c3"/><path d="m231.57 606.222c-10.841-12.152-20.699-25.123-29.75-38.646 22.84 7.248 48.115 5.217 71.411.277 1.936 1.92 3.872 3.846 5.808 5.764 21.079 20.881 42.633 41.658 63.84 62.799-23.305 6.973-49.882 10.955-73.947 6.551-13.31-11.466-25.813-23.8-37.362-36.745z" fill="#82e0c3" data-original="#82e0c3"/><path d="m399.457 711.88c-44.346-10.176-85.161-32.201-120.636-60.691 23.282 1.934 47.995-2.365 69.63-9.225 22.707 22.789 44.846 46.109 65.459 70.521-3.443 1.03-8.206.83-14.453-.605z" fill="#82e0c3" data-original="#82e0c3"/><path d="m455.363 810.591c-4.117-1.244-6.921-2.967-8.706-5.029 23.854-4.477 47.507-10.27 70.963-17.021 14.286 14.947 32.8 22.635 52.55 25.383-37.632 9.598-77.359 7.983-114.807-3.333z" fill="#82e0c3" data-original="#82e0c3"/><path d="m588.752 808.216c-23.462.086-46.302-5.629-63.533-21.865 19.645-5.834 39.141-12.334 58.501-19.244 12.149 13.605 31.587 18.449 49.963 19.236-11.58 7.088-23.741 13.244-36.198 18.463-2.893 1.213-5.802 2.345-8.733 3.41z" fill="#82e0c3" data-original="#82e0c3"/><path d="m644.249 779.479c-18.281.66-39.804-2.043-53.36-14.932 20.049-7.277 39.936-14.986 59.673-22.889 8.333 5.504 17.863 9.641 27.692 10.225-6.299 5.865-12.546 10.898-16.187 14.004-5.679 4.85-11.654 9.352-17.818 13.592z" fill="#82e0c3" data-original="#82e0c3"/><path d="m685.523 744.661c-9.439 1.557-18.678-1.482-26.975-6.201 13.35-5.391 26.621-10.854 39.828-16.314-.082 6.865-5.796 14.972-12.853 22.515z" fill="#82e0c3" data-original="#82e0c3"/><path d="m696.259 715.601c-22.154 9.164-44.513 18.314-67.073 27.127 7.587-16.23 19.584-29.248 35.493-37.648 6.341.93 12.644 2.033 18.882 3.338 6.492 1.735 10.501 4.218 12.698 7.183z" fill="#82e0c3" data-original="#82e0c3"/><path d="m653.557 703.667c-15.286 10.234-26.479 24.949-33.375 42.498-.009.023-.002.039-.011.061-23.394 9.014-47.004 17.576-70.826 25.344 7.78-26.592 21.778-51.793 44.858-67.922 19.66-2.315 39.637-2.135 59.354.019z" fill="#82e0c3" data-original="#82e0c3"/><path d="m580.738 705.626c-19.962 17.898-32.464 42.594-39.35 68.533-14.229 4.52-28.545 8.691-42.925 12.516.259-20.598 7.209-43.023 19.757-59.566 9.008-4.643 18.324-8.68 27.777-12.152 11.319-4.159 22.946-7.218 34.741-9.331z" fill="#82e0c3" data-original="#82e0c3"/><path d="m479.116 753.706c8.058-7.273 16.867-13.637 26.13-19.285-9.049 16.453-13.877 35.92-13.732 54.105-15.688 4.023-31.468 7.537-47.33 10.498-.286-14.791 25.964-37.226 34.932-45.318z" fill="#82e0c3" data-original="#82e0c3"/><path d="m634.083 479.054c.155-.248.254-.494.369-.74 6.643-2.287 13.114-5.059 19.412-8.184-.438 2.447-.818 4.895-1.142 7.34-.268.299-.521.637-.749 1.021-47.555 80.338-111.286 144.818-190.412 194.217-.963.594-1.543 1.074-2.092 1.217-.397-.184-.818-.326-1.261-.416-.111-.086-.196-.104-.32-.221-1.68-1.611-2.393-4.205-2.97-6.371-1.192-4.453-1.327-10.166 2.999-12.711 72.071-43.26 131.577-104.131 176.166-175.152z" fill="#a98053" data-original="#a98053"/><path d="m453.037 643.685c-.313.189-.617.389-.93.578-12.514 7.365-11.007 28.686-1.902 37.332-9.786 82.541-28.148 166.324-61.834 242.592-2.718 6.006-7.845 19.762-16.855 17.145-7.549-2.191-4.2-14.816-2.078-19.33 81.44-166.695 88.344-376.783 39.289-553.334-.047-.17-.121-.305-.18-.461.81-2.928 1.531-5.898 2.182-8.9 4.276 9.143 9.43 17.705 15.385 25.686.033.143.041.275.086.418 26.029 83.645 32.239 171.184 26.837 258.274z" fill="#a98053" data-original="#a98053"/><path d="m514.418 433.364c-50.502-17.744-86.218-51.061-100.378-97.801-.052-.795-.252-1.486-.571-2.074-3.856-13.434-5.957-27.941-6.139-43.49 4.654-1.512 9.215-3.779 13.515-6.916 2.273-1.66 4.276-3.572 6.071-5.646 58.411 30.738 90.255 90.437 87.502 155.927z" fill="#ff7cc3" data-original="#ff7cc3"/><path d="m478.372 241.985c41.546-2.777 77.487 17.266 104.937 46.809-36.565 16.975-72.531 20.328-111.626 6.18-.247-.09-.477-.123-.713-.18-11.14-10.463-23.772-19.631-37.893-27.098 2.829-6.311 4.131-13.336 3.901-20.316 13.787-.463 26.939-2.301 39.576-5.57.552.138 1.143.22 1.818.175z" fill="#ff7cc3" data-original="#ff7cc3"/><path d="m575.705 133.735c-9.957 29.023-21.729 51.787-47.307 71.213-27.414 20.82-59.234 30.195-93.209 31.043-.484-1.674-1.028-3.326-1.703-4.926-2.669-6.322-6.64-11.34-11.407-15.115 15.408-27.293 35.828-49.072 62.668-65.541 28.88-17.719 58.765-19.025 90.958-16.674z" fill="#ff7cc3" data-original="#ff7cc3"/><path d="m436.441 61.831c18.055 39.748 20.213 80.107-4.432 118.527-.257.4-.455.801-.604 1.195-7.266 9.023-13.739 18.686-19.388 28.73-6.487-2.434-13.663-3.166-20.874-2.119-.319-9.943-1.356-19.471-3.104-28.564.229-.672.335-1.441.257-2.324-4.174-47.002 14.515-84.728 48.145-115.445z" fill="#ff7cc3" data-original="#ff7cc3"/><path d="m280.773 75.798c62.131 21.988 97.808 68.367 98.961 135.551-.47.195-.946.354-1.412.566-6.769 3.063-12.415 7.432-16.795 12.605-.207-.143-.396-.295-.637-.42-28.268-14.869-51.791-35.604-67.633-63.543-14.536-25.634-14.946-56.052-12.484-84.759z" fill="#ff7cc3" data-original="#ff7cc3"/><path d="m324.184 214.462c.449.328.895.551 1.336.727 9.386 7.195 19.396 13.506 29.561 18.85.079.041.155.057.231.096-2.828 6.053-4.153 12.697-3.772 19.49-16.123.711-32.224 3.133-47.677 7.602-.038-.002-.069-.016-.108-.018-39.958-2.76-73.321-20.18-99.986-48.873 38.478-17.874 83.885-24.495 120.415 2.126z" fill="#ff7cc3" data-original="#ff7cc3"/><path d="m842.381 422.388c-17.31-14.451-36.381-24.221-58.199-30.006-4.853-1.287-5.631-8.008-1.374-10.52 13.116-7.744 25.552-16.844 35.49-28.518.007-.01 29.867-33.355 8.948-32.813-24.644.639-47.351 7.713-68.614 20.066-4.423 2.568-9.712-1.631-8.457-6.504 3.794-14.713 6.142-29.949 4.915-45.193-.147-1.848-3.389-43.555-16.412-29.965-17.243 17.994-28.435 39.174-34.803 63.209-1.289 4.855-8.01 5.631-10.521 1.377-7.744-13.117-16.843-25.551-28.518-35.49-.007-.008-33.354-29.869-32.813-8.953.637 24.641 7.711 47.352 20.063 68.611 2.572 4.426-1.628 9.711-6.501 8.455-14.713-3.787-29.947-6.135-45.191-4.91-1.846.148-43.559 3.391-29.964 16.414 17.996 17.24 39.17 28.436 63.211 34.805 4.852 1.289 5.628 8.01 1.373 10.525-13.116 7.742-25.554 16.84-35.492 28.518-.007.008-29.865 33.352-8.95 32.813 24.639-.635 47.353-7.717 68.614-20.068 4.423-2.568 9.711 1.631 8.457 6.504-3.792 14.711-6.139 29.947-4.914 45.189.146 1.846 3.389 43.559 16.413 29.965 17.241-17.994 28.431-39.172 34.805-63.209 1.289-4.854 8.01-5.631 10.524-1.375 7.742 13.117 16.84 25.553 28.515 35.494.009.006 33.353 29.871 32.811 8.949-.636-24.645-7.711-47.352-20.063-68.613-2.57-4.424 1.628-9.713 6.501-8.455 9.97 2.569 98.081 10.463 70.146-16.302zm-32.913-1.641c-20.8-.926-41.45-4.846-61.884-8.738-2.799 7.377-7.661 13.908-14.402 18.35 2.969 8.428 6.069 16.795 10.881 24.389 4.23 6.672 9.168 13.197 11.473 20.828.07.227-.227.393-.391.227-12.123-12.273-20.335-26.848-27.461-42.297-9.28 4.615-19.06 6.227-28.29 4.842-5.909 18.762-10.922 37.887-17.801 56.297-.126.334-.724.318-.672-.09 2.479-19.465 7.548-38.559 12.757-57.469-7.77-2.297-14.949-6.838-20.844-13.664-15.814 7.23-30.829 15.619-46.122 23.953-.357.195-.729-.27-.437-.564 12.166-12.266 27.607-20.529 43.139-27.896-.214-.365-.38-.727-.497-1.084-5.237-10.311-5.768-21.992-2.487-32.555-13.075-4.494-26.514-7.6-39.956-10.842-.249-.061-.175-.408.056-.426 14.347-1.08 28.295 1.838 42.02 5.678 3.063-6.67 7.703-12.633 13.678-17.143-6.521-17.135-15.338-33.193-22.729-49.957-.113-.256.223-.59.425-.328 11.342 14.658 19.894 30.254 27.753 46.85.865-.467 1.713-.955 2.617-1.363 10.016-4.539 20.993-4.453 30.818-.98 4.521-15.283 6.662-30.912 10.984-46.203.072-.258.506-.293.553 0 2.649 15.729-1.524 33.07-6.175 48.447 5.876 2.967 11.106 7.238 15.196 12.475 10.538-6.436 22.066-14.268 34.164-15.621.212-.025.342.297.178.43-9.519 7.695-21.187 12.518-31.292 19.619.654 1.098 1.272 2.219 1.828 3.383 3.989 8.357 4.782 18.025 2.748 27.01 20.049 4.68 40.469 8.154 60.262 13.773.366.101.303.689-.09.669z" fill="#f9c035" data-original="#f9c035"/><path d="m693.243 368.981c14.956-8.578 34.317-.148 42.212 13.707 19.404 34.055-34.301 61.506-55.823 30.91-8.929-15.863-1.756-35.802 13.611-44.617z" fill="#ff7cc3" data-original="#ff7cc3"/><path d="m747.584 412.009c-2.799 7.377-7.661 13.908-14.402 18.35 2.969 8.428 6.069 16.795 10.881 24.389.032.053.068.102.1.154-1.234-2.992-2.325-6.043-3.137-9.254-3.414-13.488 7.893-18.154 18.174-20.549 11.407-2.658 22.687-4.531 34.265-5.613-15.396-1.682-30.697-4.585-45.881-7.477z" fill="#ed9d2b" data-original="#ed9d2b"/><path d="m670.685 327.7c6.353 10.051 11.83 20.508 16.991 31.406.865-.467 1.713-.955 2.617-1.363 10.016-4.539 20.993-4.453 30.818-.98 3.456-11.682 5.536-23.566 8.248-35.348-5.943 11.127-18.284 22.137-30.404 22.844-9.91.58-21.053-8.537-28.27-16.559z" fill="#ed9d2b" data-original="#ed9d2b"/><path d="m668.549 379.685c3.063-6.67 7.703-12.633 13.678-17.143-3.698-9.719-8.135-19.09-12.633-28.439 1.248 5.938 1.488 12.029 1.619 18.338.219 10.547-3.467 15.336-12.731 18.379-5.548 1.822-11.118 2.914-16.87 3.426 9.105.88 18.068 2.956 26.937 5.439z" fill="#ed9d2b" data-original="#ed9d2b"/><path d="m737.955 349.509c-4.578-7.82-3.208-17.357-4.553-26.002-.407 11.951-3.526 24.25-6.929 35.5 5.876 2.967 11.106 7.238 15.196 12.475 6.965-4.254 14.369-9.08 22.078-12.279-9.932.995-20.196-.141-25.792-9.694z" fill="#ed9d2b" data-original="#ed9d2b"/><path d="m672.834 423.421c-10.429 4.768-20.505 10.057-30.545 15.484 10.869-2.59 21.863-5.678 33.096-3.223 12.808 2.799 11.189 20.396 10.073 33.799 2.418-10.877 5.265-21.672 8.22-32.396-7.77-2.297-14.949-6.838-20.844-13.664z" fill="#ed9d2b" data-original="#ed9d2b"/><path d="m765.445 363.485c-6.89 4.121-14.135 7.795-20.726 12.424.654 1.098 1.272 2.219 1.828 3.383 3.989 8.357 4.782 18.025 2.748 27.01 14.328 3.344 28.839 6.098 43.183 9.432-8.286-2.6-16.215-5.73-23.748-10.492-17.906-11.323-14.471-28.382-3.285-41.757z" fill="#ed9d2b" data-original="#ed9d2b"/><path d="m699.394 438.347c-2.434 7.721-4.72 15.502-7.041 23.271 4.155-10.164 10.121-18.559 23.593-19.791 8.667-.795 16.416 5.709 22.93 12.904-4.169-6.779-7.812-13.898-11.191-21.227-9.282 4.616-19.061 6.227-28.291 4.843z" fill="#ed9d2b" data-original="#ed9d2b"/><path d="m657.885 412.979c-4.069 8.49-11.596 15.533-18.164 22.611 9.256-6.537 19.444-11.816 29.693-16.678-.214-.365-.38-.727-.497-1.084-5.237-10.311-5.768-21.992-2.487-32.555-8.245-2.834-16.642-5.098-25.088-7.209 11.619 8.724 24.704 17.892 16.543 34.915z" fill="#ed9d2b" data-original="#ed9d2b"/><path d="m367.198 266.835c21.362 30.373 68.744 5.611 56.59-28.994-1.902-5.416-4.749-9.48-8.155-12.43 6.12 10.256 9.163 21.33 2.642 33.143-7.915 14.34-26.491 16.295-38.618 6.57-12.085-9.689-9.445-24.646-4.664-37.145-10.857 8.799-16.695 23.292-7.795 38.856z" fill="#ed9d2b" data-original="#ed9d2b"/><g fill="#fae034"><path d="m408.987 230.649c-3.755-2.85-13.377-6.152-21.925 1.861-3.678 3.441-5.246 8.895-4.359 13.77.978 5.395 6.08 8.105 11.095 8.486 6.748.514 13.456-2.545 17.335-8.008 3.573-5.03 2.783-12.364-2.146-16.109z" fill="#fae034" data-original="#fae034"/><path d="m676.666 461.948c-8.604 14.25-10.701 36.828-4.521 52.236.164.412.813.512.935 0 1.957-8.115 1.015-16.389 1.755-24.666.813-9.115 3.125-18.244 2.4-27.416-.022-.294-.405-.427-.569-.154z" fill="#fae034" data-original="#fae034"/><path d="m671.676 517.815c-.242 1.479-.058 5.379 2.231 5.379 2.563 0 1.187-4.738.438-5.727-.66-.872-2.439-1.054-2.669.348z" fill="#fae034" data-original="#fae034"/><path d="m653.149 446.063c-8.579 1.326-16.053 5.49-24.022 8.768-8.529 3.508-17.227 6.219-26.001 8.996-.398.127-.461.775 0 .869 8.228 1.645 16.042-1.287 23.89-3.646 9.505-2.855 19.658-6.842 26.781-13.875.516-.51-.029-1.209-.648-1.112z" fill="#fae034" data-original="#fae034"/><path d="m657.337 443.157c-.272.275-1.025 1.361-.511 1.775 1.414 1.123 3.677.012 3.535-1.826-.016-.205-.119-.324-.304-.398-.883-.363-2.008-.264-2.72.449z" fill="#fae034" data-original="#fae034"/><path d="m638.925 421.581c-14.131 6.482-26.881 18.094-35.158 31.256-.249.396.297.766.62.479 11.648-10.287 24.309-19.834 35.258-30.801.502-.506-.131-1.203-.72-.934z" fill="#fae034" data-original="#fae034"/><path d="m639.813 390.563c-5.97-5.475-13.736-6.584-21.189-9.32-11.29-4.146-21.447-10.48-32.214-15.666-.231-.113-.582.139-.394.393 10.812 14.561 35.452 25.436 53.352 25.67.534.006.852-.703.445-1.077z" fill="#fae034" data-original="#fae034"/><path d="m617.744 362.448c9.31.533 18.504 2.285 27.812 2.963.614.045.776-.814.3-1.107-13.771-8.432-34.209-8.766-49.484-4.49-.378.105-.412.711 0 .797 7.024 1.466 14.226 1.429 21.372 1.837z" fill="#fae034" data-original="#fae034"/><path d="m642.754 291.175c-.119-.443-.69-.297-.742.102-2.021 15.705 6.472 38.996 17.727 50.148.506.498 1.347-.006 1.174-.684-2.19-8.543-6.899-16.115-10.012-24.348-3.126-8.265-5.846-16.687-8.147-25.218z" fill="#fae034" data-original="#fae034"/><path d="m655.533 293.253c-.389-.229-.725.277-.459.594 4.246 5.053 8.847 9.963 12.717 15.309 3.233 4.461 5.3 9.629 9.928 12.861.326.227.719-.146.634-.488-2.83-11.376-12.957-22.452-22.82-28.276z" fill="#fae034" data-original="#fae034"/><path d="m679.749 324.353c-.185-.045-.333.059-.397.227-.49 1.279-.136 2.268.411 3.465.596 1.309 2.676.373 2.284-.963-.387-1.325-.875-2.376-2.298-2.729z" fill="#fae034" data-original="#fae034"/><path d="m743.76 269.745c.173-.393-.279-.814-.621-.479-7.328 7.133-12.795 15.926-18.065 24.629-5.296 8.746-10.735 18.35-11.104 28.754-.024.717.88.832 1.242.336 5.871-8.084 9.25-17.898 13.883-26.736 4.687-8.945 10.614-17.236 14.665-26.504z" fill="#fae034" data-original="#fae034"/><path d="m713.483 325.618c-1.637.189-2.636 3.904-.72 3.904 1.934 0 2.207-4.078.72-3.904z" fill="#fae034" data-original="#fae034"/><path d="m742.588 331.989c3.337-6.146 4.196-12.271 4.616-19.172.52-8.549.866-18.33-1.927-26.51-.081-.242-.513-.307-.553 0-2.002 14.859-2.254 30.426-3.142 45.408-.031.542.756.735 1.006.274z" fill="#fae034" data-original="#fae034"/><path d="m790.64 338.831c10.82-3.615 22.716-4.902 32.698-10.568.627-.357.278-1.17-.336-1.242-20.501-2.4-46.106 10.973-62.451 22.451-.241.172-.102.58.209.494 10.213-2.869 19.803-7.772 29.88-11.135z" fill="#fae034" data-original="#fae034"/><path d="m810.201 343.755c-15.562 8.631-28.356 21.836-43.22 31.545-.344.225-.124.75.278.656 9.154-2.066 16.535-8.9 24.229-13.961 7.378-4.854 14.875-9.773 19.474-17.477.294-.49-.28-1.031-.761-.763z" fill="#fae034" data-original="#fae034"/><path d="m813.034 339.513c-.345.605-1.251 2.105-.342 2.682 2.296 1.459 4.49-2.635 4.518-4.434.005-.299-.25-.533-.54-.539-1.617-.037-2.84.894-3.636 2.291z" fill="#fae034" data-original="#fae034"/><path d="m774.215 399.698c-.227-.016-.326.338-.116.436 9.149 4.346 18.751 7.654 28.061 11.639 8.683 3.715 16.018 9.436 24.385 13.646.599.303 1.288-.316.933-.934-8.878-15.552-36.647-23.578-53.263-24.787z" fill="#fae034" data-original="#fae034"/><path d="m829.91 426.755c-.18.012-.304.107-.364.275-.368 1.051-.067 1.668.686 2.41 1.17 1.15 2.862-.578 1.786-1.785-.635-.707-1.141-.978-2.108-.9z" fill="#fae034" data-original="#fae034"/><path d="m812.941 429.437c-14.15-2.215-29.048-.762-43.331-.271-.268.008-.369.361-.138.504 5.559 3.363 11.92 3.361 18.266 3.805 8.831.617 16.929.389 25.203-2.891.477-.188.649-1.044 0-1.147z" fill="#fae034" data-original="#fae034"/><path d="m771.104 498.802c2.025-19.563-5.523-41.223-19.267-55.191-.2-.205-.63.002-.511.297 3.881 9.557 8.961 18.279 11.718 28.316 2.472 8.998 2.983 18.348 6.886 26.895.29.632 1.117.234 1.174-.317z" fill="#fae034" data-original="#fae034"/><path d="m770.134 502.435c-.558 1.373-.927 5.523 1.491 5.523 2.458 0 1.162-4.738.447-5.777-.552-.803-1.588-.608-1.938.254z" fill="#fae034" data-original="#fae034"/><path d="m742.819 476.474c-6.442-7.018-11.859-15.568-19.019-21.809-.238-.205-.697-.014-.574.332 3.014 8.32 8.973 16.02 14.392 22.943 5.512 7.043 11.77 14.715 20.749 16.988.503.129.984-.43.689-.896-4.271-6.806-10.83-11.672-16.237-17.558z" fill="#fae034" data-original="#fae034"/><path d="m707.535 454.28c-3.168 8.275-5.077 17.002-8.171 25.34-3.903 10.523-9.95 20.207-14.765 30.322-.216.453.321.912.706.545 13.955-13.213 24.825-36.662 22.619-56.156-.024-.225-.305-.268-.389-.051z" fill="#fae034" data-original="#fae034"/></g><path d="m313.921 613.392c4.944 4.082 9.626 8.465 14.753 12.334 3.299 2.486 6.805 4.658 10.302 6.844-19.948-19.811-40.144-39.348-59.937-58.953-1.936-1.918-3.872-3.844-5.808-5.764-20.92 4.436-43.42 6.465-64.335 1.596 16.157 12.717 37.918 14.557 57.73 19.023 17.552 3.955 33.535 13.558 47.295 24.92z" fill="#39b386" data-original="#39b386"/><path d="m233.295 518.565c17.904 17.654 35.733 35.383 53.557 53.07 6.858 6.805 13.784 13.598 20.721 20.393-12.35-20.355-20.807-42.232-31.472-63.838-10.73-21.734-25.302-44.42-46.988-56.576 4.709 14.986 5.776 31.371 4.264 46.68-.01.103-.066.172-.082.271z" fill="#39b386" data-original="#39b386"/><path d="m316.129 600.419c18.977 18.578 37.973 37.277 56.462 56.406-14.214-20.896-27.784-41.156-34.119-66.42-3.243-12.939-4.304-25.822-9.204-38.387-3.501-8.982-9.819-16.297-16.258-23.348 5.142 23.446 5.554 47.962 3.119 71.749z" fill="#39b386" data-original="#39b386"/><path d="m402.196 667.226c-2.323-8.998-3.829-18.197-6.021-27.232-1.208-4.984-3.212-9.184-5.3-13.557-.581 14.004-3.198 28.063-7.309 40.672-.097.299-.272.502-.418.742 12.162 12.865 23.993 25.99 35.369 39.447-6.991-12.711-12.635-25.789-16.321-40.072z" fill="#39b386" data-original="#39b386"/><path d="m202 465.841c-10.152-8.127-29.522-20.736-44.018-19.467 23.328 21.555 46.244 43.592 68.915 65.881.167-3.037.188-6.107.14-9.182-4.266-14.58-12.019-26.816-25.037-37.232z" fill="#39b386" data-original="#39b386"/><path d="m696.259 715.601c-1.224-1.652-3.083-3.131-5.546-4.438-24.775.221-40.961 18.652-60.673 31.223 22.271-8.707 44.346-17.739 66.219-26.785z" fill="#39b386" data-original="#39b386"/><path d="m482.598 768.72c-6.893 12.57-16.016 21.461-27.485 28.07 12.181-2.473 24.325-5.166 36.401-8.264-.133-16.666 3.955-34.379 11.596-49.893-9.388 8.011-14.579 19.268-20.512 30.087z" fill="#39b386" data-original="#39b386"/><path d="m627.193 785.88c-16.341-1.594-32.747-6.762-43.474-18.773-19.36 6.91-38.856 13.41-58.501 19.244 31.882-6.276 58.83 15.193 101.975-.471z" fill="#39b386" data-original="#39b386"/><path d="m604.761 762.61c9.75.641 19.386 1.846 29.174 1.875 14.561.045 27.014-5.982 39.084-13.281-7.96-1.465-15.614-5.025-22.457-9.545-18.041 7.223-36.224 14.244-54.526 20.961 2.873-.154 5.765-.203 8.725-.01z" fill="#39b386" data-original="#39b386"/><path d="m658.549 738.46c.04.021.081.039.119.063 13.964-2.076 28.471-4.338 39.039-12.381.385-1.363.654-2.709.67-3.996-13.207 5.46-26.479 10.923-39.828 16.314z" fill="#39b386" data-original="#39b386"/><path d="m348.643 664.708c14.537 4.783 27.313 13.59 39.877 22.072 2.425 1.637 4.833 3.279 7.232 4.934-15.258-16.982-31.119-33.51-47.301-49.75-19.476 6.176-41.438 10.23-62.614 9.576 4.985 3.174 11.147 3.736 17.095 4.406 15.465 1.735 30.889 3.887 45.711 8.762z" fill="#39b386" data-original="#39b386"/><path d="m564.434 812.933c-17.578-3.371-33.924-10.904-46.813-24.393-12.937 3.723-25.938 7.121-38.996 10.201 10.993.342 21.632 2.811 32.167 6.111 16.968 5.317 35.872 13.085 53.642 8.081z" fill="#39b386" data-original="#39b386"/><path d="m192.248 519.116c20.209 17.549 47.094 23.479 69.576 37.424-35.624-35.357-71.349-70.721-108.188-104.793 4.769 25.822 18.888 50.244 38.612 67.369z" fill="#39b386" data-original="#39b386"/><path d="m579.213 707.124c-15.378 8.068-26.012 20.416-34.501 35.5-5.302 9.426-10.404 18.543-18.074 26.318-5.979 6.063-13.227 11.09-20.654 15.637 11.849-3.256 23.663-6.689 35.405-10.42 6.701-25.246 18.783-49.265 37.824-67.035z" fill="#39b386" data-original="#39b386"/><path d="m620.182 746.165c6.436-16.377 16.658-30.232 30.411-40.334-19.106.801-32.015 17.121-44.893 29.742-13.577 13.311-31.62 23.551-48.601 33.398 21.189-7.072 42.222-14.713 63.071-22.746.01-.021.003-.037.012-.06z" fill="#39b386" data-original="#39b386"/><path d="m302.733 625.259c-8.878-1.063-36.466-8.521-55.812-21.537-3.974-2.676-10.818-8.064-4.086 3.066 13.656 22.59 42.861 26.256 60.023 23.465 6.414-1.043 6.357-4.219-.125-4.994z" fill="#b3eed6" data-original="#b3eed6"/><path d="m231.51 553.542c-4.623-1.168-9.26-2.141-13.951-3.301-5.25-1.297-10.249-3.393-15.272-5.377-6.993-2.764-3.953.055-1.983 2.422 7.155 8.605 20.694 11.311 31.994 10.488 6.823-.5 6.095-2.488-.788-4.232z" fill="#b3eed6" data-original="#b3eed6"/><path d="m299.595 547.7c-1.062-5.496-2.762-10.803-4.661-16.285-1.662-4.801-3.605-10.076-6.906-14.072-3.756-4.535-4.821-2.266-3.475 2.332 1.579 5.408 4.264 10.648 6.081 15.898 1.702 4.922 3.067 9.629 4.994 14.191 3.081 7.309 5.534 6.063 3.967-2.064z" fill="#b3eed6" data-original="#b3eed6"/><path d="m372.438 624.522c.668-14.076-4.569-31.248-14.205-41.117-4.76-4.871-7.432-5.207-3.928 3.139 2.622 6.238 5.954 12.254 8.01 18.715 2.1 6.619 2.855 13.424 4.452 20.053 1.962 8.173 5.254 7.884 5.671-.79z" fill="#b3eed6" data-original="#b3eed6"/><path d="m356.927 684.524c-4.089-1.904-8.073-4.238-12.17-6.271-7.49-3.713-9.517-1.262-3.233 4.387 8.754 7.869 21.632 13.574 32.947 14.039 3.939.164 10.611-.59.746-4.771-6.044-2.563-12.278-4.579-18.29-7.384z" fill="#b3eed6" data-original="#b3eed6"/><path d="m385.795 694.644c-1.037 0-3.065.855-2.386 2.23.632 1.283 1.942 1.865 3.282 1.883 4.319.056 4.454-4.113-.896-4.113z" fill="#b3eed6" data-original="#b3eed6"/><path d="m605.655 713.212c-6.679 1.373-12.296 4.848-18.252 9.623-6.447 5.17-13.63 12.449-17.155 20.584-3.899 8.996.18 6.814 4.571 2.605 4.738-4.539 8.885-9.895 13.616-14.311 5.626-5.254 12.522-9.652 19.36-13.682 5.63-3.315 4.247-6.135-2.14-4.819z" fill="#b3eed6" data-original="#b3eed6"/><path d="m534.195 730.071c-5.498 1.553-9.933 5.453-13.834 9.959-2.521 2.91-5.607 7.275-6.982 11.715-1.929 6.238 1.57 7.664 5.125 2.59 2.242-3.197 4.239-6.736 6.654-9.508 3.287-3.773 7.159-7.088 10.984-10.383 3.936-3.396 7.178-6.935-1.947-4.373z" fill="#b3eed6" data-original="#b3eed6"/><path d="m504.079 811.13c-3.385-.982-6.767-1.941-10.231-2.777-2.633-.637-5.346-1.414-8.072-1.805-6.65-.951-7.846 1.404-2.074 4.395 5.964 3.096 13.396 4.416 20.148 4.086 6.418-.315 6.3-2.137.229-3.899z" fill="#b3eed6" data-original="#b3eed6"/><path d="m563.761 794.116c-2.745-.699-5.534-1.66-8.338-2.092-6.548-1.006-7.985 1.932-2.391 4.797 2.168 1.111 4.592 1.805 7.027 2.559 4.176 1.295 7.915 2.438 11.859 2.654 6.024.338 5.745-2.977.394-5.256-2.649-1.117-5.43-1.867-8.551-2.662z" fill="#b3eed6" data-original="#b3eed6"/><path d="m626.159 768.999c-1.837.061-3.818-.084-5.774-.066-5.957.061-7.392 2.758-2.096 4.629 1.551.551 3.278.775 4.893.967 3.47.41 7.171.406 10.463-.703 2.743-.928 7.394-2.914-.553-4.592-2.164-.456-4.404-.319-6.933-.235z" fill="#b3eed6" data-original="#b3eed6"/><path d="m645.367 768.159c-.999.039-1.988.238-2.85.662-2.687 1.33-2.084 3.48.138 3.898 1.383.266 2.94-.352 4.067-1.287 1.299-1.078.233-3.333-1.355-3.273z" fill="#b3eed6" data-original="#b3eed6"/><path d="m352.382 574.724c-4.483-7.27-7.994-5.018-3.604 2.105 1.407 2.287 5.018.192 3.604-2.105z" fill="#b3eed6" data-original="#b3eed6"/><path d="m278.046 510.438c4.423 4.271 7.622.863 2.919-2.92-3.68-2.949-6.264-.32-2.919 2.92z" fill="#b3eed6" data-original="#b3eed6"/><path d="m426.113 384.991c-5.955-7.98-11.108-16.543-15.385-25.686-.65 3.002-1.372 5.973-2.182 8.9.059.156.133.291.18.461 15.522 55.865 25.421 115.09 29.149 175.232.421-4.785.818-9.57 1.234-14.342 2.438-27.969 3.245-56.09 2.313-84.152-4.049-20.176-9.063-40.197-15.225-59.996-.043-.141-.051-.274-.084-.417z" fill="#855725" data-original="#855725"/><path d="m623.287 520.298c1.149-.949 2.318-1.947 3.49-2.949 8.832-12.525 17.261-25.451 25.196-38.857.228-.385.481-.723.749-1.021.323-2.445.703-4.893 1.142-7.34-6.298 3.125-12.77 5.896-19.412 8.184-.115.246-.214.492-.369.74-16.406 26.133-34.85 50.875-55.178 73.889 15.5-10.115 30.391-21.084 44.382-32.646z" fill="#855725" data-original="#855725"/><path d="m733.528 399.769c-7.522 12.346-25.9 16.008-38.269 9.971-11.725-5.725-14.607-21.232-10.658-33.688-9.03 10.123-11.985 25.08-4.97 37.547 20.675 29.393 71.011 5.211 57.741-26.928-.089 4.295-1.126 8.635-3.844 13.098z" fill="#f45090" data-original="#f45090" class=""/><path d="m506.201 384.942c.122 3.611-.213 7.293-.787 10.852-1.547 9.629-12.148 7.742-18.539 4.527-8.479-4.268-15.527-11.518-21.878-18.428-24.114-26.238-40.615-63.199-44.073-98.877-.027.021-.053.045-.079.066-4.3 3.137-8.86 5.404-13.515 6.916.182 15.549 2.282 30.057 6.139 43.49.319.588.52 1.279.571 2.074 14.16 46.74 49.876 80.057 100.378 97.801 1.044-24.838-2.912-48.832-11.383-70.74 1.757 7.257 2.91 14.673 3.166 22.319z" fill="#f45090" data-original="#f45090" class=""/><path d="m336.254 324.845c.576-1.072 1.367-1.865 2.289-2.389 10.975-11.916 20.138-25.697 27.545-39.121.152-.279.332-.504.508-.738-3.054-2.434-5.844-5.348-8.343-8.666-.166-.17-.306-.4-.461-.594-7.675 17.76-27.144 34.244-41.067 45.566-20.099 16.344-47.006 35.104-73.455 36.879-22.545 1.51-8.884-27.238-3.781-37.367 1.349-2.676 2.795-5.248 4.292-7.773-13.375 15.879-21.254 34.816-28.016 54.729 28.472.721 58.319-4.379 84.561-15.094 13.572-5.542 25.52-14.628 35.928-25.432z" fill="#f45090" data-original="#f45090" class=""/><path d="m383.411 399.005c-1.136 1.559-2.303 3.076-3.499 4.539-5.859 7.156-13.905 12.91-23.557 11.453-11.16-1.682-11.475-17.414-11.329-25.801.63-36.551 19.056-69.383 40.489-97.834-3.148-.623-6.23-1.586-9.197-2.898-.094.227-.166.451-.292.682-7.972 14.453-18.117 29.709-30.285 42.754-14.085 36.547-11.021 72.25 4.897 107.406 13.221-12.1 24.271-25.52 32.773-40.301z" fill="#f45090" data-original="#f45090" class=""/><path d="m549.837 260.815c10.121 9.719 21.923 23.529 7.162 29.148-14.452 5.5-31.16 2.58-45.94.348-25.904-3.912-54.134-13.27-75.717-29.191-.603 2.246-1.315 4.461-2.265 6.576 14.12 7.467 26.753 16.635 37.893 27.098.236.057.466.09.713.18 39.095 14.148 75.061 10.795 111.626-6.18-10.061-10.828-21.273-20.359-33.472-27.979z" fill="#f45090" data-original="#f45090" class=""/><path d="m433.669 84.88c6.647 5.713 2.546 24.988 1.783 32.605-1.272 12.721-4.545 25.434-8.039 37.705-3.407 11.959-8.066 23.57-13.413 34.781-3.012 6.316-6.73 12.23-10.25 18.262 2.836.422 5.619 1.057 8.269 2.051 5.648-10.045 12.122-19.707 19.388-28.73.148-.395.347-.795.604-1.195 24.645-38.42 22.486-78.779 4.432-118.527-15.525 14.182-27.813 29.877-36.192 47.266 11.307-16.202 25.192-31.286 33.418-24.218z" fill="#f45090" data-original="#f45090" class=""/><path d="m330.576 103.108c-13.916-11.363-30.586-20.51-49.803-27.311-2.463 28.707-2.053 59.125 12.484 84.76 15.842 27.939 39.365 48.674 67.633 63.543.24.125.43.277.637.42 1.495-1.768 3.193-3.398 4.979-4.957-11.693-4.377-22.586-10.066-32.612-18.473-13.394-11.23-23.765-26.682-31.877-41.992-6.71-12.67-10.98-26.482-12.356-40.654-2.737-28.324 10.941-28.457 40.915-15.336z" fill="#f45090" data-original="#f45090" class=""/><path d="m521.52 135.903c6.156-.295 12.352-.068 18.592.865 3.98.596 7.673 1.848 11.338 3.494 11.906 5.348 5.563 18.191-.128 25.152-5.287 6.467-11.354 12.277-17.744 17.631-15.438 12.934-34.609 22.941-53.312 30.102-14.68 5.619-33.253 11.695-49.898 12.1 1.156 1.814 2.233 3.719 3.119 5.818.675 1.6 1.219 3.252 1.703 4.926 33.975-.848 65.795-10.223 93.209-31.043 25.578-19.426 37.35-42.189 47.307-71.213-18.761-1.371-36.734-1.47-54.186 2.168z" fill="#f45090" data-original="#f45090" class=""/><path d="m239.515 199.995c-12.251 2.744-24.308 7.025-35.747 12.34 26.665 28.693 60.028 46.113 99.986 48.873.039.002.07.016.108.018 15.453-4.469 31.554-6.891 47.677-7.602-.228-4.072.227-8.07 1.18-11.939-28.63 7.834-57.9 11.754-87.286 3.586-13.858-3.852-28.043-11.398-36.438-23.436-7.166-10.273.29-17.178 10.52-21.84z" fill="#f45090" data-original="#f45090" class=""/><path d="m710.281 373.97c-8.965-1.27-18.956 3.652-19.507 13.531-.848 15.227 29.192 15.158 34.442 4.385 4.692-9.619-7.107-16.811-14.935-17.916z" fill="#ffbbde" data-original="#ffbbde"/><path d="m444.206 320.913c6.282 13.326 14.36 25.951 22.241 38.096 20.402 31.416 35.968 19.971 13.504-14.508-7.518-11.543-16.848-21.93-26.984-31.391-27.119-25.312-11.621 1.733-8.761 7.803z" fill="#ffbbde" data-original="#ffbbde"/><path d="m378.607 326.312c-11.061 26.137-27.688 70.07-8.594 69.291 11.644-.475 15.448-25.064 16.512-32.746 1.595-11.504 1.158-23.154.72-34.783-.488-12.942-1.246-19.223-8.638-1.762z" fill="#ffbbde" data-original="#ffbbde"/><path d="m307.876 295.413c-12.073 4.336-23.586 10.016-34.677 16.648-6.489 3.881-26.819 15.119-22.25 25.258 3.858 8.568 25.326-4.627 28.569-6.455 12.768-7.197 23.777-16.549 33.681-27.051 12.06-12.789 16.017-16.06-5.323-8.4z" fill="#ffbbde" data-original="#ffbbde"/><path d="m316.567 221.724c-19.213-9.658-51.389-19.4-58.204-12.303-6.258 6.514 9.736 14.844 13.608 16.395 11.804 4.729 26.009 7.898 39.745 8.178 7.051.144 37.108 3.948 4.851-12.27z" fill="#ffbbde" data-original="#ffbbde"/><path d="m349.942 176.526c-3.949-12.992-9.126-25.742-14.804-37.691-4.061-8.547-14.596-30.342-27.373-28.555-11.958 1.67-3.771 23.037-1.221 28.982 6.582 15.354 16.359 32.111 28.654 45.529 15.502 16.907 23.678 21.12 14.744-8.265z" fill="#ffbbde" data-original="#ffbbde"/><path d="m423.217 103.122c-9.6-5.711-17.663 21.682-18.783 26.17-1.41 5.654-3.625 23.672-4.729 38.756-1.873 25.695 3.294 19.172 11.133 3.689 12.163-24.025 26.676-60.107 12.379-68.615z" fill="#ffbbde" data-original="#ffbbde"/><path d="m475.645 201.958c14.785-5.588 32.158-12.721 38.115-16.014 6.415-3.543 22.644-12.568 17.724-22.012-6.009-11.533-38.461 11.49-59.628 29.1-14.931 12.42-14.248 15.739 3.789 8.926z" fill="#ffbbde" data-original="#ffbbde"/><path d="m519.129 266.274c-12.311-2.658-25.29-3.15-38.148-2.67-29.59 1.111-25.469 3.486-5.048 11.285 11.901 4.545 24.845 7.125 36.885 9.461 6.976 1.352 28.112 6.135 30.456-4.715 1.704-7.898-19.814-12.429-24.145-13.361z" fill="#ffbbde" data-original="#ffbbde"/><path d="m357.019 340.05c-10.333 18.869-9.491 46.293-2.655 66.109.202.586 1.014.467 1.059-.145.828-11.174-.15-22.17-.355-33.352-.199-10.932 1.849-21.594 2.555-32.449.019-.323-.454-.437-.604-.163z" fill="#68182b" data-original="#68182b" class=""/><path d="m320.474 280.938c-30.107-1.773-64.791 26.084-79.421 50.625-.234.391.301.791.621.48 11.423-11.064 22.654-21.615 35.974-30.455 13.423-8.906 28.243-13.328 43.017-19.234.743-.298.653-1.365-.191-1.416z" fill="#68182b" data-original="#68182b" class=""/><path d="m339.311 277.587c-4.034-1.369-8.348-.709-11.183 2.676-.16.191-.048.432.19.461 3.916.477 7.403-.865 10.992-2.232.432-.169.46-.749.001-.905z" fill="#68182b" data-original="#68182b" class=""/><path d="m419.291 182.901c17.397-25.949 26.177-59.91 19.831-90.881-.079-.379-.695-.295-.673.09 1.907 31.137-7.475 62.115-20 90.301-.249.568.487 1.02.842.49z" fill="#68182b" data-original="#68182b" class=""/><path d="m433.032 214.331c16.692-18.506 35.711-33.117 53.855-49.98.398-.371-.016-1.191-.56-.963-22.082 9.283-44.271 28.203-53.916 50.463-.163.382.295.841.621.48z" fill="#68182b" data-original="#68182b" class=""/><path d="m504.187 155.231c.34-.211.193-.721-.2-.736-5.572-.232-10.051 2.621-13.434 6.883-.15.191.034.451.262.34 4.492-2.213 9.118-3.822 13.372-6.487z" fill="#68182b" data-original="#68182b" class=""/><path d="m369.998 192.317c.785-17.631-7.504-39.244-20.924-50.938-.272-.236-.697.061-.508.395 9.255 16.33 12.864 33.936 20.258 50.859.27.618 1.149.253 1.174-.316z" fill="#68182b" data-original="#68182b" class=""/><path d="m372.235 204.946c.231.053.542-.027.649-.266.972-2.135-.742-5.426-2.131-7.107-.113-.139-.309-.068-.396.051-1.54 2.104-.975 6.641 1.878 7.322z" fill="#68182b" data-original="#68182b" class=""/><path d="m417.337 299.091c-.112-.291-.567-.268-.564.076.061 17.713 7.659 35.723 15.673 51.223 8.545 16.523 20.29 34.18 36.852 43.428.578.324 1.072-.402.674-.875-11.369-13.547-22.851-26.281-31.615-41.779-9.39-16.597-14.164-34.491-21.02-52.073z" fill="#68182b" data-original="#68182b" class=""/><path d="m481.354 404.731c.189-.1.304-.322.304-.529-.007-1.916-1.279-2.789-2.768-3.74-1.698-1.084-3.607-2.826-5.588-3.262-.191-.043-.421.053-.466.262-.753 3.6 5.044 9.092 8.518 7.269z" fill="#68182b" data-original="#68182b" class=""/><path d="m482.781 256.755c11.707.41 23.473 2.402 35.089 3.836.649.082.924-.975.335-1.24-20.917-9.441-49.396-10.936-71.026-2.666-.238.094-.214.453.063.459 11.848.312 23.667-.801 35.539-.389z" fill="#68182b" data-original="#68182b" class=""/><path d="m319.414 245.372c.54-.104.526-.963 0-1.074-11.587-2.488-23.386-3.371-34.98-5.842-14-2.986-27.606-8.195-40.498-14.363-.245-.115-.535.199-.306.396 19.244 16.719 50.628 25.694 75.784 20.883z" fill="#68182b" data-original="#68182b" class=""/></g></g></g></svg>