<svg xmlns="http://www.w3.org/2000/svg" version="1.1" xmlns:xlink="http://www.w3.org/1999/xlink" xmlns:svgjs="http://svgjs.com/svgjs" width="512" height="512" x="0" y="0" viewBox="0 0 1200 1200" style="enable-background:new 0 0 512 512" xml:space="preserve"><g><g xmlns="http://www.w3.org/2000/svg"><path d="m404.007 601.17h.002c24.436 0 47.689-6.095 67.238-17.625 8.449-4.982 15.982-10.805 22.525-17.402 52.963 30.342 102.998 65.968 149.15 106.181-19.576 2.781-39.068 6.297-58.307 10.514-20.363-26.955-56.25-40.904-85.768-45.021-.271-.037-1.68-.227-2.08-.268-6.025-.582-12.191-.879-18.328-.879-63.879 0-134.84 32.18-149.371 104.072-5.627 27.836.711 53.93 18.324 75.461 21.768 26.605 59.045 43.135 97.291 43.135l2.137-.02c40.707-.676 87.805-18.398 119.234-51.082-3.299 7.396-5.814 15.426-7.465 24.027-.113.584-.195 1.172-.258 1.76-.051.311-.094.617-.127.916-3.068 27.301 4.783 52.326 22.699 72.371 22.311 24.953 58.426 39.852 96.609 39.852 36.051 0 66.889-13.473 85.533-36.703 18.641 4.42 38.041 6.783 58.035 7.037l3.625-.021c2.703 0 3.879.129 4.385.24 1.18 1.639 2.859 5.826 3.797 8.162l1.117 2.752c12.025 29.516 21.701 59.955 28.758 90.467.064.281.135.561.213.838 3.93 14.119 16.742 23.244 32.643 23.244 2.709 0 5.455-.262 8.172-.783 8.047-1.551 15.551-5.92 20.584-11.982 9.975-12.008 6.852-25.051 5.639-30.105-14.395-58.123-36.404-114.508-65.422-167.59-6.852-12.535-14.34-24.672-21.58-36.408l-1.211-1.961c-4.377-7.1-3.816-15.248-2.455-29.037l.254-2.578c1.926-19.926 4.623-42.625 10.018-64.451 27.471-4.09 53.533-19.844 73.109-44.611 42.363-53.585 42.594-140.031.506-188.766-17.424-20.18-42.572-31.293-70.809-31.293-33.172 0-66.473 15.484-86.906 40.409-42.168 51.438-46.369 128.156-9.988 182.416.188.277.379.549.578.816 8.037 10.76 17.236 19.574 27.473 26.34-2 8.182-3.816 16.744-5.469 25.771-23.223-26.854-48.604-52.748-75.738-77.254-7.646-6.902-15.336-13.426-22.588-19.531-.348-2.123.09-6.91.363-9.881.248-2.705.48-5.354.566-7.859.691-20.34-.135-42.547-2.596-69.778-.018-.219-.033-.416-.045-.598 33.156-24.99 58.881-57.939 78.363-86.127 19.988-.117 41.58-9.401 64.176-27.602 45.094-36.323 77.391-111.802 53.596-166.271-15.219-34.829-47.049-56.466-83.07-56.466-19.715 0-39.205 6.434-56.359 18.603-20.057 14.23-33.764 33.303-42.578 54.319-10.031-46.071-37.002-82.018-74.244-97.044-11.605-4.682-23.547-7.053-35.492-7.053-56.143 0-96.791 49.813-106.533 96.681-13.684 65.825 18.473 134.763 76.455 163.921.273.137.547.266.824.389 13.289 5.926 26.301 9.449 38.789 10.51 12.666 41.79 19.811 86.671 21.301 133.716-28.721-19.746-59.209-38.401-91.025-55.69 3.318-30.274-6.393-62.607-27.311-89.146-32.744-41.539-80.594-66.338-127.992-66.338-21.322 0-41.996 4.859-61.449 14.443-.334.164-.662.338-.986.521-30.48 17.238-50.762 44.553-57.109 76.906-6.473 32.995 2.283 66.761 24.652 95.081 30.4 38.483 82.184 63.351 131.926 63.353zm338.515 174.691c4.09 5.063 8.117 10.223 12.096 15.492-20.559-20.273-49.971-33.775-79.32-37.645-6.156-.813-12.287-1.225-18.225-1.225-27.588 0-51.252 8.838-68.707 24.664 3.664-7.188 6.656-14.82 8.852-22.883.295-1.076.568-2.156.826-3.238 26.711-6.615 56.326-11.963 91.918-16.629 1.342-.166 2.662-.248 3.926-.248 15.082 0 25.705 12.285 41.41 32.523 2.41 3.109 4.806 6.199 7.224 9.189zm32.627 44.356c5.535 8.244 10.986 16.758 16.383 25.578-3.346-.842-6.619-1.793-9.809-2.852-1.064-7.97-3.322-15.57-6.574-22.726zm-92.418-448.358c.084.43.18.854.293 1.277 3.516 13.305 8.912 24.827 16.111 34.438-10.297 15.1-21.564 28.949-33.658 41.376-3.342-13.771-7.139-26.979-11.457-39.847 11.707-9.842 21.334-23.053 28.449-38.632.085.466.173.927.262 1.388z" fill="#ffffff" data-original="#ffffff"/><g><g><path d="m493.347 534.387c67.607 37.195 130.945 82.861 188.252 135.72.646.604 1.391 1.262 2.191 1.971 5.184 4.586 13.02 11.518 9.875 17.953-2.389 4.891-9.709 5.367-15.594 5.75-1.055.068-2.049.135-2.955.219-32.088 3.305-64.645 8.842-96.766 16.463-.348.084-.646.307-.826.615s-.225.678-.125 1.021c1.117 3.818 1.826 7.77 2.115 11.744.027.387.227.74.543.969.223.16.488.242.758.242.113 0 .225-.016.336-.045 30.242-8.051 64.109-14.393 106.572-19.961 2.543-.313 5.059-.473 7.475-.473 26.912 0 42.631 19.617 59.27 40.387l3.652 4.551c25.107 31.08 47.443 63.352 66.381 95.908.514.898 1.094 1.863 1.705 2.883 3.84 6.393 9.1 15.15 5.943 21.773-1.781 3.734-5.912 5.549-12.629 5.549-2.9 0-5.781-.316-8.322-.598l-1.564-.17c-17.127-2.029-32.631-5.943-47.398-11.973-.156-.064-.326-.1-.492-.1-.221 0-.439.057-.637.168-.348.195-.586.535-.652.928-.748 4.563-1.883 8.961-3.375 13.074-.121.34-.098.713.064 1.033.164.322.451.563.797.664 20.221 5.93 41.43 9.078 63.061 9.357l1.986-.008c8.281 0 15.67.412 22.246 5.477 6.959 5.355 10.426 13.752 13.779 21.871l.799 1.936c12.398 30.424 22.371 61.797 29.656 93.301.586 2.109 2.602 3.271 5.676 3.271 1.186 0 2.492-.18 3.586-.494 5.244-1.512 5.686-3.951 4.664-8.221-16.633-67.154-44.102-132.072-81.641-192.947-13.82-22.41-11.207-42.387-7.898-67.678 2.756-21.1 5.883-45.014 12.439-67.115.107-.365.051-.758-.156-1.078-.203-.318-.537-.533-.914-.586-3.221-.455-6.488-1.158-9.711-2.088-.119-.033-.24-.051-.361-.051-.219 0-.436.055-.631.164-.305.168-.527.449-.623.781-5.262 18.32-9.418 38.646-12.711 62.162-.111.914-.209 1.902-.313 2.941-.668 6.752-1.496 15.154-7.391 17.73-1.096.48-2.221.723-3.348.723-3.846.002-7.902-2.703-12.393-8.26-29.166-36.512-61.348-66.857-95.42-98.986-7.135-6.727-14.299-13.482-21.459-20.322-8.84-8.443-8.479-16.924-7.977-28.662l.148-3.761c.795-23.256.029-47.306-2.338-73.511-.855-10.108 2.281-17.662 9.584-23.09 33.688-24.749 59.729-60.177 78.652-88.275.213-.315.277-.709.174-1.078-.102-.366-.357-.672-.703-.834-2.408-1.129-4.52-2.26-6.449-3.456-.215-.133-.453-.198-.686-.198-.438 0-.865.219-1.111.617-17.324 27.813-37.488 52.094-59.922 72.164-.572.501-1.223 1.104-1.932 1.762-3.816 3.543-9.584 8.893-14.43 8.893-.781 0-1.49-.138-2.17-.419-5.73-2.372-7.018-9.329-8.154-15.466l-.328-1.752c-5.105-25.207-11.594-48.304-19.834-70.608-.195-.526-.695-.854-1.225-.854-.148 0-.297.027-.445.078-2.094.758-4.291 1.415-6.531 1.95-.355.085-.66.317-.838.636-.178.322-.211.702-.098 1.049 17.43 52.129 26.705 111.578 26.83 171.917-.01 1.043.01 2.199.031 3.43.121 6.819.283 16.158-4.398 20.367-1.658 1.49-3.428 2.213-5.41 2.213-4.244 0-8.822-3.373-12.725-6.25-37.053-26.973-77.592-52.144-120.494-74.817-.188-.101-.396-.153-.609-.153-.152 0-.303.027-.449.081-.346.128-.625.396-.762.739-.955 2.387-2.117 4.873-3.443 7.39-.33.629-.095 1.409.526 1.753z" fill="#d7bd8c" data-original="#d7bd8c"/><path d="m494.702 664.926c-4.877-.463-9.947-.695-15.066-.695-53.301 0-111.857 23.637-122.529 76.441-4.559 22.555.193 43.229 13.738 59.789 16.078 19.652 42.992 31.387 71.998 31.389h.002c7.311 0 14.598-.766 21.662-2.271 22.602-4.82 97.121-25.318 107.092-86.672 2.762-16.992-.447-31.891-9.537-44.285-17.071-23.284-49.491-31.101-67.36-33.696zm-102.781 105.689c-1.02 2.635-2.852 4.527-5.439 5.631-.816.348-1.619.521-2.391.521-5.422 0-9.334-8.732-10.777-13.852-1.486-6.033-.748-13.459 4.246-16.455 1.164-.697 2.365-1.053 3.566-1.053 3.898 0 7.311 3.639 8.961 7.244 2.197 4.796 3.996 12.38 1.834 17.964zm270.174 9.242c-1.494-.059-2.973-.09-4.436-.09-39.166 0-64.783 20.564-72.15 58.025-2.004 19.65 3.658 37.482 16.377 51.568 16.855 18.662 46.211 30.258 76.609 30.26h.012c26.539 0 49.521-8.631 63.051-23.674 10.609-11.801 15.035-26.732 13.152-44.381-4.732-44.377-51.25-70.065-92.615-71.708zm-44.051 50.237c-1.465 4.387-5.789 12.684-11.66 12.684-.744 0-1.508-.135-2.268-.4-2.096-.73-3.484-1.969-4.242-3.783-1.988-4.756.988-11.719 1.93-13.701 1.84-3.572 5.65-7.416 9.664-7.416.76 0 1.518.139 2.25.414 5.136 1.913 5.845 7.669 4.326 12.202zm159.644-325.3c-25.805 46.271-25.441 97.417 1.012 136.868 14.834 19.857 34.322 30.355 56.354 30.357h.004c30.408 0 60.551-20.307 76.795-51.729 21.994-42.542 24.766-119.034-20.686-146.968-12.666-7.784-27.018-11.899-41.506-11.899-29.473 0-57.053 16.619-71.973 43.371zm83.547-30.078c5.951 0 11.283 1.559 15.021 4.391 2.59 1.961 3.744 4.834 3.168 7.883-.674 3.574-3.477 6.551-7.139 7.583-1.914.542-4.119.827-6.385.827-6.166 0-12.207-2.064-15.766-5.383-2.652-2.48-3.805-5.275-3.238-7.873.621-2.849 3.293-5.318 7.043-6.572 2.273-.561 4.796-.856 7.296-.856zm-104.31-64.135h.004c5.604 0 11.395-1.179 17.211-3.503 21.146-8.451 40.16-24.443 53.539-45.029 10.977-16.891 44.592-75.243 16.252-116.918-12.982-19.091-31.9-29.604-53.273-29.604-21.043 0-41.379 10.441-55.789 28.646-25.336 31.998-34.324 75.242-25.291 121.848 5.857 22.179 22.771 44.557 47.347 44.56zm40.183-174.004c1.113-2.673 3.434-3.974 7.1-3.974 4.959 0 10.619 2.416 12.785 3.436 5.717 2.926 11.055 8.664 10.092 14.889-.734 4.768-4.93 5.768-8.318 5.768-1.922 0-4.021-.346-5.91-.978-6.068-2.024-13.26-6.417-15.652-11.671-1.11-2.438-1.142-4.952-.097-7.47zm-231.802 156.592c13.086 5.835 26.047 8.918 37.484 8.92h.004c15.025 0 27.59-5.117 37.34-15.209 18.047-18.676 24.883-43.512 27.439-61.059 7.035-48.261-5.725-128.727-69.9-139.197-4.563-.744-9.139-1.121-13.604-1.121-50.348 0-81.896 46.234-83.309 90.936-1.618 51.17 23.093 95.89 64.546 116.73zm-4.7-186.183c1.41-6.433 11.49-9.496 17.873-9.983l.988-.021c5.922 0 13.043 2.101 13.615 8.021.766 7.941-11.332 9.918-12.715 10.117-1.836.265-3.625.4-5.311.4-4.102 0-7.582-.781-10.346-2.321-1.818-1.014-4.77-3.168-4.104-6.213zm-154.443 367.441h.002c19.707 0 36.943-4.921 51.223-14.623 22.092-15.013 35.035-35.352 37.43-58.818 2.709-26.545-8.563-54.98-30.922-78.013-27.631-28.464-62.99-44.786-97.018-44.786-16.824 0-33.186 3.855-48.691 11.499-25.252 14.284-41.021 36.959-44.404 63.851-3.576 28.416 7.336 57.164 29.939 78.869 26.172 25.134 67.341 42.021 102.441 42.021zm-111.172-135.783c-2.807-4.439-.684-10.727 6.283-18.664 2.502-2.691 6.355-5.9 10.494-5.9v-1.307l.217 1.309c2.398.065 5.639 1.162 6.881 4.039 3.586 8.289-4.287 16.557-9.504 20.137-2.24 1.535-5.777 3.178-8.984 3.178-2.402-.001-4.215-.941-5.387-2.792z" fill="#ff821d" data-original="#ff821d"/><path d="m387.593 752.203c3.668 5.994 5.813 16.686-.902 21.689-.799.596-1.65.896-2.529.896-5.264 0-8.574-11.154-8.934-12.428-.805-3.279-1.555-9.314 2.361-13.383 1.037-1.076 2.211-1.623 3.49-1.623 3.293.001 5.818 3.712 6.514 4.849zm224.261 67.393c-3.373 0-6.199 2.162-8.414 6.463-1.295 2.723-2.547 5.633-2.393 8.607.135 2.547 1.775 6.131 5.01 6.133.033 0 .295-.012.328-.014 5.881-.453 9.426-8.973 10.141-12.787.373-1.996.311-4.971-1.104-6.781-.763-.977-1.843-1.533-3.568-1.621zm246.375-327.54c2.176.621 5.436 1.443 8.598 1.443 1.916 0 3.629-.303 5.088-.901 5.098-2.096 5.928-4.832 5.727-6.759-.447-4.305-6.283-7.631-10.32-8.375-2.457-.451-4.686-.672-6.811-.672-2.117 0-4.125.229-6.072.711-4.709 1.571-5.652 4.009-5.613 5.776.085 3.793 4.946 7.51 9.403 8.777zm-42.974-237.744c.865.189 2.197.416 3.619.416 2.357 0 4.105-.611 5.191-1.822.914-1.018 1.289-2.376 1.111-4.035-.654-6.121-6.736-9.858-9.357-11.199-.277-.13-6.787-3.172-11.654-3.172-4.313 0-5.33 2.438-5.551 3.89-1.314 8.654 9.508 14.36 16.641 15.922zm-244.844-41.225c1.738.297 3.518.447 5.289.447 2.328 0 4.559-.258 6.627-.767 1.961-.483 6.693-1.921 8.295-4.849.623-1.143.725-2.414.293-3.676-.82-2.406-3.42-5.273-11.154-5.273-.492 0-.959.012-1.434.031-3.373.259-6.654 1.158-9.807 2.764-2.121 1.074-5.324 2.699-5.918 5.408-.184.83-.014 1.662.486 2.406 1.71 2.533 7.097 3.47 7.323 3.509zm-252.947 206.821c-.873-2.491-2.645-3.863-4.992-3.863-3.809 0-8.111 3.542-9.879 5.441-2.451 2.791-4.875 5.863-6.018 9.409-.486 1.509-1.396 4.319-.01 6.513.881 1.394 2.299 2.129 4.107 2.129 3.158 0 6.623-2.267 7.283-2.721 5.739-3.938 11.673-10.729 9.509-16.908z" fill="#ad8353" data-original="#ad8353"/><g fill="#f26200"><path d="m754.71 851.566c-1.643-15.4-8.391-28.488-18.133-39.164.139 2.711.447 5.436.514 8.063.176 6.734-.67 13.373-2.391 19.883-3.322 12.576-10.07 24-19.727 32.746-11.453 10.373-26.721 15.074-41.666 17.633-16.336 2.797-33.359 3.467-49.906 3.482-5.748.004-11.521-.164-17.271-.582 17.275 16.137 44.365 25.992 72.365 25.994h.012c26.539 0 49.521-8.631 63.051-23.674 10.609-11.801 15.035-26.732 13.152-44.381z" fill="#f26200" data-original="#f26200"/><path d="m571.599 742.906c1.012-6.232 1.205-12.174.617-17.82-1.117 1.311-2.232 2.621-3.389 3.896-24.711 27.17-58.896 45.75-93.295 57.668-20.779 7.197-42.514 11.945-64.568 12.107-10.662.078-21.367-.656-31.803-2.896-4.789-1.027-9.449-2.441-14.133-3.826 1.732 2.898 3.615 5.734 5.816 8.426 16.078 19.652 42.992 31.387 71.998 31.389h.002c7.311 0 14.598-.766 21.662-2.271 22.602-4.821 97.122-25.319 107.093-86.673z" fill="#f26200" data-original="#f26200"/><path d="m927.218 555.055c-.713 3.045-1.311 6.018-2.033 8.432-2.713 9.09-6.201 17.943-10.451 26.422-8.416 16.796-19.822 31.703-34.27 43.75-14.285 11.914-31.609 19.939-49.805 23.625-9.15 1.855-18.543 2.365-27.85 1.691-2.549-.186-5.152-.469-7.777-.73 11.807 9 25.328 13.773 40.021 13.775h.004c6.965 0 13.91-1.113 20.682-3.135 3.695-1.414 7.338-2.982 10.912-4.723 7.328-3.57 14.213-7.871 20.643-12.754 9.754-8.33 18.223-18.863 24.559-31.117 9.209-17.814 15.025-41.576 15.365-65.236z" fill="#f26200" data-original="#f26200"/><path d="m710.192 368.105c6.342 21.473 22.928 42.473 46.732 42.476h.004c5.604 0 11.395-1.179 17.211-3.503 21.146-8.451 40.16-24.443 53.539-45.029 1.77-2.727 4.133-6.542 6.729-11.179-3.904 3.778-7.939 7.438-12.223 10.765-11.416 8.871-24.42 16.147-38.008 21.088-13.818 5.023-30.467 10.236-45.012 5.628-11.218-3.557-20.343-12.119-28.972-20.246z" fill="#f26200" data-original="#f26200"/><path d="m303.722 532.406c26.172 25.134 67.342 42.021 102.441 42.021h.002c19.707 0 36.943-4.921 51.223-14.623 7.303-4.963 13.502-10.558 18.756-16.604-5.869 2.758-11.898 5.143-18.1 7.117-17.744 5.643-36.27 8.057-54.867 7.055-35.367-1.905-69.266-17.763-94.832-42.053-7.031-6.681-13.49-13.872-19.381-21.573-2.561-3.349-8.738-14.768-14.715-15.885 3.207 19.978 13.346 39.056 29.473 54.545z" fill="#f26200" data-original="#f26200"/><path d="m565.306 393.169c13.086 5.835 26.047 8.918 37.484 8.92h.004c15.025 0 27.59-5.117 37.34-15.209 7.639-7.904 13.252-16.915 17.4-26.006-1.814 1.768-3.58 3.582-5.445 5.322-5.24 4.893-11.189 8.882-17.561 12.158-12.475 6.411-26.635 9.348-40.623 8.623-15.408-.798-29.535-7.154-41.938-16.08-6.936-4.994-13.119-10.984-19.096-17.064-5.951-6.056-10.98-13.297-19.57-15.154-.078-.016-.148.012-.227 0 11.029 23.618 28.995 42.809 52.232 54.49z" fill="#f26200" data-original="#f26200"/></g><g fill="#fdce1a"><path d="m451.452 468.708c1.576 1.358 4.781.639 4.545-1.883-4.295-45.805-78.998-89.82-119.91-61.631-.82.564-.717 1.793.275 2.105 21.443 6.734 42.816 8.678 63.145 19.329 19.668 10.309 35.256 27.709 51.945 42.08z" fill="#fdce1a" data-original="#fdce1a"/><path d="m640.698 316.232c.387 1.544 2.756 2.402 3.848 1.016 22.855-29.051 10.104-96.551-29.816-106.775-.621-.16-1.08.387-.973.974 3.131 17.283 14.881 32.567 19.801 49.642 5.183 17.99 2.55 36.895 7.14 55.143z" fill="#fdce1a" data-original="#fdce1a"/><path d="m641.546 325.822c-.299-.441-.982-.76-1.475-.387-.832.629-1.596.735-2.254 1.628-.809 1.093-1.648 2.128-2.26 3.344-1.369 2.714-1.996 5.919-1.348 8.878.889 4.043 6.463 4.362 8.447 1.104 1.574-2.586 1.758-5.92 1.357-8.875-.178-1.311-.623-2.519-1.023-3.773-.294-.923-.95-1.195-1.444-1.919z" fill="#fdce1a" data-original="#fdce1a"/><path d="m774.937 236.539c-19.953.139-33.807 23.463-40.572 39.631-6.824 16.307-15.26 47.449-1.07 61.902.941.963 2.51.925 3.457 0 11.238-10.93 10.705-31.755 14.012-46.256 4.678-20.502 18.307-35.303 24.936-54.274.17-.491-.275-1.007-.763-1.003z" fill="#fdce1a" data-original="#fdce1a"/><path d="m824.462 489.302c-39.355 14.722-65.453 86.534-36.008 119.049 1.408 1.555 3.701.57 4.33-1.145 7.354-20.009 3.934-40.458 8.885-61.156 4.799-20.063 18.322-35.849 24.475-55.067.3-.939-.707-2.046-1.682-1.681z" fill="#fdce1a" data-original="#fdce1a"/><path d="m441.94 676.666c-19.557 4.316-51.568 17.482-58.656 37.811-.264.754.539 1.412 1.24 1.238 21.268-5.244 42.021-12.527 63.402-17.334 25.205-5.668 50.525.066 75.885-4.375 1.689-.295 2.371-2.877 1.049-3.969-24.49-20.185-52.654-20.045-82.92-13.371z" fill="#fdce1a" data-original="#fdce1a"/><path d="m612.222 807.619c-.467.457-.42 1.395.217 1.693 10.539 4.977 23.299 4.156 34.74 4.242 14.174.105 26.369 4.416 40.1-.65 1.705-.627 2.17-2.457 1.018-3.848-15.497-18.677-59.025-18.226-76.075-1.437z" fill="#fdce1a" data-original="#fdce1a"/><path d="m705.372 809.064c-3.279-1.086-6.121-.453-8.76 1.658-1.107.889-1.355 2.643-1.037 3.932.695 2.814 2.461 4.6 4.879 6.07 3.598 2.195 9.199 1.582 10.479-3.07 1.138-4.142-1.889-7.375-5.561-8.59z" fill="#fdce1a" data-original="#fdce1a"/></g><g fill="#ad8353"><path d="m508.454 530.169c-3.449-1.871-6.887-3.754-10.367-5.593-.188-.101-.396-.153-.609-.153-.152 0-.303.027-.449.081-.346.128-.625.396-.762.739-.955 2.387-2.117 4.873-3.443 7.39-.332.63-.098 1.41.523 1.754 3.682 2.023 7.297 4.172 10.955 6.247.734-1.574 1.449-3.192 2.145-4.864.749-1.803 1.404-3.683 2.007-5.601z" fill="#ad8353" data-original="#ad8353"/><path d="m724.079 419.701c2.16 2.53 4.479 4.902 6.912 7.098 2.768-3.951 5.428-7.828 7.943-11.563.213-.315.277-.709.174-1.078-.102-.366-.357-.672-.703-.834-2.408-1.129-4.52-2.26-6.449-3.456-.215-.133-.453-.198-.686-.198-.438 0-.865.219-1.111.617-1.986 3.187-4.021 6.318-6.08 9.414z" fill="#ad8353" data-original="#ad8353"/><path d="m592.987 723.994c-2.199-4.518-4.814-8.893-7.775-13.041-2.285.518-4.58.969-6.861 1.51-.348.084-.646.307-.826.615s-.225.678-.125 1.021c1.117 3.818 1.826 7.77 2.115 11.744.027.387.227.74.543.969.223.16.488.242.758.242.113 0 .225-.016.336-.045 3.88-1.03 7.824-2.034 11.835-3.015z" fill="#ad8353" data-original="#ad8353"/><path d="m825.224 677.74c-3.221-.455-6.488-1.158-9.711-2.088-.119-.033-.24-.051-.361-.051-.219 0-.436.055-.631.164-.305.168-.527.449-.623.781-.861 2.998-1.684 6.072-2.486 9.182 3.578 2.656 7.375 5.084 11.334 7.266 1.07-4.576 2.225-9.125 3.549-13.59.107-.365.051-.758-.156-1.078-.204-.318-.538-.533-.915-.586z" fill="#ad8353" data-original="#ad8353"/><path d="m762.235 864.887c-.156-.064-.326-.1-.492-.1-.221 0-.439.057-.637.168-.348.195-.586.535-.652.928-.748 4.563-1.883 8.961-3.375 13.074-.121.34-.098.713.064 1.033.164.322.451.563.797.664 6.162 1.809 12.422 3.324 18.752 4.609.82-4.91 1.4-9.867 1.723-14.814-5.498-1.623-10.91-3.41-16.18-5.562z" fill="#ad8353" data-original="#ad8353"/><path d="m622.165 404.005c-.148 0-.297.027-.445.078-2.094.758-4.291 1.415-6.531 1.95-.355.085-.66.317-.838.636-.178.322-.211.702-.098 1.049 1.285 3.838 2.43 7.791 3.623 11.707 3.266-.711 6.475-1.658 9.574-2.852-1.326-3.92-2.633-7.848-4.061-11.714-.195-.526-.695-.854-1.224-.854z" fill="#ad8353" data-original="#ad8353"/></g></g><g fill="#68182b"><path d="m847.411 842.109c-6.977-12.76-14.646-25.113-22.275-37.484-8.531-13.836-6.512-28.408-5.025-43.777 2.613-27.027 6.33-55.031 14.309-81.094 26.498.33 53.371-13.463 72.947-38.227 34.848-44.081 38.719-120.205 1.047-163.827-33.779-39.117-97.766-27.843-127.752 8.734-36.086 44.02-40.463 111.972-8.865 159.096 10.119 13.547 21.998 22.807 34.654 28.26-6 20.727-9.984 41.955-12.953 63.314-.025.182.035.326.029.5-.059.246-.16.471-.193.725-.432 3.248-.721 6.529-1.439 9.732-.248 1.105-.883 3.551-1.631 4.104-.059.043-.068.047-.113.076-.529-.125-.963-.355-1.482-.658-2.172-1.275-3.877-3.514-5.434-5.438-28.572-35.771-60.008-68.82-93.98-99.502-7.447-6.723-15.102-13.217-22.779-19.678-9.512-8.002-5.699-21.953-5.328-32.796.766-22.507-.514-45.055-2.537-67.46-.535-6.323.117-12.262 5.551-16.301 33.371-24.518 59.703-58.51 82.613-92.676 21.918 4.998 45.457-9.281 61.559-22.251 37.256-30.009 68.51-96.083 47.936-143.179-19.861-45.453-70.428-57.919-110.156-29.734-44.803 31.787-53.846 95.532-44.154 145.564 4.012 15.186 10.939 27.979 21.875 37.373-16.412 26.484-35.988 50.606-59.246 71.411-2.461 2.163-7.332 7.308-10.594 7.97.256-.248-.486-.851-.842-1.836-1.131-3.139-1.691-6.508-2.324-9.771-4.906-24.226-11.414-47.942-20.023-71.119-.084-.225-.24-.359-.346-.561 65.719-35.42 63.965-185.762-19.824-219.566-54.914-22.152-104.992 24.779-115.527 75.453-11.555 55.582 15.025 116.768 66.08 142.441 16.801 7.49 31.855 10.078 45.129 8.871 18.398 54.643 26.746 113.28 26.863 170.844-.041 5.327.721 12.186-1.498 17.225-.59 1.343-.049 1.127-1.367.765-2.861-.783-5.527-3.425-7.85-5.136-38.859-28.286-79.529-53.263-122.029-75.627 7.781-28.773-.35-61.547-20.844-87.547-39.496-50.104-105.684-75.879-165.41-46.453-53.406 30.209-64.93 94.448-26.732 142.806 38.531 48.777 118.006 73.94 173.855 41.002 11.947-7.045 21.158-15.776 27.895-25.559 67.529 37.142 130.123 82.285 186.781 134.546 2.717 2.535 5.482 5.031 8.008 7.758.861.932 1.549 1.941 2.18 3.031-.736.186-2.092.605-2.693.729-2.691.557-5.496.643-8.223.906-33.641 3.461-67.004 9.113-99.896 16.953-13.115-27.371-47.014-43.342-79.25-47.838-.207-.029-.373.037-.572.033-.227-.055-.404-.174-.652-.197-61.371-5.945-133.279 21.596-146.617 87.58-11.969 59.229 46.117 95.986 98.234 95.119 54.709-.91 116.836-35.572 131.832-90.625 1.309-4.799 2.086-9.404 2.436-13.834 34.977-9.486 70.895-15.609 106.803-20.318 33.748-4.162 51.355 25.281 70.189 48.594 22.309 27.617 42.09 57.199 59.928 87.867 2.369 4.148 8.523 11.906 7.42 17.09-.572 2.689-14.086.592-15.623.432-16.088-1.904-31.861-5.818-46.73-12.307 0-.043.006-.086.008-.129 2.371-47.449-49.021-77.982-90.018-83.389-46.73-6.162-85.66 14.643-94.91 62.781-.047.248.02.453.006.691-.043.189-.146.328-.17.531-10.486 93.33 139.51 121.598 176.877 50.775.021.006.035.023.057.031 21.629 6.475 43.83 9.693 66.395 9.984 6.902-.033 13.223-.404 19.195 3.563 6.279 4.172 9.221 13.211 11.951 19.762 12.383 30.391 22.309 61.469 29.703 93.443 2.25 8.088 10.965 9.879 18.248 8.482 3.434-.662 6.982-2.566 9.223-5.268 3.303-3.973 2.822-8.174 1.693-12.887-14.128-57.013-35.437-111.368-63.603-162.898zm-277.101-99.412c-8.148 50.148-61.73 76.146-106.076 85.604-55.898 11.926-118.523-24.654-105.848-87.369 11.852-58.652 84.324-79.623 136.191-74.705 41.26 5.994 83.555 28.328 75.733 76.47zm16.5 95.229c7.721-39.242 36.039-58.316 75.232-56.764 40.357 1.602 86.742 27.137 91.371 70.543 10.25 96.158-176.715 85.287-166.603-13.779zm192.937-197.045c-27.744-41.378-24.609-92.97-.918-135.45 22.236-39.871 71.836-55.47 111.654-30.995 44.975 27.643 41.232 104.592 20.209 145.253-26.656 51.565-92.138 73.137-130.945 21.192zm-68.908-275.192c-8.164-42.134-2.117-86.391 25.051-120.707 28.855-36.448 79.908-38.902 106.961.882 23.551 34.634 3.883 84.466-16.268 115.474-12.646 19.459-31.35 35.904-52.926 44.527-31.64 12.644-55.351-11.908-62.818-40.176zm-145.004 26.289c-43.619-21.934-65.275-67.838-63.77-115.498 1.623-51.344 40.926-97.455 95.398-88.566 61.693 10.064 76.283 86.506 68.82 137.719-3.217 22.061-11.426 44.133-27.088 60.342-20.077 20.776-49.399 16.684-73.36 6.003zm-109.182 166.747c-45.465 30.895-115.809 7.521-152.027-27.261-44.334-42.574-40.053-109.953 14.203-140.643 51.029-25.141 106.258-5.953 144.127 33.06 39.922 41.122 44.715 100.176-6.303 134.844zm441.715 455.384c-2.23.643-6.848.988-7.643-1.873-7.395-31.975-17.322-63.055-29.703-93.443-3.664-8.789-7.188-18.34-14.992-24.348-7.463-5.746-16.016-5.783-25.037-5.74-21.334-.275-42.227-3.305-62.686-9.303 1.504-4.154 2.66-8.588 3.436-13.309 15.35 6.268 31.219 10.105 47.736 12.063 7.197.746 19.881 2.801 23.848-5.516 3.979-8.344-3.779-19.018-7.691-25.867-19.658-33.793-41.941-65.678-66.498-96.08-19.855-24.58-37.084-49.195-71.572-44.939-35.879 4.703-71.752 10.678-106.75 19.994-.303-4.195-1.047-8.195-2.162-12.014 31.816-7.549 64.063-13.086 96.596-16.434 6.008-.58 16.398-.162 19.59-6.697 4.09-8.375-7.254-16.695-12.35-21.449-57.18-52.742-120.357-98.413-188.512-135.912 1.297-2.458 2.479-4.96 3.5-7.513 41.885 22.136 81.996 46.811 120.334 74.719 5.691 4.194 13.197 9.868 19.777 3.956 6-5.394 4.744-17.675 4.797-24.76-.115-57.938-8.49-117.297-26.893-172.34 2.283-.547 4.51-1.209 6.672-1.992 8.48 22.957 14.922 46.433 19.779 70.414 1.271 6.568 2.279 15.273 9.262 18.165 6.828 2.831 15.592-6.681 19.891-10.46 23.584-21.096 43.473-45.645 60.17-72.455 2.07 1.284 4.275 2.449 6.584 3.531-21.73 32.268-46.787 64.77-78.342 87.951-8.127 6.043-10.951 14.307-10.111 24.252 2.207 24.43 3.172 48.837 2.334 73.356-.455 13.441-2.012 23.628 8.23 33.412 40.674 38.854 81.432 74.953 116.76 119.18 4.068 5.033 10.316 10.967 17.285 7.92 7.578-3.314 7.625-14.738 8.477-21.711 2.924-20.896 6.84-41.666 12.668-61.959 3.268.941 6.566 1.654 9.891 2.125-6.486 21.863-9.535 44.764-12.482 67.318-3.393 25.932-5.877 45.895 8.084 68.531 36.977 59.963 64.533 124.145 81.482 192.576.958 4.011.454 5.438-3.759 6.651z" fill="#68182b" data-original="#68182b"/><path d="m376.89 745.342c-5.908 3.541-6.301 11.971-4.844 17.887 1.654 5.867 6.787 17.693 14.947 14.219 9.885-4.209 7.795-17.668 4.281-25.34-2.511-5.483-8.369-10.372-14.384-6.766zm9.021 27.502c-4.648 3.463-8.66-8.129-9.426-10.838-.992-4.037-1.029-8.93 2.043-12.123 2.98-3.094 6.332.355 7.951 3.002 3.387 5.535 5.5 15.437-.568 19.959z" fill="#68182b" data-original="#68182b"/><path d="m614.175 816.666c-5.707-2.129-11.16 3.025-13.533 7.627-2.844 5.988-5.463 16.352 3.045 19.316 7.844 2.734 13.568-7.033 15.598-13.102 1.782-5.331.591-11.714-5.11-13.841zm1.068 11.09c-.752 4.012-4.209 11.361-8.959 11.729-2.521.195-3.826-2.881-3.934-4.887-.141-2.729 1.127-5.58 2.268-7.979 1.535-2.98 3.951-5.92 7.609-5.707 3.28.192 3.45 4.537 3.016 6.844z" fill="#68182b" data-original="#68182b"/><path d="m872.642 495.83c7.969-2.248 11.51-12.379 4.404-17.764-6.246-4.732-15.971-5.596-23.418-3.763-8.279 2.761-11.205 10.296-4.383 16.667 5.715 5.334 16.067 6.93 23.397 4.86zm-17.789-17.088c3.99-.98 8.223-.732 12.232.008 6.254 1.152 14.855 8.316 4.332 12.641-3.885 1.598-8.984.506-12.83-.588-6.141-1.751-13.443-8.821-3.734-12.061z" fill="#68182b" data-original="#68182b"/><path d="m812.442 256.957c5.793 1.934 14.756 1.806 15.934-5.828 1.098-7.102-5.002-13.29-10.789-16.252-5.676-2.676-18.252-7.049-21.684 1.199-4.334 10.424 8.575 18.222 16.539 20.881zm-12.537-18.372c.873-5.734 12.609-1.028 15.357.268 3.9 1.996 8.115 5.471 8.615 10.156.527 4.912-4.955 4.77-8.344 4.027-6.268-1.372-16.835-6.509-15.628-14.451z" fill="#68182b" data-original="#68182b"/><path d="m578.425 195.699c-6.43.49-17.459 3.564-19.092 11.01-.77 3.498 1.975 6.088 4.744 7.631 4.879 2.721 11.088 2.852 16.479 2.074 5.869-.846 14.541-4.123 13.826-11.536-.721-7.491-9.865-9.433-15.957-9.179zm3.59 15.801c-3.643.897-7.697.932-11.383.301-1.711-.289-7.328-1.732-6.756-4.348.49-2.233 3.764-3.77 5.561-4.688 2.75-1.402 5.922-2.228 8.988-2.461 3.596-.151 9.82.154 11.256 4.359 1.382 4.048-4.959 6.17-7.666 6.837z" fill="#68182b" data-original="#68182b"/><path d="m312.022 412.777c-4.605-.123-8.752 3.14-11.705 6.314-4.283 4.88-10.693 13.506-6.432 20.25 3.674 5.806 11.748 3.056 16.213-.008 6.65-4.563 13.596-13.336 9.967-21.73-1.359-3.148-4.791-4.738-8.043-4.826zm-4.802 22.962c-2.229 1.528-7.514 4.194-9.551.972-.998-1.579-.373-3.801.148-5.415 1.084-3.357 3.469-6.341 5.756-8.948 2.68-2.877 10.396-8.465 12.658-2.008 2.075 5.918-4.712 12.449-9.011 15.399z" fill="#68182b" data-original="#68182b"/><path d="m885.364 641.824c17.375-14.707 28.52-37.684 30.721-60.251.035-.357-.502-.395-.6-.08-7.01 22.035-17.082 41.224-30.969 59.677-.394.521.411 1.023.848.654z" fill="#68182b" data-original="#68182b"/><path d="m877.173 648.734c-.188.297.115.623.426.555 2.111-.461 4.307-1.996 4.162-4.395-.008-.139-.145-.283-.297-.225-1.906.72-3.238 2.388-4.291 4.065z" fill="#68182b" data-original="#68182b"/><path d="m790.907 381.267c25.586-15.994 45.963-45.918 49.887-76.01.035-.271-.383-.301-.459-.063-9.508 29.607-26.656 54.863-49.996 75.337-.402.353.119 1.015.568.736z" fill="#68182b" data-original="#68182b"/><path d="m780.423 390.105c3.145-.824 4.658-1.939 5.902-4.95.078-.187-.15-.396-.332-.333-1.17.418-2.305.673-3.414 1.279-1.299.711-1.977 2.133-2.645 3.369-.177.332.116.733.489.635z" fill="#68182b" data-original="#68182b"/><path d="m512.347 300.957c-.088-.331-.613-.268-.6.08 1.059 28.329 20.695 60.638 44.164 76.068.531.348 1.059-.412.656-.848-20.826-22.475-36.296-45.412-44.22-75.3z" fill="#68182b" data-original="#68182b"/><path d="m559.64 378.671c-.248.021-.336.273-.189.461 1.404 1.809 3.371 3.129 5.465 3.994.332.137.518-.281.408-.528-.983-2.204-3.134-4.124-5.684-3.927z" fill="#68182b" data-original="#68182b"/><path d="m426.142 559.262c-35.988-.271-74.486-4.947-103.033-28.931-.283-.241-.646.121-.404.404 22.287 26.559 70.775 37.182 103.586 29.622.624-.144.472-1.091-.149-1.095z" fill="#68182b" data-original="#68182b"/><path d="m458.05 431.828c-.229-.159-.498.148-.371.371 3.771 6.449 8.9 11.988 13.02 18.221 5.109 7.729 8.439 16.647 11.063 25.482.107.364.684.304.672-.09-.49-16.424-10.898-34.58-24.384-43.984z" fill="#68182b" data-original="#68182b"/><path d="m475.595 676.754c-17.502-.865-38.682-.545-53.453 10.172-.186.133-.082.488.164.395 17.377-6.668 35.33-6.6 53.391-9.824.437-.079.302-.722-.102-.743z" fill="#68182b" data-original="#68182b"/><path d="m535.636 784.998c-25.709 17.561-52.301 28.883-82.363 36.594-.254.064-.203.469.063.457 29.865-1.164 61.061-16.424 82.803-36.4.342-.315-.113-.917-.503-.651z" fill="#68182b" data-original="#68182b"/><path d="m544.974 777.387c-2.568.773-4.625 3.244-5.877 5.549-.092.172.061.41.266.342 2.518-.834 4.777-3.113 5.957-5.441.117-.23-.075-.53-.346-.45z" fill="#68182b" data-original="#68182b"/><path d="m715.687 899.949c-13.037 3.852-25.867 7.082-39.525 7.635-14.494.59-28.063-3.615-41.609-8.141-.318-.107-.49.355-.223.527 23.873 15.031 57.563 15.031 81.787.998.546-.314.181-1.198-.43-1.019z" fill="#68182b" data-original="#68182b"/><path d="m726.081 894.699c-2.549.846-4.463 1.584-6.229 3.666-.168.199-.053.469.203.492 2.971.256 4.908-1.094 6.514-3.523.205-.313-.134-.752-.488-.635z" fill="#68182b" data-original="#68182b"/></g></g></g></g></svg>