<svg xmlns="http://www.w3.org/2000/svg" version="1.1" xmlns:xlink="http://www.w3.org/1999/xlink" xmlns:svgjs="http://svgjs.com/svgjs" width="512" height="512" x="0" y="0" viewBox="0 0 1000 1000" style="enable-background:new 0 0 512 512" xml:space="preserve"><g><g xmlns="http://www.w3.org/2000/svg"><path d="m113.196 591.768c2.949 5.898 5.673 12.02 8.556 18.5 9.206 20.693 18.725 42.092 36.957 59.391 11.936 11.33 25.565 19.377 38.749 27.162 6.707 3.963 13.044 7.705 18.897 11.721 13.147 9.025 18.146 22.463 24.475 39.475 3.618 9.73 7.36 19.793 13.026 29.973 12.945 23.252 38.031 39.102 70.637 44.629 6.124 1.039 12.651 1.545 19.957 1.545h.003c7.54 0 14.829-.527 21.879-1.039l1.89-.135c1.508-.107 2.986-.162 4.44-.162 13.701 0 25.35 4.441 42.907 11.754 14.009 5.836 29.248 8.795 45.292 8.795 34.623 0 70.133-13.973 96.393-37.268 5.932 4.365 11.814 8.836 17.587 13.223 5.797 4.404 11.595 8.811 17.447 13.125 4.759 27.896 9.777 52.799 15.294 75.902.6 2.518 1.166 5.061 1.735 7.611 4.007 17.951 8.547 38.297 24.713 54.414 8.239 8.217 22.437 13.953 34.528 13.953 10.594 0 19.721-4.184 25.704-11.773 15.448-19.613 9.701-41.65 5.896-56.234-5.271-20.227-11.747-39.725-18.01-58.58-10.784-32.473-20.972-63.146-25.151-96.455-5.151-41.094-6.883-81.344-5.168-119.969 11.581 1.701 23.247 2.561 34.884 2.561 44.763 0 85.229-12.385 117.022-35.818 14.221-10.479 22.752-24.313 30.279-36.52 5.668-9.193 11.024-17.879 18.021-23.875 20.627-17.686 40.294-35.785 54.197-62.648 12.88-24.891 16.289-52.356 17.926-75.938 2.002-28.804-6.094-53.885-13.923-78.144-2.083-6.454-4.237-13.125-6.112-19.648-3.787-13.175-2.613-27.556-1.372-42.779 1.096-13.422 2.229-27.303.328-42.079-2.88-22.407-15.799-41.306-29.331-58.391-36.739-46.388-56.54-87.992-62.319-130.938-1.441-10.71-9.308-18.897-19.559-20.751-1.885-.461-3.808-.692-5.744-.692-7.242 0-14.116 3.313-18.853 9.08-17.841 21.704-43.237 32.811-70.126 44.566-23.396 10.231-47.589 20.812-68.614 39.03-12.407 10.753-20.593 23.57-28.506 35.965-6.848 10.72-13.313 20.848-21.828 28.243-19.766 17.173-29.749 36.244-39.405 54.688-3.295 6.294-6.701 12.802-10.513 19.269-5.64 9.57-12.212 18.592-19.17 28.143-10.21 14.021-20.772 28.52-28.818 45.594-11.343 24.076-17.682 50.772-19.384 81.615-2.978 54.015 14.816 110.493 50.133 159.299-2.997-1.322-5.952-2.555-8.801-3.746-3.211-1.34-6.395-2.67-9.473-4.061-13.274-6.002-24.105-14.652-36.217-28.926-13.656-16.09-34.29-40.406-65.803-44.078-3.751-.437-7.675-.656-11.657-.656-12.772 0-24.657 2.192-36.147 4.313-10.216 1.887-19.862 3.668-29.066 3.668-2.93 0-5.635-.178-8.272-.542-4.165-.573-9.413-2.917-14.97-5.396-6.215-2.775-13.263-5.921-21.131-7.666-6.361-1.41-13.18-2.123-20.263-2.123-7.081 0-14.466.709-21.951 2.109-13.231 2.476-26.208 5.926-38.761 9.258-21.598 5.736-41.998 11.155-62.487 11.626l-.801.009c-3.483 0-7.05-.528-11.228-1.666-4.684-1.275-8.809-1.896-12.61-1.896-14.792 0-21.124 9.223-23.159 13.186-5.035 9.811-3.022 21.887 5.671 34.008 9.598 13.375 17.477 29.326 25.096 44.754 1.397 2.827 2.787 5.642 4.184 8.435zm468.969 43.714c-3.425-7.717-7.214-14.914-11.396-21.627 4.317 2.445 8.763 4.762 13.323 6.943-.751 4.87-1.39 9.766-1.927 14.684z" fill="#ffffff" data-original="#ffffff"/><g><path d="m172.187 655.457c15.999 15.182 37.192 24.545 55.249 36.941 27.281 18.727 28.586 49.221 43.53 76.064 11.585 20.811 34.384 31.049 56.801 34.85 12.903 2.188 26.103 1.072 39.053.145 20.868-1.498 37.483 5.219 56.277 13.047 44.653 18.6 101.039-.193 131.994-35.99 17.371 11.932 33.791 25.188 50.79 37.631 1.489 1.092 2.946 2.018 4.363 2.775.014.123.002.236.022.359 4.583 27.697 9.84 55.221 16.361 82.531 4.452 18.65 7.13 38.65 21.229 52.707 6.159 6.141 24.009 12.828 31.022 3.926 9.372-11.898 5.882-25.561 2.332-39.174-13.964-53.566-36.674-101.992-43.643-157.539-6.03-48.09-7.76-97.535-3.899-145.91 54.58 13.467 115.116 6.42 158.45-25.518 21.171-15.602 27.468-42.605 47.171-59.498 19.918-17.078 37.332-33.173 49.551-56.783 10.882-21.024 14.167-44.993 15.783-68.294 2.244-32.3-10.6-60.693-19.32-91.023-8.398-29.217 2.152-58.247-1.646-87.772-2.327-18.102-14.264-34.845-25.26-48.729-32.675-41.256-59.243-87.469-66.376-140.485-.371-2.757-2.174-4.031-4.228-4.164-1.763-.65-3.775-.347-5.395 1.626-37.314 45.392-98.563 49.146-141.043 85.959-20.638 17.884-29.134 45.792-50.313 64.19-23.188 20.148-30.734 43.397-45.893 69.117-14.688 24.927-34.706 45.745-47.143 72.14-11.021 23.393-16.13 48.659-17.547 74.348-2.923 53.044 16.69 106.375 47.823 148.63 18.947 25.713 46.594 45.178 77.848 57.48-10.643 50.244-6.563 106.137-2.372 157.563-9.752-6.973-20.946-12.777-30.422-18.201 10.98-33.088 5.156-72.02-8.327-103.277-9.521-22.07-22.383-40.244-41.618-54.793-11.331-8.572-25.854-13.34-38.692-19.145-17.564-7.941-30.724-19.537-43.08-34.098-13.991-16.488-30.26-34.631-53.136-37.296-29.006-3.378-56.46 10.74-85.553 6.73-12.845-1.77-24.787-10.49-37.663-13.343-11.164-2.474-23.217-1.973-34.373.114-34.793 6.515-68.771 20.395-104.403 21.213-6.256.145-11.974-.803-17.622-2.34-19.146-5.213-14.266 7.709-9.045 14.986 12.354 17.217 21.5 37.084 30.884 55.854 12.43 24.86 20.854 52.874 41.479 72.446z" fill="#68182b" data-original="#68182b"/><path d="m115.114 529.58c35.846 14.334 64.104 43.018 101.592 54.525 6.123 1.881 12.336 3.387 18.576 4.789-20.227 4.877-41.753 14.959-60.99 14.912-18.576-.047-28.545-12.752-37.195-31.73-6.632-14.545-13.495-28.961-21.983-42.496z" fill="#82e0c3" data-original="#82e0c3"/><path d="m165.261 628.389c-4.502-7.197-8.541-14.645-12.33-22.227 30.562 14.904 68.978-13.84 102.173-12.939 7.859 1.771 15.671 3.742 23.316 6.389 5.894 2.039 11.423 4.688 16.688 7.764.454.32.834.697 1.309 1.002.234.148.456.178.684.264 13.305 8.152 24.949 18.936 36.393 29.615-9.373-2.324-18.912-1.9-31.131 2.285-15.273 5.23-29.329 13.729-44.521 19.316-9.568 3.52-18.648 4.895-27.705 4.918-16.587.037-36.831-6.898-49.61-18.455-5.768-5.216-10.971-11.067-15.266-17.932z" fill="#82e0c3" data-original="#82e0c3"/><path d="m214.961 670.42c19.188 2.125 35.677-.064 56.713-8.52 12.819-5.15 24.758-12.039 37.87-16.529 16.631-5.693 28.668.564 42.369 8.322 20.152 14.545 42.207 23.262 65.735 30.482 1.135.422 2.23.85 3.438 1.262-1.45.371-2.854.82-4.166 1.404-17.022 7.555-28.329 21.785-41.592 34.313-20.146 19.023-48.195 28.613-75.512 28.996-3.666.051-6.967-.369-9.957-1.184-15.237-4.158-19.53-19.707-28.486-36.227-10.55-19.462-28.296-31.053-46.412-42.319z" fill="#82e0c3" data-original="#82e0c3"/><path d="m305.301 784.783c-16.818-7.496-24.189-20.301-29.595-34.527 16.091 9.994 36.062 7.268 53.673 3.166 22.192-5.172 41.908-18.297 57.836-34.178 9.096-9.068 17.382-18.076 28.729-24.459 10.438-5.869 27.908-2.854 38.644-.096.043.01.076-.002.117.006 11.126 3.143 22.115 6.531 32.816 10.707.025.01.048.023.072.033.007.002.014 0 .021.004 7.483 2.924 14.83 6.229 21.987 10.105 4.271 2.314 8.138 4.887 11.812 7.596-19.947-5.176-41.577.291-58.696 13.865-14.292 11.332-26.098 25.305-40.017 37.059-3.74 3.152-7.766 5.869-12.006 8.172-18.174 9.871-31.666 7.535-55.074 8.582-16.629.746-33.115 1.635-50.319-6.035z" fill="#82e0c3" data-original="#82e0c3"/><path d="m480.186 810.076c-31.245 7.486-53.783-7.869-81.557-15.717 11.675-3.904 22.655-10.09 32.738-18.605 13.726-11.59 24.863-25.67 39.552-36.207 13.786-9.889 30.15-13.559 45.598-10.436 7.751 1.568 21.882 7.148 38.321 31.484-.942 1.773-1.823 3.588-2.878 5.283-15.566 25.028-44.282 37.612-71.774 44.198z" fill="#82e0c3" data-original="#82e0c3"/><path d="m873.185 480.643c-14.376 24.822-39.918 37.685-56.725 59.939-9.456 12.52-15.028 26.668-26.128 38.166-12.077 12.51-29.766 18.826-45.891 23.932-27.438 8.691-57.262 9.494-85.701 6.977-5.816-.518-11.488-1.279-17.02-2.281-18.774-3.395-19.629-6.975-18.509-23.855 1.808-27.117 40.006-41.154 61.517-48.67 30.762-10.748 63.916-13.236 95.586-20.326 43.453-9.727 87.199-36.751 109.361-76.434-3.39 15.017-8.946 29.528-16.49 42.552z" fill="#82e0c3" data-original="#82e0c3"/><path d="m893.159 392.435c1.431 19.06-2.728 33.678-17.829 54.393-10.205 13.998-23.063 26.22-36.651 35.932-30.755 21.987-69.099 27.344-105.41 33.668-26.665 4.646-52.286 10.83-76.711 22.674-10.504 5.094-21.956 11.98-29.973 21.16 2.368-10.971 5.374-21.895 7.839-32.955 2.655-11.918 3.967-24.035 5.358-36.14 11.464-31.591 45.11-45.47 74.864-55.461 28.244-9.482 56.998-17.078 83.666-30.658 21.471-10.931 40.274-28.805 56.978-45.976 9.64-9.912 15.677-21.504 19.574-33.998 6.234 22.349 16.546 44.069 18.295 67.361z" fill="#82e0c3" data-original="#82e0c3"/><path d="m870.081 295.691c.214 13.491.684 25.985-9.885 43.878-5.689 9.633-13.227 18.388-22.84 26.973-24.78 22.127-48.409 37.128-80.01 48.176-37.672 13.17-90.193 22.223-114.954 56.619.927-5.831 2.04-11.635 3.537-17.378 6.584-25.267 18.264-49.219 28.048-73.68 12.584-23.15 31.383-42.217 54.555-55.212 24.079-13.503 50.528-21.621 73.343-37.525 26.646-18.571 61.413-43.933 62.288-78.042 5.644 11.074 8.937 22.869 9.291 36.307.443 16.652-3.634 33.165-3.373 49.884z" fill="#82e0c3" data-original="#82e0c3"/><path d="m851.235 231.385c-15.491 31.014-57.894 55.466-84.315 68.067-21.997 10.492-44.385 19.091-63.831 34.137-7.102 5.496-13.611 12.085-19.453 19.325 2.971-10.024 5.262-20.227 6.353-30.744 2.997-28.917 12.876-54.391 26.334-79.962 3.629-6.896 6.82-14.014 9.746-21.248 11.746-22.965 40.217-30.82 58.848-47.175 14.083-12.365 26.286-22.587 29.172-39.079 7.623 13.177 16.106 25.954 25.088 38.52 11.809 16.527 23.303 35.642 12.058 58.159z" fill="#82e0c3" data-original="#82e0c3"/><path d="m802.509 147.135c-13.083 23.415-47.559 34.692-69.031 53.756 2.671-7.908 5.147-15.88 7.56-23.819 7.145-23.515 13.751-47.107 22.613-70.06 6.396-16.566 10.917-34.031 19.869-49.379 3.267 15.757 8.18 30.715 14.349 45.072 6.729 15.647 12.996 29.472 4.64 44.43z" fill="#82e0c3" data-original="#82e0c3"/><path d="m772.982 62.734c-5.125 10.726-8.85 22.181-12.739 33.381-8.45 24.328-16.786 48.457-24.092 73.176-5.852 19.791-12.253 39.273-20.573 58.057-.133-15.918-5.462-30.984-11.985-46.887-7.522-18.338-15.538-36.498-13.827-54.114 1.906-19.681 11.383-24.183 25.223-30.067 10.148-4.314 20.209-8.839 29.798-14.346 9.938-5.711 19.463-11.977 28.195-19.2z" fill="#82e0c3" data-original="#82e0c3"/><path d="m668.731 117.715c6.225-3.643 12.671-6.845 19.224-9.842-21.4 44.344 32.555 90.483 17.893 138.927-.083.272-.049.506-.071.758-10.934 21.437-18.583 43.519-21.934 67.522-.191 1.376-.45 2.728-.67 4.095-5.275-26.222-21.804-49.135-34.364-73.378-7.133-13.769-14.254-32.814-17.189-51.978-4.51-29.436 2.348-42.17 15.966-58.133 5.728-6.711 12.412-12.856 21.145-17.971z" fill="#82e0c3" data-original="#82e0c3"/><path d="m614.869 180.2c3.34-3.677 6.313-7.459 9.105-11.277-.999 18.165 3.638 37.51 8.556 53.869 12.581 41.86 50.237 76.319 44.85 122.405-3.897 13.868-8.813 27.373-14.011 40.796-1.127 2.469-2.211 4.942-3.191 7.409-.2.504-.268.967-.247 1.395-5.636 14.323-11.352 28.643-16.229 43.3-3.078-26.962-16.39-51.314-30.363-75.996-19.593-34.6-40.593-74.035-39.768-113.724.569-27.155 6.445-36.12 22.819-50.809 6.348-5.695 12.887-11.214 18.479-17.368z" fill="#82e0c3" data-original="#82e0c3"/><path d="m558.75 256.056c3.46-5.869 6.149-12.06 8.861-18.239-3.249 29.226 5.237 58.829 17.812 86.843 20.157 44.908 59.45 86.806 50.989 139.152-5.406 24.38-5.656 49.836-11.579 74.225-.895 3.686-1.778 7.33-2.64 10.955-4.043-9.49-11.324-17.086-19.541-24.742-19.907-18.555-34.101-41.448-46.186-65.664-11.816-23.679-19.592-48.799-26.716-74.182-3.193-11.381-6.603-22.165-8.766-32.828-6.389-31.459 4.7-48.733 20.913-70.7 5.969-8.084 11.797-16.244 16.853-24.82z" fill="#82e0c3" data-original="#82e0c3"/><path d="m516.499 511.182c-26.102-49.184-31.588-107.205-14.803-159.598 2.593-8.089 9.767-24.535 9.946-24.906-.758 10.173.326 20.525 2.909 31.421 6.076 25.632 14.594 51.766 23.929 76.369 9.07 23.909 21.029 46.635 35.585 67.646 9.554 13.793 27.449 26.289 37.411 41.328 9.291 14.031 6.339 22.424 4.936 37.42-1.414 15.162-5.145 18.93-19.494 11.887-34.128-16.759-60.911-44.81-80.419-81.567z" fill="#82e0c3" data-original="#82e0c3"/><path d="m622.378 614.678c-6.065 71.025-2.474 147.42 16.372 216.367 5.762 21.074 14.027 41.488 21.369 62.041 2.721 7.619 24.801 62.828 4.131 59.32-21.169-3.59-24.598-43.604-28.479-59.854-5.617-23.539-9.903-47.385-13.879-71.25 1.776-1.498 3.225-4.027 4.234-7.859 3.949-14.998-1.046-26.652-9.988-36.223-4.293-52.688-9.888-112.01.917-164.215 1.763.587 3.542 1.13 5.323 1.673z" fill="#a98053" data-original="#a98053"/><path d="m599.228 778.82c11.765 7.963 16.895 13.979 16.213 28.635-.076 1.043-.254 2.066-.479 3.078-1.091-.775-2.188-1.541-3.271-2.33-5.583-4.02-11.054-8.201-16.538-12.357-10.911-8.271-21.765-16.625-33.021-24.426 2.599-3.863 4.816-7.906 6.774-12.057 10.23 6.295 20.373 12.723 30.322 19.457z" fill="#a98053" data-original="#a98053"/><path d="m558.275 753.436c-12.105-12.283-16.033-23.576-18.9-32.568-6.348-19.92-4.459-41.387-3.903-64.033.411-16.771-.778-33.697-7.64-47.977 36.694 33.269 50.042 98.747 30.443 144.578z" fill="#82e0c3" data-original="#82e0c3"/><path d="m453.861 566.221c10.373 7.686 21.97 13.096 33.546 18.484 17.894 8.328 31.069 16.822 36.788 32.82 7.056 19.744 4.157 44.115 3.535 64.447-.488 15.932.827 30.102 5.657 43.359-12.898-11.348-27.632-20.119-45.263-27.148-37.741-16.686-30.874-68.137-33.7-101.459-1.019-12.004-3.13-24.162-6.739-35.77 1.989 1.88 4.026 3.675 6.176 5.267z" fill="#82e0c3" data-original="#82e0c3"/><path d="m392.807 512.43c10.749 2.432 19.15 8.688 26.643 16.352 12.494 12.773 20.359 25.457 24.558 46.518 3.877 19.424 4.274 40.031 5.271 59.643 1.008 19.838 5.748 41.314 18.595 56.217-14.787-4.559-29.88-8.246-44.807-12.322-.014-.004-.019-.014-.032-.018-23.664-8.012-31.928-23.109-37.431-46.617-4.603-19.662-5.723-40.031-8.9-59.945-3.893-24.416-12.552-46.523-31.996-56.641 15.913-3.123 31.608-6.918 48.099-3.187z" fill="#82e0c3" data-original="#82e0c3"/><path d="m248.163 503.107c25.823-1.516 47.042 16.584 73.455 15.621 12.374-.447 22.524 2.262 31.061 11.545 16.82 18.285 18.529 51.475 21.746 76.484 2.109 16.383 4.369 33.602 11.345 48.748 2.685 5.826 5.645 10.393 9.015 14.209-13.237-5.275-25.373-11.844-36.909-20.143-.272-.416-.639-.803-1.176-1.107-.354-.199-.69-.381-1.039-.578-4.68-3.482-9.289-7.191-13.82-11.287-13.6-12.301-26.363-24.566-41.891-34.143-.02-.014-.026-.031-.047-.045-21.338-13.688-22.093-45.389-31.679-66.805-6.233-13.93-16.406-24.871-29.249-31.654 3.06-.374 6.122-.665 9.188-.845z" fill="#82e0c3" data-original="#82e0c3"/><path d="m252.073 523.783c8.662 10.623 14.088 24.322 18.146 38.707 3.009 10.666 6.287 21.834 12.107 31.209-6.913-2.678-14.07-4.762-21.336-6.52-.449-.293-.965-.521-1.594-.59-.438-.051-.889-.063-1.329-.096-9.444-2.184-18.99-3.986-28.261-6.113-40.418-9.271-69.925-38.533-106.54-54.879 25.599 1.371 51.095-6.445 76.626-13.256 21.626-5.766 38.378-5.388 52.181 11.538z" fill="#82e0c3" data-original="#82e0c3"/><path d="m844.953 326.308c-16.711 24.763-42.928 40.905-69.253 53.746-26.087 12.72-53.574 22.347-79.14 36.162-17.377 9.394-40.831 22.995-51.559 41.792-1.017 4.421-1.898 8.861-2.609 13.328 24.761-34.396 77.282-43.449 114.954-56.619 31.601-11.048 55.229-26.049 80.01-48.176 9.613-8.585 17.15-17.34 22.84-26.973 10.568-17.893 10.099-30.387 9.885-43.878-.157-10.112 1.267-20.148 2.323-30.185-5.466 21.652-15.006 42.358-27.451 60.803z" fill="#39b386" data-original="#39b386"/><path d="m560.584 703.604c.338 4.906.324 9.801.153 14.713-.173 3.572-.639 7.109-1.396 10.613-.868 4.496-4.74 11.838-10.265 13.188 2.419 3.65 5.365 7.428 9.199 11.318 17.901-41.859 8.25-100.029-21.502-135.16 8.771 16.5 15.272 33.541 19.284 52.154 2.353 10.914 3.758 22.047 4.527 33.174z" fill="#39b386" data-original="#39b386"/><path d="m524.408 780.301c-11.16 8.355-26.468 12.648-39.796 16.141-18.264 4.785-37.965 4.412-56.361.672-7.848-1.596-15.97-2.863-23.646-.926 25.115 8.139 46.608 20.83 75.582 13.889 27.492-6.586 56.208-19.17 71.775-44.197 1.055-1.695 1.936-3.51 2.878-5.283-5.063-7.496-9.905-13.201-14.411-17.566 1.682 14.321-3.878 28.176-16.021 37.27z" fill="#39b386" data-original="#39b386"/><path d="m783.308 277.618c-32.293 17.819-75.667 32.058-96.713 64.045-.888 3.775-1.857 7.53-2.959 11.252 5.842-7.24 12.352-13.829 19.453-19.325 19.446-15.046 41.834-23.645 63.831-34.137 26.422-12.602 68.824-37.054 84.315-68.067 11.245-22.518-.249-41.632-12.06-58.159-5.912-8.271-11.576-16.649-16.955-25.158 3.117 8.491 7.418 16.422 11.36 24.695 7.821 16.413 9.415 34.159 5.417 51.818-5.76 25.438-34.712 41.462-55.689 53.036z" fill="#39b386" data-original="#39b386"/><path d="m289.5 518.367c12.593 8.215 24.506 5.639 38.515 8.381 23.067 4.518 30.209 31.365 33.551 51.145 2.955 17.49 3.609 35.303 6.208 52.854 1.331 8.992 3.521 21.799 9.337 30.748 5.695 3.033 11.558 5.783 17.674 8.221-3.37-3.816-6.33-8.383-9.015-14.209-6.976-15.146-9.235-32.365-11.345-48.748-3.217-25.01-4.926-58.199-21.746-76.484-8.536-9.283-18.687-11.992-31.061-11.545-19.004.693-35.324-8.457-52.602-13.094 7.014 3.385 13.452 8.143 20.484 12.731z" fill="#39b386" data-original="#39b386"/><path d="m735.319 195.243c-.616 1.885-1.208 3.771-1.842 5.648 21.473-19.063 55.948-30.341 69.031-53.756 8.356-14.958 2.089-28.783-4.641-44.43-4.999-11.637-9.121-23.696-12.263-36.228-.912 9.521.426 19.044 1.869 28.601 3.125 20.689 2.145 37.206-11.439 54.114-13.412 16.694-29.809 28.928-40.715 46.051z" fill="#39b386" data-original="#39b386"/><path d="m506.77 714.137c-12.927.123-27.148 4.635-36.61 8.998-11.776 5.43-22.354 12.346-31.925 21.076-10.915 9.957-20.15 21.186-32.642 29.35-21.591 14.117-49.088 6.896-73.112 5.945-21.408-.85-40.832-3.846-53.002-20.527 5.184 10.629 12.539 19.885 25.822 25.805 17.204 7.67 33.689 6.781 50.318 6.035 23.408-1.047 36.9 1.289 55.074-8.582 4.24-2.303 8.266-5.02 12.006-8.172 13.919-11.754 25.725-25.727 40.017-37.059 17.119-13.574 38.749-19.041 58.696-13.865-3.674-2.709-7.541-5.281-11.812-7.596-.93-.504-1.891-.922-2.83-1.408z" fill="#39b386" data-original="#39b386"/><path d="m415.499 536.602c15.923 18.656 21.221 43.826 23.688 67.525 2.258 21.699-1.747 64.779 16.948 83.594 3.927 1.102 7.844 2.236 11.738 3.438-12.847-14.902-17.587-36.379-18.595-56.217-.996-19.611-1.394-40.219-5.271-59.643-4.198-21.061-12.063-33.744-24.558-46.518-7.492-7.664-15.894-13.92-26.643-16.352-5.646-1.277-11.193-1.627-16.693-1.471 5.612 1.244 11.074 2.969 16.474 6.025 8.792 4.978 16.388 11.974 22.912 19.619z" fill="#39b386" data-original="#39b386"/><path d="m613.338 362.1c13.974 24.682 27.285 49.034 30.363 75.996 1.015-3.049 2.085-6.076 3.162-9.098 1.305-18.842-2.075-37.508-9.61-55.531-8.9-21.29-22.928-40.087-34.485-59.938-14.03-24.09-23.25-50.873-16.908-78.854 4.486-19.797 22.854-35.333 28.78-54.237-5.542 6.056-11.985 11.509-18.25 17.13-16.374 14.688-22.25 23.653-22.819 50.809-.826 39.688 20.174 79.123 39.767 113.723z" fill="#39b386" data-original="#39b386"/><path d="m520.985 351.577c2.163 10.663 5.572 21.447 8.766 32.828 7.124 25.383 14.899 50.503 26.716 74.182 12.085 24.216 26.278 47.109 46.186 65.664 8.217 7.656 15.498 15.252 19.541 24.742.846-3.557 1.711-7.129 2.588-10.742-4.043-40.595-42.162-74.71-65.236-105.629-17.876-23.955-26.176-54.263-28.335-83.677-1.405-19.19-.24-41.457 5.739-61.229-13.401 18.939-21.677 35.735-15.965 63.861z" fill="#39b386" data-original="#39b386"/><path d="m631.619 193.82c2.936 19.163 10.057 38.209 17.189 51.978 12.561 24.243 29.089 47.156 34.364 73.378.22-1.367.479-2.719.67-4.095.335-2.395.742-4.756 1.162-7.112-3.382-25.039-20.515-47.649-31.861-70.557-10.173-20.539-15.181-42.628-13.087-65.548 1.17-12.813 5.462-25.484 12.273-36.346 2.786-4.44 5.952-8.581 8.99-12.811-5.265 3.96-9.758 8.318-13.735 12.979-13.617 15.964-20.475 28.698-15.965 58.134z" fill="#39b386" data-original="#39b386"/><path d="m481.629 593.221c18.806 12.385 36.055 22.672 39.285 46.979 2.799 21.076-8.99 52.43-1.152 74.6 4.768 3.252 9.31 6.736 13.625 10.533-4.83-13.258-6.146-27.428-5.657-43.359.622-20.332 3.521-44.703-3.535-64.447-5.719-15.998-18.894-24.492-36.788-32.82-11.095-5.164-22.179-10.402-32.217-17.59 6.789 10.625 15.525 18.912 26.439 26.104z" fill="#39b386" data-original="#39b386"/><path d="m137.096 572.076c8.65 18.979 18.619 31.684 37.195 31.73 19.237.047 40.764-10.035 60.99-14.912-3.646-.818-7.278-1.705-10.895-2.65-15.9 2.338-31.942 10.625-47.885 9.941-22.078-.943-36.807-23.951-48.828-43.949 3.273 6.541 6.383 13.172 9.423 19.84z" fill="#39b386" data-original="#39b386"/><path d="m198.786 512.545c6.823-.777 13.646-.963 20.549 1.045 16.147 4.695 26.736 22.082 32.393 36.75 3.512 9.111 7.622 27.455 16.066 38.676 4.922 1.363 9.797 2.85 14.533 4.684-5.82-9.375-9.099-20.543-12.107-31.209-4.059-14.385-9.484-28.084-18.146-38.707-13.803-16.926-30.555-17.305-52.18-11.537-.37.099-.739.198-1.108.298z" fill="#39b386" data-original="#39b386"/><path d="m261.374 712.74c8.956 16.52 13.249 32.068 28.486 36.227 2.99.814 6.291 1.234 9.957 1.184 27.316-.383 55.366-9.973 75.512-28.996 13.263-12.527 24.569-26.758 41.592-34.313 1.313-.584 2.716-1.033 4.166-1.404-.944-.32-1.808-.654-2.689-.986-9.23.92-18.238 3.705-27.26 9.082-21.578 12.859-38.934 29.072-62.871 38.092-11.488 4.326-24.368 7.025-35.913 1.525-11.861-5.65-14.708-21.578-22.678-30.873-12.541-14.625-29.484-24.713-48.416-27.896 15.848 10.112 30.79 21.161 40.114 38.358z" fill="#39b386" data-original="#39b386"/><path d="m714.988 96.279c-13.84 5.885-23.316 10.387-25.223 30.067-1.711 17.616 6.305 35.776 13.827 54.114 6.523 15.902 11.853 30.969 11.985 46.887 1.238-2.798 2.356-5.638 3.515-8.464.373-21.345-11.994-42.685-16.901-63.293-4.641-19.499 3.4-36.584 17.105-50.109 6.504-6.416 14.507-12.258 19.17-20.11-7.652 4.004-15.532 7.531-23.478 10.908z" fill="#39b386" data-original="#39b386"/><path d="m180.525 646.32c12.779 11.557 33.023 18.492 49.61 18.455 9.057-.023 18.137-1.398 27.705-4.918 15.192-5.588 29.248-14.086 44.521-19.316 12.219-4.186 21.758-4.609 31.131-2.285-3.432-3.203-6.904-6.391-10.412-9.539-4.746-.869-9.914-.5-14.784.162-19.305 2.631-37.517 11.504-55.896 17.488-20.696 6.734-41.154 7.533-61.116-1.781-12.277-5.729-21.958-14.82-30.955-24.607 1.604 2.828 3.206 5.652 4.932 8.41 4.295 6.865 9.498 12.716 15.264 17.931z" fill="#39b386" data-original="#39b386"/><path d="m886.166 389.903c-1.45 19.797-10.488 37.254-24.632 50.926-24.157 23.353-57.631 35.135-89.274 44.19-31.319 8.966-64.273 13.773-94.731 25.444-14.854 5.689-34.463 16.82-46.543 31.197-1.533 6.207-3.063 12.4-4.4 18.602 8.017-9.18 19.469-16.066 29.973-21.16 24.425-11.844 50.046-18.027 76.711-22.674 36.312-6.324 74.655-11.682 105.41-33.668 13.589-9.712 26.446-21.934 36.651-35.932 15.102-20.715 19.26-35.333 17.829-54.393-1.21-16.101-6.51-31.45-11.727-46.777 1.754 14.81 5.841 29.138 4.733 44.245z" fill="#39b386" data-original="#39b386"/><path d="m596.918 592.748c14.35 7.043 18.08 3.275 19.494-11.887.618-6.605 1.533-11.932 1.574-17.02-4.994 6.336-10.302 12.49-18.873 13.502-9.342 1.104-18.457-4.432-25.759-9.561-19.439-13.658-34.397-34.559-47.12-54.268-15.17-23.5-23.798-47.781-27.519-75.739-2.694-20.235-1.785-40.496-.897-60.809.229-5.253.594-10.479 1.048-15.688-13.199 49.778-6.869 103.733 17.633 149.902 19.508 36.759 46.291 64.81 80.419 81.568z" fill="#39b386" data-original="#39b386"/><path d="m641.721 607.375c5.531 1.002 11.203 1.764 17.02 2.281 28.439 2.518 58.264 1.715 85.701-6.977 16.125-5.105 33.813-11.422 45.891-23.932 11.1-11.498 16.672-25.646 26.128-38.166 14.63-19.373 35.875-31.637 50.617-50.861-3.553 2.521-7.214 4.963-11.097 7.259-11.221 6.639-23.213 11.911-34.313 18.743-11.814 7.273-21.93 17.16-31.832 26.762-10.309 9.996-20.592 19.844-32.716 27.646-15.161 9.754-33.539 14.621-51.09 17.83-17.249 3.154-35.102 2.857-52.5 1.344-6.948-.604-13.795-1.723-19.985-5.063-4.619-2.492-6.609-6.381-7.855-10.678-1.357 3.107-2.241 6.416-2.478 9.955-1.12 16.882-.266 20.462 18.509 23.857z" fill="#39b386" data-original="#39b386"/><path d="m745.326 276.359c22.797-5.95 44.507-21.932 59.382-39.84 7.032-8.464 12.395-18.409 14.203-29.327 1.169-7.059-.05-12.819-2.438-18.347-3.965-9.175-7.897-8.435-15.66-1.475-11.576 10.38-27.834 16.118-39.963 25.495-14.642 11.315-28.108 25.153-36.222 41.982-9.358 19.409 3.814 25.919 20.698 21.512z" fill="#b3eed6" data-original="#b3eed6"/><path d="m661.165 349.042c5.177-13.432 1.522-27.668-4.504-40.235-7.409-15.444-17.708-29.341-25.815-44.406-2.995-5.568-9.053-16.654-12.372-29.417-3.937-15.149-6.522-22.66-13.44-.864-6.1 19.23-3.843 39.469 5.773 59.143 7.354 15.05 17.854 28.438 26.524 42.725 4.079 6.724 6.651 16.562 13.964 20.566 4.488 2.456 8.689-4.449 9.87-7.512z" fill="#b3eed6" data-original="#b3eed6"/><path d="m670.107 162.333c-1.585-5.505-3.492-18.604-7.09-.216-3.002 15.296-2.465 31.435 4.082 45.628 3.826 8.298 8.27 16.111 11.72 24.413 4.432 10.664 13.952 20.879 18.231 3.486 7.006-28.43-15.368-33.264-26.943-73.311z" fill="#b3eed6" data-original="#b3eed6"/><path d="m731.053 111.06c-5.347 5.975-9.234 13.28-12.131 20.717-2.641 6.775-5.815 19.709 1.104 24.962 5.807 4.407 11.631-6.213 12.793-9.973 1.673-5.41 1.783-11.54 2.469-17.123.648-5.27 1.498-10.257 2.589-15.199 1.903-8.628.408-11.461-6.824-3.384z" fill="#b3eed6" data-original="#b3eed6"/><path d="m708.449 380.164c7.761 4.662 21.35-.568 28.878-3.009 10.402-3.373 20.739-7.803 30.327-13.068 17.699-9.726 33.739-23.854 46.636-39.269 7.04-8.415 14.187-18.768 19.058-29.804 8.364-18.938 2.295-14.799-10.124-3.908-22.084 19.36-55.823 28.233-80.587 40.46-13.486 6.658-27.012 15.269-34.747 28.549-3.425 5.876-6.6 15.747.559 20.049z" fill="#b3eed6" data-original="#b3eed6"/><path d="m610.857 397.73c-15.733-24.218-36.186-49.461-47.514-75.56-7.956-18.331-12.577-17.919-14.098 3.844-2.019 28.792 3.953 55.874 21.597 81.174 10.153 14.561 21.585 28.001 29.689 43.905 2.181 4.277 6.474 21.169 13.753 20.135 11.193-1.588 11.897-20.996 11.727-29.222-.334-16.294-6.4-30.799-15.154-44.276z" fill="#b3eed6" data-original="#b3eed6"/><path d="m564.844 506.824c-15.26-16.188-30.587-34.787-41.065-55.292-5.426-10.622-10.948-9.077-8.619 3.394 9.766 52.37 45.221 101.381 64.303 88.297 15.152-10.391-8.605-30.02-14.619-36.399z" fill="#b3eed6" data-original="#b3eed6"/><path d="m854.446 383.404c-29.95 33.519-80.014 49.935-123.921 62.68-19.843 5.757-39.941 11.545-55.284 24.863-5.479 4.761-14.018 17.63.479 16.026 7.886-.87 16.023-5.429 23.232-8.005 13.219-4.723 26.631-8.999 40.052-13.227 21.54-6.782 43.412-12.795 63.889-21.961 27.313-12.222 53.824-32.14 59.628-59.349 1.758-8.238.992-11.175-8.075-1.027z" fill="#b3eed6" data-original="#b3eed6"/><path d="m748.627 536.498c-23.213 8.439-39.521 5.232-74.757 13.816-13.432 3.271-27 16.068-15.006 24.809 23.487 17.119 71.807-.969 93.913-27.943 9.911-12.104 3.68-13.532-4.15-10.682z" fill="#b3eed6" data-original="#b3eed6"/><path d="m474.023 669.023c4.976 10.881 19.201 25.412 29.956 12.488 9.472-11.377 4.887-34.641-.355-46.703-5.425-12.49-13.889-23.885-25.203-31.201-8.564-5.539-10.323-2.805-9.469 8.342 1.457 19.031-3.456 38.426 5.071 57.074z" fill="#b3eed6" data-original="#b3eed6"/><path d="m450.425 712.766c-10.231-16.213-36.325-5.145-47.692 3.145-8.828 6.439-15.736 15.061-22.983 23.117-5.474 6.088-10.953 13.494-17.787 18.334-8.261 5.85-7.839 7.701 1.498 8.801 15.433 1.818 31.095-7.15 43.066-16.709 11.987-9.572 23.375-18.455 37.271-25.111 3.553-1.7 9.528-6.978 6.627-11.577z" fill="#b3eed6" data-original="#b3eed6"/><path d="m455.732 773.664c-5.479 4.238-14.39 12.15.157 12.801 18.961.844 68.638-7.572 66.025-32.359-1.695-16.081-28.994-9.252-66.182 19.558z" fill="#b3eed6" data-original="#b3eed6"/><path d="m376.114 686.594c2.229-3.73 1.162-4.141-2.415-5.531-3.677-1.432-8.424-.893-12.26-.879-7.794.021-13.551-2.059-20.225-6.242-12.146-7.617-21.392-14.068-36.37-12.848-9.521.775-18.58 5.498-27.313 10.072-9.728 5.088-7.967 5.514.268 12.15 5.85 4.719 10.216 11.086 15.55 17.414 6.789 8.063 14.7 11.771 25.023 13.016 20.288 2.44 45.795-7.141 57.742-27.152z" fill="#b3eed6" data-original="#b3eed6"/><path d="m299.106 564.428c2.885 8.498 6.62 16.744 10.684 24.736 13.937 27.43 49.457 6.924 36.671-20.479-9.078-19.463-28.794-31.443-49.626-36.965-15.326-4.053-9.762 1.125-4.992 11.895 2.896 6.541 4.839 13.672 7.263 20.813z" fill="#b3eed6" data-original="#b3eed6"/><path d="m261.785 601.428c-11.025-1.998-23.786 4.922-33.577 9.129-9.802 4.213-19.279 7.865-30.021 8.604-11.417.787-24.027 5.596-2.596 13.217 18.383 6.535 49.156 7.598 67.858.977 18.769-6.648 18.54-28.263-1.664-31.927z" fill="#b3eed6" data-original="#b3eed6"/><path d="m172.85 571.795c-4.771-1.98-9.665-3.641-14.54-5.352-4.187-1.467-12.395-5.168-3.786 5.004 8.754 10.34 24.539 22.744 30.384 13.154 3.804-6.244-8.374-11.277-12.058-12.806z" fill="#b3eed6" data-original="#b3eed6"/><path d="m175.334 538.846c22.57 6.84 33.242 19.35 41.437 23.934 9.141 5.117 20.073 5.771 22.331-6.506 2.031-11.063-13.565-22.492-22.065-26.059-13.368-5.613-27.675-5.033-41.335-1.332-12.791 3.461-8.797 7.408-.368 9.963z" fill="#b3eed6" data-original="#b3eed6"/><path d="m391.852 615.037c.895 10.986 2.438 22.365 7.44 32.309 6.029 11.98 24.022 4.209 21.134-8.955-1.424-6.484-4.354-12.504-6.218-18.857-3.204-10.924-1.94-22.221-1.804-33.389.263-21.561-7.805-39.572-24.314-49.242-11.664-6.834-14.835-5.48-7.666 7.568 11.159 20.297 9.672 49.045 11.428 70.566z" fill="#b3eed6" data-original="#b3eed6"/><path d="m619.895 660.965c.358-15.59 1.184-31.066 2.483-46.287-1.781-.543-3.56-1.086-5.323-1.672-5.736 27.719-6.829 57.445-5.97 87.117 4.221-12.369 6.184-25.713 8.633-38.307.055-.283.121-.568.177-.851z" fill="#855725" data-original="#855725"/><path d="m562.132 771.42c11.257 7.801 22.11 16.154 33.021 24.426 1.545 1.17 3.112 2.309 4.657 3.48-1.408-4.281-2.888-7.826-3.426-8.887-4.102-8.123-9.379-15.934-15.252-23.418-4.062-2.572-8.131-5.139-12.227-7.658-1.957 4.151-4.175 8.194-6.773 12.057z" fill="#855725" data-original="#855725"/><g fill="#68182b"><path d="m546.957 404.505c8.646 26.634 15.314 57.627 34.4 79.257.378.43 1.143-.021.963-.56-3.744-11.174-10.279-21.336-15.174-32.046-6.518-14.259-10.623-29.011-15.123-43.959-4.081-13.566-9.152-26.813-13.262-40.373-4.179-13.777-5.387-27.739-8.287-41.729-.104-.506-.949-.526-1.039 0-4.507 26.383 9.578 54.941 17.522 79.41z" fill="#68182b" data-original="#68182b"/><path d="m590.739 496.809c.297.202.708-.067.704-.405-.046-3.465-3.423-7.765-6.834-8.633-.344-.087-.789.178-.751.574.152 1.578 1.181 2.86 2.208 4.016 1.5 1.691 2.791 3.155 4.673 4.448z" fill="#68182b" data-original="#68182b"/><path d="m862.852 303.622c-5.075 11.05-8.601 21.438-16.579 30.858-6.631 7.83-12.588 16.643-19.604 24.047-19.206 20.274-50.577 23.261-72.999 38.932-.701.492-.287 1.828.625 1.479 25.211-9.643 55.761-17.893 75.409-37.375 7.729-7.661 13.78-17.765 20.549-26.332 7.076-8.961 12.313-20.009 13.069-31.481.016-.243-.365-.355-.47-.128z" fill="#68182b" data-original="#68182b"/><path d="m742.609 404.481c-.105.245.009.627.342.596 1.88-.173 5.453-1.243 5.857-3.33.045-.233-.029-.438-.231-.569-2.073-1.358-5.179 1.473-5.968 3.303z" fill="#68182b" data-original="#68182b"/><path d="m645.15 202.455c3.348 18.394 15.621 31.884 23.743 48.168.238.478.854.112.789-.332-2.226-15.439-14.36-26.957-18.977-41.771-2.981-9.562-3.879-19.955-3.883-29.914-.007-9.665 2.837-19.103 2.354-28.747-.017-.297-.392-.326-.495-.067-6.652 16.574-6.681 35.35-3.531 52.663z" fill="#68182b" data-original="#68182b"/><path d="m674.076 263.231c.853-2.307 0-5.559-2.217-6.798-.389-.218-.852.059-.865.497-.068 2.139 1.067 4.533 1.965 6.447.248.527.953.299 1.117-.146z" fill="#68182b" data-original="#68182b"/><path d="m772.553 158.738c-.328.304.011.958.454.783 14.515-5.748 26.146-22.06 24.323-38.063-.026-.236-.375-.407-.504-.138-2.975 6.394-4.142 13.319-7.525 19.586-3.951 7.313-10.779 12.314-16.748 17.832z" fill="#68182b" data-original="#68182b"/><path d="m769.813 160.465c-2.03-.11-4.511 1.464-5.091 3.456-.079.271.092.539.351.62 2.186.693 4.751-1.331 5.244-3.415.081-.344-.157-.643-.504-.661z" fill="#68182b" data-original="#68182b"/><path d="m858.631 445.234c-14.396 25.081-42.563 37.395-68.95 46.027-29.907 9.784-63.253 8.439-91.912 21.932-.614.287-.148 1.119.43 1.018 35.454-6.164 73.558-10.213 106.944-24.124 20.402-8.5 47.914-21.176 53.949-44.658.07-.276-.317-.445-.461-.195z" fill="#68182b" data-original="#68182b"/><path d="m688.178 516.859c-1.432.613-3.413 1.672-3.874 3.252-.05.17.059.354.228.398 1.398.371 2.646-.428 3.921-.963 1.797-.756 3.238-1.717 4.808-2.846.313-.225.216-.725-.2-.738-1.807-.056-3.217.188-4.883.897z" fill="#68182b" data-original="#68182b"/><path d="m428.611 578.094c5.356 23.867 2.478 49.84 13.703 72.125.331.654 1.243.176 1.118-.469-5.323-27.518-5.15-56.822-13.564-83.598-4.5-14.311-11.851-36.955-28.805-40.391-.174-.035-.36.197-.191.332 16.648 13.393 23.158 31.589 27.739 52.001z" fill="#68182b" data-original="#68182b"/><path d="m448.098 662.225c.31.119.618-.236.53-.531-.661-2.203-1.745-5.873-3.87-7.063-.434-.242-.969-.02-1.11.453-.855 2.838 1.974 6.197 4.45 7.141z" fill="#68182b" data-original="#68182b"/><path d="m369.181 712.49c.499-.455-.138-1.207-.697-.904-13.399 7.221-25.61 16.738-39.757 22.498-17.672 7.193-31.965 4.123-48.422-3.506-.369-.172-.718.248-.437.564 25.691 28.913 68.094.676 89.313-18.652z" fill="#68182b" data-original="#68182b"/><path d="m373.46 709.307c3.02-1.033 6.32-2.027 8.352-4.682.161-.211-.005-.588-.259-.633-3.679-.662-6.679 1.932-8.438 4.865-.132.223.087.539.345.45z" fill="#68182b" data-original="#68182b"/><path d="m263.064 565.252c.219.592 1.127.525 1.132-.154.08-11.371-6.029-21.699-12.399-30.732-5.386-7.641-14.668-18.107-25.019-17.453-.205.014-.307.293-.108.402 18.99 10.675 29.002 27.867 36.394 47.937z" fill="#68182b" data-original="#68182b"/><path d="m266.756 576.545c.245.197.668.164.751-.199.609-2.639-1.189-5.039-2.878-6.883-.2-.219-.596-.051-.585.24.095 2.422.725 5.26 2.712 6.842z" fill="#68182b" data-original="#68182b"/><path d="m781.804 569.592c-14.335 7.779-28.196 15.84-43.6 21.422-14.466 5.244-29.039 6.311-44.049 8.799-.212.037-.205.377 0 .42 28.92 5.9 66.83-11.309 88.345-29.736.514-.442-.141-1.208-.696-.905z" fill="#68182b" data-original="#68182b"/><path d="m791.086 562.037c-2.15 1.111-4.238 2.51-5.03 4.908-.052.162.09.35.261.342 2.771-.127 4.625-2.242 5.403-4.762.119-.379-.313-.652-.634-.488z" fill="#68182b" data-original="#68182b"/><path d="m518.867 784.795c-18 9.656-36.655 14.281-56.175 19.395-.364.098-.392.686 0 .766 18.558 3.732 43.311-6.93 57.002-19.088.601-.534-.166-1.43-.827-1.073z" fill="#68182b" data-original="#68182b"/><path d="m528.194 777.703c-.515.279-1.378.33-1.857.695-.658.502-1.264 1.029-1.875 1.59-1.091 1-1.814 1.922-2.127 3.385-.057.273.159.461.42.422 1.64-.262 2.775-.813 4.1-1.824 1.502-1.143 1.678-2.008 2.001-3.76.07-.385-.294-.705-.662-.508z" fill="#68182b" data-original="#68182b"/></g></g></g></g></svg>