<svg xmlns="http://www.w3.org/2000/svg" version="1.1" xmlns:xlink="http://www.w3.org/1999/xlink" xmlns:svgjs="http://svgjs.com/svgjs" width="512" height="512" x="0" y="0" viewBox="0 0 1000 1000" style="enable-background:new 0 0 512 512" xml:space="preserve"><g><g xmlns="http://www.w3.org/2000/svg"><path d="m94.332 455.604c-3.542 42.806-3.803 85.936-3.549 123.154.225 32.822 2.137 61.234 5.838 86.771-.012 2.764.42 5.506 1.275 8.1 5.098 31.17 12.906 58.205 23.846 82.587 45.539 101.48 158.361 110.644 240.74 117.333 44.725 3.634 90.217 5.476 135.217 5.476h.004c56.312 0 112.812-2.878 167.916-8.552 27.485-2.829 59.878-6.896 92.132-15.733 58.699-17.4 97.326-50.251 118.094-100.428 26.088-63.034 29.844-130.741 30.201-182.687.283-41.18-.834-77.695-3.411-111.079 26.454-12.053 42.085-39.673 39.291-72.461-2.894-33.984-27.05-68.386-67.657-68.737-7.795-18.342-17.178-34-28.473-47.562-52.514-63.035-139.26-78.852-227.201-84.714-20.559-63.808-99.059-65.306-138.227-66.054-1.408-.027-2.82-.043-4.237-.043-60.86 0-101.577 24.591-112.366 66.68-13.797 1.446-27.334 3.202-40.484 5.255-9.408-11.455-23.418-17.778-40.232-17.778-5.148 0-10.561.594-16.088 1.765-22.607 4.788-37.572 19.788-42.428 41.926-32.574 13.931-57.748 32.316-74.941 54.75-10.342 13.49-18.992 28.398-26.271 45.313-35.018 5.019-58.211 25.786-64.419 58.337-2.813 14.745-.368 32.565 6.534 47.665 7.564 16.556 17.71 25.042 28.896 30.716z" fill="#ffffff" data-original="#ffffff"/><g><path d="m861.416 340.306c-7.243-20.38-17.049-39.637-30.668-55.985-52.705-63.271-147.389-74.127-227.863-78.586-9.023-59.662-73.084-64.186-122.895-65.139-45.188-.866-95.871 13.195-99.324 65.11-22.654 1.972-45.141 4.814-67.318 8.693-7.131-18.32-24.262-22.172-42.332-18.345-19.422 4.113-27.807 18.037-28.563 36.658-30.025 11.374-58.434 28.128-77.322 52.773-12.191 15.907-21.227 33.442-28.131 51.854-28.83.913-53.117 13.42-58.865 43.554-2.209 11.576.258 25.246 5.109 35.855 7.34 16.056 16.738 20.886 31.898 26.352-4.541 44.875-5.086 90.637-4.777 135.522.193 28.186 1.635 57.371 5.918 86.021-.211 1.296-.031 2.627.605 3.76 4.379 27.62 11.451 54.686 22.721 79.796 39.984 89.108 137.831 98.798 224.459 105.834 99.275 8.063 200.463 7.164 299.547-3.038 29.738-3.061 59.695-7.121 88.57-15.03 48.617-14.412 85.795-41.371 105.564-89.142 22.951-55.452 28.305-115.857 28.714-175.333.286-41.451-.78-83.438-4.673-124.891 65.673-11.269 47.315-121.153-20.374-106.293zm-741.254 63.949c-3.611-2.502-5.766-5.84-5.865-10.994-.139-7.158 4.354-13.575 10.873-15.439-1.944 8.754-3.589 17.587-5.008 26.433zm757.1 3.506c-1.535-10.528-3.426-21.245-5.795-31.933 7.645-.248 12.613 5.66 14.973 12.948 2.904 8.967-.573 16.626-9.178 18.985z" fill="#68182b" data-original="#68182b"/><path d="m874.631 543.814c1.078 39.122 0 78.523-5.824 117.213-51.82 13.16-104.703 19.011-157.862 22.386-19.03 1.212-27.495 5.669-13.948-14.359 57.418-84.867 57.289-194.869-2.775-281.317-5.92-8.518-9.698-13.414 7.965-12.375 55.145 3.238 109.976 8.885 163.82 22.154 8.339 49.513 7.415 102.431 8.624 146.298z" fill="#faf098" data-original="#faf098"/><path d="m258.453 564.778c6.262 39.015 21.473 74.79 43.354 105.31 10.69 14.904 8.678 14.854-11.799 13.606-54.658-3.332-109.084-9.161-162.299-22.772-1.457-10.606-2.568-20.993-3.475-30.871-4.963-54.027-2.479-109.314.751-163.404 1.374-23.003 3.56-46.511 7.716-69.596 52.596-12.779 106.121-18.36 159.947-21.587 18.556-1.108 19.014.85 10.211 13.067-36.377 50.489-54.34 114.382-44.406 176.247z" fill="#faf098" data-original="#faf098"/><path d="m749.127 824.861c-86.234 23.62-181.508 23.075-270.213 22.426-49.336-.362-98.73-2.643-147.803-7.835-44.527-4.711-91.037-11.438-130.254-34.356-44.948-26.268-62.891-80.401-71.296-131.83 63.709 15.72 129.151 20.726 194.563 23.743 42.018 43.993 99.869 72.344 163.986 76.097 69.764 4.086 138.387-25.513 186.42-75.344.264-.292.506-.594.77-.886 64.402-3.042 128.709-8.14 191.467-23.489-2.158 12.109-4.787 24.144-8.027 36.062-16.217 59.658-50.087 97.769-109.613 115.412z" fill="#f9c035" data-original="#f9c035"/><path d="m880.698 435.278c-.573-5.352-1.228-10.683-1.905-16.008 33.254-5.671 21.086-57.712-10.008-54.732-1.141-4.438-2.397-8.851-3.742-13.233 51.666-10.262 65.6 75.824 15.655 83.973z" fill="#b0cf45" data-original="#b0cf45"/><path d="m475.021 152.11c35.469-.751 87.491 1.104 108.195 32.189 11.483 17.238 3.967 20.58-16.589 19.651-50.648-2.265-102.676-3.251-154.245-.452-13.086.713-21.289-2.325-16.48-14.463 11.592-29.308 47.503-36.257 79.119-36.925z" fill="#b0cf45" data-original="#b0cf45"/><path d="m270.4 208.174c11.547-3.769 25.83-3.829 31.427 8.365-3.034.585-6.075 1.136-9.097 1.763-12.516 2.599-25.525 5.965-38.436 10.225 1.149-9.786 5.182-16.789 16.106-20.353z" fill="#ff8d5b" data-original="#ff8d5b"/><path d="m132.894 349.087c-1.772 5.514-3.371 11.09-4.826 16.714-26.896 1.125-34.436 39.219-9.857 50.566.047.022.092.027.139.049-.248 1.77-.504 3.542-.738 5.309-.424 3.207-.758 6.434-1.137 9.651-8.734-3.193-15.592-6.494-20.902-15.214-5.025-8.257-6.525-19.253-6.584-28.675-.156-25.315 21.975-36.539 43.905-38.4z" fill="#b0cf45" data-original="#b0cf45"/><path d="m652.423 357.463c-87.343-78.256-230.117-77.334-313.619 7.119-93.626 94.691-95.361 250.069 8.065 339.549 93.403 80.805 233.691 74.533 319.522-14.509 85.773-94.797 83.185-245.113-13.968-332.159zm-42.3 279.307c-57.066 58.184-155.774 65.694-215.818 6.645-59.415-58.434-68.155-155.506-7.929-217.54 56.156-57.84 154.758-68.296 215.296-9.898 62.833 60.613 66.132 155.81 8.451 220.793z" fill="#b0cf45" data-original="#b0cf45"/><path d="m408.009 640.228c-64.551-52.016-66.434-146.066-13.49-206.211 49.07-55.751 137.793-59.92 194.417-13.971 64.62 52.441 66.405 148.468 13.046 208.583-52.586 53.615-135.42 58.783-193.973 11.599z" fill="#813341" data-original="#813341"/><path d="m811.02 279.697c-62.635-58.87-168.77-61.57-249.73-64.417-83.592-2.939-170.586-3.544-253.153 11.706-53.086 9.805-113.76 29.791-143.143 78.564-14.693 24.387-23.915 51.339-29.881 79.167 62.214-14.524 125.698-19.53 189.402-22.467.055-.002.098.009.15.009 24.226-25.504 53.764-45.843 86.965-58.15 90.887-33.687 196.407-12.208 262.112 58.227 63.918 2.973 127.605 8.072 189.985 22.866-8.292-40.639-23.661-78.201-52.707-105.505zm-46.897 34.002c-.428 9.359-1.365 20.654-9.744 26.598-9.857 6.991-23.289 6.258-34.84 6.04-11.545-.218-27.891-.764-35.281-11.405-7.223-10.4-7.844-24.956-7.136-37.2.688-11.879 2.294-23.462 11.612-31.771 8.479-7.558 21.701-7.43 32.295-7.214 12.627.654 28.419 2.336 36.633 13.379 8.467 11.385 7.074 28.131 6.461 41.573z" fill="#f9c035" data-original="#f9c035"/><path d="m688.529 301.33c-.006-8.572.432-18.363 6.112-25.237 5.829-7.047 18.304-5.997 26.388-5.833 9.973.517 21.985 1.349 28.504 10.117 5.249 7.054 3.143 20.973 3.129 29.287-.012 7.337.602 17.359-6.157 22.156-6.669 4.729-19.165 2.975-26.966 3.004-8.759.032-21.352.041-26.969-8.048-4.67-6.724-4.036-17.652-4.041-25.446z" fill="#ff8d5b" data-original="#ff8d5b"/><path d="m259.328 215.282c-2.912 3.551-4.414 7.979-5.033 13.245 8.617-2.842 17.266-5.253 25.795-7.337-8.419.303-16.059-1.19-20.762-5.908z" fill="#ff564d" data-original="#ff564d"/><path d="m694.642 276.093c-5.681 6.874-6.118 16.665-6.112 25.237.005 7.794-.629 18.722 4.041 25.446 5.617 8.088 18.21 8.08 26.969 8.048 7.801-.029 20.297 1.725 26.966-3.004 6.759-4.797 6.146-14.819 6.157-22.156 0-.029.002-.065.002-.095-4.75 6.865-11.141 12.255-19.818 14.605-17.57 4.76-33.127-3.258-35.268-21.754-1.295-11.203 1.252-22.752 7.785-31.659-4.233.724-8.141 2.211-10.722 5.332z" fill="#ff564d" data-original="#ff564d"/><g><path d="m746.145 289.475c-1.863-6.566-8.268-9.811-14.623-10.44-5.039-.501-10.308.254-13.67 3.739-5.563 3.956-6.496 12.696-6.037 18.859 1.077 14.417 23.268 17.69 31.699 7.776 4.248-4.994 4.338-13.922 2.631-19.934z" fill="#fac371" data-original="#fac371"/><g><path d="m747.591 289.076c-3.827-11.116-18.418-14.589-28.268-9.373-9.172 4.857-11.748 19.804-7.012 28.416 4.485 8.156 16.095 9.803 24.217 7.45 11.586-3.357 13.701-16.172 11.063-26.493-.479-1.873-3.372-1.078-2.893.798 2.186 8.552 1.082 18.763-8.015 22.472-6.312 2.573-14.433 1.369-19.587-3.082-6.237-5.386-4.71-17.896-.06-23.736 6.923-8.693 24.02-6.228 27.661 4.346.627 1.817 3.526 1.036 2.894-.798z" fill="#fac371" data-original="#fac371"/></g></g><path d="m386.376 425.874c56.156-57.84 154.758-68.296 215.296-9.898 60.705 58.564 65.827 149.403 14.083 214.091 23.732-15.593 33.822-47.162 39.07-73.898 8.237-41.96-1.69-84.298-24.775-119.898-51.427-79.315-162.606-87.752-233.479-31.148-52.236 41.717-71.5 125.93-38.877 184.03-22.466-53.985-15.306-117.97 28.682-163.279z" fill="#aaaa38" data-original="#aaaa38"/><path d="m104.173 399.765c-1.801-2.35-3.422-5.028-4.727-8.221-4.036-9.874-2.772-19.986.311-29.636-6.613 6.081-10.836 14.473-10.77 25.579.059 9.422 1.559 20.418 6.584 28.675 5.311 8.72 12.168 12.021 20.902 15.214.379-3.218.713-6.445 1.137-9.651.234-1.767.49-3.54.738-5.309-.047-.022-.092-.027-.139-.049-7.708-3.557-12.251-9.748-14.036-16.602z" fill="#aaaa38" data-original="#aaaa38"/><path d="m903.738 389.234c-1.361 7.045-3.891 12.86-7.495 17.384-2.892 6.247-8.519 11.128-17.45 12.651.678 5.325 1.332 10.656 1.905 16.008 32.519-5.307 37.939-43.637 23.515-66.916 1.076 6.59.957 13.457-.475 20.873z" fill="#aaaa38" data-original="#aaaa38"/><path d="m683.32 391.391c14.031 26.757 25.097 54.056 31.137 85.042 8.531 43.768 3.681 89.951-11.369 131.677-30.225 83.799-115.018 128.347-199.754 134.153-91.956 6.298-170.381-37.823-205.792-123.727-28.553-69.268-24.658-148.367 9.379-214.059-60.367 94.235-49.984 221.846 39.948 299.653 93.403 80.805 233.691 74.533 319.522-14.509 75.468-83.406 82.496-209.774 16.929-298.23z" fill="#aaaa38" data-original="#aaaa38"/><path d="m412.382 203.499c51.568-2.799 103.596-1.813 154.245.452 20.556.929 28.072-2.413 16.589-19.651-1.471-2.208-3.137-4.231-4.907-6.154-6.707 11.183-17.498 15.379-33.891 16.822-16.758 1.478-33.53 1.113-50.331.877-20.443-.288-83.268 5.673-90.554-19.487-3.101 3.686-5.724 7.852-7.632 12.678-4.808 12.138 3.395 15.176 16.481 14.463z" fill="#aaaa38" data-original="#aaaa38"/><path d="m638.699 373.084c-12.015-18.045-34.422-29.786-53.748-37.64-28.787-11.702-59.641-17.221-90.711-15.896-33.178 1.418-66.359 11.715-96.072 26.057-21.506 10.38-47.541 28.801-61.52 51.27-12.504 20.083-3.268 27.843 13.305 12.384 3.863-3.604 7.677-7.284 11.752-10.706 11.281-9.472 24.734-16.912 37.496-24.173 26.918-15.32 59.047-24.221 89.737-27.477 26.148-2.772 52.537 1.648 77.359 9.734 21.956 7.155 38.162 21.841 56.713 33.656 12.775 8.141 29.463 3.479 15.689-17.209z" fill="#d6e238" data-original="#d6e238"/><path d="m643.17 410.853c1.547 4.617 5.167 8.684 9.494 9.586 5.305 1.106 9.576-.793 12.654-5.152 4.149-5.873 1.521-12.997-3.48-17.054-6.784-5.495-22.928-.076-18.668 12.62z" fill="#d6e238" data-original="#d6e238"/><path d="m536.072 168.742c-31.456-14.153-77.149-11.824-107.948 3.227-2.814 1.376-1.361 5.698 1.543 5.698 16.207 0 32.318-2.381 48.51-3.076 18.76-.807 37.538 1.178 56.26.185 2.926-.156 4.795-4.613 1.635-6.034z" fill="#d6e238" data-original="#d6e238"/><path d="m549.285 169.29c-2.819-.551-7.896.133-7.639 4.167.183 2.838 2.456 4.547 5.096 5.062 2.557.5 5.154-.688 5.885-3.344.652-2.368-.779-5.385-3.342-5.885z" fill="#d6e238" data-original="#d6e238"/><path d="m673.742 362.336c63.918 2.973 127.605 8.072 189.985 22.866-.575-2.817-1.194-5.619-1.839-8.405-22.016-5.419-45.367-7.913-67.064-11.045-34.09-4.924-68.38-8.441-102.684-11.475-9.581-.848-19.181-1.547-28.775-2.296 3.551 3.334 7.028 6.764 10.377 10.355z" fill="#ed9d2b" data-original="#ed9d2b"/><path d="m749.127 824.861c48.205-14.288 79.576-42.008 98.381-83.716-27.646 27.483-61.188 47.104-101.83 58.452-63.256 17.658-133.686 19.473-198.893 20.461-83.149 1.259-167.712-4.887-249.842-17.904-37.414-5.932-74.148-15.271-108.066-32.467-21.393-10.845-35.488-29.172-48.182-48.596 11.041 34.564 29.188 65.902 60.162 84.004 39.217 22.918 85.727 29.646 130.254 34.356 49.072 5.192 98.467 7.473 147.803 7.835 88.705.651 183.979 1.195 270.213-22.425z" fill="#ed9d2b" data-original="#ed9d2b"/><path d="m135.113 384.717c62.214-14.524 125.698-19.53 189.402-22.467.055-.002.098.009.15.009 4.221-4.443 8.658-8.667 13.193-12.781-.355.027-.711.049-1.063.077-66.664 5.012-135.848 11.609-200.563 30.303-.37 1.621-.771 3.233-1.119 4.859z" fill="#ed9d2b" data-original="#ed9d2b"/><path d="m572.855 230.544c-19.045-2.051-38.166-3.359-57.305-4.158-63.961-2.669-127.766 3.366-190.541 15.612-28.007 5.464-55.474 13.714-81.011 26.559-7.604 3.825-15.808 8.284-23.476 13.555-39.511 27.162-21.495 61.665 32.417 40.791 74.26-28.751 123.865-41.899 175.371-51.704 36.619-6.971 75.094-7.425 112.249-6.114 18.224.643 36.406 2.122 54.637 2.696 87.784 2.76 65.843-27.734-22.341-37.237z" fill="#fae034" data-original="#fae034"/><path d="m740.676 716.287c-21.592 3.123-47.158 12.594-68.27 26.541-38.449 25.414-22.811 44.604 15.035 41.991 19.838-1.372 39.631-5.487 58.009-11.279 58.353-18.386 52.29-65.504-4.774-57.253z" fill="#fae034" data-original="#fae034"/><path d="m710.944 683.413c53.159-3.375 106.042-9.226 157.862-22.386 5.824-38.689 6.902-78.091 5.824-117.213-.793-28.808-.717-61.521-2.9-94.608-5.581 67.154-23.57 137.755-82.836 169.902-23.602 12.804-50.289 19.731-76.938 24.787-4.457 8.59-9.436 16.991-14.961 25.158-13.546 20.029-5.081 15.572 13.949 14.36z" fill="#f2ae79" data-original="#f2ae79"/><path d="m124.234 630.051c.906 9.878 2.018 20.265 3.475 30.871 53.215 13.611 107.641 19.44 162.299 22.772 20.477 1.248 22.489 1.298 11.799-13.606-4.307-6.009-8.275-12.273-12.046-18.673-19.795-3.49-39.386-7.592-58.661-12.384-24.717-6.146-48.578-15.055-68.793-30.858-20.896-16.336-27.518-43.058-30.564-68.035-3.381-27.724-4.822-55.906-6.025-84.042-.25 3.521-.521 7.049-.731 10.55-3.232 54.09-5.716 109.377-.753 163.405z" fill="#f2ae79" data-original="#f2ae79"/><path d="m252.603 450.002c9.098-25.718 2.739-47.595-32.457-45.603-70.999 4.012-77.725 29.089-70.621 95.933 2.197 20.689 2.898 44.225 12.109 63.219 6.579 13.568 16.303 24.518 32.27 20.301 16.602-4.383 22.197-28.763 26.798-42.174 10.501-30.609 21.112-61.168 31.901-91.676z" fill="#fff6ce" data-original="#fff6ce"/><path d="m805.402 404.381c-10.01-3.263-23.443-7.142-36.707-8.635-38.849-4.371-35.572 14.248-23.105 43.188 7.154 16.613 12.162 33.959 13.004 52.598.706 15.615-2.152 31.533-2.213 47.198-.115 29.223 12.412 52.166 40.855 29.535 19.389-15.426 30.135-40.745 38.36-63.331 7.954-21.841 16.971-48.791 8.06-71.525-6.38-16.275-22.693-23.957-38.254-29.028z" fill="#fff6ce" data-original="#fff6ce"/><path d="m606.092 574.378c-39.051 56.657-118.02 79.823-178.61 45.202-42.326-24.184-60.312-74.143-61.301-120.525-.143-6.638.148-13.067.746-19.352-21.178 55.288-8.707 120.405 41.082 160.525 58.553 47.185 141.387 42.017 193.973-11.599 46.15-51.993 51.01-130.832 9.684-185.116 16.777 43.437 23.441 88.765-5.574 130.865z" fill="#7a2537" data-original="#7a2537"/><path d="m498.841 418.233c-32.025.09-60.408 18.655-79.676 43.19-17.992 22.914-26.797 53.811-16.113 81.722 12.373 32.322 50.152 46.275 81.924 48.631 42.709 3.169 86.659-22.783 104.487-59.553 29.617-61.095-7.569-114.233-90.622-113.99z" fill="#a64153" data-original="#a64153"/><g fill="#68182b"><path d="m397.244 825.92c-41.998-7.558-84.731-9.279-126.523-18.344-17.389-3.771-34.609-8.557-50.689-16.283-21.332-10.252-37.006-28.412-49.67-47.847-.354-.54-1.273-.207-1.07.449 12.162 39.305 53.115 59.513 89.803 69.043 43.813 11.386 92.744 17.998 137.953 14.438.782-.06 1.071-1.298.196-1.456z" fill="#68182b" data-original="#68182b"/><path d="m427.904 827.606c-6.977-1.605-13.793-.962-20.878-.741-.423.013-.778.611-.382.922 6.285 4.927 14.205 2.776 21.26.948.549-.143.57-.996 0-1.129z" fill="#68182b" data-original="#68182b"/><path d="m407.761 238.219c37.109-2.512 74.234-3.717 111.327-6.411 1.015-.074 1.015-1.502 0-1.574-37.305-2.648-74.01-2.165-111.327.794-35.813 2.842-72.549 6.712-106.746 18.088-.342.115-.307.71.09.664 35.535-4.231 70.912-9.142 106.656-11.561z" fill="#68182b" data-original="#68182b"/><path d="m543.797 230.796c.454-.183.613-.983 0-1.084-5.797-.967-12.762-2.617-18.051.881-.375.25-.283.751.119.904 5.701 2.189 12.385 1.525 17.932-.701z" fill="#68182b" data-original="#68182b"/><path d="m624.445 418.721c-.395-.268-.799.311-.49.635 28.126 29.695 40.828 66.355 40.621 107.002-.172 34.223-10.957 73.642-31.9 101.222-.635.834.703 1.783 1.412 1.091 52.4-51.305 54.65-166.256-9.643-209.95z" fill="#68182b" data-original="#68182b"/><path d="m629.655 634.021c-4.019 2.743-8.417 6.035-10.863 10.378-.245.432.054 1.142.62 1.081 5.444-.594 11.136-5.414 10.785-11.148-.015-.252-.301-.475-.542-.311z" fill="#68182b" data-original="#68182b"/><path d="m370.417 418.44c.152-.241-.142-.488-.371-.371-22.736 11.844-36.898 40.867-42.801 64.683-5.123 20.674-4.35 43.179 3.035 63.172.295.8 1.559.726 1.545-.209-.297-19.354-1.1-38.844 2.451-57.976 2.22-11.954 6.27-23.399 11.65-34.283 6.442-13.018 16.763-22.956 24.491-35.016z" fill="#68182b" data-original="#68182b"/></g></g></g></g></svg>