<svg xmlns="http://www.w3.org/2000/svg" version="1.1" xmlns:xlink="http://www.w3.org/1999/xlink" xmlns:svgjs="http://svgjs.com/svgjs" width="512" height="512" x="0" y="0" viewBox="0 0 512 512" style="enable-background:new 0 0 512 512" xml:space="preserve"><g>
<g xmlns="http://www.w3.org/2000/svg">
	<g>
		<g>
			<g>
				<path style="" d="M483.707,143.114l-2.079,12.297l-70.396-11.901l2.079-12.297c0.8-4.733,5.302-7.934,10.036-7.134      l53.226,8.998C481.306,133.877,484.507,138.38,483.707,143.114z" fill="#91d728" data-original="#91d728"/>
				<path style="" d="M122.695,82.08l-2.079,12.301l-43.779-7.401l2.08-12.302c0.801-4.739,5.292-7.931,10.031-7.13      l26.617,4.499C120.304,72.85,123.496,77.341,122.695,82.08z" fill="#91d728" data-original="#91d728"/>
				<path style="" d="M506.325,178.726l-42.872,253.603c-1.738,10.279-11.475,17.2-21.754,15.463L21.038,376.679      c-7.819-1.322-13.709-7.282-15.289-14.589c-0.494-2.304-0.589-4.706-0.173-7.166l42.871-253.603      c1.738-10.279,11.475-17.2,21.754-15.463l420.661,71.112c2.9,0.49,5.525,1.626,7.784,3.225      C504.359,164.241,507.573,171.347,506.325,178.726z" fill="#91d728" data-original="#91d728"/>
				<path style="" d="M506.325,178.726l-42.872,253.603c-1.738,10.279-11.475,17.2-21.754,15.463L21.038,376.679      c-7.819-1.322-13.709-7.282-15.289-14.589c-0.494-2.304-0.589-4.706-0.173-7.166l42.871-253.603      c1.738-10.279,11.475-17.2,21.754-15.463l420.661,71.112c2.9,0.49,5.525,1.626,7.784,3.225      C504.359,164.241,507.573,171.347,506.325,178.726z" fill="#91d728" data-original="#91d728"/>
			</g>
			<g style="opacity:0.5;">
				<path style="" d="M472.513,258.824l-0.001,0.008c-1.141,6.764,3.415,13.174,10.179,14.319l0.006,0.001      c2.819,0.475,5.551-0.081,7.892-1.332l3.266-19.321c-1.8-1.951-4.198-3.376-7.017-3.852      C480.071,247.503,473.659,252.059,472.513,258.824z" fill="#ffffff" data-original="#ffffff"/>
				<path style="" d="M465.296,301.517l-0.001,0.008c-1.141,6.765,3.415,13.175,10.181,14.319l0.002,0.001      c2.82,0.477,5.551-0.08,7.893-1.331l3.266-19.321c-1.8-1.952-4.198-3.376-7.018-3.853      C472.854,290.196,466.442,294.752,465.296,301.517z" fill="#ffffff" data-original="#ffffff"/>
				<path style="" d="M458.079,344.209l-0.001,0.009c-1.141,6.764,3.415,13.173,10.179,14.319l0.006,0.001      c2.819,0.475,5.551-0.081,7.892-1.332l3.266-19.321c-1.8-1.951-4.198-3.376-7.018-3.852      C465.637,332.888,459.225,337.445,458.079,344.209z" fill="#ffffff" data-original="#ffffff"/>
				<path style="" d="M450.862,386.902l-0.001,0.009c-1.142,6.765,3.415,13.174,10.181,14.319l0.002,0      c2.82,0.477,5.551-0.081,7.893-1.332l3.266-19.321c-1.8-1.951-4.198-3.376-7.017-3.853      C458.419,375.581,452.008,380.137,450.862,386.902z" fill="#ffffff" data-original="#ffffff"/>
				<path style="" d="M451.95,255.351c1.144-6.767-3.414-13.18-10.181-14.324c-6.765-1.144-13.176,3.413-14.322,10.178      l-0.001,0.008c-1.141,6.764,3.414,13.174,10.179,14.319l0.006,0.001C444.395,266.676,450.806,262.117,451.95,255.351z" fill="#ffffff" data-original="#ffffff"/>
				<path style="" d="M461.59,269.584c-4.889-0.826-9.523,2.467-10.349,7.355c-0.827,4.89,2.467,9.523,7.356,10.349      c4.889,0.826,9.522-2.467,10.348-7.357C469.771,275.043,466.479,270.41,461.59,269.584z" fill="#ffffff" data-original="#ffffff"/>
				<path style="" d="M444.733,298.045c1.144-6.767-3.414-13.18-10.181-14.324      c-6.765-1.143-13.176,3.413-14.322,10.177l-0.001,0.008c-1.141,6.765,3.415,13.176,10.18,14.319l0.002,0      C437.177,309.369,443.589,304.811,444.733,298.045z" fill="#ffffff" data-original="#ffffff"/>
				<path style="" d="M454.373,312.277c-4.889-0.827-9.523,2.467-10.349,7.356c-0.827,4.889,2.468,9.522,7.356,10.348      c4.889,0.826,9.522-2.467,10.348-7.355C462.554,317.737,459.261,313.103,454.373,312.277z" fill="#ffffff" data-original="#ffffff"/>
				<path style="" d="M437.516,340.738c1.144-6.767-3.414-13.18-10.181-14.324      c-6.765-1.144-13.176,3.413-14.322,10.177l-0.001,0.009c-1.141,6.764,3.414,13.173,10.179,14.319l0.006,0.001      C429.961,352.061,436.372,347.503,437.516,340.738z" fill="#ffffff" data-original="#ffffff"/>
				<path style="" d="M447.155,354.97c-4.889-0.826-9.523,2.466-10.349,7.355c-0.826,4.889,2.468,9.522,7.357,10.348      c4.889,0.826,9.522-2.467,10.348-7.355C455.337,360.429,452.044,355.796,447.155,354.97z" fill="#ffffff" data-original="#ffffff"/>
				<path style="" d="M430.298,383.43c1.144-6.767-3.414-13.18-10.181-14.324c-6.765-1.144-13.176,3.413-14.322,10.177      l-0.001,0.009c-1.141,6.765,3.415,13.174,10.18,14.319l0.002,0C422.743,394.754,429.154,390.197,430.298,383.43z" fill="#ffffff" data-original="#ffffff"/>
				<path style="" d="M406.883,247.733c1.144-6.767-3.414-13.18-10.181-14.324      c-6.765-1.144-13.176,3.413-14.323,10.176l-0.002,0.011c-1.14,6.764,3.415,13.174,10.179,14.318l0.006,0.001      C399.327,259.057,405.739,254.499,406.883,247.733z" fill="#ffffff" data-original="#ffffff"/>
				<path style="" d="M416.522,261.965c-4.889-0.826-9.522,2.467-10.348,7.355c-0.827,4.89,2.467,9.523,7.355,10.349      c4.889,0.827,9.522-2.467,10.348-7.357C424.703,267.425,421.41,262.792,416.522,261.965z" fill="#ffffff" data-original="#ffffff"/>
				<path style="" d="M399.666,290.426c1.144-6.767-3.414-13.18-10.181-14.324      c-6.765-1.143-13.176,3.412-14.323,10.176l-0.002,0.011c-1.14,6.764,3.417,13.173,10.181,14.317l0.002,0      C392.11,301.751,398.522,297.192,399.666,290.426z" fill="#ffffff" data-original="#ffffff"/>
				<path style="" d="M409.305,304.658c-4.889-0.827-9.522,2.468-10.348,7.356c-0.826,4.889,2.467,9.522,7.355,10.348      c4.889,0.827,9.522-2.467,10.348-7.355C417.486,310.118,414.193,305.484,409.305,304.658z" fill="#ffffff" data-original="#ffffff"/>
				<path style="" d="M392.449,333.119c1.144-6.767-3.414-13.18-10.181-14.324      c-6.765-1.144-13.176,3.413-14.323,10.176l-0.002,0.011c-1.14,6.764,3.416,13.172,10.179,14.318l0.006,0.001      C384.893,344.442,391.305,339.885,392.449,333.119z" fill="#ffffff" data-original="#ffffff"/>
				<path style="" d="M402.087,347.351c-4.889-0.826-9.522,2.466-10.348,7.355c-0.826,4.889,2.467,9.522,7.355,10.348      c4.888,0.826,9.522-2.467,10.348-7.355C410.269,352.81,406.976,348.178,402.087,347.351z" fill="#ffffff" data-original="#ffffff"/>
				<path style="" d="M385.231,375.811c1.144-6.767-3.414-13.18-10.182-14.324      c-6.765-1.144-13.176,3.413-14.323,10.176l-0.002,0.011c-1.14,6.764,3.417,13.174,10.181,14.318l0.002,0      C377.676,387.136,384.087,382.578,385.231,375.811z" fill="#ffffff" data-original="#ffffff"/>
				<path style="" d="M337.311,235.968l-0.001,0.008c-1.141,6.764,3.414,13.174,10.179,14.319l0.006,0.001      c6.766,1.143,13.177-3.416,14.321-10.182c1.144-6.767-3.414-13.18-10.181-14.324      C344.868,224.647,338.457,229.203,337.311,235.968z" fill="#ffffff" data-original="#ffffff"/>
				<path style="" d="M371.455,254.347c-4.89-0.827-9.523,2.466-10.349,7.355c-0.827,4.89,2.467,9.523,7.356,10.349      c4.889,0.827,9.522-2.466,10.348-7.356C379.636,259.806,376.343,255.173,371.455,254.347z" fill="#ffffff" data-original="#ffffff"/>
				<path style="" d="M364.237,297.039c-4.89-0.827-9.523,2.468-10.349,7.356c-0.826,4.889,2.467,9.522,7.357,10.348      c4.888,0.827,9.522-2.467,10.348-7.355C372.419,302.5,369.126,297.866,364.237,297.039z" fill="#ffffff" data-original="#ffffff"/>
				<path style="" d="M357.02,339.733c-4.89-0.827-9.523,2.466-10.349,7.355c-0.826,4.889,2.467,9.522,7.356,10.348      c4.889,0.827,9.522-2.467,10.348-7.355C365.202,345.192,361.909,340.559,357.02,339.733z" fill="#ffffff" data-original="#ffffff"/>
				<path style="" d="M340.163,368.192c1.144-6.767-3.415-13.18-10.182-14.324      c-6.765-1.144-13.176,3.413-14.322,10.177l-0.002,0.009c-1.141,6.765,3.415,13.174,10.18,14.319l0.003,0.001      C332.608,379.517,339.019,374.959,340.163,368.192z" fill="#ffffff" data-original="#ffffff"/>
				<path style="" d="M285.026,271.042l-0.001,0.008c-1.141,6.765,3.415,13.176,10.181,14.319l0.002,0      c6.767,1.144,13.179-3.414,14.323-10.181c1.144-6.767-3.414-13.18-10.181-14.324      C292.583,259.722,286.172,264.278,285.026,271.042z" fill="#ffffff" data-original="#ffffff"/>
				<path style="" d="M239.959,263.423l-0.001,0.008c-1.141,6.765,3.415,13.176,10.18,14.319l0.003,0      c6.766,1.144,13.178-3.414,14.322-10.181c1.144-6.767-3.414-13.18-10.182-14.324      C247.516,252.103,241.104,256.659,239.959,263.423z" fill="#ffffff" data-original="#ffffff"/>
				<path style="" d="M274.102,281.802c-4.889-0.826-9.522,2.468-10.348,7.357c-0.826,4.888,2.467,9.521,7.355,10.348      c4.889,0.826,9.522-2.467,10.348-7.355C282.284,287.262,278.991,282.628,274.102,281.802z" fill="#ffffff" data-original="#ffffff"/>
				<path style="" d="M257.245,310.263c1.144-6.767-3.414-13.18-10.181-14.324      c-6.765-1.143-13.176,3.413-14.322,10.177l-0.002,0.009c-1.141,6.764,3.414,13.173,10.179,14.319l0.006,0.001      C249.691,321.586,256.101,317.029,257.245,310.263z" fill="#ffffff" data-original="#ffffff"/>
				<path style="" d="M229.034,274.183c-4.889-0.826-9.522,2.468-10.348,7.357c-0.827,4.888,2.466,9.522,7.355,10.348      c4.889,0.826,9.522-2.467,10.348-7.355C237.216,279.644,233.923,275.01,229.034,274.183z" fill="#ffffff" data-original="#ffffff"/>
				<path style="" d="M157.041,205.494l-0.001,0.008c-1.141,6.764,3.415,13.174,10.179,14.319l0.006,0.001      c6.766,1.143,13.177-3.416,14.321-10.182c1.144-6.767-3.414-13.18-10.181-14.324      C164.598,194.172,158.187,198.728,157.041,205.494z" fill="#ffffff" data-original="#ffffff"/>
				<path style="" d="M183.967,266.564c-4.889-0.826-9.523,2.468-10.349,7.356c-0.826,4.888,2.468,9.522,7.356,10.348      c4.889,0.826,9.522-2.467,10.348-7.355C192.149,272.025,188.856,267.391,183.967,266.564z" fill="#ffffff" data-original="#ffffff"/>
				<path style="" d="M159.893,337.718c1.144-6.767-3.414-13.18-10.181-14.324      c-6.765-1.144-13.176,3.412-14.322,10.177l-0.001,0.009c-1.141,6.765,3.415,13.174,10.18,14.319l0.003,0      C152.337,349.042,158.749,344.485,159.893,337.718z" fill="#ffffff" data-original="#ffffff"/>
				<path style="" d="M111.972,197.875l-0.001,0.008c-1.141,6.764,3.415,13.175,10.179,14.319l0.007,0.001      c6.765,1.143,13.177-3.416,14.32-10.182c1.144-6.767-3.414-13.18-10.181-14.324C119.53,186.553,113.118,191.109,111.972,197.875      z" fill="#ffffff" data-original="#ffffff"/>
				<path style="" d="M146.116,216.253c-4.889-0.826-9.521,2.467-10.348,7.355c-0.827,4.89,2.466,9.523,7.355,10.349      c4.89,0.827,9.523-2.466,10.349-7.356C154.299,221.713,151.006,217.08,146.116,216.253z" fill="#ffffff" data-original="#ffffff"/>
				<path style="" d="M104.755,240.567l-0.001,0.008c-1.141,6.765,3.415,13.176,10.181,14.319l0.002,0      c6.767,1.144,13.179-3.415,14.323-10.18c1.144-6.767-3.414-13.18-10.181-14.324      C112.313,229.247,105.901,233.803,104.755,240.567z" fill="#ffffff" data-original="#ffffff"/>
				<path style="" d="M138.899,258.946c-4.889-0.826-9.522,2.468-10.348,7.357c-0.827,4.888,2.467,9.522,7.355,10.348      c4.89,0.827,9.523-2.466,10.349-7.355C147.081,264.406,143.789,259.772,138.899,258.946z" fill="#ffffff" data-original="#ffffff"/>
				<path style="" d="M122.043,287.407c1.144-6.767-3.414-13.18-10.181-14.324      c-6.766-1.144-13.177,3.413-14.323,10.177l-0.001,0.009c-1.141,6.764,3.415,13.173,10.179,14.319l0.007,0.001      C114.487,298.73,120.899,294.173,122.043,287.407z" fill="#ffffff" data-original="#ffffff"/>
				<path style="" d="M131.682,301.639c-4.889-0.827-9.522,2.467-10.348,7.355c-0.826,4.889,2.467,9.522,7.355,10.348      c4.89,0.827,9.523-2.466,10.349-7.355C139.864,307.099,136.571,302.466,131.682,301.639z" fill="#ffffff" data-original="#ffffff"/>
				<path style="" d="M114.826,330.099c1.144-6.767-3.414-13.18-10.181-14.324      c-6.766-1.144-13.177,3.413-14.323,10.177l-0.001,0.009c-1.142,6.765,3.415,13.174,10.181,14.319l0.002,0      C107.27,341.424,113.682,336.866,114.826,330.099z" fill="#ffffff" data-original="#ffffff"/>
				<path style="" d="M66.905,190.256l-0.001,0.008c-1.141,6.764,3.414,13.174,10.179,14.319l0.006,0.001      c6.766,1.143,13.177-3.416,14.321-10.182c1.144-6.767-3.414-13.18-10.18-14.324C74.463,178.935,68.051,183.491,66.905,190.256z" fill="#ffffff" data-original="#ffffff"/>
				<path style="" d="M101.049,208.635c-4.889-0.826-9.521,2.467-10.348,7.355c-0.827,4.89,2.466,9.523,7.355,10.349      c4.889,0.826,9.521-2.466,10.348-7.356C109.231,214.094,105.937,209.461,101.049,208.635z" fill="#ffffff" data-original="#ffffff"/>
				<path style="" d="M59.688,232.949l-0.001,0.008c-1.141,6.765,3.415,13.176,10.18,14.319l0.004,0.001      c6.766,1.144,13.178-3.415,14.321-10.181c1.144-6.767-3.414-13.18-10.18-14.324C67.245,221.628,60.834,226.184,59.688,232.949z" fill="#ffffff" data-original="#ffffff"/>
				<path style="" d="M93.832,251.327c-4.889-0.826-9.522,2.468-10.348,7.356c-0.826,4.889,2.467,9.522,7.355,10.348      c4.889,0.826,9.522-2.467,10.348-7.355S98.72,252.153,93.832,251.327z" fill="#ffffff" data-original="#ffffff"/>
				<path style="" d="M76.975,279.788c1.144-6.767-3.414-13.18-10.18-14.324c-6.766-1.144-13.177,3.413-14.323,10.177      l-0.001,0.009c-1.141,6.764,3.414,13.173,10.179,14.319l0.006,0.001C69.42,291.112,75.831,286.554,76.975,279.788z" fill="#ffffff" data-original="#ffffff"/>
				<path style="" d="M86.614,294.021c-4.888-0.826-9.522,2.467-10.348,7.355c-0.826,4.889,2.467,9.522,7.355,10.348      c4.888,0.826,9.521-2.466,10.348-7.355C94.796,299.48,91.503,294.847,86.614,294.021z" fill="#ffffff" data-original="#ffffff"/>
				<path style="" d="M69.758,322.481c1.144-6.767-3.414-13.18-10.18-14.324c-6.766-1.144-13.177,3.413-14.323,10.177      l-0.002,0.009c-1.141,6.765,3.416,13.174,10.18,14.319l0.004,0.001C62.202,333.805,68.613,329.248,69.758,322.481z" fill="#ffffff" data-original="#ffffff"/>
				<path style="" d="M36.41,172.529l-4.134,24.454c6.67,0.985,12.937-3.518,14.066-10.199      C47.471,180.104,43.034,173.791,36.41,172.529z" fill="#ffffff" data-original="#ffffff"/>
				<path style="" d="M55.981,201.016c-4.889-0.826-9.522,2.467-10.348,7.355c-0.827,4.89,2.467,9.523,7.355,10.349      c4.889,0.826,9.523-2.467,10.349-7.356C64.164,206.476,60.869,201.842,55.981,201.016z" fill="#ffffff" data-original="#ffffff"/>
				<path style="" d="M39.125,229.477c1.129-6.681-3.308-12.994-9.932-14.256l-4.134,24.454      C31.729,240.661,37.995,236.157,39.125,229.477z" fill="#ffffff" data-original="#ffffff"/>
				<path style="" d="M45.771,261.413c4.889,0.826,9.523-2.466,10.349-7.355c0.826-4.889-2.468-9.523-7.356-10.349      c-4.888-0.827-9.521,2.468-10.348,7.356C37.589,255.953,40.882,260.586,45.771,261.413z" fill="#ffffff" data-original="#ffffff"/>
				<path style="" d="M31.908,272.17c1.129-6.68-3.309-12.993-9.932-14.256l-4.134,24.454      C24.512,283.353,30.778,278.85,31.908,272.17z" fill="#ffffff" data-original="#ffffff"/>
				<path style="" d="M41.546,286.402c-4.888-0.827-9.521,2.467-10.348,7.355c-0.826,4.889,2.467,9.522,7.355,10.348      c4.889,0.826,9.522-2.466,10.349-7.355C49.729,291.862,46.435,287.229,41.546,286.402z" fill="#ffffff" data-original="#ffffff"/>
				<path style="" d="M24.69,314.862c1.129-6.68-3.308-12.993-9.932-14.255l-4.134,24.454      C17.295,326.046,23.561,321.542,24.69,314.862z" fill="#ffffff" data-original="#ffffff"/>
			</g>
			<g>
				<path style="" d="M469.722,395.252l-6.268,37.078c-1.738,10.279-11.475,17.2-21.754,15.463L21.038,376.679      c-10.279-1.738-17.2-11.475-15.463-21.754l6.268-37.078L469.722,395.252z" fill="#00b0c4" data-original="#00b0c4"/>
				<path style="" d="M506.325,178.726l-12.414,73.436L36.033,174.758l12.414-73.436      c1.738-10.279,11.475-17.2,21.754-15.463l420.661,71.112C501.142,158.71,508.063,168.447,506.325,178.726z" fill="#00b0c4" data-original="#00b0c4"/>
			</g>
			<path style="opacity:0.25;" d="M506.325,178.726l-42.872,253.603c-1.738,10.279-11.475,17.2-21.754,15.463     L21.038,376.679c-7.819-1.322-13.709-7.282-15.289-14.589c14.763-28.459,58.497-71.541,180.24-37.882     c227.02,62.764,291.172-95.642,312.657-164.012C504.359,164.241,507.573,171.347,506.325,178.726z" fill="#000e3f" data-original="#000e3f"/>
			<g>
				<path style="" d="M216.298,97.909l-2.079,12.297l-70.396-11.901l2.079-12.297c0.8-4.733,5.303-7.934,10.037-7.134      l53.249,9.002C213.921,88.676,217.098,93.175,216.298,97.909z" fill="#ffcf00" data-original="#ffcf00"/>
				<path style="" d="M454.272,176.059l-6.99,41.348c-0.886,5.243-5.85,8.771-11.094,7.885l-170.516-28.826      c-5.243-0.886-8.772-5.85-7.885-11.094l6.99-41.348c0.887-5.243,5.85-8.772,11.094-7.885l170.516,28.826      C451.63,165.852,455.158,170.816,454.272,176.059z" fill="#ffcf00" data-original="#ffcf00"/>
			</g>
			<g>
				
					<rect x="322.538" y="172.19" transform="matrix(0.1667 -0.986 0.986 0.1667 116.5629 498.3739)" style="" width="61.183" height="16.072" fill="#fd8a02" data-original="#fd8a02"/>
				
					<rect x="352.702" y="177.289" transform="matrix(0.1667 -0.986 0.986 0.1667 136.6707 532.3643)" style="" width="61.182" height="16.072" fill="#fd8a02" data-original="#fd8a02"/>
				
					<rect x="382.865" y="182.388" transform="matrix(0.1667 -0.986 0.986 0.1667 156.7784 566.3547)" style="" width="61.182" height="16.072" fill="#fd8a02" data-original="#fd8a02"/>
				<path style="" d="M454.272,176.059l-6.99,41.348c-0.886,5.243-5.85,8.771-11.094,7.885l-6.358-1.075l10.198-60.327      l6.358,1.075C451.63,165.852,455.158,170.816,454.272,176.059z" fill="#fd8a02" data-original="#fd8a02"/>
				<path style="" d="M287.53,188.427l24.693,4.175c3.539,0.598,6.893-1.786,7.492-5.325l4.174-24.693      c0.598-3.539-1.786-6.893-5.325-7.492l-24.693-4.174c-3.539-0.598-6.894,1.786-7.492,5.325l-4.174,24.693      C281.607,184.475,283.991,187.829,287.53,188.427z" fill="#fd8a02" data-original="#fd8a02"/>
				<path style="" d="M202.2,76.552l-1.667,9.861l-35.964-6.08l1.667-9.861c0.722-4.269,4.764-7.142,9.033-6.421      l20.535,3.471C200.049,68.241,202.922,72.283,202.2,76.552z" fill="#fd8a02" data-original="#fd8a02"/>
			</g>
			<g>
				<path style="" d="M166.618,171.802c-4.277-6.407,1.267-12.856,8.654-14.17c11.449-2.036,21.603,2.758,25.219,8.258      C210.191,180.647,176.995,187.346,166.618,171.802z" fill="#fc09b2" data-original="#fc09b2"/>
				<path style="" d="M112.988,162.735c6.145-4.645,3.03-12.558-3.515-16.227c-10.144-5.686-21.309-4.496-26.532-0.49      C68.929,156.766,98.078,174.005,112.988,162.735z" fill="#fc09b2" data-original="#fc09b2"/>
			</g>
			<path style="opacity:0.5;" d="M216.298,97.909l-2.079,12.297l-44.78-7.57c7.518-5.65,12.191-12.545,15.085-18.929     l24.64,4.166C213.897,88.672,217.098,93.175,216.298,97.909z" fill="#fd8a02" data-original="#fd8a02"/>
			
				<ellipse transform="matrix(0.7071 -0.7071 0.7071 0.7071 -131.8107 263.2836)" style="" cx="251.906" cy="290.751" rx="108.689" ry="108.689" fill="#00b0c4" data-original="#00b0c4"/>
			
				<ellipse transform="matrix(0.9772 -0.2123 0.2123 0.9772 -55.9727 60.0921)" style="" cx="251.906" cy="290.751" rx="95.26" ry="95.26" fill="#ffcf00" data-original="#ffcf00"/>
			<g>
				<path style="" d="M329.194,303.813c-7.217,42.693-47.661,71.439-90.353,64.222      c-28.957-4.895-51.511-25.08-60.751-50.889c-4.401-12.224-5.794-25.728-3.471-39.464c7.217-42.692,47.661-71.439,90.353-64.222      c31.625,5.346,55.586,28.919,62.962,58.136C330.526,281.819,331.065,292.745,329.194,303.813z" fill="#ffffff" data-original="#ffffff"/>
				<path style="" d="M293.766,170.191c-0.867,5.126,2.586,9.983,7.712,10.85c5.126,0.867,9.984-2.586,10.85-7.712      c0.867-5.126-2.586-9.984-7.712-10.85C299.49,161.612,294.632,165.065,293.766,170.191z" fill="#ffffff" data-original="#ffffff"/>
			</g>
			<g style="opacity:0.25;">
				<path style="" d="M329.194,303.813c-7.217,42.693-47.661,71.439-90.353,64.222      c-28.957-4.895-51.511-25.08-60.751-50.889c10.507-6.529,26.084-12.867,43.999-4.042c60.211,29.66,87.186-7.934,105.845-41.509      C330.526,281.819,331.065,292.745,329.194,303.813z" fill="#000e3f" data-original="#000e3f"/>
				<path style="" d="M196.301,268.779c-3.361-8.891,36.225-47.353,76.861-36.447      c5.007,1.344,24.939,8.731,18.852,16.15c-4.302,5.243-18.952,3.277-24.812,3.152c-23.833-0.505-38.772,6.701-57.954,13.952      C206.901,266.474,198.036,273.367,196.301,268.779z" fill="#000e3f" data-original="#000e3f"/>
				<path style="" d="M483.707,143.114l-2.079,12.297l-44.78-7.57c7.518-5.65,12.191-12.545,15.085-18.929l24.64,4.165      C481.306,133.877,484.507,138.38,483.707,143.114z" fill="#000e3f" data-original="#000e3f"/>
				<path style="" d="M122.694,82.085l-2.079,12.297l-35.17-5.945c7.679-3.07,15.517-11.983,18.032-18.431      l13.926,2.354C121.12,72.988,123.495,77.351,122.694,82.085z" fill="#000e3f" data-original="#000e3f"/>
			</g>
		</g>
		<g>
			<path style="" d="M195.804,67.523c4.245,0.718,7.118,4.76,6.397,9.029l-1.667,9.861l8.631,1.459l0.024,0.004     c4.733,0.8,7.91,5.299,7.11,10.033l-2.079,12.297l197.013,33.305l2.079-12.297c0.8-4.733,5.302-7.934,10.036-7.134l28.586,4.832     l24.64,4.166c4.733,0.8,7.934,5.303,7.134,10.037l-2.079,12.297c0.777,0.171,1.545,0.315,2.307,0.444     c1.828,0.309,3.609,0.53,5.349,0.824c3.266,0.552,6.382,1.366,9.362,3.518c5.751,4.024,8.901,11.3,7.679,18.529l-12.414,73.437     l-24.189,143.09l-6.268,37.077c-1.738,10.28-11.475,17.201-21.754,15.464L21.039,376.68c-5.797-0.98-10.574-4.533-13.295-9.354     c-4.747-8.541-1.641-12.228,4.1-49.478l24.189-143.09l12.414-73.437c1.738-10.278,11.475-17.199,21.754-15.462l6.634,1.121     l2.08-12.301c0.801-4.74,5.292-7.931,10.031-7.13l14.53,2.456l12.087,2.043l1.839,0.311c3.711,0.628,6.083,4.979,5.293,9.703     c-0.001,0.006-0.001,0.01-0.002,0.017l-0.001,0.005l-2.079,12.297l23.208,3.923l2.079-12.297c0.8-4.733,5.303-7.934,10.037-7.134     l8.631,1.459l1.667-9.861c0.721-4.269,4.764-7.142,9.033-6.42L195.804,67.523 M196.706,62.187l-20.534-3.471     c-7.203-1.218-14.053,3.651-15.271,10.855l-0.765,4.525l-3.295-0.557c-7.677-1.298-14.977,3.891-16.275,11.568l-1.177,6.961     l-12.536-2.119l1.176-6.961c0.007-0.043,0.015-0.087,0.021-0.133c1.221-7.629-3.133-14.713-9.746-15.831l-1.839-0.311     l-12.087-2.043l-14.53-2.456c-7.675-1.297-14.972,3.89-16.27,11.564l-1.178,6.965l-1.298-0.22     c-13.203-2.232-25.76,6.692-27.992,19.896l-12.414,73.437L6.508,316.946c-1.611,10.445-2.981,18.066-4.08,24.191     c-2.896,16.118-3.77,20.983,0.585,28.819c3.641,6.45,9.875,10.835,17.123,12.06l420.661,71.112     c13.203,2.232,25.761-6.694,27.993-19.898l6.268-37.077l24.189-143.09l12.414-73.437c1.555-9.196-2.336-18.563-9.913-23.866     c-3.916-2.831-8.046-3.826-11.562-4.42c-0.766-0.13-1.539-0.245-2.321-0.36l1.177-6.965c1.298-7.677-3.891-14.977-11.568-16.275     l-24.64-4.166l-28.586-4.832c-7.676-1.298-14.976,3.892-16.274,11.568l-1.177,6.961l-186.341-31.501l1.177-6.961     c1.298-7.677-3.881-14.975-11.544-16.271l-3.319-0.561l0.765-4.525C208.754,70.251,203.895,63.403,196.706,62.187L196.706,62.187     z" fill="#000e3f" data-original="#000e3f"/>
			<path style="" d="M118.293,124.153c-1.086,6.54-6.734,10.417-12.939,9.488c-6.27-0.939-10.599-7.181-9.545-12.963     c1.139-6.249,6.72-10.29,13.018-9.3C115.253,112.389,119.36,117.931,118.293,124.153z" fill="#000e3f" data-original="#000e3f"/>
			<path style="" d="M183.079,146.836c-5.64-0.802-10.215-7.445-9.052-12.955c1.049-4.968,5.622-10.368,13.168-9.262     C201.574,126.725,198.789,149.07,183.079,146.836z" fill="#000e3f" data-original="#000e3f"/>
			<g>
				<path style="" d="M141.144,157.993c-2.653-0.449-5.18-1.553-7.341-3.285c-6.567-5.26-8.894-15.147-6.387-27.126      c0.306-1.464,1.745-2.411,3.204-2.093c1.464,0.306,2.4,1.74,2.095,3.203c-2.076,9.911-0.445,17.854,4.471,21.792      c3.243,2.599,7.564,3.069,11.562,1.254c5.882-2.674,9.621-9.556,9.999-18.411c0.064-1.493,1.325-2.652,2.817-2.588      c1.512,0.074,2.654,1.328,2.588,2.819c-0.464,10.935-5.388,19.573-13.166,23.108      C147.799,158.113,144.375,158.539,141.144,157.993z" fill="#000e3f" data-original="#000e3f"/>
			</g>
			<path style="" d="M270.023,183.583c59.187,10.005,99.056,66.098,89.051,125.285     c-10.006,59.188-66.098,99.058-125.285,89.052c-59.188-10.006-99.058-66.098-89.052-125.286     C154.743,213.447,210.835,173.577,270.023,183.583 M270.925,178.246c-62.036-10.487-121.037,31.45-131.524,93.486     c-10.487,62.036,31.45,121.037,93.486,131.524c62.035,10.487,121.036-31.45,131.523-93.486     C374.897,247.734,332.96,188.733,270.925,178.246L270.925,178.246z" fill="#000e3f" data-original="#000e3f"/>
		</g>
	</g>
</g>















</g></svg>