<svg xmlns="http://www.w3.org/2000/svg" version="1.1" xmlns:xlink="http://www.w3.org/1999/xlink" xmlns:svgjs="http://svgjs.com/svgjs" width="512" height="512" x="0" y="0" viewBox="0 0 1000 1000" style="enable-background:new 0 0 512 512" xml:space="preserve"><g><g xmlns="http://www.w3.org/2000/svg"><path d="m114.593 576.885c2.479.512 4.756.975 6.686 1.461 24.18 6.094 48.844 17.633 75.033 35.137-.705 1.707-1.4 3.424-2.084 5.152-3.775 9.557-6.998 19.223-10.115 28.572-1.961 5.885-3.918 11.768-6.012 17.596-2.896 8.064-6.924 15.912-11.186 24.219-3.109 6.064-6.328 12.334-9.246 18.984-8.779 20-7.572 37.131 3.594 50.91 8.471 10.453 22.268 15.752 41.013 15.756h.003c9.318 0 18.539-1.242 25.271-2.148 1.802-.24 3.455-.465 4.912-.635 16.451-1.908 33.237-5.322 50.754-10.336-1.592 21.176-.238 41.492 4.057 61.473 3.463 16.102 17.542 69.83 53.401 85.23 4.538 1.949 9.13 2.936 13.651 2.936 27.472 0 34.751-30.777 38.248-45.568.484-2.039.885-3.83 1.293-5.154 6.297-20.385 23.73-38.395 42.189-54.645 7.791 24.674 14.947 48.359 19.539 72.893 5.963 31.871 20.553 48.029 43.365 48.029 2.443 0 4.974-.215 7.521-.635 30.904-5.094 53.736-39.588 68.848-62.412 1.533-2.318 2.975-4.494 4.316-6.473 9.561-14.09 17.889-29.523 24.898-46.109 15.066 11.883 31.047 22.258 47.75 30.992l2.977 1.568c14.078 7.445 37.639 19.906 58.635 19.906 8.354 0 15.803-1.92 22.143-5.699 29.113-17.361 16.273-50.191 10.789-64.211-.52-1.326-1.02-2.605-1.475-3.82-7.906-21.125-7.387-44.285-6.076-68.766 9.004 3.318 17.994 7.137 26.9 11.424 2.959 1.422 7.887 5.01 12.648 8.477 13.457 9.797 28.709 20.898 46.043 20.898 2.047 0 4.084-.162 6.059-.48 31.506-5.098 30.35-40.699 29.971-52.398l-.045-1.43c-.863-28.928-9.385-59.363-26.049-93.049-2.627-5.311-5.473-10.568-8.529-15.754 13.371-1.648 27.008-2.783 40.656-2.783 5.721 0 11.342.205 16.705.609 1.156.088 2.436.227 3.795.373 3.617.385 8.121.863 12.861.863 24.426 0 33.424-13.746 36.609-21.939 9.928-25.516-8.178-48.65-18.996-62.473-1.125-1.438-2.201-2.813-3.193-4.121-11.908-15.728-25.24-29.669-38.623-42.454.938-1.019 1.859-2.044 2.768-3.073 10.037-11.392 18.688-24.785 27.225-42.153l1.653-3.297c6.845-13.525 17.188-33.966 10.38-52.045-5.436-14.433-16.883-22.71-31.41-22.71-11.76 0-22.619 5.422-32.199 10.205-3.277 1.637-7.355 3.672-9.211 4.207-6.711 1.932-13.969 2.871-22.191 2.871-16.531.003-34.025-3.838-51.26-8.171 7.131-16.146 12.574-32.572 17.898-48.628 2.889-8.718 5.877-17.732 9.055-26.422 1.873-5.124 5.57-10.712 9.484-16.629 5.537-8.369 11.813-17.856 14.938-29.196 5.973-21.642-2.959-33.087-8.816-37.982-10.473-8.754-24.674-13.195-42.215-13.195-17.168 0-34.613 4.057-48.631 7.315-2.58.598-5.023 1.167-7.293 1.666-28.637 6.29-57.156 17.09-85.078 32.196-1.469-5.315-2.99-10.551-4.494-15.716-6.623-22.759-12.881-44.258-12.932-67.008-.004-1.471.033-3.11.07-4.868.336-15.734 1.229-57.532-36.684-60.766-1.568-.133-3.139-.198-4.705-.198-33.545 0-61.654 29.815-80.251 49.545l-2.848 3.014c-15.525 16.374-29.227 34.791-40.484 54.31-15.959-18.988-34.621-35.648-55.861-49.817-23.363-15.585-50.518-31.517-74.781-31.517-10.5 0-19.598 2.94-27.043 8.738-15.518 12.084-17.863 28.715-18.174 41.852-.344 14.585 2.246 28.823 4.752 42.59 1.432 7.872 2.783 15.307 3.506 22.354l1.07 10.695c2.372 24.014 4.803 48.603 11.072 72.874-9.096-.782-18.145-1.461-27.018-2.125-20.531-1.54-41.76-3.13-62.221-5.938-3.332-.459-9.432-2.147-15.329-3.782-12.802-3.548-28.733-7.962-43.194-7.962-13.647 0-24.529 3.928-32.341 11.677-21.983 21.806-7.53 54.018.233 71.323.809 1.799 1.561 3.472 2.205 4.987 13.883 32.743 29.813 59.983 48.273 82.445-18.693 6.19-36.451 14.311-53.113 24.304-17.551 10.53-58.656 35.19-49.331 69.09 7.008 25.476 35.811 31.421 53.022 34.974z" fill="#ffffff" data-original="#ffffff"/><g><path d="m126.063 559.357c34.311 8.648 66.232 26.59 94.689 47.32-2.961 6.227-5.73 12.615-8.313 19.152-5.911 14.961-10.474 30.457-15.911 45.594-5.593 15.57-14.32 29.395-20.929 44.451-4.597 10.473-6.704 21.357.877 30.715 10.775 13.299 40.208 7.416 53.728 5.848 26.316-3.053 51.988-10.127 76.775-19.34-5.851 28.615-6.768 56.951-.562 85.814 4.962 23.086 18.321 61.189 41.985 71.352 19.636 8.436 23.513-25.078 26.753-35.574 10.641-34.449 43.635-59.99 70.691-82.881 10.621 34.168 22.396 68.063 28.994 103.309 3.045 16.275 8.74 34.924 28.455 31.674 25.148-4.145 47.166-41.432 60.145-60.559 14.242-20.994 24.893-44.268 32.482-68.449 19.658 18.641 41.283 34.342 65.439 46.973 14.771 7.721 47.68 26.436 64.654 16.311 16.439-9.803 6.078-30.795 1.006-44.348-12.289-32.83-7.244-67.914-5.988-102.025 18.465 5.023 36.451 11.898 53.639 20.172 14.111 6.789 35.961 29.99 53.135 27.211 15.145-2.451 13.816-22.604 13.48-33.914-.887-29.674-10.996-58.609-24.027-84.949-6.766-13.678-15.088-26.9-24.639-39.293 30.645-4.953 61.398-9.193 92.496-6.844 10.15.768 28.461 4.783 33.543-8.279 6.627-17.031-10.175-35.285-19.551-47.672-15.004-19.813-33.018-37.229-51.398-53.9 5.766-5.06 11.268-10.499 16.461-16.393 9.967-11.313 17.717-24.364 24.342-37.841 4.848-9.872 15.516-28.569 11.283-39.809-8.518-22.619-34.813-.49-49.076 3.618-32.281 9.296-68.279-1.232-99.68-9.23-2.529-.646-5.07-1.291-7.619-1.932 17.203-29.788 25.244-62.611 36.988-94.728 5.707-15.609 19.627-28.67 23.939-44.31 1.521-5.509 2.627-13.465-2.5-17.751-19.848-16.593-58.908-5.048-81.379-.112-36.182 7.946-70.889 23.476-102.111 43.316-7.516-38.41-24.084-73.015-24.176-112.926-.031-14.549 3.35-44.285-18.695-46.165-27.664-2.359-54.84 28.299-71.93 46.322-21.298 22.46-39.332 49.605-51.496 78.118-18.189-28.268-41.396-51.779-69.604-70.594-16.2-10.806-59.037-39.574-79.25-23.834-8.678 6.757-10.381 16.346-10.628 26.864-.483 20.409 6.076 42.12 8.161 62.488 3.799 37.15 6.213 73.725 20.836 108.111-3.477-.411-6.92-.798-10.307-1.165-36.54-3.948-73.335-5.048-109.77-10.049-17.666-2.427-59.02-20.832-74.409-5.565-13.978 13.865.716 40.712 6.675 54.767 15.897 37.494 36.776 73 67.098 100.562-28.226 5.676-54.814 15.579-79.73 30.526-12.973 7.782-46.09 27.554-40.686 47.201 4.582 16.646 32.396 19.31 45.615 22.642z" fill="#68182b" data-original="#68182b"/><path d="m110.19 543.498c-12.588-3.318-14.929-8.029.223-14.445 30.121-12.742 62.404-14.596 94.801-5.047 17.008 5.014 33.135 9.703 51.016 8.693 7.754-.439 15.33-2.068 22.764-4.279-21.93 19.002-39.352 41.918-53.051 67.93-35.498-25.559-73.417-41.711-115.753-52.852z" fill="#ffa0b9" data-original="#ffa0b9"/><path d="m201.253 690.254c11.402-24.357 17.525-50.93 28.176-75.639 18.635-43.242 49.83-78.072 90.711-101.143 28.706 4.201 57.916 3.238 85.123-3.326-2.018 7.695.264 14.076 6.613 20.229 1.84 1.779 3.387 3.256 4.707 4.557-18.143 11.441-27.99 31.848-37.891 50.297-13.573 25.295-26.357 50.234-45.484 71.939-17.946 20.363-40.406 36.402-63.936 49.656-20.848 11.742-44.668 23.492-68.934 28.291-17.699 3.506-22.25 1.936-14.202-16.73 4.961-11.5 13.222-24.088 15.117-28.131z" fill="#ff5671" data-original="#ff5671" class=""/><path d="m256.516 736.246c-14.44 3.361-43.397 11.404-61.995 6.744 20.55-3.201 39.742-11.889 58.863-20.473 23.612-10.6 45.397-24.75 65.154-41.416 20.337-17.154 36.192-38.289 49.458-61.197 14.875-25.684 26.523-63.797 53.193-79.785 2.162 3.129 2.98 6.367 3.805 13.002.646 5.23 1.807 9.588 4.07 14.295 3.525 7.33 12.232 8.08 20.494 8.592-8.773 17.338-14.621 34.77-18.012 52.305-.639.418-1.227.988-1.723 1.742-25.447 38.639-64.849 64.648-106.175 83.871-21.424 9.967-44.167 16.97-67.132 22.32z" fill="#ffa0b9" data-original="#ffa0b9"/><path d="m420.676 460.132c5.473-6.802 15.264-8.21 19.838-15.552 8.248-13.235 2.52-24.209 28.58-23.928 8.422.092 13.502-1.855 19.75-7.264 8.484-7.344 10.912-22.735 30.525-3.919 4.328 4.153 5.889 5.395 10.797 8.84 5.445 3.82 14.182 3.037 20.199 2.063 24.934-4.034 15.502 15.845 23.215 29.523 6.496 11.52 29.008 23.103 17.988 40.258-5.916 9.213-8.188 16.484-5.652 27.214 4.367 18.471-15.289 26.033-23.602 37.635-2.133 2.975-3.539 9.043-4.457 12.355-3.938 14.221-21.438 9.316-30.42 8.229-8.689-1.055-15.844 3.459-22.545 8.227-15.939 11.346-26.4-8.484-36.46-15.758-7.795-5.633-28.451-.854-31.467-12.26-1.902-7.205-.6-16.158-5.025-22.639-6.422-9.41-17.922-13.92-11.365-29.959 6.67-16.315-4.16-27.544.101-43.065z" fill="#ffa0b9" data-original="#ffa0b9"/><path d="m334.823 858.988c-6.603-11.17-11.428-23.438-15.332-35.715-9.646-30.328-7.092-63.039-.08-93.539.123-.543.156-1.051.148-1.543 41.141-16.836 80.744-42.139 108.888-76.896-.547 6.91-.791 13.838-.697 20.781-1.152 4.363-2.637 8.672-4.668 12.904-6.588 13.734-19.605 23.969-31.211 33.283-18.846 15.119-36.404 31.086-49.212 51.789-14.521 23.471-17.39 59.835-7.836 88.936z" fill="#ff5671" data-original="#ff5671" class=""/><path d="m362.059 858.096c-5.378 24.105-10.794 25.197-18.61 3.281-5.4-15.148-6.93-32.723-6.988-47.201-.115-28.201 17.83-52.127 36.914-70.994 15.965-15.787 35.391-27.428 49.475-45.131 2.229-2.803 4.113-5.744 5.746-8.783 1.902 23.316 6.834 46.818 13.662 70.523-32.39 27.973-67.115 55.938-80.199 98.305z" fill="#ffa0b9" data-original="#ffa0b9"/><path d="m485.93 873.377c-2.738-11.508-4.611-23.281-7.633-34.74-6.93-26.275-15.816-52.029-23.857-77.975-19.264-62.162-24.443-123.787 7.156-183.021.344.117.703.221 1.025.357 11.398 4.896 15.877 23.609 31.105 21.801.131-.016.252-.029.383-.045 1.18 47.799 43.24 86.318 52.39 132.789 9.852 50.047-17.133 97.443-42.051 140.141-12.039 20.644-15.561 13.15-18.518.693z" fill="#ff5671" data-original="#ff5671" class=""/><path d="m515.947 885.6c-13.219 12.271-14.01 5.121-5.832-9.129 22.568-39.348 44.367-79.061 45.016-126.129.334-24.291-9.271-47.385-20.109-68.6-13.326-26.078-33.621-52.74-34.074-83.031 1.91-.451 3.775-1.102 5.58-2.264 11.605-7.482 20.4-9.48 34.066-7.684 10.969 1.441 20.572-3.178 26.232-12.303.988-1.596 1.73-3.078 2.354-4.496 46.312 105.106 34.295 232.36-53.233 313.636z" fill="#ffa0b9" data-original="#ffa0b9"/><path d="m660.514 811.33c-22.693-11.865-42.826-28.098-60.971-46.043.994-3.711 1.939-7.434 2.799-11.172 7.424-32.322 8.004-65.342 3.361-97.721 3.869 4.193 8.072 7.703 12.533 10.76 21.127 28.42 18.754 67.77 30.113 101.314 11.4 33.67 39.033 48.07 68.994 60.572-14.089 3.898-50.566-14.435-56.829-17.71z" fill="#ff5671" data-original="#ff5671" class=""/><path d="m705.639 816.797c-11.688-5.256-22.723-11.461-32.479-20.838-16.035-15.414-21.605-37.643-25.457-58.719-4.018-22-7.057-44.131-16.846-63.031 16.512 7.471 36.033 10.58 58.121 13.771 6.93 1 13.814 2.318 20.646 3.869-.945 40.48-3.615 76.316 9.121 115.037 5.013 15.26-.974 15.364-13.106 9.911z" fill="#ffa0b9" data-original="#ffa0b9"/><path d="m804.439 719.148c-32.828-20.895-68.959-34.711-107.42-41.525-41.705-7.387-78.561-7.242-97.27-51.777-5.76-23.414-14.078-46.252-24.412-67.975 1.555-2.023 3.73-4.074 7.053-6.273 3.922-2.596 7.121-5.049 10.078-7.957 8.338 12.98 24.457 18.844 38.764 23.223 30.764 9.414 63.457 11.666 93 25.086 26.746 12.15 48.758 33.881 65.105 57.883 11.461 16.824 22.867 37.35 28.744 58.16 6.868 24.286-2.032 18.548-13.642 11.155z" fill="#ff5671" data-original="#ff5671" class=""/><path d="m796.719 610.451c12.77 19.637 21.723 41.402 27.82 63.945 3.613 13.369 5.039 27.166 5.453 40.967.121 4.107-.525 6.934-1.67 8.834-.705-5.578-1.902-11.031-3.463-16.381-4.457-15.283-11.881-29.713-19.352-43.861-12.574-23.807-29.129-44.111-50.254-60.859-21.674-17.186-46.604-25.371-73.205-31.508-24.508-5.656-70.771-8.275-84.779-33.418.16-.213.326-.379.486-.6 3.256-4.482 2.109-10.387 1.504-15.27-.158-1.291-.244-2.518-.314-3.732 31.488 8.023 65.74 9.951 99.494 6.639.127.057.23.127.361.178 41.532 15.691 74.085 48.418 97.919 85.066z" fill="#ffa0b9" data-original="#ffa0b9"/><path d="m886.207 566.969c-13.295-.512-26.682-2.262-40.141-1.439-20.699 1.27-41.334 4.785-61.77 8.133-18.092-20.959-39.918-38.861-64.191-51.277 8.162-1.352 16.254-2.986 24.217-4.932 26.045 5.027 55.449-2.73 81.693-1.725 28.416 1.088 52.158 12.723 69.268 32.922 13.705 16.181 12.465 19.154-9.076 18.318z" fill="#ff5671" data-original="#ff5671" class=""/><path d="m874.697 509.934c2.734 2.943 18.092 20.074 26.438 34.807-12.822-15.49-29.26-26.238-50.035-32.193-15.83-4.537-32.898-4.293-49.172-3.605-11.963.506-24.92 2.541-37.582 2.885 9.422-2.963 18.627-6.293 27.469-10.066 16.965-7.241 32.668-16.152 46.902-27.144 12.457 11.32 24.513 22.97 35.98 35.316z" fill="#ffa0b9" data-original="#ffa0b9"/><path d="m875.705 413.016c-6.135 12.484-14.457 23.755-23.619 34.15-18.768 21.297-44.086 35.859-70.18 46.251-55.67 22.172-123.893 28.844-182.201 13.438 1.051-5.525 2.982-10.868 5.482-17.09 4.404-10.957 2.822-20.285-4.488-28.618 17.063-22.833 45.477-24.996 72.469-23.483 28.557 1.602 56.311 6.634 85.076 5.356 29.221-1.297 56.873-9.471 82.783-22.759 9.363-4.803 19.488-10.109 28.266-16.797 11.627-8.845 19.891-20.314 10.209 1.493-1.623 3.657-3.098 6.638-3.797 8.059z" fill="#ff5671" data-original="#ff5671" class=""/><path d="m872.436 392.037c-14.99 15.54-39.803 25.67-57.393 32.583-33.078 12.997-69.732 13.487-104.604 9.966-38.904-3.926-87.758-13.114-114.611 21.551-6.629-6.584-11.285-12.279-13.592-24.463-.576-3.033-1.232-7.076-2.508-10.771 6.008-5.622 11.303-11.574 15.943-17.801 3.148-4.226 15.533-19.161 18.854-21.583 71.848-52.407 169.184 31.236 250.096 2.525 12.822-4.55 21.629-6.33 7.815 7.993z" fill="#ffa0b9" data-original="#ffa0b9"/><path d="m779.053 246.485c-6.479 10.899-10.623 23.401-14.652 35.338-9.381 27.784-17.211 55.411-32.451 80.778-.035.061-.051.122-.088.185-32.418-7.78-65.496-13.37-95.652-4.354 5.943-9.784 10.561-20.287 14.865-31.216 8.629-21.902 18.789-40.674 35.313-57.681 23.623-24.314 55.457-38.767 88.051-47.534 18.451-4.963 21.553-2.35 13.137 11.87-3.353 5.666-7.42 10.756-8.523 12.614z" fill="#ff5671" data-original="#ff5671" class=""/><path d="m620.529 264.283c40.508-26.396 87.891-45.564 136.439-50.158 13.949-1.318 13.301 1.493-.553 6.23-24.646 8.436-47.77 20.544-67.963 37.784-15.049 12.854-26.783 29.134-35.613 46.739-9.801 19.538-15.119 39.954-27.635 57.6-3.643 1.587-7.236 3.406-10.766 5.516 11.552-32.134 11.726-68.252 6.091-103.711z" fill="#ffa0b9" data-original="#ffa0b9"/><path d="m582.672 139.129c-.689 13.225 1.428 26.593 3.801 39.552 4.758 25.999 15.172 50.664 20.801 76.497 12.113 55.594 7.611 115.655-34.635 156.422-7.463-4.804-14.924-3.828-23.467-2.688 4.922-22.7-1.945-45.92-9.826-67.35-11.021-29.961-21.408-57.348-23.811-89.644-3.314-44.534 7.34-94.552 34.141-131.506 11.66-16.08 28.881-20.647 32.266-3.459 1.441 7.339 1.04 16.24.73 22.176z" fill="#ff5671" data-original="#ff5671" class=""/><path d="m454.317 244.041c11.5-40.144 37.885-81.615 70.927-111.295 16.584-14.897 7.158 2.315 4.82 7.099-13.262 27.123-19.496 57.8-21.447 88.12-1.891 29.389 3.395 58.618 12.639 86.421 10.189 30.641 29.125 61.958 20.582 95.251-15.059.019-21.93-22.628-39.746-19.051-16.757 3.366-19.445 18.959-39.119 17.563-1.705-.121-3.35-.162-4.955-.148-21.144-48.723-18.064-113.818-3.701-163.96z" fill="#ffa0b9" data-original="#ffa0b9"/><path d="m382.418 160.599c26.738 17.837 48.09 42.662 64.395 70.129-14.266 40.061-19.502 88.283-12.879 132.327-6.686-7.164-14.408-13.089-22.863-18.014-9.514-19.415-8.709-41.045-8.607-63.005.098-21.781-2.625-43.312-9.281-64.076-11.619-36.244-36.646-61.717-67.934-79.58-7.899-4.507-5.761-7.688 5.267-4.507 19.348 5.585 43.582 21.176 51.902 26.726z" fill="#ff5671" data-original="#ff5671" class=""/><path d="m314.462 234.753c-2.891-28.243-8.256-56.673-10.365-84.912-.92-12.333 7.39-11.376 17.773-5.666 14.377 7.913 26.928 17.204 38.871 30.631 16.38 18.415 26.041 41.299 31.136 65.167 6.949 32.531-1.592 68.836 9.506 99.95-20.354-9.604-43.763-14.542-66.41-17.735-13.487-27.869-17.384-56.866-20.511-87.435z" fill="#ffa0b9" data-original="#ffa0b9"/><path d="m159.654 312.623c50.476 9.568 100.524 13.038 151.62 18.167 33.083 3.321 72.158 8.671 100.146 28.174.055.076.096.152.148.227.514.69 1.168 1.048 1.85 1.257 11.117 8.186 25.52 23.865 33.164 49.687-4.213 1.883-7.658 5.175-10.033 10.729-3.402 7.956-1.178 14.963-10.232 20.703-1.748 1.109-3.262 2.04-4.639 2.919-13.383-11.601-34.373-9.993-50.877-10.474-35.398-1.032-69.783.404-104.498-8.066-49.604-12.104-105.59-46.763-124.333-97.345-4.247-11.464-6.126-19.681 13.575-16.681 1.341.201 2.713.44 4.109.703z" fill="#ff5671" data-original="#ff5671" class=""/><path d="m156.682 380.761c-8.503-16.064-15.514-33.082-21.181-50.338 15.334 40.7 55.169 74.586 93.246 90.27 29.49 12.147 59.939 18.379 91.756 19.577 16.753.63 33.539.187 50.298.647 14.18.39 33.141-1.461 45.115 7.733-10.191 7.485-9.586 18.185-7.936 23.085 3.631 10.782 4.961 16.986 1.975 26.132-.861-.214-1.82-.241-2.883.045-63.773 17.113-132.44.229-186.187-37.311-28.285-19.753-48.308-49.815-64.203-79.84z" fill="#ffa0b9" data-original="#ffa0b9"/><path d="m104.913 515.252c8.529-7.658 18.756-13.83 28.404-19.616 24.019-14.409 51.407-22.43 78.877-27.053 26.094 20.341 57.715 34.538 90.837 41.819-2.353 1.52-4.682 3.063-6.95 4.654-16.602 6.361-33.018 11.311-51.211 10.945-20.396-.406-40.393-10.309-60.201-14.371-23.982-4.918-50.623.055-74.056 9.721-12.696 5.241-13.454.86-5.7-6.099z" fill="#ff5671" data-original="#ff5671" class=""/><path d="m462.622 577.998c-.322-.137-.682-.24-1.025-.357-1.316 2.467-2.475 4.945-3.666 7.422-.67 9.961-.314 19.82 2.074 29.754 3.354 13.959 12.082 27.051 19.012 39.436 15.773 28.186 32.615 55.994 40.412 87.664 7.396 30.037 6.34 62.035-.861 91.967-3.586 14.91-9.383 29.234-16.734 42.67-.496.912-1.046 1.781-1.568 2.672 1.269-1.76 2.658-3.92 4.185-6.541 24.918-42.697 51.902-90.094 42.051-140.141-9.15-46.471-51.21-84.99-52.39-132.789-.131.016-.252.029-.383.045-15.23 1.807-19.709-16.905-31.107-21.802z" fill="#df3f58" data-original="#df3f58"/><path d="m776.627 474.258c-13.619 2.856-27.5 4.545-41.42 4.188-19.012-.49-37.82-4.605-56.758-6.161-16.416-1.35-32.855.906-49.047 3.485-7.297 1.162-14.73 2.736-21.953 4.927-.277 2.902-.992 5.911-2.262 9.068-2.5 6.223-4.432 11.565-5.482 17.09 58.309 15.406 126.531 8.734 182.201-13.438 26.094-10.392 51.412-24.954 70.18-46.251 5.443-6.175 10.516-12.705 15.08-19.57-23.746 23.929-56.258 39.478-90.539 46.662z" fill="#df3f58" data-original="#df3f58"/><path d="m731.861 362.786c.037-.063.053-.124.088-.185 15.24-25.367 23.07-52.994 32.451-80.778 4.029-11.937 8.174-24.438 14.652-35.338 1.104-1.857 5.17-6.948 8.521-12.613 3.441-5.813 4.918-9.657 4.246-11.868-16.541 3.632-30.869 18.718-40.434 31.157-14.641 19.047-23.992 40.692-36.066 61.297-10.465 17.858-26.303 31.663-44.973 39.35 20.164.01 40.97 4.046 61.515 8.978z" fill="#df3f58" data-original="#df3f58"/><path d="m200.339 735.115c24.266-4.799 48.086-16.549 68.934-28.291 23.529-13.254 45.989-29.293 63.936-49.656 19.127-21.705 31.911-46.645 45.484-71.939 9.9-18.449 19.748-38.855 37.891-50.297-1.32-1.301-2.867-2.777-4.707-4.557-6.35-6.152-8.631-12.533-6.613-20.229-7.926 1.914-16.037 3.293-24.242 4.266-5.611 6.553-10.277 13.623-13.5 18.822-13.503 21.783-20.746 46.898-29.363 70.828-5.295 14.701-11.359 29.078-19.496 42.447-10.188 16.742-24.318 28.855-40.17 40.025-16.777 11.82-34.9 21.771-53.612 30.162-10.573 4.74-28.261 13.492-42.349 12.396-1.451 8.404 4.397 8.678 17.807 6.023z" fill="#df3f58" data-original="#df3f58"/><path d="m567.383 390.298c-3.588 6.233-7.791 12.066-12.027 17.881 6.066-.535 11.676-.188 17.283 3.421 42.246-40.767 46.748-100.828 34.635-156.422-5.629-25.833-16.043-50.498-20.801-76.497-2.373-12.959-4.49-26.327-3.801-39.552.311-5.937.711-14.837-.73-22.175-1.393-7.064-5.137-10.404-9.855-10.829 3.48 6.717 1.566 16.701-.172 24.787-2.605 12.127-3.795 23.793-3.063 36.241 1.729 29.384 10.818 58.576 15.053 87.714 4.459 30.67 5.799 62.005-.336 92.535-3.02 15.019-8.553 29.636-16.186 42.896z" fill="#df3f58" data-original="#df3f58"/><path d="m337.495 146.014c25.515 17.283 45.628 40.573 55.687 71.946 6.656 20.765 9.379 42.295 9.281 64.076-.102 21.96-.906 43.59 8.607 63.005 8.455 4.925 16.178 10.85 22.863 18.014-.93-6.188-1.604-12.462-2.072-18.78-8.604-11.034-14.771-23.813-17.768-39.505-3.049-15.975-2.316-32.792-4.025-48.953-1.328-12.557-4.574-24.601-9.061-36.37-11.958-31.371-33.731-58.821-63.512-73.433z" fill="#df3f58" data-original="#df3f58"/><path d="m140.97 325.789c.313.915.644 1.846 1.001 2.811 18.743 50.582 74.729 85.24 124.333 97.345 34.715 8.471 69.1 7.034 104.498 8.066 16.504.48 37.494-1.127 50.877 10.474 1.377-.879 2.891-1.81 4.639-2.919 9.055-5.74 6.83-12.747 10.232-20.703 2.375-5.554 5.82-8.846 10.033-10.729-4.957-16.748-12.758-29.167-20.662-38.105 3.17 10.116 1.271 20.895-7.479 29.859-9.498 9.73-24.35 13.171-37.262 15.33-29.638 4.956-61.916 3.004-91.315-2.097-31.546-5.471-62.821-17.703-90.69-33.246-14.916-8.317-28.583-18.349-39.963-31.124-6.877-7.72-12.594-16.319-18.242-24.962z" fill="#df3f58" data-original="#df3f58"/><path d="m321.79 801.748c-.238 13.072 1.252 28.699 8.927 39.967-3.927-25.209.187-52.658 11.942-71.662 12.809-20.703 30.367-36.67 49.212-51.789 11.605-9.314 24.623-19.549 31.211-33.283 2.031-4.232 3.516-8.541 4.668-12.904-.094-6.943.15-13.871.697-20.781-13.781 17.021-30.32 31.76-48.434 44.359-9.578 17.221-25.494 31.086-37.759 47.094-13.381 17.468-20.068 37.149-20.464 58.999z" fill="#df3f58" data-original="#df3f58"/><path d="m602.342 754.115c-.859 3.738-1.805 7.461-2.799 11.172 18.145 17.945 38.277 34.178 60.971 46.043 1.746.914 5.887 3.01 11.189 5.457-2.738-2.084-5.395-4.232-7.928-6.344-16.484-13.738-28.33-31.912-35.852-51.865-6.439-17.09-7.979-35.145-10.756-53.033-1.51-9.725-4.109-19.354-9.209-27.51 1.747 25.361.159 50.932-5.616 76.08z" fill="#df3f58" data-original="#df3f58"/><path d="m853.395 548.057c-21.256-3.705-43.189-2.07-64.648-3.434-12.621-.799-24.971-3.168-37.111-6.627-4.557-1.299-8.93-3.08-13.271-4.941 17.016 11.193 32.506 25.053 45.934 40.607 20.436-3.348 41.07-6.863 61.77-8.133 13.459-.822 26.846.928 40.141 1.439 5.721.223 9.969.162 12.926-.33-13.4-10.212-29.181-15.691-45.741-18.581z" fill="#df3f58" data-original="#df3f58"/><path d="m748.932 663.959c-26.123-12.1-55.287-14.807-82.508-23.568-22.293-7.182-41.365-19.631-53.818-39.793-8.119-13.148-17.154-33.498-14.594-50.416-2.057-1.977-3.973-4.096-5.543-6.541-2.957 2.908-6.156 5.361-10.078 7.957-3.322 2.199-5.498 4.25-7.053 6.273 10.334 21.723 18.652 44.561 24.412 67.975 18.709 44.535 55.564 44.391 97.27 51.777 38.461 6.814 74.592 20.631 107.42 41.525 2.494 1.588 4.848 3.08 6.965 4.232-.729-2.229-1.502-4.283-2.217-5.951-10.565-24.683-36.801-42.607-60.256-53.47z" fill="#df3f58" data-original="#df3f58"/><path d="m110.613 521.352c23.433-9.666 50.073-14.639 74.056-9.721 19.809 4.063 39.805 13.965 60.201 14.371 18.193.365 34.609-4.584 51.211-10.945 2.269-1.592 4.598-3.135 6.95-4.654-7.276-1.6-14.459-3.592-21.546-5.85-10.637 6.533-22.402 9.5-37.563 8.09-19.123-1.777-36.963-9.855-56.156-11.631-27.627-2.56-59.825 3.799-81.811 21.986 1.33-.375 2.861-.904 4.658-1.646z" fill="#df3f58" data-original="#df3f58"/><path d="m217.319 348.81c-2.852-1.088-4.983 3.029-2.906 4.992 39.119 36.979 101.726 49.129 152.768 34.274 3.269-.951 3.804-6.539 0-7.146-26.894-4.286-54.03-3.19-80.936-7.632-24.74-4.084-45.855-15.669-68.926-24.488z" fill="#ff9780" data-original="#ff9780"/><path d="m185.714 486.789c-2.244 1.488-1.578 5.514 1.453 5.362 8.875-.442 18.105.607 26.898-.996 3.071-.562 3.787-5.533.895-6.84-9.476-4.284-20.699-3.193-29.246 2.474z" fill="#ff9780" data-original="#ff9780"/><path d="m682.752 327.493c11.912-6.924 24.361-19.521 24.412-33.943.012-3.231-4.02-3.922-5.697-1.543-7.264 10.304-18.15 19.289-23.244 30.958-1.252 2.868 1.414 6.338 4.529 4.528z" fill="#ff9780" data-original="#ff9780"/><path d="m497.801 823.453c-1.168-.668-2.662-.484-3.617.469-1.975 1.967-2.279 5.047-2.58 7.689-.383 3.348.373 6.561 3.027 8.75 1.432 1.18 3.047 1.18 4.479 0 2.896-2.391 3.287-5.676 2.789-9.223-.397-2.814-1.5-6.193-4.098-7.685z" fill="#ff9780" data-original="#ff9780"/><path d="m621.326 457.726c-2.082 1.738-.385 5.393 2.188 5.282 11.754-.506 23.166-3.557 34.973-4.074 12.367-.54 24.336.542 36.666-1.183 3.332-.466 2.617-5.143 0-6.036-21.913-7.483-54.913-9.776-73.827 6.011z" fill="#ff9780" data-original="#ff9780"/><path d="m762.232 642.273c-2.02-1.49-3.979-1.586-6.316-1.711-1.9-.102-3.447 1.99-2.881 3.781.582 1.832.844 3.48 2.035 5.094 1.512 2.047 2.943 3.623 5.408 4.473 3.891 1.344 6.395-2.635 5.943-5.939-.333-2.422-2.3-4.303-4.189-5.698z" fill="#ff9780" data-original="#ff9780"/><path d="m808.629 531.402c6.576 2.039 13.445 2.266 20.246 3.105 8.455 1.043 16.936 3.854 25.479 3.553 4.67-.164 5.781-5.773 2.25-8.314-12.15-8.752-35.234-10.1-48.713-4-2.594 1.174-1.592 4.932.738 5.656z" fill="#ff9780" data-original="#ff9780"/><path d="m708.559 274.827c-.584.583-1.002 1.377-1.398 2.092-.818 1.481-1.037 2.734-1.328 4.324-.408 2.224 1.33 4.257 3.674 3.674 1.924-.481 3.594-1.223 4.693-3.035.574-.947 1.016-1.943 1.295-3.018.328-1.26-.219-2.02-.342-3.16-.334-3.058-3.73-3.941-5.566-1.506.851-1.127-1.214.813-1.028.629z" fill="#ff9780" data-original="#ff9780"/><path d="m548.248 166.905c-.289-2.717-4.133-4.466-5.631-1.524-26.904 52.775-.191 107.063 14.244 159.021.9 3.243 5.824 3.362 6.662 0 5.568-22.358-1.768-42.216-8.83-63.466-4.863-14.639-8.324-29.127-8.936-44.607-.659-16.655 4.245-32.831 2.491-49.424z" fill="#ff9780" data-original="#ff9780"/><path d="m408.829 209.137c2.338 5.997 5.711 11.459 8.188 17.399 2.541 6.094 4.781 11.945 8.119 17.668 1.91 3.271 6.883 1.792 6.973-1.889.324-13.278-6.234-31.711-19.65-36.809-2.009-.76-4.419 1.609-3.63 3.631z" fill="#ff9780" data-original="#ff9780"/><path d="m481.321 747.844c4.961 21.611 5.277 43.408 11.434 64.773.996 3.453 6.135 3.555 7.08 0 11.326-42.66-2.568-93.285-31.387-126.254-2.113-2.416-5.426.217-4.932 2.871 3.711 19.948 13.225 38.661 17.805 58.61z" fill="#ff9780" data-original="#ff9780"/><path d="m380.303 385.805c-.432-.618-.322-.495.324.376.393.391.816.741 1.273 1.055.967.618 2.002 1.063 3.135 1.223 3.047.43 6.008-.099 8.205-2.396 2.16-2.261 1.313-6.353-1.887-7.143-2.164-.535-4.145-.339-6.318.045-.904.16-1.713.452-2.549.853-.393.164-.764.366-1.117.607-.844.72-.973.78-.387.187-2.513.408-2.657 4.062-.679 5.193z" fill="#ff9780" data-original="#ff9780"/><path d="m749.719 635.457c-9.795-19.943-29.441-29.207-49.145-37.434-14.717-6.146-38.879-16.438-53.705-6.373-1.516 1.029-2.072 3.9 0 4.785 13.967 5.957 29.008 9.914 43.246 15.422 19.396 7.5 35.818 20.234 54.83 28.373 3.194 1.368 6.409-1.445 4.774-4.773z" fill="#ff9780" data-original="#ff9780"/><path d="m709 461.425c.998.081 1.982.223 2.973-.052 1.125-.308 1.916-1.115 2.904-1.666 2.1-1.167 1.912-4.133 0-5.343-1.037-.659-1.547-1.77-2.904-2.03-1.771-.342-3.25-.486-5.041-.16-2.549.466-4.568 3.542-3.318 5.921 1.052 2.004 3.175 3.153 5.386 3.33z" fill="#ff9780" data-original="#ff9780"/><path d="m322.265 566.686c-11.332 19.705-18.904 40.412-32.086 59.295-15.213 21.789-37.455 36.85-56.177 55.193-2.833 2.777.105 7.063 3.677 6.314 46.861-9.84 93.884-71.137 89.949-119.35-.223-2.73-3.851-4.087-5.363-1.452z" fill="#ff9780" data-original="#ff9780"/><path d="m221.724 697.852c2.787-.744 4.436-3.285 4.607-6.021.141-2.197-2.131-4.715-4.427-4.43-2.103.264-3.364.879-4.95 2.258-1.004.873-1.531 2.199-2.439 3.113-1.484 1.498-.832 4.215 1.255 4.752 2.165.556 3.685.935 5.954.328z" fill="#ff9780" data-original="#ff9780"/><path d="m558.568 337.111c-1.256 3.838-1.195 7.639.334 11.383.813 1.992 3.508 3.334 5.23 1.38 3.781-4.288 2.682-9.937-.754-14.033-1.474-1.761-4.19-.622-4.81 1.27z" fill="#ff9780" data-original="#ff9780"/><path d="m159.951 386.727c15.37 27.994 34.524 55.432 60.935 73.875 53.747 37.54 122.414 54.423 186.187 37.311 1.063-.286 2.021-.259 2.883-.045 2.986-9.146 1.656-15.35-1.975-26.132-.721-2.139-1.178-5.403-.691-9.002-10.465 3.263-20.664 6.994-31.523 9.276-14.261 2.997-28.773 3.973-43.318 3.901-27.888-.138-55.65-6.137-81.496-16.449-23.809-9.498-45.443-24.069-64.044-41.598-9.364-8.826-17.771-18.619-25.437-28.937-.534-.714-1.006-1.473-1.521-2.2z" fill="#ed7490" data-original="#ed7490"/><path d="m304.374 152.99c2.256 27.202 7.306 54.568 10.088 81.764 3.127 30.568 7.024 59.565 20.512 87.435 18.254 2.575 36.978 6.33 54.224 12.701-11.119-11.06-20.168-23.879-26.207-39.197-7.184-18.225-9.857-38.099-13.258-57.275-3.27-18.433-7.18-36.745-15.396-53.689-5.975-12.319-16.582-26.229-29.963-31.739z" fill="#ed7490" data-original="#ed7490"/><path d="m431.94 533.158c4.426 6.48 3.123 15.434 5.025 22.639 3.016 11.406 23.672 6.627 31.467 12.26 10.061 7.273 20.521 27.104 36.46 15.758 6.701-4.768 13.855-9.281 22.545-8.227 8.982 1.088 26.482 5.992 30.42-8.229.918-3.313 2.324-9.381 4.457-12.355 8.313-11.602 27.969-19.164 23.602-37.635-2.535-10.73-.264-18.001 5.652-27.214 7.604-11.84-.758-21.023-8.809-29.365 1.16 5.315 1.498 10.712.605 15.481-1.057 5.653-5.955 9.066-8.998 13.526-3.184 4.666-4.244 9.579-4.92 15.107-2.414 19.76-15.236 21.533-31.686 24.012-9.26 1.395-15.502 5.57-22.379 11.664-5.527 4.896-11.008 9.557-18.152 11.855-11.496 3.693-22.955-5.662-28.607-14.654-6.516-10.363-5.744-23.721-12.508-34.188-6.156-9.524-15.725-15.679-19.357-26.907-2.682-8.293-3.455-16.926-3.412-25.561-4.389 2.708-9.33 4.855-12.67 9.006-4.262 15.521 6.568 26.75-.102 43.067-6.555 16.04 4.945 20.55 11.367 29.96z" fill="#ed7490" data-original="#ed7490"/><path d="m530.064 139.844c.783-1.599 2.346-4.58 3.475-7.295-12.371 13.24-20.965 32.84-27.479 48.58-9.33 22.545-15.066 45.894-16.583 70.262-1.643 26.399 4.238 51.153 13.531 75.69 8.834 23.32 23.578 48.647 22.938 74.348 4.799 4.309 9.641 8.214 15.893 8.207 8.543-33.293-10.393-64.61-20.582-95.251-9.244-27.803-14.529-57.032-12.639-86.421 1.95-30.32 8.185-60.997 21.446-88.12z" fill="#ed7490" data-original="#ed7490"/><path d="m697.801 807.084c-12.775-13.656-19.424-31.43-22.51-49.59-3.654-21.498.662-51.297-8.697-73.064-13.086-2.385-25.051-5.385-35.736-10.221 9.789 18.9 12.828 41.031 16.846 63.031 3.852 21.076 9.422 43.305 25.457 58.719 9.756 9.377 20.791 15.582 32.479 20.838 1.771.797 3.395 1.455 4.889 1.986-4.588-3.496-8.806-7.508-12.728-11.699z" fill="#ed7490" data-original="#ed7490"/><path d="m817.295 671.98c-9.73-30.43-31.193-55.143-55.596-74.959-25.313-20.553-53.697-31.717-85.039-39.629-26.314-6.646-56.506-9.227-76.727-28.273.07 2.977-.352 5.938-2.178 8.451-.16.221-.326.387-.486.6 14.008 25.143 60.271 27.762 84.779 33.418 26.602 6.137 51.531 14.322 73.205 31.508 21.125 16.748 37.68 37.053 50.254 60.859 6.449 12.217 12.857 24.646 17.357 37.65-.716-9.968-2.45-19.871-5.569-29.625z" fill="#ed7490" data-original="#ed7490"/><path d="m442.256 759.791c-3.852-13.369-7.068-26.674-9.512-39.918-40.365 26.598-69.334 66.922-76.215 115.68-1.435 10.16-1.302 23.965 1.745 35.561 1.281-3.115 2.534-7.418 3.784-13.018 13.085-42.367 47.81-70.332 80.198-98.305z" fill="#ed7490" data-original="#ed7490"/><path d="m625.205 362.478c12.516-17.646 17.834-38.062 27.635-57.6 8.83-17.605 20.564-33.886 35.613-46.739 17.127-14.623 36.375-25.521 56.857-33.65-16.885 1.328-33.51 5.529-48.465 12.372-19.287 8.823-35.982 23.329-49.297 39.646-8.434 10.333-17.219 22.978-23.473 35.857-.414 19.229-3.309 38.027-9.637 55.63 3.531-2.11 7.125-3.929 10.767-5.516z" fill="#ed7490" data-original="#ed7490"/><path d="m595.828 456.136c26.854-34.665 75.707-25.477 114.611-21.551 34.871 3.521 71.525 3.031 104.604-9.966 14.738-5.793 34.484-13.893 49.338-25.495-22.291 10.979-45.941 17.863-71.68 19.714-29.85 2.145-59.488-1.997-89.104-5.063-24.086-2.493-49.488-4.304-73.238 1.577-16.809 4.162-36.186 14.227-42.428 31.43 2.19 3.412 4.821 6.299 7.897 9.354z" fill="#ed7490" data-original="#ed7490"/><path d="m887.232 531.041c-7.271-7.773-15.893-14.291-25.057-19.65-14.594-8.535-34.664-15.577-54.227-17.334-5.256 2.731-10.604 5.343-16.135 7.704-8.842 3.773-18.047 7.104-27.469 10.066 12.662-.344 25.619-2.379 37.582-2.885 16.273-.688 33.342-.932 49.172 3.605 13.941 3.996 25.884 10.199 36.134 18.494z" fill="#ed7490" data-original="#ed7490"/><path d="m429.825 630.055c.496-.754 1.084-1.324 1.723-1.742 3.391-17.535 9.238-34.967 18.012-52.305-8.262-.512-16.969-1.262-20.494-8.592-.852-1.768-1.502-3.49-2.072-5.221-14.977 16.727-21.406 42.004-31.592 61.543-12.352 23.699-28.88 44.74-48.029 63.295-14.721 14.266-31.577 26.482-49.155 37.207 8.633-3.049 17.133-6.453 25.433-10.314 41.325-19.223 80.726-45.233 106.174-83.871z" fill="#ed7490" data-original="#ed7490"/><path d="m562.137 779.395c7.988-30.547 5.438-62.613-2.963-92.727-9.361-33.563-27.428-63.465-27.496-98.502-9.025.064-16.273 2.559-25.15 8.281-1.805 1.162-3.67 1.813-5.58 2.264.453 30.291 20.748 56.953 34.074 83.031 10.838 21.215 20.443 44.309 20.109 68.6-.607 44.146-19.822 81.822-40.826 118.795 22.738-25.233 39.088-56.291 47.832-89.742z" fill="#ed7490" data-original="#ed7490"/><path d="m225.942 596.35c7.243-13.752 15.561-26.611 25.001-38.51-1.547.305-3.095.623-4.64.822-17.305 2.229-34.797-4.143-50.959-9.467-24.018-7.912-57.446-15.123-82.854-5.049 41.402 11.122 78.607 27.116 113.452 52.204z" fill="#ed7490" data-original="#ed7490"/><path d="m553.621 487.994c-1.475-7.219-5.252-13.623-7.127-20.72-2.15-8.124 4.258-14.877.623-23.197-2.051-4.694-8.525-5.963-12.904-4.938-7.447 1.747-12.438 1.297-17.881-4.414-2.701-2.838-5.24-5.017-8.818-6.641-5.369-2.436-11.011-.472-15.406 2.831-2.996 2.253-6.594 12.579-21.43 13.033-15.568.479-15.281 15.548-8.021 23.696 7.631 8.557 13.318 13.67 14.295 25.725.838 10.386 1.654 24.339 12.117 29.808 14.498 7.578 24.099-14.875 36.388-16.053 8.248-.789 15.342 2.52 22.391-3.791 4.541-4.065 7.043-9.128 5.773-15.339z" fill="#ffe1dc" data-original="#ffe1dc"/><path d="m681.855 381.96c-12.885-5.298-23.01-7.725-36.949-5.168-11.273 2.069-23.059 7.985-26.902 19.353-.848 2.5 1.688 4.176 3.85 3.85 9.881-1.484 18.832-6.104 28.904-7.088 10.172-.994 20.004-2.544 30.131-3.81 4.152-.519 4.851-5.541.966-7.137z" fill="#ffe1dc" data-original="#ffe1dc"/><path d="m697.033 395.02c5.014 1.296 9.947-5.612 5.404-9.287-2.699-2.186-6.434-3.525-9.604-1.347-2.021 1.39-3.43 4.445-1.76 6.717 1.554 2.114 3.423 3.261 5.96 3.917z" fill="#ffe1dc" data-original="#ffe1dc"/><path d="m363.237 450.584c-10.924-2.898-21.518-1.065-32.635-.366-10.637.67-21.522-1.424-31.956.746-2.077.433-2.903 3.473-1.286 4.871 15.68 13.589 49.127 8.592 66.668.798 2.713-1.205 1.772-5.369-.791-6.049z" fill="#ffe1dc" data-original="#ffe1dc"/><path d="m376.42 448.116c-.85.438-1.535.946-2.172 1.666-.254.29-2.08 3.195-1.006 1.831-1.594 2.023-.719 5.086 2.105 5.212 2.934 1.122 6.174 1.224 8.506-1.381 2.037-2.275 1.535-5.327-.906-7.04-1.935-1.359-4.437-1.37-6.527-.288z" fill="#ffe1dc" data-original="#ffe1dc"/><path d="m560.703 595.674c-2.945-1.525-6.057.945-5.393 4.143 2.613 12.572 9.531 24.207 12.721 36.846 3.227 12.783 5.367 25.627 8.875 38.344.955 3.467 5.85 3.332 6.867 0 4.484-14.65 2.188-27.621-1.678-42.221-3.269-12.347-9.306-30.86-21.392-37.112z" fill="#ffe1dc" data-original="#ffe1dc"/><path d="m714.852 543.387c-8.303-10.43-28.244-14.869-40.074-7.762-1.826 1.098-2.055 4.119 0 5.158 5.713 2.887 11.893 4.084 18.023 5.803 3.432.965 6.822 2.055 10.24 3.064 3.676 1.086 6.619.18 10.254-.369 2.92-.441 2.99-4.09 1.557-5.894z" fill="#ffe1dc" data-original="#ffe1dc"/><path d="m696.285 696.074c-10.918 6.766-13.723 29.527-3.215 37.578 1.846 1.416 4.045-.24 4.758-1.934 2.379-5.664 2.152-11.271 2.811-17.268.633-5.715 2.207-11.104-.02-16.615-.685-1.698-2.566-2.856-4.334-1.761z" fill="#ffe1dc" data-original="#ffe1dc"/><path d="m466.797 302.474c-.824-2.401-4.635-3.515-5.916-.773-11.828 25.277-9.426 62.994 6.564 85.598 1.959 2.771 6.879 2.042 6.771-1.835-.41-14.589-1.938-28.709-2.928-43.291-.895-13.232-.147-27.018-4.491-39.699z" fill="#ffe1dc" data-original="#ffe1dc"/><path d="m458.512 291.789c1.113 1.983 4.07 2.921 6.027 1.581 3.229-2.213 4.641-4.574 5.148-8.471.441-3.378-1.611-7.027-4.844-8.154-3.205-1.115-7.154 2.677-7.652 5.656-.332 1.985-.598 3.764-.262 5.759.232 1.374.921 2.448 1.583 3.629z" fill="#ffe1dc" data-original="#ffe1dc"/><g fill="#68182b"><path d="m454.17 376.822c.133.814 1.346.566 1.379-.187 1.219-27.434.197-54.739 3.229-82.107 3.783-34.126 15.008-64.684 25.461-97.051.086-.265-.285-.394-.426-.18-17.922 26.854-25.592 61.865-29.523 93.464-3.526 28.369-4.711 57.759-.12 86.061z" fill="#68182b" data-original="#68182b"/><path d="m625.707 386.91c19.752-6.706 38.725-9.477 59.596-8.676 20.652.794 40.355 7.364 60.826 8.662.666.043.904-.934.336-1.241-17.963-9.748-41.059-11.704-61.162-12.633-19.863-.916-43.289 1.364-59.832 13.33-.26.189-.116.677.236.558z" fill="#68182b" data-original="#68182b"/><path d="m335.892 495.13c17.474 1.651 38.402 1.222 54.408-6.672.559-.273.279-1.146-.309-1.14-16.793.223-33.162 3.672-50.07 3.202-17.5-.488-33.881-4.682-50.805-8.557-.238-.054-.379.266-.166.396 14.031 8.517 30.827 11.25 46.942 12.771z" fill="#68182b" data-original="#68182b"/><path d="m408.083 635.701c7.826-9.984 17.564-23.238 18.193-36.479.029-.609-.813-.783-1.105-.299-6.949 11.418-12.594 23.254-20.52 34.129-12.092 16.596-27.664 29.668-43.955 41.939-.259.195-.045.568.256.436 19.06-8.488 34.388-23.476 47.131-39.726z" fill="#68182b" data-original="#68182b"/><path d="m562.896 601.189c4.959 15.801 10.328 30.723 12.877 47.201 2.502 16.203 1.729 32.766 4.762 48.852.109.566 1.041.572 1.148 0 2.75-15.162 1.018-31.045-1.152-46.203-2.436-16.988-6.701-36.08-17.305-49.986-.115-.153-.394-.073-.33.136z" fill="#68182b" data-original="#68182b"/><path d="m580.623 703.092c-1.195 3.297-.66 7.66.07 10.994.088.395.59.385.789.104 2.121-3 2.873-8.48-.018-11.318-.284-.282-.712-.13-.841.22z" fill="#68182b" data-original="#68182b"/><path d="m749.748 490.202c-14.039 3.582-27.576 8.03-41.949 10.242-16.752 2.578-33.793 3.015-50.703 3.703-.311.012-.408.512-.076.564 28.652 4.521 68.566 4.23 93.367-12.996.754-.524.304-1.754-.639-1.513z" fill="#68182b" data-original="#68182b"/><path d="m763.783 484.009c-3.168.042-6.986 1.445-8.629 4.198-.057.094-.027.242.078.294 3.285 1.612 7.629-.566 9.004-3.901.118-.283-.175-.596-.453-.591z" fill="#68182b" data-original="#68182b"/><path d="m592.938 356.172c-.088.601.67.805.904.247 9.984-23.849 12.783-57.025 5.145-81.93-.076-.25-.461-.207-.459.063.1 12.86 1.051 25.57.426 38.448-.706 14.541-3.911 28.803-6.016 43.172z" fill="#68182b" data-original="#68182b"/><path d="m586.787 373.872c1.822-1.646 2.787-3.483 3.793-5.696.908-1.994 2.002-4.029 1.305-6.237-.074-.238-.402-.437-.635-.259-1.674 1.282-2.332 3.144-3.232 4.997-1.121 2.309-2.109 4.256-1.969 6.89.021.381.453.56.738.305z" fill="#68182b" data-original="#68182b"/><path d="m660.678 330.5c7.826-13.71 14.279-27.858 23.297-40.903 8.635-12.489 19.369-23.777 30.863-33.672.223-.188-.064-.535-.307-.396-24.883 14.481-49.766 45.891-54.939 74.514-.115.636.736 1.073 1.086.457z" fill="#68182b" data-original="#68182b"/><path d="m381.292 276.651c.105.639 1.174.636 1.281 0 3.477-20.362 4.148-56.728-15.099-70.244-.223-.157-.445.14-.344.344 5.972 12.114 9.488 22.807 11.191 36.271 1.416 11.221 1.086 22.455 2.971 33.629z" fill="#68182b" data-original="#68182b"/><path d="m381.653 281.681c-.678 1.455-.684 3.054-.604 4.641.074 1.514-.098 2.717.936 3.913.125.146.408.191.566.074 2.471-1.835 1.391-6.658-.391-8.693-.128-.149-.421-.117-.507.065z" fill="#68182b" data-original="#68182b"/><path d="m344.013 349.694c18.188 2.521 35.375 8.916 53.087 13.402.773.195 1.162-.823.525-1.25-28.775-19.276-69.034-20.763-102.426-17.003-.335.038-.472.558-.085.637 15.961 3.209 32.727 1.972 48.899 4.214z" fill="#68182b" data-original="#68182b"/><path d="m409.743 370.003c.467-.064.586-.654.41-1.003-1.252-2.486-5.146-5.32-8-3.696-.086.05-.143.169-.105.266 1.05 2.923 4.744 4.849 7.695 4.433z" fill="#68182b" data-original="#68182b"/><path d="m319.581 530.348c.25-.24-.066-.58-.35-.451-16.031 7.275-29.957 21.422-41.59 34.309-11.133 12.332-21.571 25.961-27.951 41.377-.236.572.673 1.098 1.053.613 10.126-12.926 19.004-26.674 29.791-39.102 11.897-13.707 26.079-24.264 39.047-36.746z" fill="#68182b" data-original="#68182b"/><path d="m246.845 610.484c-1.553.16-2.449 1.279-3.293 2.508-1.246 1.814-2.873 3.861-2.619 6.188.038.352.314.609.684.52 1.922-.463 2.923-2.119 3.919-3.695.958-1.521 2.147-3.496 1.552-5.334-.032-.101-.132-.196-.243-.187z" fill="#68182b" data-original="#68182b"/><path d="m668.842 657.957c-13.879-3.115-26.377-8.598-39.406-14.111-.316-.135-.678.23-.395.508 9.441 9.213 22.41 14.07 34.803 17.938 12.98 4.051 29.482 8 42.748 3.793.662-.211.639-1.1 0-1.318-12.078-4.148-25.264-4.009-37.75-6.81z" fill="#68182b" data-original="#68182b"/><path d="m720.203 664.813c-2.416 0-4.441.133-6.492 1.453-.232.148-.232.473 0 .621 2.051 1.318 4.076 1.451 6.492 1.451 1.119 0 3.639-.066 3.639-1.762s-2.52-1.763-3.639-1.763z" fill="#68182b" data-original="#68182b"/><path d="m690.867 537.377c-.248-.014-.35.357-.127.469 7.416 3.77 15.002 7.09 22.262 11.184 8.215 4.633 15.066 11.18 23.088 16.088.445.275.92-.256.688-.688-7.954-14.848-29.424-26.137-45.911-27.053z" fill="#68182b" data-original="#68182b"/><path d="m401.499 777.287c-7.082 6.375-13.82 14.076-18.15 22.605-.24.475.338.934.736.566 6.439-5.914 11.879-12.818 18.039-19.02 6.152-6.193 13.395-10.969 19.699-16.926.084-.078-.004-.203-.105-.18-7.891 1.713-14.378 7.691-20.219 12.955z" fill="#68182b" data-original="#68182b"/><path d="m381.637 803.219c-2.508.48-3.744 4.223-4 6.408-.035.297.324.414.541.311 2.029-.973 5.359-4.002 3.887-6.547-.09-.155-.258-.205-.428-.172z" fill="#68182b" data-original="#68182b"/><path d="m699.754 698.813c-.025-.293-.391-.33-.496-.068-6.182 15.346-8.219 40.02-.479 55.01.225.439.967.242.938-.254-.5-8.479-1.525-16.838-1.508-25.346.02-9.78 2.369-19.598 1.545-29.342z" fill="#68182b" data-original="#68182b"/><path d="m700.871 757.404c-.102-.221-.395-.123-.461.059-.768 2.063-.666 3.887.43 5.828.311.551.9.701 1.486.602.428-.068.529-.26.785-.602.289-.395.186-.93 0-1.33-.711-1.537-1.541-3.02-2.24-4.557z" fill="#68182b" data-original="#68182b"/><path d="m787.152 563.586c-.223.127-.137.531.137.504 9.305-.898 18.461-2.795 27.805-3.498 8.336-.629 16.865.076 24.996-2.061.465-.121.465-.816 0-.936-15.27-3.958-39.014-1.706-52.938 5.991z" fill="#68182b" data-original="#68182b"/><path d="m166.524 551.15c-.331-.059-.549.373-.236.557 6.755 4.021 14.332 6.527 21.613 9.43 10.314 4.105 19.209 10.408 29.215 14.951.43.195 1.103-.258.738-.738-10.414-13.84-34.987-21.305-51.33-24.2z" fill="#68182b" data-original="#68182b"/><path d="m220.703 577.709c-.317.135-.481.438-.31.766.487.947.996 1.543 1.836 2.209 1.354 1.074 3.198-.633 1.941-1.941-1.005-1.046-2.05-1.628-3.467-1.034z" fill="#68182b" data-original="#68182b"/></g></g></g></g></svg>