<svg xmlns="http://www.w3.org/2000/svg" version="1.1" xmlns:xlink="http://www.w3.org/1999/xlink" xmlns:svgjs="http://svgjs.com/svgjs" width="512" height="512" x="0" y="0" viewBox="0 0 1000 1000" style="enable-background:new 0 0 512 512" xml:space="preserve"><g><g xmlns="http://www.w3.org/2000/svg"><path d="m182.558 516.442h.009c19.289 0 39.055-4.559 58.326-9.408-34.061 44.249-46.491 91.36-36.078 138.547 13.2 59.814 64.625 85.508 105.946 106.152 0 0 11.021 5.529 13.152 6.596-11.524 38.443-21.196 74.738-29.448 110.488-4.682 20.273-2.494 37.514 6.325 49.859 5.23 7.323 15.386 16.457 34.059 18.394 1.687.173 3.318.257 4.899.257 37.762 0 45.601-41.488 49.367-61.428.558-2.949 1.066-5.678 1.61-8.014 1.335-5.734 2.64-11.578 3.957-17.485 4.565-20.481 9.256-41.517 16.004-60.646 6.413.882 12.669 1.315 18.876 1.315 15.081 0 29.736-2.693 43.559-8.008 12.279-4.722 23.937-11.744 34.798-20.946 10.05 4.921 20.903 7.405 32.439 7.405 31.052 0 61.436-18.151 88.244-34.164 16.795-10.033 32.661-19.512 45.077-22.527 8.866-2.154 17.705-3.475 27.063-4.87 22.412-3.349 45.587-6.81 68.436-22.032 23.401-15.59 37.332-40.688 39.228-70.665 1.307-20.667-4.304-40.819-17.054-60.921.359 0 .718.003 1.077.003 27.861 0 60.167-2.539 88.548-21.369 21.475-14.245 34.594-38.851 36.941-69.279 2.113-27.378-13.193-50.417-25.491-68.931-3.328-5.008-6.47-9.736-9.058-14.185-6.195-10.647-7.616-23.128-9.265-37.582-.456-4.022-.919-8.065-1.486-12.118-2.194-15.72-9.986-31.187-23.819-47.289-19.705-22.937-51.475-35.567-89.457-35.567-1.336 0-2.667.016-3.991.048-1.352.033-2.712.083-4.079.15 5.141-26.633 6.092-60.885-9.769-93.104-22.797-46.303-61.849-57.359-93.323-61.818-2.76-.392-5.498-.76-8.219-1.129-15.305-2.068-29.764-4.025-43.316-9.287-4.196-1.628-8.293-3.346-12.359-5.046-15.699-6.57-31.935-13.363-51.622-14.936-1.942-.152-3.884-.229-5.813-.229-28.565 0-54.337 16.71-72.657 38.01-16.912-19.641-38.708-30.159-63.405-30.159-.701 0-1.403.009-2.111.026-17.355.423-33.626 6.337-47.981 11.557-4.766 1.731-9.268 3.368-13.611 4.746-22.643 7.191-41.542 14.949-60.182 29.449-29.421 22.882-54.467 63.781-63.481 101.952-38.252 5.802-67.353 31.34-85.323 52.279-46.615 54.31-44.333 143.008-15.192 197.383 17.251 32.196 44.049 48.524 79.65 48.526z" fill="#ffffff" data-original="#ffffff"/><g><path d="m297.51 476.432c-49.952 42.595-87.941 99.829-73.574 164.929 10.941 49.578 54.129 72.148 95.574 92.855 9.135 4.563 18.476 9.33 27.982 13.875-12.75 41.357-24.211 82.951-33.947 125.131-4.838 20.946-1.741 41.773 23.32 44.371 27.974 2.896 30.596-36.15 34.789-54.15 7.322-31.42 13.647-66.214 26.781-95.973 22.118 5.433 44.789 6.107 67.656-2.686 15.057-5.79 28.171-15.464 39.412-27.323 51.406 41.311 116.485-32.226 163.555-43.66 31.292-7.601 61.395-5.604 89.263-24.171 19.106-12.729 29.122-33.163 30.541-55.604 1.972-31.162-16.519-57.53-40.13-80.208 40.834.392 86.055 6.303 121.419-17.159 18.286-12.132 26.618-33.397 28.243-54.47 2.071-26.826-19.433-50.244-31.951-71.762-10.294-17.692-10.475-37.17-13.218-56.839-1.965-14.074-10.251-26.728-19.28-37.236-19.075-22.203-50.23-29.374-78.127-28.704-10.375.248-20.787 1.698-31.137 3.929 12.057-34.159 15.616-74.568-.747-107.81-16.53-33.575-42.533-45.983-78.503-51.079-19.27-2.729-37.578-4.445-55.875-11.549-19.57-7.598-37.139-17.016-58.449-18.716-32.658-2.604-62.826 25.313-77.26 53.512-12.529-25.797-33.665-46.565-64.694-45.81-19.196.468-38.144 9.676-56.145 15.392-20.168 6.404-37.211 13.117-54.085 26.242-29.246 22.747-54.62 67.505-58.883 104.729-3.021.133-6.043.254-9.054.549-31.317 3.054-58.083 23.008-78.03 46.25-38.859 45.272-40.135 124.358-12.793 175.38 39.038 72.844 116.891 19.397 177.347 17.765z" fill="#68182b" data-original="#68182b"/><path d="m355.205 884.276c-3.092 14.486-22.484 35.395-32.322 11.538-5.776-14.009 7.578-44.373 11.151-58.634 7.09-28.32 15.381-56.312 23.986-84.199 9.636 4.324 19.431 8.255 29.353 11.378-16.04 37.335-23.771 80.595-32.168 119.917z" fill="#a98053" data-original="#a98053"/><path d="m456.402 756.23c-45.704 17.571-98.192-15.524-137.585-35.205-40.275-20.123-74.638-41.299-85.04-88.438-19.59-88.764 82.942-165.679 150.739-199.452 21.63-10.006 43.28-17.726 67.42-13.943 1.558.245 3.094.645 4.639.991-14.751 1.698-29.541 6.601-40.249 11.291-17.549 7.688-33.298 17.515-48.76 28.756-12.35 8.979-27.587 18.753-33.539 33.405-.168.414.412.652.69.403 28.603-25.736 69.821-56.455 111.826-64.354 31.228-5.871 55.58 5.873 54.08 32.086-.606 10.587-3.009 21.385-4.767 29.923-3.837 18.666-10.763 36.04-18.424 53.403-15.797 35.813-34.722 74.586-68.82 96.146-.497.313-.18 1.108.402.953 17.68-4.763 31.814-19.572 42.473-33.783 14.198-18.93 24.884-40.022 34.421-61.605 8.531-19.309 15.5-38.615 19.479-59.418 1.9-9.938 4.131-22.158 3.73-33.741 7.188 21.024 5.411 45.637 2.442 66.853-2.132 15.244-5.536 30.287-10.018 45.005-4.187 13.751-10.688 26.372-15.664 39.774-.188.506.553.922.901.526 9.519-10.882 15.145-25.439 20.385-38.749 6.422-16.314 10.649-33.521 13.103-50.854 2.854-20.162 3.688-43.175-2.645-63.343 20.396 19.824 21.063 54.796 24.677 81.883 10.401 77.931-.251 188.559-85.896 221.487z" fill="#ff5671" data-original="#ff5671"/><path d="m531.397 334.55c34.879 18.327 58.692 59.77 59.704 98.732-19.766-2.087-39.435 2.638-57.514 18.333-6.195-7.497-14.956-13.044-22.986-18.164-18.564-11.84-40.348-24.601-62.848-26.463-1.184-.099-2.332-.065-3.504-.119-2.035-23.085-10.978-44.354-24.202-63.502 29.644-27.141 77.204-26.759 111.35-8.817z" fill="#ff9fb8" data-original="#ff9fb8"/><path d="m777.215 608.096c6.593 62.095-68.814 67.572-111.217 74.604-22.384 3.713-41.288 17.704-59.45 30.238-23.173 15.992-66.952 36.136-93.481 15.911 15.956-19.738 27.406-43.84 34.334-66.381 14.01-45.575 11.246-95.395 4.438-141.917-2.615-17.877-5.104-37.427-10.85-54.815 14.874 7.148 26.146 21.109 34.525 34.85 16.527 27.103 21.785 58.812 25.082 89.872.049.461.677.466.719 0 3.627-40.358-7.922-98.096-43.552-124.819-7.435-5.574-18.372-14.101.908-9.705 31.055 7.07 53.651 39.37 66.983 66.172 13.96 28.063 22.086 63.731 20.623 95.026-.025.517.779.765 1.005.272 6.411-14.037 4.003-30.506 1.747-45.25-2.85-18.631-8.246-37.176-16.031-54.342-13.199-29.117-38.739-61.762-71.332-70.041 43.498-16.193 92.68 23.251 126.083 51.242 35.007 29.338 84.188 59.387 89.466 109.083z" fill="#ff5671" data-original="#ff5671"/><path d="m825.806 304.492c22.538 22.201 13.321 54.474 25.405 80.956 9.645 21.141 25.84 38.68 33.447 60.777 8.823 25.635-6.092 52.773-28.156 65.311-34.104 19.376-80.98 10.016-118.35 10.803-.645.013-1.212.139-1.744.308-17.899-15.426-37.105-29.044-51.927-41.252-23.491-19.348-52.438-39.354-81.845-46.156-.014-7.056-.679-14.052-1.953-20.931 42.494-3.598 85.03.868 125.659 14.196.425.14.708-.524.306-.724-35.095-17.352-73.951-23.292-112.752-22.213-13.229.369-30.603-.856-5.047-13.193 21.16-10.222 50.074-10.824 71.29-11.225 31.747-.601 72.609 2.797 98.388 23.676.423.342 1.019-.213.611-.611-24.681-24.072-63.234-28.684-96.193-29.844-27.271-.959-65.229.076-88.768 17.27-4.853-12.373-11.607-24.012-19.912-34.455 44.994-38.472 103.228-63.599 160.955-75.501 32.674-6.735 66.284-1.126 90.586 22.808z" fill="#ff5671" data-original="#ff5671"/><path d="m460.481 148.923c14.882-39.358 53.887-63.232 94.677-49.799 26.609 8.763 48.578 19.971 76.847 23.393 32.751 3.967 61.525 9.739 78.919 40.829 19.089 34.112 13.973 76.693.266 111.569-19.757 5.503-39.103 13.351-57.289 20.877-31.604 13.08-61.067 30.553-87.111 52.706-2.938-3.118-6.051-6.058-9.265-8.887 33.622-25.81 71.175-62.672 74.894-106.638.036-.435-.634-.504-.742-.102-10.384 38.477-39.592 69.052-70.601 93.438-16.058 12.627-32.966-.542-20.789-18.848 7.573-11.392 12.246-25.154 15.959-37.737 8.797-29.819 11.585-62.264 8.749-93.167-.035-.396-.57-.391-.611 0-2.8 27.355-6.413 54.549-13.154 81.249-5.078 20.119-12.562 46.792-31.041 58.913-12.584-4.61-26.367-6.818-40.195-6.613 2.701-48.677-4.324-102.946-17.096-149.933-.904-3.321-1.971-6.633-3.119-9.923.268-.396.513-.828.702-1.327z" fill="#ff5671" data-original="#ff5671"/><path d="m287.064 139.899c14.104-12.17 31.418-18.262 49.007-23.281 17.794-5.079 34.504-12.894 53.082-14.98 45.907-5.158 62.16 53.579 68.646 87.954 7.409 39.277 12.907 81.195 10.658 121.179-3.375.38-6.717.96-10.035 1.633 2.352-12.363.024-26.002-1.553-38.127-2.281-17.528-7.886-34.643-13.995-51.152-.085-.229-.49-.216-.459.063 1.831 15.781 5.476 31.252 7.279 47.046 1.102 9.674 2.514 21.362 1.685 32.134-1.484 19.32-13.387 20.028-16.002-1.237-1.77-14.436-8.12-28.949-13.854-42.459-12.905-30.401-31.45-58.227-53.838-82.366-.274-.297-.805.102-.564.437 16.195 22.482 30.755 46.03 42.23 71.278 10.094 22.205 25.618 54.391 14.099 78.26-3.636 2.339-7.045 4.972-10.27 7.818-27.665-35.067-69.072-62.308-105.784-79.613-23.667-11.156-49.671-17.502-75.82-18.104 4.217-35.081 29.531-74.084 55.488-96.483z" fill="#ff5671" data-original="#ff5671"/><path d="m141.097 291.428c39.914-51.475 105.184-52.179 160.489-27.005 51.542 23.463 115.762 69.857 129.092 129.4-21.291-22.477-53.539-32.579-82.996-40.005-47.195-11.899-96.873-9.894-144.592-2.572-.366.057-.271.644.086.637 45.041-.915 89.573-2.015 133.876 7.682 33.069 7.238 72.989 18.763 93.68 47.591-13.449 1.277-26.285 5.212-38.938 10.363-18.746.671-37.46.52-56.216-.463-23.373-1.223-45.94-5.878-69.079-8.795-.279-.035-.402.428-.146.538 26.275 11.12 56.1 15.073 85.629 15.952 23.101.694 21.151.729 3.119 11.191-14.778 8.581-29.772 18.475-44.125 29.557-55.383-7-123.56 49.868-170.976 1.135-41.193-42.335-32.469-131.917 1.097-175.206z" fill="#ff5671" data-original="#ff5671"/><path d="m680.14 381.149c-21.216.4-50.13 1.003-71.29 11.225-19.83 9.573-13.795 12.444-3.921 13.083 17.152-9.771 39.648-13.485 58.216-17.107 18.594-3.627 38.063-5.817 57.273-5.201-13.856-1.829-27.773-2.236-40.278-2z" fill="#de3f58" data-original="#de3f58"/><path d="m602.637 435.238c29.406 6.803 58.354 26.809 81.845 46.156 5.926 4.882 12.565 10 19.53 15.356-14.729-19.728-34.556-34.166-55.504-47.758-7.392-4.794-27.778-16.16-25.531-27.438.922-4.619 6.424-7.012 13.134-8.293-11.785-.266-23.606.045-35.427 1.045 1.274 6.881 1.939 13.877 1.953 20.932z" fill="#de3f58" data-original="#de3f58"/><path d="m594.178 391.64c5.729-4.186 12.32-7.398 19.395-9.872-12.025-1.421-21.25-6.175-17.85-18.369 5.208-18.678 22.783-32.303 37.903-42.862 5.305-3.703 10.639-7.38 16.054-10.926-27.29 12.557-52.997 28.407-75.414 47.574 8.304 10.443 15.059 22.082 19.912 34.455z" fill="#de3f58" data-original="#de3f58"/><path d="m588.102 316.711c-2.61 1.298-5.224 2.598-7.832 3.911-7.499 6.845-15.215 13.208-22.745 18.989 3.214 2.829 6.327 5.769 9.265 8.887 26.044-22.153 55.508-39.626 87.111-52.706 13.262-5.489 27.15-11.126 41.354-15.923-22.688 1.859-45.488 8.608-66.095 17.34-13.971 5.918-27.476 12.754-41.058 19.502z" fill="#de3f58" data-original="#de3f58"/><path d="m708.733 515.86c-7.24-5.726-14.364-11.3-20.984-16.848-33.403-27.991-82.585-67.436-126.083-51.242 8.096 2.055 15.752 5.621 22.896 10.256 29.396 6.209 57.327 14.953 83.828 30.101 14.182 8.108 27.067 18.257 40.343 27.733z" fill="#de3f58" data-original="#de3f58"/><path d="m561.075 326.311c14.925-11.737 29.405-24.924 41.598-39.72-6.685 5.923-13.474 11.692-21.14 16.474-4.243 2.646-8.713 4.899-13.438 6.543-16.056 5.582-12.539-14.346-10.214-23.068 7.53-28.262 13.274-56.354 8.149-85.292-.115 23.141-3.308 46.521-9.786 68.479-3.713 12.583-8.386 26.346-15.959 37.737-12.176 18.305 4.733 31.474 20.79 18.847z" fill="#de3f58" data-original="#de3f58"/><path d="m557.763 465.638c6.085 4.565 11.419 10.088 16.144 16.221 12.92 8.616 25.057 18.227 35.913 30.143 17.796 19.534 27.815 42.178 33.905 66.846-3.339-19.928-9.611-39.733-18.07-56.742-13.332-26.802-35.929-59.102-66.983-66.172-19.281-4.397-8.344 4.129-.909 9.704z" fill="#de3f58" data-original="#de3f58"/><path d="m479.992 310.107c13.828-.205 27.611 2.003 40.195 6.613 13.477-8.84 21.093-25.417 26.206-41.551-5.747 8.821-12.935 16.55-22.498 21.92-24.054 13.503-33.739-16.877-36.023-34.183-4.07-30.845-8.01-62.78-21.974-90.803 10.809 44.109 16.571 93.375 14.094 138.004z" fill="#de3f58" data-original="#de3f58"/><path d="m359.941 465.735c2.59-1.883 5.167-3.718 7.625-5.505 5.239-3.81 10.546-7.383 15.909-10.839-8.249 4.772-16.442 10.169-23.534 16.344z" fill="#de3f58" data-original="#de3f58"/><path d="m564.617 615.011c5.7-38.226 4.009-81.109-6.915-119.311 18.454 20.936 32.857 46.149 40.109 72.787-3.62-23.762-9.66-47.179-22.298-67.902-8.379-13.74-19.651-27.701-34.525-34.85 5.745 17.389 8.234 36.938 10.85 54.815 6.809 46.522 9.572 96.342-4.438 141.917-4.794 15.595-11.803 31.904-20.919 47.031 7.387-9.653 13.268-20.933 18.612-30.898 10.529-19.63 16.257-41.685 19.524-63.589z" fill="#de3f58" data-original="#de3f58"/><path d="m310.975 465.499c14.353-11.082 29.347-20.976 44.125-29.557 18.032-10.463 19.981-10.497-3.119-11.191-3.771-.112-7.546-.279-11.317-.5 2.218 1.314 3.931 2.924 4.743 4.968 4.094 10.323-29.211 20.018-33.188 21.252-15.828 4.907-32.365 7.079-48.164 12.144-12.869 4.123-25.345 10.521-36.728 17.885 28.377-7.333 57.444-18.313 83.648-15.001z" fill="#de3f58" data-original="#de3f58"/><path d="m413.181 334.098c3.225-2.847 6.634-5.479 10.27-7.818 11.52-23.869-4.005-56.055-14.099-78.26-3.945-8.68-8.277-17.145-12.893-25.446 1.757 5.255 3.335 10.558 5.217 15.512 5.908 15.54 10.994 31.748 12.809 48.33.596 5.448.59 10.98-.719 16.323-3.426 13.982-19.908 3.703-27.162-.402-8.113-4.592-15.691-10.148-23.57-15.163 18.641 13.46 36.154 29.186 50.147 46.924z" fill="#de3f58" data-original="#de3f58"/><path d="m416.326 431.475c10.708-4.69 25.498-9.593 40.249-11.291-1.545-.347-3.081-.746-4.639-.991-24.14-3.782-45.79 3.938-67.42 13.943-34.278 17.076-77.419 45.193-109.184 80.284 38.193-35.05 84.914-63.814 134.837-78.995 2.054-.983 4.055-2.029 6.157-2.95z" fill="#de3f58" data-original="#de3f58"/><path d="m464.797 441.903c17.026 3.445 21.157 18.194 20.833 33.582-.558 26.593-11.333 55.436-19.937 80.39-8.288 24.04-19.478 45.18-33.638 65.699 20.15-21.607 33.636-49.855 45.378-76.478 7.661-17.363 14.587-34.737 18.424-53.403 1.758-8.538 4.16-19.336 4.767-29.923 1.5-26.213-22.853-37.957-54.08-32.086-27.031 5.084-53.716 19.629-76.944 36.203 17.314-9.741 36.592-17.24 54.638-21.884 13.034-3.354 27.271-4.787 40.559-2.1z" fill="#de3f58" data-original="#de3f58"/><path d="m542.301 534.744c-3.613-27.087-4.281-62.059-24.677-81.883 1.84 5.857 3.018 11.968 3.773 18.167 4.25 9.035 7.387 18.479 10.271 28.034 5.786 19.149 9.099 39.036 11.243 58.893 1.968 18.214 1.997 36.383 1.436 54.646 2.339-26.903 1.147-53.922-2.046-77.857z" fill="#de3f58" data-original="#de3f58"/><path d="m387.195 339.585c4.178 5.693 14.349 18.951 1.623 21.299-4.102.756-8.236.965-12.37 1.239 20.259 6.888 39.771 16.438 54.229 31.7-13.33-59.543-77.55-105.938-129.092-129.4-.564-.256-1.138-.494-1.704-.746 20.981 11.666 39.794 25.63 57.419 43.015 10.558 10.412 21.102 20.91 29.895 32.893z" fill="#de3f58" data-original="#de3f58"/><path d="m497.415 577.147c1.5-3.82 2.921-7.68 4.129-11.642 4.481-14.718 7.886-29.761 10.018-45.005 2.969-21.216 4.745-45.828-2.442-66.853.221 6.361-.379 12.885-1.256 19.147 2.165 15.612 1.47 32.102.361 47.163-1.457 19.788-5.422 38.535-10.81 57.19z" fill="#de3f58" data-original="#de3f58"/><path d="m391.793 417.519c12.653-5.151 25.489-9.086 38.938-10.363-20.69-28.828-60.61-40.353-93.68-47.591-28.295-6.193-56.685-7.968-85.239-8.213 6.887.538 14.24.259 20.334.866 15.334 1.526 30.465 3.796 45.54 6.998 27.886 5.926 54.27 16.503 79.368 29.952 7.954 4.261 11.267 10.065 1.318 13.732-9.071 3.342-19.33 4.183-28.835 5.273-22.234 2.548-45.52 4.98-68.139 5.183 11.307 1.653 22.644 3.095 34.178 3.699 18.757.983 37.471 1.134 56.217.464z" fill="#de3f58" data-original="#de3f58"/><path d="m460.798 222.865c.326 11.215-.052 22.417-1.814 33.506-.771 4.846-1.783 9.648-2.642 14.468.178 1.146.38 2.289.527 3.438 1.577 12.125 3.904 25.764 1.553 38.127 3.318-.673 6.66-1.253 10.035-1.633 2.182-38.778-2.943-79.355-10.014-117.599 1.181 9.829 2.063 19.696 2.355 29.693z" fill="#de3f58" data-original="#de3f58"/><path d="m389.148 202.293c12.883 17.472 23.872 36.352 32.375 56.378 5.733 13.51 12.084 28.023 13.854 42.459 2.615 21.266 14.518 20.558 16.002 1.237.627-8.156-.029-16.827-.863-24.763-.014.605-.005 1.208-.027 1.813-.079 2.125-1.482 25.809-8.134 19.802-8.12-7.335-10.987-22.855-15.386-32.637-9.631-21.421-21.101-46.745-37.821-64.289z" fill="#de3f58" data-original="#de3f58"/><path d="m194.986 411.724c-3.124-9.652-7.302-18.895-10.668-28.451-4.167-11.833-7.25-24.012-8.904-36.447-3.516-26.393-15.049-27.27-26.901-5.019-2.743 5.145-5.087 10.42-7.088 15.498-5.869 14.893-6.208 31.261-4.164 46.958 2.23 17.145 10.175 37.502 24.551 47.994 15.975 11.675 46.11 16.963 37.204-25.764-1.205-5.779-2.845-11.11-4.03-14.769z" fill="#ff9680" data-original="#ff9680"/><path d="m476.723 682.854c-4.661-9.624-19.398-9.95-28.488-10.4-12.527-.615-25.169 1.322-37.648.302-29.933-2.446-60.732-16.444-80.194-39.54-11.063-13.121-16.772-30.295-20.442-46.771-1.391-6.231-2.883-14.052-3.573-21.987-1.869-21.387-13.984-15.776-20.701-4.5-15.966 26.824-19.767 60.847-6.813 89.641 9.919 22.051 30.372 37.953 50.017 50.971 19.955 13.225 43.71 24.131 67.606 27.247 20.537 2.676 42.825-1.97 60.336-13.026 8.266-5.22 25.646-20.081 19.9-31.937z" fill="#ff9680" data-original="#ff9680"/><path d="m718.445 563.94c-13.024-8.188-30.881-3.085-39.602 9.029-9.75 13.543-11.164 31.209-16.208 46.702-2.645 8.113-6.946 16.269-15.205 19.707-12.391 5.161-25.593-3.63-38.221-.526-11.435 2.809-20.78 11.369-27.188 21.806-25.873 42.11 5.484 33.975 29.051 24.107 15.92-6.671 32.609-11.045 50.244-14.228 21.014-3.793 42.987-6.604 61.044-18.915 30.632-20.889 26.766-68.393-3.915-87.682z" fill="#ff9680" data-original="#ff9680"/><path d="m285.604 221.141c16.225 10.155 31.43-2.462 39.196-16.505 5.27-9.521 8.588-20.007 13.351-29.772 2.467-5.053 5.7-9.267 9.348-13.073 13.223-13.784 13.715-20.434-6.498-14.39-17.021 5.091-33.474 15.39-46.001 25.977-11.369 9.603-27.668 36.322-9.396 47.763z" fill="#ff9680" data-original="#ff9680"/><path d="m860.149 445.647c-5.84-22.478-23.267-39.923-31.351-61.422-7.927-21.084-2.033-44.765-21.486-61.249-9.643-8.172-22.145-11.718-34.955-12.154-10.63-.36-23.144 6.076 1.816 20.935 37.069 22.068 32.761 54.425 33.777 67.121 1.289 16.104-6.287 28.949-17.629 40.154-12.168 12.023-27.155 26.174-20.095 44.366 4.637 11.956 19.273 15.678 31.261 16.522 14.609 1.033 30.771-2.305 43.377-9.419 16.866-9.524 19.612-28.193 15.285-44.854z" fill="#ff9680" data-original="#ff9680"/><path d="m532.936 185.181c9.608-4.322 17.96-10.592 27.004-15.9 15.756-9.249 36.565-7.119 52.646-.288 13.078 5.557 24.967 15.945 34.848 25.981 5.474 5.561 9.109 11.763 12.098 18.321 12.194 26.798 22.923 33.535 28.604 1.291 7.528-42.774 7.409-62.166-48.637-71.813-9.453-1.625-18.965-2.793-28.255-5.255-10.772-2.858-20.807-8.747-30.869-13.42-17.067-7.922-36.471-15.352-54.75-7.115-17.243 7.77-25.966 31.578-25.754 49.194.225 18.918 17.18 26.147 33.065 19.004z" fill="#ff9680" data-original="#ff9680"/><path d="m355.205 884.276c-3.092 14.486-22.484 35.395-32.322 11.538-5.776-14.009 7.578-44.373 11.151-58.634 7.09-28.32 15.381-56.312 23.986-84.199 9.636 4.324 19.431 8.255 29.353 11.378-16.04 37.335-23.771 80.595-32.168 119.917z" fill="#a98053" data-original="#a98053"/><path d="m584.599 399.089c-1.88 5.748-4.925 11.138-9.624 15.873-18.327 18.467-50.107 9.139-69.633-1.675-17.729-9.819-34.184-21.725-47.418-37.168-7.964-9.294-13.453-19.898-16.581-31.718-1.226-4.63-1.659-9.271-1.878-13.924-7.004 3.29-13.568 7.533-19.417 12.89 13.225 19.147 22.167 40.417 24.202 63.502 1.172.054 2.32.021 3.504.119 22.5 1.862 44.283 14.623 62.848 26.463 8.03 5.12 16.791 10.667 22.986 18.164 18.079-15.695 37.748-20.42 57.514-18.333-.297-11.403-2.595-23.006-6.503-34.193z" fill="#ec748f" data-original="#ec748f"/><path d="m539.112 354.315c-9.308-7.364-20.534-13.434-31.946-16.752-31.207-9.069-32.602 7.63-19.699 21.979 9.142 10.157 19.8 18.848 31.684 25.59 42.706 24.221 54.678-3.346 19.961-30.817z" fill="#ffe0db" data-original="#ffe0db"/><g fill="#68182b"><path d="m699.377 264.961c12.757-21.588 19.08-49.06 8.914-73.015-.119-.281-.59-.137-.569.155 1.854 25.488-7.09 47.665-9.553 72.533-.065.669.899.848 1.208.327z" fill="#68182b" data-original="#68182b"/><path d="m435.728 162.512c.279.639 1.291.301 1.272-.344-.541-18.937-18.301-58.652-43.345-50.308-.22.074-.223.378 0 .45 23.845 7.821 32.601 28.717 42.073 50.202z" fill="#68182b" data-original="#68182b"/><path d="m441.318 180.013c.301-3.791-.257-7.746-2.931-10.706-.31-.342-.794-.045-.829.345-.349 3.812 1.479 7.247 3.021 10.562.184.388.712.152.739-.201z" fill="#68182b" data-original="#68182b"/><path d="m720.19 301.987c20.978-4.378 42.012-3.665 63.248-4.99.796-.049.949-1.124.187-1.378-19.824-6.625-41.128-4.165-61.294-.304-20.715 3.967-43.103 11.936-59.927 24.908-.234.183-.112.65.223.526 19.154-6.995 37.49-14.575 57.563-18.762z" fill="#68182b" data-original="#68182b"/><path d="m802.325 301.299c.38.065.73-.382.402-.69-3.042-2.854-8.134-6.17-12.084-2.864-.193.159-.133.508.078.62 3.531 1.875 7.727 2.288 11.604 2.934z" fill="#68182b" data-original="#68182b"/><path d="m721.949 544.598c-.464-.116-.648.464-.307.724 22.206 16.875 31.543 41.925 37.639 68.314.123.538 1.005.564 1.111 0 4.684-25.209-11.789-62.328-38.443-69.038z" fill="#68182b" data-original="#68182b"/><path d="m759.34 619.525c-1.205 1.972-1.476 4.269-1.785 6.521-.288 2.101-.522 3.715.603 5.59.182.306.532.364.836.221 4.097-1.932 3.321-9.085 1.341-12.332-.229-.373-.769-.373-.995 0z" fill="#68182b" data-original="#68182b"/><path d="m607.101 698.004c-10.206 3.905-19.815 8.961-29.977 12.983-10.079 3.992-21.405 5.523-30.993 10.486-.196.101-.167.456.064.494 20.578 3.281 46.8-9.287 61.589-22.79.499-.455-.02-1.427-.683-1.173z" fill="#68182b" data-original="#68182b"/><path d="m505.304 695.411c-11.907 16.031-27.452 30.042-45.567 38.571-19.115 9.001-37.736 7.133-57.959 7.944-.492.021-.697.677-.254.938 16.865 9.917 41.976 6.25 59.079-1.081 21.428-9.188 37.789-23.78 46.115-45.776.335-.886-.935-1.241-1.414-.596z" fill="#68182b" data-original="#68182b"/><path d="m517.532 672.468c-3.183 4.599-6.539 9.498-7.371 15.16-.057.381.27.662.634.488 5.84-2.799 7.911-9.287 7.877-15.34-.004-.64-.805-.794-1.14-.308z" fill="#68182b" data-original="#68182b"/><path d="m253.271 620.663c-2.092-11.848-1.358-24.13 1.172-35.816 2.275-10.518 7.227-20.438 7.989-31.231.04-.567-.733-.695-1.005-.272-12.827 19.883-18.804 45.853-15.166 69.252 2.944 18.92 12.094 46.695 31.567 54.87.551.231 1.097-.54.771-1.003-11.82-16.939-21.703-35.263-25.328-55.8z" fill="#68182b" data-original="#68182b"/><path d="m290.954 683.343c-2.343-1.039-4.558-2.769-7.187-2.939-.238-.016-.428.209-.432.432-.057 2.838 2.536 4.482 4.773 5.665 3.302 1.745 6.364 2.574 10.05 2.88.47.039.575-.535.344-.829-2.135-2.689-4.455-3.838-7.548-5.209z" fill="#68182b" data-original="#68182b"/><path d="m210.825 474.781c.709-.228.526-1.167-.166-1.237-13.95-1.409-28.022-1.915-41.317-6.764-14.271-5.203-23.793-16.795-32.709-28.434-.175-.228-.584-.108-.494.209 8.918 31.001 45.324 45.643 74.686 36.226z" fill="#68182b" data-original="#68182b"/><path d="m226.416 471.809c.546-.573.541-1.728-.271-2.099-3.159-1.445-6.966.428-9.422 2.47-.229.19-.081.553.167.632 2.883.913 7.216 1.429 9.526-1.003z" fill="#68182b" data-original="#68182b"/><path d="m212.551 270.166c21.912-4.677 43.914-1.797 66.036-1.394.643.011.984-.987.344-1.273-20.337-9.1-43.096-8.193-64.683-4.637-19.334 3.183-40.815 11.111-53.338 26.86-.234.295.054.729.416.535 16.529-8.867 32.785-16.155 51.225-20.091z" fill="#68182b" data-original="#68182b"/><path d="m251.936 219.97c6.314-12.235 12.051-24.088 20.541-35.063 7.005-9.056 14.994-17.099 21.714-26.396.449-.62-.407-1.367-1.01-1.009-19.89 11.801-41.794 37.955-42.118 62.231-.006.455.655.655.873.237z" fill="#68182b" data-original="#68182b"/><path d="m298.294 154.594c2.132-.686 3.996-2.048 5.833-3.287 2.265-1.527 3.742-2.966 4.407-5.671.104-.412-.294-.929-.751-.752-3.668 1.424-10.193 4.443-10.128 9.225.005.317.32.586.639.485z" fill="#68182b" data-original="#68182b"/><path d="m484.306 137.005c22.685-12.013 42.81-27.394 70.228-21.977.745.148 1.154-.789.514-1.216-23.278-15.557-56.813 1.697-71.308 22.626-.251.363.224.747.566.567z" fill="#68182b" data-original="#68182b"/><path d="m839.88 508.837c15.248-6.772 26.553-14.162 31.983-30.726 4.879-14.884-.21-33.858-13.086-43.091-.159-.115-.422.076-.344.266 5.783 14.049 9.914 25.445 5.774 40.717-3.332 12.286-15.497 23.954-25.311 31.562-.784.609.217 1.612.984 1.272z" fill="#68182b" data-original="#68182b"/><path d="m434.226 481.037c-22.444 16.233-41.429 35.547-59.062 56.921-16.457 19.952-31.762 43.286-36.479 69.097-.069.384.45.656.656.278 12.933-23.719 26.182-46.029 43.591-66.83 16.815-20.088 36.129-37.584 52.166-58.337.452-.585-.146-1.653-.872-1.129z" fill="#68182b" data-original="#68182b"/><path d="m441.854 477.407c5.345-5.084 11.166-9.443 16.156-14.929.347-.38.016-1.14-.542-.931-7.92 2.971-12.149 8.293-16.403 15.25-.307.501.381 1 .789.61z" fill="#68182b" data-original="#68182b"/><path d="m645.281 435.209c-.459.014-.524.635-.106.778 15.203 5.219 30.582 9.35 45.385 15.74 13.933 6.016 27.396 14.068 40.735 21.295.667.362 1.33-.492.805-1.045-21.729-22.941-54.868-37.681-86.819-36.768z" fill="#68182b" data-original="#68182b"/><path d="m634.004 361.174c24.416-12.136 48.838-17.204 75.75-20.408.922-.11.932-1.338 0-1.439-27.494-2.959-55.893.542-76.316 21.112-.39.391.1.964.566.735z" fill="#68182b" data-original="#68182b"/><path d="m589.55 256.4c15.343-20.261 26.933-48.839 13.521-73.161-.214-.384-.861-.222-.839.228 1.234 25.975-4.511 48.306-14.129 72.321-.363.906.955 1.26 1.447.612z" fill="#68182b" data-original="#68182b"/><path d="m314.691 232.411c23.617 8.711 45.117 18.688 64.215 35.522.499.438 1.277-.115.934-.72-13.007-22.89-38.403-37.035-64.986-36.004-.713.028-.803.966-.163 1.202z" fill="#68182b" data-original="#68182b"/><path d="m270.066 319.738c24.635-3.649 50.978 5.327 73.196 15.188.699.31 1.605-.599.896-1.158-18.959-14.94-51.563-27.647-74.425-14.818-.458.257-.121.856.333.788z" fill="#68182b" data-original="#68182b"/><path d="m430.185 557.986c8.143-4.934 14.403-10.508 20.198-18.117 6.334-8.32 8.644-17.077 11.313-26.952.195-.725-.794-1.116-1.186-.5-9.68 15.264-18.366 31.67-30.804 44.949-.304.322.085.859.479.62z" fill="#68182b" data-original="#68182b"/><path d="m766.477 359.726c-.297.048-.252.479 0 .554 8.474 2.57 17.121 4.846 25.229 8.45 7.521 3.347 13.826 8.723 20.575 13.324.479.325 1.102-.212.951-.733-4.961-17.142-31.107-24.085-46.755-21.595z" fill="#68182b" data-original="#68182b"/><path d="m822.669 394.642c1.115 1.014 2.21.971 3.542 1.43.551.191 1.176-.418.973-.974-.353-.982-.342-1.979-1.034-2.819-.832-1.013-1.849-1.869-2.874-2.681-1.825-1.439-3.665-2.66-5.94-3.183-.349-.078-.663.221-.575.576.492 1.99 1.666 3.499 3.071 4.967.902.945 1.872 1.804 2.837 2.684z" fill="#68182b" data-original="#68182b"/></g></g></g></g></svg>