<svg xmlns="http://www.w3.org/2000/svg" version="1.1" xmlns:xlink="http://www.w3.org/1999/xlink" xmlns:svgjs="http://svgjs.com/svgjs" width="512" height="512" x="0" y="0" viewBox="0 0 1000 1000" style="enable-background:new 0 0 512 512" xml:space="preserve"><g><g xmlns="http://www.w3.org/2000/svg"><path d="m104.547 489.848c18.963 12.151 39.961 22.221 64.959 31.074-14.092 7.285-27.249 14.958-39.65 23.109-1.592 1.046-3.558 2.273-5.768 3.656-20.873 13.071-52.416 32.821-52.416 59.4 0 34.477 49.404 39.334 70.504 41.407l2.871.292c16.496 1.831 33.67 2.76 51.047 2.76h.003c5.149 0 10.321-.076 15.526-.234-.037.041-.076.079-.114.119-22.384 23.454-43.149 50.543-63.486 82.82-8.808 13.976-32.201 51.097-7.34 73.826 8.021 7.333 18.473 11.21 30.227 11.21 13.881 0 27.118-5.147 37.757-9.282 1.508-.588 2.962-1.152 4.35-1.674 17.072-6.404 32.947-13.325 47.874-20.883-1.421 4.904-2.696 9.807-3.827 14.717l-.666 2.854c-4.879 20.889-13.047 55.849 2.227 77.865 6.199 8.94 15.916 13.865 27.357 13.865 13.431 0 26.385-6.727 34.957-11.178l2.584-1.327c14.797-7.411 29.406-17.022 44.535-29.382.822 23.52 3.58 44.799 8.309 64.389l.836 3.555c4.086 17.594 10.924 47.041 36.543 54.749 2.912.877 5.93 1.319 8.971 1.319 22.914 0 37.945-23.887 46.928-38.159.822-1.307 1.551-2.47 2.176-3.416 10.531-15.935 19.865-31.679 28.143-47.491 23.925 43.75 44.249 62.974 65.433 62.974 6.76 0 16.693-2.075 25.633-11.958 17.811-19.699 21.18-51.58 23.64-74.858.323-3.071.634-6.007.96-8.741.607-5.07 1.154-10.139 1.645-15.174 15.93 19.935 54.924 64.532 84.754 64.532 14.738 0 26.267-9.269 30.84-24.794 5.793-19.664 4.143-40.084 2.686-58.103-.242-2.989-.481-5.95-.684-8.869-.571-8.309-1.533-16.819-2.879-25.497 14.521 7.047 28.736 13.158 42.89 18.452l1.526.573c10.302 3.872 27.54 10.351 43.769 10.351 11.59 0 21.259-3.218 28.74-9.565 27.935-23.705 7.274-65.609-.502-81.384-8.207-16.649-18.238-32.45-28.515-46.842 8.94.44 18.146.663 27.593.663 12.049 0 24.81-.359 37.931-1.07 1.221-.065 2.91-.095 4.925-.135 22.163-.445 63.417-1.277 66.774-31.879 3.51-32.006-25.375-56.969-44.488-73.486-1.754-1.516-3.411-2.948-4.924-4.289-17.286-15.313-36.254-29.315-56.676-41.858 13.748-5.847 27.335-12.091 40.966-18.821l3.929-1.925c22.183-10.83 55.704-27.198 63.864-56.671 8.309-30.029-10.204-53.678-55.022-70.289-23.132-8.574-50.064-12.898-84.249-13.476 14.648-17.598 27.963-37.085 39.777-58.251 1.252-2.244 2.788-4.731 4.425-7.394 9.537-15.522 22.598-36.781 16.636-58.447-4.169-15.149-17.301-24.191-35.133-24.191-10.861 0-21.735 3.09-28.932 5.134l-2.395.675c-28.77 7.87-52.808 15.918-74.134 24.863 2.073-6.62 4.012-13.225 5.824-19.844l.251-.924c7.493-27.348 15.984-58.344 11.864-88.998-3.209-23.894-17.931-38.16-39.377-38.16-8.304 0-31.114.002-86.4 45.362-1.288-11.608-3.203-23.31-5.74-35.034-3.592-16.591-9.275-34.119-17.383-53.588-.402-.967-.803-1.972-1.211-2.998-3.561-8.903-8.937-22.356-21.809-29.896-5.498-3.22-11.398-4.853-17.537-4.853-26.797 0-44.031 30.04-54.328 47.986-.86 1.502-1.625 2.838-2.281 3.938-7.945 13.271-15.07 27.631-21.488 43.332-23.276-36.64-45.83-55.158-67.291-55.158-7.217 0-14.053 1.973-20.319 5.862-18.587 11.543-21.695 35.772-23.962 53.462-.383 2.973-.722 5.705-1.133 7.987-2.193 12.13-3.81 24.742-4.875 38.243-16.086-17.2-32.84-32.509-50.092-45.751-2.129-1.635-4.614-3.677-7.378-5.939-17.718-14.515-41.985-34.393-66.77-34.393-6.438 0-12.509 1.349-18.041 4.012-24.813 11.936-16.91 48.931-6.686 85.802.427 1.543.776 2.791 1.001 3.663 4.889 18.963 11.906 37.483 19.643 54.938-15.203-3.762-30.261-6.487-45.066-8.151-4.877-.549-9.271-.816-13.434-.816-32.588 0-42.531 17.054-45.558 27.22-8.245 27.704 10.081 56.127 22.208 74.935 1.4 2.172 2.732 4.234 3.933 6.164 10.024 16.096 21.448 32.057 35.319 49.223-20.525-1.758-41.517-3.195-62.809-3.195-8.494 0-16.771.236-24.604.706l-1.661.097c-20.268 1.181-74.104 4.32-75.283 45.201-.782 26.977 28.782 46.918 59.134 65.031 2.82 1.681 5.266 3.136 7.119 4.324z" fill="#ffffff" data-original="#ffffff"/><g><path d="m196.42 509.125c9.382 2.836 18.954 5.484 28.642 7.958-29.427 11.88-57.824 25.811-84.453 43.312-13.02 8.557-49.356 28.605-49.356 46.693 0 18.16 45.372 21.063 55.957 22.237 39.563 4.392 79.068 3.013 118.383-1.985-13.863 11.848-27.209 24.295-39.916 37.611-23.176 24.283-43.215 51.377-61.086 79.737-6.465 10.259-23.478 37.251-10.696 48.938 14.142 12.928 37.015 2.087 52.243-3.627 28.212-10.585 55.187-23.46 80.498-39.871 4.801-3.112 9.471-6.397 14.083-9.755-10.641 21.055-19.19 42.84-24.575 66.194-3.863 16.748-12.348 49.419-1.428 65.159 8.85 12.764 30.688-.309 40.037-4.99 27.582-13.815 51.928-35.088 73.578-57.273-.139 2.396-.303 4.79-.414 7.181-1.495 32.428-.159 66.355 7.484 98.015 3.339 13.834 7.877 39.3 23.981 44.146 14.929 4.488 29.983-23.042 36.101-32.3 17.051-25.803 31.881-52.746 43.84-81.28.04-.095.074-.19.114-.285 13.977 30.204 52.627 109.775 77.066 82.751 15.554-17.2 17.083-51.086 19.683-72.794 2.809-23.438 4.281-47.171 5.41-70.819 8.068 14.095 17.115 27.865 27.449 41.268 7.124 9.237 73.419 90.352 85.038 50.912 5.626-19.101 2.597-40.533 1.25-60.094-1.489-21.623-5.626-43.023-11.457-63.914 24.985 14.329 50.863 27.088 77.862 37.185 13.359 4.996 41.169 16.082 54.506 4.767 15.977-13.557 1.74-43.318-5.397-57.795-14.038-28.479-34.024-54.941-54.465-79.515 35.215 5.585 72.597 5.97 107.981 4.057 10.52-.569 51.584.958 53.291-14.599 2.658-24.227-27.398-47.22-42.934-60.981-26.696-23.651-57.251-43.557-89.216-59.232-.15-.074-.309-.137-.459-.211 26.752-9.729 52.673-20.808 78.28-33.451 18.637-9.204 51.359-23.75 57.591-46.262 7.245-26.181-23.263-39.406-42.956-46.705-38.14-14.137-83.39-13.159-124.367-11.216 2.48-2.256 4.942-4.529 7.36-6.838 24.829-23.742 45.533-51.643 62.243-81.577 7.436-13.326 23.822-34.591 19.279-51.103-4.607-16.744-31.778-7.601-42.412-4.69-30.275 8.284-60.151 18.012-88.516 31.546-8.676 4.14-17.232 8.768-25.658 13.746 8.457-21.059 15.772-42.279 21.811-64.332 7.08-25.854 15.228-55.11 11.596-82.141-7.789-57.973-94.215 18.437-124.05 46.143.552-24.329-2.023-48.52-7.2-72.441-3.721-17.193-9.57-33.988-16.32-50.203-3.4-8.167-6.717-18.766-14.842-23.523-20.152-11.806-40.06 27.883-47.446 40.229-15.023 25.106-25.882 52.857-34.132 80.979-15.401-31.061-53.01-98.012-81.438-80.36-13.235 8.219-13.755 35.012-16.157 48.297-5.162 28.556-6.433 57.721-6.094 86.74-1.299-1.728-2.574-3.475-3.9-5.181-22.201-28.563-47.406-54.944-76.16-77.017-15.729-12.071-49.783-44.792-71.779-34.209-13.473 6.481 2.297 57.285 4.787 66.931 8.243 31.97 22.803 62.578 38.107 91.91-27.32-10.18-55.666-17.515-84.68-20.778-11.678-1.313-33.611-2.332-38.036 12.532-6.447 21.659 13.505 48.313 23.995 65.162 18.766 30.132 41.762 57.793 65.709 84.064-9.506-1.241-19.021-2.303-28.525-3.173-34.755-3.184-69.83-6.348-104.729-4.261-16.996 1.016-57.858 2.622-58.542 26.318-.601 20.746 43.493 43.491 57.247 52.304 25.388 16.263 52.548 27.064 81.309 35.759z" fill="#68182b" data-original="#68182b"/><path d="m279.887 613.805c-33.521 5.146-66.61 7.232-100.491 6.385-15.563-.387-31.002-1.947-46.327-4.685-26.826-4.799-33.201-10.76-5.673-32.581 34.274-27.164 76.98-46.077 116.796-61.018.114-.043.207-.107.316-.154 49.486 10.998 101.581 16.222 150.854 10.598.559 2.683 1.208 5.35 1.952 8-76.753 11.516-152.012 30.18-226.036 53.26-.508.158-.299.92.221.797 69.167-16.465 138.52-32.809 208.696-44.486-25.963 10.846-49.272 26.92-71.988 43.713-8.916 6.59-17.661 13.325-26.258 20.215-.646-.117-1.325-.157-2.062-.044z" fill="#f9c035" data-original="#f9c035"/><path d="m432.89 433.253c41.187-41.351 104.295-44.602 149.239-7.321 50.203 41.645 47.125 114.913 4.262 159.599-37.791 39.395-103.144 39.234-144.179 5.736-48.977-39.98-49.254-112.498-9.322-158.014z" fill="#ff801d" data-original="#ff801d"/><path d="m174.586 751.317c4.857-8.698 9.924-16.289 11.813-19.125 16.889-25.36 36.844-48.528 58.186-70.212 12.246-12.441 25.774-25.289 40.195-37.692.623-.335 1.113-.767 1.478-1.279 31.521-26.926 67.347-51.566 104.126-64.95 13.544-4.927 16.66 10.141 3.545 20.247-57.598 44.359-111.023 93.726-157.528 149.792-.261.317.161.763.458.459 51.174-52.272 104.847-101.676 163.045-145.936 17.832-13.561 25.672 2.174 16.695 18.711-24.688 45.452-67.43 85.033-106.389 117.245-30.195 24.967-66.238 46.219-103.931 59.747-23.472 8.428-58.571 21.076-31.693-27.007z" fill="#f9c035" data-original="#f9c035"/><path d="m389.534 791.541c-16.836 17.996-34.83 34.521-54.699 49.139-2.559 1.884-9.25 6.696-17.033 11.481-31.373 19.278-40.523 15.935-34.324-27.285 5.199-36.237 22.164-71.772 39.986-102.152.105-.178.16-.354.245-.53 15.322-13.063 29.792-27.146 43.824-41.594 24.442-25.172 48.767-51.497 63.985-83.43 5.415 5.228 11.234 9.752 17.376 13.574-12.821 18.621-23.258 38.561-31.614 59.383-11.765 17.394-23.656 34.706-35.746 51.877-15.712 22.313-34.16 43.873-47.63 67.608-.13.233.178.472.369.286 18.491-18.165 33.415-41.174 48.744-61.982 9.123-12.384 18.048-24.906 26.858-37.513-10.825 32.605-17.15 66.844-20.227 101.039-.038.037-.078.062-.114.099z" fill="#f9c035" data-original="#f9c035"/><path d="m405.198 908.234c-1.851-9.81-2.932-19.681-3.886-28.298-3.214-29.008-2.636-58.31-.407-87.356 4.484-58.424 20.929-118.549 52.804-168.326 8.534-13.33 22.597-1.601 17.38 16.69-7.744 27.132-14.5 54.66-19.156 82.42-6.146 36.622-6.991 73.902-9.265 110.884-.029.486.744.59.848.115 7.792-35.986 9.188-72.842 15.304-109.102 4.824-28.592 12.164-57.055 20.25-85.039 8.219-28.439 36.581-11.239 39.047 1.902 7.679 40.869 3.157 75.254 2.647 79.064-4.208 31.257-12.23 62.167-20.845 89.389-9.998 31.602-24.221 61.801-41.762 89.877-1.332 2.13-4.93 8.444-9.535 15.662-21.425 33.561-34.659 38.589-43.424-7.882z" fill="#f9c035" data-original="#f9c035"/><path d="m590.924 765.588c-1.783 41.668-3.117 84.642-12.37 125.398-8.726 38.45-18.909 30.078-37.71 3.477-14.113-19.973-25.131-42.246-35.583-64.287 10.394-27.791 17.858-56.779 22.331-86.104 6.342 37.432 15.104 74.406 27.236 110.223.142.418.756.252.661-.18-10.069-45.219-18.405-90.516-24.522-136.17 3.488-30.634 5.629-62.588-1.513-92.52 5.954-1.012 11.844-2.46 17.618-4.299 9.002 50.941 21.906 98.779 44.011 143.343-.079.356-.142.72-.159 1.119z" fill="#f9c035" data-original="#f9c035"/><path d="m697.663 874.152c-11.882-2.502-22.869-15.142-31.261-23.26-19.296-18.666-35.498-40.89-50.168-63.266-5.158-7.868-9.811-15.966-14.117-24.221-.168-.479-.387-.913-.67-1.291-21.936-42.561-33.442-89.719-41.994-136.826-2.448-13.467 16.705-23.011 25.377-9.543 17.816 27.681 34.9 55.643 49.526 85.256 8.86 17.933 16.716 36.279 23.618 55.051 6.505 17.697 10.705 36.534 18.115 53.836.159.373.744.168.737-.2-.601-35.637-18.145-73.115-32.774-104.968-14.309-31.15-31.621-61.357-50.624-90.05-8.079-12.208-2.892-13.609 8.814-4.853 72.036 53.862 101.028 151.316 103.245 237.92.127 4.911 1.993 28.483-7.824 26.415z" fill="#f9c035" data-original="#f9c035"/><path d="m820.856 786.923c-19.154.763-40.915-10.05-57.941-17.44-22.051-9.568-43.282-21.117-63.909-33.424-.979-3.025-1.973-6.045-3.014-9.043-18.592-53.52-51.334-104.214-99.58-135.191 6.722-6.525 12.426-13.593 17.119-21.072.646.576 1.289 1.151 1.934 1.727 9.865 10.45 20.695 20.119 32.244 28.954 15.691 14.266 31.176 28.754 46.055 43.878 26.305 26.739 47.584 56.95 70.694 86.326.245.315.717-.085.535-.413-17.848-32.111-37.972-61.069-63.335-87.741-6.143-6.462-12.452-12.756-18.82-18.992 23.953 13.304 49.776 23.211 76.055 29.109.223.457.49.91.86 1.345 17.738 20.854 33.706 42.783 48.538 65.767 7.314 11.334 40.163 65.108 12.565 66.21z" fill="#f9c035" data-original="#f9c035"/><path d="m895.235 648.644c-12.384 1.259-24.913 1.5-37.303 1.619-32.287.314-65.96-1.437-97.604-7.911-50.606-10.351-101.125-40.343-136.862-78.192-10.124-10.722.18-25.259 18.979-20.936 27.638 6.354 54.957 13.73 81.759 23.229 32.702 11.592 64.399 25.828 97.217 37.042.313.107.504-.369.223-.526-56.244-30.936-116.858-52.535-179.228-67.127-15.674-3.666-14.196-25.219 1.678-25.662 42.344-1.167 86.885.972 126.822 14.193 47.988 15.887 99.75 47.694 135.153 86.866 24.147 26.714 24.576 33.814-10.834 37.405z" fill="#f9c035" data-original="#f9c035"/><path d="m866.547 403.703c20.603 3.088 83.153 18.801 56.855 48.897-13.654 15.624-35.771 25.057-54.078 33.941-25.921 12.577-52.291 23.327-79.551 32.695-46.633-18.578-98.865-21.947-148.842-20.46-13.771.412-14.601-8.367-.799-10.326 30.789-4.367 61.542-9.044 92.162-14.464 30.22-5.352 62.801-6.89 90.947-20.083.438-.205.121-.866-.319-.755-29.21 7.211-58.636 10.564-88.337 14.958-30.082 4.448-60.123 9.066-90.24 13.233-17.816 2.464-22.89-10.423-6.203-15.199 44.438-12.725 85.709-36.197 121.337-65.645 35.66-1.752 71.676-2.096 107.068 3.208z" fill="#f9c035" data-original="#f9c035"/><path d="m794.084 263.884c10.353-3.036 60.469-22.367 56.448-4.828-3.976 17.335-17.093 35.226-26.166 50.35-16.755 27.928-38.773 52.396-62.686 74.332-36.067 33.083-82.162 59.14-129.82 72.221-11.846 3.247-33.114-8.799-11.072-27.787 20.341-17.528 41.254-34.436 63.222-49.859 27.577-19.361 55.591-37.609 82.38-58.054.303-.231.022-.756-.311-.526-27.521 18.932-57.458 34.501-85.263 53.116-21.172 14.171-41.248 29.984-60.75 46.415-19.611 16.523-33.336 1.529-18.275-19.264 28.785-39.741 67.235-74.069 108.412-99.591 26.047-16.145 54.54-27.927 83.881-36.525z" fill="#f9c035" data-original="#f9c035"/><path d="m627.695 193.359c18.332-16.625 37.328-32.667 57.924-46.338 8.189-5.435 32.738-21.982 40.332-9.653 4.731 7.679 2.676 20.749 1.959 29.192-3.857 45.412-20.78 91.792-38.713 133.316-42.945 28.729-81.024 67.512-108.033 110.059-3.099-2.303-6.285-4.428-9.557-6.353 18.106-25.178 35.338-50.926 51.459-77.426 15.195-24.979 30.48-50.586 38.38-78.978.112-.405-.504-.686-.69-.292-25.536 54.229-59.94 104.983-95.15 153.438-2.398-1.212-4.836-2.318-7.303-3.344 29.35-54.208 47.115-114.102 54.443-175.229 1.355-11.295 6.587-20.803 14.949-28.392z" fill="#f9c035" data-original="#f9c035"/><path d="m576.926 61.05c53.57 97.115 23.047 232.676-26.429 326.171-6.434 12.149-26.591 3.382-20.863-11.949 23.663-63.309 40.474-130.074 37.344-198.04-.019-.396-.589-.394-.612 0-3.998 70.923-21.334 139.348-46.945 205.33-5.041 13.013-22.598 9.51-24.332-.272-10.065-56.83-9.094-115.028.98-171.847 4.598-25.956 11.939-51.366 21.371-75.958 4.833-12.609 45.438-98.899 59.486-73.435z" fill="#f9c035" data-original="#f9c035"/><path d="m413.673 109.252c7.288-34.332 34.789 3.544 44.206 16.494 8.949 12.307 17.129 24.989 24.324 38.286 8.111 14.992 7.335 20.164 3.917 36.537-13.06 62.562-13.011 128.605-.96 191.103-4.291 1.01-8.529 2.249-12.705 3.699-19.352-73.161-29.154-148.423-38.765-223.36-.034-.268-.452-.284-.433 0 3.785 51.35 8.596 102.833 17.439 153.606-12.143-31.823-28.043-62.25-47.207-90.358-1.235-42.446 1.343-84.362 10.184-126.007z" fill="#f9c035" data-original="#f9c035"/><path d="m286.442 132.432c15.367 10.013 29.315 22.062 42.902 34.321 18.473 16.669 35.027 35.216 50.08 54.959 4.321 5.671 24.445 35.149 28.708 42.302 22.997 38.581 39.766 80.88 49.457 124.707 4.464 20.175-14.71 25.803-24.13 16.015-47.24-49.106-82.511-106.901-111.446-168.51-.104-.222-.475-.065-.396.167 21.953 63.165 59.34 121.664 105.217 170.384 9.553 10.146-.846 17.584-12.163 8.407-41.82-33.907-74.386-77.559-102.026-123.58-26.881-44.753-50.147-92.458-60.453-143.503-7.234-35.793 3.672-35.602 34.25-15.669z" fill="#f9c035" data-original="#f9c035"/><path d="m171.548 268.606c-7.896-24.616 27.753-16.757 40.815-14.731 26.696 4.135 53.049 12.509 78.042 22.602.157.063.3.083.452.132 32.059 59.322 73.461 115.48 127.756 156.078-1.146 1.511-2.254 3.036-3.322 4.578-34.755-18.632-65.959-41.998-97.884-65.056-31.003-22.392-61.404-45.128-85.179-75.445-.207-.261-.617.074-.455.351 18.572 31.45 48.063 54.002 76.877 75.537 33.398 24.963 66.354 50.139 103.019 70.127-1.839 2.959-3.548 5.964-5.116 9.011-42.508-25.358-90.211-39.226-138.854-47.011-36.286-38.838-79.615-84.609-96.151-136.173z" fill="#f9c035" data-original="#f9c035"/><path d="m108.835 406.944c15.347-1.958 31.009-1.597 46.433-1.122 25.34.78 50.807 3.159 76.034 5.66 10.33 1.025 20.685 2.318 31.019 3.89 1.045.551 2.136.681 3.174.481 45.07 7.126 89.583 19.986 129.271 42.385 22.629 12.759-5.563 32.747-15.181 32.012-51.411-3.938-100.45-18.579-149.025-36.197-.288-.104-.479.355-.209.495 47.399 24.182 99.622 38.589 152.644 42.362 15.664 1.12 13.018 24.291-4.005 25.345-47.515 2.955-95.706-4.268-141.915-14.477-50.852-11.234-96.468-29.435-138.122-59.43-30.603-22.035-36.353-35.508 9.882-41.404z" fill="#f9c035" data-original="#f9c035"/><path d="m415.292 437.265c1.068-1.542 2.176-3.067 3.322-4.578-15.84-11.844-30.553-25.046-44.287-39.23-14.127-4.466-28.213-8.652-42.044-14.576-14.378-6.157-26.194-16.042-38.98-24.468 7.925 6.038 15.99 11.934 24.105 17.796 31.925 23.058 63.129 46.423 97.884 65.056z" fill="#ed9d2b" data-original="#ed9d2b"/><path d="m397.314 540.35c-.744-2.65-1.394-5.317-1.952-8-23.401 2.671-47.444 2.831-71.539 1.151-26.496 17.591-56.262 27.813-85.156 40.552 52.216-14.078 105.059-25.664 158.647-33.703z" fill="#ed9d2b" data-original="#ed9d2b"/><path d="m383.017 727.916c-6.539 8.877-13.022 18.146-19.724 27.278 11.728-9.427 23.77-18.158 36.087-26.809 2.892-12.835 6.359-25.529 10.495-37.982-8.81 12.607-17.735 25.129-26.858 37.513z" fill="#ed9d2b" data-original="#ed9d2b"/><path d="m472.456 395.37c4.176-1.451 8.414-2.689 12.705-3.699-12.051-62.497-12.1-128.541.96-191.103 3.418-16.373 4.194-21.545-3.917-36.537-7.113-13.143-15.192-25.684-24.021-37.856 21.925 71.233 11.34 143.37 1.864 216.078 3.679 17.804 7.756 35.523 12.409 53.117z" fill="#ed9d2b" data-original="#ed9d2b"/><path d="m394.168 651.939c-3.508 15.346-7.654 31.354-12.748 47.14-1.533 4.185-3.083 8.335-4.639 12.41-2.413 6.318-4.783 12.943-7.32 19.563-3.327 7.652-6.979 15.003-10.924 22.001 7.74-10.382 15.662-20.636 22.996-31.05 12.09-17.171 23.981-34.483 35.746-51.877 8.356-20.822 18.793-40.762 31.614-59.383-6.142-3.822-11.961-8.347-17.376-13.574-9.585 20.112-22.786 37.996-37.349 54.77z" fill="#ed9d2b" data-original="#ed9d2b"/><path d="m403.491 235.258c19.164 28.108 35.064 58.535 47.207 90.358-3.216-18.461-5.887-37.018-8.182-55.625-20.215-38-30.008-75.137-35.777-117.803-3.176 27.51-4.062 55.173-3.248 83.07z" fill="#ed9d2b" data-original="#ed9d2b"/><path d="m612.746 221.75c-7.328 61.127-25.094 121.021-54.443 175.229 2.467 1.025 4.904 2.131 7.303 3.344 12.529-17.243 24.938-34.793 36.9-52.673.023-65.879 17.783-124.522 53.206-178.488-9.579 7.774-18.882 15.912-28.017 24.196-8.362 7.59-13.594 17.098-14.949 28.392z" fill="#ed9d2b" data-original="#ed9d2b"/><path d="m663.965 457.3c-8.486 3.301-17.072 6.336-25.822 8.842-16.687 4.776-11.613 17.663 6.203 15.199 30.117-4.167 60.158-8.786 90.24-13.233 6.861-1.014 13.706-1.975 20.537-2.939-30.66 1.976-61.627.269-91.158-7.869z" fill="#ed9d2b" data-original="#ed9d2b"/><path d="m634.979 306.184c-3.888 6.726-7.899 13.375-11.913 19.973-16.121 26.5-33.353 52.248-51.459 77.426 3.271 1.925 6.458 4.05 9.557 6.353 27.009-42.547 65.088-81.33 108.033-110.059 11.701-27.097 22.947-56.262 30.439-85.876-19.419 37.403-47.295 69.221-84.657 92.183z" fill="#ed9d2b" data-original="#ed9d2b"/><path d="m529.454 625.426c7.142 29.932 5.001 61.886 1.513 92.52 2.359 17.613 5.146 35.164 8.139 52.688.164-35.138 8.909-68.551 17.863-102.346-3.775-15.422-7.061-31.12-9.896-47.161-5.775 1.839-11.665 3.287-17.619 4.299z" fill="#ed9d2b" data-original="#ed9d2b"/><path d="m732.295 473.987c-30.62 5.419-61.373 10.097-92.162 14.464-13.802 1.958-12.973 10.737.799 10.326 13.337-.396 26.833-.429 40.341.061 26.411-14.108 52.599-22.395 80.379-29.303-9.88 1.43-19.737 2.75-29.357 4.452z" fill="#ed9d2b" data-original="#ed9d2b"/><path d="m693.764 645.311c-14.879-15.124-30.363-29.612-46.055-43.878-11.549-8.835-22.379-18.504-32.244-28.954-.645-.575-1.288-1.15-1.934-1.727-4.693 7.479-10.397 14.547-17.119 21.072 13.643 8.761 26.004 19.141 37.197 30.674 32.926 15.507 65.043 32.852 91.045 57.939-9.759-12.102-19.874-23.927-30.89-35.126z" fill="#ed9d2b" data-original="#ed9d2b"/><path d="m751.646 651.832c-23.771-6.021-47.063-15.264-68.809-27.342 6.368 6.236 12.678 12.53 18.82 18.992 13.457 14.148 25.406 28.965 36.353 44.533-1.686-12.858 3.779-28.731 13.636-36.183z" fill="#ed9d2b" data-original="#ed9d2b"/><path d="m517.146 793.199c1.401-1.983 2.901-3.897 4.676-5.629 5.697-5.559 10.438-4.059 14.33-.099-3.251-14.371-6.096-28.851-8.561-43.399-2.522 16.537-6.03 32.957-10.445 49.127z" fill="#ed9d2b" data-original="#ed9d2b"/><path d="m406.553 451.789c1.568-3.047 3.277-6.051 5.116-9.011-36.665-19.988-69.62-45.164-103.019-70.127-8.086-6.044-16.201-12.196-24.137-18.574 18.154 21.79 37.094 42.311 51.854 66.657 24.407 7.743 48.007 17.824 70.186 31.055z" fill="#ed9d2b" data-original="#ed9d2b"/><path d="m322.616 583.212c18.217-12.871 37.064-24.722 57.579-33.292-50.06 8.332-99.698 19.049-149.153 30.479 30.965-2.375 60.845 1.601 91.574 2.813z" fill="#ed9d2b" data-original="#ed9d2b"/><path d="m459.524 898.193c16.9-27.44 30.662-56.855 40.395-87.615 8.615-27.222 16.637-58.132 20.845-89.389.51-3.811 5.031-38.195-2.647-79.064-2.467-13.142-30.829-30.342-39.047-1.902-1.289 4.459-2.514 8.947-3.758 13.429 17.396 44.829 15.383 97.735 10.625 144.551-3.556 34.986-12.526 68.393-26.413 99.99z" fill="#ed9d2b" data-original="#ed9d2b"/><path d="m416.598 601.332c8.977-16.537 1.137-32.271-16.695-18.711-6.063 4.609-12.047 9.307-18.012 14.026-13.373 31.677-26.933 61.886-46.939 90.257-9.916 14.061-20.636 26.227-32.072 37.48 2.457-1.927 4.942-3.834 7.33-5.808 38.958-32.211 81.701-71.792 106.388-117.244z" fill="#ed9d2b" data-original="#ed9d2b"/><path d="m602.243 609.818c-11.706-8.757-16.894-7.355-8.814 4.853 9.482 14.317 18.544 29.013 27.022 44.013 36.486 24.121 58.254 61.178 73.307 101.246-14.555-58.663-43.387-114.126-91.515-150.112z" fill="#ed9d2b" data-original="#ed9d2b"/><path d="m471.088 640.944c5.217-18.291-8.846-30.021-17.38-16.69-31.875 49.777-48.319 109.902-52.804 168.326-2.08 27.121-2.68 54.463-.139 81.584 1.344-32.49 3.874-64.1 12.983-95.959 9.677-33.836 25.317-65.155 45.963-93.376 3.409-14.725 7.233-29.363 11.377-43.885z" fill="#ed9d2b" data-original="#ed9d2b"/><path d="m390.383 558.059c-36.779 13.384-72.604 38.024-104.126 64.95-.364.513-.854.944-1.478 1.279-13.494 11.608-26.163 23.591-37.775 35.279 38.738-31.063 80.615-57.559 129.838-67.79 5.662-4.529 11.336-9.045 17.086-13.472 13.115-10.106 9.999-25.173-3.545-20.246z" fill="#ed9d2b" data-original="#ed9d2b"/><path d="m584.83 615.746c-8.672-13.468-27.825-3.924-25.377 9.543 8.552 47.107 20.059 94.266 41.994 136.826.283.378.502.813.67 1.291 3.955 7.582 8.253 15.012 12.916 22.273-22.914-50.258-29.383-107.003-26.082-163.427-1.381-2.164-2.729-4.346-4.121-6.506z" fill="#ed9d2b" data-original="#ed9d2b"/><path d="m312.645 291.603c27.641 46.021 60.206 89.672 102.026 123.58 11.317 9.177 21.716 1.738 12.163-8.407-15.766-16.742-30.496-34.664-43.975-53.507-10.616-6.445-21.435-12.107-31.326-21.095-15.514-14.097-27.814-31.603-39.277-49.019-10.765-16.352-20.518-33.442-30.236-50.426-1.266-2.213-2.469-4.445-3.638-6.692-1.136-2.229-2.244-4.475-3.359-6.717-.259-.533-.481-1.08-.735-1.615 10.84 25.502 24.076 50.121 38.357 73.898z" fill="#ed9d2b" data-original="#ed9d2b"/><path d="m493.694 316.928c-2.428-13.939-2.91-28.129-3.024-42.237-.116-14.417.774-29.084 2.177-43.678-6.91 50.237-6.611 101.284 2.242 151.276 1.733 9.782 19.291 13.285 24.332.272 9.142-23.553 17.205-47.42 24.008-71.598-5.213 11.354-11.961 22.044-19.798 31.729-22.22 27.457-28.894-19.781-29.937-25.764z" fill="#ed9d2b" data-original="#ed9d2b"/><path d="m555.396 342.794c-4.211-5.786-2.658-17.663-2.607-24.394.045-6.044.265-12.087.477-18.126-6.351 25.428-14.467 50.476-23.632 74.998-5.728 15.331 14.43 24.099 20.863 11.949 10.641-20.107 20.396-42.169 28.634-65.369-5.313 8.884-18.182 28.569-23.735 20.942z" fill="#ed9d2b" data-original="#ed9d2b"/><path d="m359.549 488.156c6.643.864 13.317 1.579 20.036 2.094 9.618.735 37.81-19.253 15.181-32.012-39.688-22.399-84.201-35.259-129.271-42.385-1.038.2-2.129.07-3.174-.481-10.334-1.572-20.688-2.865-31.019-3.89-9.397-.931-18.835-1.814-28.279-2.635 58.579 13.718 114.176 34.181 156.526 79.309z" fill="#ed9d2b" data-original="#ed9d2b"/><path d="m359.02 196.95c22.942 36.325 40.576 75.876 56.171 116.231 2.798 7.236 4.954 14.708 6.862 22.221 1.365 5.363 2.09 10.832 2.231 16.357.544 21.256-30.622-5.347-30.539-5.278-14.302-12.098-26.499-27.912-37.105-44.353 21.759 36.862 46.878 71.483 76.819 102.606 9.42 9.789 28.594 4.16 24.13-16.015-9.691-43.827-26.46-86.126-49.457-124.707-4.263-7.153-24.387-36.63-28.708-42.302-6.49-8.511-13.324-16.746-20.404-24.76z" fill="#ed9d2b" data-original="#ed9d2b"/><path d="m237.075 507.778c46.209 10.209 94.4 17.432 141.915 14.477 17.022-1.054 19.669-24.225 4.005-25.345-9.244-.658-18.45-1.756-27.625-3.056-35.713 7.176-70.478 10.96-107.257 8.143-21.345-1.635-42.481-6.438-63.112-11.94-7.623-2.033-15.453-3.969-23.214-6.175 23.801 10.296 48.832 18.052 75.288 23.896z" fill="#ed9d2b" data-original="#ed9d2b"/><path d="m601.791 399.998c-15.061 20.793-1.336 35.788 18.275 19.264 2.049-1.727 4.133-3.413 6.195-5.125 15.477-29.649 30.298-56.947 53.328-82.205 18.768-20.582 40.216-34.404 62.448-48.623-10.922 5.078-21.573 10.737-31.835 17.096-41.176 25.524-79.626 59.852-108.411 99.593z" fill="#ed9d2b" data-original="#ed9d2b"/><path d="m644.094 510.18c-15.874.443-17.352 21.996-1.678 25.662 14.607 3.418 29.106 7.259 43.488 11.475 33.568-11.803 78.326-5.779 111.482.162 16.339 2.928 32.248 7.306 47.726 12.842-23.912-15.4-49.545-27.787-74.196-35.947-39.937-13.223-84.478-15.361-126.822-14.194z" fill="#ed9d2b" data-original="#ed9d2b"/><path d="m620.788 428.171c-22.042 18.988-.773 31.034 11.072 27.787 47.658-13.081 93.753-39.138 129.82-72.221 19.977-18.326 38.587-38.454 53.956-60.857-41.515 41.157-90.349 67.395-152.844 71.073-14.345 10.965-28.321 22.428-42.004 34.218z" fill="#ed9d2b" data-original="#ed9d2b"/><path d="m789.95 642.842c-10.139-3.38-20.177-7.074-30.104-11.019-44.623-18.654-83.945-46.507-106.547-85.986-3.617-.872-7.225-1.778-10.854-2.613-18.799-4.323-29.103 10.214-18.979 20.936 35.737 37.85 86.256 67.842 136.862 78.192 16.719 3.42 34.002 5.496 51.351 6.672-7.276-1.88-14.537-3.897-21.729-6.182z" fill="#ed9d2b" data-original="#ed9d2b"/><path d="m803.732 417.872c8.781 1.241 17.454 3.063 26.111 5.597 9.724 2.847 29.674 5.799 33.737 16.631 3.227 8.605-24.666 30.539-45.019 45.101-23.525 16.827-17.438 21.011 3.701 10.944 83.279-39.66 91.463-50.449 79.797-64.73-9.501-11.63-27.861-15.484-41.832-18.1-16.827-3.148-35.95-5.64-54.011-4.11-19.908 1.681-20.734 6.088-2.484 8.667z" fill="#fae034" data-original="#fae034"/><path d="m664.628 192.718c27.827-19.531 26.213 10.331 18.894 35.718-6.125 21.266-4.151 20.805 7.276 2.91 4.075-6.377 7.79-12.988 11.282-19.831 7.053-13.827 15.039-29.507 16.795-45.135 1.193-10.625-3.547-18.014-14.911-15.703-17.784 3.621-32.847 21.839-43.683 38.311-10.353 15.744 1.822 5.504 4.347 3.73z" fill="#fae034" data-original="#fae034"/><path d="m553.886 88.672c-16.044 20.079-23.829 47.901-30.907 72.074-9.02 30.797-16.279 63.673-18.921 96.272-1.937 23.919 1.214 23.002 6.456-.115 24.107-106.357 66.025-149.507 78.147-73.244 2.329 14.652 3.929 14.848 4.358-1.061.807-29.963-1.748-62.185-13.168-89.099-6.144-14.476-15.763-17.595-25.965-4.827z" fill="#fae034" data-original="#fae034"/><path d="m356.44 218.962c-15.754-24.278-33.77-50.509-57.211-68.046-29.143-21.81-42.324-27.207-27.717 20.542 5.789 18.92 18.367 48.649 42.17 94.678 7.308 14.133 9.123 12.703 3.679-3.364-12.923-38.128-25.179-96.627 63.632 16.312 17.778 22.604 21.885 22.017 7.923-4.484-1.738-3.297-3.483-6.546-5.173-9.741-8.323-15.745-17.614-30.963-27.303-45.897z" fill="#fae034" data-original="#fae034"/><path d="m229.245 346.149c8.721 11.7 18.498 23.588 30.002 33.06 15.925 13.118 18.706 9.327 6.087-6.202-64.388-79.209-50.436-91.938-6.444-85.634 17.629 2.534 16.336-4.98-1.426-11.437-15.815-5.752-32.852-9.849-48.857-11.715-15.97-1.862-22.441 5.561-16.971 20.928 7.753 21.77 23.919 42.633 37.609 61z" fill="#fae034" data-original="#fae034"/><path d="m218.44 479.002c-55.027-19.95-71.477-43.055-26.973-55.571 14.953-4.205 20.265-6.182 1.01-7.625-34.646-2.6-103.119-4.787-93.866 17.324 3.147 7.52 12.331 12.642 18.79 16.825 13.484 8.736 28.344 15.025 43.428 20.409 18.017 6.429 38.079 14.218 58.052 17.513 34.267 5.654 31.735 2.784-.441-8.875z" fill="#fae034" data-original="#fae034"/><path d="m210.924 600.648c-47.23-.68-75.348.033-16.352-40.739 18.609-12.854 17.477-14.488-1.941-5.104-44.653 21.578-67.668 37.982-65.762 46.59 2.434 10.992 32.531 13.458 84.141 4.682 21.461-3.645 21.686-5.116-.086-5.429z" fill="#fae034" data-original="#fae034"/><path d="m271.989 727.283c-66.861 33.125-77.686 35.055-44.809-18.528 11.806-19.242 9.854-26.28-8.311-5.132-10.373 12.078-23.6 28.549-32.24 42.68-26.331 43.06-5.036 34.789 19.258 23.773 15.004-6.803 36.527-19.73 69.057-37.994 17.922-10.062 14.852-13.622-2.955-4.799z" fill="#fae034" data-original="#fae034"/><path d="m357.146 797.809c-47.538 35.67-53.435 20.801-39.405-19.66 6.053-17.459 1.928-20.368-7.682-4.102-18.131 30.697-20.805 66.9-14.203 71.591 8.548 6.069 39.582-14.445 66.338-43.593 15.01-16.352 12.1-17.106-5.048-4.236z" fill="#fae034" data-original="#fae034"/><path d="m449.386 870.906c-16.181 20.465-24.535-.081-28.652-23.525-4.981-28.336-6.782-30.697-8.132.292-1.369 31.454 1.211 71.688 7.731 74.843 10.813 5.234 18.232-11.412 23.197-19.207 6.521-10.233 11.055-20.325 14.563-30.93 5.771-17.443 1.399-14.252-8.707-1.473z" fill="#fae034" data-original="#fae034"/><path d="m568.176 815.825c-3.22 49.165-7.922 76.699-26.695 48.836-7.045-10.456-6.949-4.407-3.792 3.599 7.464 18.92 20.173 45.047 28.907 32.031 7.465-11.121 10.197-42.695 10.438-55.411.257-13.542.846-21.52.392-30.591-2.373-47.641-5.969-48.508-9.25 1.536z" fill="#fae034" data-original="#fae034"/><path d="m687.164 806.942c-3.139 20.112-15.674 36.679-62.891-54.032-10.623-20.414-13.166-19.901-5.505 2.826 5.638 16.746 14.149 32.814 22.774 47.854 9.869 17.205 20.924 36.222 36.092 49.336 10.325 8.93 19.027 5.313 19.854-8.008.836-13.527-1.455-27.258-4.5-40.619-4.286-18.809-2.299-19.917-5.824 2.643z" fill="#fae034" data-original="#fae034"/><path d="m809.93 738.015c-4.652-8.104-9.95-15.766-15.423-23.292-9.085-12.491-6.732-2.993-4.001 3.603 9.769 23.57 12.57 53.614-69.238 3.206-16.779-10.346-19.615-9.734-5.336 3.796 11.473 10.866 24.571 19.886 37.966 28.354 15.194 9.604 31.437 19.608 49.023 24.074 11.98 3.042 22.419-1.77 19.087-15.386-2.099-8.567-7.727-16.773-12.078-24.355z" fill="#fae034" data-original="#fae034"/><path d="m826.71 574.656c32.333 25.497 66.706 68.736-87.417 19.183-19.357-6.222-21.723-3.152-3.742 7.884 25.688 15.774 55 26.188 84.051 32.934 22.555 5.238 48.268 9.459 71.296 4.705 15.444-3.189 11.16-16.413 3.159-26.147-16.408-19.968-39.875-34.261-64.044-44.679-18.192-7.845-20.232-7.228-3.303 6.12z" fill="#fae034" data-original="#fae034"/><path d="m792.935 329.376c10.15-11.146 18.669-24.128 27.584-36.403 3.355-4.617 20.837-30.229 2.396-29.284-19.998 1.022-41.292 13.089-58.58 22.243-13.584 7.196-26.858 15.496-39.267 24.841-18.306 13.782-16.724 16.514 2.187 6.069 72.173-39.857 88.383-42.239 53.963 9.8-16.034 24.238-8.89 25.369 11.717 2.734z" fill="#fae034" data-original="#fae034"/><path d="m440.938 126.861c-3.278-5.804-9.004-13.553-15.671-7.135-4.142 3.987-8.788 18.313-7.692 36.388.629 10.44 1.758 9.622 4.526.196 9.872-33.595 26.48 15.667 37.19 84.347 3.104 19.892 6.242 19.478 5.723-1.255-.535-21.104-3.432-42.219-7.573-62.812-3.413-16.97-7.927-34.541-16.503-49.729z" fill="#fae034" data-original="#fae034"/><path d="m442.211 591.267c41.035 33.498 106.388 33.658 144.179-5.736 42.863-44.686 45.941-117.954-4.262-159.599-5.075-4.21-10.406-7.83-15.889-11.01 8.18 6.235 15.869 13.071 22.559 21.124 16.073 19.345 23.125 45.009 19.719 69.803-5.86 42.65-43.152 75.272-84.48 81.971-42.177 6.839-82.633-15.945-100.439-54.346-12.164-26.23-11.762-56.275-2.832-83.554-27.074 45.084-21.907 105.957 21.445 141.347z" fill="#ee6200" data-original="#ee6200"/><path d="m577.931 456.853c-27.301-57.222-130.198-35.96-137.939 28.313-2.51 20.84 5.264 38.549 21.821 51.263 18.706 14.364 44.939 14.074 66.409 7.333 32.921-10.333 66.833-51.023 49.709-86.909z" fill="#f9ca1a" data-original="#f9ca1a"/><g fill="#68182b"><path d="m512.499 495.442c-4.571 0-4.571 7.087 0 7.087s4.571-7.087 0-7.087z" fill="#68182b" data-original="#68182b"/><path d="m535.365 513.377c-4.061 0-4.061 6.297 0 6.297 4.062 0 4.062-6.297 0-6.297z" fill="#68182b" data-original="#68182b"/><path d="m530.773 503c4.385 0 4.385-6.8 0-6.8s-4.384 6.8 0 6.8z" fill="#68182b" data-original="#68182b"/><path d="m540.596 449.466c3.484-2.93-.978-8.486-4.814-6.238-4.882 2.86.32 10.02 4.814 6.238z" fill="#68182b" data-original="#68182b"/><path d="m540.576 464.226c3.874 0 3.874-6.008 0-6.008-3.875 0-3.875 6.008 0 6.008z" fill="#68182b" data-original="#68182b"/><path d="m455.379 523.292c5.313 0 5.313-8.239 0-8.239-5.314 0-5.314 8.239 0 8.239z" fill="#68182b" data-original="#68182b"/><path d="m460.75 529.269c-3.805 0-3.805 5.9 0 5.9s3.805-5.9 0-5.9z" fill="#68182b" data-original="#68182b"/><path d="m527.527 539.032c-4.084 0-4.084 6.333 0 6.333 4.083 0 4.083-6.333 0-6.333z" fill="#68182b" data-original="#68182b"/><path d="m504.658 561.152c4.457-1.885.735-8.992-3.563-6.477-4.122 2.419-.624 8.25 3.563 6.477z" fill="#68182b" data-original="#68182b"/><path d="m509.441 525.234c3.874 0 3.874-6.008 0-6.008-3.875.001-3.875 6.008 0 6.008z" fill="#68182b" data-original="#68182b"/><path d="m572.046 522.141c-5.082 0-5.082 7.879 0 7.879s5.082-7.879 0-7.879z" fill="#68182b" data-original="#68182b"/><path d="m591.234 507.605c4.385 0 4.385-6.8 0-6.8s-4.384 6.8 0 6.8z" fill="#68182b" data-original="#68182b"/><path d="m489.918 458.29c5.127 0 5.127-7.951 0-7.951s-5.126 7.951 0 7.951z" fill="#68182b" data-original="#68182b"/><path d="m466.892 481.489c4.362 0 4.362-6.764 0-6.764s-4.362 6.764 0 6.764z" fill="#68182b" data-original="#68182b"/><path d="m496.856 428.392c4.022 0 4.022-6.235 0-6.235-4.022-.001-4.022 6.235 0 6.235z" fill="#68182b" data-original="#68182b"/><path d="m463.053 450.728c4.781 0 4.781-7.412 0-7.412-4.78 0-4.78 7.412 0 7.412z" fill="#68182b" data-original="#68182b"/><path d="m439.096 490.167c.053-.119.105-.238.16-.358.688-1.544.387-3.063-1.059-4.039-.104-.067-.205-.137-.309-.207-2.517-1.695-5.689 1.086-4.943 3.801.714 2.586 4.917 3.575 6.151.803z" fill="#68182b" data-original="#68182b"/><path d="m435.807 545.167c-5.082 0-5.082 7.879 0 7.879s5.082-7.879 0-7.879z" fill="#68182b" data-original="#68182b"/><path d="m462.656 576.992c-4.457 0-4.457 6.91 0 6.91s4.457-6.91 0-6.91z" fill="#68182b" data-original="#68182b"/><path d="m485.313 548.621c-3.596 0-3.596 5.576 0 5.576s3.596-5.576 0-5.576z" fill="#68182b" data-original="#68182b"/><path d="m520.336 586.022c2.049-3.377-2.667-7.104-5.514-4.254-3.607 3.605 2.849 8.651 5.514 4.254z" fill="#68182b" data-original="#68182b"/><path d="m559.926 572.045c-3.908 0-3.908 6.063 0 6.063 3.91-.001 3.91-6.063 0-6.063z" fill="#68182b" data-original="#68182b"/><path d="m561.3 552.35c3.69 0 3.69-5.721 0-5.721s-3.691 5.721 0 5.721z" fill="#68182b" data-original="#68182b"/><path d="m565.971 474.06c-1.771-3.686-7.639-1.129-6.566 2.768 1.357 4.936 8.874 2.035 6.566-2.768z" fill="#68182b" data-original="#68182b"/><path d="m571.662 449.223c3.826 0 3.826-5.937 0-5.937-3.828.001-3.828 5.937 0 5.937z" fill="#68182b" data-original="#68182b"/><path d="m527.39 427.132c.027.016.056.029.083.045 2.314 1.214 5.188-.769 4.457-3.427-.74-2.691-5.401-3.105-5.852 0-.006.039-.011.077-.018.117-.181 1.257.086 2.613 1.33 3.265z" fill="#68182b" data-original="#68182b"/><path d="m495.389 481.305c-2.476 0-2.476 3.841 0 3.841 2.479 0 2.479-3.841 0-3.841z" fill="#68182b" data-original="#68182b"/><path d="m483.778 498.19c3.132 0 3.132-4.857 0-4.857-3.133 0-3.133 4.857 0 4.857z" fill="#68182b" data-original="#68182b"/><path d="m492.221 507.929c-4.105 0-4.105 6.368 0 6.368s4.106-6.368 0-6.368z" fill="#68182b" data-original="#68182b"/><path d="m433.12 524.664c3.62 0 3.62-5.613 0-5.613-3.621 0-3.621 5.613 0 5.613z" fill="#68182b" data-original="#68182b"/><path d="m436.192 463.327c4.199 0 4.199-6.512 0-6.512-4.201-.001-4.201 6.512 0 6.512z" fill="#68182b" data-original="#68182b"/><path d="m567.057 505.361c-3.457 0-3.457 5.36 0 5.36 3.455.001 3.455-5.36 0-5.36z" fill="#68182b" data-original="#68182b"/><path d="m555.543 534.223c-2.365 0-2.365 3.67 0 3.67s2.365-3.67 0-3.67z" fill="#68182b" data-original="#68182b"/><path d="m541.727 567.563c3.016 0 3.016-4.677 0-4.677-3.015.001-3.015 4.677 0 4.677z" fill="#68182b" data-original="#68182b"/><path d="m590.082 545.868c-4.176 0-4.176 6.477 0 6.477s4.176-6.477 0-6.477z" fill="#68182b" data-original="#68182b"/><path d="m589.795 485.959c3.318 0 3.318-5.147 0-5.147-3.319.001-3.319 5.147 0 5.147z" fill="#68182b" data-original="#68182b"/><path d="m498.083 592.748c-1.325-1.639-3.962-.227-3.962 1.643 0 1.868 2.637 3.28 3.962 1.641.085-.107.171-.213.257-.319.694-.858.694-1.785 0-2.644-.086-.107-.172-.213-.257-.321z" fill="#68182b" data-original="#68182b"/><path d="m531.75 595.063c-4.084 0-4.084 6.332 0 6.332s4.084-6.332 0-6.332z" fill="#68182b" data-original="#68182b"/><path d="m520.236 470.673c2.784 0 2.784-4.317 0-4.317-2.783-.001-2.783 4.317 0 4.317z" fill="#68182b" data-original="#68182b"/><path d="m422.758 508.756c4.385 0 4.385-6.799 0-6.799s-4.384 6.799 0 6.799z" fill="#68182b" data-original="#68182b"/><path d="m551.668 434.393c.09.029.181.059.271.09 4.679 1.556 4.679-7.178 0-5.622-.09.032-.181.061-.271.09-2.684.896-2.684 4.547 0 5.442z" fill="#68182b" data-original="#68182b"/><path d="m472.649 427.319c4.778 0 4.778-7.412 0-7.412s-4.778 7.412 0 7.412z" fill="#68182b" data-original="#68182b"/><path d="m486.801 577.595c-.26-.53-.867-1.079-1.473-1.171-3.734-.561-3.734 5.025 0 4.465.605-.092 1.213-.641 1.473-1.171.181-.369.223-.722.205-1.062.018-.34-.024-.692-.205-1.061z" fill="#68182b" data-original="#68182b"/><path d="m577.355 561.523c-1.65-.535-3.349.891-3.349 2.55 0 1.898 2.286 3.438 3.979 2.282.086-.059.172-.116.26-.175 1.796-1.228 1.531-3.87-.597-4.561-.097-.033-.197-.064-.293-.096z" fill="#68182b" data-original="#68182b"/><path d="m552.474 493.002c4.362 0 4.362-6.764 0-6.764s-4.363 6.764 0 6.764z" fill="#68182b" data-original="#68182b"/><path d="m495.291 532.525c-4.062 0-4.062 6.296 0 6.296s4.061-6.296 0-6.296z" fill="#68182b" data-original="#68182b"/><path d="m584.326 467.219c2.783 0 2.783-4.318 0-4.318-2.784 0-2.784 4.318 0 4.318z" fill="#68182b" data-original="#68182b"/><path d="m565.091 428.569c3.114 0 3.114-4.828 0-4.828s-3.114 4.828 0 4.828z" fill="#68182b" data-original="#68182b"/><path d="m511.408 412.921c.092-.063.185-.124.277-.187 1.33-.888 1.33-2.683 0-3.571-.093-.063-.186-.124-.277-.187-1.466-.979-3.434.321-3.434 1.972.001 1.651 1.968 2.951 3.434 1.973z" fill="#68182b" data-original="#68182b"/><path d="m439.213 445.546c1.994 0 1.994-3.094 0-3.094-1.996 0-1.996 3.094 0 3.094z" fill="#68182b" data-original="#68182b"/><path d="m420.839 538.084c3.11 0 3.11-4.821 0-4.821s-3.11 4.821 0 4.821z" fill="#68182b" data-original="#68182b"/><path d="m512.225 604.867c-2.883 0-2.883 4.472 0 4.472 2.884 0 2.884-4.472 0-4.472z" fill="#68182b" data-original="#68182b"/><path d="m561.3 590.631c-.128-.008-.257-.012-.385-.019-1.902-.09-1.902 3.04 0 2.95.128-.007.257-.012.385-.018 1.878-.087 1.878-2.826 0-2.913z" fill="#68182b" data-original="#68182b"/><path d="m601.863 526.795c.057.195.281.15.822-.391.066-.065.098-.155.154-.229.517-.544.705-1.286.297-2.03-.008-.016-.014-.032-.023-.048-.043-.074-.045-.148-.102-.22-.002-.005-.02.029-.026.029-.097-.167-.193-.331-.331-.466.01.005.021.009.031.013-.023-.024-.063-.028-.09-.051-.209-.191-.453-.331-.724-.423-.038-.014-.065-.052-.105-.063-.095-.027-.193-.006-.292-.02-.09-.012-.172-.055-.264-.055.036.016.07.029.105.043-.402-.018-.807.036-1.158.243-.98.573-1.324 1.873-.748 2.854.588 1.003 1.595 1.129 2.454.814z" fill="#68182b" data-original="#68182b"/><path d="m602.848 473.254c.111-.031.223-.065.334-.099 4.123-1.216-.695-6.701-2.459-3.199-.053.107-.109.216-.164.323-.767 1.523.488 3.509 2.289 2.975z" fill="#68182b" data-original="#68182b"/><path d="m445.667 573.727c-1.022-2.648-5.23-2.518-5.23.709-.001 4.103 6.581 2.793 5.23-.709z" fill="#68182b" data-original="#68182b"/><path d="m463.053 558.965c3.805 0 3.805-5.9 0-5.9s-3.804 5.9 0 5.9z" fill="#68182b" data-original="#68182b"/><path d="m470.499 504.819c-2.12-2.192-5.927-.535-5.927 2.455 0 2.901 3.862 4.768 5.927 2.456.09-.104.183-.205.275-.309 1.119-1.257 1.205-3.071 0-4.319-.093-.094-.186-.188-.275-.283z" fill="#68182b" data-original="#68182b"/><path d="m519.816 485.377c.018.102.038.203.057.304.57 2.978 4.611 3.704 6.579 1.738 2.156-2.159 1.052-5.691-1.738-6.58-.09-.027-.183-.056-.274-.085-2.928-.931-5.131 1.968-4.624 4.623z" fill="#68182b" data-original="#68182b"/><path d="m512.551 455.259c5.244 0 5.244-8.131 0-8.131s-5.244 8.131 0 8.131z" fill="#68182b" data-original="#68182b"/><path d="m484.034 476.756c2.876 0 2.876-4.461 0-4.461s-2.876 4.461 0 4.461z" fill="#68182b" data-original="#68182b"/><path d="m462.975 466.243c3.48 1.122 3.48-5.3 0-4.178-.078.024-.157.052-.238.076-1.988.641-1.988 3.384 0 4.025.081.025.16.053.238.077z" fill="#68182b" data-original="#68182b"/><path d="m478.329 528.021c3.457 0 3.457-5.36 0-5.36-3.456-.001-3.456 5.36 0 5.36z" fill="#68182b" data-original="#68182b"/><path d="m476.773 564.822c-3.249 0-3.249 5.037 0 5.037s3.249-5.037 0-5.037z" fill="#68182b" data-original="#68182b"/><path d="m524.478 561.299c-3.782 0-3.782 5.864 0 5.864s3.782-5.864 0-5.864z" fill="#68182b" data-original="#68182b"/><path d="m541.588 580.234c-3.434 0-3.434 5.325 0 5.325s3.433-5.325 0-5.325z" fill="#68182b" data-original="#68182b"/><path d="m590.051 533.357c.065-.057.129-.113.193-.169 2.148-1.855-.117-5.629-2.762-4.747-.233.076-.48.139-.679.285-1.78 1.313-1.849 3.605 0 4.904.059.041.114.081.173.121.97.685 2.26.308 3.075-.394z" fill="#68182b" data-original="#68182b"/><path d="m575.811 492.063c3.225 0 3.225-5.001 0-5.001s-3.225 5.001 0 5.001z" fill="#68182b" data-original="#68182b"/><path d="m588.342 449.551c-.083-.09-.164-.182-.244-.274-1.242-1.388-3.871-.333-3.742 1.549.009.124.016.245.024.367.29 4.302 6.807 1.54 3.962-1.642z" fill="#68182b" data-original="#68182b"/><path d="m552.893 449.551c-.046.115-.088.229-.131.342-.69 1.813 1.059 3.712 2.826 3.712 2.33 0 3.51-2.462 2.532-4.412-.052-.101-.101-.205-.153-.306-1.18-2.351-4.297-1.382-5.074.664z" fill="#68182b" data-original="#68182b"/><path d="m503.736 439.073c4.432 0 4.432-6.872 0-6.872-4.431 0-4.431 6.872 0 6.872z" fill="#68182b" data-original="#68182b"/><path d="m425.384 477.196c.193-.168.259-.382.354-.611.471-1.115-1.094-2.231-2.037-1.567.057-.038-.551.292-.58.479-.018.117-.037.234-.056.351-.22 1.369 1.22 2.302 2.319 1.348z" fill="#68182b" data-original="#68182b"/><path d="m449.858 502.512c.046-.099.091-.197.136-.297.796-1.761.116-3.354-1.655-4.07-.104-.042-.205-.083-.306-.124-2.239-.906-4.327 1.711-3.763 3.762.65 2.362 4.455 3.238 5.588.729z" fill="#68182b" data-original="#68182b"/><path d="m545.217 420.575c2.645 0 2.645-4.102 0-4.102s-2.645 4.102 0 4.102z" fill="#68182b" data-original="#68182b"/></g></g></g></g></svg>