<svg xmlns="http://www.w3.org/2000/svg" version="1.1" xmlns:xlink="http://www.w3.org/1999/xlink" xmlns:svgjs="http://svgjs.com/svgjs" width="512" height="512" x="0" y="0" viewBox="0 0 200 200" style="enable-background:new 0 0 512 512" xml:space="preserve"><g>
<style xmlns="http://www.w3.org/2000/svg" type="text/css">
	.st0{fill:url(#SVGID_1_);}
	.st1{fill:url(#SVGID_2_);}
	.st2{fill:url(#SVGID_3_);}
	.st3{fill:url(#SVGID_4_);}
	.st4{fill:url(#SVGID_5_);}
	.st5{fill:url(#SVGID_6_);}
	.st6{fill:url(#SVGID_7_);}
	.st7{fill:url(#SVGID_8_);}
	.st8{fill:url(#SVGID_9_);}
	.st9{fill:url(#SVGID_10_);}
	.st10{fill:url(#SVGID_12_);}
	.st11{fill:url(#SVGID_13_);}
	.st12{fill:url(#SVGID_14_);}
	.st13{fill:url(#SVGID_15_);}
	.st14{fill:url(#SVGID_16_);}
	.st15{fill:url(#SVGID_17_);}
	.st16{fill:url(#SVGID_18_);}
	.st17{fill:url(#SVGID_19_);}
	.st18{fill:url(#SVGID_20_);}
	.st19{fill:url(#SVGID_21_);}
	.st20{fill:url(#SVGID_22_);}
	.st21{fill:url(#SVGID_23_);}
	.st22{opacity:0.3;fill:#FFE1E1;}
	.st23{opacity:0.2;}
	.st24{fill:#FFFFFF;}
	.st25{opacity:0.6;}
	.st26{opacity:0.8;}
	.st27{opacity:0.3;}
	.st28{fill:#BA0000;}
	.st29{fill:url(#SVGID_24_);}
	.st30{fill:url(#SVGID_25_);}
	.st31{fill:url(#SVGID_26_);}
	.st32{fill:url(#SVGID_27_);}
	.st33{fill:url(#SVGID_28_);}
	.st34{fill:url(#SVGID_29_);}
	.st35{fill:url(#SVGID_30_);}
	.st36{fill:url(#SVGID_31_);}
	.st37{fill:url(#SVGID_32_);}
	.st38{fill:url(#SVGID_33_);}
	.st39{fill:url(#SVGID_34_);}
	.st40{fill:url(#SVGID_35_);}
	.st41{fill:url(#SVGID_36_);}
	.st42{fill:url(#SVGID_37_);}
	.st43{fill:url(#SVGID_38_);}
	.st44{fill:url(#SVGID_39_);}
	.st45{fill:url(#SVGID_40_);}
	.st46{fill:url(#SVGID_41_);}
	.st47{fill:url(#SVGID_42_);}
	.st48{fill:url(#SVGID_43_);}
	.st49{fill:url(#SVGID_44_);}
	.st50{fill:url(#SVGID_45_);}
	.st51{fill:url(#SVGID_46_);}
	.st52{fill:url(#SVGID_47_);}
	.st53{fill:url(#SVGID_48_);}
	.st54{fill:url(#SVGID_49_);}
	.st55{fill:url(#SVGID_50_);}
	.st56{fill:url(#SVGID_51_);}
	.st57{fill:url(#SVGID_52_);}
	.st58{fill:url(#SVGID_53_);}
	.st59{opacity:0.3;fill:#E3FFE6;}
	.st60{fill:url(#SVGID_54_);}
	.st61{fill:url(#SVGID_55_);}
	.st62{fill:url(#SVGID_56_);}
	.st63{fill:url(#SVGID_57_);}
	.st64{fill:url(#SVGID_58_);}
	.st65{fill:url(#SVGID_59_);}
	.st66{fill:url(#SVGID_60_);}
	.st67{fill:url(#SVGID_61_);}
	.st68{fill:url(#SVGID_62_);}
	.st69{fill:url(#SVGID_63_);}
	.st70{fill:url(#SVGID_64_);}
	.st71{fill:url(#SVGID_65_);}
	.st72{fill:url(#SVGID_66_);}
	.st73{fill:url(#SVGID_67_);}
	.st74{fill:url(#SVGID_68_);}
	.st75{fill:url(#SVGID_69_);}
	.st76{fill:url(#SVGID_70_);}
	.st77{fill:url(#SVGID_71_);}
	.st78{fill:url(#SVGID_72_);}
	.st79{fill:url(#SVGID_73_);}
	.st80{fill:url(#SVGID_74_);}
	.st81{fill:url(#SVGID_75_);}
	.st82{opacity:0.5;fill:#FFFFFF;}
	.st83{opacity:0.3;fill:#FFDEEB;}
	.st84{fill:url(#SVGID_76_);}
	.st85{fill:url(#SVGID_77_);}
	.st86{fill:url(#SVGID_78_);}
	.st87{fill:url(#SVGID_79_);}
	.st88{fill:url(#SVGID_80_);}
	.st89{fill:url(#SVGID_81_);}
	.st90{fill:url(#SVGID_82_);}
	.st91{fill:url(#SVGID_83_);}
	.st92{fill:url(#SVGID_84_);}
	.st93{fill:url(#SVGID_85_);}
	.st94{fill:url(#SVGID_86_);}
	.st95{fill:url(#SVGID_87_);}
	.st96{fill:url(#SVGID_88_);}
	.st97{fill:url(#SVGID_89_);}
	.st98{fill:url(#SVGID_90_);}
	.st99{fill:url(#SVGID_91_);}
	.st100{fill:url(#SVGID_92_);}
	.st101{fill:url(#SVGID_93_);}
	.st102{fill:url(#SVGID_94_);}
	.st103{fill:url(#SVGID_95_);}
	.st104{fill:url(#SVGID_96_);}
	.st105{fill:url(#SVGID_97_);}
	.st106{fill:url(#SVGID_98_);}
	.st107{opacity:0.3;fill:url(#SVGID_99_);}
	.st108{fill:url(#SVGID_100_);}
	.st109{fill:url(#SVGID_101_);}
	.st110{fill:url(#SVGID_102_);}
	.st111{fill:url(#SVGID_103_);}
	.st112{fill:url(#SVGID_104_);}
	.st113{fill:url(#SVGID_105_);}
	.st114{fill:url(#SVGID_106_);}
	.st115{fill:url(#SVGID_107_);}
	.st116{fill:url(#SVGID_108_);}
	.st117{fill:url(#SVGID_109_);}
	.st118{fill:url(#SVGID_110_);}
	.st119{opacity:0.5;fill:url(#SVGID_111_);}
	.st120{opacity:0.5;}
	.st121{fill:url(#SVGID_112_);}
	.st122{fill:url(#SVGID_113_);}
	.st123{fill:url(#SVGID_114_);}
	.st124{fill:url(#SVGID_115_);}
	.st125{fill:url(#SVGID_116_);}
	.st126{fill:url(#SVGID_117_);}
	.st127{fill:url(#SVGID_118_);}
	.st128{fill:url(#SVGID_119_);}
	.st129{fill:url(#SVGID_120_);}
	.st130{fill:url(#SVGID_121_);}
	.st131{fill:url(#SVGID_122_);}
	.st132{fill:url(#SVGID_123_);}
	.st133{fill:url(#SVGID_124_);}
	.st134{fill:url(#SVGID_125_);}
	.st135{fill:url(#SVGID_126_);}
	.st136{fill:url(#SVGID_127_);}
	.st137{fill:url(#SVGID_128_);}
	.st138{fill:url(#SVGID_129_);}
	.st139{fill:url(#SVGID_130_);}
	.st140{fill:url(#SVGID_131_);}
	.st141{fill:url(#SVGID_132_);}
	.st142{fill:url(#SVGID_133_);}
	.st143{fill:url(#SVGID_134_);}
	.st144{fill:url(#SVGID_135_);}
	.st145{fill:url(#SVGID_136_);}
	.st146{fill:url(#SVGID_137_);}
	.st147{fill:url(#SVGID_138_);}
	.st148{fill:url(#SVGID_139_);}
	.st149{fill:url(#SVGID_140_);}
	.st150{fill:url(#SVGID_141_);}
	.st151{fill:url(#SVGID_142_);}
	.st152{fill:url(#SVGID_143_);}
	.st153{fill:url(#SVGID_144_);}
	.st154{fill:url(#SVGID_145_);}
	.st155{opacity:0.3;fill:#FCF8D5;}
	.st156{fill:url(#SVGID_146_);}
	.st157{fill:url(#SVGID_147_);}
	.st158{fill:url(#SVGID_148_);}
	.st159{fill:url(#SVGID_149_);}
	.st160{fill:url(#SVGID_150_);}
	.st161{fill:url(#SVGID_151_);}
	.st162{fill:url(#SVGID_152_);}
	.st163{fill:url(#SVGID_153_);}
	.st164{fill:url(#SVGID_154_);}
	.st165{fill:url(#SVGID_155_);}
	.st166{fill:url(#SVGID_156_);}
	.st167{fill:url(#SVGID_157_);}
	.st168{fill:url(#SVGID_158_);}
	.st169{fill:url(#SVGID_159_);}
	.st170{fill:url(#SVGID_160_);}
	.st171{fill:url(#SVGID_161_);}
	.st172{fill:url(#SVGID_162_);}
	.st173{fill:url(#SVGID_163_);}
	.st174{fill:url(#SVGID_164_);}
	.st175{fill:url(#SVGID_165_);}
	.st176{fill:url(#SVGID_166_);}
	.st177{fill:url(#SVGID_167_);}
	.st178{fill:url(#SVGID_168_);}
	.st179{fill:url(#SVGID_169_);}
	.st180{fill:url(#SVGID_170_);}
	.st181{fill:url(#SVGID_171_);}
	.st182{fill:url(#SVGID_172_);}
	.st183{fill:url(#SVGID_173_);}
	.st184{fill:url(#SVGID_174_);}
	.st185{fill:url(#SVGID_175_);}
	.st186{fill:url(#SVGID_176_);}
	.st187{fill:url(#SVGID_177_);}
	.st188{fill:url(#SVGID_178_);}
	.st189{fill:url(#SVGID_179_);}
	.st190{fill:url(#SVGID_180_);}
	.st191{fill:url(#SVGID_181_);}
	.st192{fill:url(#SVGID_182_);}
	.st193{fill:url(#SVGID_183_);}
	.st194{fill:url(#SVGID_184_);}
	.st195{fill:url(#SVGID_185_);}
	.st196{fill:url(#SVGID_186_);}
	.st197{fill:url(#SVGID_187_);}
	.st198{fill:url(#SVGID_188_);}
	.st199{opacity:0.5;fill:url(#SVGID_189_);}
	.st200{fill:url(#SVGID_190_);}
	.st201{fill:url(#SVGID_191_);}
	.st202{fill:url(#SVGID_192_);}
	.st203{fill:url(#SVGID_193_);}
	.st204{fill:url(#SVGID_194_);}
	.st205{fill:url(#SVGID_195_);}
	.st206{fill:url(#SVGID_196_);}
	.st207{opacity:0.5;fill:url(#SVGID_197_);}
	.st208{fill:url(#SVGID_198_);}
	.st209{opacity:0.5;fill:url(#SVGID_199_);}
	.st210{fill:url(#SVGID_200_);}
	.st211{opacity:0.5;fill:url(#SVGID_201_);}
	.st212{fill:url(#SVGID_202_);}
	.st213{opacity:0.5;fill:url(#SVGID_203_);}
	.st214{fill:url(#SVGID_204_);}
	.st215{opacity:0.5;fill:url(#SVGID_205_);}
	.st216{fill:url(#SVGID_206_);}
	.st217{opacity:0.5;fill:url(#SVGID_207_);}
	.st218{fill:url(#SVGID_208_);}
	.st219{opacity:0.5;fill:url(#SVGID_209_);}
	.st220{fill:url(#SVGID_210_);}
	.st221{opacity:0.5;fill:url(#SVGID_211_);}
	.st222{fill:url(#SVGID_212_);}
	.st223{fill:url(#SVGID_213_);}
	.st224{fill:url(#SVGID_214_);}
	.st225{fill:url(#SVGID_215_);}
	.st226{fill:url(#SVGID_216_);}
	.st227{fill:url(#SVGID_217_);}
	.st228{fill:url(#SVGID_218_);}
	.st229{fill:url(#SVGID_219_);}
	.st230{fill:url(#SVGID_220_);}
	.st231{fill:url(#SVGID_221_);}
	.st232{fill:url(#SVGID_222_);}
	.st233{fill:url(#SVGID_223_);}
	.st234{fill:url(#SVGID_224_);}
	.st235{fill:url(#SVGID_225_);}
	.st236{fill:url(#SVGID_226_);}
	.st237{fill:url(#SVGID_227_);}
	.st238{fill:url(#SVGID_228_);}
	.st239{fill:url(#SVGID_229_);}
	.st240{fill:url(#SVGID_230_);}
	.st241{fill:url(#SVGID_231_);}
	.st242{fill:url(#SVGID_232_);}
	.st243{fill:url(#SVGID_233_);}
	.st244{fill:url(#SVGID_234_);}
	.st245{fill:url(#SVGID_235_);}
	.st246{fill:url(#SVGID_236_);}
	.st247{fill:url(#SVGID_237_);}
	.st248{fill:url(#SVGID_238_);}
	.st249{fill:url(#SVGID_239_);}
	.st250{fill:url(#SVGID_240_);}
	.st251{fill:url(#SVGID_241_);}
	.st252{fill:url(#SVGID_242_);}
	.st253{fill:url(#SVGID_243_);}
	.st254{fill:url(#SVGID_244_);}
	.st255{fill:url(#SVGID_245_);}
	.st256{fill:url(#SVGID_246_);}
	.st257{fill:url(#SVGID_247_);}
	.st258{fill:url(#SVGID_248_);}
	.st259{fill:url(#SVGID_249_);}
	.st260{fill:url(#SVGID_250_);}
	.st261{fill:url(#SVGID_251_);}
	.st262{fill:url(#SVGID_252_);}
	.st263{fill:url(#SVGID_253_);}
	.st264{fill:url(#SVGID_254_);}
	.st265{fill:url(#SVGID_255_);}
	.st266{fill:url(#SVGID_256_);}
	.st267{fill:url(#SVGID_257_);}
	.st268{fill:url(#SVGID_258_);}
	.st269{fill:url(#SVGID_259_);}
	.st270{fill:url(#SVGID_260_);}
	.st271{fill:url(#SVGID_261_);}
	.st272{fill:url(#SVGID_262_);}
	.st273{fill:url(#SVGID_263_);}
	.st274{fill:url(#SVGID_264_);}
	.st275{fill:url(#SVGID_265_);}
	.st276{fill:url(#SVGID_266_);}
	.st277{fill:url(#SVGID_267_);}
	.st278{fill:url(#SVGID_268_);}
	.st279{fill:url(#SVGID_269_);}
	.st280{fill:url(#SVGID_270_);}
	.st281{fill:url(#SVGID_271_);}
	.st282{fill:url(#SVGID_272_);}
	.st283{fill:url(#SVGID_273_);}
	.st284{fill:url(#SVGID_274_);}
	.st285{fill:url(#SVGID_275_);}
	.st286{fill:url(#SVGID_276_);}
	.st287{fill:url(#SVGID_277_);}
	.st288{fill:url(#SVGID_278_);}
	.st289{fill:url(#SVGID_279_);}
	.st290{fill:url(#SVGID_280_);}
	.st291{fill:url(#SVGID_281_);}
	.st292{fill:url(#SVGID_282_);}
	.st293{fill:url(#SVGID_283_);}
	.st294{fill:url(#SVGID_284_);}
	.st295{fill:url(#SVGID_285_);}
	.st296{fill:url(#SVGID_286_);}
	.st297{fill:url(#SVGID_287_);}
	.st298{fill:url(#SVGID_288_);}
	.st299{fill:url(#SVGID_289_);}
	.st300{fill:url(#SVGID_290_);}
	.st301{fill:url(#SVGID_291_);}
	.st302{fill:url(#SVGID_292_);}
	.st303{fill:url(#SVGID_293_);}
	.st304{fill:url(#SVGID_294_);}
	.st305{fill:url(#SVGID_295_);}
	.st306{fill:url(#SVGID_296_);}
	.st307{fill:url(#SVGID_297_);}
	.st308{fill:url(#SVGID_298_);}
	.st309{fill:url(#SVGID_299_);}
	.st310{fill:url(#SVGID_300_);}
	.st311{fill:url(#SVGID_301_);}
	.st312{fill:url(#SVGID_302_);}
	.st313{fill:url(#SVGID_303_);}
	.st314{fill:#E3FFE6;}
	.st315{fill:url(#SVGID_304_);}
	.st316{fill:url(#SVGID_305_);}
	.st317{fill:url(#SVGID_306_);}
	.st318{fill:url(#SVGID_307_);}
	.st319{fill:url(#SVGID_308_);}
	.st320{fill:url(#SVGID_309_);}
	.st321{fill:url(#SVGID_310_);}
	.st322{fill:url(#SVGID_311_);}
	.st323{fill:url(#SVGID_312_);}
	.st324{fill:url(#SVGID_313_);}
	.st325{fill:url(#SVGID_314_);}
	.st326{fill:url(#SVGID_315_);}
	.st327{fill:url(#SVGID_316_);}
	.st328{fill:url(#SVGID_317_);}
	.st329{fill:url(#SVGID_318_);}
	.st330{fill:url(#SVGID_319_);}
	.st331{fill:url(#SVGID_320_);}
	.st332{fill:url(#SVGID_321_);}
	.st333{fill:url(#SVGID_322_);}
	.st334{fill:url(#SVGID_323_);}
	.st335{fill:url(#SVGID_324_);}
	.st336{fill:url(#SVGID_325_);}
	.st337{fill:url(#SVGID_326_);}
	.st338{fill:url(#SVGID_327_);}
	.st339{fill:url(#SVGID_328_);}
	.st340{fill:url(#SVGID_329_);}
	.st341{fill:url(#SVGID_330_);}
	.st342{fill:url(#SVGID_331_);}
	.st343{fill:url(#SVGID_332_);}
	.st344{fill:url(#SVGID_333_);}
	.st345{fill:url(#SVGID_334_);}
	.st346{fill:url(#SVGID_335_);}
	.st347{fill:url(#SVGID_336_);}
	.st348{fill:url(#SVGID_337_);}
	.st349{fill:url(#SVGID_338_);}
	.st350{fill:url(#SVGID_339_);}
	.st351{fill:url(#SVGID_340_);}
	.st352{fill:url(#SVGID_341_);}
	.st353{fill:url(#SVGID_342_);}
	.st354{fill:url(#SVGID_343_);}
	.st355{fill:url(#SVGID_344_);}
	.st356{fill:url(#SVGID_345_);}
	.st357{fill:url(#SVGID_346_);}
	.st358{fill:url(#SVGID_347_);}
	.st359{fill:url(#SVGID_348_);}
	.st360{fill:url(#SVGID_349_);}
	.st361{fill:url(#SVGID_350_);}
	.st362{fill:url(#SVGID_351_);}
	.st363{fill:url(#SVGID_352_);}
	.st364{fill:url(#SVGID_353_);}
	.st365{fill:url(#SVGID_354_);}
	.st366{fill:url(#SVGID_355_);}
	.st367{fill:url(#SVGID_356_);}
	.st368{fill:url(#SVGID_357_);}
	.st369{fill:url(#SVGID_358_);}
	.st370{fill:url(#SVGID_359_);}
	.st371{fill:url(#SVGID_360_);}
	.st372{fill:url(#SVGID_361_);}
	.st373{fill:url(#SVGID_362_);}
	.st374{fill:url(#SVGID_363_);}
	.st375{fill:url(#SVGID_364_);}
	.st376{fill:url(#SVGID_365_);}
	.st377{fill:url(#SVGID_366_);}
	.st378{fill:url(#SVGID_367_);}
	.st379{fill:url(#SVGID_368_);}
	.st380{fill:url(#SVGID_369_);}
	.st381{fill:url(#SVGID_370_);}
	.st382{fill:url(#SVGID_371_);}
	.st383{fill:url(#SVGID_372_);}
	.st384{fill:url(#SVGID_373_);}
	.st385{fill:url(#SVGID_374_);}
	.st386{fill:url(#SVGID_375_);}
	.st387{fill:url(#SVGID_376_);}
	.st388{fill:url(#SVGID_377_);}
	.st389{fill:url(#SVGID_378_);}
	.st390{fill:url(#SVGID_379_);}
	.st391{fill:url(#SVGID_380_);}
	.st392{fill:url(#SVGID_381_);}
	.st393{fill:url(#SVGID_382_);}
	.st394{fill:url(#SVGID_383_);}
	.st395{fill:url(#SVGID_384_);}
	.st396{fill:url(#SVGID_385_);}
	.st397{fill:url(#SVGID_386_);}
	.st398{fill:url(#SVGID_387_);}
	.st399{fill:url(#SVGID_388_);}
	.st400{fill:url(#SVGID_389_);}
	.st401{fill:url(#SVGID_390_);}
	.st402{fill:url(#SVGID_391_);}
	.st403{fill:url(#SVGID_392_);}
	.st404{fill:url(#SVGID_393_);}
	.st405{fill:url(#SVGID_394_);}
	.st406{fill:url(#SVGID_395_);}
	.st407{fill:url(#SVGID_396_);}
	.st408{fill:url(#SVGID_397_);}
	.st409{fill:url(#SVGID_398_);}
	.st410{fill:url(#SVGID_399_);}
	.st411{fill:url(#SVGID_400_);}
	.st412{fill:url(#SVGID_401_);}
	.st413{fill:url(#SVGID_402_);}
	.st414{fill:url(#SVGID_403_);}
	.st415{fill:url(#SVGID_404_);}
	.st416{fill:url(#SVGID_405_);}
	.st417{fill:url(#SVGID_406_);}
	.st418{fill:url(#SVGID_407_);}
	.st419{fill:url(#SVGID_408_);}
	.st420{fill:url(#SVGID_409_);}
</style>
<g xmlns="http://www.w3.org/2000/svg">
	<g>
		<linearGradient id="SVGID_1_" gradientUnits="userSpaceOnUse" x1="60.41" y1="100.9054" x2="60.41" y2="68.7098">
			<stop offset="0" style="stop-color:#F7A4BB"/>
			<stop offset="0.6285" style="stop-color:#F7515B"/>
			<stop offset="1" style="stop-color:#F72427"/>
		</linearGradient>
		<path class="st0" d="M70.4971,68.8893c-5.6701,0.1017-11.341,0.1994-17.0083,0.4114c-4.6927,0.1756-9.439,0.2965-14.0884,0.9926    c-0.1595,0.0479-0.3191,0.0864-0.4826,0.1183c-5.1814,1.6144-6.422,8.2941-6.1078,12.9229    c0.3364,4.9559,1.9613,10.0364,6.0987,13.0821c4.1621,3.0638,9.5693,3.8185,14.5909,4.1642    c5.3053,0.3652,10.6236,0.5,15.9235-0.0113c5.0443-0.4866,9.9574-1.5624,14.8794-2.7266    c0.422-5.6281,0.9583-11.2486,1.6818-16.8463c0.5304-4.1033,1.057-8.2683,2.0713-12.2868    C82.0928,68.7417,76.2325,68.7975,70.4971,68.8893z M50.4032,73.5332h-0.0013c-3.7836,0.3839-7.9177,1.0085-10.4485,4.1799    l-0.0013,0.0013c-0.9172,1.1457-1.2229,2.4561-1.7774,3.7755c-0.3467,0.8248-0.6682,0.4291-0.8361-0.2522    c-0.6477-2.629,0.9508-5.4181,2.9549-6.9962c2.2721-1.7892,5.2818-2.534,8.1412-2.3241c0.9688,0.0711,2.4758,0.1761,3.2677,0.8275    C52.5523,73.4442,50.8402,73.4907,50.4032,73.5332z M69.706,84.2608c-1.1208,0.7503-3.103,1.5021-3.3456,2.9228    c-0.3187,1.8661-0.3955,5.9063-3.461,4.8593c-0.8691-0.2968-1.6651-1.1468-2.3715-1.7026    c-0.5939-0.4673-1.0809-1.0487-1.8735-0.973c-1.8837,0.1798-5.8079,1.635-5.9301-1.625    c-0.0346-0.9234,0.5468-1.9762,0.8574-2.8198c0.266-0.7227,0.6764-1.3841,0.4007-2.1328c-0.651-1.7675-3.222-4.4807-0.6881-6.0003    c0.8433-0.5057,1.9979-0.2894,2.9325-0.2534c0.7614,0.0293,1.8172,0.28,2.4679-0.1838c1.5408-1.0983,2.924-4.2088,5.2575-2.8115    c1.03,0.6168,1.189,1.9702,1.4889,3.0303c0.2228,0.7878,0.287,1.7838,1.0099,2.2452c0.898,0.5731,1.9397,0.945,2.8727,1.4605    C70.82,81.1033,71.3051,83.1927,69.706,84.2608z" fill="#000000" data-original="#000000"/>
		<linearGradient id="SVGID_2_" gradientUnits="userSpaceOnUse" x1="139.4547" y1="100.9121" x2="139.4547" y2="68.7098">
			<stop offset="0" style="stop-color:#F7A4BB"/>
			<stop offset="0.6285" style="stop-color:#F7515B"/>
			<stop offset="1" style="stop-color:#F72427"/>
		</linearGradient>
		<path class="st1" d="M167.071,80.0158c-0.2617-3.7035-2.2305-8.3967-6.1064-9.6042c-0.1635-0.0319-0.3231-0.0705-0.4826-0.1183    c-5.6727-0.8508-11.4952-0.9228-17.2211-1.0981c-6.619-0.2026-13.2419-0.3107-19.8635-0.3884    c-3.8745-0.0454-7.7492-0.0763-11.6239-0.097c0.3949,1.5449,0.8575,3.91,1.3401,6.9718v0.0013    c1.1632,7.3428,1.9207,14.7527,2.4835,22.1639c8.0008,1.9241,15.9929,3.2578,24.2532,3.0425    c7.8793-0.2054,18.7978-0.1038,23.9586-7.2689C166.5442,89.823,167.3928,84.5964,167.071,80.0158z M129.0211,82.24    c0.1343-2.2178,2.9927-2.4272,4.4073-3.4992c0.6221-0.4715,0.7146-1.6518,0.9144-2.3592c0.2616-0.9262,0.411-2.0715,1.2215-2.6943    c2.309-1.7743,3.8885,1.4955,5.4252,2.618c0.6551,0.4786,1.5304,0.2687,2.3168,0.2384c0.8651-0.0333,1.9514-0.2348,2.7826,0.0806    c2.9449,1.1176,0.5119,4.3233-0.2701,6.0281c-0.6837,1.4906,1.0367,3.2548,1.1796,4.7974    c0.3162,3.4139-3.8219,2.1989-5.6884,1.9549c-1.6138-0.211-2.7521,1.6954-4.0667,2.4523    c-1.5706,0.9043-3.1205-0.2239-3.4236-1.8126c-0.198-1.0382-0.2035-2.1719-0.5013-3.1848    c-0.2441-0.8304-1.2942-1.2604-1.9794-1.7191C130.2638,84.4207,128.9316,83.7612,129.0211,82.24z M162.6465,84.3738    c-0.5752,3.0308-2.9475,5.3773-5.745,6.4911c-2.1936,0.8733-5.4554,1.3709-7.6599,0.2207    c-0.8681-0.4529-0.311-0.7192,0.3863-0.8491c1.3602-0.2534,2.7306-0.3565,4.0747-0.7087c2.8033-0.7345,5.3964-2.2282,6.9068-4.772    c0.375-0.6316,0.6528-1.3122,0.9228-1.9936c0.0935-0.236,0.3245-1.236,0.658-1.3097    C163.0312,81.2668,162.6985,84.0765,162.6465,84.3738z" fill="#000000" data-original="#000000"/>
		<g>
			<radialGradient id="SVGID_3_" cx="120.2497" cy="109.2332" r="6.0125" gradientUnits="userSpaceOnUse">
				<stop offset="0" style="stop-color:#F7F09D"/>
				<stop offset="0.5399" style="stop-color:#F7DA5B"/>
				<stop offset="1" style="stop-color:#F7C827"/>
			</radialGradient>
			<path class="st2" d="M124.5155,105.4741c0.3663,0.5777-0.3772,1.5512-0.6367,2.0581c-0.3118,0.609-0.6743,1.2148-0.944,1.8439     c-0.7065,1.6476,0.6233,3.3829,1.0468,4.9538c0.5021,1.8625-2.1861,0.956-3.1586,0.8008     c-0.8855-0.1413-1.7505-0.3697-2.5891,0.1108c-0.6003,0.3439-1.1308,0.8629-1.6726,1.2885     c-0.1423-5.1199-0.3776-10.0124-0.6767-14.5938c0.6345,0.2884,1.2062,1.1398,1.6853,1.6188     c0.6579,0.6579,1.3113,1.5173,2.2785,1.6842c0.7763,0.134,1.6566-0.0129,2.4368-0.0426     C122.8571,105.1749,124.1331,104.8858,124.5155,105.4741z" fill="#000000" data-original="#000000"/>
			<radialGradient id="SVGID_4_" cx="138.2985" cy="82.7151" r="7.8091" gradientUnits="userSpaceOnUse">
				<stop offset="0" style="stop-color:#F7F09D"/>
				<stop offset="0.5399" style="stop-color:#F7DA5B"/>
				<stop offset="1" style="stop-color:#F7C827"/>
			</radialGradient>
			<path class="st3" d="M145.8936,78.3406c0.4011,0.6293-0.5436,1.8698-0.818,2.4073c-0.368,0.7206-0.9579,1.5626-1.0075,2.392     c-0.0529,0.8844,0.4854,1.8721,0.7828,2.68c0.1919,0.5214,0.8474,1.6338,0.5298,2.1986     c-0.3815,0.6787-1.6428,0.2246-2.2262,0.1316c-0.7647-0.1219-1.5798-0.3479-2.3585-0.3536     c-1.0631-0.0079-1.8336,0.7889-2.6141,1.403c-0.5015,0.3946-1.2636,1.2957-1.9259,1.4254     c-1.358,0.2659-1.2618-3.4249-1.4751-4.254c-0.4655-1.8098-2.7029-2.1982-3.9005-3.3758     c-1.2974-1.2757,2.378-2.4117,3.1615-2.8514c1.6447-0.9229,1.5395-3.1281,2.1571-4.7074c0.4398-1.1248,1.2044-0.5594,1.8128,0.05     c0.6546,0.6557,1.2823,1.3662,1.9766,1.9798c0.9436,0.8339,2.026,0.6572,3.1802,0.6127     C143.8017,78.0544,145.4707,77.6819,145.8936,78.3406z" fill="#000000" data-original="#000000"/>
			<radialGradient id="SVGID_5_" cx="157" cy="114.6488" r="7.2419" gradientUnits="userSpaceOnUse">
				<stop offset="0" style="stop-color:#F7F09D"/>
				<stop offset="0.5399" style="stop-color:#F7DA5B"/>
				<stop offset="1" style="stop-color:#F7C827"/>
			</radialGradient>
			<path class="st4" d="M163.5253,120.1889c-1.0982-0.175-2.6579-0.7037-3.7338-0.2557c-1.1246,0.4682-2.0635,1.5728-3.0361,2.2804     c-1.3573,0.9875-1.518-0.4642-1.6852-1.5132c-0.2103-1.3199-0.1894-2.8952-1.3444-3.7714     c-0.8984-0.6815-1.994-1.1573-2.8435-1.8974c-1.2408-1.081,0.6743-1.7052,1.4697-2.1089     c1.1454-0.5813,2.4007-0.9914,2.8486-2.312c0.3595-1.0597,0.4394-2.3644,0.9462-3.3587     c0.7592-1.4895,2.3574,0.7845,2.9733,1.4026c0.4658,0.4675,0.9266,1.0446,1.5567,1.2922     c0.7172,0.2818,1.6004,0.1299,2.3527,0.102C163.2009,112.9724,163.383,116.3679,163.5253,120.1889z" fill="#000000" data-original="#000000"/>
			<radialGradient id="SVGID_6_" cx="151.9486" cy="168.4852" r="1.6551" gradientUnits="userSpaceOnUse">
				<stop offset="0" style="stop-color:#F7F09D"/>
				<stop offset="0.5399" style="stop-color:#F7DA5B"/>
				<stop offset="1" style="stop-color:#F7C827"/>
			</radialGradient>
			<path class="st5" d="M150.8526,168.0664l2.6404-1.3401c-0.3355,1.2124-0.7688,2.4086-1.3667,3.5178     C151.6311,169.9133,149.4865,168.7601,150.8526,168.0664z" fill="#000000" data-original="#000000"/>
			<radialGradient id="SVGID_7_" cx="158.1429" cy="169.0697" r="6.3951" gradientUnits="userSpaceOnUse">
				<stop offset="0" style="stop-color:#F7F09D"/>
				<stop offset="0.5399" style="stop-color:#F7DA5B"/>
				<stop offset="1" style="stop-color:#F7C827"/>
			</radialGradient>
			<path class="st6" d="M161.5962,164.4848l0.803-0.0319c-0.7222,4.6796-2.6912,8.9252-5.9534,12.3868     c-1.2188,0.9443-1.3473-1.5714-1.4369-2.1357c-0.175-1.1019-0.1731-2.5173-1.1223-3.2726     c1.9195-3.0984,2.5993-6.7607,2.9156-10.3394c0.7188-0.0614,1.6189,1.2537,2.0549,1.6915     C159.6368,163.5666,160.3692,164.5241,161.5962,164.4848z" fill="#000000" data-original="#000000"/>
			<radialGradient id="SVGID_8_" cx="82.9198" cy="181.6471" r="5.0058" gradientUnits="userSpaceOnUse">
				<stop offset="0" style="stop-color:#F7F09D"/>
				<stop offset="0.5399" style="stop-color:#F7DA5B"/>
				<stop offset="1" style="stop-color:#F7C827"/>
			</radialGradient>
			<path class="st7" d="M86.2634,176.6974c0.6116,4.4299,1.2151,7.8147,1.7177,9.8994c-2.8611-0.0997-5.6969-0.2327-8.5047-0.3975     c0.6168-1.6632-0.1238-2.7331-0.8617-4.187c-0.2211-0.4356-0.7542-1.1186-0.7562-1.6372     c-0.0032-0.8514,0.8674-0.7572,1.4436-0.7356c1.458,0.0547,3.3829,0.4814,4.5776-0.549     C84.7247,178.3617,85.4755,177.4884,86.2634,176.6974z" fill="#000000" data-original="#000000"/>
			<radialGradient id="SVGID_9_" cx="117.0911" cy="181.5281" r="5.1696" gradientUnits="userSpaceOnUse">
				<stop offset="0" style="stop-color:#F7F09D"/>
				<stop offset="0.5399" style="stop-color:#F7DA5B"/>
				<stop offset="1" style="stop-color:#F7C827"/>
			</radialGradient>
			<path class="st8" d="M122.2394,179.964c0.4468,0.7009-0.8167,2.3933-1.1201,2.9913c-0.5801,1.1434-0.8502,1.9839-0.3756,3.2653     c-2.9342,0.1702-5.9016,0.3045-8.8956,0.4028c0.5212-2.1285,1.1513-5.6171,1.7882-10.1905     c1.4449,0.7525,2.0962,2.8574,3.7835,3.2554c0.7739,0.1826,1.7011,0.0191,2.4831-0.0106     C120.4895,179.6555,121.8501,179.3497,122.2394,179.964z" fill="#000000" data-original="#000000"/>
			<radialGradient id="SVGID_10_" cx="132.9115" cy="143.3588" r="7.7969" gradientUnits="userSpaceOnUse">
				<stop offset="0" style="stop-color:#F7F09D"/>
				<stop offset="0.5399" style="stop-color:#F7DA5B"/>
				<stop offset="1" style="stop-color:#F7C827"/>
			</radialGradient>
			<path class="st9" d="M140.5052,138.9586c0.395,0.6153-0.5011,1.7886-0.7724,2.32c-0.379,0.7424-1.0008,1.624-1.0523,2.4795     c-0.0515,0.8551,0.4615,1.8071,0.7492,2.5885c0.2067,0.5614,0.9509,1.8229,0.4906,2.3944     c-0.4412,0.5477-1.6925,0.1023-2.2498,0.0136c-0.803-0.1277-1.7521-0.4201-2.5731-0.3239     c-0.9229,0.1081-1.6818,0.8986-2.3811,1.4488c-0.4661,0.3668-1.4271,1.4608-2.1053,1.374     c-0.801-0.1025-0.7596-1.4002-0.8522-1.9888c-0.1236-0.7847-0.1674-1.6415-0.3947-2.406     c-0.5082-1.7087-2.7324-2.1078-3.8767-3.2484c-1.2848-1.2806,2.4144-2.4132,3.1957-2.8624     c1.6602-0.9546,1.4664-3.1556,2.1396-4.7352c0.7819-1.8346,3.039,1.4226,3.7786,2.0726     c0.9466,0.8319,2.0228,0.6559,3.1794,0.6114C138.422,138.672,140.082,138.2994,140.5052,138.9586z" fill="#000000" data-original="#000000"/>
			<radialGradient id="SVGID_12_" cx="43.6951" cy="168.9902" r="7.0457" gradientUnits="userSpaceOnUse">
				<stop offset="0" style="stop-color:#F7F09D"/>
				<stop offset="0.5399" style="stop-color:#F7DA5B"/>
				<stop offset="1" style="stop-color:#F7C827"/>
			</radialGradient>
			<path class="st10" d="M49.761,168.6846c0.0489,0.7828-1.5277,1.4615-2.0505,1.8106c-0.9607,0.6414-1.9394,1.1334-2.213,2.3604     c-0.2081,0.9333-0.3028,1.9066-0.4528,2.851c-0.1859,1.1708-0.7091,1.5819-1.765,0.7501     c-3.1009-3.4088-4.9098-7.4908-5.6516-12.0093c1.0091,0.0382,1.8664,0.0916,2.6933-0.6259     c0.5142-0.4462,0.9753-0.9794,1.4552-1.4614c0.3527-0.3542,0.9154-1.1766,1.4611-1.263     c0.7463-0.1181,0.8802,0.7221,1.0288,1.2503c0.4024,1.4297,0.5723,3.3298,1.9704,4.1341     c0.6361,0.3659,1.3178,0.6689,1.972,1.0009C48.6851,167.7241,49.7272,168.0346,49.761,168.6846z" fill="#000000" data-original="#000000"/>
			<radialGradient id="SVGID_13_" cx="67.3404" cy="143.3018" r="7.8029" gradientUnits="userSpaceOnUse">
				<stop offset="0" style="stop-color:#F7F09D"/>
				<stop offset="0.5399" style="stop-color:#F7DA5B"/>
				<stop offset="1" style="stop-color:#F7C827"/>
			</radialGradient>
			<path class="st11" d="M75.0532,142.9497c0.044,0.7043-1.1614,1.2189-1.6411,1.5397c-0.6616,0.4425-1.5023,0.8536-2.0481,1.4471     c-0.6266,0.6813-0.652,1.6851-0.7887,2.5536c-0.1045,0.6637-0.0532,1.7954-0.4181,2.3864     c-0.7603,1.2315-3.218-1.5013-3.9038-1.9748c-1.6194-1.1181-3.5206,0.1467-5.2714,0.101c-1.8015-0.047,0.1445-3.44,0.4099-4.3114     c0.5725-1.8798-1.2057-3.3115-1.7143-4.9836c-0.5345-1.7574,3.2861-0.9383,4.1803-0.9561     c1.9613-0.039,2.8142-2.091,4.2228-3.1386c1.5476-1.151,1.9431,2.9521,2.2878,3.8302c0.4292,1.0931,1.4636,1.4587,2.4328,1.9515     C73.3695,141.6837,75.0043,142.1677,75.0532,142.9497z" fill="#000000" data-original="#000000"/>
			<radialGradient id="SVGID_14_" cx="79.8382" cy="109.2499" r="5.794" gradientUnits="userSpaceOnUse">
				<stop offset="0" style="stop-color:#F7F09D"/>
				<stop offset="0.5399" style="stop-color:#F7DA5B"/>
				<stop offset="1" style="stop-color:#F7C827"/>
			</radialGradient>
			<path class="st12" d="M81.5943,104.6046l2.4104-2.4104c-0.2805,4.4392-0.5025,9.1695-0.6395,14.1112     c-0.6755-0.5308-1.3723-1.2533-2.2631-1.3601c-0.7012-0.0841-1.4965,0.1514-2.183,0.2609     c-0.6317,0.1007-1.434,0.3808-2.0774,0.3108c-0.9324-0.1015-0.7058-0.9275-0.4792-1.5443     c0.552-1.5026,1.5809-3.2164,0.8202-4.7841c-0.367-0.7563-2.4967-3.6702-0.9611-4.0387     C77.923,104.7416,80.1583,106.0364,81.5943,104.6046z" fill="#000000" data-original="#000000"/>
			<radialGradient id="SVGID_15_" cx="48.0326" cy="114.6782" r="2.0848" gradientUnits="userSpaceOnUse">
				<stop offset="0" style="stop-color:#F7F09D"/>
				<stop offset="0.5399" style="stop-color:#F7DA5B"/>
				<stop offset="1" style="stop-color:#F7C827"/>
			</radialGradient>
			<path class="st13" d="M49.761,114.2966c0.043,0.6947-1.0868,1.1735-1.5591,1.4886c-0.6288,0.4196-1.3104,0.8043-1.8989,1.2807     c0.1136-1.5909,0.2316-3.1824,0.3111-4.7755c0.5709,0.2897,1.1418,0.5795,1.7127,0.8692     C48.7974,113.3984,49.7213,113.667,49.761,114.2966z" fill="#000000" data-original="#000000"/>
			<radialGradient id="SVGID_16_" cx="40.9233" cy="114.58" r="6.401" gradientUnits="userSpaceOnUse">
				<stop offset="0" style="stop-color:#F7F09D"/>
				<stop offset="0.5399" style="stop-color:#F7DA5B"/>
				<stop offset="1" style="stop-color:#F7C827"/>
			</radialGradient>
			<path class="st14" d="M45.4216,111.4355c-0.8071,3.6176-1.3542,7.309-1.6818,11.0002c-0.9538-0.7501-1.8791-1.6267-2.9065-2.2722     c-1.246-0.7828-3.0526-0.149-4.4083,0.0666c0.1968-3.8542,0.4414-7.2656,0.6727-10.1892     c1.2428,0.0502,2.3025,0.2123,3.3045-0.6937c0.8021-0.7253,1.4721-1.6117,2.2991-2.3077     c1.0343-0.8704,1.3752,0.2501,1.6114,1.0898C44.5978,109.1425,44.7532,110.5826,45.4216,111.4355z" fill="#000000" data-original="#000000"/>
			<radialGradient id="SVGID_17_" cx="61.4649" cy="82.6856" r="7.809" gradientUnits="userSpaceOnUse">
				<stop offset="0" style="stop-color:#F7F09D"/>
				<stop offset="0.5399" style="stop-color:#F7DA5B"/>
				<stop offset="1" style="stop-color:#F7C827"/>
			</radialGradient>
			<path class="st15" d="M69.1835,82.3317c0.0449,0.7181-1.239,1.2698-1.7227,1.5936c-0.6355,0.4254-1.4406,0.8217-1.9659,1.3918     c-0.6438,0.6987-0.6639,1.7582-0.8043,2.6499c-0.1011,0.642-0.0515,1.8327-0.4671,2.3752     c-0.8104,1.0577-3.2365-1.6867-3.9659-2.1458c-0.9392-0.5911-1.8946-0.3311-2.9081-0.1696     c-0.6966,0.111-1.7857,0.5203-2.4936,0.3545c-1.4181-0.3322,0.4288-3.5301,0.6663-4.3092     c0.5775-1.894-1.2228-3.2968-1.7143-4.9836c-0.3354-1.1511,0.7496-1.087,1.5184-1.0574c0.8835,0.034,1.7777,0.1131,2.6619,0.1026     c1.9429-0.0232,2.8329-2.0926,4.2215-3.1399c1.544-1.1646,1.9511,2.9623,2.2892,3.8315c0.425,1.0927,1.4663,1.4588,2.4328,1.9501     C67.4939,81.0613,69.1346,81.5489,69.1835,82.3317z" fill="#000000" data-original="#000000"/>
			<linearGradient id="SVGID_18_" gradientUnits="userSpaceOnUse" x1="31.832" y1="38.7282" x2="91.5136" y2="38.7282">
				<stop offset="0" style="stop-color:#F7C827"/>
				<stop offset="0.4601" style="stop-color:#F7DA5B"/>
				<stop offset="1" style="stop-color:#F7F09D"/>
			</linearGradient>
			<path class="st16" d="M90.1469,47.6334c0.5876,1.7616,1.0277,3.2001,1.3667,4.2623c-0.961,0.6456-1.826,1.4285-2.5207,2.3572     c-3.4533-0.8533-6.7619-2.19-10.0403-3.5524C78.59,43.8973,74.3683,37.3202,69.849,32.51     c-4.1987-4.469-12.6238-11.158-18.5777-5.9875c-4.9509,5.7731,4.0053,13.0936,8.0672,16.369     c5.512,4.4447,11.8668,7.8464,18.585,10.0718c3.3339,1.1044,6.8295,2.2111,10.362,2.3878     c-0.5806,1.0551-0.9322,2.2252-1.0277,3.4261c-4.1723-0.2143-8.3108-0.3954-12.4221-1.2169     c-4.2906-0.8574-8.3898-2.2679-12.4052-3.9868c-0.8822-0.3776-1.9989-1.1021-2.972-1.1944     c-1.0401-0.0986,0.2505,0.9669,0.5521,1.225c3.278,2.8055,7.6136,4.5781,11.7438,5.6584     c4.9436,1.2931,10.4619,1.766,15.4875,0.6155c0.0253,0.4733,0.0904,0.9267,0.1914,1.3494     c-4.127,0.417-8.2161,1.0078-12.3667,1.1743c-5.2539,0.2108-10.5401-0.0892-15.7149-1.0412     c-5.122-0.9423-10.1743-2.5374-14.7667-5.0192c-4.4807-2.4215-8.8032-5.8263-11.1623-10.4405     c-4.6722-9.1384,1.7297-20.6809,9.072-26.3412c4.1523-3.2011,9.0084-4.9765,14.2819-4.4893     c4.9963,0.4616,9.7661,2.512,13.902,5.2902C80.2089,26.762,86.553,36.8941,90.1469,47.6334z M68.6796,26.0399     c0.6137-0.5527-2.6958-3.1336-2.9714-3.333c-1.6335-1.1816-3.5-2.0413-5.4355-2.5945     c-4.5453-1.2991-9.5278-0.7739-13.6897,1.4736c-1.562,0.8435-3.3806,2.0128-4.3323,3.5582     c-0.8464,1.3745,1.1295,0.1294,1.5834-0.1204c4.0262-2.2154,8.3692-3.5884,13.0153-3.2039     c2.4391,0.2018,4.8333,0.8581,7.0639,1.8588c1.1025,0.4946,2.1577,1.0826,3.2048,1.6835     C67.3359,25.487,68.4244,26.2951,68.6796,26.0399z" fill="#000000" data-original="#000000"/>
			<linearGradient id="SVGID_19_" gradientUnits="userSpaceOnUse" x1="108.4566" y1="38.6968" x2="168.1101" y2="38.6968">
				<stop offset="0" style="stop-color:#F7F09D"/>
				<stop offset="0.5399" style="stop-color:#F7DA5B"/>
				<stop offset="1" style="stop-color:#F7C827"/>
			</linearGradient>
			<path class="st17" d="M164.1169,26.9187c2.794,4.3172,4.5828,9.6164,3.8143,14.7932c-0.788,5.308-4.8009,9.5397-9.0432,12.4971     c-9.0878,6.3353-20.7931,8.3802-31.677,8.2521c-4.9595-0.0584-9.8181-0.7625-14.7421-1.2429     c0.0784-0.3856,0.1316-0.7897,0.1542-1.2085c4.4404,1.0253,9.2851,0.7497,13.7116-0.1811     c4.3971-0.9246,8.7678-2.6012,12.4418-5.2242c0.2586-0.1846,2.5358-1.799,1.97-2.1236     c-0.4247-0.2437-1.9651,0.6696-2.3363,0.8288c-3.7354,1.6021-7.5076,3.0784-11.4802,3.9883     c-4.7404,1.0858-9.4835,1.3699-14.3188,1.6217c-0.091-1.2495-0.4668-2.4665-1.0742-3.5604     c3.0345-0.122,6.0225-0.9795,8.9058-1.8734c3.2569-1.0097,6.4331-2.2388,9.4898-3.7537     c6.4485-3.196,12.8871-7.6394,17.4247-13.2977c2.2942-2.8608,4.1027-6.7261,1.3707-9.9118     c-5.9547-5.1711-14.3777,1.5194-18.5773,5.9875c-4.5278,4.8173-8.7265,11.3822-9.1039,18.1906     c-3.3299,1.3838-6.6884,2.7345-10.1985,3.5909c-0.6627-0.899-1.4786-1.6639-2.3917-2.304     c1.4933-4.6593,3.0293-9.2347,5.2804-13.5967c2.4115-4.6728,5.4809-9.0264,9.2022-12.7505     c6.8378-6.8427,17.5212-12.9727,27.477-9.8981C156.173,17.52,160.9226,21.9278,164.1169,26.9187z M157.8736,25.9428     c0.6019-0.5658-2.7508-3.086-3.0312-3.2812c-1.6541-1.1513-3.5356-1.9809-5.4797-2.5005     c-4.5576-1.2182-9.5485-0.5923-13.6614,1.7215c-1.5465,0.87-3.345,2.0743-4.2686,3.6355     c-0.8216,1.3888,1.1315,0.1095,1.5808-0.1482c3.9847-2.285,8.3071-3.7317,12.9573-3.4395     c2.4441,0.1536,4.8466,0.776,7.0954,1.7367c1.1111,0.4747,2.1763,1.0431,3.2337,1.6256     C156.5197,25.4138,157.6231,26.2033,157.8736,25.9428z" fill="#000000" data-original="#000000"/>
			<radialGradient id="SVGID_20_" cx="99.9616" cy="127.744" r="42.6164" gradientUnits="userSpaceOnUse">
				<stop offset="0" style="stop-color:#F7F09D"/>
				<stop offset="0.5399" style="stop-color:#F7DA5B"/>
				<stop offset="1" style="stop-color:#F7C827"/>
			</radialGradient>
			<path class="st18" d="M110.5253,68.7031c-0.1865,5.018,0.1837,10.0818,0.3819,15.094     c0.3435,8.6841,0.6696,17.3687,0.8558,26.0579c0.4194,19.5724,0.0408,39.1322-0.7266,58.6907     c-0.2362,6.0195-0.6916,12.0908-0.5204,18.1176c-7.0659,0.2043-14.1372,0.1969-21.2027-0.0226     c0.1619-5.1375-0.1814-10.31-0.3724-15.4421c-0.3251-8.736-0.6324-17.4726-0.8038-26.2132     c-0.3829-19.524,0.0035-39.0341,0.7284-58.5451c0.2187-5.8873,0.6755-11.8439,0.4386-17.7371     C96.3777,68.6684,103.4515,68.6682,110.5253,68.7031z" fill="#000000" data-original="#000000"/>
		</g>
		<radialGradient id="SVGID_21_" cx="99.8938" cy="59.0928" r="7.3558" gradientUnits="userSpaceOnUse">
			<stop offset="0" style="stop-color:#F7A4BB"/>
			<stop offset="0.1259" style="stop-color:#F79DB3"/>
			<stop offset="0.3243" style="stop-color:#F7899C"/>
			<stop offset="0.5703" style="stop-color:#F76977"/>
			<stop offset="0.8517" style="stop-color:#F73E45"/>
			<stop offset="1" style="stop-color:#F72427"/>
		</radialGradient>
		<path class="st19" d="M106.9609,56.3509c2.3338,1.9207,2.6551,5.0703,1.2909,7.6618c-1.4345-0.008-2.8744-0.0146-4.3195-0.0186    c-0.1094-1.263-0.1343-2.5165-0.1292-3.7832c0.0019-0.4635,0.1655-1.836-0.518-1.9433c-0.819-0.1285-1.4273,1.5582-1.5859,2.1196    c-0.3306,1.1701-0.3008,2.4445,0.0687,3.6016c-0.9439-0.0021-1.8879-0.0013-2.8318-0.0013    c0.2023-0.9539,0.1053-1.9729-0.2736-2.8715c-0.2758-0.6541-0.9259-1.756-1.7313-1.8169    c-0.9291-0.0703-0.5648,1.2043-0.4749,1.7663c0.1561,0.9751,0.2702,1.937,0.2702,2.9261    c-1.7523,0.0053-3.4966,0.012-5.2342,0.0213c-0.7728-1.7441-1.1032-3.7782-0.3009-5.5709    c0.7868-1.7582,2.4433-2.8803,4.2126-3.5001C98.9579,53.6966,103.9538,53.827,106.9609,56.3509z" fill="#000000" data-original="#000000"/>
		<linearGradient id="SVGID_22_" gradientUnits="userSpaceOnUse" x1="113.8463" y1="142.4398" x2="163.7827" y2="142.4398">
			<stop offset="0" style="stop-color:#F7A4BB"/>
			<stop offset="0.6285" style="stop-color:#F7515B"/>
			<stop offset="1" style="stop-color:#F72427"/>
		</linearGradient>
		<path class="st20" d="M163.6902,125.6571c-0.0306-1.3468-0.0678-2.651-0.1104-3.9127c-0.946-0.1505-2.5069-0.7413-3.3908-0.285    c-1.0129,0.5229-1.8378,1.5318-2.7774,2.1826c-0.9017,0.6245-2.0536,0.6825-2.9123-0.0742    c-0.5914-0.5211-0.7134-1.2134-0.8296-1.9427c-0.1551-0.9732-0.0742-2.7386-0.828-3.4481    c-0.8318-0.7831-2.0054-1.2472-2.9131-1.9447c-0.9375-0.7203-1.3226-1.9553-0.7048-3.026    c0.3663-0.6348,0.9876-0.9101,1.6069-1.2246c0.8755-0.4446,2.521-0.8878,2.9174-1.852c0.4655-1.1325,0.5336-2.4269,1.0169-3.5543    c0.5301-1.2365,2.0406-1.782,3.2266-1.1046c0.5824,0.3326,1.0582,0.9465,1.5245,1.4147c0.4552,0.4571,0.918,1.0965,1.4533,1.4594    c0.5563,0.3772,1.3222,0.2015,1.9684,0.1776c-0.2486-3.9871-0.448-6.9758-0.5172-8.8344    c-4.5991,2.9333-10.1741,3.6692-15.5191,3.8648c-10.5076,0.4416-21.5006-0.5447-31.2363-4.7995    c0.0385,0.5278,0.0758,1.0596,0.113,1.5967c1.197,0.1005,2.0836,1.3351,2.8725,2.124c0.6003,0.6003,1.0235,1.2547,1.9134,1.2579    c1.0618,0.0038,2.1255-0.1366,3.1871-0.1213c1.7977,0.0261,2.8766,1.6755,2.1484,3.3288    c-0.412,0.9353-0.9695,1.8073-1.4013,2.7338c-0.4047,0.8681-0.0758,1.4245,0.2434,2.294    c0.3446,0.9387,1.0326,2.1705,0.8566,3.2012c-0.2987,1.749-1.9093,1.967-3.3385,1.739c-0.9029-0.144-2.4903-0.7389-3.345-0.2835    c-0.8217,0.4378-1.5704,1.2352-2.3043,1.8124c0.3357,14.763-0.0991,29.5537-1.4209,44.2627    c-0.3658,4.0709-0.8044,8.1356-1.3431,12.1873c1.5176,0.3846,2.3211,2.2323,3.5304,3.0862    c0.5062,0.3574,1.0961,0.229,1.6923,0.2065c0.7747-0.0293,1.5553-0.0921,2.3305-0.0881c1.0773,0.0056,2.0437,0.5112,2.3822,1.5963    c0.2779,0.8908-0.1073,1.61-0.4941,2.3721c-0.3729,0.7346-0.7839,1.4612-1.1227,2.2119c-0.3209,0.7111-0.09,1.1428,0.1728,1.8544    c7.6209-0.4766,15.4231-0.8406,22.8898-2.5061c3.5917-1.2568,6.8654-2.7924,9.7425-5.3459    c-1.1359-0.5761-1.2195-1.7483-1.395-2.8533c-0.1077-0.6782-0.0477-2.203-0.57-2.7318c-1.3354,1.7034-3.0657,3.1062-5.0368,4.0087    c-0.3606,0.1651-3.9409,1.4613-3.9697,0.7452c-0.0161-0.4017,2.4418-1.4163,2.7455-1.6048    c1.7992-1.1166,3.3833-2.5379,4.5885-4.2858c-0.8338-0.5494-1.9442-1.0765-2.289-2.0791    c-0.5139-1.4945,0.522-2.4665,1.7164-3.0729c0.8152-0.4139,1.8354-0.7549,2.5671-1.3035c0.6606-0.4952,0.75-1.7516,0.9636-2.5093    c0.4797-3.8336,0.6454-7.7064,0.82-11.5632c0.0835-1.8435,0.1581-3.6891,0.3003-5.5292c0.0509-0.6581,0.1042-1.3186,0.2009-1.9719    c0.0312-0.2107,0.0478-0.9003,0.2387-1.0479c0.4167-0.3223,0.4915,0.7077,0.5521,1.0339    c0.2896,1.5594,0.3965,3.1648,0.4977,4.7451c0.2411,3.7626,0.2776,7.5445,0.0226,11.3073c1.2958,0.03,2.2075,1.3305,3.0454,2.1719    c0.3148,0.3161,0.6236,0.7367,0.9877,0.9916c0.4836,0.3386,1.0546,0.2145,1.6199,0.1921    C163.5911,150.5212,163.978,138.0924,163.6902,125.6571z M141.9025,140.3891c-0.3995,0.7823-0.799,1.5645-1.1985,2.3468    c-0.3854,0.7546-0.5503,1.1526-0.2494,1.9709c0.3294,0.8958,0.7043,1.787,0.9918,2.6971c0.4793,1.5171-0.4425,3.162-2.1544,3.1356    c-1.4641-0.0226-3.4258-1.1244-4.6903-0.1992c-1.5191,1.1114-4.3154,4.1292-5.8826,1.2782    c-0.4336-0.7889-0.4396-1.9278-0.5762-2.7954c-0.1199-0.7618-0.0829-1.5376-0.6894-2.0573    c-1.4307-1.226-4.9981-2.3448-3.5232-4.9076c0.4902-0.8517,1.604-1.2242,2.4375-1.6477c0.6552-0.3329,1.7015-0.6295,2.0517-1.316    c0.8106-1.5891,0.406-4.4311,2.5786-4.9946c1.4404-0.3736,2.3284,0.7465,3.2242,1.6432c0.6016,0.6023,1.2528,1.5891,2.1398,1.6798    c1.0232,0.1046,2.1366-0.0983,3.1662-0.122C141.2668,137.0609,142.8052,138.6194,141.9025,140.3891z" fill="#000000" data-original="#000000"/>
		<linearGradient id="SVGID_23_" gradientUnits="userSpaceOnUse" x1="36.0511" y1="142.4246" x2="86.0361" y2="142.4246">
			<stop offset="0" style="stop-color:#F72427"/>
			<stop offset="0.3715" style="stop-color:#F7515B"/>
			<stop offset="1" style="stop-color:#F7A4BB"/>
		</linearGradient>
		<path class="st21" d="M85.5695,171.2319c-1.5498-13.3649-2.2547-26.841-2.3511-40.2919    c-0.0304-4.2433-0.0006-8.4871,0.0977-12.7294c-0.6381-0.5014-1.2978-1.2084-2.0148-1.583    c-0.8001-0.418-2.1579,0.0904-3.0026,0.2249c-1.2491,0.199-2.5737,0.4103-3.3716-0.8664    c-0.7022-1.1236-0.0949-2.2792,0.3076-3.3744c0.281-0.7646,0.9172-1.8062,0.6436-2.6179    c-0.3252-0.9646-0.9838-1.8846-1.434-2.7987c-0.6447-1.3087-0.392-2.9886,1.1785-3.4855c0.9133-0.289,2.118-0.0501,3.0523-0.0144    c0.395,0.0151,0.8961,0.116,1.2894,0.0492c0.5386-0.0915,0.8303-0.5021,1.2012-0.8732c0.7986-0.799,1.7965-2.2057,2.9561-2.4718    c0.0372-0.5557,0.0758-1.1075,0.1156-1.6539c-5.4655,2.328-11.3691,3.7147-17.2594,4.3993c0,0,0,0-0.0013,0    c-4.8991,0.57-9.8859,0.6052-14.8092,0.3749c-4.9005-0.2292-9.9731-0.987-14.2454-3.5497    c-0.1104,1.7868-0.3763,4.6758-0.7006,8.5459c0.8923,0.0359,1.6076,0.2077,2.284-0.4342c0.7351-0.6977,1.4009-1.4723,2.149-2.1559    c1.1073-1.0117,2.8907-1.0213,3.6809,0.4135c0.4162,0.7557,0.5499,1.7355,0.7817,2.5595c0.5859-1.5059,0.5666,1.3772,0.561,1.6605    c0.3833,0.4008,1.1367,0.6259,1.614,0.8681c0.5791,0.2939,1.1863,0.5599,1.7475,0.887c0.9732,0.5671,1.5115,1.6508,1.1322,2.7656    c-0.26,0.764-0.8824,1.1493-1.5094,1.5677c-0.8578,0.5724-2.4415,1.1946-2.6877,2.2694    c-0.3037,1.3257-0.1094,3.3714-1.0597,4.4478c-0.3628,7.9129,0.1244,15.6933,2.1273,23.3736    c0.0973,0.3731,0.9662,2.5877,0.6466,2.9308c-0.3125,0.3353-0.8843-0.8016-1.0333-1.054    c-1.8401-3.118-2.8194-6.806-3.4409-10.3436c-0.8243-4.692-0.9275-9.469-0.6037-14.2141    c-1.3948-0.3893-2.3167-1.8909-3.5512-2.5714c-0.9441-0.5204-2.6841,0.1401-3.7104,0.3033    c-0.6311,13.7229-0.2572,27.4526,1.0942,41.1224c0.9498,0.0349,1.527,0.1,2.2166-0.5922c0.6859-0.6884,1.3435-1.433,2.0703-2.078    c1.3209-1.1723,3.2353-0.6987,3.807,0.9822c0.3149,0.9261,0.5341,1.8961,0.7992,2.8376c0.2407,0.8546,0.594,1.0576,1.368,1.4505    c0.8434,0.4281,1.7988,0.7887,2.5797,1.3274c1.4368,0.9911,1.2092,2.8882-0.1008,3.8434    c-0.8388,0.6116-1.7462,1.1292-2.5922,1.7309c-0.7668,0.5452-0.7069,1.4554-0.8471,2.3382    c-0.2055,1.2938-0.1965,2.9214-1.5763,3.5583c4.1009,3.5997,9.1985,5.5512,14.5764,6.1774    c6.0302,0.7022,12.081,1.2331,18.1396,1.616c0.2305-0.6243,0.4963-1.0825,0.2179-1.7244    c-0.3204-0.7388-0.7363-1.4509-1.1007-2.1688c-0.3612-0.7118-0.7856-1.4009-0.6389-2.2402    c0.2128-1.2174,1.2525-1.8713,2.4147-1.88c0.7537-0.0057,1.5152,0.0573,2.2681,0.0858c0.6151,0.0233,1.2609,0.1664,1.7865-0.1988    c1.1597-0.8057,1.8658-2.4138,3.2048-2.9734C85.8792,173.8098,85.7237,172.5521,85.5695,171.2319z M75.5757,144.8801    c-0.7297,0.4885-1.4595,0.9769-2.1892,1.4654c-0.7029,0.4705-1.0422,0.7389-1.1775,1.5986    c-0.1501,0.9533-0.2548,1.927-0.4522,2.8717c-0.31,1.4838-1.8116,2.4538-3.2642,1.7289    c-0.8143-0.4064-1.5351-1.1445-2.2447-1.7028c-0.7608-0.5987-1.1213-0.9522-2.1244-0.7927    c-1.8632,0.2963-5.4155,1.3366-5.529-1.688c-0.0347-0.9237,0.5461-1.9754,0.8568-2.8193    c0.2685-0.7293,0.7068-1.4246,0.3785-2.1763c-0.7442-1.7038-2.9986-4.3269-0.7998-5.8704    c0.8648-0.6071,2.0747-0.378,3.0665-0.3398c0.7627,0.0294,1.8175,0.2801,2.4692-0.1851c1.5397-1.0991,2.924-4.2067,5.2562-2.8102    c1.03,0.6168,1.189,1.9701,1.4889,3.0303c0.2228,0.7878,0.287,1.7835,1.0099,2.2452c0.8977,0.5733,1.9396,0.9455,2.8727,1.4605    C76.6915,141.7228,77.1729,143.8101,75.5757,144.8801z" fill="#000000" data-original="#000000"/>
	</g>
	<g>
		<path class="st22" d="M50.8685,97.4307c-0.3031,1.1301-1.5116,1.9503-3.0857,2.4729c-3.2042-0.5894-6.3738-1.6058-9.0039-3.5847    c-2.6106-1.9642-4.1912-4.703-5.0807-7.8143c1.8066-0.9945,3.9435-0.7345,5.8882-0.3877    c2.1344,0.3807,4.2421,1.0169,6.2025,1.9478C48.4939,91.3492,52.1864,93.9353,50.8685,97.4307z" fill="#000000" data-original="#000000"/>
		<path class="st22" d="M167.071,80.0158c-3.5829,1.2364-7.6787,0.8476-11.08-0.755c-2.9437-1.387-6.0486-4.279-5.3139-7.8773    c0.2101-0.682,0.5557-1.3135,1.0503-1.8427c2.9275,0.1562,5.8537,0.3174,8.7547,0.7525c0.1595,0.0479,0.3191,0.0864,0.4826,0.1183    C164.8405,71.6191,166.8094,76.3125,167.071,80.0158z" fill="#000000" data-original="#000000"/>
		<path class="st22" d="M148.1458,100.4354c-6.146,0.5883-12.4033,0.7095-18.5464,0.0465c-0.913-1.2971-1.4031-2.9439-1.0849-4.5242    c1.4512-4.6936,7.4051-3.49,10.9519-2.4318C142.6086,94.4632,147.869,96.5186,148.1458,100.4354z" fill="#000000" data-original="#000000"/>
		<path class="st22" d="M123.6207,84.8471c-0.3831,1.4283-2.0239,2.1451-3.3029,2.5408c-1.7858,0.5526-3.7585,0.7481-5.6167,0.5502    c-0.4331-4.0962-0.9429-8.1866-1.5874-12.2552C116.8703,76.4741,125.6756,79.3986,123.6207,84.8471z" fill="#000000" data-original="#000000"/>
		<path class="st22" d="M85.5907,84.1904c-0.3989,3.7628-0.7998,7.5218-1.1048,11.294c-4.6669-0.2127-12.5495-3.3618-11.3392-9.3569    C74.7569,80.916,81.9145,82.8378,85.5907,84.1904z" fill="#000000" data-original="#000000"/>
		<path class="st22" d="M127.2755,130.3634c-0.5404,4.649-4.2778,12.3455-10.1945,10.6811    c-0.1954-0.0771-0.3869-0.1662-0.5704-0.2672c0.1453-4.5192,0.2047-9.0394,0.2047-13.5608    c2.0128-3.7691,4.9125-6.4573,8.0075-5.0148C126.8447,122.9476,127.5746,126.936,127.2755,130.3634z" fill="#000000" data-original="#000000"/>
		<path class="st22" d="M163.7473,139.2005c-0.019,1.4112-0.0472,2.8223-0.0864,4.2331c-0.8141,0.1517-1.666,0.1435-2.4662-0.0811    c-3.4803-1.3704-3.28-5.2403-2.5026-8.2732c0.8618-3.3619,2.3749-7.0419,4.998-9.4223    C163.7859,129.7918,163.8204,134.32,163.7473,139.2005z" fill="#000000" data-original="#000000"/>
		<path class="st22" d="M155.0405,152.5513c-0.155,3.3479-0.3336,6.709-0.7499,10.0363c-0.2015,0.7148-0.289,1.9438-0.8729,2.4471    c-0.6606,0.5693-1.737,0.8981-2.5111,1.2912c-1.0673,0.5419-2.0808,1.1842-1.9798,2.5716    c0.0981,1.3475,1.3329,1.9389,2.3246,2.6017l-0.1609,0.3935c-0.4188-0.0133-0.8203-0.0745-1.2005-0.1821    c-4.3638-1.7183-3.0198-7.1399-1.8113-10.5306C149.2018,158.0291,151.3447,153.3028,155.0405,152.5513z" fill="#000000" data-original="#000000"/>
		<path class="st22" d="M83.3359,138.2154c-1.3312,0.7549-2.9542,1.0775-4.4485,0.6581c-4.1385-1.6296-3.1084-6.6143-2.0196-9.9254    c1.0687-3.25,2.9835-7.632,6.4122-9.0051C83.1637,126.0328,83.1828,132.1263,83.3359,138.2154z" fill="#000000" data-original="#000000"/>
		<path class="st22" d="M45.4482,146.4184c-0.5032,4.3342-3.3791,10.7123-8.522,10.8553    c-0.4547-5.6397-0.7099-10.9856-0.8203-15.9831c1.8865-2.6497,4.273-4.2078,6.7897-3.0352    C45.6713,139.2311,45.6504,144.1142,45.4482,146.4184z" fill="#000000" data-original="#000000"/>
		<path class="st22" d="M43.0951,84.9067c5.2832,0.9426,10.5715-4.5936,8.4284-9.8399c-1.0002-2.4485-4.1131-3.0622-6.3909-2.1921    c-2.3998,0.9167-4.3004,3.0716-5.4374,5.3201c-0.6463,1.2783-1.1178,2.6684-0.4815,4.0513    C39.9129,83.7656,41.51,84.631,43.0951,84.9067z" fill="#000000" data-original="#000000"/>
		<path class="st22" d="M51.0141,132.0697c5.2832,0.9426,10.5715-4.5936,8.4284-9.8399c-1.0002-2.4485-4.1131-3.0622-6.3909-2.1921    c-2.3998,0.9167-4.3004,3.0716-5.4374,5.3201c-0.6463,1.2783-1.1178,2.6684-0.4815,4.0513    C47.8319,130.9286,49.429,131.7939,51.0141,132.0697z" fill="#000000" data-original="#000000"/>
		<path class="st22" d="M70.8056,168.3647c5.2832,0.9426,10.5715-4.5936,8.4284-9.8399c-1.0002-2.4485-4.1131-3.0622-6.3909-2.1921    c-2.3998,0.9167-4.3004,3.0716-5.4374,5.3201c-0.6463,1.2783-1.1178,2.6684-0.4815,4.0513    C67.6234,167.2236,69.2205,168.089,70.8056,168.3647z" fill="#000000" data-original="#000000"/>
		<path class="st22" d="M134.427,168.4195c5.2832,0.9426,10.5715-4.5936,8.4284-9.8399c-1.0002-2.4485-4.1131-3.0622-6.3909-2.1921    c-2.3998,0.9167-4.3004,3.0716-5.4374,5.3201c-0.6463,1.2783-1.1178,2.6684-0.4815,4.0513    C131.2448,167.2784,132.8418,168.1438,134.427,168.4195z" fill="#000000" data-original="#000000"/>
		<path class="st22" d="M146.2099,137.6856c-2.1396,1.8341-3.0006,4.765-2.3688,7.4893c0.5981,2.579,2.9079,5.4221,5.7733,5.452    c2.4058,0.0252,4.2661-2.1721,4.7855-4.3343c0.5224-2.1743,0.1436-4.5644-0.6831-6.6144c-0.5206-1.291-1.2159-2.633-2.5796-3.1787    C149.4357,135.8185,147.5216,136.5514,146.2099,137.6856z" fill="#000000" data-original="#000000"/>
		<path class="st22" d="M123.178,162.2964c-0.5025,1.7598-1.7051,3.1156-3.4208,3.7651c-1.7156,0.6494-3.4541-0.1648-4.7582-1.3122    c0.355-3.6986,0.6794-7.7296,0.9479-12.0252c1.0492-0.6657,2.4391-0.9884,3.6601-0.6642c1.2885,0.3421,2.0393,1.3501,2.6035,2.49    C123.3583,156.8687,123.9005,159.7692,123.178,162.2964z" fill="#000000" data-original="#000000"/>
		<path class="st22" d="M55.1378,142.6686c-2.1396,1.8341-3.0006,4.765-2.3688,7.4893c0.5981,2.579,2.9079,5.4221,5.7733,5.4521    c2.4058,0.0252,4.2661-2.1721,4.7855-4.3343c0.5224-2.1743,0.1436-4.5644-0.6831-6.6144c-0.5206-1.291-1.2159-2.633-2.5796-3.1787    C58.3635,140.8015,56.4494,141.5344,55.1378,142.6686z" fill="#000000" data-original="#000000"/>
		<path class="st22" d="M72.6202,114.3804c0.087,3.0455-2.7865,6.0873-5.7625,6.4754c-3.0737,0.4009-3.5511-3.4505-4.714-5.4272    c-0.8318-1.4139-2.0498-2.4835-3.6943-2.7987c-1.6101-0.3086-3.4036,0.1327-4.9265-0.5918    c-2.9394-1.3984-2.7349-6.1324-1.3556-8.5183c4.9241,0.2269,9.9091,0.1952,14.8092-0.3749c0.0013,0,0.0013,0,0.0013,0    C70.3703,105.776,72.4981,110.0881,72.6202,114.3804z" fill="#000000" data-original="#000000"/>
		<path class="st22" d="M65.6233,170.5946c-2.0763-1.0101-2.8361-3.2087-3.5287-5.2454c-0.6014-1.7686-1.5234-3.3972-3.6635-3.101    c-2.0854,0.2886-4.0652,1.7522-5.1055,3.5555c-1.2036,2.0865-0.8281,4.7203-0.1965,6.9383    c1.27,4.4598,4.3889,8.1774,8.7847,9.8121c3.5237,1.3105,8.8151,1.0406,10.7473-2.7326c0.9622-1.8789,1.2284-4.5383,0.2407-6.4606    C71.4394,170.5147,68.0333,171.7669,65.6233,170.5946z" fill="#000000" data-original="#000000"/>
		<path class="st22" d="M142.0486,117.8352c-2.0763-1.0101-2.8361-3.2087-3.5287-5.2454c-0.6014-1.7686-1.5234-3.3972-3.6635-3.101    c-2.0854,0.2886-4.0652,1.7522-5.1055,3.5555c-1.2036,2.0865-0.8281,4.7203-0.1965,6.9383    c1.27,4.4598,4.3889,8.1773,8.7847,9.8121c3.5237,1.3105,8.8151,1.0406,10.7473-2.7326c0.9622-1.8789,1.2284-4.5383,0.2407-6.4606    C147.8648,117.7554,144.4587,119.0075,142.0486,117.8352z" fill="#000000" data-original="#000000"/>
		<path class="st22" d="M143.6415,184.0083c-3.7933,0.897-7.8804,1.0484-11.7447,1.3933c-1.568-2.3418-5.1593-2.0249-6.4977-4.4663    c-1.1966-2.1829-0.0469-5.2477,1.4556-6.9902c3.5581-4.1265,10.0365-1.4867,13.0964,1.8453    C142.0654,178.0927,143.3092,180.909,143.6415,184.0083z" fill="#000000" data-original="#000000"/>
		<g class="st23">
			<path class="st24" d="M73.132,94.8397c1.9942,0,1.9852-3.152,0-3.1516C71.1498,91.6886,71.1341,94.8397,73.132,94.8397z" fill="#000000" data-original="#000000"/>
		</g>
		<g class="st23">
			<path class="st24" d="M53.3405,136.1841c1.9942,0,1.9852-3.152,0-3.1516C51.3583,133.033,51.3426,136.1841,53.3405,136.1841z" fill="#000000" data-original="#000000"/>
		</g>
		<g class="st23">
			<path class="st24" d="M60.4047,168.302c1.9942,0,1.9852-3.152,0-3.1516C58.4225,165.1509,58.4067,168.302,60.4047,168.302z" fill="#000000" data-original="#000000"/>
		</g>
		<g class="st23">
			<path class="st24" d="M79.0017,155.6946c1.9942,0,1.9852-3.152,0-3.1516C77.0195,152.5434,77.0038,155.6946,79.0017,155.6946z" fill="#000000" data-original="#000000"/>
		</g>
		<g class="st23">
			<path class="st24" d="M124.4287,131.7152c1.9942,0,1.9852-3.152,0-3.1516C122.4464,128.5641,122.4307,131.7152,124.4287,131.7152     z" fill="#000000" data-original="#000000"/>
		</g>
		<g class="st23">
			<path class="st24" d="M150.4497,98.92c1.9942,0,1.9852-3.152,0-3.1516C148.4675,95.7689,148.4518,98.92,150.4497,98.92z" fill="#000000" data-original="#000000"/>
		</g>
		<g class="st23">
			<path class="st24" d="M125.4189,77.2587c1.9942,0,1.9852-3.152,0-3.1516C123.4367,74.1076,123.4209,77.2587,125.4189,77.2587z" fill="#000000" data-original="#000000"/>
		</g>
		<g class="st23">
			<path class="st24" d="M144.5466,160.7036c1.9942,0,1.9852-3.152,0-3.1516C142.5644,157.5524,142.5487,160.7036,144.5466,160.7036     z" fill="#000000" data-original="#000000"/>
		</g>
		<g class="st25">
			<path class="st24" d="M75.5721,94.4284c1.9942,0,1.9852-3.152,0-3.1516C73.5899,91.2772,73.5741,94.4284,75.5721,94.4284z" fill="#000000" data-original="#000000"/>
		</g>
		<g class="st25">
			<path class="st24" d="M53.7177,133.0937c1.9942,0,1.9852-3.152,0-3.1516C51.7354,129.9425,51.7197,133.0937,53.7177,133.0937z" fill="#000000" data-original="#000000"/>
		</g>
		<g class="st25">
			<path class="st24" d="M60.4047,165.3358c1.9942,0,1.9852-3.152,0-3.1516C58.4225,162.1846,58.4067,165.3358,60.4047,165.3358z" fill="#000000" data-original="#000000"/>
		</g>
		<g class="st25">
			<path class="st24" d="M79.7905,153.023c1.9942,0,1.9852-3.152,0-3.1516C77.8082,149.8718,77.7924,153.023,79.7905,153.023z" fill="#000000" data-original="#000000"/>
		</g>
		<g class="st25">
			<path class="st24" d="M122.3542,129.7845c1.9942,0,1.9852-3.152,0-3.1516C120.3719,126.6334,120.3561,129.7845,122.3542,129.7845     z" fill="#000000" data-original="#000000"/>
		</g>
		<g class="st25">
			<path class="st24" d="M144.5467,163.76c1.9942,0,1.9852-3.152,0-3.1516C142.5644,160.6088,142.5486,163.76,144.5467,163.76z" fill="#000000" data-original="#000000"/>
		</g>
		<g class="st25">
			<path class="st24" d="M147.5415,97.3442c1.9942,0,1.9852-3.152,0-3.1516C145.5592,94.1931,145.5434,97.3442,147.5415,97.3442z" fill="#000000" data-original="#000000"/>
		</g>
		<g class="st25">
			<path class="st24" d="M127.4618,74.7364c1.9942,0,1.9852-3.152,0-3.1516C125.4796,71.5852,125.4638,74.7364,127.4618,74.7364z" fill="#000000" data-original="#000000"/>
		</g>
		<g class="st26">
			<path class="st24" d="M44.6133,95.3571c3.1621,0,3.1638-5.0136,0-5.009C41.4518,90.3527,41.4485,95.3571,44.6133,95.3571z" fill="#000000" data-original="#000000"/>
		</g>
		<g class="st26">
			<path class="st24" d="M65.666,123.7654c3.1621,0,3.1638-5.0136,0-5.009C62.5045,118.761,62.5012,123.7654,65.666,123.7654z" fill="#000000" data-original="#000000"/>
		</g>
		<g class="st26">
			<path class="st24" d="M43.6953,156.6233c3.1621,0,3.1638-5.0136,0-5.009C40.5338,151.6189,40.5305,156.6233,43.6953,156.6233z" fill="#000000" data-original="#000000"/>
		</g>
		<g class="st26">
			<path class="st24" d="M67.3209,181.8545c3.1621,0,3.1638-5.0136,0-5.009C64.1594,176.8501,64.1561,181.8545,67.3209,181.8545z" fill="#000000" data-original="#000000"/>
		</g>
		<g class="st26">
			<path class="st24" d="M123.6297,167.2694c3.1621,0,3.1638-5.0136,0-5.009C120.4682,162.265,120.465,167.2694,123.6297,167.2694z" fill="#000000" data-original="#000000"/>
		</g>
		<g class="st26">
			<path class="st24" d="M155.7504,135.1484c3.1621,0,3.1638-5.0136,0-5.009C152.5889,130.144,152.5856,135.1484,155.7504,135.1484z     " fill="#000000" data-original="#000000"/>
		</g>
		<g class="st26">
			<path class="st24" d="M136.7534,113.0695c3.1621,0,3.1638-5.0136,0-5.009C133.5919,108.0651,133.5887,113.0695,136.7534,113.0695     z" fill="#000000" data-original="#000000"/>
		</g>
		<g class="st26">
			<path class="st24" d="M76.5825,78.7051c3.1621,0,3.1638-5.0136,0-5.009C73.421,73.7007,73.4177,78.7051,76.5825,78.7051z" fill="#000000" data-original="#000000"/>
		</g>
		<g class="st26">
			<path class="st24" d="M122.0094,93.1477c3.1621,0,3.1638-5.0136,0-5.009C118.8479,88.1433,118.8446,93.1477,122.0094,93.1477z" fill="#000000" data-original="#000000"/>
		</g>
		<g class="st26">
			<path class="st24" d="M155.7504,78.7051c3.1621,0,3.1638-5.0136,0-5.009C152.5889,73.7007,152.5856,78.7051,155.7504,78.7051z" fill="#000000" data-original="#000000"/>
		</g>
		<g class="st26">
			<path class="st24" d="M44.3227,79.8427c1.4322,0,1.4378-2.2757,0-2.2753C42.8888,77.5678,42.886,79.8427,44.3227,79.8427z" fill="#000000" data-original="#000000"/>
		</g>
		<g class="st26">
			<path class="st24" d="M59.729,73.0214c1.4322,0,1.4378-2.2757,0-2.2753C58.2951,70.7465,58.2923,73.0214,59.729,73.0214z" fill="#000000" data-original="#000000"/>
		</g>
		<g class="st26">
			<path class="st24" d="M141.7237,73.6097c1.4322,0,1.4378-2.2757,0-2.2753C140.2898,71.3348,140.287,73.6097,141.7237,73.6097z" fill="#000000" data-original="#000000"/>
		</g>
		<g class="st26">
			<path class="st24" d="M52.5586,179.1368c1.4322,0,1.4378-2.2757,0-2.2753C51.1247,176.8618,51.1219,179.1368,52.5586,179.1368z" fill="#000000" data-original="#000000"/>
		</g>
		<g class="st26">
			<path class="st24" d="M61.9268,98.4819c1.4322,0,1.4378-2.2756,0-2.2753C60.493,96.207,60.4902,98.4819,61.9268,98.4819z" fill="#000000" data-original="#000000"/>
		</g>
		<g class="st26">
			<path class="st24" d="M140.6248,129.3464c1.4322,0,1.4378-2.2756,0-2.2753     C139.1909,127.0715,139.1881,129.3464,140.6248,129.3464z" fill="#000000" data-original="#000000"/>
		</g>
		<g class="st26">
			<path class="st24" d="M151.5487,106.7012c1.4322,0,1.4378-2.2756,0-2.2753C150.1148,104.4263,150.112,106.7012,151.5487,106.7012     z" fill="#000000" data-original="#000000"/>
		</g>
		<g class="st26">
			<path class="st24" d="M159.8657,156.5127c1.4322,0,1.4378-2.2757,0-2.2753C158.4318,154.2378,158.429,156.5127,159.8657,156.5127     z" fill="#000000" data-original="#000000"/>
		</g>
		<g class="st26">
			<path class="st24" d="M147.0468,150.1229c1.4322,0,1.4378-2.2756,0-2.2753C145.613,147.848,145.6101,150.1229,147.0468,150.1229z     " fill="#000000" data-original="#000000"/>
		</g>
		<g class="st26">
			<path class="st24" d="M160.9647,93.6586c1.4322,0,1.4378-2.2757,0-2.2753C159.5308,91.3836,159.528,93.6586,160.9647,93.6586z" fill="#000000" data-original="#000000"/>
		</g>
		<g class="st26">
			<path class="st24" d="M136.7534,182.7848c1.4322,0,1.4378-2.2757,0-2.2753     C135.3195,180.5098,135.3167,182.7848,136.7534,182.7848z" fill="#000000" data-original="#000000"/>
		</g>
		<g class="st26">
			<path class="st24" d="M121.7828,152.3982c1.4322,0,1.4378-2.2757,0-2.2753     C120.3489,150.1233,120.3461,152.3982,121.7828,152.3982z" fill="#000000" data-original="#000000"/>
		</g>
		<g class="st26">
			<path class="st24" d="M79.7904,167.8639c1.4322,0,1.4378-2.2757,0-2.2753C78.3566,165.589,78.3537,167.8639,79.7904,167.8639z" fill="#000000" data-original="#000000"/>
		</g>
		<g class="st26">
			<path class="st24" d="M75.5721,128.8813c1.4322,0,1.4378-2.2756,0-2.2753C74.1382,126.6064,74.1354,128.8813,75.5721,128.8813z" fill="#000000" data-original="#000000"/>
		</g>
		<g class="st26">
			<path class="st24" d="M54.8627,111.7026c1.4322,0,1.4378-2.2757,0-2.2753C53.4288,109.4277,53.426,111.7026,54.8627,111.7026z" fill="#000000" data-original="#000000"/>
		</g>
		<g class="st26">
			<path class="st24" d="M40.9233,136.1098c1.4322,0,1.4378-2.2757,0-2.2753C39.4894,133.8349,39.4866,136.1098,40.9233,136.1098z" fill="#000000" data-original="#000000"/>
		</g>
		<g class="st27">
			<path class="st24" d="M41.276,92.6756c3.1621,0,3.1638-5.0136,0-5.009C38.1145,87.6712,38.1112,92.6756,41.276,92.6756z" fill="#000000" data-original="#000000"/>
		</g>
		<g class="st27">
			<path class="st24" d="M72.6222,78.1874c3.1621,0,3.1638-5.0136,0-5.009C69.4607,73.1831,69.4574,78.1874,72.6222,78.1874z" fill="#000000" data-original="#000000"/>
		</g>
		<g class="st27">
			<path class="st24" d="M124.4287,95.7685c3.1621,0,3.1638-5.0136,0-5.009C121.2672,90.7641,121.2639,95.7685,124.4287,95.7685z" fill="#000000" data-original="#000000"/>
		</g>
		<g class="st27">
			<path class="st24" d="M155.419,81.6096c3.1621,0,3.1638-5.0136,0-5.009C152.2575,76.6052,152.2542,81.6096,155.419,81.6096z" fill="#000000" data-original="#000000"/>
		</g>
		<g class="st27">
			<path class="st24" d="M140.6248,115.574c3.1621,0,3.1638-5.0136,0-5.009C137.4633,110.5696,137.46,115.574,140.6248,115.574z" fill="#000000" data-original="#000000"/>
		</g>
		<g class="st27">
			<path class="st24" d="M152.9997,140.3647c3.1621,0,3.1638-5.0136,0-5.009C149.8382,135.3603,149.8349,140.3647,152.9997,140.3647     z" fill="#000000" data-original="#000000"/>
		</g>
		<g class="st27">
			<path class="st24" d="M126.049,172.7486c3.1621,0,3.1638-5.0136,0-5.009C122.8875,167.7442,122.8842,172.7486,126.049,172.7486z" fill="#000000" data-original="#000000"/>
		</g>
		<g class="st27">
			<path class="st24" d="M70.7128,177.9991c3.1621,0,3.1638-5.0136,0-5.009C67.5513,172.9948,67.548,177.9991,70.7128,177.9991z" fill="#000000" data-original="#000000"/>
		</g>
		<g class="st27">
			<path class="st24" d="M47.0326,159.1278c3.1621,0,3.1638-5.0136,0-5.009C43.8711,154.1234,43.8678,159.1278,47.0326,159.1278z" fill="#000000" data-original="#000000"/>
		</g>
		<g class="st27">
			<path class="st24" d="M64.9016,119.9893c3.1621,0,3.1638-5.0136,0-5.009C61.7401,114.9849,61.7368,119.9893,64.9016,119.9893z" fill="#000000" data-original="#000000"/>
		</g>
	</g>
	<g>
		<path class="st28" d="M171.9276,33.0463c1.7159,6.5854,0.5783,13.2155-3.7234,18.5496    c-3.878,4.8086-9.4021,8.1427-15.1196,10.3143c-3.3914,1.2881-6.9152,2.2007-10.4961,2.7752    c4.204,0.1636,8.4067,0.3793,12.6013,0.7074c3.2662,0.2555,6.7523,0.3409,9.5605,2.2224    c6.7496,4.5223,7.3004,13.795,5.3743,20.9624c-1.1439,4.2568-3.3308,8.0493-6.9769,10.62    c1.1807,4.9731,1.783,10.1135,2.3494,15.1876c0.6846,6.1335,1.1334,12.2931,1.3816,18.4594    c0.2822,7.0083,0.308,14.027,0.0818,21.0373c-0.2256,6.9927-0.1293,14.2084-3.5807,20.5134    c-1.6941,3.0947-3.9886,5.8597-6.7263,8.086c-3.0722,2.4983-6.4677,4.0901-10.1735,5.4011    c-5.5425,1.3554-11.2412,1.8237-16.9186,2.3257c-6.878,0.6082-13.7743,1.0035-20.677,1.1815    c-13.9145,0.359-27.8566-0.1489-41.7063-1.5397c-6.3421-0.6369-12.7949-1.0907-18.5702-4.0273    c-5.2793-2.6844-9.6903-6.9646-12.37-12.2613c-2.9564-5.8439-2.9762-12.544-3.2658-18.9439    c-0.2971-6.5638-0.3332-13.1397-0.0916-19.7058c0.4014-10.9115,1.4246-21.9279,3.6871-32.6242    c0.1957-0.9252,0.4023-1.8492,0.6471-2.7628c-6.7141-4.4362-9.2942-13.54-8.2629-21.2486    c0.4862-3.634,2.1332-7.2397,4.9147-9.6846c2.5995-2.285,5.6315-2.7447,8.9533-3.0445c4.8445-0.4372,9.7088-0.6776,14.5685-0.8642    c-9.2901-1.4964-19.0541-5.3115-25.2575-12.6788c-3.2712-3.885-5.0565-8.6097-4.8565-13.7111    c0.1946-4.9627,2.0012-9.7274,4.6503-13.887c5.1102-8.024,13.7114-14.2306,23.5295-13.8873    c9.5025,0.3323,18.2975,5.9364,24.5192,12.8166c6.8666,7.5933,11.609,17.7103,12.5546,27.9489    c4.4332-2.3947,10.5392-2.4087,14.9368,0.0784c1.1096-12.2953,7.619-24.4299,17.0389-32.3474    c4.7631-4.0034,10.4525-7.0421,16.6192-8.1288c6.657-1.1731,13.1401,0.5839,18.58,4.5127    C165.5057,19.59,170.1472,26.0845,171.9276,33.0463z M167.9312,41.7119c0.9519-6.0085-1.6835-12.1359-5.2418-16.8441    c-3.7491-4.9605-9.324-9.1855-15.6767-9.8001c-6.1555-0.5955-12.3483,1.7679-17.416,5.1095    c-5.225,3.4454-9.5909,8.1078-13.0167,13.3247c-3.7571,5.7214-6.0486,12.012-8.1233,18.4856    c0.9132,0.6402,1.7289,1.4049,2.3917,2.304c3.5101-0.8564,6.8686-2.2072,10.1985-3.5909    c0.3774-6.8084,4.5761-13.3733,9.1039-18.1906c4.1997-4.4681,12.6227-11.1586,18.5773-5.9875    c4.9869,5.8151-4.1259,13.2125-8.2135,16.487c-5.5291,4.4292-11.8966,7.8064-18.6235,10.0144    c-3.3326,1.0938-6.8231,2.1933-10.3541,2.3353c0.6075,1.0939,0.9832,2.3109,1.0742,3.5604    c4.182-0.2177,8.3294-0.3945,12.4507-1.2184c4.292-0.8581,8.3924-2.2677,12.4092-3.9876c0.882-0.3777,1.9988-1.1025,2.9717-1.1947    c1.0398-0.0986-0.2504,0.9672-0.5518,1.2252c-3.278,2.8065-7.6128,4.5777-11.7435,5.6582    c-4.9538,1.2958-10.4899,1.77-15.5244,0.6075c-0.0226,0.4188-0.0758,0.823-0.1542,1.2085    c3.4013,0.3318,6.777,0.8352,10.1898,1.0618c4.2671,0.2833,8.5542,0.2509,12.8102-0.1841    c8.6433-0.8833,17.5934-3.3799,24.581-8.735C163.754,50.5222,167.3048,46.5132,167.9312,41.7119z M166.8849,85.1436    c0.414-2.9418,0.4269-6.0873-0.622-8.9027c-0.905-2.4292-2.6987-5.0195-5.2982-5.8294c-0.1635-0.0319-0.3231-0.0705-0.4826-0.1183    c-5.6374-0.8456-11.4229-0.9201-17.113-1.0953c-6.655-0.2049-13.314-0.313-19.9715-0.3911    c-3.8745-0.0454-7.7492-0.0763-11.6239-0.097c1.0232,4.0048,1.5611,8.1566,2.1007,12.2476    c0.7401,5.6112,1.2937,11.2464,1.7229,16.8894c7.0927,1.7054,14.1948,3.0123,21.5153,3.0725    c4.3097,0.0355,8.7089-0.1368,12.9834-0.7019c3.9326-0.5199,7.94-1.541,11.1374-3.9963    C164.7123,93.5497,166.3058,89.3816,166.8849,85.1436z M163.7473,139.2006c0.097-6.4693,0.004-12.3204-0.1675-17.4562    c-0.946-0.1505-2.5069-0.7413-3.3908-0.285c-1.0129,0.5229-1.8378,1.5318-2.7774,2.1826    c-0.9017,0.6245-2.0536,0.6825-2.9123-0.0742c-0.5914-0.5211-0.7134-1.2134-0.8296-1.9427    c-0.1551-0.9732-0.0742-2.7386-0.828-3.4481c-0.8318-0.7831-2.0054-1.2472-2.9131-1.9447    c-0.9375-0.7203-1.3226-1.9553-0.7048-3.026c0.3663-0.6348,0.9876-0.9101,1.6069-1.2246c0.8756-0.4446,2.521-0.8878,2.9174-1.852    c0.4655-1.1325,0.5336-2.4269,1.0169-3.5543c0.5301-1.2365,2.0406-1.782,3.2266-1.1046c0.5824,0.3326,1.0582,0.9465,1.5245,1.4147    c0.4552,0.4571,0.918,1.0965,1.4533,1.4594c0.5563,0.3772,1.3222,0.2015,1.9684,0.1776c-0.2486-3.9871-0.448-6.9758-0.5172-8.8344    c-5.713,3.6436-12.7772,3.8918-19.3455,3.9328c-6.2968,0.0393-12.5312-0.5009-18.6558-2.0091    c-2.9769-0.7331-5.9409-1.6291-8.7542-2.8582c0.0386,0.5278,0.0758,1.0596,0.113,1.5967c1.197,0.1005,2.0836,1.3351,2.8725,2.124    c0.6003,0.6003,1.0235,1.2547,1.9134,1.258c1.0618,0.0038,2.1255-0.1366,3.1871-0.1213c1.7977,0.026,2.8766,1.6755,2.1484,3.3288    c-0.412,0.9353-0.9695,1.8073-1.4013,2.7338c-0.4047,0.8681-0.0758,1.4245,0.2434,2.294    c0.3446,0.9387,1.0326,2.1705,0.8566,3.2012c-0.2987,1.749-1.9094,1.967-3.3385,1.739c-0.9029-0.144-2.4903-0.7389-3.345-0.2835    c-0.8217,0.4378-1.5704,1.2352-2.3043,1.8124c0.3504,15.199-0.1197,30.4334-1.5416,45.5717    c-0.3412,3.6331-0.7415,7.261-1.2224,10.8784c1.5176,0.3845,2.3211,2.2323,3.5304,3.0862    c0.5062,0.3574,1.0961,0.229,1.6923,0.2065c0.7747-0.0293,1.5553-0.0921,2.3305-0.0881c1.0773,0.0056,2.0437,0.5112,2.3822,1.5963    c0.2779,0.8908-0.1073,1.61-0.4941,2.3721c-0.3729,0.7346-0.7839,1.4612-1.1227,2.2119c-0.3209,0.7111-0.09,1.1428,0.1728,1.8544    c7.6214-0.4766,15.4225-0.8412,22.8898-2.5061c3.5916-1.2568,6.8654-2.7924,9.7425-5.3459    c-1.1359-0.5761-1.2194-1.7483-1.395-2.8533c-0.1077-0.6782-0.0477-2.203-0.57-2.7318c-1.3029,1.6618-2.9783,3.0328-4.8887,3.9385    c-0.377,0.1787-3.99,1.5937-4.1168,0.8362c-0.0594-0.3547,2.3668-1.3943,2.6174-1.5468c1.8489-1.1254,3.4866-2.5751,4.7157-4.3646    c-0.9208-0.6148-2.1224-1.1727-2.3656-2.3613c-0.2976-1.4541,0.7329-2.2523,1.8638-2.8265    c0.7891-0.4007,1.7934-0.7301,2.4964-1.2675c0.6585-0.5034,0.7486-1.7467,0.9636-2.5093    c0.7214-5.7727,0.6656-11.5955,1.1435-17.3851c0.0625-0.7572,0.0204-1.7948,0.3375-2.5044    c0.1908-0.427,0.2376-0.4181,0.4397-0.0076c0.362,0.7351,0.3538,1.8431,0.4407,2.6396c0.1507,1.3819,0.247,2.7694,0.3174,4.1575    c0.1702,3.3557,0.1802,6.7207-0.0464,10.0741c1.298,0.0301,2.2407,1.3635,3.0787,2.2051    c0.3039,0.3051,0.6111,0.7273,0.9675,0.9716c0.476,0.3262,1.0547,0.2008,1.6068,0.179    C163.2222,155.0248,163.6377,147.1194,163.7473,139.2006z M161.0139,119.7887l2.5114,0.4002    c-0.1423-3.8209-0.3244-7.2165-0.4959-10.14c-1.3115,0.0486-2.3416,0.1462-3.3584-0.8412    c-0.7347-0.7134-1.4306-1.7088-2.2763-2.2847c-1.2523-0.8529-1.479,1.1491-1.6999,1.9333    c-0.3426,1.2162-0.495,2.5283-1.6801,3.2226c-0.9256,0.5423-1.9381,0.9382-2.8758,1.4596    c-1.2271,0.6823-0.4131,1.3889,0.4085,1.9371c0.8867,0.5917,2.2371,1.197,2.8305,2.1228    c0.5944,0.9273,0.5819,2.4096,0.7502,3.4654c0.0706,0.4432,0.0588,1.1745,0.4932,1.4371c0.543,0.3283,1.0289-0.2046,1.4229-0.5142    C158.1036,121.1541,159.5362,119.5451,161.0139,119.7887z M162.3992,164.4529c-0.6841,0.0272-1.361,0.0935-1.9903-0.2477    c-0.4271-0.2316-0.7562-0.6226-1.0947-0.9626c-0.5086-0.5107-1.6814-2.2217-2.5122-2.1507    c-0.3163,3.5787-0.9961,7.2411-2.9156,10.3394c0.9496,0.7556,0.9472,2.1703,1.1223,3.2726    c0.0888,0.5592,0.2122,3.0846,1.4369,2.1357C159.708,173.3781,161.677,169.1324,162.3992,164.4529z M153.493,166.7263    c-0.8473,0.4301-1.8549,0.7806-2.6258,1.3327c-1.2201,0.8739,0.5983,1.7436,1.2591,2.1851    C152.7241,169.1349,153.1575,167.9386,153.493,166.7263z M146.6102,30.6107c0.0917-0.5119,0.0492-0.8894-0.0891-1.2005    c-0.0479-0.1622-0.1968-0.3058-0.3084-0.4706c-0.1835-0.129-0.3443-0.339-0.5411-0.4308    c-2.328-1.4685-6.0286,0.6257-8.0238,1.8398c-2.602,1.5834-4.8818,3.6336-6.9648,5.8432    c-3.9013,4.1384-6.5238,8.8815-8.6737,14.1006c4.8912-2.1132,9.5819-4.7372,13.8505-7.9331    c2.1755-1.6288,4.2316-3.4091,6.1742-5.3089C143.7905,35.3327,146.1014,33.1219,146.6102,30.6107z M124.554,106.2133    c0.6222-1.2206-1.1926-1.0576-1.7894-1.0349c-0.8141,0.031-1.6424,0.113-2.457,0.0936c-1.1581-0.0276-1.7827-0.7616-2.5348-1.5138    c-0.531-0.531-1.1864-1.5028-1.8884-1.8219c0.2991,4.5814,0.5345,9.4739,0.6767,14.5938    c0.5404-0.4245,1.0746-0.9459,1.6726-1.2885c0.785-0.4497,1.5814-0.2716,2.4115-0.1392c0.864,0.1379,3.7918,1.1155,3.3783-0.6578    c-0.327-1.4023-1.588-2.9918-1.2919-4.4836C122.9871,108.6745,123.9617,107.3702,124.554,106.2133z M122.2673,180.6925    c0.648-1.2425-1.2796-1.0559-1.8825-1.0331c-0.823,0.0312-1.6841,0.14-2.5076,0.0843c-1.1102-0.0751-1.7212-0.8305-2.447-1.5593    c-0.5301-0.5323-1.1176-1.3993-1.794-1.7516c-0.6368,4.5734-1.267,8.062-1.7882,10.1905c2.994-0.0984,5.9614-0.2327,8.8956-0.4028    c-0.4279-1.1553-0.2786-1.9758,0.258-3.0336C121.4236,182.3555,121.8455,181.524,122.2673,180.6925z M119.5139,64.1191    c-2.4575-0.5063-4.9385-1.1092-7.2736-2.0421c-0.2433,0.7512-0.5677,1.4-0.9333,1.9543    C114.0644,64.0526,116.8004,64.0818,119.5139,64.1191z M111.9478,127.8162c0.0545-28.3314-1.6818-52.1359-1.4225-59.113    c-7.0737-0.035-14.1476-0.0348-21.2213,0c0.2017,5.0165-0.1538,10.0808-0.3401,15.0925    c-0.3228,8.6826-0.6339,17.3655-0.8115,26.0526c-0.4,19.5673-0.0349,39.1222,0.6891,58.6771    c0.2228,6.0186,0.6616,12.0903,0.4718,18.1153c7.0655,0.2195,14.1368,0.2269,21.2027,0.0226    C110.3086,179.3631,111.9997,155.7979,111.9478,127.8162z M109.0881,61.1277c0.6601-10.4346-22.8202-8.9058-17.5958,2.885    c1.7376-0.0093,3.4819-0.016,5.2342-0.0213c0-0.9394-0.0967-1.8597-0.2468-2.7862c-0.0941-0.581-0.5245-1.9796,0.4515-1.9062    c0.7637,0.0574,1.3899,1.0716,1.6722,1.6875c0.4267,0.9309,0.5452,1.9986,0.3327,3.0009c0.9439,0,1.8879-0.0007,2.8318,0.0013    c-0.3694-1.1572-0.3992-2.4314-0.0687-3.6016c0.1604-0.5678,0.7667-2.2481,1.5859-2.1196c0.6825,0.107,0.5199,1.4894,0.518,1.9433    c-0.0052,1.2669,0.0197,2.5201,0.1292,3.7832c1.4452,0.004,2.885,0.0106,4.3195,0.0186    C108.6627,63.2323,109.0229,62.2605,109.0881,61.1277z M91.5136,51.8958c-1.5462-4.8448-3.1711-9.5904-5.561-14.0987    c-2.4692-4.6578-5.6145-8.9873-9.4039-12.6611c-7.0638-6.8483-18.3443-12.9869-28.2953-8.918    c-5.0086,2.048-9.1054,5.7734-12.0773,10.2513c-2.767,4.1691-4.7053,9.248-4.2237,14.3235    c0.4973,5.2408,3.9519,9.4594,7.9971,12.5681c4.2737,3.2843,9.3658,5.4674,14.5382,6.89    c5.943,1.6345,12.1467,2.2813,18.3007,2.2102c4.9254-0.0569,9.7557-0.7395,14.645-1.2336    c-0.101-0.4228-0.1662-0.8761-0.1914-1.3494c-4.431,1.0144-9.2587,0.7394-13.6743-0.1891    c-4.398-0.9247-8.7668-2.6028-12.4424-5.2248c-0.2588-0.1846-2.536-1.7984-1.9706-2.123    c0.4248-0.2439,1.9655,0.6693,2.3367,0.8285c3.7357,1.6018,7.508,3.0781,11.4808,3.9885    c4.7283,1.0835,9.4621,1.3713,14.2857,1.6191c0.0955-1.2009,0.4471-2.3709,1.0277-3.4261    c-3.0347-0.1517-6.0224-1.0199-8.9062-1.9204c-3.2526-1.0157-6.423-2.256-9.473-3.7789    c-6.4219-3.2065-12.8853-7.6661-17.3696-13.349c-2.2459-2.8462-3.9532-6.6462-1.2654-9.7803    c5.9539-5.1705,14.379,1.5185,18.5777,5.9875c4.5193,4.8102,8.7409,11.3873,9.1036,18.1906    c3.2784,1.3624,6.587,2.699,10.0403,3.5524C89.6875,53.3243,90.5527,52.5414,91.5136,51.8958z M88.6286,64.0313    c-0.3576-0.5438-0.6834-1.1846-0.9386-1.9264c-2.314,0.9125-4.7645,1.5129-7.1965,2.0115    C83.183,64.0805,85.8952,64.0526,88.6286,64.0313z M87.9811,186.5968c-0.5025-2.0846-1.1061-5.4695-1.7177-9.8994    c-0.7886,0.7917-1.5411,1.6599-2.3838,2.3931c-1.1872,1.0329-3.1259,0.6034-4.5776,0.549    c-0.5775-0.0217-1.4466-0.1025-1.4436,0.7356c0.0019,0.5202,0.5343,1.2,0.7562,1.6372c0.7392,1.4564,1.48,2.5199,0.8617,4.187    C82.2843,186.3641,85.1201,186.4971,87.9811,186.5968z M85.5694,84.3778c0.8642-7.4039,1.7828-12.8787,2.4861-15.668    c-13.3129,0.0712-26.6575,0.1228-39.9545,0.8331c-2.9096,0.1554-5.8175,0.3186-8.7008,0.7503    c-0.1595,0.0479-0.3191,0.0864-0.4826,0.1183c-5.1142,1.5933-6.3931,8.156-6.1188,12.74    c0.2918,4.8767,1.8391,9.9908,5.8501,13.0697c4.1478,3.1839,9.5923,3.9834,14.6658,4.3464    c5.3988,0.3862,10.8201,0.5198,16.2135-0.0085c5.0079-0.4905,9.8867-1.5601,14.7741-2.7163    C84.672,92.8812,85.1081,88.349,85.5694,84.3778z M86.0361,175.0037c-1.8648-14.1912-2.6627-28.5478-2.8076-42.8541    c-0.0471-4.6463-0.0192-9.2936,0.0875-13.9389c-0.6381-0.5014-1.2978-1.2084-2.0148-1.583    c-0.8001-0.418-2.1579,0.0904-3.0025,0.2249c-1.2491,0.199-2.5737,0.4103-3.3716-0.8664    c-0.7022-1.1236-0.0948-2.2792,0.3076-3.3744c0.281-0.7646,0.9172-1.8062,0.6436-2.6179    c-0.3252-0.9646-0.9838-1.8846-1.434-2.7987c-0.6447-1.3087-0.392-2.9886,1.1785-3.4855c0.9134-0.289,2.118-0.0501,3.0522-0.0144    c0.395,0.0151,0.8961,0.116,1.2894,0.0492c0.5387-0.0915,0.8303-0.5021,1.2012-0.8732c0.7986-0.799,1.7965-2.2057,2.9561-2.4718    c0.0372-0.5557,0.0758-1.1075,0.1157-1.6539c-5.0096,2.1336-10.3853,3.4649-15.7713,4.2099    c-6.4749,0.8957-13.3192,1.0322-19.8189,0.2924c-3.7345-0.4251-7.4758-1.3287-10.7252-3.2779    c-0.1103,1.7868-0.3762,4.6758-0.7006,8.546c0.8922,0.0359,1.6076,0.2077,2.284-0.4342c0.7351-0.6977,1.4009-1.4723,2.149-2.1559    c1.1073-1.0117,2.8907-1.0213,3.6809,0.4135c0.4162,0.7557,0.5499,1.7355,0.7817,2.5595c0.5859-1.5059,0.5666,1.3772,0.561,1.6605    c0.3833,0.4007,1.1367,0.6259,1.614,0.8681c0.5791,0.2939,1.1863,0.5599,1.7476,0.887c0.9732,0.5671,1.5115,1.6508,1.1322,2.7656    c-0.26,0.764-0.8824,1.1493-1.5094,1.5677c-0.8578,0.5724-2.4415,1.1946-2.6877,2.2694    c-0.3037,1.3257-0.1094,3.3714-1.0597,4.4478c-0.3676,8.019,0.1592,15.8689,2.1988,23.6465    c0.0813,0.3099,0.8867,2.4232,0.5612,2.7094c-0.3298,0.2899-1.1207-1.2784-1.233-1.4833    c-1.6526-3.0142-2.5968-6.4429-3.1999-9.8097c-0.8493-4.7414-0.9585-9.5725-0.6311-14.3702    c-1.3948-0.3893-2.3168-1.8909-3.5512-2.5714c-0.9441-0.5205-2.684,0.1401-3.7104,0.3033    c-0.6311,13.7232-0.2571,27.4523,1.0942,41.1224c0.9498,0.0349,1.527,0.1,2.2166-0.5922c0.6859-0.6884,1.3436-1.433,2.0703-2.078    c1.3209-1.1723,3.2353-0.6987,3.8069,0.9822c0.3149,0.9261,0.534,1.8961,0.7992,2.8376c0.2407,0.8546,0.594,1.0576,1.368,1.4505    c0.8434,0.4281,1.7988,0.7887,2.5797,1.3274c1.4367,0.9911,1.2092,2.8882-0.1008,3.8434    c-0.8388,0.6116-1.7462,1.1292-2.5922,1.7309c-0.7668,0.5452-0.7069,1.4554-0.8471,2.3382    c-0.2055,1.2938-0.1965,2.9214-1.5763,3.5583c4.1009,3.5997,9.1986,5.5512,14.5764,6.1774    c6.0302,0.7022,12.081,1.2331,18.1397,1.616c0.2305-0.6244,0.4963-1.0825,0.2179-1.7244    c-0.3204-0.7388-0.7363-1.4509-1.1007-2.1688c-0.3612-0.7118-0.7856-1.4009-0.6389-2.2402    c0.2128-1.2174,1.2525-1.8713,2.4147-1.88c0.7537-0.0057,1.5152,0.0573,2.2681,0.0858c0.6151,0.0233,1.2609,0.1663,1.7865-0.1989    C83.991,177.1713,84.6971,175.5633,86.0361,175.0037z M84.0046,102.1943c-1.1742,1.1742-2.437,3.0465-4.2272,3.0718    c-0.9353,0.0132-4.8473-0.8092-4.0421,1.0966c0.7184,1.7005,2.2156,3.1992,1.538,5.1305    c-0.3499,0.9973-2.2089,4.2454,0.0124,3.9734c1.0286-0.1259,2.0437-0.3809,3.0741-0.49c1.2999-0.1377,2.0566,0.5833,3.0054,1.3289    C83.5021,111.3638,83.7241,106.6334,84.0046,102.1943z M77.9914,50.2924c-2.1631-5.2169-4.7693-9.9586-8.6749-14.1006    c-2.0815-2.2075-4.3608-4.2653-6.9639-5.8432c-1.9975-1.2108-5.6949-3.3095-8.0248-1.8398    c-0.1954,0.0917-0.3576,0.3018-0.5411,0.4308c-0.1117,0.1649-0.2606,0.3084-0.3084,0.4706    c-0.5359,1.2057,0.4504,2.7506,1.0941,3.7178c0.764,1.148,1.6832,2.1871,2.6437,3.1732c1.9729,2.0254,4.1096,3.9022,6.3514,5.6239    C67.9869,45.319,72.8808,48.0844,77.9914,50.2924z M49.4366,114.9613c1.4629-0.9958-2.2613-2.3861-2.8225-2.6709    c-0.0795,1.5931-0.1975,3.1846-0.3111,4.7755C47.2716,116.2818,48.4002,115.6529,49.4366,114.9613z M49.4366,169.3427    c1.4948-0.9923-2.4388-2.4651-2.9632-2.7411c-1.531-0.8057-1.6812-2.3862-2.1119-3.9165    c-0.1507-0.5353-0.2392-1.5324-0.9465-1.5922c-0.5842-0.0493-1.1367,0.7634-1.5024,1.1307    c-0.5238,0.5261-1.0258,1.1051-1.5862,1.593c-0.8175,0.7116-1.6848,0.6694-2.6983,0.631    c0.7418,4.5185,2.5507,8.6004,5.6516,12.0093c0.8886,0.7,1.5298,0.6063,1.7298-0.5285c0.175-0.9927,0.2712-2.0047,0.4751-2.9917    C45.8476,171.1801,48.0625,170.2603,49.4366,169.3427z M44.8286,114.3963c0.2047-1.1274,0.4055-2.1205,0.5929-2.9608    c-0.6686-0.8532-0.8239-2.2934-1.1088-3.3063c-0.2414-0.858-0.5646-1.9313-1.6114-1.0898    c-0.8379,0.6736-1.5072,1.5794-2.2991,2.3077c-0.9902,0.9106-2.069,0.7436-3.3045,0.6937    c-0.2313,2.9235-0.476,6.335-0.6727,10.1892c1.3625-0.2166,3.1549-0.8445,4.4083-0.0666    c1.0288,0.6386,1.9547,1.5237,2.9065,2.2722C44.0137,119.35,44.4351,116.6112,44.8286,114.3963z" fill="#000000" data-original="#000000"/>
		<path class="st28" d="M162.2729,81.433c0.6557-0.0175,0.4822,2.0955,0.4476,2.4118c-0.1671,1.528-0.8324,2.9742-1.808,4.1546    c-1.8922,2.2892-4.8224,3.5261-7.7526,3.6755c-1.2049,0.0614-2.5195-0.0189-3.6502-0.4726    c-0.7585-0.3044-1.042-0.7032-0.0998-0.925c1.2607-0.2968,2.5735-0.3403,3.8395-0.638c1.4816-0.3484,2.9412-0.8722,4.2335-1.6878    c1.2706-0.802,2.3587-1.9024,3.1265-3.1955c0.4013-0.6759,0.6901-1.407,0.9786-2.136    C161.6836,82.3783,161.9155,81.4246,162.2729,81.433z" fill="#000000" data-original="#000000"/>
		<path class="st28" d="M154.8424,22.6617c0.3235,0.2247,3.6098,2.6235,3.0312,3.2812c-0.3157,0.3589-3.7146-1.7804-4.0918-1.956    c-4.2098-1.9601-8.9145-2.6206-13.4701-1.6093c-2.0102,0.4462-3.9321,1.1897-5.7551,2.1411    c-0.3454,0.1803-3.134,2.0323-3.3682,1.5695c-0.1558-0.3078,0.6433-1.115,0.8133-1.3084    c0.7488-0.8517,1.6517-1.5766,2.5879-2.2114c1.7164-1.1638,3.6737-1.9931,5.6843-2.488    C145.1852,18.8717,150.6729,19.7425,154.8424,22.6617z" fill="#000000" data-original="#000000"/>
		<path class="st28" d="M147.1819,77.5177c0.7305,1.1456,0.1387,2.1927-0.3933,3.2349c-0.3502,0.6859-1.1478,1.6839-1.1954,2.4784    c-0.046,0.7673,0.603,1.8188,0.8592,2.5147c0.3956,1.0747,0.8963,2.1608,0.125,3.2254c-1.3812,1.9064-3.8842,0.3042-5.7105,0.3631    c-0.8512,0.0274-1.7242,1.0537-2.3553,1.5503c-0.8466,0.6661-1.6497,1.4592-2.8306,1.2429    c-2.4799-0.4542-1.7883-3.5878-2.3729-5.3334c-0.2539-0.7583-1.2548-1.1754-1.8875-1.5989    c-0.8251-0.5523-1.9378-1.0779-2.2813-2.0773c-0.891-2.5921,2.5225-3.3108,4.101-4.2814    c0.6648-0.4088,0.7118-1.0716,0.9163-1.7955c0.2411-0.8537,0.3819-1.8879,0.8183-2.6723    c0.8616-1.5483,2.6989-1.3506,3.8146-0.2668c0.7327,0.7117,1.4164,1.6579,2.2468,2.2504c0.7022,0.501,1.9407,0.2041,2.7599,0.1725    C145.0425,76.4767,146.3956,76.2859,147.1819,77.5177z M145.9295,79.0758c0.6235-1.2232-1.1885-1.0577-1.7909-1.0344    c-0.8069,0.0311-1.6298,0.1142-2.4372,0.0939c-1.9814-0.0497-2.7551-2.1734-4.2107-3.1708    c-1.5085-1.0337-1.9041,2.8109-2.1992,3.6802c-0.6152,1.8122-2.8137,2.0495-4.2326,3.0149    c-0.8199,0.5579-0.4646,1.1177,0.1885,1.5812c0.7721,0.548,1.582,1.0434,2.3615,1.5807c1.5406,1.0619,1.3927,3.1328,1.694,4.8133    c0.1479,0.8249,0.6065,1.2707,1.4156,0.7162c0.7709-0.5284,1.4848-1.1683,2.2194-1.7463c0.7314-0.5755,1.4181-0.8795,2.378-0.7476    c0.9317,0.128,1.8597,0.2964,2.7884,0.4445c0.8737,0.1393,1.5298-0.0795,1.2538-1.1038    c-0.2645-0.9816-0.7282-1.9293-1.0637-2.8895C143.6628,82.5008,145.1283,80.6446,145.9295,79.0758z" fill="#000000" data-original="#000000"/>
		<path class="st28" d="M141.7935,138.1357c0.7321,1.1447,0.1396,2.1935-0.3924,3.2353c-0.3516,0.6886-1.1485,1.6837-1.1956,2.4788    c-0.0456,0.7678,0.6029,1.8189,0.859,2.5152c0.3772,1.0258,0.8674,2.051,0.2126,3.1017c-1.311,2.1038-3.942,0.4129-5.7902,0.4865    c-0.8356,0.0333-1.6649,1.0007-2.2878,1.4908c-0.8207,0.6458-1.6248,1.4705-2.7661,1.3288    c-2.5821-0.3206-1.954-3.5575-2.5068-5.3268c-0.232-0.7424-1.111-1.1075-1.7299-1.5218c-0.7746-0.5185-1.902-1.0504-2.3332-1.92    c-1.3154-2.6526,2.3275-3.5752,3.9412-4.5236c1.2567-0.7385,1.1225-2.9909,1.669-4.2552    c0.7136-1.6509,2.6628-1.7261,3.8503-0.5819c0.7551,0.7276,1.4403,1.6507,2.2775,2.2799    c0.6974,0.5241,1.7777,0.2604,2.6129,0.2282C139.5057,137.1018,140.973,136.8527,141.7935,138.1357z M140.5411,139.6951    c0.605-1.187-1.0904-1.0627-1.7-1.0392c-0.8371,0.0323-1.6905,0.1177-2.5281,0.0974c-1.9801-0.048-2.754-2.1728-4.2094-3.1695    c-1.5141-1.0369-1.9075,2.8159-2.2006,3.6802c-0.6064,1.7883-2.8077,2.0855-4.2313,3.0149    c-1.6308,1.0647,1.7422,2.6064,2.5045,3.1302c1.5631,1.0741,1.4279,3.0726,1.7283,4.7817    c0.1396,0.7943,0.4915,1.3238,1.3555,0.8345c0.7937-0.4495,1.5154-1.1924,2.2326-1.7568c0.726-0.5712,1.3756-0.9142,2.3481-0.805    c0.9376,0.1053,1.8733,0.2979,2.8051,0.4461c0.8477,0.1348,1.6479,0.0024,1.3251-1.0927c-0.2889-0.98-0.7263-1.9247-1.0637-2.8895    C138.2752,143.1199,139.7396,141.2652,140.5411,139.6951z" fill="#000000" data-original="#000000"/>
		<path class="st28" d="M76.5781,142.858c0.082,1.357-0.9457,1.9842-1.9184,2.6352c-0.6421,0.4298-1.823,0.9108-2.2514,1.5817    c-0.4137,0.6479-0.3589,1.8822-0.4743,2.6146c-0.1574,1-0.2102,2.0547-1.13,2.692c-2.1413,1.4835-3.8342-1.3615-5.4686-2.2575    c-0.7054-0.3867-1.8019,0.0194-2.5526,0.139c-0.9603,0.153-2.0759,0.5007-2.9882,0.0117    c-2.5349-1.3587-0.2493-4.1902,0.1381-6.0412c0.1594-0.7617-0.4299-1.5081-0.7687-2.1718    c-0.4238-0.8301-1.1493-1.8443-1.1023-2.8137c0.1492-3.0765,3.8583-1.8752,5.7437-2.0269    c0.7932-0.0638,1.2247-0.7164,1.768-1.2606c0.6355-0.6365,1.3443-1.6048,2.1982-1.9616c3.2639-1.3637,3.163,3.1944,4.019,4.8887    c0.3805,0.7531,1.5997,1.0918,2.3153,1.4556C75.2175,140.9083,76.4922,141.3989,76.5781,142.858z M74.7262,143.6105    c1.0099-0.6803-0.2726-1.3757-0.8229-1.6555c-0.7878-0.4005-1.608-0.7662-2.3741-1.207    c-1.6312-0.9386-1.5138-3.1596-2.1396-4.7353c-0.7202-1.8135-2.9643,1.2869-3.6332,1.9283    c-1.4148,1.3566-3.4296,0.5948-5.1857,0.6839c-0.9449,0.048-1.0929,0.6317-0.7245,1.4127c0.4051,0.8588,0.877,1.687,1.297,2.5386    c0.8671,1.7582-0.3214,3.44-0.8629,5.1378c-0.6729,2.1101,2.7225,0.9558,3.7697,0.7997c1.9957-0.2975,3.1591,1.2129,4.6453,2.3095    c0.7549,0.557,1.3979,0.5102,1.5924-0.506c0.1923-1.0044,0.282-2.0286,0.4773-3.0324    C71.1185,145.4677,73.307,144.5598,74.7262,143.6105z" fill="#000000" data-original="#000000"/>
		<path class="st28" d="M70.7084,82.24c0.082,1.3568-0.946,1.983-1.9184,2.6339c-0.642,0.4297-1.716,0.875-2.1917,1.5004    c-0.4626,0.6083-0.4072,1.8837-0.5207,2.6045c-0.1545,0.9814-0.1911,2.0354-1.0405,2.7039    c-2.1314,1.6777-3.9083-1.2672-5.5551-2.1653c-0.7026-0.3832-1.7178-0.0086-2.4725,0.1114    c-0.9796,0.1558-2.1557,0.5263-3.0852,0.0278c-2.5345-1.3591-0.2482-4.1925,0.1388-6.0424    c0.1636-0.7823-0.4666-1.5801-0.8135-2.2597c-0.4137-0.8103-1.1032-1.7785-1.0581-2.7246    c0.1416-2.9696,3.8227-1.9887,5.6999-2.0298c0.8145-0.0178,1.266-0.7115,1.8118-1.2581c0.6179-0.6189,1.2705-1.4967,2.0672-1.8967    c1.5506-0.7785,2.8709,0.3501,3.2914,1.7848c0.2831,0.9659,0.4258,2.1083,0.8536,3.0182c0.3609,0.7677,1.607,1.1125,2.3209,1.4755    C69.3482,80.2892,70.6224,80.7806,70.7084,82.24z M68.8565,82.9912c1.0515-0.704-0.3536-1.4169-0.8988-1.6941    c-0.7627-0.3877-1.5563-0.742-2.2982-1.1684c-1.6604-0.9542-1.4813-3.1827-2.1486-4.7671c-0.74-1.757-2.9395,1.2944-3.5856,1.9214    c-1.4403,1.3978-3.4246,0.6341-5.2244,0.7241c-2.0633,0.1032,0.1242,3.0406,0.5725,3.95    c0.8636,1.7518-0.3135,3.4468-0.8641,5.1377c-0.676,2.0761,2.5912,0.9876,3.6282,0.8224    c0.9452-0.1506,1.7095-0.1091,2.5119,0.4958c0.732,0.5518,1.4423,1.1349,2.1626,1.7017c0.7576,0.5961,1.4875,0.6963,1.7059-0.4166    c0.1968-1.0031,0.2821-2.0279,0.4773-3.0313C65.2499,84.8438,67.4349,83.9427,68.8565,82.9912z" fill="#000000" data-original="#000000"/>
		<path class="st28" d="M65.7082,22.7069c0.319,0.2298,3.5633,2.6868,2.9714,3.333c-0.3234,0.3531-3.6823-1.8454-4.0565-2.0283    c-4.1606-2.0327-8.8815-2.7851-13.4403-1.8539c-2.016,0.4118-3.9529,1.1236-5.791,2.0422    c-0.3485,0.1742-3.1696,1.9768-3.3955,1.5101c-0.1503-0.3105,0.6632-1.1038,0.8366-1.2941    c0.7635-0.8381,1.6787-1.5471,2.6264-2.1641c1.7384-1.1318,3.7077-1.9316,5.7277-2.3919    C56.1037,18.7394,61.6068,19.716,65.7082,22.7069z" fill="#000000" data-original="#000000"/>
		<path class="st28" d="M49.188,71.9963c0.3913,0.0563,2.7913,0.3615,2.8041,1.0474c0.0112,0.5978-2.4982,0.5736-2.8387,0.6092    c-2.9175,0.3043-5.9902,1.0209-8.2299,3.0344c-0.9643,0.8669-1.673,1.9099-2.1514,3.1112    c-0.1478,0.371-0.5594,2.4613-1.1517,2.1164c-0.7286-0.4243-0.3636-2.6235-0.2408-3.2032    c0.3099-1.4624,1.1183-2.7896,2.1814-3.8278C42.0458,72.4573,45.8004,71.5319,49.188,71.9963z" fill="#000000" data-original="#000000"/>
	</g>
</g>
</g></svg>