<svg xmlns="http://www.w3.org/2000/svg" version="1.1" xmlns:xlink="http://www.w3.org/1999/xlink" xmlns:svgjs="http://svgjs.com/svgjs" width="512" height="512" x="0" y="0" viewBox="0 0 200 200" style="enable-background:new 0 0 512 512" xml:space="preserve"><g>
<style xmlns="http://www.w3.org/2000/svg" type="text/css">
	.st0{fill:url(#SVGID_1_);}
	.st1{fill:url(#SVGID_2_);}
	.st2{fill:url(#SVGID_3_);}
	.st3{fill:url(#SVGID_4_);}
	.st4{fill:url(#SVGID_5_);}
	.st5{fill:url(#SVGID_6_);}
	.st6{fill:url(#SVGID_7_);}
	.st7{fill:url(#SVGID_8_);}
	.st8{fill:url(#SVGID_9_);}
	.st9{fill:url(#SVGID_10_);}
	.st10{opacity:0.3;fill:#FFFFFF;}
	.st11{opacity:0.2;}
	.st12{fill:#FFFFFF;}
	.st13{opacity:0.6;}
	.st14{opacity:0.8;}
	.st15{opacity:0.3;}
	.st16{fill:#BA0000;}
	.st17{fill:url(#SVGID_12_);}
	.st18{fill:url(#SVGID_13_);}
	.st19{fill:url(#SVGID_14_);}
	.st20{fill:url(#SVGID_15_);}
	.st21{fill:url(#SVGID_16_);}
	.st22{fill:url(#SVGID_17_);}
	.st23{fill:url(#SVGID_18_);}
	.st24{fill:url(#SVGID_19_);}
	.st25{fill:url(#SVGID_20_);}
	.st26{fill:url(#SVGID_21_);}
	.st27{fill:url(#SVGID_22_);}
	.st28{fill:url(#SVGID_23_);}
	.st29{fill:url(#SVGID_24_);}
	.st30{fill:url(#SVGID_25_);}
	.st31{fill:url(#SVGID_26_);}
	.st32{fill:url(#SVGID_27_);}
	.st33{fill:url(#SVGID_28_);}
	.st34{fill:url(#SVGID_29_);}
	.st35{fill:url(#SVGID_30_);}
	.st36{fill:url(#SVGID_31_);}
	.st37{fill:url(#SVGID_32_);}
	.st38{fill:url(#SVGID_33_);}
	.st39{fill:url(#SVGID_34_);}
	.st40{fill:url(#SVGID_35_);}
	.st41{fill:url(#SVGID_36_);}
	.st42{fill:url(#SVGID_37_);}
	.st43{fill:url(#SVGID_38_);}
	.st44{fill:url(#SVGID_39_);}
	.st45{fill:url(#SVGID_40_);}
	.st46{fill:url(#SVGID_41_);}
	.st47{fill:url(#SVGID_42_);}
	.st48{fill:url(#SVGID_43_);}
	.st49{fill:url(#SVGID_44_);}
	.st50{fill:url(#SVGID_45_);}
	.st51{fill:url(#SVGID_46_);}
	.st52{opacity:0.3;fill:#FCF8D5;}
	.st53{opacity:0.3;fill:#FFE1E1;}
	.st54{fill:url(#SVGID_47_);}
	.st55{fill:url(#SVGID_48_);}
	.st56{fill:url(#SVGID_49_);}
	.st57{fill:url(#SVGID_50_);}
	.st58{fill:url(#SVGID_51_);}
	.st59{fill:url(#SVGID_52_);}
	.st60{fill:url(#SVGID_53_);}
	.st61{fill:url(#SVGID_54_);}
	.st62{fill:url(#SVGID_55_);}
	.st63{fill:url(#SVGID_56_);}
	.st64{fill:url(#SVGID_57_);}
	.st65{fill:url(#SVGID_58_);}
	.st66{fill:url(#SVGID_59_);}
	.st67{fill:url(#SVGID_60_);}
	.st68{fill:url(#SVGID_61_);}
	.st69{fill:url(#SVGID_62_);}
	.st70{fill:url(#SVGID_63_);}
	.st71{fill:url(#SVGID_64_);}
	.st72{fill:url(#SVGID_65_);}
	.st73{fill:url(#SVGID_66_);}
	.st74{fill:url(#SVGID_67_);}
	.st75{fill:url(#SVGID_68_);}
	.st76{fill:url(#SVGID_69_);}
	.st77{fill:url(#SVGID_70_);}
	.st78{fill:url(#SVGID_71_);}
	.st79{fill:url(#SVGID_72_);}
	.st80{opacity:0.3;fill:#E3FFE6;}
	.st81{fill:url(#SVGID_73_);}
	.st82{fill:url(#SVGID_74_);}
	.st83{fill:url(#SVGID_75_);}
	.st84{opacity:0.3;fill:#FFDEEB;}
	.st85{fill:url(#SVGID_76_);}
	.st86{fill:url(#SVGID_77_);}
	.st87{fill:url(#SVGID_78_);}
	.st88{fill:url(#SVGID_79_);}
	.st89{fill:url(#SVGID_80_);}
	.st90{fill:url(#SVGID_81_);}
	.st91{fill:url(#SVGID_82_);}
	.st92{fill:url(#SVGID_83_);}
	.st93{fill:url(#SVGID_84_);}
	.st94{fill:url(#SVGID_85_);}
	.st95{fill:url(#SVGID_86_);}
	.st96{fill:url(#SVGID_87_);}
	.st97{fill:url(#SVGID_88_);}
	.st98{fill:url(#SVGID_89_);}
	.st99{fill:url(#SVGID_90_);}
	.st100{fill:url(#SVGID_91_);}
	.st101{fill:url(#SVGID_92_);}
	.st102{fill:url(#SVGID_93_);}
	.st103{fill:url(#SVGID_94_);}
	.st104{fill:url(#SVGID_95_);}
	.st105{fill:url(#SVGID_96_);}
	.st106{fill:url(#SVGID_97_);}
	.st107{fill:url(#SVGID_98_);}
	.st108{fill:url(#SVGID_99_);}
	.st109{fill:url(#SVGID_100_);}
	.st110{fill:url(#SVGID_101_);}
	.st111{fill:url(#SVGID_102_);}
	.st112{fill:url(#SVGID_103_);}
	.st113{fill:url(#SVGID_104_);}
	.st114{fill:url(#SVGID_105_);}
	.st115{fill:url(#SVGID_106_);}
	.st116{fill:url(#SVGID_107_);}
	.st117{fill:url(#SVGID_108_);}
	.st118{fill:url(#SVGID_109_);}
	.st119{fill:url(#SVGID_110_);}
	.st120{fill:url(#SVGID_111_);}
	.st121{fill:url(#SVGID_112_);}
	.st122{fill:url(#SVGID_113_);}
	.st123{fill:url(#SVGID_114_);}
	.st124{fill:url(#SVGID_115_);}
	.st125{fill:url(#SVGID_116_);}
	.st126{fill:url(#SVGID_117_);}
	.st127{fill:url(#SVGID_118_);}
	.st128{fill:url(#SVGID_119_);}
	.st129{fill:url(#SVGID_120_);}
	.st130{fill:url(#SVGID_121_);}
	.st131{fill:url(#SVGID_122_);}
	.st132{fill:url(#SVGID_123_);}
	.st133{fill:url(#SVGID_124_);}
	.st134{fill:url(#SVGID_125_);}
	.st135{fill:url(#SVGID_126_);}
	.st136{fill:url(#SVGID_127_);}
	.st137{opacity:0.5;}
	.st138{fill:url(#SVGID_128_);}
	.st139{fill:url(#SVGID_129_);}
	.st140{fill:url(#SVGID_130_);}
	.st141{fill:url(#SVGID_131_);}
	.st142{fill:url(#SVGID_132_);}
	.st143{fill:url(#SVGID_133_);}
	.st144{fill:url(#SVGID_134_);}
	.st145{fill:url(#SVGID_135_);}
	.st146{fill:url(#SVGID_136_);}
	.st147{fill:url(#SVGID_137_);}
	.st148{fill:url(#SVGID_138_);}
	.st149{fill:url(#SVGID_139_);}
	.st150{fill:url(#SVGID_140_);}
	.st151{fill:url(#SVGID_141_);}
	.st152{fill:url(#SVGID_142_);}
	.st153{fill:url(#SVGID_143_);}
	.st154{fill:url(#SVGID_144_);}
	.st155{fill:url(#SVGID_145_);}
	.st156{fill:url(#SVGID_146_);}
	.st157{fill:url(#SVGID_147_);}
	.st158{fill:url(#SVGID_148_);}
	.st159{fill:url(#SVGID_149_);}
	.st160{fill:url(#SVGID_150_);}
	.st161{fill:url(#SVGID_151_);}
	.st162{fill:url(#SVGID_152_);}
	.st163{fill:url(#SVGID_153_);}
	.st164{fill:url(#SVGID_154_);}
	.st165{fill:url(#SVGID_155_);}
	.st166{fill:url(#SVGID_156_);}
	.st167{fill:url(#SVGID_157_);}
	.st168{fill:url(#SVGID_158_);}
	.st169{fill:url(#SVGID_159_);}
	.st170{fill:url(#SVGID_160_);}
	.st171{fill:url(#SVGID_161_);}
	.st172{fill:url(#SVGID_162_);}
	.st173{fill:url(#SVGID_163_);}
	.st174{fill:url(#SVGID_164_);}
	.st175{fill:url(#SVGID_165_);}
	.st176{fill:url(#SVGID_166_);}
	.st177{fill:url(#SVGID_167_);}
	.st178{fill:url(#SVGID_168_);}
	.st179{fill:url(#SVGID_169_);}
	.st180{fill:url(#SVGID_170_);}
	.st181{opacity:0.5;fill:url(#SVGID_171_);}
	.st182{fill:url(#SVGID_172_);}
	.st183{fill:url(#SVGID_173_);}
	.st184{fill:url(#SVGID_174_);}
	.st185{fill:url(#SVGID_175_);}
	.st186{fill:url(#SVGID_176_);}
	.st187{fill:url(#SVGID_177_);}
	.st188{fill:url(#SVGID_178_);}
	.st189{fill:url(#SVGID_179_);}
	.st190{fill:url(#SVGID_180_);}
	.st191{fill:url(#SVGID_181_);}
	.st192{fill:url(#SVGID_182_);}
	.st193{fill:url(#SVGID_183_);}
	.st194{fill:url(#SVGID_184_);}
	.st195{fill:url(#SVGID_185_);}
	.st196{fill:url(#SVGID_186_);}
	.st197{fill:url(#SVGID_187_);}
	.st198{fill:url(#SVGID_188_);}
	.st199{fill:url(#SVGID_189_);}
	.st200{fill:url(#SVGID_190_);}
	.st201{fill:url(#SVGID_191_);}
	.st202{fill:url(#SVGID_192_);}
	.st203{fill:url(#SVGID_193_);}
	.st204{fill:url(#SVGID_194_);}
	.st205{fill:url(#SVGID_195_);}
	.st206{fill:url(#SVGID_196_);}
	.st207{fill:url(#SVGID_197_);}
	.st208{fill:url(#SVGID_198_);}
	.st209{fill:url(#SVGID_199_);}
	.st210{fill:url(#SVGID_200_);}
	.st211{fill:url(#SVGID_201_);}
	.st212{fill:url(#SVGID_202_);}
	.st213{fill:url(#SVGID_203_);}
	.st214{fill:url(#SVGID_204_);}
	.st215{fill:url(#SVGID_205_);}
	.st216{fill:url(#SVGID_206_);}
	.st217{fill:url(#SVGID_207_);}
	.st218{fill:url(#SVGID_208_);}
	.st219{fill:url(#SVGID_209_);}
	.st220{fill:url(#SVGID_210_);}
	.st221{fill:url(#SVGID_211_);}
	.st222{fill:url(#SVGID_212_);}
	.st223{fill:url(#SVGID_213_);}
	.st224{fill:url(#SVGID_214_);}
	.st225{fill:url(#SVGID_215_);}
	.st226{fill:url(#SVGID_216_);}
	.st227{fill:url(#SVGID_217_);}
	.st228{fill:url(#SVGID_218_);}
	.st229{fill:url(#SVGID_219_);}
	.st230{fill:url(#SVGID_220_);}
	.st231{fill:url(#SVGID_221_);}
	.st232{fill:url(#SVGID_222_);}
	.st233{fill:url(#SVGID_223_);}
	.st234{fill:url(#SVGID_224_);}
	.st235{fill:url(#SVGID_225_);}
	.st236{fill:url(#SVGID_226_);}
	.st237{fill:url(#SVGID_227_);}
	.st238{fill:url(#SVGID_228_);}
	.st239{fill:url(#SVGID_229_);}
	.st240{fill:url(#SVGID_230_);}
	.st241{fill:url(#SVGID_231_);}
	.st242{fill:url(#SVGID_232_);}
	.st243{fill:url(#SVGID_233_);}
	.st244{fill:url(#SVGID_234_);}
	.st245{fill:url(#SVGID_235_);}
	.st246{fill:url(#SVGID_236_);}
	.st247{fill:url(#SVGID_237_);}
	.st248{fill:url(#SVGID_238_);}
	.st249{opacity:0.5;fill:#FFFFFF;}
	.st250{fill:url(#SVGID_239_);}
	.st251{fill:url(#SVGID_240_);}
	.st252{fill:url(#SVGID_241_);}
	.st253{fill:url(#SVGID_242_);}
	.st254{fill:url(#SVGID_243_);}
	.st255{fill:url(#SVGID_244_);}
	.st256{fill:url(#SVGID_245_);}
	.st257{fill:url(#SVGID_246_);}
	.st258{fill:url(#SVGID_247_);}
	.st259{fill:url(#SVGID_248_);}
	.st260{fill:url(#SVGID_249_);}
	.st261{fill:url(#SVGID_250_);}
	.st262{fill:url(#SVGID_251_);}
	.st263{fill:url(#SVGID_252_);}
	.st264{fill:url(#SVGID_253_);}
	.st265{fill:url(#SVGID_254_);}
	.st266{fill:url(#SVGID_255_);}
	.st267{fill:url(#SVGID_256_);}
	.st268{fill:url(#SVGID_257_);}
	.st269{fill:url(#SVGID_258_);}
	.st270{fill:url(#SVGID_259_);}
	.st271{fill:url(#SVGID_260_);}
	.st272{fill:url(#SVGID_261_);}
	.st273{fill:url(#SVGID_262_);}
	.st274{fill:url(#SVGID_263_);}
	.st275{fill:url(#SVGID_264_);}
	.st276{fill:url(#SVGID_265_);}
	.st277{fill:url(#SVGID_266_);}
	.st278{fill:url(#SVGID_267_);}
	.st279{fill:url(#SVGID_268_);}
	.st280{fill:url(#SVGID_269_);}
	.st281{fill:url(#SVGID_270_);}
	.st282{fill:url(#SVGID_271_);}
	.st283{fill:url(#SVGID_272_);}
	.st284{fill:url(#SVGID_273_);}
	.st285{fill:url(#SVGID_274_);}
	.st286{fill:url(#SVGID_275_);}
	.st287{fill:url(#SVGID_276_);}
	.st288{fill:url(#SVGID_277_);}
	.st289{fill:url(#SVGID_278_);}
	.st290{fill:url(#SVGID_279_);}
	.st291{fill:url(#SVGID_280_);}
	.st292{fill:url(#SVGID_281_);}
	.st293{fill:url(#SVGID_282_);}
	.st294{fill:url(#SVGID_283_);}
	.st295{fill:url(#SVGID_284_);}
	.st296{fill:url(#SVGID_285_);}
	.st297{fill:url(#SVGID_286_);}
	.st298{fill:url(#SVGID_287_);}
	.st299{fill:url(#SVGID_288_);}
	.st300{fill:url(#SVGID_289_);}
	.st301{fill:url(#SVGID_290_);}
	.st302{opacity:0.2;fill:#FFFFFF;}
	.st303{fill:url(#SVGID_291_);}
	.st304{fill:url(#SVGID_292_);}
	.st305{fill:url(#SVGID_293_);}
	.st306{fill:url(#SVGID_294_);}
	.st307{fill:url(#SVGID_295_);}
	.st308{fill:url(#SVGID_296_);}
	.st309{fill:url(#SVGID_297_);}
	.st310{fill:url(#SVGID_298_);}
	.st311{fill:url(#SVGID_299_);}
	.st312{fill:url(#SVGID_300_);}
	.st313{fill:url(#SVGID_301_);}
	.st314{fill:url(#SVGID_302_);}
	.st315{fill:url(#SVGID_303_);}
	.st316{fill:url(#SVGID_304_);}
	.st317{fill:url(#SVGID_305_);}
	.st318{fill:url(#SVGID_306_);}
	.st319{fill:url(#SVGID_307_);}
	.st320{fill:url(#SVGID_308_);}
	.st321{fill:url(#SVGID_309_);}
	.st322{fill:url(#SVGID_310_);}
	.st323{fill:url(#SVGID_311_);}
	.st324{fill:url(#SVGID_312_);}
	.st325{fill:url(#SVGID_313_);}
	.st326{fill:url(#SVGID_314_);}
	.st327{fill:url(#SVGID_315_);}
	.st328{fill:url(#SVGID_316_);}
	.st329{fill:url(#SVGID_317_);}
	.st330{fill:url(#SVGID_318_);}
	.st331{fill:url(#SVGID_319_);}
	.st332{fill:url(#SVGID_320_);}
	.st333{fill:url(#SVGID_321_);}
	.st334{fill:url(#SVGID_322_);}
	.st335{fill:url(#SVGID_323_);}
	.st336{fill:url(#SVGID_324_);}
</style>
<g xmlns="http://www.w3.org/2000/svg">
	<g>
		<radialGradient id="SVGID_1_" cx="99.774" cy="52.9547" r="9.8285" gradientUnits="userSpaceOnUse">
			<stop offset="0" style="stop-color:#F7A4BB"/>
			<stop offset="0.6285" style="stop-color:#F7515B"/>
			<stop offset="1" style="stop-color:#F72427"/>
		</radialGradient>
		<path class="st0" d="M99.7739,42.2028c4.1429,0,7.263,3.5353,8.323,7.2828c1.1247,3.9762,0.3101,8.6603-2.5867,11.7055    c-2.9727,3.1249-7.7645,3.3978-10.9816,0.4862c-2.9926-2.7084-4.0679-7.1518-3.3473-11.0386    C91.9579,46.4489,95.175,42.2028,99.7739,42.2028z" fill="#000000" data-original="#000000"/>
		<linearGradient id="SVGID_2_" gradientUnits="userSpaceOnUse" x1="17.4248" y1="73.3102" x2="45.7145" y2="73.3102">
			<stop offset="0" style="stop-color:#F7C827"/>
			<stop offset="0.4601" style="stop-color:#F7DA5B"/>
			<stop offset="1" style="stop-color:#F7F09D"/>
		</linearGradient>
		<path class="st1" d="M44.8716,86.3466c0.2801,0.0538,0.5616,0.101,0.8429,0.1481c-0.2383,0.4473-0.4772,0.9008-0.6804,1.365    c-0.0663,0.1515-0.1421,0.5557-0.2717,0.6571c-0.3828,0.2991-1.4367-0.2637-1.928-0.3958    c-2.1082-0.5668-4.3791-0.7207-6.5455-0.9313c-4.464-0.4339-8.8523-0.2773-13.321-0.3144    c-1.5742-0.013-3.8344-0.0564-4.8322-1.5011c-0.8762-1.2685-0.7218-3.1087-0.6592-4.5655    c0.1783-4.1553,1.0444-8.3115,2.1815-12.3037c1.126-3.9532,2.8886-7.8641,6.1729-10.4877    c0.5824,6.489,2.0345,13.1246,5.62,18.6617C34.5618,81.4833,39.2995,84.973,44.8716,86.3466z" fill="#000000" data-original="#000000"/>
		<linearGradient id="SVGID_3_" gradientUnits="userSpaceOnUse" x1="79.1456" y1="114.3605" x2="82.5407" y2="114.3605">
			<stop offset="0" style="stop-color:#F7C827"/>
			<stop offset="0.4601" style="stop-color:#F7DA5B"/>
			<stop offset="1" style="stop-color:#F7F09D"/>
		</linearGradient>
		<path class="st2" d="M82.5407,112.1777c-0.0719,0.8325-0.137,1.6656-0.1978,2.4989c-0.019,0.2596,0.0986,1.3746-0.0851,1.6324    c-0.2936,0.4121-2.6499,0.1528-3.1122,0.1635C80.3383,115.0935,81.4573,113.6436,82.5407,112.1777z" fill="#000000" data-original="#000000"/>
		<linearGradient id="SVGID_4_" gradientUnits="userSpaceOnUse" x1="25.8529" y1="105.0227" x2="68.6335" y2="105.0227">
			<stop offset="0" style="stop-color:#F7C827"/>
			<stop offset="0.4601" style="stop-color:#F7DA5B"/>
			<stop offset="1" style="stop-color:#F7F09D"/>
		</linearGradient>
		<path class="st3" d="M62.4369,105.8151c0.3275,0.0578,0.6075,1.3082,0.7279,1.5868c0.4784,1.1074,1.0251,2.1902,1.5952,3.2528    c1.1427,2.1299,2.4464,4.172,3.8735,6.1223c-7.2953,0.2533-14.5891,0.5723-21.873,1.0559    c-3.6087,0.2396-7.2149,0.5194-10.8163,0.8519c-1.7461,0.1612-3.4917,0.3308-5.2341,0.5292    c-1.612,0.1835-3.231,0.6717-4.8572,0.6717c0.2317-7.7589,1.24-15.4109,2.9017-22.9896c0.3252-1.4833,0.5049-3.1135,0.9427-4.5617    c0.1655-0.5475,0.3635-0.5343,0.9085-0.5416c0.8164-0.0108,1.6263-0.0633,2.4419-0.1247    c3.6431-0.2742,7.4678-0.4241,10.9796-1.5083c-1.3376,3.3204-2.2584,6.7665-2.9346,10.2772    c-0.3664,1.9022-1.0016,4.5537,0.6336,6.0656c1.0929,1.0105,2.7441,1.0725,4.1472,1.0728    c1.7073,0.0004,3.4213-0.0193,5.1266-0.1046C54.8582,107.2778,58.6748,106.6815,62.4369,105.8151z" fill="#000000" data-original="#000000"/>
		<linearGradient id="SVGID_5_" gradientUnits="userSpaceOnUse" x1="26.4578" y1="164.0676" x2="84.0245" y2="164.0676">
			<stop offset="0" style="stop-color:#F7C827"/>
			<stop offset="0.4601" style="stop-color:#F7DA5B"/>
			<stop offset="1" style="stop-color:#F7F09D"/>
		</linearGradient>
		<path class="st4" d="M82.8023,174.1873c0.3121,2.8478,0.6527,5.7078,1.2221,8.5176c-10.6232-0.3576-21.2385-1.678-31.4553-4.684    c-4.6837-1.3781-9.5904-2.9736-13.6399-5.7783c-3.6305-2.5145-6.3226-6.1685-8.1761-10.1399    c-2.4423-5.2327-3.6169-10.9682-4.2954-16.6725c7.0517,1.1643,14.194,1.6385,21.3235,2.0269    c7.1845,0.3913,14.3695,0.7575,21.5608,1.0028c1.9892,0.0679,3.9787,0.1288,5.9683,0.1829    c1.0639,0.029,2.1278,0.056,3.1917,0.0811c0.6937,0.0164,1.7212-0.1785,2.3803,0.0531c0.132,0.0027,0.2641,0.0055,0.3961,0.0082    C81.4405,157.2653,81.8819,165.7541,82.8023,174.1873z" fill="#000000" data-original="#000000"/>
		<linearGradient id="SVGID_6_" gradientUnits="userSpaceOnUse" x1="154.07" y1="73.2658" x2="182.5883" y2="73.2658">
			<stop offset="0" style="stop-color:#F7F09D"/>
			<stop offset="0.5399" style="stop-color:#F7DA5B"/>
			<stop offset="1" style="stop-color:#F7C827"/>
		</linearGradient>
		<path class="st5" d="M182.4991,80.6193c0.0997,1.4496,0.2373,3.051-0.349,4.423c-0.4841,1.1329-1.5074,1.6226-2.6583,1.8584    c-3.2853,0.6732-6.6906,0.0083-9.999-0.0667c-3.4935-0.0793-6.9971,0.3762-10.4435,0.9036    c-0.7312,0.1119-1.4618,0.2322-2.1832,0.3967c-0.3277,0.0747-1.3513,0.6166-1.6876,0.4935    c-0.5781-0.2118-0.8414-1.6321-1.1083-2.133c13.5744-2.2734,18.8238-16.5151,19.8962-28.609    c3.0607,2.3279,4.8663,5.7885,6.0437,9.3755C181.4255,71.5739,182.1762,76.0991,182.4991,80.6193z" fill="#000000" data-original="#000000"/>
		<linearGradient id="SVGID_7_" gradientUnits="userSpaceOnUse" x1="114.3663" y1="163.8718" x2="173.5662" y2="163.8718">
			<stop offset="0" style="stop-color:#F7F09D"/>
			<stop offset="0.5399" style="stop-color:#F7DA5B"/>
			<stop offset="1" style="stop-color:#F7C827"/>
		</linearGradient>
		<path class="st6" d="M173.5662,145.4303c-1.0238,8.608-3.145,18.0321-9.5137,24.3576c-3.5586,3.5345-8.2551,5.5208-12.9602,7.0349    c-5.3724,1.7289-10.8712,2.9859-16.4537,3.8091c-6.713,0.9899-13.4955,1.4321-20.2723,1.6814    c1.1224-5.8988,1.5777-11.9008,1.9869-17.8835c0.2011-2.9399,0.3596-5.8826,0.4797-8.8269    c0.056-1.3735,0.1046-2.7472,0.145-4.1213c0.0177-0.6035-0.2269-2.3195,0.257-2.6356c0.413-0.2698,1.3474-0.1245,1.8121-0.1111    c0.7154,0.0205,1.4255,0.0123,2.1412-0.0042c1.5804-0.0365,3.1607-0.0768,4.7409-0.1213    c3.0289-0.0854,6.0574-0.1861,9.0852-0.3047c6.0555-0.2372,12.1083-0.5455,18.1554-0.9442    C159.9777,146.9116,166.8263,146.5385,173.5662,145.4303z" fill="#000000" data-original="#000000"/>
		<linearGradient id="SVGID_8_" gradientUnits="userSpaceOnUse" x1="115.5151" y1="113.1067" x2="120.6334" y2="113.1067">
			<stop offset="0" style="stop-color:#F7F09D"/>
			<stop offset="0.5399" style="stop-color:#F7DA5B"/>
			<stop offset="1" style="stop-color:#F7C827"/>
		</linearGradient>
		<path class="st7" d="M120.5074,116.3189c0.042,0.0494,0.084,0.0987,0.126,0.1481c-1.038-0.0227-2.0849-0.0838-3.1226-0.0534    c-0.5499,0.0161-1.152,0.2332-1.3819-0.3064c-0.1023-0.2402-0.0176-0.6283-0.0301-0.8859    c-0.026-0.5371-0.0977-1.0749-0.1511-1.6101c-0.1289-1.291-0.2707-2.5807-0.4326-3.868    C117.171,111.951,118.7404,114.1925,120.5074,116.3189z" fill="#000000" data-original="#000000"/>
		<linearGradient id="SVGID_9_" gradientUnits="userSpaceOnUse" x1="131.1566" y1="105.0207" x2="174.171" y2="105.0207">
			<stop offset="0" style="stop-color:#F7F09D"/>
			<stop offset="0.5399" style="stop-color:#F7DA5B"/>
			<stop offset="1" style="stop-color:#F7C827"/>
		</linearGradient>
		<path class="st8" d="M137.45,105.8373c3.6325,0.882,7.3493,1.4183,11.0815,1.6206c1.7398,0.0943,3.4771,0.0752,5.2184,0.0809    c1.4103,0.0046,2.9715,0.0254,4.1308-0.9078c1.9019-1.5307,1.1944-4.3079,0.7838-6.3498    c-0.6953-3.4578-1.5886-6.8487-2.9087-10.1256c3.432,1.0545,7.1838,1.2005,10.7422,1.4816    c0.9468,0.0748,1.9006,0.1427,2.8393,0.2913c0.4577,0.0725,0.7329,0.0617,0.9491,0.4802c0.2792,0.5403,0.31,1.4843,0.4433,2.0799    c0.2123,0.9482,0.4213,1.8972,0.6246,2.8474c1.5961,7.4589,2.5889,14.9218,2.8166,22.5497c-0.7916,0-1.5834-0.2564-2.3662-0.3657    c-0.9173-0.1281-1.8384-0.2328-2.7588-0.3357c-1.8308-0.2046-3.6647-0.3812-5.4998-0.5429    c-3.602-0.3174-7.2084-0.5856-10.8167-0.8204c-7.1634-0.466-14.3923-1.0524-21.573-1.0524    c1.3356-1.7962,2.5415-3.6881,3.6176-5.6506c0.5323-0.9707,1.0329-1.9586,1.5003-2.9622    C136.4068,107.8718,137.0668,105.787,137.45,105.8373z" fill="#000000" data-original="#000000"/>
		<linearGradient id="SVGID_10_" gradientUnits="userSpaceOnUse" x1="25.6708" y1="132.6033" x2="81.9192" y2="132.6033">
			<stop offset="0" style="stop-color:#F72427"/>
			<stop offset="0.3715" style="stop-color:#F7515B"/>
			<stop offset="1" style="stop-color:#F7A4BB"/>
		</linearGradient>
		<path class="st9" d="M81.9192,120.7023c-0.5136,7.9313-0.6888,15.8555-0.6837,23.8021    c-10.8896-0.0637-21.7788-0.1832-32.6682-0.2855c-5.3948-0.0507-10.79-0.104-16.185-0.0536    c-1.2591,0.0117-2.5182,0.0294-3.7768,0.0688c-0.4461,0.014-1.9765,0.3823-2.3223,0.0397    c-0.3178-0.3149-0.1487-1.4635-0.162-1.8728c-0.0355-1.0923-0.1509-2.1836-0.2145-3.2751    c-0.3549-6.0888-0.2477-12.192-0.0787-18.2851c7.2114,0.5837,14.4625,0.2208,21.6861,0.1591    c7.3231-0.0625,14.6459-0.1469,21.969-0.2083C73.6285,120.7568,77.7738,120.726,81.9192,120.7023z" fill="#000000" data-original="#000000"/>
		<linearGradient id="SVGID_12_" gradientUnits="userSpaceOnUse" x1="31.3511" y1="49.0708" x2="91.4448" y2="49.0708">
			<stop offset="0" style="stop-color:#F72427"/>
			<stop offset="0.3715" style="stop-color:#F7515B"/>
			<stop offset="1" style="stop-color:#F7A4BB"/>
		</linearGradient>
		<path class="st17" d="M87.9234,48.6263c-0.8888,3.2256-0.7727,6.7373,0.358,9.8887c0.2453,0.6837,0.5377,1.35,0.8767,1.9924    c0.1991,0.3772,0.9297,1.0803,0.8276,1.5359c-0.0891,0.3975-0.9296,0.9084-1.2223,1.1371    c-0.6359,0.4966-1.2345,1.0344-1.8428,1.5641c-4.9829,4.3392-10.3141,8.3427-16.2283,11.3302    c-6.0176,3.0398-13.0586,5.2879-19.8499,5.3836c-5.7184,0.0806-10.9724-2.543-14.0926-7.3887    c-3.4204-5.312-4.5294-11.7622-4.9112-17.9646c-0.4346-7.0611-0.8436-14.2309,0.019-21.2749    c0.6435-5.2545,2.3272-10.7444,6.3212-14.442c4.9485-4.5813,11.3889-4.1686,17.5235-2.7134    c6.4671,1.5342,12.6236,4.0815,18.1666,7.7616c5.5201,3.6648,10.2994,8.2809,14.6045,13.2947    c0.6,0.6988,1.1925,1.4041,1.7874,2.1073c0.2162,0.2555,0.8728,1.3083,1.1841,1.3988c-0.0841-0.0245-1.745,2.3144-1.874,2.5283    C88.846,45.9679,88.2947,47.2726,87.9234,48.6263z" fill="#000000" data-original="#000000"/>
		<linearGradient id="SVGID_13_" gradientUnits="userSpaceOnUse" x1="116.5158" y1="132.6054" x2="174.3594" y2="132.6054">
			<stop offset="0" style="stop-color:#F7A4BB"/>
			<stop offset="0.6285" style="stop-color:#F7515B"/>
			<stop offset="1" style="stop-color:#F72427"/>
		</linearGradient>
		<path class="st18" d="M174.3593,129.8954c0.0061,4.4168-0.2856,8.7987-0.495,13.2055c-0.0189,0.3971,0.0673,1.0749-0.308,1.2655    c-0.1843,0.0936-0.5786-0.0637-0.7833-0.0817c-0.6411-0.0563-1.2971-0.0509-1.9401-0.0676    c-2.3146-0.0599-4.6306-0.0684-6.9459-0.0687c-9.9854-0.0012-19.9703,0.1512-29.955,0.2419    c-5.6125,0.051-11.225,0.0984-16.8376,0.1265c0.0321-7.9544-0.1525-15.8799-0.5785-23.8228    c15.0253,0.0805,30.049,0.3609,45.0747,0.3703c4.1957,0.0026,8.4198,0.1166,12.6055-0.2235    C174.2796,123.8586,174.3552,126.8761,174.3593,129.8954z" fill="#000000" data-original="#000000"/>
		<linearGradient id="SVGID_14_" gradientUnits="userSpaceOnUse" x1="108.386" y1="49.0321" x2="168.3399" y2="49.0321">
			<stop offset="0" style="stop-color:#F7A4BB"/>
			<stop offset="0.6285" style="stop-color:#F7515B"/>
			<stop offset="1" style="stop-color:#F72427"/>
		</linearGradient>
		<path class="st19" d="M168.333,44.1128c-0.0841,7.2159,0.0119,14.5702-1.8012,21.6108    c-1.4315,5.5591-4.2622,11.2349-9.5575,13.9987c-5.8953,3.077-13.3384,1.5253-19.3832-0.2961    c-6.6476-2.003-12.7641-5.3533-18.3212-9.4837c-2.8891-2.1474-5.4828-4.629-8.305-6.8482    c-0.3571-0.2808-0.7964-0.5117-1.1057-0.8477c-0.3658-0.3974-0.2689-0.4821,0.0268-0.9269    c0.8782-1.3208,1.4692-2.8208,1.848-4.3599c0.8052-3.2718,0.5935-6.8016-0.6448-9.9389    c-0.3008-0.7621-0.6625-1.5007-1.0816-2.2048c-0.4384-0.7366-1.1199-1.3691-1.5242-2.1066    c-0.3452-0.6297,0.3051-1.0044,0.7379-1.5055c0.627-0.7259,1.2554-1.4507,1.8881-2.1717    c4.5939-5.2347,9.4835-10.187,15.376-13.9652c5.8533-3.7531,12.3735-6.2327,19.148-7.7333    c3.3362-0.739,6.8518-1.1336,10.1871-0.1825c2.9902,0.8527,5.623,2.7044,7.5514,5.131c3.647,4.5893,4.588,10.7124,4.8724,16.401    C168.3347,40.4916,168.352,42.3027,168.333,44.1128z" fill="#000000" data-original="#000000"/>
		<linearGradient id="SVGID_15_" gradientUnits="userSpaceOnUse" x1="103.4196" y1="89.4747" x2="155.8448" y2="89.4747">
			<stop offset="0" style="stop-color:#F7A4BB"/>
			<stop offset="0.6285" style="stop-color:#F7515B"/>
			<stop offset="1" style="stop-color:#F72427"/>
		</linearGradient>
		<path class="st20" d="M155.8333,103.2712c0.2291,1.1337-3.0425,0.6212-3.6589,0.5951c-1.8863-0.0799-3.7682-0.2455-5.6399-0.493    c-1.8782-0.2484-3.7455-0.5793-5.5943-0.9933c-1.6053-0.3595-3.3555-1.1102-4.9952-0.5784    c-1.2779,0.4144-2.1135,1.4137-2.6751,2.5886c-0.7765,1.6248-1.5305,3.2455-2.4212,4.8131    c-0.8884,1.5636-1.865,3.0751-2.924,4.5287c-0.2203,0.3024-1.6512,2.3787-1.7618,2.2444    c-0.2875-0.3489-0.7733-0.5997-1.0809-1.002c-0.4714-0.6164-0.9728-1.1984-1.4749-1.7905    c-1.1516-1.358-2.2613-2.7516-3.3249-4.1796c-2.15-2.8865-4.1072-5.9164-5.8692-9.0546    c-3.6095-6.4285-6.371-13.3115-8.2809-20.4301c-1.1255-4.195-1.8142-8.4743-2.7126-12.719    c1.2063-0.4269,2.3331-1.0687,3.336-1.8614c0.3368-0.2662,0.6551-0.5414,0.94-0.8612c0.2583-0.29,0.5251-0.8172,0.8664-1.008    c0.4951-0.2769,0.5476,0.0391,0.8869,0.5292c0.3504,0.5062,0.6537,1.045,1.0092,1.5472    c3.0453,4.3015,7.2838,8.0677,11.4861,11.2011c4.2871,3.1966,9.0111,5.8417,14.0593,7.6272    c4.8909,1.7299,10.4825,3.2249,15.7086,2.7571c0.5394-0.0483,0.8387-0.1714,1.1078,0.3482    c0.3027,0.5844,0.3832,1.4286,0.5475,2.0667c0.3769,1.4634,0.7258,2.9342,1.0377,4.4128    C155.0809,96.7631,155.5827,100.0055,155.8333,103.2712z" fill="#000000" data-original="#000000"/>
		<linearGradient id="SVGID_16_" gradientUnits="userSpaceOnUse" x1="43.9338" y1="89.5052" x2="96.3348" y2="89.5052">
			<stop offset="0" style="stop-color:#F72427"/>
			<stop offset="0.3715" style="stop-color:#F7515B"/>
			<stop offset="1" style="stop-color:#F7A4BB"/>
		</linearGradient>
		<path class="st21" d="M73.9912,115.6601c-0.447,0.479-0.5517,0.1519-0.8668-0.2681c-0.4475-0.5964-0.9157-1.1759-1.3535-1.7801    c-0.9492-1.3101-1.8321-2.6678-2.645-4.0666c-0.7512-1.2926-1.443-2.6196-2.077-3.9736c-0.5449-1.1636-1.0107-2.3381-2.0783-3.13    c-2.208-1.6379-5.1348-0.2719-7.512,0.2123c-3.1596,0.6437-6.3354,1.0039-9.5513,1.2019    c-0.7998,0.0492-3.1649,0.5995-3.785-0.0685c-0.3122-0.3364-0.1488-0.999-0.1214-1.4071    c0.0582-0.8655,0.1635-1.7271,0.2782-2.5866c0.4044-3.0301,0.9627-6.0286,1.7019-8.9954    c0.2724-1.0932,0.5394-2.1817,0.7892-3.2786c0.2544-1.1173,0.7545-0.9258,1.782-0.7948c2.5101,0.3201,5.2265-0.1496,7.6959-0.6135    c10.7597-2.0212,20.5981-7.896,28.2978-15.5688c2.054-2.0468,4.1373-4.2496,5.7199-6.6905    c0.1332-0.2055,0.3737-0.7401,0.6615-0.7391c0.1796,0.0006,1.012,1.0923,1.1938,1.2575c1.0719,0.9743,2.1952,1.5143,3.4685,2.1394    c0.1915,0.094,0.62,0.2811,0.6969,0.4372c0.1748,0.3549-0.1756,1.157-0.2469,1.5139c-0.3293,1.6468-0.6089,3.3028-0.9497,4.9476    c-0.6024,2.9067-1.3011,5.7931-2.1534,8.6372C89.2337,94.4015,82.843,106.2231,73.9912,115.6601z" fill="#000000" data-original="#000000"/>
		<radialGradient id="SVGID_17_" cx="98.9466" cy="124.9777" r="42.1695" gradientUnits="userSpaceOnUse">
			<stop offset="0" style="stop-color:#F7A4BB"/>
			<stop offset="0.6285" style="stop-color:#F7515B"/>
			<stop offset="1" style="stop-color:#F72427"/>
		</radialGradient>
		<path class="st22" d="M113.4113,106.4698c0,2.4637-0.3114,4.9193-0.3641,7.3831c-0.0521,2.439-0.0724,4.8785-0.1242,7.3176    c-0.1027,4.8356-0.0904,9.6728-0.1613,14.5089c-0.1462,9.9758-0.2079,19.9523-0.2885,29.9288    c-0.0451,5.5883-0.194,11.1866,0.1463,16.7689c-8.9628,0.3005-17.953,0.6059-26.9204,0.3765    c0.5871-7.9758,0.1929-15.9945,0.1098-23.9811c-0.0833-8.0042-0.1802-16.0078-0.2799-24.0117    c-0.0987-7.9263,0.0108-15.8828-0.8771-23.7728c-0.0749-0.6657-0.3422-1.3046,0.0006-1.9138    c0.3962-0.7041,0.948-1.3549,1.3789-2.0449c1.0082-1.6145,1.956-3.2644,2.8386-4.9508c1.7659-3.3743,3.294-6.8663,4.5659-10.4561    c2.7591-7.787,4.5914-16.1433,4.0043-24.4436c0.8156,0.1823,1.6838,0.289,2.5218,0.2528c0.804-0.0348,1.5809-0.3095,2.3862-0.3095    c-0.5152,6.9878,0.8137,14.0296,2.7784,20.7104C107.0507,94.3749,109.8628,100.6481,113.4113,106.4698z" fill="#000000" data-original="#000000"/>
	</g>
	<g>
		<path class="st53" d="M167.2022,30.6623c-3.8507,2.4317-8.1878-0.8878-11.0581-3.3512    c-3.1603-2.7124-6.5606-6.2306-7.0789-10.5657c4.2177-0.4957,8.4956,0.3724,11.8545,3.0668    C164.2868,22.5131,166.2361,26.5265,167.2022,30.6623z" fill="#000000" data-original="#000000"/>
		<path class="st53" d="M85.4307,66.0242c-3.08,2.6078-6.3017,5.0581-9.7197,7.208c-1.7066,1.0735-3.4616,2.0711-5.2659,2.9712    c-0.8769,0.4375-1.7652,0.8518-2.6647,1.2407c-0.7318,0.3164-1.8917,1.0658-2.694,1.0662    c-1.4872,0.0007-2.0374-3.0024-1.8573-4.0885c0.3138-1.8924,1.6515-3.605,2.9139-4.9831    c2.3973-2.6171,5.5862-4.5104,9.0236-5.3884C78.6168,63.1692,82.8374,63.2311,85.4307,66.0242z" fill="#000000" data-original="#000000"/>
		<path class="st53" d="M91.0791,41.8014c-4.2186,1.7584-8.5368-2.0257-11.3367-4.7452c-2.9441-2.8595-6.9907-7.1199-5.8826-11.6354    C80.5793,29.8795,85.8673,35.7308,91.0791,41.8014z" fill="#000000" data-original="#000000"/>
		<path class="st53" d="M51.2854,81.4442c-6.7099,0.4804-12.5519-3.3817-15.5998-9.2129c-0.4461-0.8534-0.8451-1.7311-1.1988-2.6267    c-0.2911-0.737-0.8535-1.7841-0.9-2.5794c-0.068-1.1607,2.7442-0.6665,3.4893-0.563c3.5353,0.4911,6.8329,2.3091,9.4196,4.7264    C49.2743,73.7852,51.7085,77.4746,51.2854,81.4442z" fill="#000000" data-original="#000000"/>
		<path class="st53" d="M153.5057,53.1218c-4.9206-6.2032-15.6684-2.9303-19.4455,2.862c-2.1526,3.3011-0.4323,6.7688,3.0275,8.1231    c3.9036,1.528,8.6494,0.4018,12.3885-1.0807c1.9182-0.7605,3.8866-1.7975,4.8445-3.7255    C155.3257,57.2774,154.8947,54.8541,153.5057,53.1218z" fill="#000000" data-original="#000000"/>
		<path class="st53" d="M168.2292,48.4796c-0.1273,3.964-0.1773,7.936-0.6863,11.8751c-0.2528,1.956-0.6122,3.898-1.123,5.8037    c-0.213,0.7946-0.4118,1.6055-0.6655,2.388c-0.112,0.3455-0.345,1.2194-0.6442,1.4435c-0.4615,0.3456-1.4923,0.0631-1.993-0.0538    c-0.8005-0.1869-1.5117-0.5257-2.1001-1.106c-1.1887-1.1723-1.7474-2.8804-2.0941-4.4735    c-0.7602-3.4932-0.2321-7.2537,1.4784-10.3961C161.9838,51.0537,164.7649,48.5418,168.2292,48.4796z" fill="#000000" data-original="#000000"/>
		<path class="st53" d="M70.3359,28.9751c-0.3886,4.0704-4.0767,6.2189-7.8847,4.8512c-1.9719-0.7082-3.6843-2.069-5.2782-3.3943    c-1.5353-1.2767-2.9577-2.6954-4.2076-4.2537c-1.3171-1.642-2.5126-3.497-3.0517-5.5538    c-0.2373-0.9052-0.7811-3.8499,0.6929-3.8914c1.0068-0.0283,2.1531,0.2966,3.1375,0.4874c1.0964,0.2125,2.1848,0.4655,3.2648,0.75    c2.0333,0.5357,4.0362,1.1863,6.0074,1.9171c1.1066,0.4103,2.1874,0.8707,3.2712,1.3365c0.7914,0.3401,1.7301,0.5951,2.2972,1.287    C69.9274,24.1497,70.5396,26.9132,70.3359,28.9751z" fill="#000000" data-original="#000000"/>
		<path class="st53" d="M126.0908,70.6595c0.0275,1.1597-0.1988,2.3339-0.6976,3.3841c-2.915-1.7337-5.6647-3.7299-8.3153-5.8421    c-1.3718-1.0931-2.7181-2.2178-4.0533-3.3552c-0.6-0.5111-1.1977-1.0249-1.7946-1.5397    c-0.2859-0.2465-1.5429-1.0243-1.5965-1.4508c-0.0336-0.2672,0.5584-0.9748,0.6965-1.2315    c0.3864-0.7185,0.7162-1.461,0.9465-2.244c0.0882-0.2998,0.273-1.4911,0.5706-1.6657c0.2579-0.1513,1.2844,0.25,1.5663,0.3253    c3.0431,0.8121,5.8414,2.4288,8.0978,4.6223C123.9357,64.0191,126.0136,67.1757,126.0908,70.6595z" fill="#000000" data-original="#000000"/>
		<path class="st53" d="M162.4035,74.9778c-1.5621,2.1286-3.6272,3.8705-6.0222,4.9904c-1.2063,0.564-2.4849,0.9692-3.7942,1.211    c-0.8162,0.1507-2.5536,0.6386-3.2846,0.0909c-0.4699-0.3521-0.7876-1.1878-1.0406-1.6941    c-0.348-0.6962-0.6424-1.4225-0.8409-2.1758c-0.377-1.4311-0.3762-2.9877,0.3381-4.3186c1.1174-2.082,3.5462-2.5612,5.7125-2.2688    C156.7701,71.2582,159.8937,72.8192,162.4035,74.9778z" fill="#000000" data-original="#000000"/>
		<path class="st53" d="M146.4701,25.0388c-0.0128,2.5087-2.723,4.0265-4.8256,4.6454c-2.8176,0.8295-6.0479,0.2838-8.4055-1.4809    c-1.3108-0.9812-2.2486-2.3139-2.7672-3.8622c-0.1124-0.3357-0.4577-1.0058-0.3388-1.3526    c0.1431-0.4176,1.0277-0.6423,1.4011-0.8297c1.6386-0.8224,3.3208-1.5579,5.0388-2.1981c0.8271-0.3082,1.6623-0.5942,2.5049-0.857    c0.6103-0.1904,1.4361-0.6312,2.0842-0.6088c0.5705,0.0197,1.3093,0.5191,1.7948,0.7906c0.683,0.382,1.3238,0.8495,1.87,1.4114    C145.9611,21.8636,146.6038,23.3998,146.4701,25.0388z" fill="#000000" data-original="#000000"/>
		<path class="st53" d="M47.0345,66.1789c1.7642,5.5233,9.3747,7.3123,13.8989,4.0731c2.5462-1.823,2.7401-5.01,0.7879-7.3766    c-2.1465-2.6022-5.9712-3.428-9.1893-3.4052c-1.7456,0.0124-3.6313,0.2553-4.7996,1.7022    C46.6066,62.5668,46.4973,64.5232,47.0345,66.1789z" fill="#000000" data-original="#000000"/>
		<path class="st53" d="M57.4822,34.4848c-6.2387-4.4399-16.5056,0.8158-16.8009,8.4334c-0.1333,3.4389,2.8844,5.7014,6.0922,5.9673    c3.9257,0.3254,7.921-1.8226,10.842-4.2623c1.5309-1.2787,2.8314-2.9115,2.8113-5.002    C60.4069,37.5434,59.1418,35.6543,57.4822,34.4848z" fill="#000000" data-original="#000000"/>
		<path class="st53" d="M146.3306,34.4999c-6.2387-4.4399-16.5056,0.8158-16.8009,8.4334    c-0.1333,3.4389,2.8844,5.7014,6.0922,5.9673c3.9257,0.3254,7.921-1.8226,10.842-4.2623c1.5309-1.2787,2.8314-2.9115,2.8113-5.002    C149.2554,37.5585,147.9903,35.6694,146.3306,34.4999z" fill="#000000" data-original="#000000"/>
		<path class="st53" d="M62.8457,42.6649c1.7642,5.5233,9.3747,7.3123,13.8989,4.073c2.5462-1.823,2.7401-5.01,0.7879-7.3766    c-2.1465-2.6022-5.9712-3.428-9.1893-3.4052c-1.7456,0.0124-3.6313,0.2553-4.7996,1.7022    C62.4179,39.0528,62.3085,41.0092,62.8457,42.6649z" fill="#000000" data-original="#000000"/>
		<path class="st53" d="M113.5564,49.8796c1.7642,5.5233,9.3747,7.3123,13.8989,4.073c2.5462-1.823,2.7401-5.01,0.7879-7.3766    c-2.1465-2.6022-5.9712-3.428-9.1893-3.4052c-1.7456,0.0124-3.6313,0.2553-4.7996,1.7022    C113.1285,46.2675,113.0191,48.2239,113.5564,49.8796z" fill="#000000" data-original="#000000"/>
		<path class="st53" d="M102.6611,75.7847c-1.1962,0.2341-2.4055,0.2159-3.6065,0.031c-0.6538-0.1007-1.7257-0.149-1.8489-0.8589    c-0.0778-0.4483,0.1109-1.1084,0.1464-1.5663c0.0501-0.6457,0.0923-1.2921,0.1211-1.9392    c0.0633-1.4235,0.0677-2.8509-0.0328-4.2728c0.8156,0.1823,1.6838,0.289,2.5218,0.2528c0.804-0.0348,1.5809-0.3095,2.3862-0.3095    C102.1361,69.9993,102.3298,72.9239,102.6611,75.7847z" fill="#000000" data-original="#000000"/>
		<path class="st53" d="M81.2743,137.0704c-0.0263,2.4779-0.0404,4.9558-0.0388,7.4339c-2.3059-0.0135-4.6115-0.0382-6.9144,0.0159    c-0.8692,0.0204-0.9192-0.3141-1.1207-1.1072c-0.2837-1.1163-0.3692-2.2178-0.0121-3.332    C74.2738,136.6936,78.3573,136.6336,81.2743,137.0704z" fill="#000000" data-original="#000000"/>
		<path class="st53" d="M89.2521,144.2621c-0.0093,1.9967-1.9401,3.4026-3.5737,4.155c-0.0375-3.3314-0.0435-6.6631-0.09-9.9944    C87.8139,139.5926,89.4663,141.6393,89.2521,144.2621z" fill="#000000" data-original="#000000"/>
		<path class="st53" d="M112.6957,141.5286c-0.0226,4.0565-0.0374,8.1126-0.0969,12.1688c-3.2723-0.6428-6.2448-3.091-6.8336-6.4784    c-0.2988-1.7192,0.2299-3.6362,1.6619-4.7182C108.9076,141.3823,110.9323,141.4066,112.6957,141.5286z" fill="#000000" data-original="#000000"/>
		<path class="st53" d="M67.576,126.2608c-0.0143,3.2412-3.3664,5.2993-6.0773,6.231c-3.6949,1.2699-7.9643,0.7887-11.2873-1.2702    c-3.1208-1.9337-5.6619-5.6929-5.0877-9.4983c0.1464-0.9705,0.8518-0.7105,1.6857-0.7176c1.1229-0.0095,2.2458-0.02,3.3688-0.0306    c2.4521-0.0232,4.9042-0.0478,7.3562-0.0721c1.419-0.0141,2.838-0.0281,4.2569-0.0418c1.1694-0.0113,2.4256-0.1553,3.5881-0.0276    c0.8742,0.096,1.2679,1.013,1.5958,1.7444C67.491,123.7285,67.6782,125.0073,67.576,126.2608z" fill="#000000" data-original="#000000"/>
		<path class="st53" d="M135.1081,140.4061c-0.0071,1.295-0.6614,2.8178-1.703,3.6167c-1.1032,0.8461-3.2818,0.4013-4.593,0.4122    c-3.9059,0.0325-7.8118,0.0622-11.7178,0.0818c0.0149-3.6838-0.0095-7.3676-0.0504-11.0511    c-0.0082-0.7414-0.1322-1.5464-0.0738-2.2807c0.0573-0.7205,0.4451-0.6828,1.0779-0.7608    c1.6631-0.2051,3.323-0.2328,4.9917-0.0739C128.4434,130.8647,135.6419,133.8449,135.1081,140.4061z" fill="#000000" data-original="#000000"/>
		<path class="st53" d="M90.304,123.3991c-1.537,4.2326,0.0033,8.9867,3.0796,12.1171c2.8436,2.8936,7.6079,4.9753,11.6459,3.5545    c3.2911-1.158,4.5453-5.0883,3.9609-8.2728c-0.7906-4.3084-4.0952-7.9792-7.5397-10.4657    c-1.9705-1.4225-4.2899-2.4909-6.7301-1.6469C92.5869,119.4232,91.0481,121.3202,90.304,123.3991z" fill="#000000" data-original="#000000"/>
		<path class="st53" d="M34.6737,40.2872c0,2.1027-1.4282,3.5091-3.2139,4.4249c-0.0478-3.1122-0.0059-6.239,0.3364-9.3356    C33.4885,36.4866,34.69,38.2093,34.6737,40.2872z" fill="#000000" data-original="#000000"/>
		<path class="st53" d="M43.9193,54.8173c-0.2623,2.9727-2.2028,5.4815-4.7574,6.9125c-1.4376,0.8053-3.0532,1.2938-4.6899,1.4646    c-0.2609,0.0272-1.441,0.2571-1.709,0.0671c-0.281-0.1993-0.2417-0.9955-0.2921-1.3268    c-0.2837-1.8662-0.4926-3.7382-0.6163-5.6221c-0.0564-0.8589-0.1902-1.791-0.1343-2.6494    c0.0474-0.7276,0.4525-0.5684,1.0863-0.7015c2.6759-0.5618,3.316-4.4371,6.4088-3.9981    C41.7284,49.3203,44.1446,52.2678,43.9193,54.8173z" fill="#000000" data-original="#000000"/>
		<path class="st53" d="M46.0217,27.4346c-1.3588,1.8916-3.5029,3.0259-5.7874,3.3395c-1.1651,0.16-2.3542,0.1142-3.5082-0.106    c-0.9815-0.1873-2.7534-0.5017-3.4973-1.2319c-0.3238-0.0558-0.3867-0.2197-0.1885-0.4917    c0.0665-0.2216,0.1359-0.4423,0.2084-0.662c0.7645-2.3139,1.9121-4.5433,3.4335-6.4548c0.7889-0.9912,1.5464-1.5209,2.7764-1.8103    c1.2314-0.2897,2.6345-0.9551,3.9156-0.773C46.7149,19.7193,47.7605,25.015,46.0217,27.4346z" fill="#000000" data-original="#000000"/>
		<path class="st53" d="M68.072,51.829c-1.9864-0.1093-3.2617-1.6781-4.508-3.0284c-1.4621-1.5842-3.1467-2.0142-4.784-0.3805    c-1.3669,1.364-2.1498,3.4248-1.7632,5.3464c0.4066,2.0211,1.8407,3.8809,3.2946,5.2847    c2.6012,2.5116,6.3341,3.9522,9.9542,3.3261c3.145-0.544,6.3454-2.6613,6.309-6.165c-0.0187-1.7956-0.7644-3.9906-2.4008-4.9409    C72.1963,50.1232,70.1158,51.9414,68.072,51.829z" fill="#000000" data-original="#000000"/>
		<path class="st53" d="M174.3593,129.8954c-2.8242,0.3653-5.8548-0.3995-8.1435-2.0977c-2.1687-1.6093-4.3353-3.9903-4.8102-6.7382    c4.2498,0.0135,8.5494,0.1259,12.7903-0.2187C174.2796,123.8586,174.3552,126.8761,174.3593,129.8954z" fill="#000000" data-original="#000000"/>
		<path class="st53" d="M165.6354,144.1514c-4.4689-0.0149-8.938,0.0221-13.4067,0.0625c-1.0188,0.0092-2.0376,0.019-3.0564,0.029    c-0.5503,0.0054-1.5829,0.2805-2.0905,0.0694c-0.8311-0.3457-1.0578-2.1362-1.0562-2.9371    c0.0039-2.0086,1.2739-5.1118,3.4108-5.6853c1.3751-0.369,2.4894,0.6372,3.3314,1.5932c1.1537,1.31,2.2671,2.6695,4.1159,2.9183    c2.0742,0.2791,4.1188-1.5921,6.1345-0.6426C164.6922,140.3474,165.4756,142.4188,165.6354,144.1514z" fill="#000000" data-original="#000000"/>
		<path class="st53" d="M145.3573,123.3888c-0.859,3.8214-5.4131,5.1708-8.8622,4.9022c-4.4513-0.3466-8.4116-3.4956-10.1661-7.5334    c3.2848,0.0252,6.5695,0.0537,9.8543,0.0842c1.6331,0.0152,3.2662,0.0308,4.8993,0.0467    c0.6891,0.0067,1.3799,0.0322,2.0682-0.0029c0.6096-0.0311,1.2879-0.1526,1.8814,0.0416    c0.3237-0.1064,0.4541,0.0125,0.3912,0.3566c0.0327,0.2359,0.0528,0.4728,0.0603,0.7108    C145.4968,122.4624,145.4608,122.9319,145.3573,123.3888z" fill="#000000" data-original="#000000"/>
		<path class="st53" d="M113.2272,108.9625c-0.1105,1.9785-0.1566,3.9597-0.1899,5.9408c-0.0155,0.9245-0.0277,1.8491-0.0424,2.7736    c-0.0072,0.4503,0.2212,1.8266-0.2024,2.1398c-0.3433,0.2538-1.5247-0.0319-1.9074-0.0806    c-0.9614-0.1224-1.9115-0.3634-2.818-0.7056c-1.5543-0.5866-2.8796-1.5097-4.0716-2.6559    c-2.0078-1.9308-3.9674-4.6659-3.2125-7.5933c0.4845-1.8787,2.0976-4.7723,4.4584-4.1937c1.522,0.373,2.3078,1.9974,3.3621,3.0032    C109.8539,108.7837,111.5143,109.4183,113.2272,108.9625z" fill="#000000" data-original="#000000"/>
		<path class="st53" d="M100.5075,182.5846c-0.306,0.4279-2.1956,0.1678-2.6193,0.1765c-1.3316,0.0274-2.6633,0.0469-3.9951,0.0574    c-2.7314,0.0215-5.4633,0.0048-8.1939-0.0651c0.294-3.9944,0.2352-8.0255,0.2159-12.0277    c2.0678,0.1142,3.0329,2.6302,4.5205,3.7179c1.1689,0.8547,2.4883,0.9209,3.8575,0.6142    c1.0833-0.2426,2.1922-0.7571,3.3216-0.6446C101.0819,174.7586,102.3086,180.0763,100.5075,182.5846z" fill="#000000" data-original="#000000"/>
		<path class="st53" d="M70.0203,120.7867c3.9663-0.0331,7.9326-0.0617,11.8989-0.0844c-0.1401,2.163-0.2471,4.3257-0.3305,6.4906    c-0.0308,0.8009,0.0796,1.1739-0.7642,1.166c-1.0119-0.0095-2.0715-0.2394-3.0353-0.5335    C74.3335,126.7709,71.462,124.0817,70.0203,120.7867z" fill="#000000" data-original="#000000"/>
		<path class="st53" d="M88.3663,124.9127c-0.7601,1.0584-1.7703,1.9226-2.937,2.5038c-0.0473-3.5741-0.1-7.1556-0.2962-10.7252    C88.7683,116.6912,90.22,122.3313,88.3663,124.9127z" fill="#000000" data-original="#000000"/>
		<path class="st53" d="M63.6162,144.3659c-4.3939-0.0411-8.7877-0.0865-13.1816-0.1292c-1.0374-0.0101-2.0749-0.02-3.1123-0.0295    c-0.5473-0.005-1.8473,0.2567-2.3455-0.0198c-0.7877-0.4373-1.0167-2.2988-1-3.1137c0.041-2.0078,1.3962-5.2103,3.6163-5.6252    c1.4346-0.2681,2.5126,0.9296,3.3567,1.906c1.1667,1.3496,2.4332,2.6233,4.3386,2.6747c1.9982,0.0539,4.0442-1.6899,5.9727-0.5171    C62.8544,140.4812,63.5594,142.5899,63.6162,144.3659z" fill="#000000" data-original="#000000"/>
		<path class="st53" d="M36.6612,124.9127c-2.2636,3.1239-6.3501,3.9753-9.9478,3.0887c-0.233-0.0578-0.4642-0.1223-0.6934-0.1935    c-0.3526,0.0056-0.4653-0.1607-0.3383-0.4989c-0.2337-0.8699,0.0339-2.1479,0.0552-3.0509    c0.0269-1.1392,0.0596-2.2783,0.0912-3.4174c3.185,0.2578,6.4379,0.2956,9.6323,0.2166c0.7424-0.0184,1.9211-0.3434,2.0482,0.6322    C37.6428,122.7201,37.2481,124.0946,36.6612,124.9127z" fill="#000000" data-original="#000000"/>
		<path class="st53" d="M94.0056,158.1005c-0.618,1.916-2.4921,2.758-4.1357,3.6229c-1.6144,0.8495-2.6324,2.0547-1.8346,3.9149    c0.8055,1.8783,2.7354,3.4161,4.7895,3.6126c2.0965,0.2006,4.3109-0.6894,6.0837-1.7428    c3.1147-1.8507,5.4884-5.0749,5.8415-8.7381c0.3099-3.2155-0.9107-6.9307-4.3679-7.7829c-1.8663-0.46-4.7089-0.2374-5.7849,1.6221    C93.6378,154.2671,94.5747,156.3355,94.0056,158.1005z" fill="#000000" data-original="#000000"/>
		<path class="st53" d="M108.6653,97.4456c-0.974,1.2289-2.7433,0.7757-4.0712,0.6228c-1.6697-0.1922-3.5291-0.0927-4.7871,1.1659    c-1.0773,1.0778-1.4035,2.7505-2.6528,3.6781c-1.4961,1.1108-3.5299,0.4384-4.9454-0.4728    c-0.6923-0.4457-1.2903-1.0037-1.7982-1.6504c-0.4825-0.6145-0.5337-0.8712-0.1651-1.5594    c0.9516-1.7768,1.7084-3.6648,2.4308-5.5462c0.3647-0.9499,0.6152-2.0192,1.0692-2.9271    c0.3693-0.7386,1.1252-1.0598,1.8499-1.3662c1.8229-0.7706,3.7089-1.1176,5.6887-1.0037c1.1219,0.0645,2.226,0.2585,3.3013,0.5849    c0.9436,0.2865,1.1649,0.7389,1.4428,1.6601C106.7297,92.957,107.6913,95.2229,108.6653,97.4456z" fill="#000000" data-original="#000000"/>
		<path class="st53" d="M168.333,44.1128c-0.0112,0.9614-1.679,1.2397-2.3641,1.3703c-1.1586,0.2209-2.3569,0.3004-3.5315,0.1842    c-3.579-0.3539-6.8278-2.3781-8.9202-5.2751c-1.7256-2.3893-2.1346-4.9638-0.7127-7.5875    c0.5348-0.9869,1.3581-2.0505,2.5038-2.3346c1.4421-0.3576,2.5809,0.7473,3.4432,1.7475    c1.1934,1.3841,2.4022,2.7065,4.3636,2.7812c0.9311,0.0355,1.7531-0.2491,2.6065-0.5748    c0.4182-0.1596,0.8641-0.3516,1.3163-0.3823c0.1028-0.007,0.9173,0.1306,0.9376,0.0878c0.0109-0.0232-0.1591-0.0904-0.1666-0.0332    c-0.0384,0.2914,0.1432,0.8657,0.1705,1.1952c0.0789,0.952,0.1807,1.9001,0.2364,2.8544    C168.3317,40.1325,168.3539,42.1233,168.333,44.1128z" fill="#000000" data-original="#000000"/>
		<path class="st53" d="M89.9954,61.9065c-5.3435-1.3834-12.4682-9.186-6.5037-14.0724c1.3182-1.08,2.6857-0.9407,3.9039,0.184    c0.5938,0.5483,0.5342,0.7343,0.3261,1.4859c-0.1997,0.7216-0.2799,1.4919-0.3356,2.2363    C87.1205,55.2918,87.9884,58.9467,89.9954,61.9065z" fill="#000000" data-original="#000000"/>
		<path class="st53" d="M125.4265,30.8547c-0.57,3.4073-2.8048,6.4897-5.8087,8.1641c-2.6232,1.4622-6.5095,2.716-9.2183,0.7812    c4.3143-5.094,9.0077-9.863,14.5066-13.6872C125.5401,27.6059,125.6929,29.2599,125.4265,30.8547z" fill="#000000" data-original="#000000"/>
		<path class="st53" d="M143.8624,73.382c-0.0788,1.6926-0.6413,3.3405-1.4907,4.7982c-0.3099,0.5319-0.8508,1.6675-1.4297,1.9445    c-0.4706,0.2252-1.0377-0.0361-1.5209-0.1559c-3.5992-0.8924-7.0716-2.2473-10.3781-3.9196    c1.9727-0.6576,3.9273-1.702,4.459-3.8759c0.4107-1.6793,0.0635-3.8826,1.6409-5.0345c1.8097-1.3215,4.8409-0.8858,6.5276,0.4357    C143.3774,68.9115,143.9667,71.3034,143.8624,73.382z" fill="#000000" data-original="#000000"/>
		<g class="st11">
			<path class="st12" d="M164.0578,37.8517c2.4187,0.0151,2.4419-3.8751,0.0234-3.8898     C161.6637,33.9473,161.6375,37.8366,164.0578,37.8517z" fill="#000000" data-original="#000000"/>
		</g>
		<g class="st11">
			<path class="st12" d="M140.6119,28.4999c2.4188,0.0151,2.4419-3.8751,0.0234-3.8898     C138.2179,24.5955,138.1917,28.4848,140.6119,28.4999z" fill="#000000" data-original="#000000"/>
		</g>
		<g class="st11">
			<path class="st12" d="M66.8637,34.3148c2.4188,0.0151,2.4419-3.8751,0.0234-3.8898     C64.4696,30.4104,64.4434,34.2998,66.8637,34.3148z" fill="#000000" data-original="#000000"/>
		</g>
		<g class="st11">
			<path class="st12" d="M39.2584,53.1332c2.4188,0.0151,2.4419-3.8751,0.0234-3.8898     C36.8644,49.2288,36.8382,53.1181,39.2584,53.1332z" fill="#000000" data-original="#000000"/>
		</g>
		<g class="st11">
			<path class="st12" d="M66.7281,56.824c2.4188,0.0151,2.4419-3.8751,0.0234-3.8898     C64.3341,52.9196,64.3079,56.8089,66.7281,56.824z" fill="#000000" data-original="#000000"/>
		</g>
		<g class="st11">
			<path class="st12" d="M58.8125,78.1636c2.4188,0.0151,2.4419-3.8751,0.0234-3.8898     C56.4185,74.2592,56.3923,78.1485,58.8125,78.1636z" fill="#000000" data-original="#000000"/>
		</g>
		<g class="st11">
			<path class="st12" d="M87.9168,78.9604c2.4188,0.0151,2.4419-3.8751,0.0234-3.8898     C85.5228,75.0559,85.4966,78.9453,87.9168,78.9604z" fill="#000000" data-original="#000000"/>
		</g>
		<g class="st11">
			<path class="st12" d="M75.2038,103.8155c2.4188,0.0151,2.4419-3.8751,0.0234-3.8898     C72.8098,99.9111,72.7836,103.8004,75.2038,103.8155z" fill="#000000" data-original="#000000"/>
		</g>
		<g class="st11">
			<path class="st12" d="M113.8322,75.232c2.4188,0.0151,2.4419-3.8751,0.0234-3.8898     C111.4382,71.3276,111.412,75.2169,113.8322,75.232z" fill="#000000" data-original="#000000"/>
		</g>
		<g class="st11">
			<path class="st12" d="M125.6946,103.5377c2.4188,0.0151,2.4419-3.8751,0.0234-3.8898     C123.3006,99.6333,123.2744,103.5226,125.6946,103.5377z" fill="#000000" data-original="#000000"/>
		</g>
		<g class="st11">
			<path class="st12" d="M100.7718,92.6803c2.4188,0.0151,2.4419-3.8751,0.0234-3.8898     C98.3778,88.7758,98.3516,92.6652,100.7718,92.6803z" fill="#000000" data-original="#000000"/>
		</g>
		<g class="st11">
			<path class="st12" d="M44.9732,139.9965c2.4188,0.0151,2.4419-3.8751,0.0234-3.8898     C42.5791,136.0921,42.5529,139.9815,44.9732,139.9965z" fill="#000000" data-original="#000000"/>
		</g>
		<g class="st11">
			<path class="st12" d="M93.3144,177.6493c2.4188,0.0151,2.4419-3.8751,0.0234-3.8898     C90.9203,173.7449,90.8941,177.6342,93.3144,177.6493z" fill="#000000" data-original="#000000"/>
		</g>
		<g class="st11">
			<path class="st12" d="M108.5663,129.3047c2.4188,0.0151,2.4419-3.8751,0.0234-3.8898     C106.1723,125.4003,106.1461,129.2896,108.5663,129.3047z" fill="#000000" data-original="#000000"/>
		</g>
		<g class="st11">
			<path class="st12" d="M145.7,127.2501c2.4187,0.0151,2.4419-3.8751,0.0234-3.8898     C143.306,123.3457,143.2798,127.235,145.7,127.2501z" fill="#000000" data-original="#000000"/>
		</g>
		<g class="st11">
			<path class="st12" d="M163.3787,141.9415c2.4187,0.0151,2.4419-3.8751,0.0234-3.8898     C160.9847,138.037,160.9585,141.9264,163.3787,141.9415z" fill="#000000" data-original="#000000"/>
		</g>
		<g class="st11">
			<path class="st12" d="M58.8125,127.3597c2.4188,0.0151,2.4419-3.8751,0.0234-3.8898     C56.4185,123.4553,56.3923,127.3447,58.8125,127.3597z" fill="#000000" data-original="#000000"/>
		</g>
		<g class="st13">
			<path class="st12" d="M68.725,31.9418c2.4187,0.0151,2.4419-3.8751,0.0234-3.8898     C66.3309,28.0373,66.3047,31.9267,68.725,31.9418z" fill="#000000" data-original="#000000"/>
		</g>
		<g class="st13">
			<path class="st12" d="M42.1119,51.8701c2.4188,0.0151,2.4419-3.8751,0.0234-3.8898     C39.7178,47.9657,39.6916,51.855,42.1119,51.8701z" fill="#000000" data-original="#000000"/>
		</g>
		<g class="st13">
			<path class="st12" d="M62.3856,59.0892c2.4187,0.0151,2.4419-3.8751,0.0234-3.8898     C59.9916,55.1848,59.9653,59.0741,62.3856,59.0892z" fill="#000000" data-original="#000000"/>
		</g>
		<g class="st13">
			<path class="st12" d="M60.4371,76.2288c2.4188,0.0151,2.4419-3.8751,0.0234-3.8898     C58.043,72.3243,58.0168,76.2137,60.4371,76.2288z" fill="#000000" data-original="#000000"/>
		</g>
		<g class="st13">
			<path class="st12" d="M89.3033,79.9377c2.4188,0.0151,2.4419-3.8751,0.0234-3.8898     C86.9092,76.0333,86.883,79.9226,89.3033,79.9377z" fill="#000000" data-original="#000000"/>
		</g>
		<g class="st13">
			<path class="st12" d="M73.2274,105.7481c2.4188,0.0151,2.4419-3.8751,0.0234-3.8898     C70.8333,101.8437,70.8071,105.7331,73.2274,105.7481z" fill="#000000" data-original="#000000"/>
		</g>
		<g class="st13">
			<path class="st12" d="M111.6477,77.5711c2.4188,0.0151,2.4419-3.8751,0.0234-3.8898     C109.2536,73.6667,109.2274,77.556,111.6477,77.5711z" fill="#000000" data-original="#000000"/>
		</g>
		<g class="st13">
			<path class="st12" d="M124.2878,106.0664c2.4188,0.0151,2.4419-3.8751,0.0234-3.8898     C121.8938,102.162,121.8675,106.0513,124.2878,106.0664z" fill="#000000" data-original="#000000"/>
		</g>
		<g class="st13">
			<path class="st12" d="M98.9249,89.9346c2.4188,0.0151,2.4419-3.8751,0.0234-3.8898     C96.5308,86.0302,96.5045,89.9195,98.9249,89.9346z" fill="#000000" data-original="#000000"/>
		</g>
		<g class="st13">
			<path class="st12" d="M107.2329,126.5872c2.4188,0.0151,2.4419-3.8751,0.0234-3.8898     C104.8389,122.6828,104.8126,126.5722,107.2329,126.5872z" fill="#000000" data-original="#000000"/>
		</g>
		<g class="st13">
			<path class="st12" d="M91.4674,180.7881c2.4188,0.0151,2.4419-3.8751,0.0234-3.8898     C89.0734,176.8837,89.0471,180.773,91.4674,180.7881z" fill="#000000" data-original="#000000"/>
		</g>
		<g class="st13">
			<path class="st12" d="M142.9747,128.9062c2.4187,0.0151,2.4419-3.8751,0.0234-3.8897     C140.5806,125.0018,140.5544,128.8911,142.9747,128.9062z" fill="#000000" data-original="#000000"/>
		</g>
		<g class="st13">
			<path class="st12" d="M165.8893,143.0878c2.4187,0.0151,2.4419-3.8751,0.0234-3.8898     C163.4952,139.1833,163.469,143.0727,165.8893,143.0878z" fill="#000000" data-original="#000000"/>
		</g>
		<g class="st13">
			<path class="st12" d="M56.3159,127.3597c2.4188,0.0151,2.4419-3.8751,0.0234-3.8898     C53.9219,123.4553,53.8956,127.3447,56.3159,127.3597z" fill="#000000" data-original="#000000"/>
		</g>
		<g class="st13">
			<path class="st12" d="M41.1054,141.2775c2.4188,0.0151,2.4419-3.8751,0.0234-3.8898     C38.7113,137.3731,38.6851,141.2624,41.1054,141.2775z" fill="#000000" data-original="#000000"/>
		</g>
		<g class="st13">
			<path class="st12" d="M141.1277,61.4066c2.4188,0.0151,2.4419-3.8751,0.0234-3.8898     C138.7337,57.5022,138.7074,61.3915,141.1277,61.4066z" fill="#000000" data-original="#000000"/>
		</g>
		<g class="st13">
			<path class="st12" d="M161.1068,40.4118c2.4187,0.0151,2.4419-3.8751,0.0234-3.8898     C158.7127,36.5074,158.6865,40.3968,161.1068,40.4118z" fill="#000000" data-original="#000000"/>
		</g>
		<g class="st13">
			<path class="st12" d="M138.1951,30.4298c2.4187,0.0151,2.4419-3.8751,0.0234-3.8898     C135.801,26.5254,135.7748,30.4147,138.1951,30.4298z" fill="#000000" data-original="#000000"/>
		</g>
		<g class="st14">
			<path class="st12" d="M153.2317,42.0147c1.7487,0.0109,1.7607-2.7936,0.0169-2.8082     C151.5061,39.1918,151.4811,42.0038,153.2317,42.0147z" fill="#000000" data-original="#000000"/>
		</g>
		<g class="st14">
			<path class="st12" d="M127.9973,27.8805c1.7487,0.0109,1.7607-2.7936,0.0169-2.8082     C126.2718,25.0576,126.2467,27.8696,127.9973,27.8805z" fill="#000000" data-original="#000000"/>
		</g>
		<g class="st14">
			<path class="st12" d="M148.1176,69.7646c1.7487,0.0109,1.7607-2.7936,0.0169-2.8082     C146.392,66.9418,146.367,69.7537,148.1176,69.7646z" fill="#000000" data-original="#000000"/>
		</g>
		<g class="st14">
			<path class="st12" d="M119.3019,55.6241c1.7487,0.0109,1.7607-2.7936,0.0169-2.8082     C117.5763,52.8013,117.5513,55.6132,119.3019,55.6241z" fill="#000000" data-original="#000000"/>
		</g>
		<g class="st14">
			<path class="st12" d="M135.0179,44.5738c1.7487,0.0109,1.7607-2.7936,0.0169-2.8082     C133.2924,41.7509,133.2673,44.5629,135.0179,44.5738z" fill="#000000" data-original="#000000"/>
		</g>
		<g class="st14">
			<path class="st12" d="M127.9973,89.7637c1.7487,0.0109,1.7607-2.7936,0.0169-2.8082     C126.2718,86.9408,126.2467,89.7528,127.9973,89.7637z" fill="#000000" data-original="#000000"/>
		</g>
		<g class="st14">
			<path class="st12" d="M104.4881,103.5807c1.7487,0.0109,1.7607-2.7936,0.0169-2.8082     C102.7626,100.7578,102.7375,103.5698,104.4881,103.5807z" fill="#000000" data-original="#000000"/>
		</g>
		<g class="st14">
			<path class="st12" d="M92.8134,143.3456c1.7487,0.0109,1.7607-2.7936,0.0169-2.8082     C91.0879,140.5228,91.0628,143.3347,92.8134,143.3456z" fill="#000000" data-original="#000000"/>
		</g>
		<g class="st14">
			<path class="st12" d="M108.5696,179.0535c1.7487,0.0109,1.7607-2.7936,0.0169-2.8082     C106.8441,176.2306,106.819,179.0426,108.5696,179.0535z" fill="#000000" data-original="#000000"/>
		</g>
		<g class="st14">
			<path class="st12" d="M58.1661,139.4558c1.7487,0.0109,1.7607-2.7936,0.0169-2.8082     C56.4406,136.6329,56.4156,139.4449,58.1661,139.4558z" fill="#000000" data-original="#000000"/>
		</g>
		<g class="st14">
			<path class="st12" d="M123.7283,141.4007c1.7487,0.0109,1.7607-2.7936,0.0169-2.8082     C122.0028,138.5778,121.9778,141.3898,123.7283,141.4007z" fill="#000000" data-original="#000000"/>
		</g>
		<g class="st14">
			<path class="st12" d="M155.8308,134.4693c1.7487,0.0109,1.7607-2.7936,0.0169-2.8082     C154.1053,131.6465,154.0802,134.4584,155.8308,134.4693z" fill="#000000" data-original="#000000"/>
		</g>
		<g class="st14">
			<path class="st12" d="M70.6684,90.8553c1.7487,0.0109,1.7607-2.7936,0.0169-2.8082     C68.9429,88.0324,68.9178,90.8443,70.6684,90.8553z" fill="#000000" data-original="#000000"/>
		</g>
		<g class="st14">
			<path class="st12" d="M54.9857,45.3922c1.7487,0.0109,1.7607-2.7936,0.0169-2.8082     C53.2602,42.5693,53.2351,45.3813,54.9857,45.3922z" fill="#000000" data-original="#000000"/>
		</g>
		<g class="st14">
			<path class="st12" d="M32.6483,58.8421c1.7487,0.0109,1.7607-2.7936,0.0169-2.8082     C30.9228,56.0192,30.8977,58.8312,32.6483,58.8421z" fill="#000000" data-original="#000000"/>
		</g>
		<g class="st14">
			<path class="st12" d="M82.2654,59.4214c1.7487,0.0109,1.7607-2.7936,0.0169-2.8082     C80.5399,56.5985,80.5149,59.4105,82.2654,59.4214z" fill="#000000" data-original="#000000"/>
		</g>
		<g class="st14">
			<path class="st12" d="M71.4713,44.5738c1.7487,0.0109,1.7607-2.7936,0.0169-2.8082     C69.7457,41.7509,69.7207,44.5629,71.4713,44.5738z" fill="#000000" data-original="#000000"/>
		</g>
		<g class="st14">
			<path class="st12" d="M47.1671,33.7226c3.8457,0.024,3.8829-6.164,0.0372-6.1823     C43.3612,27.5221,43.3186,33.6986,47.1671,33.7226z" fill="#000000" data-original="#000000"/>
		</g>
		<g class="st14">
			<path class="st12" d="M82.2553,44.158c3.8457,0.024,3.8829-6.164,0.0372-6.1823C78.4494,37.9574,78.4067,44.134,82.2553,44.158z" fill="#000000" data-original="#000000"/>
		</g>
		<g class="st14">
			<path class="st12" d="M73.4283,72.392c3.8457,0.024,3.8829-6.164,0.0372-6.1823C69.6224,66.1915,69.5797,72.368,73.4283,72.392z" fill="#000000" data-original="#000000"/>
		</g>
		<g class="st14">
			<path class="st12" d="M42.6852,66.207c3.8457,0.024,3.8829-6.164,0.0372-6.1823C38.8792,60.0065,38.8366,66.1831,42.6852,66.207z     " fill="#000000" data-original="#000000"/>
		</g>
		<g class="st14">
			<path class="st12" d="M154.6169,27.6512c3.8457,0.024,3.8828-6.164,0.0372-6.1823     C150.8109,21.4506,150.7683,27.6272,154.6169,27.6512z" fill="#000000" data-original="#000000"/>
		</g>
		<g class="st14">
			<path class="st12" d="M123.2407,41.3221c3.8457,0.024,3.8829-6.164,0.0372-6.1823     C119.4348,35.1216,119.3922,41.2982,123.2407,41.3221z" fill="#000000" data-original="#000000"/>
		</g>
		<g class="st14">
			<path class="st12" d="M128.8644,72.7375c3.8457,0.024,3.8829-6.164,0.0372-6.1823     C125.0584,66.537,125.0158,72.7135,128.8644,72.7375z" fill="#000000" data-original="#000000"/>
		</g>
		<g class="st14">
			<path class="st12" d="M168.2106,137.5605c3.8457,0.024,3.8828-6.164,0.0372-6.1823     C164.4047,131.3599,164.362,137.5365,168.2106,137.5605z" fill="#000000" data-original="#000000"/>
		</g>
		<g class="st14">
			<path class="st12" d="M141.1208,142.4237c3.8457,0.024,3.8829-6.164,0.0372-6.1823     C137.3149,136.2232,137.2723,142.3997,141.1208,142.4237z" fill="#000000" data-original="#000000"/>
		</g>
		<g class="st14">
			<path class="st12" d="M122.4339,128.506c3.8457,0.024,3.8829-6.164,0.0372-6.1823     C118.628,122.3054,118.5854,128.482,122.4339,128.506z" fill="#000000" data-original="#000000"/>
		</g>
		<g class="st14">
			<path class="st12" d="M92.8033,119.5637c3.8457,0.024,3.8829-6.164,0.0372-6.1823     C88.9973,113.3631,88.9547,119.5397,92.8033,119.5637z" fill="#000000" data-original="#000000"/>
		</g>
		<g class="st14">
			<path class="st12" d="M106.3365,168.0464c3.8457,0.024,3.8829-6.164,0.0372-6.1823     C102.5306,161.8458,102.488,168.0224,106.3365,168.0464z" fill="#000000" data-original="#000000"/>
		</g>
		<g class="st14">
			<path class="st12" d="M75.1969,141.1428c3.8457,0.024,3.8829-6.164,0.0372-6.1823     C71.391,134.9422,71.3484,141.1188,75.1969,141.1428z" fill="#000000" data-original="#000000"/>
		</g>
		<g class="st14">
			<path class="st12" d="M33.9716,130.0524c3.8457,0.024,3.8829-6.1639,0.0372-6.1823     C30.1657,123.8519,30.1231,130.0284,33.9716,130.0524z" fill="#000000" data-original="#000000"/>
		</g>
		<g class="st14">
			<path class="st12" d="M156.8707,66.035c3.8457,0.024,3.8829-6.164,0.0372-6.1823     C153.0648,59.8344,153.0222,66.011,156.8707,66.035z" fill="#000000" data-original="#000000"/>
		</g>
		<g class="st14">
			<path class="st12" d="M81.9814,89.6248c3.8457,0.024,3.8829-6.164,0.0372-6.1823     C78.1755,83.4242,78.1329,89.6008,81.9814,89.6248z" fill="#000000" data-original="#000000"/>
		</g>
		<g class="st14">
			<path class="st12" d="M115.223,91.0809c3.8457,0.024,3.8829-6.164,0.0372-6.1823     C111.4171,84.8803,111.3744,91.0569,115.223,91.0809z" fill="#000000" data-original="#000000"/>
		</g>
		<g class="st14">
			<path class="st12" d="M58.7095,95.2678c3.8457,0.024,3.8829-6.164,0.0372-6.1823     C54.9036,89.0672,54.8609,95.2438,58.7095,95.2678z" fill="#000000" data-original="#000000"/>
		</g>
		<g class="st14">
			<path class="st12" d="M143.8532,96.294c3.8457,0.024,3.8829-6.164,0.0372-6.1823     C140.0472,90.0934,140.0046,96.27,143.8532,96.294z" fill="#000000" data-original="#000000"/>
		</g>
		<g class="st15">
			<path class="st12" d="M151.285,31.2803c3.8457,0.024,3.8828-6.164,0.0372-6.1823     C147.479,25.0797,147.4364,31.2563,151.285,31.2803z" fill="#000000" data-original="#000000"/>
		</g>
		<g class="st15">
			<path class="st12" d="M51.2995,31.0254c3.8457,0.024,3.8829-6.164,0.0372-6.1823     C47.4935,24.8248,47.4509,31.0014,51.2995,31.0254z" fill="#000000" data-original="#000000"/>
		</g>
		<g class="st15">
			<path class="st12" d="M47.9018,65.3558c3.8457,0.024,3.8828-6.164,0.0372-6.1823     C44.0959,59.1552,44.0533,65.3318,47.9018,65.3558z" fill="#000000" data-original="#000000"/>
		</g>
		<g class="st15">
			<path class="st12" d="M81.0752,41.0593c3.8457,0.024,3.8829-6.164,0.0372-6.1823     C77.2693,34.8588,77.2266,41.0354,81.0752,41.0593z" fill="#000000" data-original="#000000"/>
		</g>
		<g class="st15">
			<path class="st12" d="M76.3812,69.5083c3.8457,0.024,3.8829-6.164,0.0372-6.1823     C72.5753,63.3077,72.5327,69.4843,76.3812,69.5083z" fill="#000000" data-original="#000000"/>
		</g>
		<g class="st15">
			<path class="st12" d="M84.9308,87.3397c3.8457,0.024,3.8829-6.164,0.0372-6.1823     C81.1248,81.1392,81.0822,87.3157,84.9308,87.3397z" fill="#000000" data-original="#000000"/>
		</g>
		<g class="st15">
			<path class="st12" d="M55.7717,95.644c3.8457,0.024,3.8829-6.164,0.0372-6.1823C51.9657,89.4434,51.9231,95.62,55.7717,95.644z" fill="#000000" data-original="#000000"/>
		</g>
		<g class="st15">
			<path class="st12" d="M34.9345,135.6965c3.8457,0.024,3.8829-6.164,0.0372-6.1823     C31.1286,129.496,31.0859,135.6725,34.9345,135.6965z" fill="#000000" data-original="#000000"/>
		</g>
		<g class="st15">
			<path class="st12" d="M70.6583,138.7877c3.8457,0.024,3.8829-6.164,0.0372-6.1823     C66.8523,132.5872,66.8097,138.7637,70.6583,138.7877z" fill="#000000" data-original="#000000"/>
		</g>
		<g class="st15">
			<path class="st12" d="M93.3075,122.9768c3.8457,0.024,3.8829-6.164,0.0372-6.1823     C89.5016,116.7763,89.4589,122.9528,93.3075,122.9768z" fill="#000000" data-original="#000000"/>
		</g>
		<g class="st15">
			<path class="st12" d="M126.6537,131.4876c3.8457,0.024,3.8829-6.164,0.0372-6.1823     C122.8478,125.287,122.8052,131.4636,126.6537,131.4876z" fill="#000000" data-original="#000000"/>
		</g>
		<g class="st15">
			<path class="st12" d="M144.2222,141.1428c3.8457,0.024,3.8829-6.164,0.0372-6.1823     C140.4163,134.9422,140.3737,141.1188,144.2222,141.1428z" fill="#000000" data-original="#000000"/>
		</g>
		<g class="st15">
			<path class="st12" d="M170.3192,134.0954c3.8457,0.024,3.8828-6.164,0.0372-6.1823     C166.5133,127.8948,166.4707,134.0714,170.3192,134.0954z" fill="#000000" data-original="#000000"/>
		</g>
		<g class="st15">
			<path class="st12" d="M115.8978,86.745c3.8457,0.024,3.8829-6.164,0.0372-6.1823     C112.0919,80.5444,112.0492,86.721,115.8978,86.745z" fill="#000000" data-original="#000000"/>
		</g>
		<g class="st15">
			<path class="st12" d="M148.6287,97.4715c3.8457,0.024,3.8828-6.164,0.0372-6.1823     C144.8227,91.271,144.7801,97.4476,148.6287,97.4715z" fill="#000000" data-original="#000000"/>
		</g>
		<g class="st15">
			<path class="st12" d="M125.8813,72.5546c3.8457,0.024,3.8829-6.164,0.0372-6.1823     C122.0753,66.354,122.0327,72.5306,125.8813,72.5546z" fill="#000000" data-original="#000000"/>
		</g>
		<g class="st15">
			<path class="st12" d="M156.8973,61.6235c3.8457,0.024,3.8829-6.164,0.0372-6.1823     C153.0914,55.423,153.0488,61.5996,156.8973,61.6235z" fill="#000000" data-original="#000000"/>
		</g>
		<g class="st15">
			<path class="st12" d="M123.2719,36.148c3.8457,0.024,3.8829-6.164,0.0372-6.1823     C119.466,29.9475,119.4233,36.1241,123.2719,36.148z" fill="#000000" data-original="#000000"/>
		</g>
		<path class="st12" d="M52.2604,73.154c1.0658-0.7515,2.1317-1.503,3.1975-2.2545c-0.7859-0.0818-1.5734-0.1888-2.3621-0.2386    c-0.5821-0.0368-1.2852,0.0355-1.8103-0.2752c-0.5337-0.3159-0.8012-0.9754-1.1116-1.4778    c-0.4202-0.6802-0.8914-1.3321-1.339-1.9945c-0.0804,0.7991-0.1867,1.5999-0.2342,2.4018    c-0.035,0.5921,0.0423,1.3074-0.2745,1.8415c-0.3145,0.5303-0.9666,0.8086-1.4613,1.1279    c-0.6653,0.4295-1.3016,0.9092-1.9487,1.3656c0.7831,0.0835,1.5679,0.1926,2.3539,0.2436    c0.5836,0.0379,1.2933-0.0361,1.8183,0.2796c0.5296,0.3184,0.7981,0.9821,1.1093,1.482c0.4207,0.6759,0.893,1.3232,1.3414,1.981    c0.0916-0.911,0.199-1.8211,0.2497-2.7351C51.8177,74.3802,51.7533,73.4883,52.2604,73.154z" fill="#000000" data-original="#000000"/>
		<path class="st12" d="M64.1352,26.9444c1.0658-0.7515,2.1317-1.503,3.1975-2.2545c-0.7859-0.0818-1.5734-0.1888-2.3621-0.2386    c-0.5821-0.0368-1.2852,0.0355-1.8103-0.2752c-0.5337-0.3159-0.8012-0.9754-1.1116-1.4777    c-0.4202-0.6802-0.8914-1.3321-1.339-1.9945c-0.0804,0.7991-0.1867,1.5999-0.2342,2.4018    c-0.035,0.5921,0.0423,1.3074-0.2745,1.8415c-0.3145,0.5303-0.9666,0.8086-1.4613,1.1279    c-0.6653,0.4295-1.3016,0.9092-1.9487,1.3656c0.7831,0.0835,1.5679,0.1926,2.3539,0.2436    c0.5836,0.0379,1.2933-0.0361,1.8183,0.2796c0.5296,0.3184,0.7981,0.9821,1.1093,1.482c0.4207,0.6759,0.893,1.3232,1.3414,1.981    c0.0916-0.911,0.199-1.8211,0.2497-2.7351C63.6925,28.1706,63.6281,27.2787,64.1352,26.9444z" fill="#000000" data-original="#000000"/>
		<path class="st12" d="M146.3141,32.8097c1.0658-0.7515,2.1317-1.503,3.1975-2.2545c-0.7859-0.0818-1.5734-0.1888-2.3621-0.2386    c-0.5821-0.0368-1.2852,0.0355-1.8103-0.2752c-0.5337-0.3159-0.8012-0.9754-1.1116-1.4777    c-0.4202-0.6802-0.8914-1.3321-1.339-1.9945c-0.0804,0.7991-0.1867,1.5999-0.2342,2.4018    c-0.035,0.5921,0.0423,1.3074-0.2745,1.8415c-0.3145,0.5303-0.9666,0.8086-1.4613,1.1279    c-0.6653,0.4295-1.3016,0.9092-1.9487,1.3656c0.7831,0.0835,1.5679,0.1926,2.3539,0.2436    c0.5836,0.0379,1.2934-0.0361,1.8183,0.2796c0.5296,0.3184,0.7981,0.9821,1.1093,1.482c0.4207,0.6759,0.893,1.3232,1.3414,1.981    c0.0916-0.911,0.199-1.8211,0.2497-2.7351C145.8714,34.0359,145.807,33.144,146.3141,32.8097z" fill="#000000" data-original="#000000"/>
		<path class="st12" d="M98.4216,105.8997c1.0658-0.7515,2.1317-1.503,3.1975-2.2545c-0.7859-0.0818-1.5734-0.1888-2.3621-0.2386    c-0.5821-0.0368-1.2852,0.0355-1.8103-0.2752c-0.5337-0.3159-0.8012-0.9754-1.1116-1.4778    c-0.4202-0.6802-0.8914-1.3321-1.339-1.9945c-0.0804,0.7991-0.1867,1.5999-0.2342,2.4018    c-0.035,0.5921,0.0423,1.3074-0.2745,1.8415c-0.3145,0.5303-0.9666,0.8086-1.4613,1.1279    c-0.6653,0.4295-1.3016,0.9092-1.9487,1.3656c0.7831,0.0835,1.5679,0.1926,2.3539,0.2436    c0.5836,0.0379,1.2934-0.0361,1.8183,0.2796c0.5296,0.3184,0.7981,0.9821,1.1093,1.482c0.4207,0.6759,0.893,1.3232,1.3414,1.981    c0.0916-0.911,0.199-1.8211,0.2497-2.7351C97.9789,107.1259,97.9145,106.234,98.4216,105.8997z" fill="#000000" data-original="#000000"/>
		<path class="st12" d="M96.2286,162.5433c1.0658-0.7515,2.1317-1.503,3.1975-2.2545c-0.7859-0.0818-1.5734-0.1888-2.3621-0.2386    c-0.5821-0.0368-1.2852,0.0355-1.8103-0.2752c-0.5337-0.3159-0.8012-0.9754-1.1116-1.4778    c-0.4202-0.6802-0.8914-1.3321-1.339-1.9945c-0.0804,0.7991-0.1867,1.5999-0.2342,2.4018    c-0.035,0.5921,0.0423,1.3074-0.2745,1.8415c-0.3145,0.5303-0.9666,0.8086-1.4613,1.1279    c-0.6653,0.4295-1.3016,0.9092-1.9487,1.3656c0.7831,0.0835,1.5679,0.1926,2.3539,0.2437    c0.5836,0.0379,1.2934-0.0361,1.8183,0.2796c0.5296,0.3184,0.7981,0.9821,1.1093,1.482c0.4207,0.6759,0.893,1.3232,1.3414,1.981    c0.0916-0.911,0.199-1.8211,0.2497-2.7351C95.7859,163.7695,95.7215,162.8776,96.2286,162.5433z" fill="#000000" data-original="#000000"/>
		<path class="st12" d="M132.4614,61.1389c1.0658-0.7515,2.1317-1.503,3.1975-2.2545c-0.7859-0.0818-1.5734-0.1888-2.3621-0.2386    c-0.5821-0.0368-1.2852,0.0355-1.8103-0.2752c-0.5337-0.3159-0.8012-0.9754-1.1116-1.4777    c-0.4202-0.6802-0.8914-1.3321-1.339-1.9945c-0.0804,0.7991-0.1867,1.5999-0.2342,2.4018    c-0.035,0.5921,0.0423,1.3074-0.2745,1.8415c-0.3145,0.5303-0.9666,0.8086-1.4613,1.1279    c-0.6653,0.4295-1.3016,0.9092-1.9487,1.3656c0.7831,0.0835,1.5679,0.1926,2.3539,0.2436    c0.5836,0.0379,1.2934-0.0361,1.8183,0.2796c0.5296,0.3184,0.7981,0.9821,1.1093,1.482c0.4207,0.6759,0.893,1.3232,1.3414,1.981    c0.0916-0.911,0.199-1.8211,0.2497-2.7351C132.0187,62.365,131.9542,61.4732,132.4614,61.1389z" fill="#000000" data-original="#000000"/>
		<path class="st12" d="M147.2014,51.0652c-0.7423-0.5372-1.4846-1.0744-2.2269-1.6115c0.8099-0.0741,2.2173,0.0959,2.9375-0.32    c0.7124-0.4113,1.2941-1.7671,1.7482-2.4218c0.0727,0.8227-0.105,2.2556,0.3164,2.9876c0.4103,0.7128,1.7311,1.3096,2.379,1.7786    c-0.8075,0.0759-2.2226-0.0924-2.9382,0.3261c-0.7074,0.4136-1.2913,1.7639-1.7474,2.4159    C147.6182,53.633,147.7915,51.4648,147.2014,51.0652z" fill="#000000" data-original="#000000"/>
		<path class="st12" d="M102.3095,136.8669c-0.7423-0.5372-1.4846-1.0744-2.2269-1.6116c0.8099-0.0741,2.2173,0.0959,2.9375-0.32    c0.7124-0.4113,1.294-1.7671,1.7482-2.4218c0.0727,0.8227-0.105,2.2556,0.3164,2.9876c0.4103,0.7128,1.7311,1.3096,2.379,1.7786    c-0.8075,0.0759-2.2226-0.0924-2.9382,0.3261c-0.7074,0.4136-1.2913,1.7639-1.7474,2.4159    C102.7263,139.4347,102.8996,137.2664,102.3095,136.8669z" fill="#000000" data-original="#000000"/>
		<path class="st12" d="M67.2729,128.9957c-0.7423-0.5372-1.4846-1.0744-2.2269-1.6115c0.8099-0.0741,2.2173,0.0959,2.9375-0.32    c0.7124-0.4113,1.294-1.7671,1.7482-2.4218c0.0727,0.8227-0.105,2.2556,0.3164,2.9876c0.4103,0.7128,1.7311,1.3096,2.379,1.7786    c-0.8075,0.0759-2.2226-0.0924-2.9382,0.3261c-0.7074,0.4136-1.2913,1.7639-1.7474,2.4159    C67.6897,131.5635,67.863,129.3952,67.2729,128.9957z" fill="#000000" data-original="#000000"/>
		<path class="st12" d="M29.8596,138.651c-0.7423-0.5372-1.4846-1.0744-2.2269-1.6115c0.8099-0.0741,2.2173,0.0959,2.9375-0.32    c0.7124-0.4113,1.294-1.7671,1.7482-2.4218c0.0727,0.8227-0.105,2.2556,0.3164,2.9876c0.4103,0.7128,1.7311,1.3096,2.379,1.7786    c-0.8075,0.0759-2.2226-0.0924-2.9382,0.326c-0.7074,0.4136-1.2913,1.7639-1.7474,2.4159    C30.2764,141.2188,30.4497,139.0505,29.8596,138.651z" fill="#000000" data-original="#000000"/>
		<path class="st12" d="M131.1212,135.5598c-0.7423-0.5372-1.4846-1.0744-2.2269-1.6116c0.8099-0.0741,2.2173,0.0959,2.9375-0.32    c0.7124-0.4113,1.294-1.7671,1.7482-2.4218c0.0727,0.8227-0.105,2.2556,0.3164,2.9876c0.4103,0.7128,1.7311,1.3096,2.379,1.7786    c-0.8075,0.0759-2.2226-0.0924-2.9382,0.3261c-0.7074,0.4136-1.2913,1.7639-1.7474,2.4159    C131.538,138.1276,131.7113,135.9592,131.1212,135.5598z" fill="#000000" data-original="#000000"/>
		<path class="st12" d="M158.3611,127.8495c-0.7423-0.5372-1.4846-1.0744-2.2269-1.6115c0.8099-0.0741,2.2173,0.0959,2.9375-0.32    c0.7124-0.4113,1.294-1.7671,1.7482-2.4218c0.0727,0.8227-0.105,2.2556,0.3164,2.9876c0.4103,0.7128,1.731,1.3096,2.379,1.7786    c-0.8075,0.0759-2.2226-0.0923-2.9382,0.3261c-0.7074,0.4136-1.2913,1.7639-1.7474,2.4159    C158.7779,130.4172,158.9512,128.249,158.3611,127.8495z" fill="#000000" data-original="#000000"/>
		<path class="st12" d="M55.6617,52.2154c-0.7423-0.5372-1.4846-1.0744-2.2269-1.6115c0.8099-0.0741,2.2173,0.0959,2.9375-0.32    c0.7124-0.4113,1.294-1.7671,1.7482-2.4218c0.0727,0.8227-0.105,2.2556,0.3164,2.9876c0.4103,0.7128,1.7311,1.3096,2.379,1.7786    c-0.8075,0.0759-2.2226-0.0924-2.9382,0.3261c-0.7074,0.4136-1.2913,1.7639-1.7474,2.4159    C56.0785,54.7832,56.2518,52.6148,55.6617,52.2154z" fill="#000000" data-original="#000000"/>
	</g>
	<g>
		<path class="st16" d="M115.5151,109.7431c0.1538,1.2229,0.2893,2.4481,0.413,3.6744c0.0584,0.5793,0.1373,1.1618,0.1683,1.7433    c0.0145,0.2713-0.0669,0.6914,0.0325,0.9464c0.2069,0.531,0.7749,0.3253,1.3036,0.3107c1.0647-0.0292,2.1359,0.0258,3.2009,0.0491    C118.7916,114.3181,117.2091,112.0019,115.5151,109.7431z M73.6438,116.0324c7.7962-8.3554,13.785-18.3449,17.6748-29.0805    c2.1564-5.9515,3.5362-12.1109,4.69-18.3237c0.0701-0.3776,0.4385-1.2933,0.2524-1.6648c-0.149-0.2974-0.6812-0.373-0.9621-0.4964    c-1.1743-0.516-2.3795-1.2674-3.2757-2.1939c-0.2724-0.2816-0.4906-0.6144-0.7677-0.8921    c-0.338-0.3388-0.2968-0.3755-0.6183-0.1582c-0.5429,0.367-1.0689,1.6141-1.4779,2.1391    c-6.6958,8.5964-15.9875,15.3109-26.292,18.8605c-2.7016,0.9306-5.4853,1.6674-8.305,2.1361    c-1.6414,0.2729-3.3034,0.4427-4.9684,0.446c-0.6362,0.0013-1.2587-0.1103-1.8866-0.1249    c-0.6082-0.0142-0.6651,0.147-0.8188,0.6923c-0.8782,3.115-1.6388,6.2668-2.1711,9.4603    c-0.2603,1.5619-0.4602,3.1307-0.6214,4.7057c-0.0843,0.8231-0.6409,2.1624,0.4604,2.4198    c0.8913,0.2083,2.0544-0.0465,2.9622-0.0851c1.59-0.0676,3.1775-0.1932,4.7583-0.3776c3.0817-0.3595,6.0507-1.0542,9.0716-1.7247    c2.6566-0.5897,4.2704,0.8301,5.3647,3.0916c1.2816,2.6487,2.6285,5.2224,4.2918,7.6571    C71.8311,113.7283,72.7078,114.9058,73.6438,116.0324z M82.5407,112.1777c-1.0834,1.4658-2.2024,2.9158-3.3951,4.2948    c0.6324-0.0146,2.8068,0.3195,3.1067-0.3416c0.1816-0.4001,0.0722-1.2079,0.1046-1.6466    C82.4138,113.7151,82.4743,112.9462,82.5407,112.1777z M188.7274,82.1183c0.0072,3.5959-1.1551,7.4348-4.4106,9.3728    c-3.8224,2.2755-8.6052,1.4897-12.7562,0.8182c4.1879,9.5679,5.7816,19.924,6.5624,30.2661    c0.7887,10.446,1.1554,21.1124-0.9007,31.4442c-1.6001,8.0403-4.8854,16.1778-11.2979,21.5792    c-3.6458,3.071-8.1063,5.0081-12.5691,6.5658c-4.9413,1.7247-10.0053,3.0399-15.1552,3.9692    c-10.6453,1.9208-21.4851,2.3313-32.2759,2.6111c-10.9394,0.2836-21.9102,0.4892-32.8131-0.6342    c-10.2807-1.0593-20.5442-3.253-30.0494-7.39c-4.1584-1.8099-8.1492-4.044-11.3047-7.3572    c-3.2895-3.4537-5.5559-7.8249-7.093-12.3077c-3.3667-9.8181-3.673-20.4622-3.2309-30.7351    c0.4509-10.4786,1.4251-21.0818,4.5293-31.1468c0.7476-2.4239,1.6772-4.7782,2.6187-7.1317    c-4.4369,0.5797-9.8671,1.6452-13.7492-1.2652c-4.354-3.2642-3.896-9.3206-3.0137-14.0685    c0.9953-5.3558,2.3867-10.8812,5.5277-15.4209c1.6448-2.3772,3.7709-4.423,6.4804-5.5239    c0.3752-0.1524,1.2761-0.2464,1.5771-0.5068c0.4169-0.3605,0.2605-1.3118,0.2396-1.8057    c-0.068-1.6068-0.2082-3.2079-0.2631-4.8172c-0.3279-9.615-0.3972-20.4967,5.36-28.7226    c3.1281-4.4694,7.8836-7.6523,13.286-8.5708c6.1099-1.0389,12.5206,0.7165,18.2072,2.8701    c11.5017,4.3557,21.6982,12.5712,28.0564,23.158c0.7799,1.2986,1.491,2.6396,2.1116,4.0217    c4.3557-3.7364,10.633-3.6553,14.9162,0.1495c1.9491-4.5447,5.028-8.6277,8.3067-12.2956    c3.2551-3.6414,6.9676-6.8818,11.0572-9.5558c4.1955-2.7432,8.752-4.7817,13.4996-6.3645    c4.6309-1.5439,9.6498-2.7635,14.5591-2.164c9.2686,1.1319,15.7547,8.4828,18.1518,17.145    c1.378,4.9795,1.6517,10.1976,1.623,15.3399c-0.015,2.6968-0.1227,5.3919-0.2201,8.0866c-0.0211,0.5843-0.0412,1.1687-0.063,1.753    c-0.0134,0.3604-0.2216,1.1748-0.0427,1.4756c0.2748,0.462,1.5181,0.5674,2.0039,0.7675    c4.3414,1.7884,7.1253,5.9226,8.9372,10.0778C187.358,70.9148,188.6482,76.5391,188.7274,82.1183z M182.5558,82.146    c-0.0266-4.7613-0.9106-9.5269-2.2898-14.0742c-1.1754-3.8755-3.0046-7.6797-6.2998-10.186    c-1.0724,12.094-6.3216,26.3355-19.8962,28.609c0.263,0.4935,0.4699,1.862,0.9902,2.1183    c0.2819,0.1388,0.6887-0.1636,0.9671-0.257c0.7549-0.2534,1.5699-0.3813,2.3534-0.5119    c3.3881-0.5647,6.8557-0.9864,10.2938-1.0189c3.2917-0.0312,6.5755,0.5604,9.8664,0.2301    c1.1559-0.116,2.4933-0.3626,3.2429-1.3441C182.5379,84.7241,182.5457,83.3294,182.5558,82.146z M174.3247,133.7639    c0.0848-4.309-0.0094-8.6159-0.1287-12.9232c-7.348,0.5952-14.7604,0.2225-22.1224,0.1566    c-7.5732-0.0677-15.1462-0.1533-22.7194-0.2157c-4.2794-0.0353-8.5589-0.0653-12.8384-0.0877    c0.4275,7.9429,0.6061,15.8685,0.5786,23.8228c18.1253-0.0979,36.2926-0.8591,54.4149-0.2812    c0.7403,0.0236,2.0449,0.4438,2.3161-0.4309c0.2036-0.6567,0.0694-1.5013,0.1204-2.1862    C174.1405,139.0029,174.2701,136.3862,174.3247,133.7639z M174.1696,119.8857c-0.1692-7.721-1.2295-15.3477-2.8772-22.8854    c-0.2092-0.9572-0.4604-1.9111-0.6425-2.8735c-0.0973-0.5139-0.0716-1.2158-0.328-1.682    c-0.4982-0.9057-2.975-0.7544-3.8453-0.8233c-3.5699-0.2824-7.2754-0.4073-10.7208-1.4658    c1.3761,3.4159,2.3099,6.9625,2.9868,10.5772c0.2682,1.4323,0.7565,3.0923,0.1704,4.5068    c-0.5525,1.3333-1.7923,2.0175-3.1653,2.2015c-3.4765,0.4658-7.032,0.1388-10.4992-0.2493    c-1.8379-0.2057-3.6661-0.4808-5.4796-0.8446c-0.5665-0.1136-1.094-0.2945-1.6509-0.4351    c-0.6934-0.1751-0.808-0.0781-1.1006,0.5548c-1.6578,3.5867-3.4974,7.1234-5.8607,10.3018c7.1659,0,14.3251,0.5883,21.4721,1.0465    C159.783,118.2739,167.109,118.5837,174.1696,119.8857z M171.5856,155.7583c0.9502-3.3793,1.5663-6.8446,1.9806-10.328    c-6.0028,0.987-12.1009,1.3558-18.1636,1.7791c-6.1146,0.4269-12.2362,0.7509-18.3602,1.0078    c-6.0741,0.2549-12.1511,0.4405-18.2292,0.5653c-0.3077,0.0063-1.2583-0.139-1.5482,0.0179    c-0.3226,0.1747-0.2769,0.5605-0.2856,0.8952c-0.0329,1.2767-0.0231,2.5587-0.0689,3.8383    c-0.1059,2.9559-0.2452,5.9105-0.4254,8.8629c-0.4066,6.6631-0.8692,13.3487-2.1189,19.9164    c9.5498-0.3513,19.1415-1.0702,28.4776-3.2093c4.363-0.9997,8.6703-2.3084,12.7932-4.0597    c3.6282-1.5411,7.0566-3.5514,9.6374-6.5858C168.3726,164.8159,170.295,160.3232,171.5856,155.7583z M168.3053,45.7682    c0.1535-6.9922,0.2058-14.5468-3.2101-20.8748c-1.5494-2.8703-3.9335-5.356-6.8515-6.8475    c-3.2074-1.6394-6.9068-1.6721-10.3922-1.1335c-7.3562,1.1369-14.5162,3.8129-20.8105,7.7861    c-6.2557,3.9488-11.5546,9.1264-16.3311,14.7356c-0.6034,0.7086-1.1908,1.4322-1.8035,2.1328    c-0.4125,0.4717-0.8585,0.6237-0.4721,1.1772c0.3637,0.5211,0.8463,0.945,1.2044,1.4853    c0.4967,0.7494,0.9221,1.5456,1.2767,2.3716c1.4043,3.2711,1.6627,7.0154,0.7916,10.4614    c-0.2298,0.9092-0.5396,1.7985-0.9268,2.6527c-0.288,0.6355-0.7286,1.1855-1.0232,1.8013    c-0.2452,0.5126-0.0598,0.521,0.3828,0.8683c0.768,0.6026,1.484,1.2763,2.2188,1.9191c2.853,2.496,5.7845,4.9015,8.8984,7.0671    c6.2686,4.3595,13.1144,7.5671,20.6041,9.1459c6.0849,1.2827,12.777,1.7014,17.8359-2.5281    c3.6209-3.0273,5.5643-7.5802,6.6975-12.0562c1.1798-4.6599,1.5677-9.488,1.7302-14.2789    C168.1912,49.6921,168.2631,47.7303,168.3053,45.7682z M155.8347,103.5826c0.131-1.2447-0.2018-2.7087-0.3566-3.9489    c-0.1729-1.3849-0.3896-2.764-0.6456-4.1359c-0.2616-1.4016-0.5647-2.7956-0.9014-4.181    c-0.3182-1.3093-0.4996-2.9218-1.0873-4.1357c-0.3959-0.8179-1.1781-0.4047-2.0176-0.3836    c-1.3584,0.0341-2.7169-0.0447-4.0652-0.2106c-2.6443-0.3253-5.267-0.9405-7.8191-1.6989    c-9.0889-2.7009-17.3099-7.881-23.9613-14.6055c-2.0486-2.0711-3.9598-4.2655-5.6338-6.6514    c-0.3629-0.5172-0.3573-0.7714-0.8148-0.4484c-0.4568,0.3225-0.837,0.9536-1.2778,1.3411    c-1.1215,0.986-2.4251,1.778-3.8346,2.2768c1.4279,6.7466,2.6562,13.5213,5.0017,20.0285    c2.2506,6.244,5.1972,12.2416,8.8182,17.806c1.8106,2.7823,3.7878,5.4559,5.9122,8.0065    c0.5054,0.6068,1.0193,1.2064,1.5418,1.7984c0.2729,0.3092,0.9585,1.4405,1.3634,1.4892c0.3818,0.0459,0.9239-0.942,1.1413-1.2254    c0.5065-0.66,0.9963-1.3329,1.4688-2.0177c1.6845-2.442,3.0487-5.024,4.3356-7.6894c1.0693-2.2147,2.5819-3.7803,5.2314-3.2992    c1.8145,0.3294,3.5838,0.9006,5.4061,1.2273c1.9245,0.345,3.8656,0.5998,5.8136,0.768c1.3219,0.1141,2.6482,0.1923,3.9715,0.288    C153.8572,104.012,155.7205,104.2673,155.8347,103.5826z M113.4113,106.4753c-3.4632-5.8375-6.3321-12.0425-8.2597-18.5588    c-1.9828-6.7031-3.3202-13.7808-2.8033-20.7948c-0.8056,0-1.5816,0.2794-2.3861,0.3095    c-0.8415,0.0315-1.7021-0.0696-2.5218-0.2528c0.528,7.4668-0.9677,14.9784-3.2134,22.069    c-1.1195,3.5347-2.4858,6.9886-4.0957,10.3287c-0.8171,1.6952-1.6941,3.3619-2.6304,4.9944    c-0.4735,0.8256-0.9631,1.6418-1.4659,2.4498c-0.4417,0.7099-1.0647,1.4219-1.413,2.1781    c-0.3194,0.6935,0.0069,1.5591,0.0859,2.2962c0.1048,0.9784,0.1932,1.9585,0.2685,2.9395    c0.1505,1.9617,0.2474,3.9271,0.3128,5.8934c0.1331,4.0004,0.1355,8.0034,0.1937,12.0052    c0.1147,7.8822,0.2128,15.7637,0.2937,23.6464c0.0916,8.915,0.5779,17.871-0.0773,26.7742    c8.9676,0.2294,17.9573-0.0766,26.9204-0.3765c-0.3014-4.9443-0.1974-9.9046-0.1619-14.8548    c0.0351-4.8912,0.0959-9.7822,0.1508-14.6732c0.1115-9.9345,0.1043-19.8703,0.2775-29.8041    C112.9822,117.5238,112.8759,111.9777,113.4113,106.4753z M108.578,53.0027c0-3.9042-1.8163-8.1462-5.4349-9.9762    c-3.9626-2.0039-8.4211,0.0808-10.5425,3.7177c-2.1623,3.707-2.2025,8.6419-0.0789,12.3767    c1.987,3.4946,6.0548,5.709,9.9952,4.1513C106.5195,61.6899,108.578,57.0955,108.578,53.0027z M91.4791,42.2637    c0-0.338-0.628-0.7488-0.8353-0.973c-0.6628-0.7169-1.2629-1.5004-1.8981-2.2423c-1.1477-1.3404-2.3186-2.6608-3.5335-3.9407    c-2.4317-2.5619-5.0262-4.9756-7.818-7.142c-5.38-4.1747-11.3658-7.2111-17.8569-9.2345    c-5.7402-1.7893-12.4338-3.4676-18.1171-0.5932c-5.4329,2.7478-8.1357,8.5676-9.194,14.2927    c-1.3066,7.069-0.8244,14.503-0.4996,21.6444c0.286,6.2866,1.0156,12.929,4.1135,18.5285    c3.0644,5.5389,8.3321,8.7922,14.6815,8.834c6.7406,0.0444,13.737-2.2184,19.734-5.1527    c6.3695-3.1166,11.9601-7.5015,17.3057-12.1117c0.6019-0.5191,1.2172-1.0248,1.8177-1.5444    c0.6482-0.5609,0.6707-0.6452,0.275-1.4334c-0.3466-0.6905-0.8131-1.2876-1.1144-2.0054    c-0.3805-0.9065-0.6614-1.8612-0.8599-2.8234c-0.6971-3.3781-0.3299-6.9876,1.1126-10.1269    C89.463,44.7799,90.3642,43.4223,91.4791,42.2637z M84.0245,182.705c-1.18-5.8229-1.6163-11.7779-2.0317-17.695    c-0.2086-2.9713-0.3713-5.9457-0.4941-8.9218c-0.0569-1.3797-0.1051-2.7597-0.1447-4.1399    c-0.0173-0.6038-0.0393-1.208-0.0469-1.8121c-0.0033-0.26,0.115-1.1631-0.1057-1.3482c-0.0761-0.0638-0.7515-0.0615-0.8581-0.0651    c-0.6719-0.023-1.3514,0.0128-2.0254-0.0032c-1.5797-0.0374-3.1592-0.0786-4.7387-0.124c-3.0275-0.087-6.0546-0.1893-9.081-0.3097    c-5.9211-0.2354-11.8396-0.54-17.7523-0.9333c-6.7666-0.4501-13.5903-0.8165-20.2882-1.9225    c1.0067,8.4637,3.0637,17.6776,9.1748,24.0142c3.4572,3.5848,8.0315,5.5974,12.6692,7.1948    c5.2567,1.8105,10.6051,3.2247,16.0856,4.1698C70.8759,181.9279,77.4474,182.4836,84.0245,182.705z M81.3947,130.8296    c0.1404-3.3774,0.3063-6.754,0.5246-10.1273c-14.658,0.0816-29.3147,0.3437-43.9731,0.3591    c-4.0361,0.0042-8.0913,0.1053-12.1182-0.2206c-0.1493,5.3911-0.251,10.7885-0.0264,16.179    c0.089,2.1349,0.2496,4.267,0.3731,6.399c0.0501,0.8647,0.0839,0.95,0.9344,0.8823c1.2946-0.103,2.6041-0.1012,3.9024-0.1198    c10.6615-0.1524,21.3255,0.0785,31.9864,0.1795c6.0791,0.0576,12.1583,0.1083,18.2376,0.1435    C81.2326,139.954,81.1661,135.3754,81.3947,130.8296z M68.6321,116.777c-0.4974,0-1.171-1.6197-1.4007-1.9912    c-0.9474-1.5326-1.907-3.0403-2.7414-4.6403c-0.438-0.8398-0.8518-1.6921-1.2407-2.5558    c-0.1733-0.3848-0.3952-1.5406-0.8346-1.7249c-0.3977-0.1667-1.3675,0.222-1.7681,0.3245    c-0.8925,0.2284-1.7993,0.3878-2.708,0.5374c-3.8326,0.6309-7.7252,0.9097-11.6085,0.8001    c-1.3869-0.0391-3.0402,0.0283-4.2449-0.7773c-1.4807-0.9901-1.5491-2.6859-1.3204-4.2884    c0.6-4.2046,1.6749-8.3604,3.2626-12.3015c-3.4567,1.0672-7.2516,1.2248-10.8386,1.4975    c-0.847,0.0644-1.7223,0.0175-2.5617,0.1392c-0.6292,0.0912-0.7457,0.177-0.9012,0.7827    c-0.4461,1.7372-0.7891,3.5098-1.1606,5.2643c-1.5438,7.2918-2.4896,14.5888-2.7122,22.0422c1.6095,0,3.2547-0.4896,4.8557-0.6715    c1.7655-0.2006,3.5342-0.3738,5.3038-0.5334c3.6033-0.3249,7.2119-0.5927,10.8219-0.8299    C54.0936,117.374,61.3618,117.0312,68.6321,116.777z M45.7145,86.4947C32.198,84.2311,26.9128,70.0742,25.8308,58.0173    c-2.8838,2.3037-4.6198,5.6254-5.745,9.0793c-1.3483,4.1385-2.1333,8.4812-2.5229,12.8109    c-0.1424,1.5828-0.4156,3.3876,0.2002,4.9048c0.5952,1.4665,2.0918,1.8762,3.5404,2.0004    c1.8558,0.1592,3.7527,0.0073,5.6082-0.0678c2.1963-0.0889,4.3692,0.0082,6.5586,0.1895c2.5188,0.2085,5.0464,0.4288,7.542,0.8371    c0.596,0.0975,1.1913,0.2041,1.7817,0.3313c0.4565,0.0983,1.0932,0.4202,1.5452,0.4224    C45.0787,88.5289,45.3831,87.1165,45.7145,86.4947z" fill="#000000" data-original="#000000"/>
		<g>
			<path class="st16" d="M167.1532,150.7376c-0.6398-0.2193-1.3979,1.3212-1.6345,1.7107     c-0.7351,1.2104-1.5438,2.3867-2.3705,3.5363c-1.8354,2.5522-3.9525,4.9065-6.3687,6.9224     c-4.6803,3.9052-10.3708,6.3346-16.2265,7.8702c-1.578,0.4138-3.1807,0.7278-4.7545,1.1573     c-0.541,0.1477-2.2515,0.5402-1.2169,1.2176c1.0944,0.7166,2.9117,0.5867,4.1576,0.602     c1.6541,0.0203,3.3097-0.1263,4.9411-0.3955c5.8823-0.9708,11.5016-3.6028,15.886-7.6621     c2.4747-2.2912,4.5468-5.0233,6.0229-8.0588C165.8512,157.0992,168.5463,151.2136,167.1532,150.7376z" fill="#000000" data-original="#000000"/>
		</g>
		<g>
			<path class="st16" d="M32.6568,150.7376c-1.3043,0.4456,1.0953,5.8914,1.351,6.4468c1.3628,2.9604,3.2988,5.6466,5.6218,7.9283     c4.3608,4.283,10.0589,7.0826,16.0563,8.1689c2.8273,0.5121,5.9066,0.7908,8.7404,0.152     c0.6115-0.1378,1.7412-0.5469,0.8177-1.1838c-0.7605-0.5244-1.9206-0.5133-2.7992-0.6992     c-6.2667-1.3261-12.6297-3.5454-17.8122-7.3864c-2.8489-2.1114-5.3543-4.6637-7.4744-7.503     c-0.939-1.2576-1.8448-2.5533-2.6474-3.9024C34.2511,152.3221,33.3631,150.4955,32.6568,150.7376z" fill="#000000" data-original="#000000"/>
		</g>
		<path class="st16" d="M139.1922,74.5492c5.5345,3.9799,13.0696,4.0359,18.2705-0.5304c4.8261-4.2373,7.0553-10.8442,7.3344-17.119    c0.1492-3.3526,0.0198-6.976-1.3678-10.0872c-0.1519-0.3407-0.519-1.4349-0.9245-0.895    c-0.3857,0.5135-0.0737,2.0187-0.0504,2.6197c0.0796,2.0552,0.0796,4.1187-0.0756,6.1705    c-0.4822,6.3741-2.4925,13.3917-7.6636,17.5634c-3.2384,2.6125-7.3226,3.1686-11.3023,2.2498    c-1.1124-0.2568-2.2025-0.598-3.2866-0.9537c-0.556-0.1825-1.1513-0.4918-1.7313-0.5819    C136.8897,72.7517,138.805,74.2648,139.1922,74.5492z" fill="#000000" data-original="#000000"/>
		<path class="st16" d="M35.9698,42.1577c0.2656,0.7323,0.5285,1.5488,1.0105,2.1717c0.5877,0.7595,0.9909,0.5035,0.9747-0.3766    c-0.0147-0.7995-0.22-1.6027-0.2985-2.398c-0.162-1.6423-0.2053-3.3012-0.0378-4.945c0.489-4.8014,2.9482-9.3723,7.098-11.96    c2.4677-1.5387,5.2871-2.1034,8.1281-2.5034c0.3913-0.0551,2.0918-0.0347,2.0968-0.6218    c0.0073-0.8563-2.5631-1.0212-3.0936-1.0772c-5.0124-0.5285-10.0716,1.5145-13.2543,5.4431    C34.9976,30.3293,33.872,36.8164,35.9698,42.1577z" fill="#000000" data-original="#000000"/>
		<path class="st16" d="M93.1751,54.0171c0.5306,1.1517,1.0165-0.3233,1.1797-0.8368c0.4444-1.3982,0.8629-2.7804,1.6029-4.0595    c0.6602-1.1412,1.4962-2.2338,2.4923-3.1011c0.3576-0.3114,1.8525-1.3149,1.3163-1.9333    c-0.4265-0.4919-1.766,0.1582-2.2054,0.3583c-1.0725,0.4884-2.0102,1.2615-2.7538,2.1712    C93.2395,48.5337,92.0726,51.6161,93.1751,54.0171z" fill="#000000" data-original="#000000"/>
	</g>
</g>
</g></svg>