<svg xmlns="http://www.w3.org/2000/svg" version="1.1" xmlns:xlink="http://www.w3.org/1999/xlink" xmlns:svgjs="http://svgjs.com/svgjs" width="512" height="512" x="0" y="0" viewBox="0 0 200 200" style="enable-background:new 0 0 512 512" xml:space="preserve"><g>
<style xmlns="http://www.w3.org/2000/svg" type="text/css">
	.st0{fill:url(#SVGID_1_);}
	.st1{fill:url(#SVGID_2_);}
	.st2{fill:url(#SVGID_3_);}
	.st3{fill:url(#SVGID_4_);}
	.st4{fill:url(#SVGID_5_);}
	.st5{fill:url(#SVGID_6_);}
	.st6{fill:url(#SVGID_7_);}
	.st7{fill:url(#SVGID_8_);}
	.st8{fill:url(#SVGID_9_);}
	.st9{fill:url(#SVGID_10_);}
	.st10{opacity:0.3;fill:#FFFFFF;}
	.st11{opacity:0.2;}
	.st12{fill:#FFFFFF;}
	.st13{opacity:0.6;}
	.st14{opacity:0.8;}
	.st15{opacity:0.3;}
	.st16{fill:#BA0000;}
	.st17{fill:url(#SVGID_12_);}
	.st18{fill:url(#SVGID_13_);}
	.st19{fill:url(#SVGID_14_);}
	.st20{fill:url(#SVGID_15_);}
	.st21{fill:url(#SVGID_16_);}
	.st22{fill:url(#SVGID_17_);}
	.st23{fill:url(#SVGID_18_);}
	.st24{fill:url(#SVGID_19_);}
	.st25{fill:url(#SVGID_20_);}
	.st26{fill:url(#SVGID_21_);}
	.st27{fill:url(#SVGID_22_);}
	.st28{fill:url(#SVGID_23_);}
	.st29{fill:url(#SVGID_24_);}
	.st30{fill:url(#SVGID_25_);}
	.st31{fill:url(#SVGID_26_);}
	.st32{fill:url(#SVGID_27_);}
	.st33{fill:url(#SVGID_28_);}
	.st34{fill:url(#SVGID_29_);}
	.st35{fill:url(#SVGID_30_);}
	.st36{fill:url(#SVGID_31_);}
	.st37{fill:url(#SVGID_32_);}
	.st38{fill:url(#SVGID_33_);}
	.st39{fill:url(#SVGID_34_);}
	.st40{fill:url(#SVGID_35_);}
	.st41{fill:url(#SVGID_36_);}
	.st42{fill:url(#SVGID_37_);}
	.st43{fill:url(#SVGID_38_);}
	.st44{fill:url(#SVGID_39_);}
	.st45{fill:url(#SVGID_40_);}
	.st46{fill:url(#SVGID_41_);}
	.st47{fill:url(#SVGID_42_);}
	.st48{fill:url(#SVGID_43_);}
	.st49{fill:url(#SVGID_44_);}
	.st50{fill:url(#SVGID_45_);}
	.st51{fill:url(#SVGID_46_);}
	.st52{opacity:0.3;fill:#FCF8D5;}
	.st53{opacity:0.3;fill:#FFE1E1;}
	.st54{fill:url(#SVGID_47_);}
	.st55{fill:url(#SVGID_48_);}
	.st56{fill:url(#SVGID_49_);}
	.st57{fill:url(#SVGID_50_);}
	.st58{fill:url(#SVGID_51_);}
	.st59{fill:url(#SVGID_52_);}
	.st60{fill:url(#SVGID_53_);}
	.st61{fill:url(#SVGID_54_);}
	.st62{fill:url(#SVGID_55_);}
	.st63{fill:url(#SVGID_56_);}
	.st64{fill:url(#SVGID_57_);}
	.st65{fill:url(#SVGID_58_);}
	.st66{fill:url(#SVGID_59_);}
	.st67{fill:url(#SVGID_60_);}
	.st68{fill:url(#SVGID_61_);}
	.st69{fill:url(#SVGID_62_);}
	.st70{fill:url(#SVGID_63_);}
	.st71{fill:url(#SVGID_64_);}
	.st72{fill:url(#SVGID_65_);}
	.st73{fill:url(#SVGID_66_);}
	.st74{fill:url(#SVGID_67_);}
	.st75{fill:url(#SVGID_68_);}
	.st76{fill:url(#SVGID_69_);}
	.st77{fill:url(#SVGID_70_);}
	.st78{fill:url(#SVGID_71_);}
	.st79{fill:url(#SVGID_72_);}
	.st80{opacity:0.3;fill:#E3FFE6;}
	.st81{fill:url(#SVGID_73_);}
	.st82{fill:url(#SVGID_74_);}
	.st83{fill:url(#SVGID_75_);}
	.st84{opacity:0.3;fill:#FFDEEB;}
	.st85{fill:url(#SVGID_76_);}
	.st86{fill:url(#SVGID_77_);}
	.st87{fill:url(#SVGID_78_);}
	.st88{fill:url(#SVGID_79_);}
	.st89{fill:url(#SVGID_80_);}
	.st90{fill:url(#SVGID_81_);}
	.st91{fill:url(#SVGID_82_);}
	.st92{fill:url(#SVGID_83_);}
	.st93{fill:url(#SVGID_84_);}
	.st94{fill:url(#SVGID_85_);}
	.st95{fill:url(#SVGID_86_);}
	.st96{fill:url(#SVGID_87_);}
	.st97{fill:url(#SVGID_88_);}
	.st98{fill:url(#SVGID_89_);}
	.st99{fill:url(#SVGID_90_);}
	.st100{fill:url(#SVGID_91_);}
	.st101{fill:url(#SVGID_92_);}
	.st102{fill:url(#SVGID_93_);}
	.st103{fill:url(#SVGID_94_);}
	.st104{fill:url(#SVGID_95_);}
	.st105{fill:url(#SVGID_96_);}
	.st106{fill:url(#SVGID_97_);}
	.st107{fill:url(#SVGID_98_);}
	.st108{fill:url(#SVGID_99_);}
	.st109{fill:url(#SVGID_100_);}
	.st110{fill:url(#SVGID_101_);}
	.st111{fill:url(#SVGID_102_);}
	.st112{fill:url(#SVGID_103_);}
	.st113{fill:url(#SVGID_104_);}
	.st114{fill:url(#SVGID_105_);}
	.st115{fill:url(#SVGID_106_);}
	.st116{fill:url(#SVGID_107_);}
	.st117{fill:url(#SVGID_108_);}
	.st118{fill:url(#SVGID_109_);}
	.st119{fill:url(#SVGID_110_);}
	.st120{fill:url(#SVGID_111_);}
	.st121{fill:url(#SVGID_112_);}
	.st122{fill:url(#SVGID_113_);}
	.st123{fill:url(#SVGID_114_);}
	.st124{fill:url(#SVGID_115_);}
	.st125{fill:url(#SVGID_116_);}
	.st126{fill:url(#SVGID_117_);}
	.st127{fill:url(#SVGID_118_);}
	.st128{fill:url(#SVGID_119_);}
	.st129{fill:url(#SVGID_120_);}
	.st130{fill:url(#SVGID_121_);}
	.st131{fill:url(#SVGID_122_);}
	.st132{fill:url(#SVGID_123_);}
	.st133{fill:url(#SVGID_124_);}
	.st134{fill:url(#SVGID_125_);}
	.st135{fill:url(#SVGID_126_);}
	.st136{fill:url(#SVGID_127_);}
	.st137{opacity:0.5;}
	.st138{fill:url(#SVGID_128_);}
	.st139{fill:url(#SVGID_129_);}
	.st140{fill:url(#SVGID_130_);}
	.st141{fill:url(#SVGID_131_);}
	.st142{fill:url(#SVGID_132_);}
	.st143{fill:url(#SVGID_133_);}
	.st144{fill:url(#SVGID_134_);}
	.st145{fill:url(#SVGID_135_);}
	.st146{fill:url(#SVGID_136_);}
	.st147{fill:url(#SVGID_137_);}
	.st148{fill:url(#SVGID_138_);}
	.st149{fill:url(#SVGID_139_);}
	.st150{fill:url(#SVGID_140_);}
	.st151{fill:url(#SVGID_141_);}
	.st152{fill:url(#SVGID_142_);}
	.st153{fill:url(#SVGID_143_);}
	.st154{fill:url(#SVGID_144_);}
	.st155{fill:url(#SVGID_145_);}
	.st156{fill:url(#SVGID_146_);}
	.st157{fill:url(#SVGID_147_);}
	.st158{fill:url(#SVGID_148_);}
	.st159{fill:url(#SVGID_149_);}
	.st160{fill:url(#SVGID_150_);}
	.st161{fill:url(#SVGID_151_);}
	.st162{fill:url(#SVGID_152_);}
	.st163{fill:url(#SVGID_153_);}
	.st164{fill:url(#SVGID_154_);}
	.st165{fill:url(#SVGID_155_);}
	.st166{fill:url(#SVGID_156_);}
	.st167{fill:url(#SVGID_157_);}
	.st168{fill:url(#SVGID_158_);}
	.st169{fill:url(#SVGID_159_);}
	.st170{fill:url(#SVGID_160_);}
	.st171{fill:url(#SVGID_161_);}
	.st172{fill:url(#SVGID_162_);}
	.st173{fill:url(#SVGID_163_);}
	.st174{fill:url(#SVGID_164_);}
	.st175{fill:url(#SVGID_165_);}
	.st176{fill:url(#SVGID_166_);}
	.st177{fill:url(#SVGID_167_);}
	.st178{fill:url(#SVGID_168_);}
	.st179{fill:url(#SVGID_169_);}
	.st180{fill:url(#SVGID_170_);}
	.st181{opacity:0.5;fill:url(#SVGID_171_);}
	.st182{fill:url(#SVGID_172_);}
	.st183{fill:url(#SVGID_173_);}
	.st184{fill:url(#SVGID_174_);}
	.st185{fill:url(#SVGID_175_);}
	.st186{fill:url(#SVGID_176_);}
	.st187{fill:url(#SVGID_177_);}
	.st188{fill:url(#SVGID_178_);}
	.st189{fill:url(#SVGID_179_);}
	.st190{fill:url(#SVGID_180_);}
	.st191{fill:url(#SVGID_181_);}
	.st192{fill:url(#SVGID_182_);}
	.st193{fill:url(#SVGID_183_);}
	.st194{fill:url(#SVGID_184_);}
	.st195{fill:url(#SVGID_185_);}
	.st196{fill:url(#SVGID_186_);}
	.st197{fill:url(#SVGID_187_);}
	.st198{fill:url(#SVGID_188_);}
	.st199{fill:url(#SVGID_189_);}
	.st200{fill:url(#SVGID_190_);}
	.st201{fill:url(#SVGID_191_);}
	.st202{fill:url(#SVGID_192_);}
	.st203{fill:url(#SVGID_193_);}
	.st204{fill:url(#SVGID_194_);}
	.st205{fill:url(#SVGID_195_);}
	.st206{fill:url(#SVGID_196_);}
	.st207{fill:url(#SVGID_197_);}
	.st208{fill:url(#SVGID_198_);}
	.st209{fill:url(#SVGID_199_);}
	.st210{fill:url(#SVGID_200_);}
	.st211{fill:url(#SVGID_201_);}
	.st212{fill:url(#SVGID_202_);}
	.st213{fill:url(#SVGID_203_);}
	.st214{fill:url(#SVGID_204_);}
	.st215{fill:url(#SVGID_205_);}
	.st216{fill:url(#SVGID_206_);}
	.st217{fill:url(#SVGID_207_);}
	.st218{fill:url(#SVGID_208_);}
	.st219{fill:url(#SVGID_209_);}
	.st220{fill:url(#SVGID_210_);}
	.st221{fill:url(#SVGID_211_);}
	.st222{fill:url(#SVGID_212_);}
	.st223{fill:url(#SVGID_213_);}
	.st224{fill:url(#SVGID_214_);}
	.st225{fill:url(#SVGID_215_);}
	.st226{fill:url(#SVGID_216_);}
	.st227{fill:url(#SVGID_217_);}
	.st228{fill:url(#SVGID_218_);}
	.st229{fill:url(#SVGID_219_);}
	.st230{fill:url(#SVGID_220_);}
	.st231{fill:url(#SVGID_221_);}
	.st232{fill:url(#SVGID_222_);}
	.st233{fill:url(#SVGID_223_);}
	.st234{fill:url(#SVGID_224_);}
	.st235{fill:url(#SVGID_225_);}
	.st236{fill:url(#SVGID_226_);}
	.st237{fill:url(#SVGID_227_);}
	.st238{fill:url(#SVGID_228_);}
	.st239{fill:url(#SVGID_229_);}
	.st240{fill:url(#SVGID_230_);}
	.st241{fill:url(#SVGID_231_);}
	.st242{fill:url(#SVGID_232_);}
	.st243{fill:url(#SVGID_233_);}
	.st244{fill:url(#SVGID_234_);}
	.st245{fill:url(#SVGID_235_);}
	.st246{fill:url(#SVGID_236_);}
	.st247{fill:url(#SVGID_237_);}
	.st248{fill:url(#SVGID_238_);}
	.st249{opacity:0.5;fill:#FFFFFF;}
	.st250{fill:url(#SVGID_239_);}
	.st251{fill:url(#SVGID_240_);}
	.st252{fill:url(#SVGID_241_);}
	.st253{fill:url(#SVGID_242_);}
	.st254{fill:url(#SVGID_243_);}
	.st255{fill:url(#SVGID_244_);}
	.st256{fill:url(#SVGID_245_);}
	.st257{fill:url(#SVGID_246_);}
	.st258{fill:url(#SVGID_247_);}
	.st259{fill:url(#SVGID_248_);}
	.st260{fill:url(#SVGID_249_);}
	.st261{fill:url(#SVGID_250_);}
	.st262{fill:url(#SVGID_251_);}
	.st263{fill:url(#SVGID_252_);}
	.st264{fill:url(#SVGID_253_);}
	.st265{fill:url(#SVGID_254_);}
	.st266{fill:url(#SVGID_255_);}
	.st267{fill:url(#SVGID_256_);}
	.st268{fill:url(#SVGID_257_);}
	.st269{fill:url(#SVGID_258_);}
	.st270{fill:url(#SVGID_259_);}
	.st271{fill:url(#SVGID_260_);}
	.st272{fill:url(#SVGID_261_);}
	.st273{fill:url(#SVGID_262_);}
	.st274{fill:url(#SVGID_263_);}
	.st275{fill:url(#SVGID_264_);}
	.st276{fill:url(#SVGID_265_);}
	.st277{fill:url(#SVGID_266_);}
	.st278{fill:url(#SVGID_267_);}
	.st279{fill:url(#SVGID_268_);}
	.st280{fill:url(#SVGID_269_);}
	.st281{fill:url(#SVGID_270_);}
	.st282{fill:url(#SVGID_271_);}
	.st283{fill:url(#SVGID_272_);}
	.st284{fill:url(#SVGID_273_);}
	.st285{fill:url(#SVGID_274_);}
	.st286{fill:url(#SVGID_275_);}
	.st287{fill:url(#SVGID_276_);}
	.st288{fill:url(#SVGID_277_);}
	.st289{fill:url(#SVGID_278_);}
	.st290{fill:url(#SVGID_279_);}
	.st291{fill:url(#SVGID_280_);}
	.st292{fill:url(#SVGID_281_);}
	.st293{fill:url(#SVGID_282_);}
	.st294{fill:url(#SVGID_283_);}
	.st295{fill:url(#SVGID_284_);}
	.st296{fill:url(#SVGID_285_);}
	.st297{fill:url(#SVGID_286_);}
	.st298{fill:url(#SVGID_287_);}
	.st299{fill:url(#SVGID_288_);}
	.st300{fill:url(#SVGID_289_);}
	.st301{fill:url(#SVGID_290_);}
	.st302{opacity:0.2;fill:#FFFFFF;}
	.st303{fill:url(#SVGID_291_);}
	.st304{fill:url(#SVGID_292_);}
	.st305{fill:url(#SVGID_293_);}
	.st306{fill:url(#SVGID_294_);}
	.st307{fill:url(#SVGID_295_);}
	.st308{fill:url(#SVGID_296_);}
	.st309{fill:url(#SVGID_297_);}
	.st310{fill:url(#SVGID_298_);}
	.st311{fill:url(#SVGID_299_);}
	.st312{fill:url(#SVGID_300_);}
	.st313{fill:url(#SVGID_301_);}
	.st314{fill:url(#SVGID_302_);}
	.st315{fill:url(#SVGID_303_);}
	.st316{fill:url(#SVGID_304_);}
	.st317{fill:url(#SVGID_305_);}
	.st318{fill:url(#SVGID_306_);}
	.st319{fill:url(#SVGID_307_);}
	.st320{fill:url(#SVGID_308_);}
	.st321{fill:url(#SVGID_309_);}
	.st322{fill:url(#SVGID_310_);}
	.st323{fill:url(#SVGID_311_);}
	.st324{fill:url(#SVGID_312_);}
	.st325{fill:url(#SVGID_313_);}
	.st326{fill:url(#SVGID_314_);}
	.st327{fill:url(#SVGID_315_);}
	.st328{fill:url(#SVGID_316_);}
	.st329{fill:url(#SVGID_317_);}
	.st330{fill:url(#SVGID_318_);}
	.st331{fill:url(#SVGID_319_);}
	.st332{fill:url(#SVGID_320_);}
	.st333{fill:url(#SVGID_321_);}
	.st334{fill:url(#SVGID_322_);}
	.st335{fill:url(#SVGID_323_);}
	.st336{fill:url(#SVGID_324_);}
</style>
<g xmlns="http://www.w3.org/2000/svg" id="XMLID_26_">
	<g>
		<linearGradient id="SVGID_1_" gradientUnits="userSpaceOnUse" x1="114.631" y1="86.8776" x2="170.1175" y2="86.8776">
			<stop offset="1.600000e-07" style="stop-color:#A5F0A4"/>
			<stop offset="0.1453" style="stop-color:#9DEE93"/>
			<stop offset="0.4337" style="stop-color:#87E966"/>
			<stop offset="0.834" style="stop-color:#65E11F"/>
			<stop offset="1" style="stop-color:#56DD00"/>
		</linearGradient>
		<path class="st0" d="M170.1044,78.1521c0.0157,5.797,0.1084,11.6294-0.5612,17.3982c-0.502,4.3252-1.6281,8.9241-4.7512,12.143    c-3.3894,3.4934-8.3875,4.3741-13.0459,4.6338c-5.6696,0.316-11.3295-0.2567-16.9964-0.3461    c-6.7046-0.1059-13.4135-0.0724-20.1188-0.0981c0.0504-5.6772,0.1706-11.3534,0.3457-17.0281    c1.4994,2.1402,3.1107,4.2025,4.8317,6.1691c0.8444,0.9649,1.7156,1.9059,2.6099,2.8247    c0.8017,0.8237,1.5983,1.7027,2.8172,1.8055c2.1516,0.1814,3.6395-2.2756,4.749-3.7553c1.5117-2.0159,2.8473-4.1603,3.9981-6.4018    c0.4328-0.843,0.7065-1.8009,1.1704-2.6181c0.5491-0.9674,1.4686-0.7451,2.4029-0.5014c2.4574,0.641,5.0363,0.9028,7.5657,1.0861    c2.25,0.163,4.4953,0.1554,6.7491,0.1336c1.3254-0.0128,3.2093,0.0085,4.0189-1.2645c0.6724-1.0572,0.2564-2.472,0.0357-3.6008    c-0.2733-1.3977-0.582-2.7837-0.9677-4.1552c-0.7719-2.7445-1.7708-5.4444-3.1698-7.9349    c7.7911-1.558,12.9844-8.0303,15.2862-15.3077C169.8598,66.3921,170.1044,72.5094,170.1044,78.1521z" fill="#000000" data-original="#000000"/>
		<linearGradient id="SVGID_2_" gradientUnits="userSpaceOnUse" x1="107.998" y1="44.0088" x2="164.7142" y2="44.0088">
			<stop offset="0" style="stop-color:#F7A4BB"/>
			<stop offset="0.6285" style="stop-color:#F7515B"/>
			<stop offset="1" style="stop-color:#F72427"/>
		</linearGradient>
		<path class="st1" d="M164.7024,38.6968c0.0313,6.1091,0.0891,12.3168-1.1427,18.3305c-0.9601,4.6875-2.8989,9.4449-6.6325,12.6038    c-4.2207,3.5711-9.7196,3.8381-14.9584,3.0607c-5.6558-0.8393-11.1091-2.5742-16.2011-5.1772    c-5.9988-3.0666-11.2989-7.2481-16.4793-11.5121c4.4724-5.1841,4.0224-13.7417-1.2904-18.2016    c3.7961-4.1866,7.549-8.4307,12.0467-11.8895c4.3297-3.3296,9.1712-6.0649,14.3379-7.8597    c2.761-0.9592,5.6156-1.749,8.4726-2.3664c2.6559-0.574,5.429-0.9516,8.1382-0.5507c4.644,0.6872,8.589,3.6123,10.8112,7.7176    C164.4037,27.6535,164.6861,33.3537,164.7024,38.6968z" fill="#000000" data-original="#000000"/>
		<linearGradient id="SVGID_3_" gradientUnits="userSpaceOnUse" x1="114.6001" y1="149.5076" x2="160.6037" y2="149.5076">
			<stop offset="1.600000e-07" style="stop-color:#A5F0A4"/>
			<stop offset="0.1453" style="stop-color:#9DEE93"/>
			<stop offset="0.4337" style="stop-color:#87E966"/>
			<stop offset="0.834" style="stop-color:#65E11F"/>
			<stop offset="1" style="stop-color:#56DD00"/>
		</linearGradient>
		<path class="st2" d="M160.5957,123.9823c-0.2308,11.4987-2.2592,22.9566-5.841,33.8803    c-1.6969,5.1752-3.7636,10.3163-6.9992,14.7404c-2.9442,4.0257-7.2629,6.7282-11.8974,8.4226    c-5.9576,2.1782-12.3349,2.7279-18.6188,3.118c-0.075-9.3022-1.0907-18.6039-1.5809-27.8911    c-0.4902-9.2862-0.8315-18.58-0.9742-27.8782c-0.0402-2.6224-0.0654-5.245-0.075-7.8677    c-0.0042-1.1287,0.0143-2.2589-0.0062-3.3873c-0.0147-0.8088-0.0001-0.7088,0.772-0.7106    c7.7588-0.0185,15.5395-0.2468,23.2949,0.0143c7.2232,0.2432,14.734,0.8649,21.6891-1.5513    C160.4391,117.9096,160.647,120.9409,160.5957,123.9823z" fill="#000000" data-original="#000000"/>
		<linearGradient id="SVGID_4_" gradientUnits="userSpaceOnUse" x1="128.726" y1="101.2186" x2="128.726" y2="56.6138">
			<stop offset="0" style="stop-color:#F72427"/>
			<stop offset="0.3715" style="stop-color:#F7515B"/>
			<stop offset="1" style="stop-color:#F7A4BB"/>
		</linearGradient>
		<path class="st3" d="M153.262,89.9234c0.2244,0.9807-4.6941,0.3609-5.1032,0.3304c-3.1327-0.234-6.3068-0.6265-9.3571-1.3937    c-2.4352-0.6125-4.7562-0.7947-6.4173,1.3938c-1.3997,1.844-2.2023,4.1577-3.4354,6.1204c-0.6459,1.028-1.3202,2.04-2.0894,2.9799    c-0.1337,0.1634-1.5512,1.6804-1.4285,1.8644c-10.1748-10.2744-17.0088-23.4353-20.2828-37.4717    c-0.2388-1.0236-0.4152-2.0762-0.6995-3.0878c-0.1679-0.5972-0.5179-1.035,0.0269-1.4663    c0.5102-0.404,1.3123-0.4945,1.8916-0.7867c0.8701-0.4388,1.6705-1.107,2.3558-1.7923c2.2575,3.2551,5.2552,5.9363,8.3075,8.4265    c3.1141,2.5406,6.4735,4.7812,10.0504,6.6174c3.6755,1.8868,7.5744,3.287,11.5992,4.215    c2.1286,0.4908,4.2802,0.9127,6.4596,1.0943c1.0352,0.0863,2.0768,0.1228,3.1152,0.0838c0.466-0.0175,0.933-0.0462,1.3967-0.0958    c0.1632-0.0174,0.8597-0.2155,1.0088-0.121c0.1662,0.1053,0.1657,0.5887,0.2055,0.7561c0.1223,0.5139,0.2672,1.0233,0.3968,1.5357    c0.2941,1.163,0.5673,2.3313,0.8153,3.5051C152.5875,85.0412,152.9902,87.4745,153.262,89.9234z" fill="#000000" data-original="#000000"/>
		<radialGradient id="SVGID_5_" cx="103.5912" cy="122.0167" r="45.1073" gradientUnits="userSpaceOnUse">
			<stop offset="0" style="stop-color:#F7A4BB"/>
			<stop offset="0.6285" style="stop-color:#F7515B"/>
			<stop offset="1" style="stop-color:#F72427"/>
		</radialGradient>
		<path class="st4" d="M115.4556,182.0021c0.1566,0.7419,0.3224,1.4823,0.5111,2.2168c-5.0097,0.2794-10.0281,0.3974-15.0453,0.3745    c-1.1602-0.0053-2.3203-0.018-3.4804-0.0377c-0.5558-0.0095-1.1116-0.0206-1.6674-0.0332    c-0.3958-0.009-1.2439,0.1333-1.6185-0.0155c-0.573-0.2276-0.365-1.1123-0.3778-1.6586    c-0.0284-1.2073-0.0986-2.4147-0.1671-3.6202c-0.5655-9.9536-1.2938-19.8968-1.7296-29.8577    c-0.8685-19.8548-0.8787-39.7443-0.0751-59.6013c0.0564-1.3939,0.3236-2.2952,0.9332-3.5374    c0.5433-1.107,1.053-2.2311,1.5348-3.3662c1.0466-2.4663,1.9478-4.9936,2.6903-7.5679    c1.4787-5.1273,2.5071-10.5031,2.1791-15.8603c1.319,0.3267,2.724,0.361,4.0596,0.113    c-0.2811,3.9334,0.4027,7.9084,1.2585,11.7347c0.8626,3.8565,2.0983,7.6297,3.6564,11.2608    c0.7891,1.839,1.6244,3.7028,2.6277,5.4366c0.3318,0.5733,0.7587,1.0402,0.7705,1.7298c0.0141,0.8215-0.1904,1.7024-0.2542,2.5248    c-0.3188,4.1081-0.5638,8.222-0.7402,12.3386c-0.713,16.6406-0.3641,33.3327,1.1311,49.9225    C112.4828,163.7116,113.521,172.9469,115.4556,182.0021z" fill="#000000" data-original="#000000"/>
		<radialGradient id="SVGID_6_" cx="101.4627" cy="47.5371" r="8.6167" gradientUnits="userSpaceOnUse">
			<stop offset="0" style="stop-color:#F7F09D"/>
			<stop offset="0.5399" style="stop-color:#F7DA5B"/>
			<stop offset="1" style="stop-color:#F7C827"/>
		</radialGradient>
		<path class="st5" d="M109.4038,47.4749c0.0179,3.8591-2.5023,8.1259-6.4053,9.1109c-3.5546,0.8971-7.0297-1.4288-8.52-4.5738    c-2.6009-5.4889,0.1928-14.0119,7.2476-13.7101C106.2992,38.4975,109.3809,43.2155,109.4038,47.4749z" fill="#000000" data-original="#000000"/>
		<linearGradient id="SVGID_7_" gradientUnits="userSpaceOnUse" x1="73.8104" y1="101.1056" x2="73.8104" y2="57.0819">
			<stop offset="0" style="stop-color:#F72427"/>
			<stop offset="0.3715" style="stop-color:#F7515B"/>
			<stop offset="1" style="stop-color:#F7A4BB"/>
		</linearGradient>
		<path class="st6" d="M98.2042,59.1507c-1.2631,6.1581-2.7991,12.2864-5.1829,18.1165c-2.2816,5.5801-5.2221,10.8917-8.756,15.7765    c-2.0553,2.841-4.3025,5.5467-6.7466,8.0619c-2.0881-2.5036-4.1127-5.2053-5.5286-8.1554    c-0.6018-1.2538-1.124-2.6276-2.2454-3.5211c-1.2289-0.9792-2.735-1.1532-4.2343-0.8697    c-3.4112,0.645-6.7369,1.4782-10.2023,1.8174c-0.884,0.0865-1.7695,0.1558-2.6563,0.2065    c-0.8219,0.047-1.7871,0.2254-2.599,0.0982c-1.1511-0.1804-0.417-2.7094-0.2732-3.5114c0.3015-1.6815,0.5468-3.3692,0.8969-5.0423    c0.1719-0.8216,0.358-1.64,0.553-2.4564c0.0855-0.3578,0.1832-1.76,0.4676-2.0271c0.2372-0.2228,0.7832,0.0139,1.0789,0.0789    c0.7047,0.1548,1.4166,0.2101,2.1378,0.2427c1.7117,0.0774,3.421-0.0482,5.1175-0.2739    c6.558-0.8724,12.8746-3.2025,18.5812-6.5211c6.1573-3.5807,11.9057-8.2428,16.0431-14.0888    C95.6865,57.994,96.8946,58.7193,98.2042,59.1507z" fill="#000000" data-original="#000000"/>
		<linearGradient id="SVGID_8_" gradientUnits="userSpaceOnUse" x1="38.432" y1="44.951" x2="94.8419" y2="44.951">
			<stop offset="0" style="stop-color:#F72427"/>
			<stop offset="0.3715" style="stop-color:#F7515B"/>
			<stop offset="1" style="stop-color:#F7A4BB"/>
		</linearGradient>
		<path class="st7" d="M94.8419,37.7776c-5.3929,4.6771-5.9042,13.6181-0.7902,18.7309c-4.4907,3.7165-8.9639,7.463-14.0151,10.4091    c-4.8967,2.8559-10.1228,4.9-15.6514,6.1429c-5.175,1.1634-10.9805,1.7614-15.76-1.0354    c-3.9396-2.3053-6.4908-6.4032-7.8921-10.6529c-1.8344-5.5629-1.9267-11.4922-2.1541-17.2879    c-0.223-5.6814-0.4327-11.5385,1.3037-17.0289c1.3322-4.2123,4.1978-8.0229,8.2713-9.9    c5.0234-2.3148,10.861-1.0676,15.9529,0.3396c5.9643,1.6483,11.5656,3.9958,16.708,7.4719    C86.1035,28.5418,90.4794,33.1629,94.8419,37.7776z" fill="#000000" data-original="#000000"/>
		<linearGradient id="SVGID_9_" gradientUnits="userSpaceOnUse" x1="41.6462" y1="149.9771" x2="92.6111" y2="149.9771">
			<stop offset="1.000000e-07" style="stop-color:#56DD00"/>
			<stop offset="0.166" style="stop-color:#65E11F"/>
			<stop offset="0.5663" style="stop-color:#87E966"/>
			<stop offset="0.8547" style="stop-color:#9DEE93"/>
			<stop offset="1" style="stop-color:#A5F0A4"/>
		</linearGradient>
		<path class="st8" d="M92.6111,184.4341c-10.6936-0.3484-22.6806-0.0828-32.0361-6.0915    c-5.3929-3.4636-8.7321-8.9838-11.1063-14.8105c-2.8041-6.8817-4.6763-14.2027-6.0486-21.4938    c-1.653-8.7819-2.0244-17.6026-1.6282-26.5182c3.5463,0.8457,7.2168,0.9223,10.8438,1.0039    c3.7905,0.0853,7.5789,0.0548,11.3693-0.0214c7.5882-0.1527,15.1749-0.1485,22.7643-0.1485    c-0.1753,17.8809,0.7442,35.7944,3.2264,53.5108C90.6793,174.7452,91.323,179.6684,92.6111,184.4341z" fill="#000000" data-original="#000000"/>
		<linearGradient id="SVGID_10_" gradientUnits="userSpaceOnUse" x1="29.9762" y1="85.4246" x2="87.5856" y2="85.4246">
			<stop offset="1.000000e-07" style="stop-color:#56DD00"/>
			<stop offset="0.166" style="stop-color:#65E11F"/>
			<stop offset="0.5663" style="stop-color:#87E966"/>
			<stop offset="0.8547" style="stop-color:#9DEE93"/>
			<stop offset="1" style="stop-color:#A5F0A4"/>
		</linearGradient>
		<path class="st9" d="M87.5856,95.039c-0.3154,4.7384-0.541,9.4829-0.6779,14.2298c-0.019,0.6597,0.0448,1.332,0.0125,1.9889    c-0.0388,0.7897-0.4503,0.6079-1.1417,0.5684c-2.1787-0.1246-4.3936-0.0175-6.5765-0.0123    c-9.1395,0.0219-18.2683,0.5284-27.4095,0.4785c-6.1655-0.0337-13.39-0.4358-17.4272-5.8161    c-2.4749-3.2982-3.3601-7.5409-3.8024-11.5566c-0.502-4.5577-0.4671-9.1521-0.5404-13.7303    c-0.1225-7.6471-0.4082-16.7276,5.3301-22.6357c1.7935,8.4289,6.5932,16.2932,15.2861,18.7754    c-1.1474,2.1456-1.9803,4.444-2.6514,6.7783c-0.6384,2.2207-1.4882,4.7022-1.3949,7.0417    c0.0924,2.3171,2.2053,2.6032,4.0877,2.6939c2.5033,0.1206,5.0342-0.0623,7.5267-0.2924    c2.5431-0.2347,5.0863-0.5973,7.5657-1.2122c0.9396-0.233,1.5158-0.162,1.9635,0.7251c0.4937,0.9782,0.9065,1.9907,1.434,2.9575    c1.1304,2.0718,2.4563,3.9982,3.8353,5.9094c1.0444,1.4474,2.5361,3.7815,4.5993,3.6135c2.0034-0.1631,3.5467-2.4404,4.7587-3.814    C84.2362,99.6073,85.9862,97.3748,87.5856,95.039z" fill="#000000" data-original="#000000"/>
	</g>
	<g>
		<path class="st53" d="M163.4352,27.0761c-2.1775,2.3572-5.4667,1.7373-7.946,0.2406c-2.9423-1.7762-5.6136-4.2099-7.5693-7.0407    c-0.8582-1.2422-1.7638-2.7887-1.9624-4.3181c-0.0796-0.6131-0.1191-0.7562,0.4244-0.8668    c0.742-0.1509,1.5872-0.1204,2.3422-0.1201c3.3671,0.0012,6.6416,1.072,9.2519,3.2224    C160.725,20.4582,162.4894,23.6794,163.4352,27.0761z" fill="#000000" data-original="#000000"/>
		<path class="st53" d="M89.5571,60.2622c-2.9736,2.3968-6.0818,4.6357-9.3768,6.5716c-1.754,1.0305-3.5576,1.977-5.4107,2.8169    c-0.8024,0.3637-1.6224,0.682-2.4311,1.0298c-0.7565,0.3254-1.2413,0.6847-1.927,0.0508    c-2.7158-2.5109-0.4331-6.101,1.5681-8.1792c2.3211-2.4105,5.3893-4.1085,8.6744-4.7611    C83.7531,57.1754,87.5416,57.5161,89.5571,60.2622z" fill="#000000" data-original="#000000"/>
		<path class="st53" d="M94.8419,37.7776c-3.4432,2.9862-8.8587-1.6145-11.2658-3.8708c-2.6204-2.4561-6.3754-6.4486-5.0379-10.4017    C84.8475,27.3369,89.8155,32.4606,94.8419,37.7776z" fill="#000000" data-original="#000000"/>
		<path class="st53" d="M58.3096,73.9547c-3.4259,0.236-6.9585-0.2981-9.9342-2.0911c-2.7654-1.6662-4.8392-4.2612-6.2676-7.1246    c-0.3394-0.6803-0.6132-1.3845-0.9192-2.0792c-0.2159-0.4901-0.594-0.9729-0.3068-1.4746c0.7588-1.3256,2.946-1.4195,4.231-1.2887    c3.2445,0.3302,6.4169,1.9061,8.8344,4.0579C56.6596,66.3686,59.2084,70.1495,58.3096,73.9547z" fill="#000000" data-original="#000000"/>
		<path class="st53" d="M150.1678,47.8981c-4.4747-5.4766-14.3144-2.5178-17.578,2.8142c-1.8404,3.0068,0.015,5.9901,3.075,7.0509    c3.5312,1.2242,7.7105,0.2103,11.0527-1.1396c1.6872-0.6814,3.4068-1.6085,4.237-3.3145    C151.823,51.5248,151.4074,49.3991,150.1678,47.8981z" fill="#000000" data-original="#000000"/>
		<path class="st53" d="M164.6198,43.9323c-0.1178,3.899-0.1598,7.8163-0.798,11.6743c-0.2978,1.8001-0.7609,3.5291-1.2822,5.274    c-0.1821,0.6094-0.2512,1.2189-0.8615,1.5295c-0.6869,0.3496-1.6189,0.4527-2.3739,0.4006    c-2.8341-0.1953-4.1209-2.6684-4.6275-5.175c-0.635-3.1421-0.1705-6.4122,1.4151-9.2118    C157.6987,45.5868,161.1581,42.7355,164.6198,43.9323z" fill="#000000" data-original="#000000"/>
		<path class="st53" d="M75.0353,28.3085c-1.0639,3.5511-4.934,4.0559-7.8864,2.5564c-3.1582-1.6041-6.0322-4.1902-8.1258-7.0296    c-1.0722-1.4541-2.048-3.1016-2.3134-4.9174c-0.1095-0.7491-0.1286-1.6854,0.2015-2.395    c0.3021-0.6494,0.9992-0.3843,1.6555-0.3037c1.8738,0.2302,3.6853,0.8175,5.5039,1.2997c1.945,0.5157,3.8726,1.0665,5.7613,1.7648    c0.9505,0.3514,1.961,0.6795,2.8638,1.1431c0.8079,0.4149,1.1814,1.1273,1.5753,1.9166    C75.1822,24.1695,75.6487,26.3131,75.0353,28.3085z" fill="#000000" data-original="#000000"/>
		<path class="st53" d="M125.3442,65.6818c-0.0948,0.3153-0.2186,1.1812-0.5741,1.3107c-0.2953,0.1076-0.9483-0.5002-1.1805-0.646    c-1.5893-0.9977-3.2158-1.9184-4.7705-2.9745c-3.3272-2.2599-6.4282-4.8159-9.5307-7.3696    c0.8125-0.9418,1.4814-2.0067,1.9788-3.1467c0.1642-0.3764,0.231-0.9919,0.4472-1.3305c0.271-0.4243,0.6146-0.2971,1.0912-0.2249    c2.4397,0.3692,4.7579,1.3518,6.7687,2.7753C123.0816,56.5586,126.75,61.101,125.3442,65.6818z" fill="#000000" data-original="#000000"/>
		<path class="st53" d="M158.9391,67.6029c-1.4364,1.7595-3.2727,3.1873-5.3412,4.1278c-1.0367,0.4713-2.1255,0.8141-3.2422,1.0348    c-1.0233,0.2022-2.2032,0.5383-3.2463,0.329c-0.3103,0.1095-0.5153,0.0096-0.615-0.2998    c-0.1429-0.2001-0.2815-0.4031-0.4159-0.6091c-1.1791-1.8129-2.2141-4.107-1.5201-6.2923c0.497-1.565,1.847-2.4795,3.4256-2.7217    C151.8876,62.5727,156.2234,65.0029,158.9391,67.6029z" fill="#000000" data-original="#000000"/>
		<path class="st53" d="M143.6924,23.1238c0.0015,2.2056-2.3807,3.5381-4.2172,4.1035c-2.4866,0.7655-5.3584,0.3625-7.5034-1.1263    c-1.1462-0.7955-2.0434-1.8946-2.5513-3.1971c-0.235-0.6026-0.498-1.3326-0.4444-1.9919c0.0595-0.7324,0.542-0.8627,1.1428-1.1366    c1.5262-0.6957,3.0825-1.323,4.6693-1.867c1.4385-0.4931,2.582-1.0686,4.0838-0.5439    C141.3981,18.2471,143.9203,20.1558,143.6924,23.1238z" fill="#000000" data-original="#000000"/>
		<path class="st53" d="M54.5476,60.0209c1.6122,4.8604,8.2996,6.332,12.3411,3.6427c2.3668-1.5749,2.6768-4.4275,0.8761-6.5951    c-1.9354-2.3297-5.3884-3.0368-8.2737-3.0054c-1.5675,0.0171-3.2728,0.2258-4.3325,1.5171    C54.1484,56.8109,54.0543,58.5564,54.5476,60.0209z" fill="#000000" data-original="#000000"/>
		<path class="st53" d="M63.7659,31.9602c-5.5577-3.8378-14.9076,0.7301-15.0574,7.6028c-0.0645,2.9608,2.5527,4.8791,5.2987,5.1639    c3.5446,0.3677,7.169-1.5567,9.8322-3.7239c1.4045-1.1429,2.6256-2.6023,2.5985-4.5096    C66.4117,34.6463,65.2539,32.9775,63.7659,31.9602z" fill="#000000" data-original="#000000"/>
		<path class="st53" d="M143.6184,31.4842c-5.5577-3.8378-14.9076,0.7301-15.0574,7.6028    c-0.0645,2.9608,2.5527,4.8791,5.2986,5.1639c3.5446,0.3677,7.169-1.5567,9.8322-3.7239    c1.4045-1.1429,2.6256-2.6023,2.5985-4.5096C146.2642,34.1704,145.1064,32.5016,143.6184,31.4842z" fill="#000000" data-original="#000000"/>
		<path class="st53" d="M68.6306,39.1581c1.6122,4.8604,8.2996,6.332,12.3411,3.6426c2.3669-1.5749,2.6768-4.4275,0.8761-6.5951    c-1.9354-2.3297-5.3884-3.0368-8.2737-3.0054c-1.5675,0.0171-3.2728,0.2258-4.3325,1.5171    C68.2315,35.9482,68.1373,37.6937,68.6306,39.1581z" fill="#000000" data-original="#000000"/>
		<path class="st53" d="M114.2458,45.2534c1.6122,4.8604,8.2996,6.332,12.3411,3.6427c2.3669-1.575,2.6768-4.4275,0.8761-6.5951    c-1.9354-2.3297-5.3884-3.0368-8.2737-3.0054c-1.5675,0.0171-3.2728,0.2258-4.3325,1.5171    C113.8466,42.0435,113.7525,43.789,114.2458,45.2534z" fill="#000000" data-original="#000000"/>
		<path class="st53" d="M43.2831,37.6138c0.0016,2.3517-2.8521,3.7559-4.7817,4.2626c-0.096-3.2951-0.0904-6.6125,0.3363-9.8867    C41.2804,32.8904,43.5004,34.7863,43.2831,37.6138z" fill="#000000" data-original="#000000"/>
		<path class="st53" d="M51.9214,49.9986c-0.3282,3.9103-3.833,6.5715-7.4582,7.304c-1.2615,0.2549-2.4967,0.2632-3.7624,0.0413    c-1.0211-0.179-1.1107-0.4052-1.252-1.3939c-0.3665-2.564-0.5761-5.1242-0.6936-7.7115c1.6403,0.4705,3.4125,0.5097,4.7437-0.7061    c1.0925-0.9978,1.7916-2.5166,3.4271-2.6896C49.4668,44.5739,52.1294,47.5315,51.9214,49.9986z" fill="#000000" data-original="#000000"/>
		<path class="st53" d="M53.4278,25.7944c-1.4767,2.0467-3.9241,3.0427-6.3988,3.0752c-1.2658,0.0166-2.5356-0.2015-3.7276-0.6261    c-0.765-0.2725-2.8109-0.99-3.0919-1.847c-0.17-0.5184,0.4446-1.4259,0.6623-1.8864c0.3727-0.7883,0.8045-1.5486,1.2972-2.2682    c0.4457-0.6509,0.94-1.2673,1.4835-1.8393c0.3428-0.3609,0.9228-1.1442,1.4518-1.2515c0.4849-0.0983,1.1914,0.2311,1.6993,0.2456    c0.7649,0.0219,1.4753-0.2821,2.1894-0.5152c1.2777-0.417,2.527-0.4995,3.5797,0.4482    C54.2018,20.7966,54.7441,23.9685,53.4278,25.7944z" fill="#000000" data-original="#000000"/>
		<path class="st53" d="M73.3773,47.2262c-3.2086-0.1539-5.158-6.1952-8.3907-2.9434c-2.9889,3.0066-1.1893,6.8891,1.4637,9.3755    c2.3734,2.2244,5.74,3.4465,8.9848,2.8653c2.6675-0.4777,5.4943-2.1961,5.6039-5.1796c0.0615-1.675-0.6354-3.7854-2.1861-4.6452    C77.0657,45.708,75.2161,47.3144,73.3773,47.2262z" fill="#000000" data-original="#000000"/>
		<path class="st53" d="M164.7024,38.6968c0.2706,0.2635-1.7751,1.3762-1.9562,1.475c-1.077,0.5873-2.0057,0.9858-3.2551,1.0989    c-3.7451,0.339-7.422-1.4839-9.6608-4.4544c-1.1577-1.5361-2.0752-3.4205-1.5536-5.376c0.3882-1.4555,1.541-3.2761,3.143-3.5615    c1.6059-0.2861,2.5628,1.3718,3.542,2.3387c1.3363,1.3197,2.9093,1.9489,4.7603,1.4079c1.3331-0.3896,3.9868-1.4005,4.713,0.5401    c0.2962,0.7915,0.1359,1.7623,0.1592,2.5877C164.6314,36.0686,164.6984,37.3801,164.7024,38.6968z" fill="#000000" data-original="#000000"/>
		<path class="st53" d="M93.814,56.2591c-5.0066-0.6314-12.5538-7.1448-7.6577-12.2349c1.1461-1.1915,2.567-1.4591,3.8592-0.3374    c1.2088,1.0494,0.4308,2.6069,0.4564,4.0444C90.527,50.8455,91.67,53.9747,93.814,56.2591z" fill="#000000" data-original="#000000"/>
		<path class="st53" d="M120.3248,35.2186c-2.0555,1.247-4.6538,2.2866-7.1036,1.9032c-0.885-0.1385-1.953-0.5317-2.5579-1.2259    c-0.7601-0.8724,0.3334-1.4984,0.9456-2.1644c3.64-3.9596,7.6955-7.5444,12.2058-10.486    C126.6547,27.224,123.8335,32.772,120.3248,35.2186z" fill="#000000" data-original="#000000"/>
		<path class="st53" d="M138.7802,72.1236c-3.8113-0.7413-7.5143-2.0043-11.032-3.6406c1.2562-0.461,2.6551-0.8222,3.5958-1.8411    c0.8906-0.9646,1.0092-2.2396,1.144-3.4837c0.1222-1.1284,0.3901-2.253,1.4201-2.8916c1.0873-0.6741,2.5584-0.6766,3.7664-0.3899    c2.2938,0.5444,3.6447,2.5325,3.8979,4.7986C141.8796,67.4248,140.636,70.1493,138.7802,72.1236z" fill="#000000" data-original="#000000"/>
		<g class="st11">
			<path class="st12" d="M159.5687,34.3481c2.1689,0,2.1738-3.4373,0-3.4369C157.3978,30.9116,157.3981,34.3481,159.5687,34.3481z" fill="#000000" data-original="#000000"/>
		</g>
		<g class="st11">
			<path class="st12" d="M138.4462,26.2144c2.1689,0,2.1739-3.4373,0-3.4369C136.2753,22.7779,136.2755,26.2144,138.4462,26.2144z" fill="#000000" data-original="#000000"/>
		</g>
		<g class="st11">
			<path class="st12" d="M72.1965,31.7583c2.1689,0,2.1738-3.4373,0-3.4369C70.0256,28.3218,70.0259,31.7583,72.1965,31.7583z" fill="#000000" data-original="#000000"/>
		</g>
		<g class="st11">
			<path class="st12" d="M47.4882,48.5372c2.1689,0,2.1738-3.4374,0-3.4369C45.3173,45.1007,45.3176,48.5372,47.4882,48.5372z" fill="#000000" data-original="#000000"/>
		</g>
		<g class="st11">
			<path class="st12" d="M72.1965,51.647c2.1689,0,2.1738-3.4374,0-3.4369C70.0256,48.2105,70.0259,51.647,72.1965,51.647z" fill="#000000" data-original="#000000"/>
		</g>
		<g class="st11">
			<path class="st12" d="M65.1979,70.5451c2.1689,0,2.1738-3.4373,0-3.4369C63.027,67.1086,63.0273,70.5451,65.1979,70.5451z" fill="#000000" data-original="#000000"/>
		</g>
		<g class="st11">
			<path class="st12" d="M91.3597,71.0888c2.1689,0,2.1738-3.4374,0-3.4369C89.1888,67.6523,89.189,71.0888,91.3597,71.0888z" fill="#000000" data-original="#000000"/>
		</g>
		<g class="st11">
			<path class="st12" d="M80.0685,93.1195c2.1689,0,2.1738-3.4374,0-3.4369C77.8975,89.683,77.8978,93.1195,80.0685,93.1195z" fill="#000000" data-original="#000000"/>
		</g>
		<g class="st11">
			<path class="st12" d="M114.631,67.6519c2.1689,0,2.1739-3.4373,0-3.4369C112.46,64.2154,112.4603,67.6519,114.631,67.6519z" fill="#000000" data-original="#000000"/>
		</g>
		<g class="st11">
			<path class="st12" d="M125.4455,92.596c2.1689,0,2.1738-3.4373,0-3.4369C123.2746,89.1595,123.2749,92.596,125.4455,92.596z" fill="#000000" data-original="#000000"/>
		</g>
		<g class="st11">
			<path class="st12" d="M34.2821,87.1433c2.1689,0,2.1738-3.4374,0-3.4369C32.1112,83.7068,32.1115,87.1433,34.2821,87.1433z" fill="#000000" data-original="#000000"/>
		</g>
		<g class="st11">
			<path class="st12" d="M55.9155,108.4023c2.1689,0,2.1738-3.4373,0-3.4369C53.7445,104.9658,53.7448,108.4023,55.9155,108.4023z" fill="#000000" data-original="#000000"/>
		</g>
		<g class="st11">
			<path class="st12" d="M83.86,107.0418c2.1689,0,2.1738-3.4374,0-3.4369C81.6891,103.6054,81.6893,107.0418,83.86,107.0418z" fill="#000000" data-original="#000000"/>
		</g>
		<g class="st11">
			<path class="st12" d="M121.2794,109.6179c2.1689,0,2.1739-3.4374,0-3.4369     C119.1085,106.1814,119.1087,109.6179,121.2794,109.6179z" fill="#000000" data-original="#000000"/>
		</g>
		<g class="st11">
			<path class="st12" d="M159.5687,97.9709c2.1689,0,2.1738-3.4374,0-3.4369C157.3978,94.5344,157.3981,97.9709,159.5687,97.9709z" fill="#000000" data-original="#000000"/>
		</g>
		<g class="st11">
			<path class="st12" d="M156.9304,132.6371c2.1689,0,2.1739-3.4374,0-3.4369     C154.7595,129.2006,154.7597,132.6371,156.9304,132.6371z" fill="#000000" data-original="#000000"/>
		</g>
		<g class="st11">
			<path class="st12" d="M131.0894,121.0042c2.1689,0,2.1738-3.4373,0-3.4369     C128.9185,117.5677,128.9188,121.0042,131.0894,121.0042z" fill="#000000" data-original="#000000"/>
		</g>
		<g class="st11">
			<path class="st12" d="M133.6462,153.6987c2.1689,0,2.1738-3.4373,0-3.4369     C131.4752,150.2623,131.4755,153.6987,133.6462,153.6987z" fill="#000000" data-original="#000000"/>
		</g>
		<g class="st11">
			<path class="st12" d="M83.86,162.0853c2.1689,0,2.1738-3.4373,0-3.4369C81.6891,158.6488,81.6893,162.0853,83.86,162.0853z" fill="#000000" data-original="#000000"/>
		</g>
		<g class="st11">
			<path class="st12" d="M62.5596,148.9643c2.1689,0,2.1738-3.4373,0-3.4369C60.3886,145.5278,60.3889,148.9643,62.5596,148.9643z" fill="#000000" data-original="#000000"/>
		</g>
		<g class="st11">
			<path class="st12" d="M78.3026,122.7227c2.1689,0,2.1738-3.4374,0-3.4369C76.1317,119.2862,76.1319,122.7227,78.3026,122.7227z" fill="#000000" data-original="#000000"/>
		</g>
		<g class="st13">
			<path class="st12" d="M73.8566,29.6513c2.1689,0,2.1738-3.4373,0-3.4369C71.6856,26.2149,71.6858,29.6513,73.8566,29.6513z" fill="#000000" data-original="#000000"/>
		</g>
		<g class="st13">
			<path class="st12" d="M50.046,47.4055c2.1689,0,2.1738-3.4373,0-3.4369C47.875,43.969,47.8752,47.4055,50.046,47.4055z" fill="#000000" data-original="#000000"/>
		</g>
		<g class="st13">
			<path class="st12" d="M68.306,53.6723c2.1689,0,2.1739-3.4374,0-3.4369C66.1351,50.2358,66.1353,53.6723,68.306,53.6723z" fill="#000000" data-original="#000000"/>
		</g>
		<g class="st13">
			<path class="st12" d="M66.6476,68.8266c2.1689,0,2.1739-3.4373,0-3.4369C64.4766,65.3901,64.4768,68.8266,66.6476,68.8266z" fill="#000000" data-original="#000000"/>
		</g>
		<g class="st13">
			<path class="st12" d="M92.6111,71.9447c2.1689,0,2.1738-3.4373,0-3.4369C90.4401,68.5082,90.4404,71.9447,92.6111,71.9447z" fill="#000000" data-original="#000000"/>
		</g>
		<g class="st13">
			<path class="st12" d="M78.3026,94.8379c2.1689,0,2.1738-3.4373,0-3.4369C76.1317,91.4015,76.1319,94.8379,78.3026,94.8379z" fill="#000000" data-original="#000000"/>
		</g>
		<g class="st13">
			<path class="st12" d="M112.6803,69.7306c2.1689,0,2.1738-3.4373,0-3.4369C110.5093,66.2941,110.5095,69.7306,112.6803,69.7306z" fill="#000000" data-original="#000000"/>
		</g>
		<g class="st13">
			<path class="st12" d="M124.1948,94.8379c2.1689,0,2.1738-3.4373,0-3.4369C122.0239,91.4015,122.0241,94.8379,124.1948,94.8379z" fill="#000000" data-original="#000000"/>
		</g>
		<g class="st13">
			<path class="st12" d="M139.0879,55.2862c2.1689,0,2.1738-3.4373,0-3.4369C136.917,51.8497,136.9172,55.2862,139.0879,55.2862z" fill="#000000" data-original="#000000"/>
		</g>
		<g class="st13">
			<path class="st12" d="M156.9304,36.6263c2.1689,0,2.1738-3.4374,0-3.4369C154.7595,33.1898,154.7597,36.6263,156.9304,36.6263z" fill="#000000" data-original="#000000"/>
		</g>
		<g class="st13">
			<path class="st12" d="M136.2845,27.9329c2.1689,0,2.1738-3.4373,0-3.4369C134.1136,24.4964,134.1138,27.9329,136.2845,27.9329z" fill="#000000" data-original="#000000"/>
		</g>
		<g class="st13">
			<path class="st12" d="M118.6051,110.1207c2.1689,0,2.1738-3.4373,0-3.4369     C116.4341,106.6842,116.4343,110.1207,118.6051,110.1207z" fill="#000000" data-original="#000000"/>
		</g>
		<g class="st13">
			<path class="st12" d="M159.5688,100.7022c2.1689,0,2.1738-3.4373,0-3.4369C157.3978,97.2657,157.398,100.7022,159.5688,100.7022z     " fill="#000000" data-original="#000000"/>
		</g>
		<g class="st13">
			<path class="st12" d="M134.6245,123.7355c2.1689,0,2.1738-3.4373,0-3.4369C132.4536,120.299,132.4538,123.7355,134.6245,123.7355     z" fill="#000000" data-original="#000000"/>
		</g>
		<g class="st13">
			<path class="st12" d="M158.5904,130.8835c2.1689,0,2.1738-3.4373,0-3.4369C156.4194,127.447,156.4197,130.8835,158.5904,130.8835     z" fill="#000000" data-original="#000000"/>
		</g>
		<g class="st13">
			<path class="st12" d="M131.0895,155.4172c2.1689,0,2.1739-3.4374,0-3.4369     C128.9185,151.9807,128.9187,155.4172,131.0895,155.4172z" fill="#000000" data-original="#000000"/>
		</g>
		<g class="st13">
			<path class="st12" d="M81.6226,163.8037c2.1689,0,2.1738-3.4373,0-3.4369C79.4516,160.3672,79.4519,163.8037,81.6226,163.8037z" fill="#000000" data-original="#000000"/>
		</g>
		<g class="st13">
			<path class="st12" d="M59.9213,151.2261c2.1689,0,2.1738-3.4373,0-3.4369C57.7503,147.7896,57.7505,151.2261,59.9213,151.2261z" fill="#000000" data-original="#000000"/>
		</g>
		<g class="st13">
			<path class="st12" d="M79.9626,126.4668c2.1689,0,2.1738-3.4373,0-3.4369C77.7916,123.0303,77.7919,126.4668,79.9626,126.4668z" fill="#000000" data-original="#000000"/>
		</g>
		<g class="st13">
			<path class="st12" d="M83.2826,110.0044c2.1689,0,2.1738-3.4373,0-3.4369C81.1116,106.5679,81.1118,110.0044,83.2826,110.0044z" fill="#000000" data-original="#000000"/>
		</g>
		<g class="st13">
			<path class="st12" d="M57.1294,111.3363c2.1689,0,2.1738-3.4373,0-3.4369C54.9585,107.8999,54.9587,111.3363,57.1294,111.3363z" fill="#000000" data-original="#000000"/>
		</g>
		<g class="st13">
			<path class="st12" d="M35.9422,89.6542c2.1689,0,2.1738-3.4373,0-3.4369C33.7712,86.2177,33.7714,89.6542,35.9422,89.6542z" fill="#000000" data-original="#000000"/>
		</g>
		<g class="st14">
			<path class="st12" d="M149.8614,38.0859c1.5657,0,1.5668-2.4817,0-2.4813C148.2963,35.605,148.2938,38.0859,149.8614,38.0859z" fill="#000000" data-original="#000000"/>
		</g>
		<g class="st14">
			<path class="st12" d="M127.1055,25.7366c1.5657,0,1.5668-2.4817,0-2.4813C125.5404,23.2557,125.538,25.7366,127.1055,25.7366z" fill="#000000" data-original="#000000"/>
		</g>
		<g class="st14">
			<path class="st12" d="M145.4153,62.6324c1.5657,0,1.5668-2.4817,0-2.4813C143.8502,60.1515,143.8478,62.6324,145.4153,62.6324z" fill="#000000" data-original="#000000"/>
		</g>
		<g class="st14">
			<path class="st12" d="M124.6585,48.339c1.5657,0,1.5669-2.4817,0-2.4813C123.0933,45.8581,123.0909,48.339,124.6585,48.339z" fill="#000000" data-original="#000000"/>
		</g>
		<g class="st14">
			<path class="st12" d="M132.7506,79.7494c1.5657,0,1.5668-2.4817,0-2.4813C131.1855,77.2685,131.183,79.7494,132.7506,79.7494z" fill="#000000" data-original="#000000"/>
		</g>
		<g class="st14">
			<path class="st12" d="M80.941,84.5159c1.5657,0,1.5668-2.4817,0-2.4813C79.3758,82.035,79.3734,84.5159,80.941,84.5159z" fill="#000000" data-original="#000000"/>
		</g>
		<g class="st14">
			<path class="st12" d="M61.5812,41.611c1.5657,0,1.5669-2.4817,0-2.4813C60.0161,39.1301,60.0137,41.611,61.5812,41.611z" fill="#000000" data-original="#000000"/>
		</g>
		<g class="st14">
			<path class="st12" d="M41.5783,53.6177c1.5657,0,1.5669-2.4817,0-2.4813C40.0132,51.1368,40.0108,53.6177,41.5783,53.6177z" fill="#000000" data-original="#000000"/>
		</g>
		<g class="st14">
			<path class="st12" d="M84.1278,48.0594c1.5657,0,1.5668-2.4817,0-2.4813C82.5627,45.5785,82.5603,48.0594,84.1278,48.0594z" fill="#000000" data-original="#000000"/>
		</g>
		<g class="st14">
			<path class="st12" d="M69.966,157.6707c1.5657,0,1.5668-2.4817,0-2.4813C68.4009,155.1897,68.3985,157.6707,69.966,157.6707z" fill="#000000" data-original="#000000"/>
		</g>
		<g class="st14">
			<path class="st12" d="M86.083,180.7544c1.5657,0,1.5668-2.4817,0-2.4813C84.5179,178.2735,84.5155,180.7544,86.083,180.7544z" fill="#000000" data-original="#000000"/>
		</g>
		<g class="st14">
			<path class="st12" d="M54.4911,140.5738c1.5657,0,1.5668-2.4817,0-2.4813C52.926,138.0929,52.9235,140.5738,54.4911,140.5738z" fill="#000000" data-original="#000000"/>
		</g>
		<g class="st14">
			<path class="st12" d="M83.86,133.8777c1.5657,0,1.5668-2.4817,0-2.4813C82.2949,131.3968,82.2925,133.8777,83.86,133.8777z" fill="#000000" data-original="#000000"/>
		</g>
		<g class="st14">
			<path class="st12" d="M65.9827,120.5264c1.5657,0,1.5668-2.4817,0-2.4813C64.4175,118.0455,64.4151,120.5264,65.9827,120.5264z" fill="#000000" data-original="#000000"/>
		</g>
		<g class="st14">
			<path class="st12" d="M57.1294,98.872c1.5657,0,1.5668-2.4817,0-2.4813C55.5643,96.3911,55.5619,98.872,57.1294,98.872z" fill="#000000" data-original="#000000"/>
		</g>
		<g class="st14">
			<path class="st12" d="M121.2794,123.2577c1.5657,0,1.5669-2.4817,0-2.4813     C119.7143,120.7768,119.7119,123.2577,121.2794,123.2577z" fill="#000000" data-original="#000000"/>
		</g>
		<g class="st14">
			<path class="st12" d="M136.5194,142.0438c1.5657,0,1.5668-2.4817,0-2.4813     C134.9543,139.5629,134.9518,142.0438,136.5194,142.0438z" fill="#000000" data-original="#000000"/>
		</g>
		<g class="st14">
			<path class="st12" d="M138.4462,163.3259c1.5657,0,1.5668-2.4817,0-2.4813C136.8811,160.845,136.8786,163.3259,138.4462,163.3259     z" fill="#000000" data-original="#000000"/>
		</g>
		<g class="st14">
			<path class="st12" d="M146.0246,110.8585c1.5657,0,1.5669-2.4817,0-2.4813     C144.4595,108.3776,144.4571,110.8585,146.0246,110.8585z" fill="#000000" data-original="#000000"/>
		</g>
		<g class="st14">
			<path class="st12" d="M54.4911,31.3435c3.4505,0,3.4478-5.4584,0-5.4625C51.0448,25.8768,51.0387,31.3435,54.4911,31.3435z" fill="#000000" data-original="#000000"/>
		</g>
		<g class="st14">
			<path class="st12" d="M86.083,40.3704c3.4505,0,3.4478-5.4584,0-5.4625C82.6367,34.9037,82.6307,40.3704,86.083,40.3704z" fill="#000000" data-original="#000000"/>
		</g>
		<g class="st14">
			<path class="st12" d="M78.3026,65.3651c3.4505,0,3.4478-5.4584,0-5.4625C74.8563,59.8984,74.8503,65.3651,78.3026,65.3651z" fill="#000000" data-original="#000000"/>
		</g>
		<g class="st14">
			<path class="st12" d="M50.6388,60.0697c3.4505,0,3.4478-5.4584,0-5.4625C47.1925,54.603,47.1864,60.0697,50.6388,60.0697z" fill="#000000" data-original="#000000"/>
		</g>
		<g class="st14">
			<path class="st12" d="M151.0285,25.3874c3.4505,0,3.4478-5.4584,0-5.4625C147.5822,19.9207,147.5762,25.3874,151.0285,25.3874z" fill="#000000" data-original="#000000"/>
		</g>
		<g class="st14">
			<path class="st12" d="M122.9033,37.6391c3.4505,0,3.4478-5.4584,0-5.4625C119.457,32.1724,119.4509,37.6391,122.9033,37.6391z" fill="#000000" data-original="#000000"/>
		</g>
		<g class="st14">
			<path class="st12" d="M128.1276,65.3651c3.4505,0,3.4478-5.4584,0-5.4625C124.6813,59.8984,124.6752,65.3651,128.1276,65.3651z" fill="#000000" data-original="#000000"/>
		</g>
		<g class="st14">
			<path class="st12" d="M153.262,59.2889c3.4505,0,3.4478-5.4584,0-5.4625C149.8157,53.8222,149.8096,59.2889,153.262,59.2889z" fill="#000000" data-original="#000000"/>
		</g>
		<g class="st14">
			<path class="st12" d="M159.5688,83.2753c3.4505,0,3.4478-5.4584,0-5.4625C156.1225,77.8086,156.1164,83.2753,159.5688,83.2753z" fill="#000000" data-original="#000000"/>
		</g>
		<g class="st14">
			<path class="st12" d="M136.2845,109.6179c3.4505,0,3.4478-5.4584,0-5.4625     C132.8382,104.1512,132.8322,109.6179,136.2845,109.6179z" fill="#000000" data-original="#000000"/>
		</g>
		<g class="st14">
			<path class="st12" d="M125.4456,135.4193c3.4505,0,3.4479-5.4584,0-5.4625     C121.9993,129.9526,121.9932,135.4193,125.4456,135.4193z" fill="#000000" data-original="#000000"/>
		</g>
		<g class="st14">
			<path class="st12" d="M145.4153,152.7084c3.4505,0,3.4478-5.4584,0-5.4625C141.969,147.2417,141.963,152.7084,145.4153,152.7084z     " fill="#000000" data-original="#000000"/>
		</g>
		<g class="st14">
			<path class="st12" d="M122.9033,170.7956c3.4505,0,3.4478-5.4583,0-5.4625C119.457,165.3289,119.4509,170.7956,122.9033,170.7956     z" fill="#000000" data-original="#000000"/>
		</g>
		<g class="st14">
			<path class="st12" d="M78.3026,150.5774c3.4505,0,3.4478-5.4584,0-5.4625C74.8563,145.1107,74.8503,150.5774,78.3026,150.5774z" fill="#000000" data-original="#000000"/>
		</g>
		<g class="st14">
			<path class="st12" d="M52.6843,124.7483c3.4505,0,3.4478-5.4584,0-5.4625C49.238,119.2816,49.232,124.7483,52.6843,124.7483z" fill="#000000" data-original="#000000"/>
		</g>
		<g class="st14">
			<path class="st12" d="M44.2167,101.715c3.4505,0,3.4478-5.4584,0-5.4625C40.7704,96.2483,40.7643,101.715,44.2167,101.715z" fill="#000000" data-original="#000000"/>
		</g>
		<g class="st14">
			<path class="st12" d="M35.9422,73.9458c3.4505,0,3.4478-5.4584,0-5.4625C32.4958,68.4791,32.4898,73.9458,35.9422,73.9458z" fill="#000000" data-original="#000000"/>
		</g>
		<g class="st14">
			<path class="st12" d="M60.8288,173.5268c3.4505,0,3.4478-5.4584,0-5.4625C57.3825,168.0601,57.3764,173.5268,60.8288,173.5268z" fill="#000000" data-original="#000000"/>
		</g>
		<g class="st14">
			<path class="st12" d="M86.083,80.544c3.4505,0,3.4478-5.4584,0-5.4625C82.6367,75.0773,82.6307,80.544,86.083,80.544z" fill="#000000" data-original="#000000"/>
		</g>
		<g class="st14">
			<path class="st12" d="M115.9667,81.6475c3.4505,0,3.4478-5.4584,0-5.4625C112.5204,76.1807,112.5144,81.6475,115.9667,81.6475z" fill="#000000" data-original="#000000"/>
		</g>
		<g class="st14">
			<path class="st12" d="M65.198,85.658c3.4505,0,3.4478-5.4584,0-5.4625C61.7516,80.1913,61.7456,85.658,65.198,85.658z" fill="#000000" data-original="#000000"/>
		</g>
		<g class="st14">
			<path class="st12" d="M141.7263,86.0958c3.4505,0,3.4478-5.4584,0-5.4625C138.28,80.6291,138.2739,86.0958,141.7263,86.0958z" fill="#000000" data-original="#000000"/>
		</g>
		<g class="st15">
			<path class="st12" d="M148.0537,28.6122c3.4505,0,3.4478-5.4584,0-5.4625C144.6073,23.1455,144.6013,28.6122,148.0537,28.6122z" fill="#000000" data-original="#000000"/>
		</g>
		<g class="st15">
			<path class="st12" d="M58.1905,28.9376c3.4505,0,3.4478-5.4584,0-5.4625C54.7441,23.4709,54.7381,28.9376,58.1905,28.9376z" fill="#000000" data-original="#000000"/>
		</g>
		<g class="st15">
			<path class="st12" d="M55.3227,59.2889c3.4505,0,3.4478-5.4584,0-5.4625C51.8763,53.8222,51.8703,59.2889,55.3227,59.2889z" fill="#000000" data-original="#000000"/>
		</g>
		<g class="st15">
			<path class="st12" d="M85.0057,37.6391c3.4505,0,3.4478-5.4584,0-5.4625C81.5593,32.1724,81.5533,37.6391,85.0057,37.6391z" fill="#000000" data-original="#000000"/>
		</g>
		<g class="st15">
			<path class="st12" d="M80.941,62.801c3.4505,0,3.4478-5.4584,0-5.4625C77.4947,57.3343,77.4886,62.801,80.941,62.801z" fill="#000000" data-original="#000000"/>
		</g>
		<g class="st15">
			<path class="st12" d="M88.7214,78.5088c3.4505,0,3.4478-5.4584,0-5.4625C85.2751,73.0421,85.269,78.5088,88.7214,78.5088z" fill="#000000" data-original="#000000"/>
		</g>
		<g class="st15">
			<path class="st12" d="M62.5596,86.0066c3.4505,0,3.4478-5.4584,0-5.4625C59.1133,80.5399,59.1073,86.0066,62.5596,86.0066z" fill="#000000" data-original="#000000"/>
		</g>
		<g class="st15">
			<path class="st12" d="M116.5497,77.8128c3.4505,0,3.4478-5.4584,0-5.4625C113.1034,72.3461,113.0974,77.8128,116.5497,77.8128z" fill="#000000" data-original="#000000"/>
		</g>
		<g class="st15">
			<path class="st12" d="M146.0246,87.11c3.4505,0,3.4478-5.4584,0-5.4625C142.5783,81.6433,142.5723,87.11,146.0246,87.11z" fill="#000000" data-original="#000000"/>
		</g>
		<g class="st15">
			<path class="st12" d="M125.4456,65.22c3.4505,0,3.4479-5.4584,0-5.4625C121.9993,59.7533,121.9932,65.22,125.4456,65.22z" fill="#000000" data-original="#000000"/>
		</g>
		<g class="st15">
			<path class="st12" d="M153.262,55.391c3.4505,0,3.4478-5.4584,0-5.4625C149.8157,49.9243,149.8096,55.391,153.262,55.391z" fill="#000000" data-original="#000000"/>
		</g>
		<g class="st15">
			<path class="st12" d="M122.9033,33.0674c3.4505,0,3.4478-5.4584,0-5.4625C119.457,27.6007,119.4509,33.0674,122.9033,33.0674z" fill="#000000" data-original="#000000"/>
		</g>
		<g class="st15">
			<path class="st12" d="M35.9422,77.8128c3.4505,0,3.4478-5.4584,0-5.4625C32.4958,72.3461,32.4898,77.8128,35.9422,77.8128z" fill="#000000" data-original="#000000"/>
		</g>
		<g class="st15">
			<path class="st12" d="M46.855,103.9498c3.4505,0,3.4478-5.4584,0-5.4625C43.4087,98.4831,43.4027,103.9498,46.855,103.9498z" fill="#000000" data-original="#000000"/>
		</g>
		<g class="st15">
			<path class="st12" d="M53.2771,129.8404c3.4505,0,3.4478-5.4584,0-5.4625C49.8308,124.3736,49.8248,129.8404,53.2771,129.8404z" fill="#000000" data-original="#000000"/>
		</g>
		<g class="st15">
			<path class="st12" d="M82.3673,147.8461c3.4505,0,3.4478-5.4584,0-5.4625C78.921,142.3794,78.9149,147.8461,82.3673,147.8461z" fill="#000000" data-original="#000000"/>
		</g>
		<g class="st15">
			<path class="st12" d="M65.198,169.2138c3.4505,0,3.4478-5.4584,0-5.4625C61.7516,163.7471,61.7456,169.2138,65.198,169.2138z" fill="#000000" data-original="#000000"/>
		</g>
		<g class="st15">
			<path class="st12" d="M121.5565,177.095c3.4505,0,3.4478-5.4584,0-5.4625C118.1102,171.6283,118.1041,177.095,121.5565,177.095z" fill="#000000" data-original="#000000"/>
		</g>
		<g class="st15">
			<path class="st12" d="M143.3863,156.43c3.4505,0,3.4478-5.4584,0-5.4625C139.94,150.9633,139.9339,156.43,143.3863,156.43z" fill="#000000" data-original="#000000"/>
		</g>
		<g class="st15">
			<path class="st12" d="M121.2794,133.6499c3.4505,0,3.4478-5.4584,0-5.4625     C117.8331,128.1832,117.8271,133.6499,121.2794,133.6499z" fill="#000000" data-original="#000000"/>
		</g>
		<g class="st15">
			<path class="st12" d="M132.7506,109.6179c3.4505,0,3.4478-5.4584,0-5.4625     C129.3043,104.1512,129.2982,109.6179,132.7506,109.6179z" fill="#000000" data-original="#000000"/>
		</g>
		<g class="st15">
			<path class="st12" d="M161.2307,87.11c3.4505,0,3.4478-5.4584,0-5.4625C157.7844,81.6433,157.7783,87.11,161.2307,87.11z" fill="#000000" data-original="#000000"/>
		</g>
		<path class="st12" d="M59.2821,66.155c0.9539-0.6699,1.9077-1.3397,2.8616-2.0096c-0.6939-0.0667-1.3902-0.1546-2.0863-0.1917    c-0.584-0.0311-1.2506,0.0462-1.7591-0.2987c-0.4112-0.2789-0.6367-0.7905-0.8941-1.1964    c-0.3892-0.6135-0.8193-1.2025-1.2346-1.7987c-0.0695,0.723-0.1562,1.4471-0.1935,2.1725    c-0.0265,0.5145,0.0355,1.1159-0.2344,1.5829c-0.2493,0.4313-0.7634,0.6662-1.1676,0.9195    c-0.6478,0.4059-1.2644,0.8596-1.8899,1.299c0.6801,0.0671,1.363,0.1562,2.0453,0.195c0.5184,0.0295,1.129-0.0395,1.6073,0.199    c0.4894,0.244,0.7265,0.7578,1.0106,1.1965c0.4174,0.6444,0.8692,1.2667,1.3106,1.8951c0.0772-0.803,0.1577-1.6042,0.2058-2.409    C58.8915,67.2495,58.8308,66.4514,59.2821,66.155z" fill="#000000" data-original="#000000"/>
		<path class="st12" d="M69.7044,25.2612c0.9539-0.6699,1.9077-1.3397,2.8616-2.0096c-0.6939-0.0667-1.3902-0.1546-2.0863-0.1917    c-0.584-0.0311-1.2506,0.0462-1.7591-0.2987c-0.4112-0.2789-0.6367-0.7905-0.8941-1.1964    c-0.3892-0.6136-0.8193-1.2025-1.2346-1.7987c-0.0695,0.723-0.1562,1.4471-0.1935,2.1725    c-0.0265,0.5145,0.0356,1.1159-0.2344,1.5829c-0.2493,0.4313-0.7634,0.6662-1.1676,0.9195    c-0.6478,0.4059-1.2644,0.8596-1.8899,1.299c0.6801,0.0671,1.363,0.1562,2.0453,0.195c0.5184,0.0295,1.129-0.0395,1.6073,0.199    c0.4894,0.244,0.7265,0.7578,1.0106,1.1965c0.4175,0.6444,0.8692,1.2667,1.3106,1.8951c0.0772-0.803,0.1577-1.6042,0.2058-2.409    C69.3138,26.3558,69.2531,25.5576,69.7044,25.2612z" fill="#000000" data-original="#000000"/>
		<path class="st12" d="M143.5944,29.9909c0.9539-0.6699,1.9077-1.3397,2.8616-2.0096c-0.6939-0.0667-1.3902-0.1546-2.0863-0.1917    c-0.584-0.0311-1.2506,0.0462-1.7591-0.2987c-0.4111-0.2788-0.6367-0.7905-0.8941-1.1964    c-0.3892-0.6136-0.8193-1.2025-1.2346-1.7987c-0.0695,0.723-0.1562,1.4471-0.1935,2.1725    c-0.0265,0.5145,0.0356,1.1159-0.2344,1.5829c-0.2493,0.4313-0.7634,0.6662-1.1676,0.9195    c-0.6478,0.4059-1.2644,0.8596-1.8899,1.299c0.6801,0.0671,1.363,0.1562,2.0453,0.195c0.5184,0.0295,1.129-0.0395,1.6073,0.199    c0.4894,0.244,0.7265,0.7578,1.0107,1.1965c0.4174,0.6444,0.8692,1.2667,1.3106,1.8951c0.0772-0.803,0.1577-1.6042,0.2058-2.409    C143.2038,31.0855,143.1431,30.2873,143.5944,29.9909z" fill="#000000" data-original="#000000"/>
		<path class="st12" d="M131.2976,55.0974c0.9539-0.6699,1.9077-1.3397,2.8616-2.0096c-0.6939-0.0667-1.3902-0.1546-2.0863-0.1917    c-0.584-0.0311-1.2506,0.0462-1.7591-0.2987c-0.4111-0.2789-0.6367-0.7905-0.8941-1.1964    c-0.3892-0.6136-0.8193-1.2025-1.2346-1.7987c-0.0695,0.723-0.1562,1.4471-0.1935,2.1725    c-0.0265,0.5145,0.0355,1.1159-0.2344,1.5829c-0.2493,0.4313-0.7634,0.6662-1.1676,0.9195    c-0.6478,0.4059-1.2644,0.8596-1.8899,1.299c0.6801,0.0671,1.363,0.1562,2.0453,0.195c0.5184,0.0295,1.129-0.0395,1.6073,0.199    c0.4894,0.244,0.7265,0.7578,1.0107,1.1965c0.4174,0.6444,0.8692,1.2667,1.3106,1.8951c0.0772-0.803,0.1577-1.6042,0.2058-2.409    C130.907,56.1919,130.8463,55.3938,131.2976,55.0974z" fill="#000000" data-original="#000000"/>
		<path class="st12" d="M144.4906,46.1157c-0.67-0.4705-1.3401-0.9411-2.0101-1.4116c0.8711-0.0837,1.9547,0.1532,2.7244-0.3591    c0.7064-0.4701,1.0039-1.4171,1.4721-2.0893c0.0805,0.8381-0.1463,1.8767,0.3006,2.638c0.4452,0.7584,1.4611,1.076,2.1478,1.5584    c-0.8385,0.0827-1.8771-0.1421-2.6389,0.3043c-0.7581,0.4442-1.0755,1.4582-1.5574,2.1441    C144.8734,48.323,145.0278,46.4684,144.4906,46.1157z" fill="#000000" data-original="#000000"/>
		<path class="st12" d="M62.2257,47.6359c-0.67-0.4705-1.3401-0.9411-2.0101-1.4116c0.8711-0.0837,1.9547,0.1532,2.7244-0.3591    c0.7064-0.4701,1.0039-1.4171,1.4721-2.0893c0.0805,0.8381-0.1463,1.8767,0.3006,2.638c0.4452,0.7584,1.4611,1.076,2.1478,1.5584    c-0.8385,0.0827-1.8771-0.1421-2.639,0.3043c-0.7581,0.4442-1.0755,1.4582-1.5574,2.1441    C62.6085,49.8433,62.7628,47.9887,62.2257,47.6359z" fill="#000000" data-original="#000000"/>
	</g>
	<g>
		<path class="st16" d="M82.5918,166.5588c-1.0704,0.0781-2.1408,0.1563-3.2111,0.2344c0.0119,0.1557,0.0145,0.3146,0.0343,0.4695    c-0.1468-0.8722-1.0193-1.6029-1.5716-2.2412c-0.58-0.6703-1.2218-1.2426-2.1542-1.2582    c-2.1951-0.0368-2.2893,2.1791-2.762,3.7565c-0.5084,1.6964-3.3542,1.1459-4.3193,2.6905    c-1.1145,1.7838,0.8069,2.9754,2.1919,3.6105c0.7251,0.3325,1.3338,0.5494,1.4179,1.4109    c0.0805,0.8251-0.0751,1.6567,0.1071,2.4792c0.203,0.9163,0.8559,1.631,1.8139,1.7633c1.0783,0.1489,1.9086-0.5167,2.7001-1.1434    c0.5808-0.4599,1.1332-1.1699,1.8976-1.1402c0.6955,0.0269,1.4555,0.4114,2.1414,0.5511c1.3888,0.2828,3.0878,0.1393,3.38-1.5705    c0.2012-1.1773-0.6641-2.1669-1.0634-3.1948c-0.4253-1.0944,0.6717-1.9046,1.2323-2.7709    C85.4268,168.6596,84.7125,166.3981,82.5918,166.5588z" fill="#000000" data-original="#000000"/>
		<path class="st16" d="M68.8852,142.1417c1.1254-0.0002,1.8847-0.6978,2.3539-1.665c0.2729-0.5625,0.4544-1.1713,0.6629-1.7592    c0.153-0.4315,0.2658-1.3741,0.6041-1.7036c0.2915-0.284,0.9786-0.3224,1.3512-0.4237c0.5939-0.1615,1.1879-0.3216,1.7832-0.4776    c1.1088-0.2906,2.2022-0.6937,2.596-1.8874c0.5861-1.7767-1.3869-2.9332-2.6358-3.7189c-0.766-0.4818-1.6796-0.8389-1.6897-1.8623    c-0.0116-1.1817,0.3676-2.4325,0.0501-3.6032c-0.7081-2.6106-3.2151-1.7872-4.8595-0.7173    c-0.6821,0.4438-1.4133,1.1887-2.2016,1.4142c-1.1756,0.3364-2.8391-0.8335-3.9787-1.1036    c-0.9733-0.2307-1.9848-0.1518-2.7042,0.6115c-0.875,0.9284-0.7175,2.0954-0.3315,3.1986    c0.3802,1.0867,1.3211,2.4076,0.4535,3.4157c-0.7811,0.9075-1.8619,1.7652-2.3105,2.9021    c-0.4914,1.2451,0.1337,2.4434,1.3189,2.9727c1.2667,0.5657,2.7654,0.1701,4.1059,0.2294    c1.4518,0.0642,1.8207,1.0392,2.5943,2.1055C66.7612,141.0532,67.5399,142.143,68.8852,142.1417z" fill="#000000" data-original="#000000"/>
		<path class="st16" d="M151.7638,122.1522c-0.7867,0.0574-1.5736,0.1125-2.3601,0.1721c-0.5388,0.0409-1.2399,0.2418-1.7552,0.0149    c-0.7899-0.3478-1.4225-1.507-2.0065-2.1201c-0.662-0.695-1.493-1.5054-2.4972-1.6196c-1.1121-0.1265-2.0343,0.757-2.4374,1.719    c-0.4245,1.0132-0.4229,2.1505-0.7893,3.174c-0.3121,0.8717-1.2462,0.9844-2.0394,1.239    c-1.3391,0.4298-3.5215,1.0422-3.6657,2.7379c-0.2113,2.486,2.8751,2.8166,4.3547,3.953    c0.8504,0.6531,0.5014,2.4765,0.5822,3.4542c0.0875,1.0594,0.4214,2.1396,1.4686,2.6125c1.2437,0.5617,2.338-0.0702,3.3102-0.8288    c0.7722-0.6025,1.5601-1.712,2.559-1.9131c1.106-0.2227,2.5018,0.6031,3.5781,0.8293c1.2605,0.265,2.7388,0.095,3.32-1.2511    c0.497-1.1513-0.2348-2.5421-0.7585-3.5593c-0.2536-0.4928-0.6942-1.072-0.6895-1.6506c0.0057-0.69,0.676-1.2546,1.0629-1.7691    c0.7446-0.9904,1.648-2.0615,1.3248-3.386C154.0401,122.7906,152.9464,122.0642,151.7638,122.1522z" fill="#000000" data-original="#000000"/>
		<path class="st16" d="M172.9185,85.128c-0.1698-4.949-0.2037-9.9332-1.1312-14.8148c-0.4356-2.2928-1.0704-4.5615-2.0882-6.6684    c-0.4688-0.9703-1.0194-1.8963-1.6694-2.7564c-0.6823-0.903-0.4587-1.2134-0.2122-2.3001c1.112-4.9038,1.2384-9.9576,1.38-14.963    c0.1388-4.9053,0.1947-9.8662-0.7157-14.7091c-1.3413-7.1346-5.4226-14.0836-12.426-16.85    c-4.4154-1.7441-9.2466-1.3824-13.777-0.3085c-4.5389,1.0759-9.0397,2.5843-13.2132,4.6787    c-4.4794,2.2479-8.6132,5.1847-12.2444,8.6366c-3.7295,3.5453-7.1614,7.5965-9.4807,12.2165    c-3.5295-2.5329-8.3071-2.5706-11.8399-0.0215c-2.6781-5.0594-6.6764-9.4179-11.017-13.1048    c-4.4175-3.7522-9.4276-6.697-14.8192-8.8128c-5.3122-2.0846-11.3228-3.8955-17.0918-3.4875    c-5.2737,0.373-10.1832,2.8737-13.4428,7.0631c-3.3633,4.3227-4.6381,9.8083-5.0753,15.1665    c-0.5233,6.414-0.1816,12.9798,0.4974,19.3715c0.0818,0.7696,0.1775,1.5379,0.2925,2.3033    c0.0689,0.4584,0.3471,1.1595,0.2468,1.6197c-0.0961,0.4411-0.665,0.784-0.9943,1.0308    c-0.5901,0.4424-1.0999,0.8874-1.5812,1.4516c-1.8711,2.1929-3.0207,4.9058-3.7868,7.6598    c-1.644,5.9102-1.5519,12.166-1.7192,18.2485c-0.179,6.5076-0.3077,13.5174,2.4247,19.5813    c2.173,4.8223,6.2723,8.4732,11.3822,9.9068c-2.0644,9.1359-1.7302,18.5851-0.3088,27.7862    c1.3916,9.0083,3.3302,18.0968,7.3356,26.3454c1.9045,3.922,4.3319,7.5753,7.6884,10.4022    c3.2181,2.7102,7.031,4.6307,11.0143,5.9389c8.5745,2.8161,17.8972,2.9914,26.8379,3.2819    c9.6565,0.3137,19.3764,0.1953,28.9973-0.7536c8.3657-0.8251,17.2302-2.6605,23.8589-8.1797    c6.2601-5.2122,9.5954-13.0439,11.9159-20.6556c2.7085-8.8842,4.3564-18.4063,4.6011-27.6961    c0.1254-4.7613-0.1507-9.5608-0.9582-14.258c-0.0914-0.5319-0.1967-1.0569-0.3204-1.5819    c-0.0674-0.2857-0.3324-0.874-0.2198-1.1823c0.1821-0.4989,1.248-0.7253,1.729-0.9771c1.4944-0.7821,2.8643-1.7915,4.043-2.9984    c4.735-4.8483,5.8763-12.0673,5.9968-18.5717C173.0712,89.8199,172.9946,87.4729,172.9185,85.128z M108.8873,36.7959    c3.7058-4.2134,7.6036-8.2847,12.1337-11.6244c4.4801-3.3028,9.4598-5.8992,14.764-7.5952    c5.1787-1.6558,11.3126-3.5637,16.7493-2.1605c4.712,1.2161,8.2939,4.8252,10.1047,9.2593    c1.9885,4.8691,2.05,10.2328,2.0705,15.411c0.0232,5.8493-0.0018,11.8102-1.2789,17.5479    c-1.0333,4.6426-3.0704,9.3146-6.897,12.3219c-4.033,3.1695-9.2138,3.4572-14.1111,2.793    c-6.0581-0.8216-11.9382-2.7483-17.3447-5.5944c-5.7327-3.0179-10.7666-7.1036-15.7899-11.1513    c1.0523-1.2186,1.5654-2.5008,2.2488-3.9163c0.309-0.64,0.4812-0.4363,1.0906-0.2806c0.8144,0.208,1.6466,0.3407,2.464,0.5366    c1.6236,0.389,3.1981,0.949,4.7463,1.5688c1.4577,0.5835,2.9708,1.4696,4.4989,1.8315c1.6248,0.3848,0.5875-1.2574,0.0539-1.8876    c-0.9491-1.121-2.2548-1.9695-3.56-2.6192c-2.6292-1.3087-5.8952-1.9711-8.7402-0.987c0.3563-1.8656,0.3661-3.7724-0.049-5.6325    c6.9509,1.1396,14.7116-2.1585,19.2304-7.4457c0.4151-0.4857,2.0477-2.238,1.8047-2.9959    c-0.2927-0.9129-3.2812,1.5971-3.7325,1.938c-3.4319,2.5923-7.4669,4.5193-11.5809,5.7453    c-1.2254,0.3652-2.4694,0.6667-3.7181,0.9402c-0.569,0.1247-1.9789,0.718-2.459,0.2815    c-0.2232-0.2029-0.3608-0.9523-0.5046-1.2534c-0.2293-0.4804-0.4888-0.9468-0.7772-1.3942    c-0.6341-0.9837-1.4094-1.879-2.3062-2.632C108.2989,37.4697,108.5933,37.1329,108.8873,36.7959z M125.4311,101.2186    c-10.1742-10.2749-17.0089-23.4352-20.2828-37.4717c-0.2388-1.0236-0.4152-2.0762-0.6996-3.0878    c-0.1679-0.5972-0.5179-1.035,0.0269-1.4663c0.5102-0.404,1.3123-0.4945,1.8917-0.7867c0.8701-0.4388,1.6705-1.107,2.3558-1.7923    c2.3661,3.4117,5.5249,6.2061,8.7493,8.7829c0.7523,0.6012,0.8936,0.9151,1.1399,1.8534    c0.2708,1.0316,0.6283,2.0411,1.0281,3.0292c0.8265,2.0429,1.85,4.0045,3.0144,5.8746c2.065,3.3166,4.4933,6.6121,7.621,9.0025    c0.5974,0.4566,1.2409,0.9603,1.9247,1.2845c0.801,0.3797,0.9297-0.0176,0.5829-0.7163c-0.894-1.8011-2.3421-3.3679-3.5259-4.9783    c-3.0192-4.1074-5.7294-8.4353-8.3626-12.7968c4.9879,3.4431,10.4871,6.0429,16.3524,7.5844    c3.0472,0.8009,6.1857,1.4169,9.3422,1.5183c1.1873,0.0381,2.2531-0.1198,3.4157-0.2316    c0.9706-0.0933,0.9432,0.6239,1.0973,1.4572c0.5142,2.7802,1.3303,5.4855,1.7537,8.2913c0.1051,0.6968,0.197,1.3937,0.3157,2.0882    c0.0644,0.3769,0.2933,1.2363,0.0576,1.5932c-0.4013,0.6076-2.337,0.1517-2.9514,0.1262    c-3.1954-0.1323-6.3811-0.4982-9.5237-1.0916c-2.6215-0.495-5.6552-1.7889-7.8787,0.3576    c-1.7529,1.6922-2.4712,4.3763-3.7326,6.4223c-0.7142,1.1584-1.4639,2.3178-2.3295,3.37    C126.668,99.6115,125.3123,101.0405,125.4311,101.2186z M96.933,39.8911c2.6786-2.1223,6.3968-1.947,9.0448,0.133    c3.093,2.4295,4.0844,6.8377,2.9851,10.5167c-1.026,3.4335-4.0934,6.4006-7.8565,6.201c-3.5547-0.1885-6.385-3.15-7.3032-6.4439    C92.7777,46.6195,93.8647,42.2905,96.933,39.8911z M77.5173,101.1015c-1.9173-1.9173-3.421-4.3065-4.7332-6.6665    c-0.9417-1.6937-1.5549-3.7284-3.0933-5.0057c-2.1091-1.7512-4.6796-0.7135-7.035-0.1827    c-2.8663,0.646-5.803,1.0214-8.7297,1.2526c-1.1812,0.0933-2.3932,0.3167-3.5792,0.2237c-0.507-0.0398-0.739-0.0061-0.8381-0.5224    c-0.1241-0.6465,0.1237-1.4733,0.1961-2.1139c0.3356-2.968,0.9156-5.8993,1.6173-8.8009    c0.0868-0.3591,0.1175-1.1919,0.3856-1.4731c0.238-0.2496,0.5096-0.1279,0.8327-0.0861c1.4818,0.1919,2.948,0.3011,4.4446,0.2428    c2.9665-0.1154,5.8912-0.732,8.7572-1.4745c6.0241-1.5607,11.7026-4.2727,16.7839-7.8561    c-2.3086,3.8498-4.7149,7.6457-7.348,11.2832c-1.1969,1.6535-2.4866,3.2484-3.5996,4.9613    c-0.3925,0.6041-1.3156,2.1115,0.1292,1.5046c1.6679-0.7007,3.0019-2.2232,4.2359-3.4943    c1.4963-1.5413,2.8538-3.2123,4.0797-4.9758c1.1874-1.7081,2.2499-3.5044,3.1612-5.3747c0.4672-0.959,0.9131-1.9384,1.276-2.9423    c0.3363-0.9304,0.4419-2.0003,0.8926-2.8844c0.4181-0.8203,1.2425-1.3337,1.9537-1.8778    c0.8918-0.6823,1.7007-1.4759,2.5033-2.2595c1.7466-1.7053,3.4323-3.5013,4.8453-5.497c0.6024,0.533,1.2774,1.0322,1.9965,1.3983    c0.4543,0.2313,1.4372,0.3787,1.533,0.9053c0.0313,0.1719-0.1684,0.5931-0.2134,0.7723c-0.1086,0.432-0.191,0.872-0.2844,1.3075    c-0.1871,0.8721-0.3703,1.7452-0.5667,2.6153c-0.7827,3.4677-1.7527,6.8982-2.9633,10.2415    c-2.2877,6.318-5.4016,12.3442-9.2653,17.8431C82.6775,95.317,80.3225,98.4468,77.5173,101.1015z M38.6496,33.7424    c0.3856-4.4675,1.4581-9.1223,4.3889-12.6464c2.9531-3.5508,7.3154-5.2034,11.8674-5.1505    c4.7402,0.0551,9.6374,1.4196,14.0643,3.0288c4.6035,1.6734,8.9888,3.9525,12.9842,6.7878    c4.8195,3.42,8.8719,7.7134,12.887,12.0157c-1.3799,1.1475-2.527,2.6476-3.2069,4.3107    c-0.0858,0.2098-0.2245,0.7803-0.4495,0.9192c-0.1136,0.0701-0.1215,0.0059-0.3064,0.0241    c-0.726,0.0716-1.7391-0.3746-2.4374-0.5424c-3.7584-0.9031-7.3826-2.305-10.725-4.2539    c-1.7092-0.9966-3.2869-2.176-4.9154-3.2945c-0.3931-0.27-1.0775-0.9144-1.5668-1.0169c-0.7679-0.161-0.4727,0.5848-0.257,1.0072    c1.5368,3.009,4.4795,5.2076,7.3677,6.8162c3.7468,2.0868,8.0946,3.3206,12.4049,2.9916    c-0.3593,1.7196-0.379,3.5218-0.0495,5.2479c-2.8385-0.4975-5.8337,0.1781-8.324,1.5817c-1.2001,0.6764-2.4099,1.5331-3.2262,2.66    c-0.6845,0.945-0.7982,1.9118,0.6214,1.4399c1.5225-0.5061,2.9204-1.3637,4.417-1.9433c1.5139-0.5862,3.0696-1.0457,4.6519-1.4063    c0.5983-0.1364,1.349-0.4508,1.963-0.4375c0.6514,0.0141,0.597,0.5099,0.8062,1.0332c0.5296,1.3249,1.4389,2.5902,2.4426,3.594    c-4.866,4.0025-9.7077,8.0533-15.248,11.1075c-5.3585,2.954-11.1525,4.9774-17.2002,5.9252    c-5.4945,0.8611-11.2528,0.501-15.5523-3.4193c-3.843-3.504-5.6471-8.6741-6.5198-13.6737    c-0.6351-3.6388-0.7475-7.3341-0.8967-11.0169C38.477,41.5373,38.3161,37.6327,38.6496,33.7424z M40.9363,111.0932    c-0.8782-0.2852-1.7068-0.6625-2.5265-1.0841c-0.378-0.1944-1.0565-0.4007-1.2847-0.7695    c-0.5089-0.8224,0.9942-1.2063,1.5592-1.4819c1.6636-0.8117,4.6573-2.4254,2.6933-4.6329    c-0.7587-0.8527-1.973-1.2076-3.0179-1.5621c-0.4312-0.1463-1.0323-0.2561-1.4178-0.5112    c-0.5275-0.3491-0.5246-1.0126-0.6552-1.6002c-0.2911-1.3102-0.4055-3.0844-1.7492-3.7904    c-1.4655-0.7701-2.7258,0.1637-3.7139,1.2091c-0.5842-3.745-0.6659-7.5397-0.7329-11.322    c-0.063-3.5566-0.16-7.1162-0.0238-10.6724c0.2199-5.7433,1.1025-12.0159,5.2857-16.3221    c1.2434,5.8443,3.8553,11.6809,8.6629,15.4416c-1.638-0.1695-4.4064-0.8708-5.0859,1.3037    c-0.5376,1.7203,1.1947,3.2622,1.9598,4.5849c0.4821,0.8334,0.0766,1.2931-0.3532,2.0605    c-0.4801,0.8572-1.0785,1.7796-1.1769,2.7823c-0.17,1.7319,1.1867,2.5613,2.7407,2.5199c1.3859-0.0369,2.863-0.9618,4.2225-0.7354    c1.7172,0.286,0.4845,2.7023,0.3407,3.7773c-0.2397,1.7922,0.3604,3.0233,2.1781,3.4032c1.4449,0.302,3.0028,0.1274,4.4687,0.113    c2.9421-0.029,5.8834-0.2756,8.7895-0.7349c1.3564-0.2144,2.6813-0.6631,4.0435-0.8213c1.2902-0.1499,1.4599,0.6389,1.937,1.6395    c-1.1106,0.3345-1.4865,1.3904-1.7433,2.4101c-0.1194,0.474-0.174,0.975-0.3068,1.4428c-0.166,0.5848-0.4922,0.6242-1.0359,0.786    c-0.9819,0.2923-2.2194,0.5349-2.9675,1.2871c-1.0236,1.0291-0.6222,2.4235,0.4261,3.2458    c0.7562,0.5931,2.2812,0.7694,2.763,1.6418c0.1997,0.3616,0.0807,0.9053,0.0836,1.3017c0.0049,0.6806-0.0093,1.4519,0.2371,2.0938    c0.3584,0.9338,1.2981,1.4863,2.2866,1.3994c1.3041-0.1147,1.9984-1.2712,3.004-1.943c1.154-0.771,2.4208,0.0491,3.6278,0.3024    c1.4698,0.3084,3.1738-0.5902,2.9359-2.3103c2.1949,0.0795,3.9452-2.6406,5.2161-4.0961    c1.7806-2.0392,3.4492-4.1763,4.9788-6.4103c-0.294,4.4167-0.5101,8.8386-0.6488,13.2629    c-0.0253,0.8055-0.0525,1.6076-0.0321,2.4125c0.0153,0.602,0.1821,0.9946-0.4159,1.1505    c-0.4392,0.1145-1.1125-0.0573-1.5764-0.0588c-1.1799-0.0038-2.3599,0.0028-3.5399,0.0044    c-8.9233,0.012-17.8379,0.4998-26.7604,0.4858C50.0647,112.2891,45.3202,112.5143,40.9363,111.0932z M89.403,184.3131    c-7.5008-0.3201-15.206-0.5013-22.3783-2.9657c-3.5758-1.2286-6.9933-3.0502-9.7962-5.6114    c-1.4831-1.3552-2.7161-2.9147-3.8091-4.5956c-0.2738-0.421-1.0514-1.2374-0.9464-1.7603    c0.0508-0.253,0.3527-0.4797,0.4872-0.6861c0.2769-0.4248,0.433-0.9232,0.6-1.4009c0.2331-0.6668,0.3763-1.8328,0.8738-2.3625    c0.4387-0.4672,1.4584-0.4933,2.0434-0.6303c1.4739-0.345,3.5932-0.7382,3.6723-2.6448c0.0755-1.8183-2.1083-2.9093-3.4299-3.6747    c-0.6874-0.3982-0.9909-0.6689-1.0097-1.4795c-0.0174-0.7477,0.1651-1.4845,0.167-2.2316    c0.0033-1.3396-0.4387-2.7491-1.9053-3.0579c-1.8919-0.3985-3.2714,1.4205-4.7583,2.2364    c-0.7159,0.3928-1.413,0.1519-2.1538-0.0622c-0.8957-0.2589-1.2358-0.6615-1.4607-1.5551    c-0.4685-1.8614-0.8532-3.7616-1.2756-5.6362c-1.103-4.8944-1.9889-9.849-2.4034-14.8528    c-0.4358-5.2627-0.3623-10.5512-0.1283-15.8219c3.5463,0.8457,7.2168,0.9223,10.8438,1.004    c3.7905,0.0853,7.5789,0.0548,11.3693-0.0214c7.5882-0.1527,15.1748-0.1485,22.7643-0.1485    c-0.1751,17.8809,0.7442,35.7944,3.2264,53.5108c0.6838,4.8804,1.3276,9.8035,2.6155,14.5693    C91.5415,184.3993,90.4721,184.359,89.403,184.3131z M112.7706,184.3763c-3.378,0.1458-6.759,0.2152-10.1401,0.2204    c-1.6574,0.0025-3.3148-0.0102-4.972-0.0373c-0.7239-0.0118-1.4477-0.0341-2.1715-0.0434    c-0.1124-0.0014-1.6798-0.0987-1.6805-0.0975c0.1419-0.2217-0.0425-1.2593-0.0381-1.5593    c0.0134-0.9029-0.0627-1.8149-0.1095-2.7163c-0.1097-2.1134-0.2475-4.2252-0.3813-6.3371    c-0.2664-4.2066-0.5347-8.4131-0.7813-12.6209c-0.4998-8.5291-0.8805-17.0636-1.0849-25.6051    c-0.2037-8.5102-0.2498-17.0241-0.1437-25.5361c0.0531-4.2565,0.1442-8.5126,0.2727-12.7675    c0.0643-2.1279,0.1379-4.2556,0.2207-6.3829c0.0354-0.9096-0.0808-1.9158,0.0934-2.8093c0.156-0.8004,0.6954-1.4833,1.0546-2.2025    c2.0413-4.0878,3.5611-8.4703,4.6787-12.8947c1.1143-4.4113,1.8361-8.9891,1.5553-13.5495    c1.3191,0.3267,2.724,0.3611,4.0596,0.113c-0.2847,3.9867,0.4167,8.0079,1.2913,11.8837    c0.8854,3.9236,2.1523,7.7584,3.7694,11.4409c0.7911,1.8014,1.6524,3.5721,2.588,5.303c0.426,0.7881,0.6268,1.3107,0.5589,2.2089    c-0.0764,1.01-0.1632,2.0192-0.238,3.0293c-0.3128,4.2214-0.5484,8.4485-0.7128,12.6783    c-0.6573,16.9146-0.2225,33.8789,1.4099,50.7289c0.8887,9.1733,1.7985,18.4487,4.0974,27.3957    C114.9017,184.2783,113.8363,184.3308,112.7706,184.3763z M160.5956,123.9823c-0.1426,7.1115-1.0391,14.1898-2.5228,21.143    c-1.3982,6.5525-3.0746,13.1029-5.7526,19.2626c-1.4733,3.3888-3.2166,6.7475-5.6399,9.5624    c0.0941-1.5241-1.0398-2.286-2.424-2.4426c-1.3663-0.1545-2.9835,0.6229-4.2769,0.1719c-0.7025-0.245-1.0978-0.9994-1.5493-1.5456    c-0.5746-0.6951-1.1866-1.555-2.0285-1.9467c-1.2941-0.6021-2.7375,0.0367-3.3681,1.2669    c-0.625,1.2194-0.3463,3.7769-1.8343,4.239c-1.4959,0.4644-3.6653,0.7777-4.4427,2.3342c-0.7751,1.552,0.3443,2.7391,1.655,3.43    c0.7967,0.42,1.7888,0.7476,2.4552,1.3737c0.4296,0.4036,0.6509,1.3186,0.1799,1.6779c-0.4413,0.3367-1.8779,0.3432-2.4014,0.4399    c-1.2549,0.2318-2.518,0.4172-3.7851,0.5686c-2.5316,0.3026-5.0771,0.4681-7.6211,0.6259    c-0.0607-7.5188-0.846-15.0392-1.2844-22.5428c-0.1004-1.7186-0.1968-3.4375-0.2884-5.1566    c-0.0387-0.7265-0.0546-1.4582-0.1339-2.1811c-0.0346-0.3151-0.2466-1.006,0.051-1.256c0.5747-0.4827,2.4093,1.8543,2.8843,2.17    c1.0268,0.6825,2.3068,0.5334,3.0699-0.4626c0.4278-0.5584,0.5303-1.2016,0.6376-1.8786    c0.0869-0.5488,0.0222-1.5008,0.4165-1.9261c0.273-0.2945,0.9659-0.4397,1.3329-0.5894c0.5854-0.2389,1.1864-0.4808,1.6961-0.8624    c0.9226-0.6907,1.3453-1.963,0.5702-2.9346c-0.6184-0.7753-1.7493-1.1819-2.6438-1.5321    c-0.4319-0.1691-0.9404-0.2441-1.1802-0.6777c-0.2612-0.4722-0.162-1.2461-0.2289-1.7744    c-0.177-1.3985-0.7775-2.756-2.4225-2.7178c-1.5797,0.0366-2.185,1.6315-3.3146,2.4293    c-0.3189,0.2253-1.0572,0.5255-1.3823,0.1266c-0.2247-0.2758-0.0963-1.005-0.0841-1.3246    c0.1406-3.6943-0.1612-7.4396-0.2266-11.1378c-0.075-4.2437-0.1085-8.4882-0.1028-12.7326    c0.0002-0.1287,0.0004-0.2575,0.0006-0.3862c-0.1276-0.3848,0.0007-0.5135,0.3851-0.3864    c0.6314-0.2117,1.6364-0.0039,2.2919-0.0055c1.0145-0.0024,2.0289-0.0049,3.0434-0.0073    c1.9637-0.0048,3.9275-0.0123,5.8912-0.0183c3.9446-0.012,7.8896-0.0144,11.8338,0.0514    c7.4081,0.1236,15.1706,0.9215,22.3076-1.5582C160.4368,117.9097,160.6472,120.9408,160.5956,123.9823z M170.0116,85.159    c-0.0936,7.2184,0.3364,16.0109-4.6428,21.8828c-3.063,3.6122-7.7596,4.8595-12.3156,5.2268    c-5.9113,0.4765-11.8773-0.0916-17.7906-0.2568c-6.8717-0.192-13.7578-0.1026-20.6318-0.1289    c0.0505-5.6772,0.1706-11.3534,0.3457-17.0281c1.8832,2.6881,3.9476,5.2492,6.1746,7.6602    c0.903,0.9777,1.8767,2.2974,3.1146,2.8724c1.2731,0.5913,2.5694,0.1313,3.525-0.8029c2.2446-2.1943,3.976-5.0202,5.4797-7.7519    c0.3876-0.704,0.7613-1.4156,1.1141-2.1377c0.3119-0.6386,0.5388-1.6145,0.9992-2.1662c0.4724-0.566,1.1291-0.3061,1.746-0.1705    c0.8288,0.1822,1.6689,0.3241,2.5061,0.4605c-1.202,0.4241-2.7073,0.6121-3.6236,1.5834    c-1.0851,1.1503-0.7048,2.5173,0.4135,3.4318c0.4744,0.388,1.0154,0.7112,1.5547,0.9999c0.6115,0.3274,1.5775,0.5649,1.9873,1.166    c0.3241,0.4752,0.1973,1.286,0.2061,1.8392c0.0121,0.7643,0.0042,1.5549,0.2257,2.2945c0.5033,1.6807,2.19,2.2438,3.6852,1.4482    c0.6759-0.3596,1.3022-0.8691,1.8835-1.3641c0.5976-0.5088,1.1539-1.2623,2.0145-1.1732    c1.5666,0.1622,2.9931,1.1563,4.6252,0.9291c1.624-0.2261,2.326-1.6538,1.9164-3.1363c-0.3193-1.1558-1.9251-3.0097-1.278-4.1368    c0.3981-0.6934,1.0232-1.2505,1.4645-1.92c0.6299-0.9559,1.1638-1.9694,1.6822-2.9889c-0.0886,0.0347-0.1961,0.0211-0.2848,0.0556    c0.3988-1.1579-0.0834-2.6778-0.3157-3.8324c-0.2694-1.339-0.6054-2.6648-0.9893-3.9754    c-0.7495-2.5583-1.7076-5.0699-3.0154-7.3979c7.7912-1.5577,12.9844-8.0304,15.2862-15.3077    c1.5478,2.8102,2.2764,5.9872,2.6529,9.1499c-1.5048-0.1894-3.5767-0.9682-4.906,0.1278    c-0.7765,0.6402-0.8651,1.6032-0.5132,2.4902c0.2077,0.5236,0.547,0.9991,0.8416,1.4756c0.18,0.2911,0.6855,0.8004,0.7286,1.1393    c0.0853,0.6707-0.9335,1.8325-1.2046,2.4526c-0.4031,0.9219-0.4729,1.9405,0.3119,2.6869c1.3396,1.2739,3.5621,0.293,5.096,0.0023    C170.0586,82.292,170.0278,83.7253,170.0116,85.159z" fill="#000000" data-original="#000000"/>
		<path class="st16" d="M137.5601,65.8424c5.1272,3.5777,12.0149,3.482,16.6853-0.8041c4.4686-4.1009,6.3104-10.4584,6.2608-16.375    c-0.0143-1.7012-0.1865-3.4068-0.5793-5.0637c-0.1778-0.75-0.4017-1.4879-0.6761-2.2084    c-0.1037-0.2723-0.2934-1.0547-0.6048-1.1568c-0.6714-0.2202-0.3333,2.1829-0.3211,2.567c0.0537,1.6967,0.0936,3.3925-0.015,5.088    c-0.369,5.7603-2.1426,12.034-6.7787,15.8311c-2.892,2.3687-6.5901,2.8602-10.1656,2.076    c-1.0011-0.2196-1.9902-0.5064-2.9644-0.8236c-0.4976-0.162-1.0147-0.4339-1.5332-0.5106    C135.4707,64.2559,137.1949,65.5821,137.5601,65.8424z" fill="#000000" data-original="#000000"/>
		<path class="st16" d="M43.8218,38.862c0.2501,0.6655,0.4988,1.4622,0.9806,2.0039c0.707,0.795,0.8491-0.0459,0.7916-0.7097    c-0.1974-2.277-0.56-4.4455-0.2585-6.7488c0.5749-4.3919,3.1039-8.4621,7.0781-10.5355c2.2274-1.1621,4.7334-1.5787,7.2009-1.8743    c0.4684-0.0561,1.6234-0.1825,0.926-0.8177c-0.4675-0.4258-1.5514-0.4566-2.1415-0.5353    c-4.553-0.6076-9.2445,1.1564-12.1978,4.6978C42.9238,28.2722,41.8834,34.0951,43.8218,38.862z" fill="#000000" data-original="#000000"/>
		<path class="st16" d="M95.4994,49.2997c0.4981,1.0461,0.9398-0.387,1.0839-0.8456c0.3962-1.2608,0.7936-2.5036,1.4789-3.6433    c0.5481-0.9115,1.2146-1.7722,2.0117-2.478c0.3392-0.3004,1.6828-1.1763,1.3546-1.7584    c-0.2956-0.5242-1.4786,0.0032-1.8623,0.1635c-0.9859,0.4119-1.8547,1.0908-2.5461,1.9012    C95.5704,44.3383,94.4734,47.1378,95.4994,49.2997z" fill="#000000" data-original="#000000"/>
		<path class="st16" d="M165.7958,87.8911c-0.241-0.5087-0.6996-1.4215-1.037-0.5015c-0.1574,0.4291-0.0446,1.0721-0.0394,1.5267    c0.0085,0.7421,0.0374,1.4825,0.0216,2.2248c-0.0516,2.418-0.3828,4.8548-1.2495,7.1237    c-1.5459,4.0471-4.617,6.9372-8.6735,8.3903c-0.4405,0.1578-3.5151,0.7717-2.32,1.4846c0.8616,0.514,2.5799,0.1644,3.5164,0.0497    c3.6558-0.4477,6.8863-2.9684,8.7557-6.0594C167.256,98.0196,167.911,92.2857,165.7958,87.8911z" fill="#000000" data-original="#000000"/>
		<path class="st16" d="M153.6756,139.3333c-0.7804-0.0273-1.3967,4.44-1.484,4.8316c-0.5786,2.596-1.2061,5.1745-1.985,7.7186    c-0.7675,2.507-1.6509,4.9781-2.6386,7.4068c-0.9555,2.3495-2.2648,4.5729-3.1223,6.9551    c-0.1138,0.3162-0.7668,1.6902-0.1394,1.7493c0.4077,0.0384,1.0686-0.8041,1.3209-1.0706    c1.4168-1.4966,2.5761-3.2744,3.5785-5.0675c2.4654-4.4101,4.094-9.4106,4.7729-14.4126    C154.1142,146.444,155.0686,139.3939,153.6756,139.3333z" fill="#000000" data-original="#000000"/>
		<path class="st16" d="M47.9831,134.1747c-0.402-4.2776-0.0579-8.5796-0.3678-12.8578c-0.0347-0.4793-0.1601-1.1191-0.7082-0.6668    c-0.4679,0.386-0.7046,1.5807-0.8644,2.1133c-0.5991,1.996-0.8492,4.1121-0.9703,6.1872    c-0.2511,4.3022,0.267,8.6626,1.5243,12.7851c0.0876,0.2873,2.3559,6.7143,3.2846,5.906c0.451-0.3926-0.0599-2.3204-0.1509-2.8019    c-0.1929-1.0207-0.4712-2.0229-0.6732-3.0417C48.5589,139.2852,48.2155,136.725,47.9831,134.1747z" fill="#000000" data-original="#000000"/>
	</g>
	<g>
		<radialGradient id="SVGID_12_" cx="69.3889" cy="101.6745" r="6.7375" gradientUnits="userSpaceOnUse">
			<stop offset="0" style="stop-color:#F7F09D"/>
			<stop offset="0.5399" style="stop-color:#F7DA5B"/>
			<stop offset="1" style="stop-color:#F7C827"/>
		</radialGradient>
		<path class="st17" d="M74.8876,106.7861c-1.6503-0.4024-3.2263-1.2538-4.7472-0.1362c-0.7665,0.5633-2.161,2.3809-3.2231,1.3965    c-0.9016-0.8356-0.2059-2.6267-0.6392-3.69c-0.516-1.2661-2.2753-1.3125-3.2145-2.1575c-1.0373-0.9333-0.2555-1.6809,0.753-2.0823    c0.9984-0.3974,2.6472-0.4538,3.1167-1.5384c0.2732-0.6312,0.5078-4.0423,1.6965-3.5057    c0.3862,0.1743,0.5858,1.0182,0.7677,1.3611c0.4754,0.8962,1.0252,1.7618,1.5794,2.6106c1.1115,1.7023,2.3207,3.4794,3.762,4.9225    c0.5009,0.5015,1.4365,1.0327,1.4643,1.8237C76.2285,106.5094,75.5616,106.9585,74.8876,106.7861z" fill="#000000" data-original="#000000"/>
		<radialGradient id="SVGID_13_" cx="76.6662" cy="171.5968" r="6.9999" gradientUnits="userSpaceOnUse">
			<stop offset="0" style="stop-color:#F7F09D"/>
			<stop offset="0.5399" style="stop-color:#F7DA5B"/>
			<stop offset="1" style="stop-color:#F7C827"/>
		</radialGradient>
		<path class="st18" d="M76.4961,165.2674c1.1688,1.3224,1.8875,2.812,3.8554,2.5828c0.8698-0.1013,3.1689-0.6101,3.4933,0.6063    c0.4095,1.5358-2.2327,2.4349-2.0377,4.0334c0.1447,1.1857,1.6333,2.4138,1.2513,3.6792    c-0.4785,1.5851-3.653-0.3031-4.7049-0.1828c-1.5476,0.177-2.3629,2.5902-4.0243,2.3667    c-1.9232-0.2587-0.4808-3.296-1.2671-4.3877c-0.806-1.1191-3.3079-0.9926-3.5968-2.5365    c-0.2902-1.5508,2.5076-1.6698,3.4229-2.0763c1.0622-0.4717,1.1476-1.3992,1.3903-2.4616    C74.4925,165.9546,75.3189,163.9355,76.4961,165.2674z" fill="#000000" data-original="#000000"/>
		<radialGradient id="SVGID_14_" cx="120.2492" cy="147.6789" r="5.9899" gradientUnits="userSpaceOnUse">
			<stop offset="0" style="stop-color:#F7F09D"/>
			<stop offset="0.5399" style="stop-color:#F7DA5B"/>
			<stop offset="1" style="stop-color:#F7C827"/>
		</radialGradient>
		<path class="st19" d="M124.8312,148.6185c-1.1522,0.5229-2.9868,0.8466-3.5004,2.1517c-0.3788,0.9625-0.0356,2.2758-0.5929,3.1494    c-0.5812,0.9111-1.6108,0.3235-2.2329-0.2311c-0.8727-0.7782-1.7105-2.1219-3.0709-1.8443    c-0.1361-2.7544-0.2492-5.51-0.3497-8.2659c1.8797,0.2903,2.5267-1.2257,3.8649-2.2453c1.474-1.1232,1.9493,0.5744,2.1082,1.7301    c0.0904,0.6572,0.0753,1.6115,0.5283,2.1487c0.4009,0.4754,1.2254,0.6914,1.7763,0.9293    c0.6025,0.2602,1.4608,0.4832,1.8522,1.0579C125.5823,147.7394,125.4351,148.3379,124.8312,148.6185z" fill="#000000" data-original="#000000"/>
		<radialGradient id="SVGID_15_" cx="167.72" cy="75.7698" r="3.669" gradientUnits="userSpaceOnUse">
			<stop offset="0" style="stop-color:#F7F09D"/>
			<stop offset="0.5399" style="stop-color:#F7DA5B"/>
			<stop offset="1" style="stop-color:#F7C827"/>
		</radialGradient>
		<path class="st20" d="M170.1044,78.1521c0.0023,0.8582,0.3101,1.4785-0.6549,1.6958c-0.8994,0.2026-2.7366,0.8636-3.548,0.2497    c-1.0026-0.7585,0.1879-2.2235,0.6091-2.9916c0.2906-0.53,0.6207-1.0753,0.4424-1.6971    c-0.1834-0.6393-0.7009-1.2317-1.0518-1.7885c-0.4406-0.6992-1.1372-1.9182,0.0194-2.3459    c0.586-0.2167,1.3201,0.0245,1.9072,0.1141c0.5134,0.0783,1.2268,0.0121,1.7068,0.2168c0.5918,0.2524,0.4096,1.2051,0.4449,1.808    C170.0718,74.9912,170.1044,76.5719,170.1044,78.1521z" fill="#000000" data-original="#000000"/>
		<radialGradient id="SVGID_16_" cx="45.2977" cy="80.5604" r="5.4942" gradientUnits="userSpaceOnUse">
			<stop offset="0" style="stop-color:#F7F09D"/>
			<stop offset="0.5399" style="stop-color:#F7DA5B"/>
			<stop offset="1" style="stop-color:#F7C827"/>
		</radialGradient>
		<path class="st21" d="M50.6388,77.3289c-1.4233,2.6616-2.3992,5.5899-3.1126,8.5147c-1.7968-1.6385-4.2533,0.9527-6.1703,0.2291    c-1.4335-0.5411-0.6128-2.0051-0.117-2.9482c0.6675-1.2698,1.5077-2.3076,0.6718-3.692c-0.5512-0.913-1.9799-2.2128-1.9536-3.3519    c0.0301-1.3047,1.4566-1.2092,2.3598-1.1128c1.3963,0.149,2.9742,0.0865,4.2514,0.7178    C47.9035,76.3456,49.2003,76.9182,50.6388,77.3289z" fill="#000000" data-original="#000000"/>
		<radialGradient id="SVGID_17_" cx="35.9215" cy="102.4092" r="5.3894" gradientUnits="userSpaceOnUse">
			<stop offset="0" style="stop-color:#F7F09D"/>
			<stop offset="0.5399" style="stop-color:#F7DA5B"/>
			<stop offset="1" style="stop-color:#F7C827"/>
		</radialGradient>
		<path class="st22" d="M40.1198,105.7167c-0.8607,0.4472-1.7165,0.9039-2.5909,1.3233c-0.5652,0.2711-1.3348,0.5835-1.5333,1.2459    c-2.0913-1.89-3.3944-4.4767-4.2144-7.1387c-0.2383-0.7734-1.0269-2.3318-0.5767-3.0791    c0.4646-0.7712,1.7298-1.8528,2.6742-1.4475c1.8961,0.8138,0.7184,3.955,2.0528,5.1754c1.0154,0.9287,2.8031,0.9619,3.9812,1.6476    C40.785,103.9512,41.2199,105.1464,40.1198,105.7167z" fill="#000000" data-original="#000000"/>
		<radialGradient id="SVGID_18_" cx="68.1124" cy="132.7008" r="8.6986" gradientUnits="userSpaceOnUse">
			<stop offset="0" style="stop-color:#F7F09D"/>
			<stop offset="0.5399" style="stop-color:#F7DA5B"/>
			<stop offset="1" style="stop-color:#F7C827"/>
		</radialGradient>
		<path class="st23" d="M72.9005,125.6659c-0.0228,0.7956-0.0455,1.5911-0.0684,2.3867c-0.0149,0.5175-0.1118,1.1382,0.0662,1.6393    c0.2551,0.7181,0.9836,1.0453,1.5923,1.413c0.812,0.4905,3.1756,1.6835,2.5954,2.9653c-0.4109,0.9077-1.8444,1.0237-2.6753,1.2058    c-0.9158,0.2008-2.246,0.3177-2.8468,1.1291c-0.9041,1.221-0.5667,3.1147-1.7567,4.2097    c-1.6475,1.5159-3.0916-1.6599-3.8629-2.6827c-1.5099-2.0024-3.8641-0.5405-5.906-1.1036    c-2.2406-0.6179-0.092-2.9498,0.7275-3.814c0.626-0.6602,1.2948-1.2168,1.1606-2.2201c-0.1554-1.1627-0.9297-2.1837-1.1846-3.3216    c-0.7779-3.4719,4.4097-0.6155,5.6618-0.5136c1.3829,0.1126,2.7021-1.2321,3.7635-1.9609c0.537-0.3687,1.057-0.7529,1.7427-0.5655    C72.4671,124.585,72.9177,125.0673,72.9005,125.6659z" fill="#000000" data-original="#000000"/>
		<radialGradient id="SVGID_19_" cx="52.6571" cy="160.4216" r="7.2126" gradientUnits="userSpaceOnUse">
			<stop offset="0" style="stop-color:#F7F09D"/>
			<stop offset="0.5399" style="stop-color:#F7DA5B"/>
			<stop offset="1" style="stop-color:#F7C827"/>
		</radialGradient>
		<path class="st24" d="M58.0397,162.6859c-0.8689,0.2368-1.7348,0.4929-2.6133,0.6918c-0.7412,0.1679-1.5562,0.2862-2.0257,0.9475    c-0.8476,1.194-0.6145,2.9941-1.5891,4.1152c-2.4267-4.4383-4.0846-9.2834-5.4585-14.1374    c1.1638,0.3772,2.1021,0.894,3.2458,0.2225c0.7774-0.4564,1.4339-1.0907,2.1925-1.5759c1.5998-1.0231,2.9889-0.6373,3.0204,1.3818    c0.0106,0.6799-0.0975,1.3565-0.134,2.0344c-0.0692,1.2855,0.2656,1.8189,1.3507,2.5034    c0.8328,0.5254,2.1192,1.0772,2.6857,1.9059C59.2202,161.5152,58.9252,162.4422,58.0397,162.6859z" fill="#000000" data-original="#000000"/>
		<radialGradient id="SVGID_20_" cx="136.5892" cy="175.5727" r="7.8321" gradientUnits="userSpaceOnUse">
			<stop offset="0" style="stop-color:#F7F09D"/>
			<stop offset="0.5399" style="stop-color:#F7DA5B"/>
			<stop offset="1" style="stop-color:#F7C827"/>
		</radialGradient>
		<path class="st25" d="M145.3176,174.4922c-0.7189,1.0155-1.361,2.1094-2.3689,2.8669c-1.0065,0.7565-2.1254,1.3984-3.2395,1.9807    c-2.3193,1.2122-4.7988,2.1025-7.3251,2.7726c-0.0294-0.5296,0.0666-1.1447-0.2086-1.6268    c-0.292-0.5115-0.9563-0.7715-1.4492-1.0375c-0.894-0.4824-3.1133-1.2116-3.0761-2.4649    c0.0369-1.2436,1.8562-1.5347,2.7544-1.8367c1.1967-0.4023,2.3535-0.6518,2.7659-1.9644c0.3902-1.242,0.5382-4.9958,2.7319-3.9756    c1.5209,0.7074,1.9461,2.7485,3.4,3.4967c1.086,0.5589,2.6306,0.0473,3.7773-0.0765c0.6868-0.0742,1.4263-0.2094,1.9969,0.2751    C145.5505,173.3044,145.6865,173.9675,145.3176,174.4922z" fill="#000000" data-original="#000000"/>
		<radialGradient id="SVGID_21_" cx="144.3524" cy="128.1806" r="8.6835" gradientUnits="userSpaceOnUse">
			<stop offset="0" style="stop-color:#F7F09D"/>
			<stop offset="0.5399" style="stop-color:#F7DA5B"/>
			<stop offset="1" style="stop-color:#F7C827"/>
		</radialGradient>
		<path class="st26" d="M144.1578,120.2665c0.8276,0.9363,1.6494,2.2333,2.6849,2.9501c0.7177,0.4968,1.4992,0.3359,2.3041,0.2317    c1.0611-0.1374,3.5784-0.6834,4.1085,0.6741c0.3667,0.939-0.6568,1.8817-1.1652,2.5421c-0.6474,0.841-1.5925,1.7811-1.243,2.9258    c0.3887,1.2731,1.9037,2.7735,1.4945,4.2043c-0.5564,1.9451-3.9544-0.005-5.0951-0.1801    c-2.0576-0.3159-3.0617,1.9325-4.7365,2.7019c-2.5797,1.1851-2.2208-2.3202-2.3007-3.828    c-0.0702-1.3254-0.6678-1.8509-1.8093-2.4368c-0.8322-0.4271-2.2952-0.8694-2.8116-1.7075    c-1.254-2.0347,3.3058-2.5136,4.3335-3.0793c1.2644-0.696,1.3167-2.3359,1.6218-3.6079c0.159-0.663,0.2644-1.4232,0.9613-1.732    C143.0535,119.6818,143.757,119.8131,144.1578,120.2665z" fill="#000000" data-original="#000000"/>
		<radialGradient id="SVGID_22_" cx="145.4046" cy="98.9661" r="7.5448" gradientUnits="userSpaceOnUse">
			<stop offset="0" style="stop-color:#F7F09D"/>
			<stop offset="0.5399" style="stop-color:#F7DA5B"/>
			<stop offset="1" style="stop-color:#F7C827"/>
		</radialGradient>
		<path class="st27" d="M152.0473,96.594c-0.6735,0.9795,0.4102,2.5741,0.8682,3.4275c0.2802,0.5221,0.6974,1.1529,0.6282,1.7698    c-0.0988,0.881-0.9738,1.1389-1.7269,1.0272c-1.5458-0.2292-3.6418-1.4665-5.1236-0.6567    c-1.204,0.6579-2.6925,2.9833-4.2202,2.6466c-1.474-0.3249-1.0425-2.4723-1.0807-3.5677c-0.0619-1.7769-0.8413-2.3481-2.356-3.134    c-0.9532-0.4946-3.7248-1.7922-1.9669-3.1143c0.5575-0.4193,1.4115-0.5577,2.0602-0.7772    c0.8975-0.3037,1.8527-0.8763,2.7591-1.0721c0.8824-0.1906,1.9024,0.1949,2.7811,0.2848    c1.0002,0.1023,2.0094,0.1604,3.0132,0.2161c2.2063,0.1224,4.4506,0.1455,6.6283-0.281    C153.7221,94.5038,152.7868,95.5438,152.0473,96.594z" fill="#000000" data-original="#000000"/>
	</g>
</g>
</g></svg>