<svg xmlns="http://www.w3.org/2000/svg" version="1.1" xmlns:xlink="http://www.w3.org/1999/xlink" xmlns:svgjs="http://svgjs.com/svgjs" width="512" height="512" x="0" y="0" viewBox="0 0 1000 1000" style="enable-background:new 0 0 512 512" xml:space="preserve"><g><g xmlns="http://www.w3.org/2000/svg"><path d="m97.687 320.018 3.029 2.24c35.1 25.947 78.783 58.238 89.758 96.457 8.627 30.047-39.152 55.055-75.848 71.258-6.488 2.867-26.229 11.594-24.029 30.197 2.176 18.391 22.34 22.074 28.977 23.287 13.386 2.438 31.242 8.164 40.293 21.602 6.242 9.27 7.791 21.732 4.605 37.039-6.223 29.895-25.008 61.822-55.83 94.893-4.236 4.547-17.128 18.377-10.263 34.16 3.924 9.02 13.001 14.402 24.283 14.402 5.919 0 11.417-1.365 14.985-2.51 35.039-11.238 65.283-17.021 92.463-17.682.965-.021 1.943-.035 2.932-.035 20.164 0 30.832 4.586 31.711 13.627 1.374 14.166-6.006 33.389-11.938 48.834l-.943 2.455c-7.459 19.479-18.164 38.811-28.52 57.508l-.922 1.666c-5.745 10.383-12.516 25.652-5.025 38.357 4.129 7.008 11.609 11.189 20.011 11.189 7.614 0 15.749-3.303 26.384-10.713 22.416-15.633 52.229-35.779 84.077-52.979 19.867-10.73 41-20.732 60.93-21.256l.724-.01c6.123 0 24.756 0 25.688 69.492.156 11.871.53 39.676 24.252 39.676 15.025 0 23.624-14.215 31.211-26.754 40.708-67.258 63.682-72.486 69.754-72.486 5.66 0 11.582 4.438 17.598 13.182 6.52 9.479 13.258 19.281 25.975 19.281 18.727 0 22.934-19.156 25.45-30.611.047-.221.097-.404.14-.561.479-.088 1.229-.174 2.318-.174 20.287 0 63.846 25.295 91.804 48.918 13.042 11.021 21.978 16.994 31.839 16.994 7.58 0 14.497-3.754 18.504-10.041 6.827-10.715 3.4-23.025-4.826-40.668-11.342-24.316-23.835-60.512-18.951-94.865 2.516-17.693 11.228-38.002 56.629-38.002 21.35 0 47.186 4.494 78.943 13.74 2.952 1.207 6.094 1.834 9.23 1.834 5.813 0 11.43-2.121 15.887-5.984 6.184-5.207 9.562-13.141 9.053-21.355-.469-7.65-4.385-14.635-10.559-18.969-.093-.068-.183-.133-.273-.199-41.262-29.359-81.742-85.092-79.271-134.795 1.336-26.877 15.75-48.354 42.855-63.842 5.594-3.201 22.617-12.945 20.074-30.377-1.648-11.293-10.201-18.828-25.412-22.393-48.963-11.5-42.646-41.088-40.268-52.229 5.531-25.916 22.637-52.957 52.291-82.672 14.461-14.486 12.32-27.018 9.756-33.199-4.052-9.773-13.707-15.607-25.823-15.607-3.888 0-7.962.588-12.104 1.75-18.664 5.229-43.098 11.232-66.566 11.232-15.278 0-28.082-2.496-39.148-7.631-23.417-10.869-22.956-43.432 1.373-96.781 4.684-10.27 9.141-23.488 1.974-34.637-4.153-6.459-11.349-10.316-19.246-10.316-7.47 0-15.32 3.281-24.702 10.322-18.057 13.553-42.031 30.975-67.396 45.547-14.842 8.525-30.584 16.42-45.16 16.42-.812 0-1.623-.025-2.438-.078-18.019-1.141-25.246-51.285-27.967-70.162l-.148-1.035c-3.66-25.357-17.634-29.145-25.637-29.145-15.074 0-23.32 13.982-26.424 19.242-14.399 24.402-32.682 50.502-59.104 59.068-3.713 1.205-7.459 1.789-11.455 1.789-15.574.002-33.99-9.012-56.3-27.557-7.668-6.375-14.954-9.475-22.272-9.475-7.223 0-13.893 3.195-18.301 8.766-8.266 10.453-4.989 24.305-3.91 28.865 1.23 5.188 1.465 8.326 1.439 10.07-.65.074-1.493.131-2.566.131l-.584-.006c-22.615-.408-48.875-12.135-72.045-22.482l-3.199-1.428c-5.793-2.58-14.307-5.654-21.968-5.654-9.636 0-17.647 4.807-21.435 12.857-6.973 14.826 4.615 28.822 10.188 35.553 32.057 38.699 31.615 57.203 29.938 63.363-1.756 6.445-8.385 11.791-19.705 15.887-15.922 5.762-35.254 8.684-57.451 8.684-17.622 0-37.588-1.805-61.037-5.521-3.965-.629-7.659-.947-10.984-.947-20.146 0-26.249 11.916-27.936 17.039-2.75 8.328-2.1 21.151 16.564 34.95z" fill="#ffffff" data-original="#ffffff"/><g><path d="m109.333 304.277c38.14 28.219 86.808 63.221 99.962 109.033 13.582 47.301-48.82 77.824-86.754 94.572-25.375 11.217-5.27 15.248.541 16.309 43.35 7.895 70.421 34.535 60.561 81.896-8.136 39.086-33.496 75.092-60.676 104.256-15.379 16.498-1.813 17.426 8.7 14.053 31.659-10.154 64.8-17.807 97.97-18.609 22.567-.547 51.955 3.971 54.606 31.275 1.907 19.641-7.187 42.17-14.083 60.184-8.174 21.348-19.48 41.576-30.596 61.652-9.924 17.932-8.451 28.262 13.035 13.291 27.799-19.387 56.131-38.033 85.974-54.146 21.236-11.471 45.128-22.957 69.72-23.602 41.893-1.1 46.032 53.486 46.504 88.795.369 27.594 5.445 25.67 19.133 3.045 27.418-45.299 80.023-118.717 120.241-60.26 9.961 14.488 11.74 15.695 16.16-4.43 9.104-41.527 89.709 6.73 126.029 37.422 12.118 10.24 32.181 26.084 15.131-10.482-15.297-32.797-25.556-70.986-20.591-105.898 10.967-77.117 110.74-54.902 161.778-39.912 2.113 1.164 4.133.684 5.574-.633 2.826-2.26 3.256-7.398-.295-9.58-.043-.033-.072-.068-.114-.1-75.837-53.961-134.509-174.609-34.792-231.586 12.08-6.914 15.726-13.008-.088-16.715-38.233-8.979-64.113-32.412-54.938-75.377 7.546-35.354 32.11-66.895 57.581-92.418 12.246-12.268 3.434-17.863-9.03-14.367-37.962 10.637-82.987 19.336-119.239 2.508-47.231-21.922-25.545-84.633-8.201-122.668 9.557-20.955.48-20.516-12.404-10.844-22.345 16.77-45.142 32.93-69.394 46.861-17.519 10.068-37.836 20.227-58.596 18.908-34.276-2.176-41.903-57.785-46.255-87.941-1.716-11.887-6.061-19.287-15.814-2.748-16.705 28.309-37.594 57.26-69.932 67.742-31.346 10.162-62.762-9.764-86.311-29.338-9.082-7.551-16.777-7.756-12.912 8.582 4.329 18.254 3.203 34.73-21.117 34.291-27.748-.502-57.309-14.213-82.858-25.602-8.29-3.691-29.286-10.715-10.169 12.377 29.04 35.057 60.848 88.793 1.817 110.156-39.315 14.225-86.62 10.68-128.221 4.088-19.319-3.063-23.609 4.15-7.637 15.96z" fill="#68182b" data-original="#68182b"/><path d="m798.879 568.373c-7.775-49.932 13.424-89.949 54.223-114.963-34.025-9.857-63.33-32.994-58.574-73.094 4.758-40.107 28.365-75.488 55.863-104.766-41.874 10.961-94.927 19.039-129.01-7.473-37.572-29.225-24.08-81.035-7.15-120.939-26.442 19.74-53.852 38.744-83.992 52.066-14.94 6.605-34.83 13.074-51.123 7.174-32.941-11.928-41.383-54.51-46.611-87.736-18.007 29.338-42.841 61.301-77.354 67.383-32.199 5.676-60.213-8.152-84.862-27.088 2.354 16.566.2 34.656-18.909 38.584-29.354 6.031-62.197-7.266-90.718-20.041 25.741 34.143 51.326 83.969 5.543 109.77-40.849 23.021-94.902 20.604-142.003 13.746 40.377 29.762 89.82 67.762 97.576 116.445 7.733 48.559-47.143 79.18-87.479 97.662 37.962 9.793 68.726 34.713 62.825 79.754-5.655 43.172-29.716 82.4-58.377 115.119 37.553-11.826 80.333-21.713 117.537-13.512 74.341 16.383 26.781 108.57-2.438 160.771 32.617-22.879 66.428-45.34 102.922-60.822 19.32-8.199 42.949-17.574 64.343-12.131 38.268 9.74 44.071 56.256 45.045 92.895 31.623-50.219 88.888-120.764 133.767-62.871 13.444-47.387 94.017-3.883 137.385 30.756-15.545-35.818-25.602-77.871-15.826-113.742 17.84-65.449 92.115-59.92 148.279-46.625-34.62-30.345-63.835-71.076-70.882-116.322zm-105.465 104.996c-70.563 73.367-183.169 102.234-279.057 63.871-105.662-42.275-180.388-153.355-166.212-268.848 13.292-108.287 95.175-206.121 204.64-226.73 105.428-19.852 214.536 21.488 271.054 114.859 61.876 102.221 49.754 228.329-30.425 316.848z" fill="#f9c035" data-original="#f9c035"/><path d="m406.507 386.254c29.816-9.406 57.07 10.719 63.785 39.4 7.07 30.201-7.508 68.627-37.339 80.117-30.278 11.664-54.8-11.652-62.366-39.232-7.988-33.631-.218-68.883 35.92-80.285z" fill="#faf098" data-original="#faf098"/><path d="m578.978 386.254c29.817-9.406 57.073 10.719 63.788 39.4 7.07 30.201-7.511 68.627-37.342 80.117-30.28 11.664-54.8-11.652-62.369-39.232-7.987-33.631-.213-68.883 35.923-80.285z" fill="#faf098" data-original="#faf098"/><path d="m667.318 306.977c-93.746-81.344-244.36-78.752-332.67 10.348-99.857 100.754-102.004 265.93 7.104 362.041 99.701 87.826 251.266 81.785 343.522-14.137 92.897-102.563 88.571-265.823-17.956-358.252zm-87.218 67.171c33.166-5.566 68.231 12.93 73.768 48.445 5.674 36.398-8.156 86.037-49.122 95.424-36.003 8.246-63.478-14.471-72.79-48.416-9.222-38.826 2.251-87.753 48.144-95.453zm-172.472 0c33.166-5.566 68.229 12.93 73.766 48.445 5.676 36.398-8.151 86.037-49.119 95.424-36.004 8.246-63.477-14.471-72.787-48.416-9.225-38.826 2.246-87.753 48.14-95.453zm105.892 315.168c-88.7.424-189.376-54.59-183.712-153.898.806-13.998 7.74-14.641 17.167-8.258 45.762 31.033 105.878 36.953 159.92 35.324 55.146-1.662 111.41-10.781 158.162-41.453 10.623-6.979 14.139-3.236 15.302 9.814 8.508 96.116-74.384 158.03-166.839 158.471z" fill="#ff801d" data-original="#ff801d"/><path d="m436.684 650.143c38.856-40 115.872-42.721 159.932-8.566 11.115 8.615 9.175 12.615-1.99 17.754-45.204 20.818-103.302 23.258-152.482 7.783-12.82-4.03-13.816-8.37-5.46-16.971z" fill="#ff5671" data-original="#ff5671"/><path d="m341.255 537.191c47.633 32.381 109.422 37.605 165.639 36.807 55.924-.797 114.559-11.303 162.162-41.906 5.262 52.105-16.523 89.961-51.049 113.908-48.432-57.023-160.467-51.873-201.445 10.98-45.52-22.046-78.017-62.119-75.307-119.789z" fill="#813341" data-original="#813341"/><path d="m436.684 650.143c-8.356 8.602-7.36 12.941 5.46 16.971 49.18 15.475 107.278 13.035 152.482-7.783 11.165-5.139 13.105-9.139 1.99-17.754-5.456-4.227-11.419-7.883-17.749-10.979 15.768 23.787-29.219 29.145-42.938 31.367-23.457 3.805-48.019 4.393-71.083-1.879-13.817-3.756-17.962-11.313-16.819-19.646-4.022 2.974-7.88 6.136-11.343 9.703z" fill="#de3f58" data-original="#de3f58"/><path d="m534.109 627.613c-9.887-.205-22.711-.668-33.467 2.561-27.961 8.395-26.828 15.543-3.617 17.398 17.147 1.371 39.708-.029 46.77-.996 24.5-3.353 19.772-18.355-9.686-18.963z" fill="#ff9680" data-original="#ff9680"/><path d="m706.364 331.35c6.265 7.92 12.109 16.307 17.475 25.172 61.876 102.221 49.754 228.328-30.425 316.848-70.563 73.367-183.169 102.234-279.057 63.871-104.051-41.631-178.035-149.984-166.736-263.568-4.77 30.977-4.256 62.672 2.006 93.59 19.845 97.969 95.602 175.615 193.496 194.418 98.536 18.93 211.25-11.684 272.387-94.996 63.957-87.156 70.576-211.273 14.805-304.635-6.836-11.448-14.931-21.618-23.951-30.7z" fill="#ed9d2b" data-original="#ed9d2b"/><path d="m798.879 568.373c-7.775-49.932 13.424-89.949 54.223-114.963-34.025-9.857-63.33-32.994-58.574-73.094 4.758-40.107 28.365-75.488 55.863-104.766-41.874 10.961-94.927 19.039-129.01-7.473-37.572-29.225-24.08-81.035-7.15-120.939-26.442 19.74-53.852 38.744-83.992 52.066-14.94 6.605-34.83 13.074-51.123 7.174-32.941-11.928-41.383-54.51-46.611-87.736-18.007 29.338-42.841 61.301-77.354 67.383-32.199 5.676-60.213-8.152-84.862-27.088 2.354 16.566.2 34.656-18.909 38.584-29.354 6.031-62.197-7.266-90.718-20.041 25.741 34.143 51.326 83.969 5.543 109.77-40.849 23.021-94.902 20.604-142.003 13.746 40.377 29.762 89.82 67.762 97.576 116.445 7.733 48.559-47.143 79.18-87.479 97.662 37.962 9.793 68.726 34.713 62.825 79.754-5.655 43.172-29.716 82.4-58.377 115.119 37.553-11.826 80.333-21.713 117.537-13.512 74.341 16.383 26.781 108.57-2.438 160.771 32.617-22.879 66.428-45.34 102.922-60.822 19.32-8.199 42.949-17.574 64.343-12.131 38.268 9.74 44.071 56.256 45.045 92.895 31.623-50.219 88.888-120.764 133.767-62.871 13.444-47.387 94.017-3.883 137.385 30.756-15.545-35.818-25.602-77.871-15.826-113.742 17.84-65.449 92.115-59.92 148.279-46.625-34.62-30.345-63.835-71.076-70.882-116.322zm8.968 98.732c-29.94-1.145-63.424 8.818-83.907 31.279-18.929 20.76-18.603 57.582-14.779 83.313 2.111 14.201 5.257 28.197 8.974 42.063-2.093-1.518-4.187-3.033-6.284-4.553-15.113-10.943-30.107-22.369-47.682-29.186-25.686-9.961-50.203-9.57-66.992 7.975-8.49-8.111-18.497-14.016-31.016-15.785-37.726-5.332-72.014 36.086-93.641 69.861-3.621-36.291-15.502-71.348-50.512-77.322-23.218-3.963-48.217 5.98-69.08 14.832-30.244 12.83-59.047 30.279-86.31 49.195 23.745-36.695 41.563-75.896 32.995-121.459-5.438-28.906-40.689-31.859-64.43-31.953-24.43-.098-49.633 3.984-73.729 10.863 20.566-25.117 38.045-52.32 47.678-82.541 15.098-47.367-13.768-79.951-51.982-98.564 26.504-14.436 50.813-31.902 67.436-56.891 37.58-56.5-27.586-115.404-75.154-149.066 50.006 5.494 111.942 10.225 143.356-30.885 16.403-21.467 8.628-51.146-2.847-78.797 19.396 6.102 41.658 9.059 58.676 6.387 20.288-3.184 29.135-15.244 33.787-30.508 29.008 17.895 61.424 28.594 95.799 14.365 16.043-6.641 27.837-22.719 39.533-34.766 3.14-3.232 6.03-6.59 8.815-10.006 6.111 30.799 21.278 60.145 52.591 69.463 26.071 7.758 57.562-4.365 81.046-14.688 10.412-4.576 20.449-9.924 30.309-15.631-11.115 37.752-8.379 79.324 29.904 99.459 25.305 13.307 58.18 13.969 86.01 13.461 4.207-.076 8.441-.256 12.684-.504-27.805 35.309-46.385 81.707-29.158 123.061 7.068 16.963 20.65 29.533 36.988 39.004-28.738 24.992-44.5 67.467-39.212 103.422 6.404 43.543 26.997 78.229 54.396 108.277-11.947-1.813-23.739-2.774-34.262-3.175z" fill="#ed9d2b" data-original="#ed9d2b"/><g fill="#fae034"><path d="m259.972 638.459c.383-.445-.092-1.107-.631-.82-15.534 8.262-33.539 16.193-46.863 27.775-.318.279.02.869.422.723 16.498-5.944 35.492-14.168 47.072-27.678z" fill="#fae034" data-original="#fae034"/><path d="m264.037 646.674c-5.314.793-9.231 5.492-13.078 8.865-.23.199.016.539.278.479 5.196-1.182 11.438-3.164 13.598-8.547.204-.514-.375-.86-.798-.797z" fill="#fae034" data-original="#fae034"/><path d="m237.859 633.051c-.348.262-.318.768.119.918 2.933 1.01 5.834.496 8.741-.357 3.556-1.041 4.918-3.166 7.112-5.9.313-.389.036-1.014-.508-.871-2.636.688-5.013.717-7.543 1.867-2.71 1.231-5.542 2.54-7.921 4.343z" fill="#fae034" data-original="#fae034"/><path d="m229.802 516.33c-5.129-1.992-9.705-1.967-15.176-1.65-6.482.377-13.038.229-19.496.848-.471.045-.77.719-.264.973 9.785 4.941 24.936 4.881 34.936.803.473-.193.487-.784 0-.974z" fill="#fae034" data-original="#fae034"/><path d="m227.175 506.691c-2.441-.172-4.602.301-6.859 1.162-.514.195-.512.844 0 1.039 1.706.654 9.361 3.549 10.154.461.449-1.751-2.017-2.572-3.295-2.662z" fill="#fae034" data-original="#fae034"/><path d="m223.517 525.893c-1.107.553-1.432 1.574-2.428 2.203-.268.172-.088.547.209.494.822-.145 1.457.436 2.237.334 1.219-.156 2.458-.207 3.667-.412 1.404-.236 2.787-.482 4.168-.83 1.18-.295 1.729-1.248 2.621-1.938.438-.34.129-.996-.301-1.143-.927-.314-1.797-1.041-2.861-.904-1.319.172-2.605.375-3.887.754-1.198.354-2.31.883-3.425 1.442z" fill="#fae034" data-original="#fae034"/><path d="m241.685 345.916c-7.255-3.594-14.574-7.086-22.762-7.654-.506-.037-.629.664-.245.904 8.241 5.189 16.935 9.729 25.624 14.121 6.372 3.221 13.613 7.285 20.852 5.289.451-.123.686-.781.292-1.111-6.566-5.563-16.085-7.744-23.761-11.549z" fill="#fae034" data-original="#fae034"/><path d="m265.611 343.736c-2.17-.994-4.386-1.664-6.646-2.387-.384-.125-.798.363-.546.713 1.466 2.043 3.111 3.625 5.293 4.922 2.201 1.307 4.27 2.541 6.809 1.598.416-.154.578-.553.389-.951-1.102-2.326-3.069-2.873-5.299-3.895z" fill="#fae034" data-original="#fae034"/><path d="m260.179 368.248c.124-.18.124-.49 0-.67-1.121-1.623-2.949-1.486-4.751-1.494-2.206-.008-4.549.092-6.71.559-.468.1-.477.721-.123.953 2.57 1.695 9.401 3.8 11.584.652z" fill="#fae034" data-original="#fae034"/><path d="m339.843 250.316c.578.313 1.129-.193 1.029-.793-.994-6.033-5.961-10.26-9.981-14.541-4.61-4.906-9.427-10.314-14.958-14.186-.416-.289-1.048.193-.873.67 1.981 5.389 6.205 9.697 9.92 13.961 4.393 5.046 8.902 11.694 14.863 14.889z" fill="#fae034" data-original="#fae034"/><path d="m349.412 245.105c-.151-2.467-1.489-3.883-3.002-5.822-1.662-2.125-3.404-3.965-5.217-5.92-.217-.234-.646.006-.543.314.45 1.334.691 2.736 1.156 4.082.443 1.283 1.125 2.529 1.721 3.748 1.146 2.348 2.491 4.1 5.111 4.371.403.044.798-.384.774-.773z" fill="#fae034" data-original="#fae034"/><path d="m333.178 257.971c-.56-2.129-1.305-3.115-3.019-4.6-1.576-1.367-3.503-1.998-5.178-3.127-.223-.148-.52.148-.371.371 1.129 1.674 1.76 3.602 3.127 5.178 1.484 1.713 2.473 2.459 4.6 3.018.508.132.973-.332.841-.84z" fill="#fae034" data-original="#fae034"/><path d="m517.881 179.758c-.051-.34-.58-.383-.724-.096-3.202 6.389-3.772 13.605-4.891 20.59-1.118 6.994-3.299 13.932-2.966 21.059.02.41.582.748.891.369 4.709-5.795 5.52-12.969 6.59-20.184 1.06-7.137 2.17-14.564 1.1-21.738z" fill="#fae034" data-original="#fae034"/><path d="m519.932 210.959c-1.195 2.432-1.528 5.244-2.329 7.824-.29.928-1.017 3.74.663 3.926 2.217.244 2.93-2.871 3.328-4.451.592-2.363.627-5.066-.389-7.299-.225-.492-1.041-.469-1.273 0z" fill="#fae034" data-original="#fae034"/><path d="m496.57 207.289c-1.794 2.184-2.277 4.889-2.59 7.635-.252 2.223-.684 5.301 1.835 6.314 3.829 1.541 1.847-12.279 1.237-13.82-.07-.18-.329-.313-.482-.129z" fill="#fae034" data-original="#fae034"/><path d="m459.465 214.273c-.891 4.166-2.069 10.539 2.427 13.002.41.225.848.008 1.002-.408 1.521-4.055-.263-9.207-2.541-12.711-.215-.33-.795-.318-.888.117z" fill="#fae034" data-original="#fae034"/><path d="m669.723 213.016c.133-.301-.198-.57-.455-.352-7.308 6.268-12.371 14.793-17.262 22.979-4.343 7.266-9.041 15.514-9.992 24.045-.058.523.684.775 1.016.422 5.775-6.236 9.156-14.602 13.125-22.041 4.46-8.356 9.689-16.415 13.568-25.053z" fill="#fae034" data-original="#fae034"/><path d="m637.711 240.975c-1.613 1.795-2.967 3.697-4.307 5.701-1.068 1.598-2.177 3.766-1.286 5.637.108.225.438.355.67.273 1.871-.668 2.55-2.65 3.29-4.348.969-2.217 1.824-4.494 2.322-6.861.082-.379-.395-.731-.689-.402z" fill="#fae034" data-original="#fae034"/><path d="m658.385 264.811c1.488-2.094 2.721-4.766 3.078-7.307.052-.373-.285-.719-.661-.508-2.514 1.42-9.251 6.66-6.397 10.084 1.128 1.354 3.488-1.576 3.98-2.269z" fill="#fae034" data-original="#fae034"/><path d="m784.451 311.326c-17.941 5.029-34.215 17.605-47.766 30.16-.34.314.012.926.454.783 17.71-5.74 33.114-18.826 47.755-29.891.493-.372.23-1.239-.443-1.052z" fill="#fae034" data-original="#fae034"/><path d="m747.618 323.568c.126-.387-.216-.846-.625-.82-5.12.324-11.187 4.26-13.622 8.754-.279.518.178 1.117.753.977 4.804-1.182 11.802-3.76 13.494-8.911z" fill="#fae034" data-original="#fae034"/><path d="m764.128 351.795c1.062-2.076-.657-4.143-2.869-3.734-2.685.496-5.111 2.777-7.261 4.354-.924.678-1.719 1.406-2.381 2.346-.082.139-.086.301-.122.455-.032.031-.04.02-.112.129-.137.232-.059.646-.174.828-.193.313.133.813.509.662-.059.023.387.08.78.109 1.506.574 3.602-.254 4.972-.701 2.434-.796 5.439-2.059 6.658-4.448z" fill="#fae034" data-original="#fae034"/><path d="m777.696 465.893c9.132-.252 20.53.717 28.661-3.889.419-.236.281-.807-.123-.955-8.93-3.24-20.461.012-28.792 3.906-.463.217-.227.951.254.938z" fill="#fae034" data-original="#fae034"/><path d="m780.596 454.24c-1.1.508-1.676 1.512-2.553 2.287-.394.35-.076 1.021.42 1.014 1.07-.012 2.018.297 3.086.215 1.262-.1 2.533-.307 3.791-.482 2.199-.305 4.447-1.164 5.849-2.951.257-.326.243-.75-.128-.99-2.148-1.398-4.588-1.127-6.96-.547-1.199.292-2.388.941-3.505 1.454z" fill="#fae034" data-original="#fae034"/><path d="m815.021 656.793c-5.682-7.191-15.084-10.023-23.26-13.533-9.307-3.994-18.441-8.262-27.645-12.482-.471-.217-.951.33-.566.734 6.369 6.715 14.305 10.787 22.551 14.805 8.779 4.281 18.57 9.967 28.255 11.619.703.119 1.097-.596.665-1.143z" fill="#fae034" data-original="#fae034"/><path d="m778.414 626.336c-2.769-.994-5.447-1.592-8.393-1.584-.229 0-.411.328-.202.492 2.249 1.764 4.561 3.283 7.153 4.508 2.431 1.146 4.558 2.418 7.154 1.158.297-.145.338-.525.207-.787-1.187-2.428-3.522-2.926-5.919-3.787z" fill="#fae034" data-original="#fae034"/><path d="m757.078 642.313c-.311-.063-.66.273-.447.582 3.703 5.338 9.455 7.605 15.693 7.979.513.031.67-.695.254-.938-5.012-2.938-9.658-6.432-15.5-7.623z" fill="#fae034" data-original="#fae034"/><path d="m668.306 740.57c-.368-.336-1.036-.016-.872.508 2.184 6.898 7.33 12.525 11.871 18.018 5.977 7.232 11.488 14.91 16.583 22.787.257.4 1.028.287.972-.264-.834-8.273-4.441-14.127-9.525-20.521-5.661-7.119-12.315-14.403-19.029-20.528z" fill="#fae034" data-original="#fae034"/><path d="m679.207 742.605c1.578 1.592 2.496 2.877 4.687 3.527.373.113.784-.195.773-.59-.11-4.117-5.032-7.977-9.054-8.105-.305-.01-.566.383-.373.65 1.163 1.61 2.571 3.108 3.967 4.518z" fill="#fae034" data-original="#fae034"/><path d="m656.717 748.322c-.297-.26-.819-.016-.691.404 1.728 5.715 3.039 11.785 6.848 16.467.402.49 1.051.029 1.106-.459.717-6.213-2.648-12.355-7.263-16.412z" fill="#fae034" data-original="#fae034"/><path d="m485.333 779.125c-2.279 6.131-3.066 12.928-4.394 19.33-1.431 6.908-3.021 13.701-2.269 20.773.043.395.625.674.838.227 3.012-6.311 4.072-13.096 5.275-19.941 1.147-6.518 2.665-13.586 1.963-20.197-.083-.813-1.12-.973-1.413-.192z" fill="#fae034" data-original="#fae034"/><path d="m492.431 780.781c-.079-.258-.443-.258-.522 0-.654 2.188-1.034 4.355-1.214 6.633-.16 2.016-.508 4.617 1.016 6.178.246.248.673.248.918 0 1.41-1.441 1.07-3.461 1.07-5.334 0-2.52-.551-5.08-1.268-7.477z" fill="#fae034" data-original="#fae034"/><path d="m344.457 742.896c-5.625 5.096-9.49 12.309-13.847 18.482-5.151 7.309-10.876 14.4-13.298 23.139-.176.629.62 1.08 1.084.629 5.747-5.607 9.885-12.52 14.337-19.15 4.663-6.945 10.834-14.277 12.536-22.627.1-.476-.441-.806-.812-.473z" fill="#fae034" data-original="#fae034"/><path d="m352.89 749.793c-2.67 2.758-5.123 6.455-5.582 10.336-.059.48.32 1.09.744 1.299.268.131.461.205.761.205.483 0 1.091-.275 1.3-.744 1.461-3.297 3.002-7.051 3.618-10.605.081-.468-.464-.882-.841-.491z" fill="#fae034" data-original="#fae034"/><path d="m368.385 755.166c-1.963.887-3.022 3.867-1.754 5.662.632.893 1.761.879 2.393 0 1.052-1.465.564-3.795-.032-5.414-.096-.268-.35-.363-.607-.248z" fill="#fae034" data-original="#fae034"/><path d="m330.777 732.498c-.027-.35-.338-.65-.707-.539-.606.188-.993.09-1.619.469-.773.467-1.367 1.289-1.902 1.994-.665.879-1.342 1.732-1.963 2.645-.602.887-.895 1.961-1.605 2.775-.276.314-.018.971.455.781 2.26-.914 3.852-1.631 5.538-3.498.706-.785 1.628-1.787 1.878-2.852.099-.422.242-.846.123-1.281-.05-.178-.229-.904-.198-.494z" fill="#fae034" data-original="#fae034"/></g><path d="m642.766 425.654c-3.515-15.018-12.693-27.635-24.891-34.949 8.779 10.236 15.338 21.592 17.357 37.461 1.912 15.01-3.279 31.127-10.313 44.115-12.188 22.512-36.536 26.072-57.772 14.064-5.217-2.951-9.493-7.057-13.022-11.863-4.561-6.928-8.059-15.006-10.404-23.459-1.612-6.73-2.359-13.703-2.496-20.506-1.853 11.414-1.068 23.818 1.83 36.021 7.569 27.58 32.089 50.896 62.369 39.232 29.831-11.489 44.412-49.915 37.342-80.116z" fill="#f2ae79" data-original="#f2ae79"/><path d="m471.668 434.508c-.704 7.947-2.132 15.951-4.49 24.133-9.261 32.148-46.498 53.047-74.737 29.012-24.906-21.197-20.743-64.789-3.467-92.541-20.973 15.82-24.863 44.156-18.387 71.428 7.566 27.58 32.088 50.896 62.366 39.232 26.984-10.395 41.425-42.813 38.715-71.264z" fill="#f2ae79" data-original="#f2ae79"/><path d="m360.779 487.762c14.829 39.873 60.744 51.846 95.07 28.443 27.488-18.742 37.677-62.379 25.43-94.154.029.186.086.355.115.543 5.676 36.398-8.151 86.037-49.119 95.424-36.004 8.246-63.477-14.471-72.787-48.416-3.65-15.365-3.992-32.285-.309-47.631-6.64 21.695-5.221 47.451 1.6 65.791z" fill="#ee6200" data-original="#ee6200"/><path d="m694.548 334.686c11.11 17.088 19.79 35.73 25.977 55.15 16.467 51.697 12.925 107.637 3.06 160.225-9.838 52.459-39.72 93.99-83.483 124.053-42.702 29.336-95.565 44.641-147.238 43.932-53.02-.727-105.191-21.322-144.047-57.332-37.547-34.793-60.09-82.744-69.752-132.488-10.002-51.494-4.942-103.016 16.206-151.021 7.255-16.465 16.231-31.811 26.665-45.975-87.044 101.494-84.422 256.313 19.816 348.137 99.701 87.826 251.266 81.785 343.522-14.137 84.201-92.964 88.528-235.792 9.274-330.544z" fill="#ee6200" data-original="#ee6200"/><path d="m644.987 494.316c20.56-29.512 23.044-77.613-6.024-101.918 7.578 7.893 13.006 18.014 14.904 30.195 5.674 36.398-8.156 86.037-49.122 95.424-36.003 8.246-63.478-14.471-72.79-48.416-4.09-17.221-4.08-36.414 1.17-53.131-4.012 9.6-5.968 20.467-6.58 28.533-1.695 22.352 4.208 42.967 17.844 60.588 28.322 36.595 77.127 22.415 100.598-11.275z" fill="#ee6200" data-original="#ee6200"/><path d="m373.146 649.895c37.275 33.938 88.174 48.117 137.692 47.941 48.074-.17 97.328-18.68 132.578-51.395 28.02-26.008 47.433-74.549 37.082-113.277 6.971 94.779-75.273 155.715-166.979 156.152-85.481.408-182.048-50.688-183.874-143.283-6.06 38.295 16.06 78.875 43.501 103.862z" fill="#ee6200" data-original="#ee6200"/><path d="m618.613 304.742c-6.452-5.936-13.949-10.867-21.984-14.951-31.517-20.111-73.637-26.623-108.95-23.988-23.898 1.783-47.591 8.363-69.33 18.334-18.712 8.578-40.544 22.52-49.211 42.063-8.855 19.969 1.5 26.963 21.637 24.799 27.059-2.902 53.971-10.773 80.793-15.443 32.008-5.578 63.338-7.691 95.602-3.086 17.865 2.555 38.713 12.1 56.866 6.395 18.64-5.857 2.722-26.625-5.423-34.123z" fill="#f9ca1a" data-original="#f9ca1a"/><path d="m648.927 615.674c15.497-21.92 23.55-49.723 20.13-83.582-47.604 30.604-106.238 41.109-162.162 41.906-56.217.799-118.006-4.426-165.639-36.807-1.731 36.873 10.971 66.516 32.228 88.891 45.727-21.16 95.087-32.41 145.784-34.158 43.712-1.506 89.758 4.822 129.659 23.75z" fill="#7a2537" data-original="#7a2537"/><path d="m402.486 454.414c3.211-1.828 4.785-5.607 6.992-8.438 2.92-3.748 7.418-5.953 12.119-5.988 8.201-.061 9.527 11.637 14.453 16.061.411.369 1.002.391 1.412 0 9.947-9.496-3.668-25.174-14.374-25.893-6.724-.453-12.503 1.791-17.503 6.256-4.133 3.689-7.244 12.742-4.133 17.732.22.35.668.479 1.034.27z" fill="#68182b" data-original="#68182b"/><path d="m574.883 456.049c5.55-4.986 5.785-14.92 14.452-16.061 10.347-1.361 12.175 10.477 19.111 14.426.366.209.813.08 1.034-.27 2.919-4.682.326-12.174-2.859-16.148-4.584-5.707-11.57-8.324-18.777-7.84-10.705.719-24.321 16.396-14.373 25.893.409.39 1 .369 1.412 0z" fill="#68182b" data-original="#68182b"/><path d="m285.97 333.066c17.058-21.584 34.031-41.895 56.293-58.395 21.461-15.908 45.674-24.742 70.297-34.352.783-.307.765-1.682-.216-1.59-26.46 2.488-51.378 16.346-72.537 31.734-22.032 16.023-42.511 37.438-54.438 62.139-.175.369.315.828.601.464z" fill="#68182b" data-original="#68182b"/><path d="m424.818 237.885c1.059-.313 2.139-.43 3.148-.895.904-.414 1.659-1.039 2.552-1.494.413-.209.44-.924 0-1.123-2.813-1.289-5.063-1.463-7.994-.207-.675.289-4.655 2.781-2.878 3.957 1.49.988 3.6.223 5.172-.238z" fill="#68182b" data-original="#68182b"/><path d="m753.318 608.43c-29.138 70.025-87.205 120.568-159.228 143.438-.753.238-.44 1.314.323 1.17 72.813-13.781 140.311-72.045 159.688-144.393.139-.52-.587-.684-.783-.215z" fill="#68182b" data-original="#68182b"/><path d="m760.094 589.234c-2.293 3.813-6.18 8.949-4.385 13.629.078.207.264.275.463.189 4.891-2.098 5.213-8.971 5.053-13.512-.02-.601-.814-.833-1.131-.306z" fill="#68182b" data-original="#68182b"/></g></g></g></svg>