<svg xmlns="http://www.w3.org/2000/svg" version="1.1" xmlns:xlink="http://www.w3.org/1999/xlink" xmlns:svgjs="http://svgjs.com/svgjs" width="512" height="512" x="0" y="0" viewBox="0 0 1000 1000" style="enable-background:new 0 0 512 512" xml:space="preserve"><g><g xmlns="http://www.w3.org/2000/svg"><path d="m907.355 486.989c-2.777-46.99-37.553-75.011-75.85-82.499.885-10.081-.49-20.353-4.188-30.08-3.705-9.748-9.596-18.267-17.072-24.972 24.961-44.173 26.107-101.595 1.771-152.07-25.492-52.88-73.398-85.73-125.018-85.73-6.998 0-14.063.585-21.143 1.743-5.637-17.214-17.93-33.292-35.422-45.579-12.758-8.963-26.766-13.507-41.625-13.507-15.045 0-30.014 4.717-43.623 13.559-18.395-20.84-43.561-32.43-71.621-32.43-42.403 0-78.917 26.039-94.208 63.988-26.26-13.991-56.556-21.286-89.066-21.286-68.293 0-132.752 32.145-168.223 83.893-26.863 39.192-36.021 88.099-25.125 134.178 7.816 33.045 24.94 61.571 49.282 82.787-26.159 20.782-42.918 53.226-45.573 90.583-2.955 41.578 12.037 79.682 40.008 104.476-11.516 16.922-16.116 37.896-11.938 58.105 4.216 20.383 16.737 36.768 34.675 46.217-2.553 30.518 9.809 58.348 34.789 76.676 13.648 10.014 30.267 15.307 48.059 15.307 11.756 0 24.064-2.322 36.035-6.705 6.446 12.176 16.111 22.588 28.66 30.734 11.279 7.326 23.98 11.039 37.751 11.039 8.633 0 16.753-1.451 24.133-3.676 1.72 27.883-1.828 50.199-11.091 69.979-1.24 2.652-3.346 5.861-5.572 9.26-4.611 7.031-9.835 15-12.21 24.834-2.925 12.125-.497 23.932 6.839 33.249 13.707 17.408 43.241 25.516 92.948 25.516 37.221 0 74.732-4.811 84.188-6.563 24.957-4.627 41.381-13.961 50.213-28.54 7.844-12.943 8.961-28.818 3.324-47.184-2.688-8.756-6.002-16.848-9.207-24.672-4.045-9.881-7.865-19.213-9.988-28.822-1.33-6.025-2.518-12.205-3.555-18.51 2.057.168 4.129.252 6.213.252 27.951 0 54.6-15.957 70.391-40.273 12.162 6.6 25.416 10.016 39.227 10.016 22.9 0 45.885-9.902 63.061-27.164 13.77-13.844 22.994-31.188 26.932-50.205.82.021 2.457.029 2.457.029 27.18 0 51.26-10.695 67.803-30.123 18.313-21.496 22.125-50.193 11.299-80.793 39.817-21.382 63.835-61.451 61.26-105.037z" fill="#ffffff" data-original="#ffffff"/><g><path d="m887.807 488.145c-2.613-44.215-42.119-67.94-81.795-66 13.73-24.52 3.74-57.289-23.357-66.691 73.867-92.791-11.453-258.614-132.982-217.922 1.35-21.626-12.924-41.366-30.49-53.705-26.779-18.81-57.199-8.859-77.746 12.438-40.268-71.391-142.192-43.826-149.733 34.429-75.162-58.739-199.996-35.632-253.48 42.396-47.859 69.823-28.367 167.301 44.248 207.489-77.234 29.567-84.906 150.136-12.305 190.511-35.199 26.51-31.016 83.561 15.217 94.76-7.432 28.15-.121 55.422 24.387 73.404 25.201 18.488 58.664 12.561 83.756-2.656 3.012 17.219 12.782 31.426 28.08 41.357 21.605 14.029 47.84 7.543 67.875-5.539 1.161 8.104 2.002 16.193 2.611 24.117 2.217 28.822-.281 57.135-12.624 83.492-4.669 9.965-13.884 19.623-16.48 30.381-12.156 50.372 142.054 31.937 161.369 28.356 30.115-5.585 48.162-18.888 38.387-50.726-5.77-18.799-15.307-35.604-19.594-55.016-3.668-16.604-6.131-33.418-7.609-50.334 37.727 22.348 81.066-3.545 92.158-42.389 47.881 47.42 119.756 5.738 119.42-59.146 26.521 5.803 54.318.637 72.771-21.029 19.533-22.934 13.518-53.814.311-78.107 39.925-13.697 70.193-50.069 67.605-93.87z" fill="#68182b" data-original="#68182b"/><path d="m539.498 922.878c-34.482 12.913-77.17 12.104-113.546 9.701-6.094-.402-58.387-5.523-51.288-20.854 5.215-11.264 13.004-21.109 17.855-32.672 16.439-39.189 13.516-83.436 5.395-124.354-8.424-42.424-33.24-74.697-59.343-107.682 5.386-4.066 9.864-8.848 13.378-14.168 8.529 14.451 18.82 27.365 29.925 40.111 13.04 14.967 23.501 33.98 37.137 47.877 21.564 21.973 26.9-12.949 26.527-28.379-1.252-51.748 10.371-103.072 13.896-154.546 1.816-26.484 2.428-53.01 4.854-79.456 2.674-29.139 10.311-57.237 17.488-85.485 7.949 1.075 16.053 1.212 24.15.513-11.521 42.172-20.613 81.391-23.262 125.429-1.613 26.802-2.738 53.623-4.602 80.409-1.637 23.527-9.941 51.969-1.979 74.912 11.682 33.666 42.77-24.527 46.486-31.113 24.164-42.816 64.588-74.794 105.201-101.148 3.58 5.325 7.846 10.102 12.678 14.238-60.061 40.793-101.936 97.842-114.221 170.527-5.543 32.793-4.045 66.232.387 99.041 2.395 17.719 5.539 35.955 11.635 52.795 7.138 19.72 31.458 52.991 1.249 64.304z" fill="#a98053" data-original="#a98053"/><path d="m808.779 585.138c12.863 22.279 18.508 48.598.309 69.965-15.445 18.137-41.512 19.553-63.035 13.982-8.813-2.287-10.686 2.588-10.484 9.566 1.611 58.24-61.146 96.063-103.256 49.791-4.613-5.068-12.498-7.99-14.178 2.785-4.912 31.287-34.916 53.998-64.328 46.564-10.016-2.529-19.545-7.939-19.705-21.236-.477-39.602 7.75-76.494 23.617-109.586 12.291 8.504 27.125 12.926 42.229 10.482.246-.039.498-.094.746-.137 3.557 7.398 8.586 14.061 15.789 18.191 5.451 3.127 14.105 5.078 20.025 2.396.385-.174.381-.832 0-1.008-6.107-2.826-11.031-4.529-15.951-9.43-2.184-2.174-4.119-4.49-5.846-6.945-2.926-4.146-1.807-6.193 2.779-8.189 9.57-4.172 18.244-10.646 22.492-19.771.27-.578-.32-1.375-.953-.953-19.686 13.119-43.922 21.475-65.652 12.225-7.678-3.271-10.098-8.131-5.033-16.553 19.691-32.758 47.42-61.154 82.018-83.936 18.695 11.145 42.859 14.131 67.262 5.066.492-.183.922-.421 1.316-.682 4.982 7.421 12.959 11.646 21.68 6.472.676-.402.656-1.392 0-1.709-7.793-3.751-13.439-8.617-16.355-16.064-2.533-6.467-1.879-11.985-1.225-18.257.238-2.301 1.281-5.519-3.045-2.282-6.168 4.632-7.447 13.306-5.527 21.45-47.361 17.523-96.313-16.125-86.283-68.936 13.418-1.828 24.332-12.824 20.699-26.973-.199-.769-1.25-.87-1.645-.216-5.172 8.554-12.375 16.95-22.934 17.677-12.953.889-20.232-5.325-25.863-14.854-.123-.209-.447-.097-.525.14-3.824 11.438 8.084 20.27 18.822 23.339-2.701 16.429-.471 31.564 5.395 44.415-26.719 17.34-51.869 36.521-74.215 59.313-11.902 12.143-22.213 25.727-31.529 39.912-3.848 5.859-7.139 12.057-10.387 18.271-14.365 27.5-21.803 25.195-20.967-5.279 1.182-43.887 6.938-88.599 9.572-132.43 2.525-41.967 12.564-79.601 23.701-119.895 38.545-7.355 71.311-32.243 76.426-73.065 17.342 1.181 47.277-8.172 45.082-30.074-.08-.789-1.094-1.454-1.729-.715-11.152 12.984-24.742 21.178-42.352 20.881-9.01-.152-17.572-3.489-24.471-9.199-7.721-6.386-10.752-12.79-15.887-23.388-.127-.259-.621-.171-.74.094-4.438 9.758 1.66 21.567 8.131 28.859 5.396 6.083 12.902 9.699 20.754 11.707-.018.107-.053.2-.064.311-4.393 41.094-41.574 60.597-79.012 65.069-41.258 4.932-84.108-21.531-96.699-61.57 3.265-2.013 6.197-4.676 8.079-7.531 4.17-6.325 3.939-11.531 2.611-18.742-.205-1.106-1.612-.81-1.952 0-8.685 20.719-24.09 27.384-46.655 14.119-.306-.18-.715.155-.711.542.178 12.419 17.102 16.161 27.727 15.269 5.131 16.141 14.193 29.889 25.828 40.804 5.781 5.426 5.862 9.128-.247 14.43-13.739 11.913-33.489 9.978-52.374 6.332-.314-.061-.518.281-.306.526 19.235 22.293 53.294 12.5 68.092-9.519 9.972 6.339 21.027 10.998 32.632 13.815-8.77 34.979-16.406 69.172-19.184 105.29-.559 7.278-1.076 14.546-1.576 21.81-.832 12.129-.408 15.025-15.893 12.165-11.05-2.039-21.566-6.08-31.178-12.691-15.381-10.582-23.047-26.595-32.244-42.115-.254-.43-.91-.24-.922.25-.44 18.686 7.992 33.576 20.713 44.514-10.765 9.636-26.246 11.718-40.365 11.01-.297-.016-.387.344-.223.537 11.373 13.518 36.818 5.109 48.613-5.514 14.675 9.639 32.945 15.026 49.872 15.959-1.916 28.412-3.955 56.756-7.549 85.188-2.512 19.861-4.673 39.723-5.926 59.705-.297 4.756-.445 9.514-.517 14.271-.53 35.52-8.188 27.299-21.706 9.475-17.891-23.592-40.24-43.559-54.342-70.16 3.684-10.566 4.275-22.365 1.531-34.402 12.479-3.016 19.691-12.533 17.486-25.828-.111-.654-1.166-.787-1.439-.189-3.497 7.635-10.314 14.859-18.736 16.904-9.322 2.264-18.526-2.428-26.817-6.111-.29-.131-.583.023-.609.35-.715 8.887 9.558 13.824 18.695 15.264 4.929 22.154-.896 40.039-17.304 52.242-24.477 18.203-46.117 3.389-55.258-7.465 4.558-7.904 6.68-21.711-.77-27.643-.354-.281-.953-.211-.979.258-1.248 22.764-8.574 32.27-32.511 39.498-.909.275-.98 1.67 0 1.906 10.519 2.551 19.273.77 26.653-5.338 14.504 17.359 40.289 23.326 60.779 13.15 14.412 18.178 28.816 36.188 40.653 56.205 9.085 15.367 14.518 32.84 17.951 50.664-16.188 11.693-33.056 17.637-52.751 11.539-17.176-5.318-27.899-22.066-30.184-39.107-1.013-7.525-6.252-12.535-13.317-7.83-21.81 14.512-47.323 19.941-71.739 7.146-24.114-12.637-28.963-39.682-22.646-63.627 2.125-8.031 1.307-11.297-5.551-12.693-40.135-8.18-43.08-54.869-12.418-76.229 7.607-5.297 7.121-12.778-.148-16.302-71.156-34.464-59.666-151.609 14.792-173.762 8.304-2.469 10.644-10.608 1.212-14.972-75.23-34.827-89.094-128.148-46.459-195.197 48.04-75.548 173.389-93.137 240.755-35.729 7.546 6.429 13.603 2.712 13.858-5.651 2.229-73.39 94.667-99.146 130.069-32.972 4.938 9.213 9.178 7.877 15.787.755 16.482-17.769 37.533-25.854 61.068-13.757 16.564 8.511 30.186 27.825 28.322 46.768-1.518 15.393 4.885 13.681 13.049 10.875 112.577-38.677 192.359 116.357 120.931 201.167-7.73 9.192-2.723 13.47 3.506 14.713 26.082 5.251 32.479 38.11 16.607 57.119-6.74 8.088-2.662 13.638 6.525 12.156 41.75-6.751 78.701 20.172 77.873 64.574-.652 34.915-30.412 62.576-61.705 72.78-13.273 4.325-9.902 6.732-6.027 13.441z" fill="#b0cf45" data-original="#b0cf45"/><path d="m516.389 611.153c9.316-14.186 19.627-27.77 31.529-39.912 22.346-22.792 47.496-41.973 74.215-59.313-5.865-12.851-8.096-27.986-5.395-44.415-5.369-1.534-11.027-4.509-14.869-8.527-4.268 3.91-6.195 8.443-8.002 14.69-5.861 20.231-2.654 36.809-21.912 51.342-27.648 20.865-55.344-6.499-57.205-34.292-1.211-18.03 6.191-37.454 13.941-53.325 15.652-32.063 46.533-51.161 67.539-78.993 12.715-16.852 29.971-41.472 22.684-63.529-8.158 3.083-17.184 4.354-24.18 3.877-5.115 40.822-37.881 65.71-76.426 73.065-11.137 40.294-21.176 77.928-23.701 119.895-2.635 43.831-8.391 88.543-9.572 132.43-.836 30.475 6.602 32.779 20.967 5.279 3.248-6.215 6.539-12.412 10.387-18.272z" fill="#aaaa38" data-original="#aaaa38"/><path d="m582.539 766.661c-23.713 2.668-35.521-19.08-32.68-39.523 1.885-13.563 9.344-26.648 18.1-36.922 12.643-14.832 29.596-17.588 47.207-15.641-6.465-4.164-11.148-10.348-14.473-17.26-.248.043-.5.098-.746.137-15.104 2.443-29.938-1.979-42.229-10.482-15.867 33.092-24.094 69.984-23.617 109.586.16 13.297 9.689 18.707 19.705 21.236 19.871 5.021 39.98-3.742 52.473-19.586-7.015 4.426-14.793 7.447-23.74 8.455z" fill="#aaaa38" data-original="#aaaa38"/><path d="m437.84 356.96c-9.769 14.535-27.922 23.67-44.672 21.837 7.684 3.606 14.49 4.583 24.099 4.376 31.53-.684 31.958 26.729 29.042 48.166-3.281 24.126-8.418 58.789-29.655 73.588 5.538 2.313 11.268 4.025 17.166 5.113 15.485 2.86 15.061-.036 15.893-12.165.5-7.264 1.018-14.531 1.576-21.81 2.777-36.118 10.414-70.312 19.184-105.29-11.606-2.817-22.66-7.476-32.633-13.815z" fill="#aaaa38" data-original="#aaaa38"/><path d="m448.086 521.989c-16.926-.933-35.197-6.32-49.872-15.959-4.131 3.722-9.95 7.146-16.24 9.477.43 7.243 6.475 14.432 10.897 19.738 6.622 7.944 15.304 16.946 10.508 28.084-4.47 10.383-19.143 19.404-29.662 13.805-3.095 4.346-7.965 7.439-14.14 8.932 2.744 12.037 2.152 23.836-1.531 34.402 14.102 26.602 36.451 46.568 54.342 70.16 13.519 17.824 21.176 26.045 21.706-9.475.071-4.758.22-9.516.517-14.271 1.253-19.982 3.414-39.844 5.926-59.705 3.594-28.432 5.633-56.776 7.549-85.188z" fill="#aaaa38" data-original="#aaaa38"/><path d="m422.428 359.62c6.109-5.302 6.028-9.004.247-14.43-11.635-10.915-20.697-24.663-25.828-40.804-6.606.555-15.645-.687-21.582-4.687-.448 8.853 7.406 16.168 13.476 22.082 7.448 7.254 14.009 12.854 17.663 23.094 3.684 10.332-1.057 16.361-6.013 23.546 8.165-.809 15.736-3.339 22.037-8.801z" fill="#aaaa38" data-original="#aaaa38"/><path d="m727.146 555.099c-3.186-1.495-6.002-4.086-8.207-7.371-.395.261-.824.499-1.316.682-24.402 9.064-48.566 6.078-67.262-5.066-34.598 22.781-62.326 51.178-82.018 83.936-5.064 8.422-2.645 13.281 5.033 16.553 14.771 6.287 30.695 4.43 45.566-1.518-22.691-4.473-8.615-31.645-1.906-40.16 6.213-7.889 15.639-12.971 24.395-17.496 14.059-7.268 29.869-10.063 45.336-12.264 12.379-1.763 34.958-3.531 40.379-17.296z" fill="#aaaa38" data-original="#aaaa38"/><path d="m369.422 709.269c-11.837-20.018-26.241-38.027-40.653-56.205-11.453 5.688-24.558 6.324-36.426 2.754 16.723 11.734 33.615 21.215 44.447 41.477 14.024 26.24 8.09 69.242-29.436 46.654 4.67 12.559 14.047 23.432 27.268 27.523 19.695 6.098 36.563.154 52.751-11.539-3.433-17.825-8.866-35.297-17.951-50.664z" fill="#aaaa38" data-original="#aaaa38"/><path d="m262.539 499.959c.566 8.669-6.07 14.017-12.945 17.502-.067.033-.049.13-.102.18 9.17 1.556 22.535-4.687 30.703-16.669 3.402-4.99 7.828-15.797 5.411-29.224-22.489 3.17-43.729 4.618-63.871-9.609 9.12 27.956 40.044 26.237 40.804 37.82z" fill="#aaaa38" data-original="#aaaa38"/><path d="m638.037 354.743c-5.773 11.873-4.855 23.251-.574 32.916 12.613 28.463 59.914 45.366 90.43 17.418 6.592-6.033 11.365-14.257 12.994-25.005-24.178 31.852-90.571 24.177-102.85-25.329z" fill="#aaaa38" data-original="#aaaa38"/><path d="m798.639 434.344c-9.188 1.481-13.266-4.068-6.525-12.156 15.871-19.009 9.475-51.868-16.607-57.119-6.229-1.243-11.236-5.521-3.506-14.713 71.428-84.811-8.354-239.845-120.928-201.167-8.164 2.806-14.566 4.518-13.049-10.875 1.863-18.942-11.758-38.257-28.322-46.768-23.535-12.098-44.586-4.012-61.068 13.757-6.609 7.122-10.85 8.458-15.787-.755-35.402-66.174-127.84-40.418-130.069 32.972-.256 8.363-6.313 12.08-13.858 5.651-67.366-57.408-192.715-39.819-240.755 35.729-42.635 67.049-28.771 160.37 46.459 195.197 9.432 4.363 7.092 12.503-1.212 14.972-74.458 22.152-85.948 139.298-14.792 173.762 7.27 3.523 7.756 11.005.148 16.302-27.17 18.928-27.891 57.686.207 71.973-38.69-50.557 47.432-62.076 21.691-104.436-16.34-26.886-43.973-42.516-37.455-79.673 4.26-24.274 33.679-40.337 51.543-54.404 39.729-31.283 20.885-69.796-.008-87.443-13.424-11.34-26.5-22.507-35.389-39.167-31.188-58.457 37.307-158.162 109.446-122.933 28.944 14.133 52.264 29.689 85.979 29.358 21.986-.218 33.809-12.453 45.271-29.358 17.546-25.878 49.91-66.851 89.802-41.663 22.313 14.086 28.395 39.698 53.973 49.723 35.256 13.815 51.447-1.464 79.58-2.879 53.5-2.685 77.379 14.122 95.406 33.515 33.596 36.141 29.74 66.117 16.113 103.434-9.426 25.808-13.998 46.082 8.285 67.631 11.92 11.526 19.811 20.856 14.98 40.615-6.172 25.246.16 50.577 33.826 60.784 24.891 7.542 27.289 31.978 11.986 50.531-13.455 16.314-33.773 24.81-45.766 42.628-16.146 23.999 18.498 48.216-2.055 74.032-20.057 25.195-56.602-.457-75.221 25.678-4.268 5.99-4.971 15.057-5.871 22.006-4.313 33.281-27.113 54.131-58.166 43.99 41.922 38.869 100.193 1.727 98.641-54.422-.201-6.979 1.672-11.854 10.484-9.566 21.523 5.57 47.59 4.154 63.035-13.982 18.199-21.367 12.555-47.686-.309-69.965-3.875-6.709-7.246-9.115 6.027-13.439 31.293-10.204 61.053-37.865 61.705-72.78.832-44.405-36.119-71.328-77.869-64.577z" fill="#d6e238" data-original="#d6e238"/><path d="m397.914 754.7c8.121 40.918 11.045 85.164-5.395 124.354-4.852 11.563-12.641 21.408-17.855 32.672-7.099 15.33 45.194 20.451 51.288 20.854 36.376 2.403 79.064 3.212 113.546-9.701 19.105-7.154 16.395-23.092 10.02-38.83-.961 3.018-2.18 5.975-3.74 8.828-12.713 23.234-45.279 23.16-68.051 25.609-15.191 1.631-30.639 3.611-45.879 1.457-7.328-1.037-14.299-3.736-19.559-9.051-8.877-8.967-5.816-23.67-3.973-34.551 3.807-22.477 8.83-44.605 9.482-67.48.645-22.527-4.377-45.531-13.261-66.176-8.714-20.25-20.368-38.719-33.86-56.109-5.269-6.791-11.008-14.502-17.647-20.99 20.38 26.888 38.04 54.649 44.884 89.114z" fill="#855725" data-original="#855725"/><path d="m445.537 692.46c.174 7.15-.883 18.482-4.211 26.404 2.407-2.945 4.075-7.412 4.733-9.33 5.371-15.645 3.963-32.057 4.924-48.332 2.156-36.57 10.707-73.1 15.168-109.48 4.094-33.391 4.9-67.406 11.432-100.443 3.533-17.882 11.152-40.818 23.203-58.383 1.654-6.422 3.355-12.873 5.141-19.41-8.098.699-16.201.563-24.15-.513-7.178 28.248-14.814 56.347-17.488 85.485-2.426 26.446-3.037 52.972-4.854 79.456-3.527 51.474-15.15 102.798-13.898 154.546z" fill="#855725" data-original="#855725"/><path d="m627.771 521.974c-40.613 26.354-81.037 58.332-105.201 101.148-2.732 4.84-20.236 37.504-33.967 41.154 1.938.883 4.256 1.24 7.08.826 7.904-1.16 14.52-8.906 19.729-14.174 10.279-10.391 19.504-21.813 28.664-33.18 18.902-23.449 37.148-47.842 61.49-66.015 9.986-7.456 20.998-13.182 32.488-17.87-3.816-3.592-7.331-7.502-10.283-11.889z" fill="#855725" data-original="#855725"/><path d="m521.615 841.976c-3.625-25.83-9.26-51.113-11.189-77.219-1.006-13.629-.918-27.299.135-40.918.625-8.121 2.164-15.936 3.893-23.703 4.717-21.25-.709-25.457-12.746-2.063-5.396 10.49-9.377 21.969-12.809 32.156-7.641 22.686-11.527 46.713-12.707 70.578-.838 16.945.301 34.139 3.299 50.828 2.463 13.693 7.127 30.668 20.645 37.359 26.548 13.14 23.247-34.421 21.479-47.018z" fill="#d3b988" data-original="#d3b988"/><g fill="#68182b"><path d="m774.02 320.41c-.211.744.818 1.143 1.217.513 21.082-33.346 17.67-79.485-6.375-110.679-.246-.322-.9-.153-.723.306 14.269 36.593 16.627 71.881 5.881 109.86z" fill="#68182b" data-original="#68182b"/><path d="m768.014 332.936c2.266-1.039 5.842-4.947 3.781-7.561-.066-.083-.189-.094-.281-.074-2.703.533-4.211 4.824-4.285 7.185-.014.427.445.607.785.45z" fill="#68182b" data-original="#68182b"/><path d="m479.539 344.46c-.293-.012-.43.438-.154.568 28.652 13.739 66.898-1.666 84.33-26.062.428-.599-.451-1.093-.934-.72-11.248 8.705-24.027 16.689-37.447 21.438-15.232 5.389-29.889 5.441-45.795 4.776z" fill="#68182b" data-original="#68182b"/><path d="m567.613 315.157c1.768-.895 4.732-2.525 2.865-4.918-.102-.128-.357-.197-.508-.135-1.908.806-2.057 2.892-2.875 4.536-.169.344.173.693.518.517z" fill="#68182b" data-original="#68182b"/><path d="m151.068 304.827c-8.797-21.178-9.912-43.066-8.229-65.601.018-.247-.362-.349-.47-.128-10.801 22.145-5.294 49.243 3.307 71.177 6.927 17.666 24.008 40.249 43.557 44.326.671.139 1.033-.58.633-1.084-13.628-17.042-30.086-27.716-38.798-48.69z" fill="#68182b" data-original="#68182b"/><path d="m197.078 357.518c-1.142-.501-2.322-1.146-3.588-.976-.234.031-.371.294-.383.504-.182 3.147 5.012 4.854 7.309 3.519.316-.182.311-.56.105-.818-1.021-1.294-1.979-1.584-3.443-2.229z" fill="#68182b" data-original="#68182b"/><path d="m205.455 691.608c-.133-.318-.643-.309-.637.086.268 15.873 11.819 27.123 25.748 32.689 16.309 6.518 34.9 1.461 49.465-6.615.902-.502.257-1.75-.665-1.578-28.844 5.311-60.54 7.6-73.911-24.582z" fill="#68182b" data-original="#68182b"/><path d="m291.958 712.034c-.01-.24-.207-.484-.468-.467-2.366.162-5.761.922-7.052 3.229-.126.225-.115.564.097.74 2.699 2.272 7.551-.049 7.423-3.502z" fill="#68182b" data-original="#68182b"/><path d="m333.033 396.19c-.985 16.265-3.211 33.534-11.883 47.721-7.396 12.101-20.874 19.051-34.063 22.8-13.119 3.728-27.082 3.479-40.393 1.074-6.746-1.216-13.57-3.321-19.714-6.327-5.676-2.777-10.245-7.055-16.294-9.099-.566-.19-.996.483-.735.958 13.532 24.625 44.582 29.894 70.985 25.534-.625 9.388-3.543 18.146-10.177 25.271-8.896 9.55-21.229 10.339-33.382 11.445-.346.031-.504.472-.182.67 28.733 17.67 54.146-12.354 54.541-39.763 1.275-.357 2.559-.706 3.791-1.106 34.121-11.077 51.238-45.407 39.579-79.459-.39-1.139-2.001-.924-2.073.281z" fill="#68182b" data-original="#68182b"/><path d="m745.156 369.753c-14.479 19.298-39.902 29.669-63.525 24.171-10.953-2.55-20.688-8.824-28.178-17.09-8.055-8.89-10.715-20.22-15.736-30.717-.293-.614-1.178-.387-1.355.178-8.814 27.813 20.658 52.54 44.682 58.225 28.814 6.817 55.313-6.732 66.045-33.953.475-1.21-1.278-1.689-1.933-.814z" fill="#68182b" data-original="#68182b"/><path d="m265.01 130.486c-.387.227-.116.767.292.69 37.418-7.019 71.297.57 104.892 17.51.724.366 1.374-.494.851-1.102-22.502-26.036-76.514-34.444-106.035-17.098z" fill="#68182b" data-original="#68182b"/><path d="m379.693 151.81c-1.479-1.112-2.844-.815-4.443-1.196-.286-.067-.599.255-.408.529.396.568.453 1.362.803 1.963.4.684 1.068 1.295 1.604 1.871 1.352 1.457 2.903 1.958 4.813 1.83.447-.029.735-.4.641-.844-.448-2.082-1.347-2.899-3.01-4.153z" fill="#68182b" data-original="#68182b"/><path d="m860.814 482.872c-.074-.214-.375-.174-.389.052-.641 10.244-1.17 20.391-4.117 30.284-3.307 11.103-11.869 21.875-19.133 30.699-.41.501.104 1.288.721.934 22.208-12.791 31.317-37.518 22.918-61.969z" fill="#68182b" data-original="#68182b"/><path d="m832.795 546.687c-3.021.58-5.252 3.105-7.852 4.68-.451.274-.504 1.012 0 1.272 3.816 1.968 9.064-.724 8.785-5.241-.031-.504-.445-.806-.933-.711z" fill="#68182b" data-original="#68182b"/><path d="m722.52 676.255c-1.945 8.76-3.242 16.514-7.402 24.664-3.602 7.053-8.363 13.857-13.016 20.246-.586.803.508 1.637 1.254 1.254 14.492-7.4 29.543-30.018 19.789-46.248-.147-.242-.559-.217-.625.084z" fill="#68182b" data-original="#68182b"/><path d="m698.205 724.187c-2.686-1.498-5.443.67-7.301 2.65-.545.586-.348 1.65.488 1.85 2.996.711 6.703-.73 7.105-3.986.026-.2-.128-.423-.292-.514z" fill="#68182b" data-original="#68182b"/></g></g></g></g></svg>